<svg id="Capa_1" data-name="Capa 1" xmlns="http://www.w3.org/2000/svg" xmlns:xlink="http://www.w3.org/1999/xlink" viewBox="0 0 256 391"><defs><style>.cls-1{fill:none;}.cls-2{fill:#efefef;}.cls-3{clip-path:url(#clip-path);}.cls-4{fill:url(#linear-gradient);}.cls-5{clip-path:url(#clip-path-2);}.cls-6{fill:#fff;}.cls-7{opacity:0.3;}.cls-8{fill:url(#linear-gradient-2);}.cls-9{clip-path:url(#clip-path-4);}.cls-10{fill:url(#linear-gradient-3);}.cls-11{clip-path:url(#clip-path-5);}.cls-12{fill:url(#linear-gradient-4);}.cls-13{fill:url(#linear-gradient-5);}.cls-14{clip-path:url(#clip-path-7);}.cls-15{clip-path:url(#clip-path-8);}.cls-16{fill:url(#linear-gradient-6);}.cls-17{clip-path:url(#clip-path-9);}.cls-18{clip-path:url(#clip-path-10);}.cls-19{fill:url(#linear-gradient-7);}.cls-20{fill:url(#linear-gradient-8);}</style><clipPath id="clip-path"><rect class="cls-1" x="-809.48" y="-152.79" width="207.47" height="228.11" rx="13.76"/></clipPath><linearGradient id="linear-gradient" x1="-886.18" y1="69.45" x2="85.32" y2="69.45" gradientUnits="userSpaceOnUse"><stop offset="0" stop-color="#0e061e"/><stop offset="0.09" stop-color="#100725"/><stop offset="0.22" stop-color="#150937"/><stop offset="0.36" stop-color="#1d0d55"/><stop offset="0.43" stop-color="#210f65"/><stop offset="0.82" stop-color="#4f1a7c"/><stop offset="0.99" stop-color="#641f87"/></linearGradient><clipPath id="clip-path-2"><rect class="cls-1" x="-886.18" y="-209.85" width="971.5" height="558.6"/></clipPath><linearGradient id="linear-gradient-2" x1="-903.24" y1="103.08" x2="273.54" y2="103.08" gradientUnits="userSpaceOnUse"><stop offset="0" stop-color="#2d62ff"/><stop offset="0.21" stop-color="#641f87"/><stop offset="0.48" stop-color="#1e2f8a"/><stop offset="1" stop-color="#0e061e"/></linearGradient><clipPath id="clip-path-4"><rect class="cls-1" x="-323.48" y="-156.79" width="207.47" height="228.11" rx="13.76"/></clipPath><linearGradient id="linear-gradient-3" x1="-400.18" y1="65.45" x2="571.32" y2="65.45" xlink:href="#linear-gradient"/><clipPath id="clip-path-5"><rect class="cls-1" x="-400.18" y="-213.85" width="971.5" height="558.6"/></clipPath><linearGradient id="linear-gradient-4" x1="-480.59" y1="7.91" x2="237.25" y2="7.91" xlink:href="#linear-gradient-2"/><linearGradient id="linear-gradient-5" x1="-417.24" y1="99.08" x2="759.54" y2="99.08" xlink:href="#linear-gradient-2"/><clipPath id="clip-path-7"><rect class="cls-1" x="-840.34" y="505.43" width="265.86" height="292.29" rx="17.63"/></clipPath><clipPath id="clip-path-8"><rect class="cls-1" x="-938.63" y="432.31" width="1244.88" height="715.78"/></clipPath><linearGradient id="linear-gradient-6" x1="-960.48" y1="833.3" x2="547.44" y2="833.3" xlink:href="#linear-gradient-2"/><clipPath id="clip-path-9"><rect class="cls-1" x="-310.34" y="489.43" width="265.86" height="292.29" rx="17.63"/></clipPath><clipPath id="clip-path-10"><rect class="cls-1" x="-408.63" y="416.31" width="1244.88" height="715.78"/></clipPath><linearGradient id="linear-gradient-7" x1="-511.66" y1="700.47" x2="408.17" y2="700.47" xlink:href="#linear-gradient-2"/><linearGradient id="linear-gradient-8" x1="-430.48" y1="817.3" x2="1077.44" y2="817.3" xlink:href="#linear-gradient-2"/></defs><title>Mesa de trabajo 23</title><path class="cls-2" d="M256,109.22C195.92-21.28,135.84-2.28,94,15.72s94,70,19.59,93-61.39,95-50.94,112,58.78,39,30,60S0,305.72,0,391.22c0-.5,256-.5,256-.5Z"/><g class="cls-3"><rect class="cls-4" x="-886.18" y="-209.85" width="971.5" height="558.6"/><g class="cls-5"><path class="cls-6" d="M191.87-2.15c-4.61-.75-4.84.38-6.18,3.73.5-3.81.66-4.49-3.82-6.13,3.92.56,4.81,1,6.15-3.59C187.3-3.26,188.2-3.65,191.87-2.15Z"/><path class="cls-6" d="M45,16.39c-2.31-.38-2.43.19-3.1,1.87.25-1.91.33-2.25-1.92-3.08,2,.28,2.41.51,3.09-1.8C42.7,15.83,43.15,15.63,45,16.39Z"/><path class="cls-6" d="M155.19,6.86c-.91-.15-.95.07-1.22.73.1-.75.14-.88-.75-1.21.77.11.95.2,1.21-.7C154.29,6.64,154.47,6.56,155.19,6.86Z"/><path class="cls-6" d="M108.56,23.1a1.19,1.19,0,1,1,.31-1.65A1.19,1.19,0,0,1,108.56,23.1Z"/></g><g class="cls-5"><g class="cls-7"><path class="cls-8" d="M-903.24,195.72c78.18-324.27,453.06-77.82,487.17,173.75,17.22,127,286.35,13.55,195.09-81s259-52.24,133.25-181.22c-120.84-123.92-84-527.63,1.06-226,136.45,484,194.23-439.54,206.8-75.68,3.2,92.74-298.47,682.23,132.18,408.27,80.49-51.21-93.8,217.46-93.8,217.46L69,353.48S-109,263.94-119.71,330-372.35,487.8-372.35,487.8L-509.88,371.6S-749.73,106.18-903.24,233Z"/></g></g></g><g class="cls-9"><rect class="cls-10" x="-400.18" y="-213.85" width="971.5" height="558.6"/><g class="cls-11"><path class="cls-6" d="M171.53,44.33a1.93,1.93,0,0,1-.92,2.56,1.91,1.91,0,1,1,.92-2.56Z"/><path class="cls-6" d="M131.52,103.05a1.68,1.68,0,1,1-2.24-.8A1.69,1.69,0,0,1,131.52,103.05Z"/><path class="cls-6" d="M190.29,77.7a3.31,3.31,0,1,1-4.4-1.59A3.3,3.3,0,0,1,190.29,77.7Z"/><path class="cls-6" d="M168.48,115.7a3.31,3.31,0,1,1-4.4-1.59A3.3,3.3,0,0,1,168.48,115.7Z"/><path class="cls-6" d="M155.58,185.44a2.42,2.42,0,1,1-1.82-2.91A2.42,2.42,0,0,1,155.58,185.44Z"/><path class="cls-6" d="M150.28,235.22a2.43,2.43,0,1,1-1.82-2.91A2.42,2.42,0,0,1,150.28,235.22Z"/><path class="cls-6" d="M141.69,301.82a2.43,2.43,0,1,1-1.82-2.91A2.43,2.43,0,0,1,141.69,301.82Z"/><path class="cls-6" d="M103.85,254.93A2.42,2.42,0,1,1,102,252,2.42,2.42,0,0,1,103.85,254.93Z"/><path class="cls-6" d="M113.85,344.31A2.42,2.42,0,1,1,112,341.4,2.41,2.41,0,0,1,113.85,344.31Z"/><path class="cls-6" d="M50.81,177.94a3.64,3.64,0,1,1-2.72-4.38A3.63,3.63,0,0,1,50.81,177.94Z"/><path class="cls-6" d="M137.38,394c-6-.94-6.29.54-8,4.91.61-5,.81-5.84-5-7.93,5.11.68,6.27,1.25,8-4.75C131.43,392.59,132.59,392.08,137.38,394Z"/><path class="cls-6" d="M66.77,325.85c-3-.47-3.16.27-4,2.46.3-2.49.41-2.93-2.53-4,2.56.34,3.15.63,4-2.38C63.78,325.14,64.37,324.88,66.77,325.85Z"/><path class="cls-6" d="M54.87,302.62c-1.18-.19-1.24.1-1.57,1,.12-1,.16-1.14-1-1.56,1,.14,1.23.25,1.56-.93C53.7,302.34,53.93,302.24,54.87,302.62Z"/><path class="cls-6" d="M88,114.86c-1.18-.19-1.24.1-1.57,1,.12-1,.16-1.15-1-1.56,1,.14,1.23.25,1.56-.93C86.78,114.58,87,114.48,88,114.86Z"/><path class="cls-6" d="M182.72,119.5c-1.19-.19-1.24.1-1.58,1,.12-1,.16-1.15-1-1.56,1,.14,1.23.25,1.57-.93C181.54,119.22,181.77,119.12,182.72,119.5Z"/><path class="cls-6" d="M14.71,257.26c-6-.93-6.3.55-8,4.92.61-5,.82-5.85-5-7.93,5.12.68,6.27,1.25,8-4.75C8.75,255.86,9.91,255.35,14.71,257.26Z"/><path class="cls-6" d="M33.06,88c-6-.94-6.3.54-8,4.91.61-5,.82-5.84-5-7.93,5.12.68,6.27,1.26,8-4.75C27.1,86.57,28.26,86.06,33.06,88Z"/><path class="cls-6" d="M160.85,149.28c-6-.93-6.3.55-8,4.92.62-5,.82-5.85-5-7.93,5.12.68,6.28,1.25,8-4.75C154.89,147.88,156.06,147.37,160.85,149.28Z"/><path class="cls-6" d="M120.93,64.28c-6-.93-6.3.55-8,4.92.61-5,.82-5.85-5-7.93,5.12.68,6.28,1.25,8-4.75C115,62.88,116.13,62.37,120.93,64.28Z"/><path class="cls-6" d="M85.11,81a2.47,2.47,0,1,1-4.82-1.12A2.47,2.47,0,0,1,85.11,81Z"/><path class="cls-6" d="M4.12,203.86a2.29,2.29,0,1,1-1.72-2.74A2.29,2.29,0,0,1,4.12,203.86Z"/><path class="cls-6" d="M15.13,299.87a2.47,2.47,0,1,1-1.84-3A2.48,2.48,0,0,1,15.13,299.87Z"/><path class="cls-6" d="M35.36,48.32a3.83,3.83,0,1,1-2.87-4.6A3.84,3.84,0,0,1,35.36,48.32Z"/><path class="cls-6" d="M36.42,115.54a2.61,2.61,0,1,1-2-3.14A2.62,2.62,0,0,1,36.42,115.54Z"/><path class="cls-6" d="M8.45,128.35a1.87,1.87,0,1,1-1.4-2.25A1.86,1.86,0,0,1,8.45,128.35Z"/><path class="cls-6" d="M95.59,144.14a1.55,1.55,0,1,1-1.16-1.85A1.55,1.55,0,0,1,95.59,144.14Z"/><path class="cls-6" d="M76.27,215.61a1.54,1.54,0,1,1-1.16-1.84A1.53,1.53,0,0,1,76.27,215.61Z"/><path class="cls-6" d="M97.92,305.89A2.38,2.38,0,1,1,96.14,303,2.38,2.38,0,0,1,97.92,305.89Z"/><path class="cls-6" d="M59.92,367.39a1.55,1.55,0,1,1,.38-2.15A1.55,1.55,0,0,1,59.92,367.39Z"/><path class="cls-6" d="M74.93,24.42A1.54,1.54,0,0,1,72.79,24a1.54,1.54,0,1,1,2.53-1.76A1.53,1.53,0,0,1,74.93,24.42Z"/><path class="cls-6" d="M40.71,372.79c.17-.12-.09-.78-.58-1.48s-1-1.18-1.18-1.06.1.79.58,1.48S40.54,372.91,40.71,372.79Z"/><path class="cls-6" d="M197.2,150.64a1.06,1.06,0,1,1-1.4-.55A1.06,1.06,0,0,1,197.2,150.64Z"/><path class="cls-6" d="M173.86,182.38a.93.93,0,0,1-1.71.73.93.93,0,0,1,.49-1.22A.92.92,0,0,1,173.86,182.38Z"/><path class="cls-6" d="M206.93,169.5a1.84,1.84,0,1,1-2.41-1A1.83,1.83,0,0,1,206.93,169.5Z"/><path class="cls-6" d="M12,97.26a1.24,1.24,0,0,1-2.4-.65,1.24,1.24,0,1,1,2.4.65Z"/><path class="cls-6" d="M91.64,299.07a1.55,1.55,0,1,1-3-.81,1.55,1.55,0,0,1,3,.81Z"/><path class="cls-6" d="M10,253.09a1.28,1.28,0,0,1-1.56.9,1.27,1.27,0,0,1,.66-2.45A1.28,1.28,0,0,1,10,253.09Z"/><path class="cls-6" d="M45.68,118.78a1.19,1.19,0,1,1-.84-1.46A1.19,1.19,0,0,1,45.68,118.78Z"/><path class="cls-6" d="M76.88,256.8a.83.83,0,1,1-.59-1A.83.83,0,0,1,76.88,256.8Z"/><path class="cls-6" d="M57.92,266.73a1.11,1.11,0,1,1-.78-1.37A1.11,1.11,0,0,1,57.92,266.73Z"/><path class="cls-6" d="M48.31,332.47a1.11,1.11,0,1,1-.79-1.38A1.12,1.12,0,0,1,48.31,332.47Z"/><path class="cls-6" d="M194.09,190.12a1.84,1.84,0,1,1-2.41-1A1.84,1.84,0,0,1,194.09,190.12Z"/><path class="cls-6" d="M185.55,228.5a1.35,1.35,0,1,1-1-1.65A1.35,1.35,0,0,1,185.55,228.5Z"/><path class="cls-6" d="M181.61,256a1.34,1.34,0,0,1-1.65,1,1.35,1.35,0,0,1,.7-2.6A1.34,1.34,0,0,1,181.61,256Z"/><path class="cls-6" d="M175.52,292.71a1.35,1.35,0,1,1-1-1.65A1.34,1.34,0,0,1,175.52,292.71Z"/><path class="cls-6" d="M155.5,266a1.35,1.35,0,1,1-1-1.65A1.35,1.35,0,0,1,155.5,266Z"/><path class="cls-6" d="M159.25,315.69a1.35,1.35,0,1,1-2.6-.7,1.35,1.35,0,0,1,2.6.7Z"/><path class="cls-6" d="M127.64,222.25a2,2,0,1,1-1.41-2.48A2,2,0,0,1,127.64,222.25Z"/><path class="cls-6" d="M75.07,140.48c-2.28-.44-2.41.12-3.12,1.76.3-1.88.39-2.22-1.82-3.1,2,.34,2.38.57,3.11-1.7C72.82,139.86,73.27,139.68,75.07,140.48Z"/><path class="cls-6" d="M97.58,217.84c-2.55-.49-2.7.14-3.5,2,.34-2.11.44-2.49-2-3.47,2.18.37,2.66.63,3.48-1.91C95.06,217.15,95.56,217,97.58,217.84Z"/><path class="cls-6" d="M92.11,339c-3.31-.64-3.5.18-4.53,2.57.44-2.74.57-3.22-2.64-4.5,2.82.48,3.45.82,4.51-2.47C88.84,338.09,89.49,337.83,92.11,339Z"/><path class="cls-6" d="M171.29,343.69c-3.31-.64-3.5.18-4.53,2.56.44-2.73.57-3.22-2.63-4.49,2.82.48,3.45.82,4.51-2.47C168,342.79,168.67,342.53,171.29,343.69Z"/><path class="cls-6" d="M64.94,354.12c-1.66-.32-1.75.09-2.27,1.28.22-1.37.28-1.61-1.32-2.25,1.41.24,1.73.41,2.26-1.24C63.3,353.67,63.63,353.54,64.94,354.12Z"/><path class="cls-6" d="M133.53,304.52c-1.66-.32-1.75.09-2.27,1.29.22-1.38.28-1.62-1.32-2.26,1.41.24,1.73.41,2.26-1.24C131.89,304.07,132.22,303.94,133.53,304.52Z"/><path class="cls-6" d="M127.4,291.41c-.65-.12-.68,0-.89.51.09-.54.11-.64-.52-.89.56.1.68.16.89-.48C126.76,291.24,126.89,291.19,127.4,291.41Z"/><path class="cls-6" d="M144.65,349.45c-.65-.13-.69,0-.9.5.09-.53.12-.63-.51-.88.55.09.67.16.88-.49C144,349.27,144.13,349.22,144.65,349.45Z"/><path class="cls-6" d="M1.81,274.85c-.65-.13-.69,0-.89.5.09-.54.11-.63-.52-.88.56.09.68.16.89-.49C1.17,274.67,1.3,274.62,1.81,274.85Z"/><path class="cls-6" d="M149.49,188c-.66-.12-.69,0-.9.51.09-.54.12-.64-.51-.89.55.1.67.17.88-.48C148.84,187.87,149,187.82,149.49,188Z"/><path class="cls-6" d="M201.9,192.51c-.65-.13-.69,0-.9.5.09-.53.12-.63-.51-.88.55.09.68.16.88-.49C201.25,192.33,201.38,192.28,201.9,192.51Z"/><path class="cls-6" d="M106.06,265.48c-3.31-.64-3.5.18-4.54,2.56.44-2.73.57-3.22-2.63-4.49,2.82.48,3.45.82,4.51-2.47C102.78,264.58,103.44,264.32,106.06,265.48Z"/><path class="cls-6" d="M33.08,205.76c-3.31-.64-3.49.17-4.53,2.56.44-2.74.57-3.22-2.63-4.49,2.82.47,3.45.81,4.51-2.48C29.81,204.86,30.47,204.6,33.08,205.76Z"/><path class="cls-6" d="M119.61,172.06c-3.31-.64-3.5.17-4.54,2.56.44-2.74.57-3.22-2.63-4.5,2.82.48,3.45.82,4.51-2.47C116.34,171.16,117,170.9,119.61,172.06Z"/><path class="cls-6" d="M31.16,278.79c-1.94-.37-2.05.1-2.66,1.5.26-1.6.34-1.89-1.54-2.63,1.65.28,2,.48,2.64-1.45C29.24,278.26,29.63,278.11,31.16,278.79Z"/><path class="cls-6" d="M12.92,122.42c-2.09-.4-2.21.11-2.87,1.62.28-1.73.36-2-1.67-2.84,1.79.3,2.19.52,2.86-1.57C10.85,121.85,11.27,121.69,12.92,122.42Z"/><path class="cls-6" d="M189.19,208.58c-3.31-.64-3.5.17-4.54,2.56.44-2.74.57-3.22-2.63-4.5,2.82.48,3.45.82,4.51-2.47C185.91,207.68,186.57,207.42,189.19,208.58Z"/><path class="cls-6" d="M168.77,160.68c-3.31-.64-3.5.18-4.54,2.57.44-2.74.57-3.23-2.63-4.5,2.82.48,3.45.82,4.51-2.47C165.49,159.78,166.15,159.53,168.77,160.68Z"/><path class="cls-6" d="M148.58,169.23a1.37,1.37,0,1,1-1-1.68A1.36,1.36,0,0,1,148.58,169.23Z"/><path class="cls-6" d="M2.84,110.39A2.32,2.32,0,0,1,0,112a2.35,2.35,0,0,1-1.65-2.86,2.33,2.33,0,1,1,4.5,1.21Z"/><path class="cls-6" d="M101.26,235.68a1.27,1.27,0,1,1-.9-1.55A1.27,1.27,0,0,1,101.26,235.68Z"/><path class="cls-6" d="M105.44,289.1a1.37,1.37,0,0,1-1.68,1,1.37,1.37,0,1,1,1.68-1Z"/><path class="cls-6" d="M121.68,150.13a2.13,2.13,0,1,1-1.5-2.61A2.12,2.12,0,0,1,121.68,150.13Z"/><path class="cls-6" d="M120.92,187.39a1.45,1.45,0,1,1-1-1.77A1.45,1.45,0,0,1,120.92,187.39Z"/><path class="cls-6" d="M105.17,193.93a1,1,0,0,1-2-.54,1,1,0,0,1,1.26-.73A1,1,0,0,1,105.17,193.93Z"/><path class="cls-6" d="M153.13,204.42a.86.86,0,1,1-.6-1A.86.86,0,0,1,153.13,204.42Z"/><path class="cls-6" d="M141,243.64a.86.86,0,0,1-1.05.6.87.87,0,0,1-.61-1.05.86.86,0,0,1,1.66.45Z"/><path class="cls-6" d="M151.19,294.09a1.32,1.32,0,1,1-.93-1.62A1.32,1.32,0,0,1,151.19,294.09Z"/><path class="cls-6" d="M65.08,194.63a1.35,1.35,0,1,1-1-1.65A1.34,1.34,0,0,1,65.08,194.63Z"/><path class="cls-6" d="M58,163.4a.86.86,0,1,1-.6-1.05A.86.86,0,0,1,58,163.4Z"/><path class="cls-6" d="M24.83,186.46a1.34,1.34,0,1,1-.33-2.66,1.34,1.34,0,1,1,.33,2.66Z"/><path class="cls-6" d="M33.72,180.71a.84.84,0,0,1-.95-.74.85.85,0,1,1,1.69-.21A.84.84,0,0,1,33.72,180.71Z"/><path class="cls-6" d="M25.69,222.74a1.34,1.34,0,1,1-1.45-2.26,1.34,1.34,0,1,1,1.45,2.26Z"/><path class="cls-6" d="M128.9,327.4a.85.85,0,1,1,.26-1.18A.85.85,0,0,1,128.9,327.4Z"/><path class="cls-6" d="M51.72,224.24a.85.85,0,1,1,.26-1.18A.85.85,0,0,1,51.72,224.24Z"/><path class="cls-6" d="M33.75,148.67a.85.85,0,1,1-.92-1.44.85.85,0,0,1,.92,1.44Z"/><path class="cls-6" d="M144.08,137.68a.86.86,0,1,1,.26-1.19A.87.87,0,0,1,144.08,137.68Z"/><path class="cls-6" d="M84.87,172.11a.85.85,0,0,1-1.18-.26.85.85,0,1,1,1.18.26Z"/><path class="cls-6" d="M99.8,135.33a.85.85,0,1,1-.92-1.44.85.85,0,1,1,.92,1.44Z"/><path class="cls-6" d="M26.93,300.8a.86.86,0,0,1-.93-1.45.86.86,0,0,1,.93,1.45Z"/><path class="cls-6" d="M152,343.12a.85.85,0,0,1-.92-1.44.85.85,0,0,1,1.18.26A.86.86,0,0,1,152,343.12Z"/><path class="cls-6" d="M52.67,294.81a.85.85,0,1,1,.26-1.18A.85.85,0,0,1,52.67,294.81Z"/><path class="cls-6" d="M110.68,360.23a.86.86,0,0,1-.93-1.44.85.85,0,0,1,1.18.26A.84.84,0,0,1,110.68,360.23Z"/><path class="cls-6" d="M19.85,113.16c.1-.06,0-.44-.29-.84s-.54-.67-.63-.61,0,.44.29.84S19.76,113.22,19.85,113.16Z"/><path class="cls-6" d="M118.15,330c.1-.06,0-.43-.29-.83s-.54-.67-.63-.61,0,.44.29.83S118.06,330.07,118.15,330Z"/><path class="cls-6" d="M38,262.21a1.32,1.32,0,1,1-.93-1.62A1.32,1.32,0,0,1,38,262.21Z"/><path class="cls-6" d="M12.48,333.16A1.25,1.25,0,0,1,11,334a1.24,1.24,0,1,1,.64-2.39A1.26,1.26,0,0,1,12.48,333.16Z"/><path class="cls-6" d="M188.75,219.24a3.75,3.75,0,1,1-2.78-4.5A3.74,3.74,0,0,1,188.75,219.24Z"/><path class="cls-6" d="M150,118.4a2,2,0,1,1-1.5-2.4A2,2,0,0,1,150,118.4Z"/><path class="cls-6" d="M105,143.74a2.69,2.69,0,1,1-2-3.25A2.69,2.69,0,0,1,105,143.74Z"/><path class="cls-6" d="M86.72,303a2.68,2.68,0,1,1-2-3.26A2.7,2.7,0,0,1,86.72,303Z"/><path class="cls-6" d="M197.07,22.9c-6.2-1-6.51.53-8.3,5,.66-5.13.88-6-5.16-8.23,5.28.73,6.47,1.33,8.26-4.86C190.92,21.41,192.13,20.9,197.07,22.9Z"/><path class="cls-6" d="M192.85,315.47c-8-1.3-8.42.68-10.75,6.52.86-6.63,1.14-7.81-6.68-10.65,6.84,1,8.38,1.72,10.7-6.29C184.89,313.55,186.45,312.88,192.85,315.47Z"/><path class="cls-6" d="M128.45,354c-4-.66-4.23.34-5.4,3.26.43-3.32.57-3.91-3.35-5.33,3.43.47,4.21.86,5.37-3.16C124.45,353,125.24,352.68,128.45,354Z"/><path class="cls-6" d="M221,137.17c-8-1.3-8.42.68-10.74,6.52.85-6.64,1.13-7.82-6.68-10.65,6.83,1,8.38,1.72,10.69-6.29C213.08,135.24,214.64,134.57,221,137.17Z"/><path class="cls-6" d="M40.62-1.46c-8-1.3-8.43.68-10.75,6.52C30.73-1.58,31-2.75,23.19-5.59c6.84,1,8.38,1.72,10.69-6.29C32.66-3.38,34.22-4.06,40.62-1.46Z"/><path class="cls-6" d="M41.39,174.82c-4.71-.76-4.94.4-6.3,3.82.51-3.89.67-4.58-3.92-6.24,4,.55,4.92,1,6.28-3.69C36.73,173.69,37.64,173.3,41.39,174.82Z"/><path class="cls-6" d="M207.25,65.66A3.06,3.06,0,1,1,205,62,3.07,3.07,0,0,1,207.25,65.66Z"/><path class="cls-6" d="M221.3,194.17a3.3,3.3,0,1,1-2.45-4A3.31,3.31,0,0,1,221.3,194.17Z"/><path class="cls-6" d="M24.05,40.05a3.24,3.24,0,1,1,.84-4.51A3.24,3.24,0,0,1,24.05,40.05Z"/><path class="cls-6" d="M86.94,41.74a2.07,2.07,0,1,1,.53-2.88A2.06,2.06,0,0,1,86.94,41.74Z"/><path class="cls-6" d="M32.82,228.2a2.07,2.07,0,1,1,.53-2.87A2.07,2.07,0,0,1,32.82,228.2Z"/><path class="cls-6" d="M94.46,211.86A2.07,2.07,0,1,1,95,209,2.06,2.06,0,0,1,94.46,211.86Z"/><path class="cls-6" d="M239.2,365.34a2.07,2.07,0,1,1,.53-2.87A2.06,2.06,0,0,1,239.2,365.34Z"/><path class="cls-6" d="M255,291.9c.22-.16-.12-1-.77-2s-1.35-1.58-1.57-1.42.12,1.05.76,2S254.77,292.05,255,291.9Z"/><path class="cls-6" d="M56.76,134.33a3.19,3.19,0,1,1-2.36-3.84A3.17,3.17,0,0,1,56.76,134.33Z"/><path class="cls-6" d="M.36,307.32a3,3,0,0,1-3.61,2.23,3,3,0,0,1-2.24-3.62,3,3,0,0,1,3.61-2.2A3,3,0,0,1,.36,307.32Z"/><path class="cls-6" d="M203.85,105.07a1.81,1.81,0,1,1-1.25-2.26A1.84,1.84,0,0,1,203.85,105.07Z"/><path class="cls-6" d="M34.5,49.27c-2.69-.55-2.85.11-3.73,2,.39-2.23.5-2.63-2.1-3.7,2.3.42,2.81.7,3.71-2C31.84,48.5,32.38,48.3,34.5,49.27Z"/><path class="cls-6" d="M230.46,140.65c-2.7-.56-2.86.11-3.73,2,.39-2.23.5-2.63-2.1-3.7,2.3.42,2.81.7,3.71-2C227.8,139.88,228.34,139.68,230.46,140.65Z"/><path class="cls-6" d="M129.4,10.31c-1.05-.22-1.12,0-1.46.8.15-.88.2-1-.82-1.45.9.16,1.1.27,1.45-.78C128.36,10,128.57,9.92,129.4,10.31Z"/><path class="cls-6" d="M59,92c-4.22-.88-4.47.16-5.84,3.19.61-3.49.79-4.1-3.28-5.78,3.59.66,4.39,1.1,5.8-3.08C54.78,90.78,55.62,90.46,59,92Z"/><path class="cls-6" d="M177.08,17.34c-3.15-.65-3.34.13-4.36,2.39.46-2.6.59-3.06-2.45-4.32,2.68.49,3.28.83,4.33-2.3C174,16.45,174.6,16.21,177.08,17.34Z"/><path class="cls-6" d="M62.85,2.59A1.86,1.86,0,1,1,61.56.3,1.87,1.87,0,0,1,62.85,2.59Z"/><path class="cls-6" d="M55.43,22a2.19,2.19,0,1,1-1.51-2.72A2.21,2.21,0,0,1,55.43,22Z"/><path class="cls-6" d="M169.73,53.07a1.4,1.4,0,1,1,.44-1.93A1.4,1.4,0,0,1,169.73,53.07Z"/><path class="cls-6" d="M211.75,43.87a1.38,1.38,0,0,1-1.91-.45A1.39,1.39,0,1,1,212.2,42,1.39,1.39,0,0,1,211.75,43.87Z"/><path class="cls-6" d="M145.52,105.42a2,2,0,1,1-1.4-2.48A2,2,0,0,1,145.52,105.42Z"/><path class="cls-6" d="M121.39,39.83a2.45,2.45,0,1,1-1.69-3A2.46,2.46,0,0,1,121.39,39.83Z"/><path class="cls-6" d="M66.81,51.54a2,2,0,1,1-1.36-2.46A2,2,0,0,1,66.81,51.54Z"/><path class="cls-6" d="M103.36,108a1.4,1.4,0,0,1-1.72,1,1.39,1.39,0,1,1,.76-2.67A1.4,1.4,0,0,1,103.36,108Z"/></g><g class="cls-11"><g class="cls-7"><path class="cls-12" d="M-400.2,128.75c-73.5-17,110.91-481.78,380.6-24.48S327.91-161.27,114.72-106.79-210.4-130-79.29-240.86h-193s33.08,18.09-135.35,176.92S-400.2,128.75-400.2,128.75Z"/><path class="cls-13" d="M-417.24,191.72C-339.06-132.55,35.82,113.9,69.93,365.47c17.22,127,286.35,13.55,195.09-81s259-52.24,133.25-181.22c-120.84-123.92-84-527.63,1.06-226,136.45,484,194.23-439.54,206.8-75.68,3.2,92.74-298.47,682.23,132.18,408.27,80.49-51.21-93.8,217.46-93.8,217.46L555,349.48S377,259.94,366.29,326,113.65,483.8,113.65,483.8L-23.88,367.6S-263.73,102.18-417.24,229Z"/></g></g></g><g class="cls-14"><g class="cls-15"><g class="cls-7"><path class="cls-16" d="M-960.48,952c100.17-415.51,580.54-99.72,624.25,222.64,22.07,162.75,366.92,17.36,250-103.81S245.68,1003.91,84.5,838.63C-70.34,679.85-23.11,162.53,85.87,549.05c174.84,620.13,248.89-563.23,265-97C355,570.9-31.6,1326.27,520.23,975.22,623.38,909.61,400,1253.88,400,1253.88l-114.74-99.72S57.18,1039.42,43.52,1124.11-280.2,1326.27-280.2,1326.27l-176.23-148.88s-307.35-340.12-504-177.57Z"/></g></g></g><g class="cls-17"><g class="cls-18"><g class="cls-7"><path class="cls-19" d="M-408.65,855.32C-502.83,833.56-266.53,238,79.05,824S524.35,483.69,251.16,553.5-165.44,523.77,2.57,381.7H-244.71s42.38,23.19-173.43,226.71S-408.65,855.32-408.65,855.32Z"/><path class="cls-20" d="M-430.48,936c100.17-415.51,580.54-99.72,624.25,222.64,22.07,162.75,366.92,17.36,250-103.81S775.68,987.91,614.5,822.63c-154.84-158.78-107.61-676.1,1.37-289.58,174.84,620.13,248.89-563.23,265-97,4.1,118.83-382.46,874.2,169.37,523.15C1153.38,893.61,930,1237.88,930,1237.88l-114.74-99.72s-228.11-114.74-241.77-30.05S249.8,1310.27,249.8,1310.27L73.57,1161.39s-307.35-340.12-504-177.57Z"/></g></g></g></svg>