<svg id="Capa_1" data-name="Capa 1" xmlns="http://www.w3.org/2000/svg" xmlns:xlink="http://www.w3.org/1999/xlink" viewBox="0 0 1366 1037"><defs><style>.cls-1{fill:none;}.cls-2{fill:#0a0a0c;}.cls-3{clip-path:url(#clip-path);}.cls-4{clip-path:url(#clip-path-2);}.cls-5{opacity:0.3;}.cls-6{fill:url(#linear-gradient);}.cls-7{fill:url(#Nueva_muestra_de_degradado_2);}.cls-8{fill:url(#Degradado_sin_nombre_234);}.cls-9{clip-path:url(#clip-path-3);}.cls-10{opacity:0.34;}.cls-11{fill:url(#Degradado_sin_nombre_198);}.cls-12{fill:url(#Degradado_sin_nombre_227);}.cls-13{fill:url(#Degradado_sin_nombre_216);}.cls-14{fill:#fff;}.cls-15{clip-path:url(#clip-path-4);}</style><clipPath id="clip-path"><rect class="cls-1" x="2252" y="1000.22" width="413" height="731.78"/></clipPath><clipPath id="clip-path-2"><rect class="cls-1" x="1465.83" y="369.69" width="1456.47" height="1357.16"/></clipPath><linearGradient id="linear-gradient" x1="1345.28" y1="-12859.07" x2="2421.46" y2="-12859.07" gradientTransform="matrix(1, 0, 0, -1, 0, -11671)" gradientUnits="userSpaceOnUse"><stop offset="0" stop-color="#2d62ff"/><stop offset="0.21" stop-color="#641f87"/><stop offset="0.48" stop-color="#1e2f8a"/><stop offset="1" stop-color="#0e061e"/></linearGradient><linearGradient id="Nueva_muestra_de_degradado_2" x1="682.99" y1="1001.72" x2="682.99" y2="-79.28" gradientUnits="userSpaceOnUse"><stop offset="0" stop-color="#201932"/><stop offset="0.02" stop-color="#201640"/><stop offset="0.04" stop-color="#211351"/><stop offset="0.08" stop-color="#21115c"/><stop offset="0.12" stop-color="#210f63"/><stop offset="0.26" stop-color="#210f65"/><stop offset="0.3" stop-color="#320f6f"/><stop offset="0.45" stop-color="#650e90"/><stop offset="0.52" stop-color="#790e9c"/><stop offset="0.56" stop-color="#730f94"/><stop offset="0.62" stop-color="#611180"/><stop offset="0.69" stop-color="#45145e"/><stop offset="0.76" stop-color="#201932"/></linearGradient><linearGradient id="Degradado_sin_nombre_234" x1="683.99" y1="1001.72" x2="683.99" y2="-79.28" gradientUnits="userSpaceOnUse"><stop offset="0" stop-color="#201932"/><stop offset="0.08" stop-color="#20173d"/><stop offset="0.21" stop-color="#211159"/><stop offset="0.26" stop-color="#210f65"/><stop offset="0.3" stop-color="#320f6f"/><stop offset="0.45" stop-color="#650e90"/><stop offset="0.52" stop-color="#790e9c"/><stop offset="0.56" stop-color="#730f94"/><stop offset="0.62" stop-color="#611180"/><stop offset="0.69" stop-color="#45145e"/><stop offset="0.76" stop-color="#201932"/></linearGradient><clipPath id="clip-path-3"><rect class="cls-1" x="-0.01" y="-79.28" width="1366" height="1081"/></clipPath><linearGradient id="Degradado_sin_nombre_198" x1="706.29" y1="65.47" x2="706.5" y2="442.67" gradientUnits="userSpaceOnUse"><stop offset="0.12" stop-color="#201932"/><stop offset="0.29" stop-color="#42155b"/><stop offset="0.57" stop-color="#790e9c"/><stop offset="0.79" stop-color="#7038cd"/><stop offset="0.92" stop-color="#6b4ee6"/></linearGradient><linearGradient id="Degradado_sin_nombre_227" x1="689.14" y1="81.55" x2="698.14" y2="308.38" gradientUnits="userSpaceOnUse"><stop offset="0.3" stop-color="#201932"/><stop offset="0.35" stop-color="#29183d"/><stop offset="0.44" stop-color="#411559"/><stop offset="0.56" stop-color="#671086"/><stop offset="0.61" stop-color="#790e9c"/><stop offset="0.68" stop-color="#7812a1"/><stop offset="0.76" stop-color="#751fb0"/><stop offset="0.84" stop-color="#7134c8"/><stop offset="0.93" stop-color="#6b4ee6"/></linearGradient><linearGradient id="Degradado_sin_nombre_216" x1="676.25" y1="58.93" x2="676.38" y2="298.66" gradientUnits="userSpaceOnUse"><stop offset="0.12" stop-color="#201932"/><stop offset="0.28" stop-color="#42155b"/><stop offset="0.55" stop-color="#790e9c"/><stop offset="0.73" stop-color="#7038cd"/><stop offset="0.84" stop-color="#6b4ee6"/></linearGradient><clipPath id="clip-path-4"><path class="cls-2" d="M200.87,649.21s7.1,2,13.42,0a23.16,23.16,0,0,0-6.71-7.37A22.2,22.2,0,0,0,200.87,649.21Z"/></clipPath></defs><title>Mesa de trabajo 15</title><g class="cls-3"><g class="cls-4"><g class="cls-5"><path class="cls-6" d="M1465.8,894.46c-110.19,41.26,166.27,1170.54,570.59,59.48s521,645.16,201.37,512.79-487.42,56.38-290.85,325.74h-289.3s49.59-44-202.91-429.85S1465.8,894.46,1465.8,894.46Z"/></g></g></g><rect class="cls-7" x="-0.01" y="-79.28" width="1366" height="1081"/><rect class="cls-8" x="0.99" y="-79.28" width="1366" height="1081"/><g class="cls-9"><g class="cls-10"><path class="cls-11" d="M-22,245.72c147,145,226,20,196-39,43,134,156,117,190,81s54-60,54-60,64,91,170,60,77-98,77-98,131,138,220,58,84-108,84-108,26,174,155,58c0,102,69,107,102,102s68-38,68-77c0,0-21,108,87,107s20-261,20-261l-310-44-282,12L584.28,88.14,386.55,100.5,106,78.72,0,86.61Z"/><path class="cls-12" d="M-13,60.72s88.2,301.83,247,188c173-124,76,56,251,8s148-94,165-139c44,60,165.42,78.39,200.21,17.2,14.79,63.8,197.79,85.8,205.79.8,26,85,125,104,177,44-11,73,149,111,159,15s-31-143-31-143H694l-319,48Z"/><path class="cls-13" d="M-40,212.7c94,27.25,142-1.56,146-51.4,0,0,75,60.74,139,0,5,79.43,136,56.85,147,15.57,30,27.26,98.65,40.88,108.33-8C534,195.56,598.58,221,610.79,165.07c39.2,46.85,85.2,6.35,84.2-35.7,32,50.62,117,44.39,114-3.12,21,62.3,84,44.39,106,4.67,34,50.62,103.31,61,107.66-.24C1044,180,1120,155.07,1128,135.6c23,25.7,53,27.25,69,7.78-29,52.18,40,53.74,71,29.6,13,30.37,77,52.18,110,53.73s0-156.8,0-156.8l-129.78-26L895.43,33.05,643.37,65.42,422,87.31,164,77.19-6.95,55.08Z"/></g><path class="cls-14" d="M1371.49,123.65a3.09,3.09,0,1,1-2.26-3.72A3.08,3.08,0,0,1,1371.49,123.65Z"/><path class="cls-14" d="M1207.38,35.84a2.52,2.52,0,1,1-1.84-3A2.51,2.51,0,0,1,1207.38,35.84Z"/><path class="cls-14" d="M1340.38,40.36a1.65,1.65,0,1,1-1.21-2A1.65,1.65,0,0,1,1340.38,40.36Z"/><path class="cls-14" d="M1303.17,60.88a2.21,2.21,0,1,1-1.61-2.69A2.22,2.22,0,0,1,1303.17,60.88Z"/><path class="cls-14" d="M1286.88,191.8a2.21,2.21,0,1,1-1.61-2.69A2.21,2.21,0,0,1,1286.88,191.8Z"/><path class="cls-14" d="M1154.58,28.51c-6.6-1.13-6.93.5-8.89,5.28.76-5.45,1-6.42-5.42-8.81,5.62.83,6.89,1.48,8.85-5.1C1148.05,26.87,1149.34,26.33,1154.58,28.51Z"/><path class="cls-14" d="M1374.12,202.88c-6.6-1.13-6.94.49-8.89,5.28.76-5.46,1-6.42-5.42-8.82,5.62.84,6.89,1.48,8.85-5.1C1367.59,201.23,1368.88,200.69,1374.12,202.88Z"/><path class="cls-14" d="M1078.05,130.89c-3.31-.57-3.48.25-4.46,2.65.38-2.74.5-3.22-2.72-4.42,2.82.41,3.45.74,4.44-2.56C1074.77,130.06,1075.42,129.79,1078.05,130.89Z"/><path class="cls-14" d="M1320.83,234.08c-3.32-.57-3.49.24-4.47,2.65.38-2.74.5-3.23-2.71-4.42,2.82.41,3.45.74,4.44-2.56C1317.55,233.25,1318.19,233,1320.83,234.08Z"/><path class="cls-14" d="M1192.13,79.39c-1.3-.23-1.37.09-1.75,1,.15-1.07.19-1.26-1.07-1.73,1.11.17,1.36.29,1.74-1C1190.84,79.06,1191.09,79,1192.13,79.39Z"/><path class="cls-14" d="M1109.65,181.94c-5.18-.88-5.45.39-7,4.14.59-4.27.78-5-4.25-6.91,4.41.65,5.4,1.16,6.94-4C1104.52,180.65,1105.53,180.23,1109.65,181.94Z"/><path class="cls-14" d="M1250.56,86c-3.87-.66-4.07.3-5.22,3.1.45-3.2.59-3.76-3.17-5.17,3.29.49,4,.87,5.19-3C1246.73,85,1247.48,84.68,1250.56,86Z"/><path class="cls-14" d="M1110.64,72.78A2.26,2.26,0,1,1,1109,70,2.26,2.26,0,0,1,1110.64,72.78Z"/><path class="cls-14" d="M1083.13,15.21a4.11,4.11,0,1,1-3-5A4.11,4.11,0,0,1,1083.13,15.21Z"/><path class="cls-14" d="M1102.41,96.7a2.67,2.67,0,1,1-2-3.24A2.68,2.68,0,0,1,1102.41,96.7Z"/><path class="cls-14" d="M1243.09,129.83a1.7,1.7,0,1,1,.46-2.36A1.69,1.69,0,0,1,1243.09,129.83Z"/><path class="cls-14" d="M1294,116.86a1.69,1.69,0,0,1-2.35-.47,1.69,1.69,0,1,1,2.35.47Z"/><path class="cls-14" d="M1263.52,52.76a2.63,2.63,0,1,1-1.92-3.17A2.62,2.62,0,0,1,1263.52,52.76Z"/><path class="cls-14" d="M1215.77,194.69a2.47,2.47,0,1,1-1.81-3A2.47,2.47,0,0,1,1215.77,194.69Z"/><path class="cls-14" d="M1183.59,115.72a3,3,0,1,1-2.18-3.62A3,3,0,0,1,1183.59,115.72Z"/><path class="cls-14" d="M1117.54,132.29a2.44,2.44,0,0,1-2.93,1.77,2.43,2.43,0,1,1,2.93-1.77Z"/><path class="cls-14" d="M1164.47,199.59a1.7,1.7,0,0,1-3.3-.82,1.7,1.7,0,1,1,3.3.82Z"/><path class="cls-14" d="M1219.56,28.72a1,1,0,1,1-1.27-.5A1,1,0,0,1,1219.56,28.72Z"/><path class="cls-14" d="M1253.56,15.16a1.9,1.9,0,1,1-2.5-1A1.88,1.88,0,0,1,1253.56,15.16Z"/><path class="cls-14" d="M1000,29.15A1.79,1.79,0,1,1,998.72,27,1.79,1.79,0,0,1,1000,29.15Z"/><path class="cls-14" d="M1135.75,149.76a1.6,1.6,0,1,1-1.14-1.95A1.59,1.59,0,0,1,1135.75,149.76Z"/><path class="cls-14" d="M1051.13,103a1.31,1.31,0,1,1-.94-1.6A1.31,1.31,0,0,1,1051.13,103Z"/><path class="cls-14" d="M1036.35,18.56a1.31,1.31,0,1,1-.93-1.59A1.31,1.31,0,0,1,1036.35,18.56Z"/><path class="cls-14" d="M1120.17,106.29a.86.86,0,0,1-1.05.62.87.87,0,0,1-.61-1,.86.86,0,0,1,1.66.43Z"/><path class="cls-14" d="M1100.71,116.69a1.15,1.15,0,1,1-.82-1.4A1.15,1.15,0,0,1,1100.71,116.69Z"/><path class="cls-14" d="M1091.35,184.57a1.15,1.15,0,1,1-.82-1.41A1.15,1.15,0,0,1,1091.35,184.57Z"/><path class="cls-14" d="M1240.48,36.53a1.88,1.88,0,0,1-1,2.5,1.9,1.9,0,1,1-1.53-3.47A1.88,1.88,0,0,1,1240.48,36.53Z"/><path class="cls-14" d="M1232,76.19a1.38,1.38,0,1,1-1-1.7A1.4,1.4,0,0,1,1232,76.19Z"/><path class="cls-14" d="M1228.18,104.56a1.39,1.39,0,1,1-1-1.7A1.39,1.39,0,0,1,1228.18,104.56Z"/><path class="cls-14" d="M1222.21,142.49a1.39,1.39,0,1,1-1-1.69A1.39,1.39,0,0,1,1222.21,142.49Z"/><path class="cls-14" d="M1201.33,115.08a1.39,1.39,0,1,1-2.68-.7,1.38,1.38,0,0,1,2.68.7Z"/><path class="cls-14" d="M1205.62,166.33a1.38,1.38,0,1,1-2.68-.7,1.38,1.38,0,1,1,2.68.7Z"/><path class="cls-14" d="M1172.23,70.23a2.07,2.07,0,0,1-2.53,1.49,2.08,2.08,0,1,1,1-4A2.07,2.07,0,0,1,1172.23,70.23Z"/><path class="cls-14" d="M1141.2,65.94c-2.65-.49-2.79.16-3.6,2.07.33-2.18.43-2.57-2.13-3.56,2.25.36,2.76.63,3.58-2C1138.58,65.24,1139.1,65,1141.2,65.94Z"/><path class="cls-14" d="M1023.76,98.87c-3.42-.63-3.6.21-4.65,2.68.43-2.83.56-3.33-2.76-4.61,2.92.47,3.57.81,4.64-2.59C1020.38,98,1021.05,97.7,1023.76,98.87Z"/><path class="cls-14" d="M1136.58,190.92c-3.42-.63-3.61.21-4.66,2.68.43-2.82.56-3.32-2.75-4.61,2.91.47,3.57.82,4.63-2.59C1133.2,190,1133.87,189.75,1136.58,190.92Z"/><path class="cls-14" d="M1218.28,195.1c-3.42-.63-3.61.21-4.66,2.69.43-2.83.57-3.33-2.75-4.62,2.91.47,3.57.82,4.63-2.58C1214.9,194.21,1215.57,193.93,1218.28,195.1Z"/><path class="cls-14" d="M983.31,151.51c-1.71-.32-1.81.1-2.33,1.34.21-1.41.28-1.67-1.38-2.31,1.46.24,1.79.41,2.32-1.3C981.62,151.06,982,150.92,983.31,151.51Z"/><path class="cls-14" d="M1108.69,206.76c-1.72-.32-1.81.11-2.34,1.35.22-1.42.28-1.67-1.38-2.32,1.46.24,1.79.41,2.32-1.3C1107,206.31,1107.33,206.17,1108.69,206.76Z"/><path class="cls-14" d="M1179,155c-1.72-.32-1.81.1-2.34,1.34.22-1.41.28-1.67-1.38-2.31,1.46.23,1.79.41,2.32-1.3C1177.31,154.58,1177.65,154.44,1179,155Z"/><path class="cls-14" d="M1172.57,141.56c-.67-.12-.71,0-.91.53.08-.56.11-.65-.54-.91.57.09.7.16.91-.51C1171.91,141.39,1172,141.33,1172.57,141.56Z"/><path class="cls-14" d="M1190.85,201.27c-.67-.12-.71,0-.92.53.09-.56.11-.66-.54-.91.57.09.7.16.91-.51C1190.18,201.09,1190.32,201,1190.85,201.27Z"/><path class="cls-14" d="M1042.91,125.54c-.67-.12-.71,0-.92.53.09-.55.11-.65-.54-.91.58.1.7.17.91-.5C1042.24,125.37,1042.38,125.31,1042.91,125.54Z"/><path class="cls-14" d="M1014.26,35.83c-.67-.12-.71.05-.92.53.09-.55.11-.65-.54-.91.57.1.7.17.91-.5C1013.59,35.66,1013.73,35.6,1014.26,35.83Z"/><path class="cls-14" d="M1194.47,34.77c-.67-.13-.71,0-.92.53.09-.56.11-.66-.54-.91.58.09.7.16.91-.51C1193.8,34.59,1193.94,34.54,1194.47,34.77Z"/><path class="cls-14" d="M1248.56,38.93c-.67-.12-.71,0-.92.53.09-.56.11-.66-.54-.91.58.09.7.16.91-.51C1247.89,38.75,1248,38.7,1248.56,38.93Z"/><path class="cls-14" d="M999.37,178.24c-2.68-.5-2.83.16-3.65,2.1.34-2.21.44-2.61-2.16-3.62,2.29.37,2.8.64,3.64-2C996.72,177.53,997.25,177.32,999.37,178.24Z"/><path class="cls-14" d="M1150.34,115c-3.42-.63-3.61.21-4.66,2.68.43-2.83.56-3.33-2.75-4.61,2.91.47,3.56.81,4.63-2.59C1147,114.1,1147.63,113.83,1150.34,115Z"/><path class="cls-14" d="M1074.57,54c-3.42-.64-3.6.21-4.65,2.68.43-2.83.56-3.33-2.75-4.62,2.91.47,3.56.82,4.63-2.58C1071.19,53.13,1071.86,52.85,1074.57,54Z"/><path class="cls-14" d="M1163.52,18.53c-3.42-.63-3.61.21-4.66,2.68.44-2.82.57-3.32-2.75-4.61,2.92.47,3.57.82,4.63-2.59C1160.14,17.63,1160.81,17.36,1163.52,18.53Z"/><path class="cls-14" d="M1073.21,129.36c-2-.37-2.12.12-2.73,1.57.25-1.65.33-2-1.61-2.7,1.7.27,2.09.48,2.71-1.52C1071.23,128.83,1071.62,128.67,1073.21,129.36Z"/><path class="cls-14" d="M1235.59,55.61c-3.42-.64-3.61.21-4.66,2.68.43-2.83.56-3.33-2.75-4.62,2.91.48,3.56.82,4.63-2.58C1232.2,54.71,1232.88,54.44,1235.59,55.61Z"/><path class="cls-14" d="M1214.12,6.39c-3.42-.63-3.61.21-4.65,2.68.43-2.83.56-3.33-2.76-4.61,2.92.47,3.57.81,4.63-2.59C1210.74,5.49,1211.41,5.22,1214.12,6.39Z"/><path class="cls-14" d="M1193.38,15.38a1.41,1.41,0,1,1-2.73-.72,1.4,1.4,0,0,1,1.72-1A1.41,1.41,0,0,1,1193.38,15.38Z"/><path class="cls-14" d="M1000.22,50.16a1.84,1.84,0,1,1-1.32-2.25A1.85,1.85,0,0,1,1000.22,50.16Z"/><path class="cls-14" d="M1000.64,121.56a1.17,1.17,0,1,1-.84-1.44A1.17,1.17,0,0,1,1000.64,121.56Z"/><path class="cls-14" d="M986.75,91.47a2.14,2.14,0,1,1-1.53-2.6A2.14,2.14,0,0,1,986.75,91.47Z"/><path class="cls-14" d="M1145.14,84.31a1.31,1.31,0,1,1-.94-1.6A1.32,1.32,0,0,1,1145.14,84.31Z"/><path class="cls-14" d="M1149.9,139.36a1.41,1.41,0,1,1-1-1.72A1.4,1.4,0,0,1,1149.9,139.36Z"/><path class="cls-14" d="M1165,34.34a1.49,1.49,0,1,1-1.07-1.82A1.49,1.49,0,0,1,1165,34.34Z"/><path class="cls-14" d="M1148.81,41.21a1.07,1.07,0,0,1-1.3.77,1.09,1.09,0,0,1-.77-1.31,1.07,1.07,0,0,1,2.07.54Z"/><path class="cls-14" d="M996.2,133.92a1.39,1.39,0,1,1-1-1.7A1.39,1.39,0,0,1,996.2,133.92Z"/><path class="cls-14" d="M1198.37,51.63a.88.88,0,1,1-.64-1.08A.88.88,0,0,1,1198.37,51.63Z"/><path class="cls-14" d="M1186.19,92.17a.88.88,0,0,1-1.08.63.88.88,0,1,1,1.08-.63Z"/><path class="cls-14" d="M1197.13,144.12a1.36,1.36,0,1,1-1-1.67A1.37,1.37,0,0,1,1197.13,144.12Z"/><path class="cls-14" d="M1003.21,74.38a.85.85,0,1,1-1.65-.43.85.85,0,0,1,1.65.43Z"/><path class="cls-14" d="M1107.48,42.27a1.39,1.39,0,1,1-1-1.69A1.39,1.39,0,0,1,1107.48,42.27Z"/><path class="cls-14" d="M1028.18,52.4a1.31,1.31,0,1,1-.94-1.6A1.32,1.32,0,0,1,1028.18,52.4Z"/><path class="cls-14" d="M1031.85,9.3a1.06,1.06,0,1,1-2.06-.54,1.06,1.06,0,1,1,2.06.54Z"/><path class="cls-14" d="M1099.93,10.13a.88.88,0,1,1-.63-1.08A.88.88,0,0,1,1099.93,10.13Z"/><path class="cls-14" d="M1065.9,34.2a1.39,1.39,0,1,1,1.19-1.56A1.39,1.39,0,0,1,1065.9,34.2Z"/><path class="cls-14" d="M1075,28.19a.86.86,0,0,1-1-.76.87.87,0,0,1,.75-1,.88.88,0,0,1,1,.76A.87.87,0,0,1,1075,28.19Z"/><path class="cls-14" d="M1067.1,71.6a1.39,1.39,0,1,1-1.52-2.32,1.39,1.39,0,0,1,1.52,2.32Z"/><path class="cls-14" d="M1174.42,178.67a.89.89,0,0,1-1-1.49.89.89,0,0,1,1.22.26A.88.88,0,0,1,1174.42,178.67Z"/><path class="cls-14" d="M1094,72.93a.88.88,0,0,1-1-1.48.88.88,0,0,1,1.22.26A.89.89,0,0,1,1094,72.93Z"/><path class="cls-14" d="M1127.69,18.89a.88.88,0,0,1-1-1.48.88.88,0,1,1,1,1.48Z"/><path class="cls-14" d="M1069,152.09a.88.88,0,1,1,.26-1.22A.89.89,0,0,1,1069,152.09Z"/><path class="cls-14" d="M1198.38,194.68a.88.88,0,0,1-1-1.48.88.88,0,0,1,1,1.48Z"/><path class="cls-14" d="M1095.53,145.7a.88.88,0,0,1-1.22-.26.88.88,0,0,1,1.48-1A.88.88,0,0,1,1095.53,145.7Z"/><path class="cls-14" d="M1155.91,212.68a.88.88,0,0,1-1.22-.26.88.88,0,1,1,1.22.26Z"/><path class="cls-14" d="M1163.36,181.45c.1-.07,0-.45-.3-.86s-.57-.69-.66-.62,0,.45.3.85S1163.26,181.51,1163.36,181.45Z"/><path class="cls-14" d="M1080.17,112.21a1.36,1.36,0,1,1-1-1.67A1.37,1.37,0,0,1,1080.17,112.21Z"/><path class="cls-14" d="M1054.4,185.59a1.28,1.28,0,1,1-.92-1.56A1.28,1.28,0,0,1,1054.4,185.59Z"/><path class="cls-14" d="M1038.23,144.36a1.55,1.55,0,1,1-1.11-1.9A1.55,1.55,0,0,1,1038.23,144.36Z"/><path class="cls-14" d="M1003.81,152.51a1.25,1.25,0,0,1-1.53.89,1.26,1.26,0,0,1,.64-2.43A1.25,1.25,0,0,1,1003.81,152.51Z"/><path class="cls-14" d="M1027.72,187.78a.88.88,0,1,1-.63-1.08A.88.88,0,0,1,1027.72,187.78Z"/><path class="cls-14" d="M1077,144.8a2.76,2.76,0,1,1-1.89-3.4A2.76,2.76,0,0,1,1077,144.8Z"/><path class="cls-14" d="M933.31,60.91a2.25,2.25,0,1,1-1.54-2.77A2.26,2.26,0,0,1,933.31,60.91Z"/><path class="cls-14" d="M1052,69.36a1.47,1.47,0,1,1-2.83-.81,1.47,1.47,0,0,1,2.83.81Z"/><path class="cls-14" d="M1018.07,86.46a2,2,0,1,1-1.35-2.46A2,2,0,0,1,1018.07,86.46Z"/><path class="cls-14" d="M999.17,202.89a2,2,0,1,1-1.35-2.46A2,2,0,0,1,999.17,202.89Z"/><path class="cls-14" d="M1245.69,22.15a2.39,2.39,0,1,1-1.65-3A2.39,2.39,0,0,1,1245.69,22.15Z"/><path class="cls-14" d="M1237.94,70.81a2.39,2.39,0,1,1-1.64-3A2.39,2.39,0,0,1,1237.94,70.81Z"/><path class="cls-14" d="M1226.1,135.84a2.39,2.39,0,1,1-1.64-3A2.39,2.39,0,0,1,1226.1,135.84Z"/><path class="cls-14" d="M1191.3,87.82a2.39,2.39,0,1,1-1.64-2.95A2.38,2.38,0,0,1,1191.3,87.82Z"/><path class="cls-14" d="M1196.58,176.19a2.39,2.39,0,1,1-1.64-2.95A2.39,2.39,0,0,1,1196.58,176.19Z"/><path class="cls-14" d="M1143.07,9.44A3.58,3.58,0,1,1,1140.63,5,3.59,3.59,0,0,1,1143.07,9.44Z"/><path class="cls-14" d="M1089.84.78c-4.53-.95-4.81.16-6.28,3.41.66-3.74.85-4.4-3.51-6.22,3.85.72,4.71,1.2,6.24-3.29C1085.37-.53,1086.27-.87,1089.84.78Z"/><path class="cls-14" d="M886.38,52.61c-5.86-1.22-6.21.22-8.12,4.43.86-4.85,1.1-5.71-4.55-8.06,5,.93,6.11,1.56,8.08-4.26C880.6,50.93,881.77,50.49,886.38,52.61Z"/><path class="cls-14" d="M1076.75,215.68c-5.86-1.23-6.22.21-8.12,4.42.85-4.85,1.1-5.71-4.55-8,5,.93,6.1,1.55,8.08-4.27C1071,214,1072.14,213.55,1076.75,215.68Z"/><path class="cls-14" d="M1217.18,226.23c-5.86-1.23-6.21.21-8.12,4.42.86-4.84,1.1-5.7-4.55-8.05,5,.93,6.1,1.55,8.08-4.26C1211.4,224.55,1212.57,224.1,1217.18,226.23Z"/><path class="cls-14" d="M814.61,141.54c-2.94-.61-3.12.11-4.08,2.22.43-2.43.56-2.86-2.28-4,2.51.47,3.06.78,4-2.14C811.71,140.7,812.29,140.48,814.61,141.54Z"/><path class="cls-14" d="M1028.1,241.79c-2.94-.62-3.12.1-4.08,2.21.43-2.43.56-2.86-2.28-4,2.51.47,3.06.78,4-2.13C1025.2,240.94,1025.78,240.72,1028.1,241.79Z"/><path class="cls-14" d="M1151.24,155.65c-2.94-.62-3.12.1-4.07,2.21.43-2.42.55-2.86-2.29-4,2.51.46,3.07.77,4.06-2.14C1148.34,154.8,1148.92,154.58,1151.24,155.65Z"/><path class="cls-14" d="M1140.72,132.21c-1.15-.24-1.22,0-1.59.87.17-1,.21-1.12-.9-1.59,1,.19,1.2.31,1.59-.83C1139.59,131.88,1139.82,131.79,1140.72,132.21Z"/><path class="cls-14" d="M1169.72,235.71c-1.15-.24-1.22,0-1.6.87.17-1,.22-1.12-.89-1.58,1,.18,1.2.31,1.59-.84C1168.58,235.38,1168.81,235.3,1169.72,235.71Z"/><path class="cls-14" d="M918.24,99.31c-1.15-.24-1.22,0-1.6.87.17-1,.22-1.12-.89-1.58,1,.18,1.2.3,1.58-.84C917.1,99,917.33,98.89,918.24,99.31Z"/><path class="cls-14" d="M841.15,188.21c-4.6-1-4.88.16-6.37,3.46.67-3.8.86-4.47-3.57-6.31,3.92.73,4.79,1.21,6.33-3.35C836.61,186.88,837.53,186.54,841.15,188.21Z"/><path class="cls-14" d="M1103.55,85.58c-5.86-1.23-6.22.21-8.12,4.42.85-4.84,1.1-5.7-4.55-8,5,.93,6.1,1.55,8.08-4.26C1097.76,83.89,1098.93,83.45,1103.55,85.58Z"/><path class="cls-14" d="M970.23,107.12c-3.44-.72-3.65.13-4.77,2.6.51-2.84.65-3.35-2.66-4.72,2.93.54,3.58.91,4.73-2.5C966.83,106.14,967.52,105.88,970.23,107.12Z"/><path class="cls-14" d="M845.66,90.71a2,2,0,1,1-1.4-2.51A2,2,0,0,1,845.66,90.71Z"/><path class="cls-14" d="M823,38.36a3.68,3.68,0,1,1-2.53-4.55A3.69,3.69,0,0,1,823,38.36Z"/><path class="cls-14" d="M1095.86,32.55a2.25,2.25,0,1,1-1.55-2.78A2.26,2.26,0,0,1,1095.86,32.55Z"/><path class="cls-14" d="M1101.8,127.48a2.43,2.43,0,1,1-1.66-3A2.43,2.43,0,0,1,1101.8,127.48Z"/><path class="cls-14" d="M837.51,111.81a2.39,2.39,0,1,1-1.64-3A2.4,2.4,0,0,1,837.51,111.81Z"/><path class="cls-14" d="M1166.19,47.77a1.52,1.52,0,1,1-1-1.87A1.52,1.52,0,0,1,1166.19,47.77Z"/><path class="cls-14" d="M1182.87,137.62a2.35,2.35,0,0,1-4.51-1.3,2.35,2.35,0,1,1,4.51,1.3Z"/><path class="cls-14" d="M852,9.63a1.47,1.47,0,1,1-1-1.81A1.47,1.47,0,0,1,852,9.63Z"/><path class="cls-14" d="M962.08,7.48a2.39,2.39,0,1,1,.77-3.29A2.39,2.39,0,0,1,962.08,7.48Z"/><path class="cls-14" d="M1142.39,196.14a1.52,1.52,0,0,1-1.61-2.59,1.52,1.52,0,1,1,1.61,2.59Z"/><path class="cls-14" d="M1008.24,10.86a1.52,1.52,0,1,1,.49-2.09A1.52,1.52,0,0,1,1008.24,10.86Z"/><path class="cls-14" d="M962.1,146.07a1.52,1.52,0,1,1,.49-2.09A1.52,1.52,0,0,1,962.1,146.07Z"/><path class="cls-14" d="M1183,224.68a1.52,1.52,0,1,1,.49-2.09A1.52,1.52,0,0,1,1183,224.68Z"/><path class="cls-14" d="M1008,136.16a1.52,1.52,0,1,1,.49-2.09A1.52,1.52,0,0,1,1008,136.16Z"/><path class="cls-14" d="M1109.12,253.91a1.52,1.52,0,0,1-1.6-2.59,1.52,1.52,0,0,1,1.6,2.59Z"/><path class="cls-14" d="M1123.23,200.47c.17-.11,0-.77-.49-1.49s-.94-1.2-1.11-1.1.06.78.49,1.49S1123.06,200.57,1123.23,200.47Z"/><path class="cls-14" d="M982.9,77.89a2.34,2.34,0,1,1-1.61-2.9A2.33,2.33,0,0,1,982.9,77.89Z"/><path class="cls-14" d="M935.54,203.11A2.21,2.21,0,1,1,934,200.4,2.2,2.2,0,0,1,935.54,203.11Z"/><path class="cls-14" d="M909.41,131.49a2.67,2.67,0,1,1-1.83-3.31A2.67,2.67,0,0,1,909.41,131.49Z"/><path class="cls-14" d="M849.84,144.11a2.16,2.16,0,1,1-1.47-2.69A2.17,2.17,0,0,1,849.84,144.11Z"/><path class="cls-14" d="M889.55,205.79a1.52,1.52,0,1,1-2.92-.84,1.52,1.52,0,0,1,2.92.84Z"/><path class="cls-14" d="M678.17-.27c-2.41-.42-2.54.17-3.26,1.91.29-2,.38-2.34-2-3.23,2,.32,2.51.56,3.25-1.84C675.79-.88,676.26-1.08,678.17-.27Z"/><path class="cls-14" d="M744.49,7.57a1.23,1.23,0,0,1-1.71-.35,1.23,1.23,0,1,1,2.06-1.36A1.22,1.22,0,0,1,744.49,7.57Z"/><path class="cls-14" d="M119.29-.55a4.18,4.18,0,0,1-5,3.1,4.16,4.16,0,0,1-3.07-5,4.15,4.15,0,0,1,5-3.08A4.18,4.18,0,0,1,119.29-.55Z"/><path class="cls-14" d="M440.66,273.33a3.73,3.73,0,1,1-2.76-4.48A3.73,3.73,0,0,1,440.66,273.33Z"/><path class="cls-14" d="M241.69,168.76a3,3,0,1,1-2.25-3.65A3.05,3.05,0,0,1,241.69,168.76Z"/><path class="cls-14" d="M402.35,173a2,2,0,1,1-3.87-.93,2,2,0,0,1,3.87.93Z"/><path class="cls-14" d="M357.59,198.14a2.67,2.67,0,1,1-2-3.24A2.67,2.67,0,0,1,357.59,198.14Z"/><path class="cls-14" d="M339.09,356.39a2.67,2.67,0,1,1-2-3.24A2.66,2.66,0,0,1,339.09,356.39Z"/><path class="cls-14" d="M678.7,5.08a4.41,4.41,0,1,1-5.84-2.15A4.39,4.39,0,0,1,678.7,5.08Z"/><path class="cls-14" d="M660.88,97.67a3.22,3.22,0,1,1-2.39-3.88A3.23,3.23,0,0,1,660.88,97.67Z"/><path class="cls-14" d="M653.35,163.81a3.22,3.22,0,1,1-2.39-3.89A3.21,3.21,0,0,1,653.35,163.81Z"/><path class="cls-14" d="M641.29,252.27a3.22,3.22,0,1,1-2.39-3.88A3.21,3.21,0,0,1,641.29,252.27Z"/><path class="cls-14" d="M591.44,189.56a3.22,3.22,0,1,1-2.39-3.88A3.22,3.22,0,0,1,591.44,189.56Z"/><path class="cls-14" d="M603.88,308.5a3.23,3.23,0,1,1-2.4-3.89A3.22,3.22,0,0,1,603.88,308.5Z"/><path class="cls-14" d="M521.65,86.7a4.84,4.84,0,1,1-3.57-5.85A4.84,4.84,0,0,1,521.65,86.7Z"/><path class="cls-14" d="M449.29,78.2c-6.17-1-6.47.52-8.26,5,.67-5.09.88-6-5.12-8.18,5.25.74,6.44,1.33,8.23-4.82C443.18,76.71,444.38,76.2,449.29,78.2Z"/><path class="cls-14" d="M177.87,160.38c-8-1.3-8.38.67-10.7,6.46.87-6.59,1.15-7.76-6.62-10.59,6.8.95,8.33,1.72,10.64-6.24C170,158.46,171.51,157.79,177.87,160.38Z"/><path class="cls-14" d="M444.55,369c-8-1.31-8.38.66-10.69,6.45.86-6.59,1.14-7.76-6.62-10.59,6.79,1,8.32,1.73,10.64-6.23C436.64,367.05,438.2,366.39,444.55,369Z"/><path class="cls-14" d="M634.68,374.78c-8-1.3-8.37.66-10.69,6.46.86-6.59,1.14-7.76-6.62-10.59,6.79,1,8.33,1.72,10.64-6.24C626.78,372.85,628.33,372.19,634.68,374.78Z"/><path class="cls-14" d="M86.36,284.7c-4-.65-4.2.33-5.37,3.24.44-3.3.58-3.89-3.32-5.31,3.41.48,4.18.86,5.34-3.13C82.39,283.73,83.17,283.4,86.36,284.7Z"/><path class="cls-14" d="M380.47,407.14c-4-.66-4.2.33-5.37,3.23.44-3.3.58-3.89-3.32-5.31,3.41.48,4.18.87,5.34-3.13C376.5,406.17,377.28,405.84,380.47,407.14Z"/><path class="cls-14" d="M541.46,283.5c-4-.66-4.2.33-5.37,3.24.44-3.31.58-3.9-3.32-5.32,3.41.48,4.18.87,5.34-3.13C537.49,282.53,538.27,282.2,541.46,283.5Z"/><path class="cls-14" d="M525.86,252.5c-1.57-.25-1.65.13-2.1,1.27.17-1.29.22-1.52-1.3-2.08,1.33.19,1.63.34,2.09-1.23C524.3,252.12,524.61,252,525.86,252.5Z"/><path class="cls-14" d="M571.21,390.43c-1.57-.25-1.65.13-2.1,1.27.17-1.29.22-1.52-1.31-2.08,1.34.19,1.64.34,2.1-1.23C569.65,390.05,570,389.92,571.21,390.43Z"/><path class="cls-14" d="M223.66,221.48c-1.57-.25-1.65.13-2.1,1.27.17-1.29.22-1.52-1.31-2.08,1.34.19,1.64.34,2.1-1.23C222.1,221.1,222.41,221,223.66,221.48Z"/><path class="cls-14" d="M152.75,14.3c-1.57-.25-1.65.13-2.1,1.27.17-1.29.22-1.52-1.3-2.08,1.33.19,1.63.34,2.09-1.23C151.19,13.93,151.5,13.8,152.75,14.3Z"/><path class="cls-14" d="M571.64,3.19c-1.57-.26-1.65.13-2.1,1.27.17-1.3.22-1.53-1.3-2.09,1.33.19,1.63.34,2.09-1.22C570.09,2.81,570.39,2.68,571.64,3.19Z"/><path class="cls-14" d="M697.59,10.27c-1.57-.26-1.65.12-2.11,1.26.17-1.29.23-1.52-1.3-2.08,1.34.19,1.64.34,2.09-1.23C696,9.89,696.34,9.76,697.59,10.27Z"/><path class="cls-14" d="M125,346.07c-6.26-1-6.57.52-8.39,5.07.68-5.17.9-6.09-5.2-8.31,5.33.75,6.54,1.35,8.35-4.9C118.77,344.56,120,344,125,346.07Z"/><path class="cls-14" d="M472.89,191.82c-8-1.31-8.37.66-10.69,6.45.86-6.59,1.14-7.76-6.62-10.59,6.79,1,8.33,1.73,10.64-6.24C465,189.89,466.54,189.23,472.89,191.82Z"/><path class="cls-14" d="M293.84,53.7c-8-1.3-8.38.66-10.69,6.46.86-6.59,1.14-7.77-6.62-10.6,6.79,1,8.32,1.73,10.64-6.23C285.93,51.77,287.48,51.11,293.84,53.7Z"/><path class="cls-14" d="M294.28,228.9c-4.68-.76-4.91.39-6.27,3.79.51-3.86.67-4.55-3.88-6.21,4,.56,4.88,1,6.24-3.66C289.65,227.77,290.56,227.38,294.28,228.9Z"/><path class="cls-14" d="M668.23,49.66c-8-1.31-8.38.66-10.69,6.45.86-6.59,1.14-7.76-6.62-10.59,6.79,1,8.32,1.73,10.64-6.24C660.32,47.73,661.88,47.06,668.23,49.66Z"/><path class="cls-14" d="M120.8,48.28a4.28,4.28,0,1,1-3.17-5.16A4.27,4.27,0,0,1,120.8,48.28Z"/><path class="cls-14" d="M125.2,214.24a2.73,2.73,0,1,1-2-3.3A2.74,2.74,0,0,1,125.2,214.24Z"/><path class="cls-14" d="M91.46,145a5,5,0,1,1-3.68-6A5,5,0,0,1,91.46,145Z"/><path class="cls-14" d="M459.33,120.72a3,3,0,1,1-2.26-3.66A3.05,3.05,0,0,1,459.33,120.72Z"/><path class="cls-14" d="M473.05,248.47a3.29,3.29,0,1,1-2.43-4A3.28,3.28,0,0,1,473.05,248.47Z"/><path class="cls-14" d="M503.12,3.6a3.47,3.47,0,1,1-2.57-4.19A3.48,3.48,0,0,1,503.12,3.6Z"/><path class="cls-14" d="M465.81,20.36a2.48,2.48,0,1,1-1.84-3A2.49,2.49,0,0,1,465.81,20.36Z"/><path class="cls-14" d="M115.47,243.2a3.23,3.23,0,1,1-2.38-3.9A3.24,3.24,0,0,1,115.47,243.2Z"/><path class="cls-14" d="M581.51,42.19A2.05,2.05,0,1,1,580,39.72,2,2,0,0,1,581.51,42.19Z"/><path class="cls-14" d="M555.14,137a2.05,2.05,0,1,1-1.52-2.46A2,2,0,0,1,555.14,137Z"/><path class="cls-14" d="M583.06,257.27a3.17,3.17,0,1,1-2.34-3.82A3.16,3.16,0,0,1,583.06,257.27Z"/><path class="cls-14" d="M128.92,104.45a2,2,0,1,1-1.49-2.39A2,2,0,0,1,128.92,104.45Z"/><path class="cls-14" d="M369.77,24.81a3.22,3.22,0,1,1-2.4-3.89A3.24,3.24,0,0,1,369.77,24.81Z"/><path class="cls-14" d="M185.9,52.15a3,3,0,1,1-2.26-3.67A3,3,0,0,1,185.9,52.15Z"/><path class="cls-14" d="M272.73,8a3.22,3.22,0,1,1,2.69-3.68A3.21,3.21,0,0,1,272.73,8Z"/><path class="cls-14" d="M277.3,94.93a3.23,3.23,0,1,1,.84-4.49A3.23,3.23,0,0,1,277.3,94.93Z"/><path class="cls-14" d="M531.94,338.67a2.06,2.06,0,1,1,.54-2.86A2,2,0,0,1,531.94,338.67Z"/><path class="cls-14" d="M339.79,96.72a2.06,2.06,0,1,1,.54-2.85A2,2,0,0,1,339.79,96.72Z"/><path class="cls-14" d="M285.66,281.94a2.05,2.05,0,1,1,.53-2.85A2,2,0,0,1,285.66,281.94Z"/><path class="cls-14" d="M588.4,374.75a2.06,2.06,0,1,1,.54-2.86A2.06,2.06,0,0,1,588.4,374.75Z"/><path class="cls-14" d="M347,265.82a2.06,2.06,0,1,1,.53-2.86A2.06,2.06,0,0,1,347,265.82Z"/><path class="cls-14" d="M490.52,418.63a2.06,2.06,0,1,1,.54-2.85A2,2,0,0,1,490.52,418.63Z"/><path class="cls-14" d="M506.36,345.66c.22-.15-.11-1-.75-2s-1.34-1.57-1.57-1.42.12,1.05.75,2S506.13,345.82,506.36,345.66Z"/><path class="cls-14" d="M309.63,188.69a3.17,3.17,0,1,1-2.34-3.82A3.16,3.16,0,0,1,309.63,188.69Z"/><path class="cls-14" d="M253.25,360.52a3,3,0,1,1-2.22-3.58A3,3,0,0,1,253.25,360.52Z"/><path class="cls-14" d="M213.68,265.44a3.6,3.6,0,1,1-2.67-4.36A3.61,3.61,0,0,1,213.68,265.44Z"/><path class="cls-14" d="M134.06,286a2.91,2.91,0,1,1-2.16-3.54A2.94,2.94,0,0,1,134.06,286Z"/><path class="cls-14" d="M191.34,366.89a2.05,2.05,0,0,1-4-.95,2.05,2.05,0,1,1,4,.95Z"/><path class="cls-14" d="M324.58,25.51a1.49,1.49,0,1,1-2-.79A1.48,1.48,0,0,1,324.58,25.51Z"/><path class="cls-14" d="M291.41,70a1.31,1.31,0,1,1-1.72-.7A1.32,1.32,0,0,1,291.41,70Z"/><path class="cls-14" d="M338.12,52.17a2.59,2.59,0,1,1-3.39-1.38A2.59,2.59,0,0,1,338.12,52.17Z"/><path class="cls-14" d="M174.5,233.64A2.18,2.18,0,1,1,173,231,2.18,2.18,0,0,1,174.5,233.64Z"/><path class="cls-14" d="M59.87,168.11a1.79,1.79,0,0,1-3.45-1,1.79,1.79,0,0,1,3.45,1Z"/><path class="cls-14" d="M41.39,52.44a1.79,1.79,0,1,1-1.25-2.2A1.78,1.78,0,0,1,41.39,52.44Z"/><path class="cls-14" d="M154.1,174a1.17,1.17,0,1,1-.82-1.43A1.17,1.17,0,0,1,154.1,174Z"/><path class="cls-14" d="M127.3,187.77a1.57,1.57,0,1,1-1.09-1.94A1.57,1.57,0,0,1,127.3,187.77Z"/><path class="cls-14" d="M113.15,280.29a1.57,1.57,0,1,1-1.09-1.94A1.57,1.57,0,0,1,113.15,280.29Z"/><path class="cls-14" d="M319.83,81.1a2.59,2.59,0,1,1-3.38-1.39A2.58,2.58,0,0,1,319.83,81.1Z"/><path class="cls-14" d="M307.45,135.09a1.89,1.89,0,1,1-3.65-1,1.89,1.89,0,0,1,3.65,1Z"/><path class="cls-14" d="M301.65,173.76a1.89,1.89,0,1,1-1.32-2.33A1.9,1.9,0,0,1,301.65,173.76Z"/><path class="cls-14" d="M292.73,225.45a1.89,1.89,0,1,1-1.32-2.33A1.89,1.89,0,0,1,292.73,225.45Z"/><path class="cls-14" d="M264.77,187.59a1.89,1.89,0,1,1-1.33-2.33A1.89,1.89,0,0,1,264.77,187.59Z"/><path class="cls-14" d="M269.6,257.68a1.89,1.89,0,1,1-1.33-2.34A1.9,1.9,0,0,1,269.6,257.68Z"/><path class="cls-14" d="M225.94,125.75a2.85,2.85,0,1,1-2-3.51A2.85,2.85,0,0,1,225.94,125.75Z"/><path class="cls-14" d="M152.63,10.06c-3.21-.64-3.4.15-4.42,2.46.44-2.65.57-3.12-2.53-4.38,2.73.49,3.34.82,4.39-2.37C149.45,9.17,150.09,8.93,152.63,10.06Z"/><path class="cls-14" d="M183.63,119.26c-3.6-.72-3.81.17-4.95,2.76.49-3,.64-3.5-2.84-4.91,3.07.54,3.75.91,4.93-2.66C180.07,118.26,180.79,118,183.63,119.26Z"/><path class="cls-14" d="M22.57,161.87c-4.66-.93-4.93.21-6.41,3.57.64-3.86.83-4.54-3.67-6.36,4,.7,4.85,1.19,6.38-3.44C18,160.57,18.89,160.21,22.57,161.87Z"/><path class="cls-14" d="M174.8,289.87c-4.66-.93-4.93.22-6.41,3.57.64-3.85.83-4.53-3.67-6.35,4,.7,4.86,1.18,6.38-3.45C170.2,288.58,171.13,288.22,174.8,289.87Z"/><path class="cls-14" d="M4,23c-2.61-.53-2.76.12-3.59,2,.36-2.15.46-2.53-2.06-3.55,2.23.39,2.72.66,3.58-1.93C1.39,22.27,1.91,22.07,4,23Z"/><path class="cls-14" d="M286.31,297.23c-4.66-.93-4.93.22-6.41,3.57.64-3.85.83-4.53-3.67-6.35,4,.7,4.85,1.18,6.37-3.44C281.71,295.94,282.63,295.58,286.31,297.23Z"/><path class="cls-14" d="M136.39,310.94c-2.34-.46-2.48.11-3.22,1.79.32-1.93.42-2.27-1.84-3.18,2,.35,2.44.59,3.2-1.73C134.08,310.29,134.54,310.11,136.39,310.94Z"/><path class="cls-14" d="M233.47,241.7c-2.33-.46-2.47.11-3.21,1.79.32-1.93.41-2.27-1.84-3.18,2,.35,2.43.59,3.2-1.73C231.16,241.05,231.63,240.87,233.47,241.7Z"/><path class="cls-14" d="M225,223.18c-.92-.18-1,0-1.26.7.13-.75.16-.89-.72-1.25.78.14,1,.24,1.25-.67C224.05,222.93,224.24,222.86,225,223.18Z"/><path class="cls-14" d="M248.72,305.1c-.92-.18-1,0-1.26.7.12-.75.16-.89-.73-1.25.78.14,1,.24,1.26-.67C247.81,304.85,248,304.78,248.72,305.1Z"/><path class="cls-14" d="M48.18,198.69c-.91-.18-1,0-1.26.7.13-.76.17-.89-.72-1.25.78.14,1,.23,1.26-.68C47.28,198.43,47.46,198.36,48.18,198.69Z"/><path class="cls-14" d="M10.86,75.58c-.91-.18-1,0-1.26.7.13-.75.16-.89-.72-1.25.78.14.95.24,1.25-.67C10,75.33,10.14,75.26,10.86,75.58Z"/><path class="cls-14" d="M257,77.76c-.92-.18-1,0-1.26.7.13-.75.16-.89-.72-1.25.78.14,1,.24,1.25-.67C256.11,77.51,256.3,77.44,257,77.76Z"/><path class="cls-14" d="M32.64,4.55c-.91-.18-1,0-1.26.7.13-.75.17-.89-.72-1.25.78.14,1,.24,1.26-.67C31.74,4.3,31.92,4.23,32.64,4.55Z"/><path class="cls-14" d="M330.81,84.54c-.91-.19-1,0-1.26.7.13-.76.17-.89-.72-1.25.78.14,1,.23,1.26-.68C329.91,84.28,330.09,84.21,330.81,84.54Z"/><path class="cls-14" d="M195.12,186.45c-4.65-.93-4.93.22-6.41,3.57.65-3.85.84-4.53-3.66-6.35,4,.7,4.85,1.18,6.37-3.45C190.52,185.16,191.45,184.8,195.12,186.45Z"/><path class="cls-14" d="M92.87,101.64c-4.65-.93-4.93.22-6.41,3.57.65-3.85.84-4.53-3.66-6.35,4,.7,4.85,1.18,6.37-3.44C88.27,100.35,89.2,100,92.87,101.64Z"/><path class="cls-14" d="M215.08,55c-4.66-.93-4.93.22-6.42,3.57.65-3.85.84-4.53-3.66-6.35,4,.7,4.85,1.18,6.37-3.45C210.47,53.67,211.4,53.31,215.08,55Z"/><path class="cls-14" d="M89.49,204.51c-2.73-.54-2.89.13-3.76,2.1.38-2.26.49-2.66-2.15-3.73,2.33.41,2.85.69,3.74-2C86.79,203.75,87.34,203.54,89.49,204.51Z"/><path class="cls-14" d="M312.76,107.05c-4.66-.93-4.93.22-6.41,3.57.64-3.85.83-4.53-3.67-6.36,4,.71,4.85,1.19,6.38-3.44C308.16,105.76,309.08,105.4,312.76,107.05Z"/><path class="cls-14" d="M284.43,39.4c-4.65-.94-4.93.21-6.41,3.56.65-3.85.84-4.53-3.66-6.35,4,.7,4.85,1.18,6.37-3.44C279.83,38.1,280.76,37.74,284.43,39.4Z"/><path class="cls-14" d="M255.92,51.25a1.93,1.93,0,1,1-3.72-1,1.93,1.93,0,1,1,3.72,1Z"/><path class="cls-14" d="M188.64,144.43a1.79,1.79,0,1,1-1.25-2.2A1.79,1.79,0,0,1,188.64,144.43Z"/><path class="cls-14" d="M194,219.71a1.93,1.93,0,1,1-1.34-2.37A1.93,1.93,0,0,1,194,219.71Z"/><path class="cls-14" d="M218.19,24.09a3,3,0,0,1-5.77-1.6,3,3,0,1,1,5.77,1.6Z"/><path class="cls-14" d="M216.79,76.58a2,2,0,1,1-1.43-2.51A2.05,2.05,0,0,1,216.79,76.58Z"/><path class="cls-14" d="M194.53,85.64a1.46,1.46,0,1,1-1-1.79A1.46,1.46,0,0,1,194.53,85.64Z"/><path class="cls-14" d="M262,100.86a1.19,1.19,0,0,1-1.48.84,1.2,1.2,0,0,1,.64-2.32A1.2,1.2,0,0,1,262,100.86Z"/><path class="cls-14" d="M244.55,156a1.2,1.2,0,1,1-2.32-.64,1.2,1.2,0,0,1,2.32.64Z"/><path class="cls-14" d="M258.44,227.17a1.86,1.86,0,1,1-1.29-2.29A1.86,1.86,0,0,1,258.44,227.17Z"/><path class="cls-14" d="M138.05,86.26a1.89,1.89,0,1,1-1.32-2.33A1.9,1.9,0,0,1,138.05,86.26Z"/><path class="cls-14" d="M29.54,98.49a1.79,1.79,0,1,1-1.25-2.2A1.79,1.79,0,0,1,29.54,98.49Z"/><path class="cls-14" d="M35.43,39.7a1.46,1.46,0,1,1-1-1.8A1.48,1.48,0,0,1,35.43,39.7Z"/><path class="cls-14" d="M128.39,42.2a1.2,1.2,0,0,1-2.32-.65,1.22,1.22,0,0,1,1.48-.84A1.2,1.2,0,0,1,128.39,42.2Z"/><path class="cls-14" d="M81.43,74.39a1.89,1.89,0,1,1,1.66-2.11A1.9,1.9,0,0,1,81.43,74.39Z"/><path class="cls-14" d="M94,66.37a1.21,1.21,0,0,1-1.34-1.06A1.22,1.22,0,0,1,93.72,64a1.21,1.21,0,0,1,.28,2.4Z"/><path class="cls-14" d="M82.31,125.5a1.89,1.89,0,1,1,.58-2.61A1.89,1.89,0,0,1,82.31,125.5Z"/><path class="cls-14" d="M226.74,273.9a1.21,1.21,0,1,1,.37-1.67A1.21,1.21,0,0,1,226.74,273.9Z"/><path class="cls-14" d="M119,127.86a1.21,1.21,0,1,1,.37-1.67A1.21,1.21,0,0,1,119,127.86Z"/><path class="cls-14" d="M94.34,21.23a1.21,1.21,0,1,1,.38-1.67A1.21,1.21,0,0,1,94.34,21.23Z"/><path class="cls-14" d="M249.87,6.76a1.21,1.21,0,1,1,.37-1.67A1.21,1.21,0,0,1,249.87,6.76Z"/><path class="cls-14" d="M166.14,54.73a1.21,1.21,0,1,1,.37-1.67A1.21,1.21,0,0,1,166.14,54.73Z"/><path class="cls-14" d="M187.52,3a1.19,1.19,0,0,1-1.66-.38,1.2,1.2,0,1,1,1.66.38Z"/><path class="cls-14" d="M83.33,235.47a1.19,1.19,0,0,1-1.66-.38,1.2,1.2,0,1,1,1.66.38Z"/><path class="cls-14" d="M259.14,296.25a1.21,1.21,0,1,1,.37-1.66A1.2,1.2,0,0,1,259.14,296.25Z"/><path class="cls-14" d="M119.65,227.28a1.21,1.21,0,1,1,.38-1.66A1.2,1.2,0,0,1,119.65,227.28Z"/><path class="cls-14" d="M200.76,320a1.21,1.21,0,1,1,.37-1.67A1.21,1.21,0,0,1,200.76,320Z"/><path class="cls-14" d="M211.57,277.47c.14-.08,0-.61-.4-1.17s-.75-1-.89-.87.05.62.4,1.17S211.44,277.56,211.57,277.47Z"/><path class="cls-14" d="M99.34,181.22a1.86,1.86,0,1,1-3.59-1,1.86,1.86,0,0,1,3.59,1Z"/><path class="cls-14" d="M62.67,280.93a1.75,1.75,0,1,1-1.23-2.14A1.75,1.75,0,0,1,62.67,280.93Z"/><path class="cls-14" d="M41.41,224.29a2.12,2.12,0,1,1-1.47-2.61A2.11,2.11,0,0,1,41.41,224.29Z"/><path class="cls-14" d="M26.19,283.38a1.2,1.2,0,1,1-2.32-.64,1.2,1.2,0,0,1,2.32.64Z"/><path class="cls-14" d="M314.77,79.76a1.74,1.74,0,1,1-2.29-.94A1.75,1.75,0,0,1,314.77,79.76Z"/><path class="cls-14" d="M275.72,131.64a1.54,1.54,0,1,1-2-.82A1.54,1.54,0,0,1,275.72,131.64Z"/><path class="cls-14" d="M330.47,111a3,3,0,1,1-4-1.64A3,3,0,0,1,330.47,111Z"/><path class="cls-14" d="M138,322.5a2.56,2.56,0,1,1-1.78-3.15A2.57,2.57,0,0,1,138,322.5Z"/><path class="cls-14" d="M4.25,245.21a2.09,2.09,0,1,1-1.45-2.58A2.11,2.11,0,0,1,4.25,245.21Z"/><path class="cls-14" d="M65.58,24.46a1.94,1.94,0,0,1-2.41,1.35,2,2,0,1,1,2.41-1.35Z"/><path class="cls-14" d="M114.48,252.55a1.37,1.37,0,1,1-1-1.68A1.37,1.37,0,0,1,114.48,252.55Z"/><path class="cls-14" d="M83.05,268.57a1.83,1.83,0,1,1-1.26-2.28A1.84,1.84,0,0,1,83.05,268.57Z"/><path class="cls-14" d="M66,376.76a1.83,1.83,0,1,1-3.53-1,1.83,1.83,0,1,1,3.53,1Z"/><path class="cls-14" d="M308.92,144.78a3,3,0,1,1-4-1.63A3,3,0,0,1,308.92,144.78Z"/><path class="cls-14" d="M294.13,207.9a2.21,2.21,0,1,1-1.54-2.74A2.22,2.22,0,0,1,294.13,207.9Z"/><path class="cls-14" d="M287.14,253.12a2.21,2.21,0,1,1-1.53-2.74A2.21,2.21,0,0,1,287.14,253.12Z"/><path class="cls-14" d="M276.43,313.55a2.22,2.22,0,1,1-1.54-2.74A2.22,2.22,0,0,1,276.43,313.55Z"/><path class="cls-14" d="M243.91,269.11a2.22,2.22,0,1,1-1.54-2.74A2.22,2.22,0,0,1,243.91,269.11Z"/><path class="cls-14" d="M249.18,351.14a2.21,2.21,0,1,1-1.53-2.74A2.22,2.22,0,0,1,249.18,351.14Z"/><path class="cls-14" d="M198.8,196.53a3.33,3.33,0,1,1-2.29-4.12A3.32,3.32,0,0,1,198.8,196.53Z"/><path class="cls-14" d="M113.64,60.76c-3.75-.77-4,.16-5.19,2.86.54-3.11.69-3.65-2.93-5.14,3.2.58,3.91,1,5.16-2.75C109.93,59.7,110.68,59.42,113.64,60.76Z"/><path class="cls-14" d="M149.33,188.71c-4.21-.86-4.46.17-5.81,3.2.6-3.48.77-4.1-3.29-5.76,3.58.65,4.38,1.09,5.78-3.09C145.18,187.52,146,187.2,149.33,188.71Z"/><path class="cls-14" d="M138.08,388.31c-5.44-1.12-5.77.22-7.52,4.14.78-4.51,1-5.3-4.26-7.46,4.64.84,5.68,1.41,7.48-4C132.71,386.76,133.79,386.35,138.08,388.31Z"/><path class="cls-14" d="M268.52,397.52c-5.44-1.12-5.77.22-7.52,4.14.78-4.5,1-5.3-4.26-7.46,4.65.84,5.68,1.42,7.48-4C263.15,396,264.23,395.56,268.52,397.52Z"/><path class="cls-14" d="M93,412.76c-2.73-.56-2.9.11-3.78,2.07.39-2.26.51-2.66-2.13-3.74,2.33.42,2.84.71,3.75-2C90.32,412,90.86,411.77,93,412.76Z"/><path class="cls-14" d="M207,332.25c-2.73-.56-2.9.12-3.78,2.08.39-2.26.51-2.66-2.13-3.74,2.33.42,2.84.71,3.75-2C204.3,331.48,204.84,331.27,207,332.25Z"/><path class="cls-14" d="M197.13,310.53c-1.07-.21-1.13.05-1.47.82.15-.89.19-1-.84-1.47.91.17,1.11.28,1.47-.78C196.08,310.23,196.29,310.15,197.13,310.53Z"/><path class="cls-14" d="M224.49,406.52c-1.07-.22-1.13.05-1.48.82.16-.89.2-1-.83-1.47.91.17,1.11.28,1.47-.78C223.44,406.22,223.65,406.14,224.49,406.52Z"/><path class="cls-14" d="M235.43,140.54c-1.07-.22-1.13.05-1.48.82.16-.89.2-1.05-.83-1.47.91.17,1.11.28,1.47-.79C234.37,140.24,234.59,140.16,235.43,140.54Z"/><path class="cls-14" d="M321.75,148.87c-1.07-.22-1.14,0-1.48.81.15-.89.2-1-.84-1.47.91.17,1.12.28,1.47-.78C320.69,148.56,320.9,148.48,321.75,148.87Z"/><path class="cls-14" d="M162.42,267.4c-5.45-1.12-5.77.22-7.52,4.14.77-4.51,1-5.3-4.26-7.46,4.64.84,5.67,1.41,7.48-4C157,265.85,158.13,265.44,162.42,267.4Z"/><path class="cls-14" d="M43.23,167.61c-5.45-1.12-5.77.22-7.53,4.14.78-4.51,1-5.3-4.25-7.46,4.64.84,5.67,1.41,7.48-4C37.85,166.06,38.93,165.65,43.23,167.61Z"/><path class="cls-14" d="M186.47,113.64c-5.44-1.12-5.77.22-7.52,4.14.78-4.5,1-5.3-4.25-7.46,4.64.84,5.67,1.42,7.48-4C181.1,112.1,182.18,111.68,186.47,113.64Z"/><path class="cls-14" d="M38.72,288c-3.2-.65-3.39.13-4.42,2.43.46-2.64.59-3.11-2.49-4.37,2.72.49,3.33.83,4.39-2.34C35.56,287.06,36.2,286.81,38.72,288Z"/><path class="cls-14" d="M11.52,29.86c-3.45-.7-3.65.14-4.76,2.62.49-2.85.63-3.35-2.7-4.72,2.94.54,3.59.9,4.74-2.53C8.12,28.89,8.8,28.62,11.52,29.86Z"/><path class="cls-14" d="M300.5,175.12c-5.45-1.12-5.77.22-7.52,4.14.77-4.51,1-5.3-4.26-7.46,4.64.84,5.67,1.41,7.48-4C295.12,173.57,296.21,173.16,300.5,175.12Z"/><path class="cls-14" d="M267.72,95.79c-5.45-1.11-5.77.23-7.52,4.14.77-4.5,1-5.3-4.26-7.45,4.64.84,5.67,1.41,7.48-4C262.34,94.25,263.42,93.84,267.72,95.79Z"/><path class="cls-14" d="M234.29,109.51a2.25,2.25,0,1,1-1.55-2.78A2.27,2.27,0,0,1,234.29,109.51Z"/><path class="cls-14" d="M155.06,218.19a2.09,2.09,0,1,1-1.45-2.58A2.11,2.11,0,0,1,155.06,218.19Z"/><path class="cls-14" d="M161,306.31a2.26,2.26,0,1,1-1.56-2.78A2.26,2.26,0,0,1,161,306.31Z"/><path class="cls-14" d="M190.29,77.53a3.51,3.51,0,1,1-2.43-4.33A3.51,3.51,0,0,1,190.29,77.53Z"/><path class="cls-14" d="M188.36,139A2.39,2.39,0,1,1,186.7,136,2.39,2.39,0,0,1,188.36,139Z"/><path class="cls-14" d="M162.27,149.43a1.71,1.71,0,1,1-1.19-2.11A1.71,1.71,0,0,1,162.27,149.43Z"/><path class="cls-14" d="M241.14,167.6a1.41,1.41,0,1,1-1-1.73A1.4,1.4,0,0,1,241.14,167.6Z"/><path class="cls-14" d="M220.42,232a1.4,1.4,0,0,1-1.74,1,1.41,1.41,0,1,1,.76-2.71A1.4,1.4,0,0,1,220.42,232Z"/><path class="cls-14" d="M236.3,315.38a2.18,2.18,0,1,1-1.51-2.69A2.19,2.19,0,0,1,236.3,315.38Z"/><path class="cls-14" d="M96.18,149.85a2.22,2.22,0,1,1-1.54-2.74A2.24,2.24,0,0,1,96.18,149.85Z"/><path class="cls-14" d="M85.11,98.23a1.41,1.41,0,1,1-1-1.74A1.41,1.41,0,0,1,85.11,98.23Z"/><path class="cls-14" d="M30,135.65a2.21,2.21,0,1,1,1.95-2.45A2.22,2.22,0,0,1,30,135.65Z"/><path class="cls-14" d="M44.73,126.33A1.41,1.41,0,1,1,46,124.77,1.4,1.4,0,0,1,44.73,126.33Z"/><path class="cls-14" d="M30.73,195.47a2.22,2.22,0,1,1,.7-3.06A2.22,2.22,0,0,1,30.73,195.47Z"/><path class="cls-14" d="M199,369.89a1.42,1.42,0,1,1,.44-1.95A1.41,1.41,0,0,1,199,369.89Z"/><path class="cls-14" d="M73.61,198.42a1.42,1.42,0,0,1-1.5-2.4,1.43,1.43,0,0,1,2,.45A1.41,1.41,0,0,1,73.61,198.42Z"/><path class="cls-14" d="M45.38,73.51a1.41,1.41,0,1,1,.44-1.94A1.41,1.41,0,0,1,45.38,73.51Z"/><path class="cls-14" d="M227.45,57.42a1.42,1.42,0,1,1,.44-2A1.4,1.4,0,0,1,227.45,57.42Z"/><path class="cls-14" d="M129.21,113.1a1.42,1.42,0,1,1,.44-1.95A1.4,1.4,0,0,1,129.21,113.1Z"/><path class="cls-14" d="M154.5,52.73a1.41,1.41,0,1,1,.45-1.94A1.41,1.41,0,0,1,154.5,52.73Z"/><path class="cls-14" d="M31.33,324.16a1.41,1.41,0,1,1,.45-2A1.41,1.41,0,0,1,31.33,324.16Z"/><path class="cls-14" d="M236.73,396.22a1.41,1.41,0,1,1,.45-1.94A1.41,1.41,0,0,1,236.73,396.22Z"/><path class="cls-14" d="M73.88,314.77a1.41,1.41,0,1,1,.45-1.95A1.41,1.41,0,0,1,73.88,314.77Z"/><path class="cls-14" d="M168.3,423.67a1.41,1.41,0,1,1,.44-1.94A1.41,1.41,0,0,1,168.3,423.67Z"/><path class="cls-14" d="M23.11,14.72c.16-.1,0-.72-.46-1.38s-.88-1.12-1-1,.05.73.46,1.38S23,14.81,23.11,14.72Z"/><path class="cls-14" d="M181.18,374c.16-.1-.05-.71-.46-1.38s-.88-1.11-1-1,.06.73.46,1.38S181,374.09,181.18,374Z"/><path class="cls-14" d="M50.37,260.76a2.18,2.18,0,1,1-1.51-2.68A2.18,2.18,0,0,1,50.37,260.76Z"/><path class="cls-14" d="M6.92,377.24a2.06,2.06,0,1,1-1.43-2.52A2,2,0,0,1,6.92,377.24Z"/><path class="cls-14" d="M99.72,4.9a3.31,3.31,0,1,1-4.38-1.63A3.31,3.31,0,0,1,99.72,4.9Z"/><path class="cls-14" d="M85.94,74.31a2.42,2.42,0,1,1-1.78-2.93A2.43,2.43,0,0,1,85.94,74.31Z"/><path class="cls-14" d="M80,123.9A2.42,2.42,0,1,1,78.22,121,2.41,2.41,0,0,1,80,123.9Z"/><path class="cls-14" d="M70.55,190.24a2.42,2.42,0,1,1-1.78-2.93A2.42,2.42,0,0,1,70.55,190.24Z"/><path class="cls-14" d="M33.42,143A2.42,2.42,0,1,1,31.64,140,2.42,2.42,0,0,1,33.42,143Z"/><path class="cls-14" d="M42.23,232.26a2.42,2.42,0,1,1-1.78-2.93A2.42,2.42,0,0,1,42.23,232.26Z"/><path class="cls-14" d="M65.05,282.14c-6-1-6.28.46-8,4.79.68-4.94.9-5.82-4.92-8,5.09.74,6.24,1.33,8-4.64C59.13,280.65,60.3,280.16,65.05,282.14Z"/><path class="cls-14" d="M17.35,293.6c-1.17-.2-1.23.09-1.58.94.13-1,.18-1.14-1-1.57,1,.15,1.23.27,1.58-.91C16.19,293.31,16.42,293.21,17.35,293.6Z"/><path class="cls-14" d="M19.39,3c-1.18-.2-1.24.09-1.58,1,.13-1,.17-1.15-1-1.57,1,.14,1.22.26,1.57-.91C18.22,2.72,18.45,2.62,19.39,3Z"/><path class="cls-14" d="M113.87,8.88c-1.18-.2-1.24.09-1.59.94.14-1,.18-1.14-1-1.56,1,.14,1.22.26,1.57-.92C112.7,8.59,112.93,8.49,113.87,8.88Z"/><path class="cls-14" d="M91.66,38.31c-6-1-6.28.46-8,4.8.68-4.94.89-5.82-4.92-8,5.09.75,6.24,1.33,8-4.63C85.74,36.83,86.91,36.34,91.66,38.31Z"/><path class="cls-14" d="M26.62,32.32a1.53,1.53,0,0,1-1.86,1.13,1.54,1.54,0,1,1,.73-3A1.53,1.53,0,0,1,26.62,32.32Z"/><path class="cls-14" d="M6.42,103.38a1.54,1.54,0,0,1-3-.73,1.55,1.55,0,0,1,1.87-1.13A1.53,1.53,0,0,1,6.42,103.38Z"/><path class="cls-14" d="M26.84,193.73a2.38,2.38,0,1,1-1.75-2.88A2.39,2.39,0,0,1,26.84,193.73Z"/><path class="cls-14" d="M30.32,281.91a1.54,1.54,0,1,1,.42-2.14A1.54,1.54,0,0,1,30.32,281.91Z"/></g><path class="cls-2" d="M1022,898.74V857.92H995V895.6q-4.49-.51-9-1v-19.4H972V857.92H948v-15H934v-20.3H907v9H887v54.1q-14-1-28-1.9V857.92H832V833.11H805v13.54H778v33.17l-7-.25V829.36H744v49.43l-5-.12V822.59H712v55.58l-8-.1V811.31H677v11.28H652v55.34l-5,0V807.55H620v9.78H593v12H566v50.31l-3,.1V800H538V773.72H511V791H486v92.53l-6,.39V839.88H453v45.94l-6,.46V857.92H420v30.57q-8.5.74-17,1.54V829.36H350v66.18q-6.51.75-13,1.53V839.88H310v28.57H283v35.73C181.31,918.78,85.75,939.5,1,966.51v125.21H1367v-124C1263.37,936.84,1145.84,913.76,1022,898.74ZM624.14,878.22l-4.15.06v-.06Z"/><rect class="cls-2" x="206.99" y="751.72" width="2" height="47"/><path class="cls-14" d="M0,47.72v-129H1366v129s-395-91-695-6S0,47.72,0,47.72Z"/><path class="cls-2" d="M207.58,641.84c-20.63,15.39-6,49.24-6,49.24h12S228.21,657.23,207.58,641.84Zm0,37.88a3.55,3.55,0,1,1,3.26-3.54A3.56,3.56,0,0,1,207.58,679.72Zm.1-12h-.2a5.72,5.72,0,1,1,0-11.44h.2a5.72,5.72,0,0,1,0,11.44Z"/><circle class="cls-2" cx="207.58" cy="661.97" r="5.82"/><circle class="cls-2" cx="207.58" cy="661.97" r="4.64"/><circle class="cls-2" cx="207.58" cy="676.18" r="4.24"/><circle class="cls-2" cx="207.58" cy="676.18" r="3.38"/><path class="cls-2" d="M200.87,649.21s7.1,2,13.42,0a23.16,23.16,0,0,0-6.71-7.37A22.2,22.2,0,0,0,200.87,649.21Z"/><path class="cls-2" d="M216.42,682.54c6.9,6.17,7.58,7.16,1,16.17a.4.4,0,0,1-.71-.33c.71-2.92,1.27-7.8-2.67-8.41h0c.11-.18,2.3-7.2,2.36-7.43Z"/><path class="cls-2" d="M198.7,682.54c-6.9,6.17-7.58,7.16-1,16.17a.4.4,0,0,0,.71-.33c-.71-2.92-1.27-7.8,2.67-8.41h0c-.11-.18-2.3-7.2-2.37-7.43Z"/><polygon class="cls-2" points="213.06 691.08 207.53 691.08 207.53 691.08 202.05 691.08 203.14 693.65 207.58 693.65 207.58 693.65 211.97 693.65 213.06 691.08"/><path class="cls-2" d="M212,693.65h-8.88s-3.36,3.36-.89,7.21c0,0,.49-3.16,1.18-2.77-.79,1.78,1.19,5.53,1.19,5.53s0-2.27.59-2.37c0,2,2.49,21.88,2.78,22.47-1,0,2-20.5,2-22.47.59.1.59,2.37.59,2.37s2-3.75,1.18-5.53c.69-.39,1.19,2.77,1.19,2.77C215.38,697,212,693.65,212,693.65Z"/><path class="cls-2" d="M207.09,682.5h1a0,0,0,0,1,0,0v15.89a.49.49,0,0,1-.49.49h0a.49.49,0,0,1-.49-.49V682.5A0,0,0,0,1,207.09,682.5Z"/><ellipse class="cls-2" cx="206.99" cy="661.67" rx="3.65" ry="3.75"/><circle class="cls-2" cx="207.18" cy="676.18" r="2.57"/><circle class="cls-2" cx="206.35" cy="675.44" r="1.13"/><circle class="cls-2" cx="205.75" cy="660.54" r="1.83"/><path class="cls-2" d="M201.07,690c-6-3.46-7.7,1.48-7.72,1.43-.48-2.22-1-3.31,5.35-8.93Z"/><path class="cls-2" d="M214,690c6-3.46,7.7,1.48,7.71,1.42.48-2.21,1-3.3-5.34-8.92Z"/><path class="cls-2" d="M207.09,682.5h1a0,0,0,0,1,0,0v12.34a.49.49,0,0,1-.49.49h0a.49.49,0,0,1-.49-.49V682.5A0,0,0,0,1,207.09,682.5Z"/><path class="cls-2" d="M200.87,649.21s7.1,2,13.42,0a23.16,23.16,0,0,0-6.71-7.37A22.2,22.2,0,0,0,200.87,649.21Z"/><g class="cls-15"><polygon class="cls-2" points="207.58 650.12 207.58 641.84 214.09 641.84 215.28 649.83 207.58 650.12"/></g><rect class="cls-2" x="198.99" y="791.72" width="17" height="136"/><rect class="cls-2" x="179.99" y="840.72" width="15" height="82"/><rect class="cls-2" x="213.99" y="855.72" width="10" height="67"/><rect class="cls-2" x="185.99" y="817.72" width="3" height="38"/></svg>