<svg id="Capa_1" data-name="Capa 1" xmlns="http://www.w3.org/2000/svg" viewBox="0 0 524 512"><defs><style>.cls-1{font-size:100px;font-family:Montserrat-Bold, Montserrat;font-weight:700;}.cls-1,.cls-4{fill:#201932;}.cls-2{letter-spacing:0.01em;}.cls-3{fill:#662d91;}</style></defs><title>Mesa de trabajo 18</title><text class="cls-1" transform="translate(36.4 486.66)">GA<tspan class="cls-2" x="153.7" y="0">L</tspan><tspan x="214.7" y="0">ASIX</tspan></text><path class="cls-3" d="M246.65,95.78c-2.85,2.55-5.58,5.18-8.22,7.86a9,9,0,0,1-11,12.26c-27,33.13-38.81,72.58-30.76,106.38a331.33,331.33,0,0,1,105.25-7c2.38.23,4.72.49,7.05.76a9,9,0,0,1,17,2.47c30.86,5.34,56.48,14.57,75.67,24.53L432.7,212a28.87,28.87,0,0,0,0-40.7L314.26,52.86C294.21,62.06,271.42,75.68,246.65,95.78Z"/><path class="cls-4" d="M322.44,312.8c2.57.38,5.41.72,8.43,1L397.2,247.5c-18.49-9.37-42.94-18-72.31-23.07a9,9,0,0,1-16.55-2.4c-2.31-.28-4.63-.53-7-.76a325.3,325.3,0,0,0-103.09,6.8c4.8,15.45,14.86,33,35,48.64a9,9,0,0,1,13.9,7.39,9.14,9.14,0,0,1-.19,2C265.24,297.06,289.73,306.54,322.44,312.8Z"/><path class="cls-4" d="M190.84,223.67c-8.46-35.57,3.73-76.87,31.85-111.43a9,9,0,0,1,7.4-13.89,9.09,9.09,0,0,1,4.19,1q4-4.11,8.42-8l.11-.1c24.38-19.78,46.93-33.42,66.94-42.81L286.4,25a28.87,28.87,0,0,0-40.7,0L99.4,171.3a28.87,28.87,0,0,0,0,40.7l32.21,32.21A345.82,345.82,0,0,1,190.84,223.67Z"/><path class="cls-3" d="M321.5,318.72l-.13,0c-30.83-5.89-56.8-15.15-77.44-27.57a9,9,0,0,1-14.8-6.73,8.83,8.83,0,0,1,.49-3c-18.55-14.4-31.07-31.84-37.21-51.89a340.33,340.33,0,0,0-56.27,19.29L245.7,358.3a28.87,28.87,0,0,0,40.7,0l39.05-39.05C324,319.08,322.7,318.9,321.5,318.72Z"/></svg>