<svg id="Capa_1" data-name="Capa 1" xmlns="http://www.w3.org/2000/svg" xmlns:xlink="http://www.w3.org/1999/xlink" viewBox="0 0 349 307"><defs><style>.cls-1,.cls-25,.cls-34,.cls-35,.cls-36{fill:none;}.cls-2{fill:url(#linear-gradient);}.cls-3{fill:url(#linear-gradient-2);}.cls-4{fill:#201932;}.cls-5{clip-path:url(#clip-path);}.cls-6{clip-path:url(#clip-path-2);}.cls-7{clip-path:url(#clip-path-3);}.cls-8{opacity:0.4;}.cls-9{fill:url(#linear-gradient-7);}.cls-10,.cls-17{fill:#fff;}.cls-11{opacity:0.3;}.cls-12{fill:url(#linear-gradient-9);}.cls-13{fill:url(#linear-gradient-10);}.cls-14{clip-path:url(#clip-path-5);}.cls-15{fill:#242424;}.cls-16,.cls-29{fill:#092f8e;}.cls-16,.cls-17,.cls-18,.cls-19,.cls-20,.cls-21,.cls-22,.cls-28{fill-rule:evenodd;}.cls-18{fill:#b5bcc4;}.cls-19{fill:#47607b;}.cls-20{fill:#334f6c;}.cls-21{fill:#002f5b;}.cls-22{fill:#001c46;}.cls-23{opacity:0.6;}.cls-24{clip-path:url(#clip-path-6);}.cls-25{stroke:#fff;stroke-linecap:round;stroke-linejoin:round;stroke-width:9px;}.cls-26{clip-path:url(#clip-path-7);}.cls-27,.cls-28{fill:#c2c9d1;}.cls-30{fill:#969899;}.cls-31{fill:#bcbfc1;}.cls-32{fill:#dbdcdd;}.cls-33{fill:#161616;}.cls-34{stroke:#242424;}.cls-34,.cls-35,.cls-36{stroke-miterlimit:10;}.cls-35,.cls-36{stroke:#fffaff;stroke-width:4px;}.cls-36{stroke-dasharray:7.01 7.01;}.cls-37{fill:#662d91;}.cls-38{fill:#3c3166;}</style><linearGradient id="linear-gradient" x1="135.98" y1="316.27" x2="227.36" y2="6.66" gradientUnits="userSpaceOnUse"><stop offset="0" stop-color="#210f65"/><stop offset="0.26" stop-color="#4f1279"/><stop offset="0.52" stop-color="#80158f"/><stop offset="0.95" stop-color="#80518f"/></linearGradient><linearGradient id="linear-gradient-2" x1="113.63" y1="426.11" x2="290.05" y2="-171.67" xlink:href="#linear-gradient"/><clipPath id="clip-path"><path class="cls-1" d="M324.25,239.6C218.87,433-59.61,286.82,16.09,157.32,73.31,79.64,127,103.35,174.7,78.54c37.91-21,61.26-72.13,99.27-58C314.92,39.6,380.5,131.71,324.25,239.6Z"/></clipPath><clipPath id="clip-path-2"><path class="cls-2" d="M324.25,239.6c-11.61,21.3-32.83,40.84-52.83,52.16-22.33,12.65-96.38,11.5-96.38,11.5s-68.17,0-98.73-4.6C19.87,274-16.4,212.91,16.09,157.32,73.31,79.64,127,103.35,174.7,78.54c37.91-21,61.26-72.13,99.27-58C314.92,39.6,380.5,131.71,324.25,239.6Z"/></clipPath><clipPath id="clip-path-3"><polygon class="cls-3" points="-259.33 316.05 695.97 383.15 577.74 -86.77 -266.9 -214.76 -259.33 316.05"/></clipPath><linearGradient id="linear-gradient-7" x1="158.26" y1="255.39" x2="218.18" y2="52.33" xlink:href="#linear-gradient"/><linearGradient id="linear-gradient-9" x1="311.09" y1="318.33" x2="443.65" y2="-130.82" xlink:href="#linear-gradient"/><linearGradient id="linear-gradient-10" x1="45.02" y1="500.99" x2="231.94" y2="-132.38" xlink:href="#linear-gradient"/><clipPath id="clip-path-5"><path class="cls-1" d="M324.25,239.6c-37.12,68.1-95.71,64.23-152.73,63.66-31.88-.32-58.77-2.3-90.51-4.6C19.47,275-18,215.71,16.09,157.32,73.31,79.64,127,103.35,174.7,78.54c37.91-21,61.26-72.13,99.27-58C314.92,39.6,380.5,131.71,324.25,239.6Z"/></clipPath><clipPath id="clip-path-6"><polygon class="cls-1" points="194.01 147.71 115.97 175.29 105.71 147.52 183.75 119.94 194.01 147.71"/></clipPath><clipPath id="clip-path-7"><polygon class="cls-1" points="124.56 183.52 112.05 187.94 107.53 175.71 120.04 171.29 124.56 183.52"/></clipPath></defs><title>Mesa de trabajo 10</title><rect class="cls-4" x="13.58" y="7.73" width="273.65" height="295.51" rx="9.21"/><path class="cls-2" d="M324.25,239.6c-11.61,21.3-32.83,40.84-52.83,52.16-22.33,12.65-96.38,11.5-96.38,11.5s-68.17,0-98.73-4.6C19.87,274-16.4,212.91,16.09,157.32,73.31,79.64,127,103.35,174.7,78.54c37.91-21,61.26-72.13,99.27-58C314.92,39.6,380.5,131.71,324.25,239.6Z"/><g class="cls-6"><polygon class="cls-3" points="-259.33 316.05 695.97 383.15 577.74 -86.77 -266.9 -214.76 -259.33 316.05"/><polygon class="cls-3" points="-259.33 316.05 695.97 383.15 577.74 -86.77 -266.9 -214.76 -259.33 316.05"/><g class="cls-7"><g class="cls-8"><path class="cls-9" d="M-266.93-90.84c48.23,38,104.17,68.45,155.69,100.9C7.63,83,128.21,150.4,255.58,214.9c125.31,61.86,259,119.56,387.79,183.66"/><path class="cls-10" d="M310.72,122.17c-.07,1.47-1.46,2.28-3.09,1.82a3.78,3.78,0,0,1-2.8-3.5c.08-1.46,1.46-2.27,3.09-1.8A3.78,3.78,0,0,1,310.72,122.17Z"/><path class="cls-10" d="M313.75,73.78c-3.18-.73-3.18,0-3.65,2.08-.15-2.43-.13-2.86-3.34-4.14,2.69.56,3.34.89,3.64-2C310.55,72.82,311.1,72.62,313.75,73.78Z"/><path class="cls-10" d="M336.06,133.65c-1.13-.24-1.13,0-1.3.75-.05-.85,0-1-1.19-1.45,1,.19,1.19.31,1.3-.71C334.92,133.33,335.12,133.26,336.06,133.65Z"/><path class="cls-10" d="M342,54.42c-1.11-.25-1.11,0-1.26.73-.07-.85-.06-1-1.18-1.45.94.19,1.16.31,1.26-.7C340.83,54.09,341,54,342,54.42Z"/><path class="cls-10" d="M318.2,154.75c-.08,1.51-1.52,2.35-3.21,1.88a3.86,3.86,0,0,1-2.9-3.59c.08-1.51,1.53-2.34,3.21-1.87A3.85,3.85,0,0,1,318.2,154.75Z"/><path class="cls-10" d="M343.14,265.43c-.06,1-1,1.51-2.12,1.23a2.43,2.43,0,0,1-1.88-2.27,1.53,1.53,0,0,1,2.1-1.23A2.43,2.43,0,0,1,343.14,265.43Z"/><path class="cls-10" d="M310,218c-.12,1.75-1.82,2.75-3.81,2.22a4.42,4.42,0,0,1-3.39-4.15c.12-1.76,1.82-2.75,3.81-2.22A4.42,4.42,0,0,1,310,218Z"/><path class="cls-10" d="M352.67,13.2c-.06,1.94-1.83,3-4,2.34a5.27,5.27,0,0,1-3.77-4.7c.06-1.94,1.84-3,4-2.33A5.28,5.28,0,0,1,352.67,13.2Z"/><path class="cls-10" d="M339.88,284.39a1.84,1.84,0,0,1-2.51,1.47,2.85,2.85,0,0,1-2.24-2.68,1.84,1.84,0,0,1,2.52-1.47A2.84,2.84,0,0,1,339.88,284.39Z"/><path class="cls-10" d="M331.34,192.49c0,.71-.72,1.1-1.52.88a1.78,1.78,0,0,1-1.35-1.65c0-.7.71-1.09,1.5-.88A1.79,1.79,0,0,1,331.34,192.49Z"/><path class="cls-10" d="M199.31,78a1.74,1.74,0,0,1-2.41,1.47,2.92,2.92,0,0,1-2.15-2.77,1.73,1.73,0,0,1,2.4-1.46A2.93,2.93,0,0,1,199.31,78Z"/><path class="cls-10" d="M283.55,171.05a1.29,1.29,0,0,1-1.78,1.09,2.15,2.15,0,0,1-1.64-2,1.3,1.3,0,0,1,1.79-1.08A2.14,2.14,0,0,1,283.55,171.05Z"/><path class="cls-10" d="M289.23,3.39a1.12,1.12,0,0,1-1.58,1,2.1,2.1,0,0,1-1.51-1.88,1.12,1.12,0,0,1,1.59-1A2.08,2.08,0,0,1,289.23,3.39Z"/><path class="cls-10" d="M241.94,66.84a1.25,1.25,0,0,1-1.74,1.07,2.16,2.16,0,0,1-1.59-2,1.25,1.25,0,0,1,1.74-1.07A2.16,2.16,0,0,1,241.94,66.84Z"/><path class="cls-10" d="M351,189.38c0,.73-.72,1.16-1.55,1A1.9,1.9,0,0,1,348,188.6c0-.74.72-1.17,1.56-1A1.93,1.93,0,0,1,351,189.38Z"/><path class="cls-10" d="M333.19,32.18c-3-.67-3,0-3.4,2-.22-2.34-.21-2.75-3.29-4,2.57.52,3.2.83,3.4-2C330.13,31.28,330.65,31.09,333.19,32.18Z"/><path class="cls-10" d="M247.43,165c-4.53-.9-4.55.13-5.24,3.13-.19-3.46-.16-4.08-4.73-5.78,3.85.69,4.77,1.14,5.23-3C242.87,163.73,243.66,163.42,247.43,165Z"/><path class="cls-10" d="M202,39.28c-2.47-.54-2.48,0-2.85,1.71-.11-1.94-.09-2.29-2.57-3.28,2.09.42,2.59.68,2.84-1.64C199.48,38.55,199.91,38.39,202,39.28Z"/><path class="cls-10" d="M208.85,228.69c-2.31-.44-2.33.08-2.7,1.6-.08-1.75-.05-2.06-2.37-2.89,1.95.32,2.42.55,2.69-1.56C206.53,228.09,206.93,227.93,208.85,228.69Z"/><path class="cls-10" d="M279.16,198.34c-.9-.17-.9,0-1,.62,0-.68,0-.8-.94-1.13.76.13.95.22,1-.59C278.25,198.11,278.41,198,279.16,198.34Z"/><path class="cls-10" d="M218.88,87c-.87-.18-.88,0-1,.61,0-.68,0-.8-.91-1.15.74.15.92.24,1-.58C218,86.7,218.15,86.64,218.88,87Z"/><path class="cls-10" d="M224.05,23.5c-.86-.19-.86,0-1,.59,0-.68,0-.79-.91-1.15.73.15.91.24,1-.57C223.18,23.24,223.33,23.18,224.05,23.5Z"/><path class="cls-10" d="M236.55,262.08c-3.64-.67-3.66.15-4.25,2.53-.12-2.74-.09-3.22-3.75-4.52,3.09.5,3.83.85,4.24-2.43C232.89,261.15,233.53,260.9,236.55,262.08Z"/><path class="cls-10" d="M299.62,112.13c-4.48-.93-4.48.09-5.11,3.06-.25-3.43-.23-4-4.76-5.76,3.8.71,4.72,1.16,5.1-2.94C295.11,110.88,295.88,110.58,299.62,112.13Z"/><path class="cls-10" d="M319.26,203.92c-2.69-.51-2.69.09-3.07,1.84-.14-2-.13-2.37-2.85-3.35,2.28.39,2.83.65,3.07-1.77C316.56,203.22,317,203,319.26,203.92Z"/><path class="cls-10" d="M249,6.13c-2.77-.62-2.77,0-3.15,1.9-.16-2.18-.14-2.56-2.94-3.7,2.35.49,2.91.78,3.15-1.81C246.21,5.3,246.68,5.12,249,6.13Z"/><path class="cls-10" d="M204.92,104a1.8,1.8,0,0,1-2.49,1.52,3,3,0,0,1-2.23-2.84,1.8,1.8,0,0,1,2.49-1.52A3,3,0,0,1,204.92,104Z"/><path class="cls-10" d="M223.68,192.14a1.21,1.21,0,0,1-1.64,1,1.9,1.9,0,0,1-1.44-1.8,1.2,1.2,0,0,1,1.63-1A1.9,1.9,0,0,1,223.68,192.14Z"/><path class="cls-10" d="M198.27,154.47a2.16,2.16,0,0,1-3,1.8,3.43,3.43,0,0,1-2.59-3.29,2.14,2.14,0,0,1,2.94-1.79A3.45,3.45,0,0,1,198.27,154.47Z"/><path class="cls-10" d="M221.11,207.28a1.43,1.43,0,0,1-1.94,1.18,2.23,2.23,0,0,1-1.71-2.13,1.42,1.42,0,0,1,1.94-1.18A2.24,2.24,0,0,1,221.11,207.28Z"/><path class="cls-10" d="M214.89,134a.84.84,0,0,1-1.17.71,1.38,1.38,0,0,1-1-1.31.85.85,0,0,1,1.16-.71A1.38,1.38,0,0,1,214.89,134Z"/><path class="cls-10" d="M337.59,99.4c0,.9-.84,1.4-1.83,1.13A2.32,2.32,0,0,1,334,98.42a1.3,1.3,0,0,1,1.82-1.12A2.35,2.35,0,0,1,337.59,99.4Z"/><path class="cls-10" d="M240.72,108a1.27,1.27,0,0,1-1.76,1.07,2.13,2.13,0,0,1-1.6-2,1.26,1.26,0,0,1,1.76-1.08A2.14,2.14,0,0,1,240.72,108Z"/><path class="cls-10" d="M233.87,55.23a1,1,0,0,1-1.42.86,1.77,1.77,0,0,1-1.3-1.64,1,1,0,0,1,1.42-.87A1.79,1.79,0,0,1,233.87,55.23Z"/><path class="cls-10" d="M318.71,60c0,.56-.53.88-1.16.7a1.5,1.5,0,0,1-1.1-1.34c0-.57.54-.88,1.16-.7A1.49,1.49,0,0,1,318.71,60Z"/><path class="cls-10" d="M283.15,87.52A2.38,2.38,0,0,1,280.86,86a1.28,1.28,0,0,1,1.06-1.84,2.38,2.38,0,0,1,2.28,1.53A1.28,1.28,0,0,1,283.15,87.52Z"/><path class="cls-10" d="M292.86,80.65a1.5,1.5,0,0,1-1.45-1,.81.81,0,0,1,.66-1.17,1.53,1.53,0,0,1,1.45,1A.8.8,0,0,1,292.86,80.65Z"/><path class="cls-10" d="M295.14,133.25a2.06,2.06,0,0,1-2.56-.58,1.54,1.54,0,0,1,0-2.32,2,2,0,0,1,2.53.57A1.54,1.54,0,0,1,295.14,133.25Z"/><path class="cls-10" d="M329.54,136a1.31,1.31,0,0,1-1.62-.36,1,1,0,0,1,0-1.48,1.32,1.32,0,0,1,1.63.37A1,1,0,0,1,329.54,136Z"/><path class="cls-10" d="M283.21,40.33a1.26,1.26,0,0,1-1.58-.39,1,1,0,0,1,0-1.47,1.26,1.26,0,0,1,1.58.39C283.63,39.37,283.65,40,283.21,40.33Z"/><path class="cls-10" d="M320.3,231.52a1.35,1.35,0,0,1-1.66-.35,1,1,0,0,1,0-1.48,1.34,1.34,0,0,1,1.66.35A1,1,0,0,1,320.3,231.52Z"/><path class="cls-10" d="M323.32,183.24a1.35,1.35,0,0,1-1.86,1.14,2.24,2.24,0,0,1-1.72-2.06c0-.89.86-1.39,1.85-1.13A2.24,2.24,0,0,1,323.32,183.24Z"/><path class="cls-10" d="M310.6,272.11a1.32,1.32,0,0,1-1.8,1.09,2.06,2.06,0,0,1-1.64-1.93,1.32,1.32,0,0,1,1.8-1.08A2.08,2.08,0,0,1,310.6,272.11Z"/><path class="cls-10" d="M278.22,221.27a1.58,1.58,0,0,1-2.15,1.31,2.5,2.5,0,0,1-1.94-2.35,1.57,1.57,0,0,1,2.14-1.32A2.52,2.52,0,0,1,278.22,221.27Z"/><path class="cls-10" d="M235.73,230.42a1.3,1.3,0,0,1-1.76,1.07,2,2,0,0,1-1.56-1.91,1.31,1.31,0,0,1,1.76-1.08A2,2,0,0,1,235.73,230.42Z"/><path class="cls-10" d="M276.2,274.33a.92.92,0,0,1-1.24.76,1.41,1.41,0,0,1-1.11-1.34c0-.58.58-.91,1.24-.75A1.4,1.4,0,0,1,276.2,274.33Z"/><path class="cls-10" d="M327.49,227.67a1.17,1.17,0,0,1-.43,1.84,1.94,1.94,0,0,1-2.15-.85,1.17,1.17,0,0,1,.42-1.83A1.92,1.92,0,0,1,327.49,227.67Z"/><path class="cls-10" d="M302.21,268.89a1,1,0,0,1-.39,1.63,1.7,1.7,0,0,1-1.9-.74,1,1,0,0,1,.38-1.62A1.69,1.69,0,0,1,302.21,268.89Z"/><path class="cls-10" d="M346.72,253.6c.84,1.28.52,2.7-.72,3.18a3.38,3.38,0,0,1-3.77-1.44c-.84-1.28-.51-2.71.73-3.19A3.36,3.36,0,0,1,346.72,253.6Z"/><path class="cls-10" d="M51.28,140.83a1.45,1.45,0,0,1-2,1.09,2.13,2.13,0,0,1-1.52-2.19,1.45,1.45,0,0,1,2-1.1A2.14,2.14,0,0,1,51.28,140.83Z"/><path class="cls-10" d="M103.17,173.34a1.39,1.39,0,0,1-1.9,1,2,2,0,0,1-1.49-2.08,1.38,1.38,0,0,1,1.91-1.05A2,2,0,0,1,103.17,173.34Z"/><path class="cls-10" d="M42.27,242.48a1.55,1.55,0,0,1-2.09,1.15,2.14,2.14,0,0,1-1.57-2.23,1.55,1.55,0,0,1,2.09-1.15A2.14,2.14,0,0,1,42.27,242.48Z"/><path class="cls-10" d="M333.71,280.5a2,2,0,0,1-.74,3.19,3.39,3.39,0,0,1-3.79-1.43,2,2,0,0,1,.76-3.2A3.35,3.35,0,0,1,333.71,280.5Z"/><path class="cls-10" d="M149.65,205.41c-3.36-.77-3.43,0-4.1,2.2,0-2.57.09-3-3.26-4.39,2.86.6,3.53.95,4.09-2.12C146.29,204.39,146.9,204.18,149.65,205.41Z"/><path class="cls-10" d="M.23,211.74c-2.72-.63-2.8,0-3.41,1.83.1-2.13.16-2.5-2.53-3.63,2.31.49,2.85.78,3.4-1.76C-2.48,210.9-2,210.73.23,211.74Z"/><path class="cls-10" d="M13.86,264.32c-1-.22-1,0-1.21.65,0-.75.06-.88-.9-1.27.82.17,1,.27,1.21-.63C12.9,264,13.07,264,13.86,264.32Z"/><path class="cls-10" d="M268.2,275.12c-1-.21-1,0-1.17.63,0-.72,0-.85-1-1.23.83.16,1,.26,1.17-.6C267.22,274.84,267.39,274.78,268.2,275.12Z"/><path class="cls-10" d="M27,194.66c-1-.22-1,0-1.19.64,0-.74,0-.87-.9-1.27.81.17,1,.28,1.19-.61C26.08,194.37,26.26,194.31,27,194.66Z"/><path class="cls-10" d="M345.75,284.15c-1-.2-1,0-1.16.63,0-.72,0-.85-1-1.22.83.16,1,.26,1.16-.6C344.76,283.88,344.94,283.82,345.75,284.15Z"/><path class="cls-10" d="M102.24,292.86c-5-1.07-5.09.05-6.15,3.31.12-3.77.22-4.44-4.71-6.38,4.22.82,5.2,1.33,6.12-3.18C97.27,291.44,98.18,291.11,102.24,292.86Z"/><path class="cls-10" d="M220.93,251.59c-4.94-1.08-5,0-6,3.21,0-3.7.08-4.36-4.86-6.29,4.2.83,5.19,1.33,6-3.09C216,250.16,216.87,249.85,220.93,251.59Z"/><path class="cls-10" d="M57.26,175.89c-3-.72-3.13,0-3.78,2,.07-2.39.13-2.81-2.9-4.09,2.6.56,3.2.89,3.77-2C54.21,174.94,54.77,174.75,57.26,175.89Z"/><path class="cls-10" d="M331.52,305c-5-1-5.08,0-6,3.21-.09-3.66,0-4.31-5.05-6.19,4.25.79,5.27,1.28,5.94-3.09C326.49,303.66,327.38,303.34,331.52,305Z"/><path class="cls-10" d="M289.19,239.3c-4.95-1.08-5,0-5.89,3.17-.07-3.67,0-4.32-4.95-6.25,4.19.84,5.18,1.34,5.87-3C284.23,237.87,285.11,237.57,289.19,239.3Z"/><path class="cls-10" d="M262.19,249.57a1.58,1.58,0,0,1-2.18,1.21,2.4,2.4,0,0,1-1.82-2.34,1.58,1.58,0,0,1,2.19-1.21A2.37,2.37,0,0,1,262.19,249.57Z"/><path class="cls-10" d="M40.73,158.37A2.74,2.74,0,0,1,37,160.44a4,4,0,0,1-2.85-4.12,2.74,2.74,0,0,1,3.76-2.06A4,4,0,0,1,40.73,158.37Z"/><path class="cls-10" d="M218.73,221.85c-.17,1.52-1.69,2.35-3.39,1.86a3.71,3.71,0,0,1-2.77-3.65c.17-1.52,1.7-2.36,3.39-1.86A3.7,3.7,0,0,1,218.73,221.85Z"/><path class="cls-10" d="M226.46,272.57a1.72,1.72,0,0,1-2.35,1.3,2.51,2.51,0,0,1-1.9-2.49,1.71,1.71,0,0,1,2.34-1.29A2.5,2.5,0,0,1,226.46,272.57Z"/><path class="cls-10" d="M205,280.58a1.24,1.24,0,0,1-1.69.93,1.8,1.8,0,0,1-1.35-1.78,1.24,1.24,0,0,1,1.68-.93A1.79,1.79,0,0,1,205,280.58Z"/><path class="cls-10" d="M277.63,297.51a1,1,0,0,1-1.39.75,1.48,1.48,0,0,1-1.15-1.44,1,1,0,0,1,1.39-.76A1.48,1.48,0,0,1,277.63,297.51Z"/><path class="cls-10" d="M146.72,279.26a1.63,1.63,0,0,1-2.21,1.22,2.28,2.28,0,0,1-1.72-2.33,1.62,1.62,0,0,1,2.2-1.21A2.28,2.28,0,0,1,146.72,279.26Z"/><path class="cls-10" d="M36.1,287.7A1.59,1.59,0,0,1,34,288.87a2.13,2.13,0,0,1-1.58-2.23,1.58,1.58,0,0,1,2.12-1.16A2.1,2.1,0,0,1,36.1,287.7Z"/><path class="cls-10" d="M34.48,229.62a1.26,1.26,0,0,1-1.7.94,1.75,1.75,0,0,1-1.28-1.82,1.27,1.27,0,0,1,1.7-.94A1.74,1.74,0,0,1,34.48,229.62Z"/><path class="cls-10" d="M130,235.8a1,1,0,0,1-1.39.75,1.46,1.46,0,0,1-1.09-1.48,1,1,0,0,1,1.39-.76A1.46,1.46,0,0,1,130,235.8Z"/><path class="cls-10" d="M86.48,265.64a2.37,2.37,0,0,1-2.41-1.71,1.54,1.54,0,0,1,1.42-2,2.39,2.39,0,0,1,2.4,1.71A1.53,1.53,0,0,1,86.48,265.64Z"/><path class="cls-10" d="M98.27,258.2a1.51,1.51,0,0,1-1.52-1.09,1,1,0,0,1,.89-1.28,1.55,1.55,0,0,1,1.53,1.09A1,1,0,0,1,98.27,258.2Z"/><path class="cls-10" d="M92.06,213.82a1.38,1.38,0,0,1-1.74-.44,1.08,1.08,0,0,1,.13-1.62,1.39,1.39,0,0,1,1.75.44A1.07,1.07,0,0,1,92.06,213.82Z"/><path class="cls-10" d="M247.86,206.49a1.43,1.43,0,0,1-1.75-.44,1,1,0,0,1,.07-1.59,1.44,1.44,0,0,1,1.76.44A1,1,0,0,1,247.86,206.49Z"/><path class="cls-10" d="M170.64,249.5a1.42,1.42,0,0,1-1.76-.43,1.06,1.06,0,0,1,.11-1.61,1.42,1.42,0,0,1,1.76.43A1.06,1.06,0,0,1,170.64,249.5Z"/><path class="cls-10" d="M183.93,200.12a1.42,1.42,0,0,1-1.75-.45,1,1,0,0,1,.1-1.59,1.4,1.4,0,0,1,1.75.44A1.06,1.06,0,0,1,183.93,200.12Z"/><path class="cls-10" d="M65.38,163.55c.12-.08-.13-.6-.57-1.18s-.9-1-1-.9.14.62.57,1.18S65.25,163.63,65.38,163.55Z"/><path class="cls-10" d="M208.26,17.65c1.51,2.35,1.07,5-1,5.9s-5-.24-6.51-2.59-1-5,1-5.91S206.75,15.31,208.26,17.65Z"/><path class="cls-10" d="M208.23,112.15c-.1,1.77-1.72,2.79-3.65,2.27a4.39,4.39,0,0,1-3.29-4.15c.1-1.77,1.72-2.78,3.63-2.27A4.43,4.43,0,0,1,208.23,112.15Z"/><path class="cls-10" d="M213.27,180.15c-.1,1.78-1.76,2.82-3.72,2.31a4.33,4.33,0,0,1-3.32-4.13c.1-1.77,1.76-2.81,3.7-2.31A4.36,4.36,0,0,1,213.27,180.15Z"/><path class="cls-10" d="M217.42,271.27c-.12,1.79-1.82,2.86-3.82,2.37a4.26,4.26,0,0,1-3.37-4.1c.12-1.78,1.82-2.84,3.81-2.36A4.27,4.27,0,0,1,217.42,271.27Z"/><path class="cls-10" d="M151.21,204.42c-.14,1.8-1.82,2.85-3.79,2.35a4.28,4.28,0,0,1-3.28-4.16c.14-1.79,1.83-2.84,3.78-2.34A4.26,4.26,0,0,1,151.21,204.42Z"/><path class="cls-10" d="M59,93.36c-.24,2.69-2.75,4.26-5.59,3.47a6.45,6.45,0,0,1-4.73-6.35c.25-2.72,2.75-4.28,5.6-3.48A6.46,6.46,0,0,1,59,93.36Z"/><path class="cls-10" d="M112.67,301.21c-4.55-.79-4.61.25-5.42,3.27-.06-3.46,0-4.07-4.56-5.66,3.86.58,4.78,1,5.4-3.16C108.11,300.1,108.92,299.77,112.67,301.21Z"/><path class="cls-10" d="M90.31,268.2c-1.77-.32-1.79.09-2.11,1.27,0-1.36,0-1.6-1.77-2.23,1.5.24,1.86.41,2.11-1.23C88.54,267.75,88.85,267.62,90.31,268.2Z"/><path class="cls-10" d="M97.21,8.64c-1.67-.38-1.68,0-1.95,1.19-.05-1.35,0-1.59-1.71-2.27,1.41.29,1.75.46,2-1.15C95.54,8.14,95.83,8,97.21,8.64Z"/><path class="cls-10" d="M228.87,24.23c-1.68-.36-1.68,0-1.91,1.17-.1-1.32-.09-1.55-1.78-2.23,1.42.28,1.76.46,1.91-1.12C227.18,23.74,227.47,23.63,228.87,24.23Z"/><path class="cls-10" d="M23,202.3c-8.85-1.69-9,.39-10.67,6.46,0-7,.11-8.21-8.72-11.51,7.51,1.27,9.28,2.15,10.63-6.22C14.11,200,15.69,199.31,23,202.3Z"/><path class="cls-10" d="M206.38,63c-8.61-1.82-8.64.18-9.92,6-.39-6.76-.33-8-9-11.35,7.29,1.4,9.05,2.28,9.88-5.8C197.72,60.52,199.21,59.92,206.38,63Z"/><path class="cls-10" d="M31.53,262.41a3,3,0,0,1-4,2.49,4.23,4.23,0,0,1-3.27-4.3,3.06,3.06,0,0,1,4-2.46A4.22,4.22,0,0,1,31.53,262.41Z"/><path class="cls-10" d="M26.43,4.56A2.88,2.88,0,0,1,22.49,7a4.68,4.68,0,0,1-3.3-4.61A2.88,2.88,0,0,1,23.12,0,4.68,4.68,0,0,1,26.43,4.56Z"/><path class="cls-10" d="M114.32,50.05A1.69,1.69,0,0,1,112,51.48a2.8,2.8,0,0,1-2-2.67,1.69,1.69,0,0,1,2.31-1.44A2.77,2.77,0,0,1,114.32,50.05Z"/><path class="cls-10" d="M102.91,147.94a1.77,1.77,0,0,1-2.39,1.47,2.72,2.72,0,0,1-2-2.65,1.77,1.77,0,0,1,2.39-1.48A2.72,2.72,0,0,1,102.91,147.94Z"/><path class="cls-10" d="M154.18,274.81c-.15,1.77-1.84,2.82-3.8,2.35a4.15,4.15,0,0,1-3.26-4.06c.15-1.77,1.84-2.82,3.79-2.34A4.13,4.13,0,0,1,154.18,274.81Z"/><path class="cls-10" d="M22.17,19a2.62,2.62,0,0,1-3.64,2.1,4.16,4.16,0,0,1-2.87-4.2,2.61,2.61,0,0,1,3.63-2.1A4.17,4.17,0,0,1,22.17,19Z"/><path class="cls-10" d="M30.06,144c-8.46-1.92-8.64.06-10.39,5.84.14-6.7.3-7.88-8.11-11.36,7.18,1.48,8.86,2.39,10.34-5.61C21.6,141.39,23.14,140.82,30.06,144Z"/></g></g><polygon class="cls-3" points="-259.33 316.05 695.97 383.15 577.74 -86.77 -266.9 -214.76 -259.33 316.05"/><g class="cls-7"><g class="cls-11"><path class="cls-12" d="M651.1,201c66.07-7.77-198.24-420-363.27-55.78C69.45,538.79-53.64-133.23,139.4-57.2,338.14,15.71,426-38.77,292.28-151.35L460.12-126S434.65-114.8,616.92,39.78C810.17,188.31,651.1,201,651.1,201Z"/><path class="cls-13" d="M680.71,255.4C540.61-25.76,237.13,148.52,233.32,370.74c-3.79,113.2-281.28-7-198-87.68,79.75-78.77-250.71-70.12-137-179.48C1.37,2-61.2-372.75-114-106.7c-110.5,441-178.67-441.15-182.57-98.2C-298.34-117.07,6.11,464-418,172.26-491.65,114.64-331.14,390-331.14,390l87.77-68.19s169.42-70.36,183-8C-46.66,376,201.84,474.7,201.84,474.7l124.52-95.88s190.42-212.64,362.25-92Z"/></g></g></g><path class="cls-15" d="M241.86,218.13c.49-4.21-2.88-7.31-7.49-6.88L92.21,224.41c-4.61.43-7.81,3.71-7.12,7.28l13.47,69.66a6.81,6.81,0,0,0,.68,1.91H231.41a9.16,9.16,0,0,0,.94-3.06Z"/><path class="cls-10" d="M227.94,287.16v-31c0-19.6-16.4-35.64-36.45-35.64h-51.7c-20,0-36.44,16-36.44,35.64v31a34.7,34.7,0,0,0,4,16.1H224A34.71,34.71,0,0,0,227.94,287.16Z"/><path class="cls-16" d="M130.38,221.62c2.57,2,10.48,4.19,13.5,4.9,1.43.34,38,1.57,47.22-1.07,2.1-.59,7.93-2.56,9.8-3.83-.48-.14-2.35-1.14-2.35-1.14-1.14.12,1.12.27,0,0-.66.27-7.57,1.37-8.27,1.5-10.54,1.94-31.69.79-47.22-.07a75.72,75.72,0,0,1-9.15-1.43c-1.48.19.31,0-1.18,0"/><path class="cls-17" d="M229.77,164.11c.8-32.68-27.42-59.9-63-60.73a67.17,67.17,0,0,0-46.76,17c-9,6.77-14,15.24-17,24.31-4.23,12.7-4,38,.39,50.69,4,11.31,14.28,22.17,26.1,25.16,16.27,4.1,55.29,3.81,71.49-.54,11.78-3.15,21.94-14.17,25.72-25.53,2.37-7.13,3.34-18.24,3-28.85"/><path class="cls-18" d="M221,154.8c-3.42-9-13.71-18.68-23.91-21.11-17.81-4.27-53-4.15-68.31,1.83-13,5.08-17.43,10.6-21,18.45a36,36,0,0,0-2.16,6.64,1.24,1.24,0,0,0-.47-.06c-2,.07-3.64,3.95-3.77,8.65-.13,4.26,1.06,7.74,2.73,8.3a32.11,32.11,0,0,0,2.41,11.66c3.68,7.8,12.77,16.78,23.82,18.82,15.2,2.8,51.67,2.53,66.83-.5,11-2.2,20.53-9.83,24.08-17.68a23.28,23.28,0,0,0,1.31-3.81"/><path class="cls-18" d="M229.71,165.61c.38,10.61-3.46,25-6.48,31.87-3.52,8.05-12.9,15.24-24.68,18.4-16.2,4.34-56.83,2.51-73.09-1.61-16.6-4.2-25.64-31.64-25.64-39.79,0,31.05,19.78,43.54,29.72,46.05,16.27,4.1,55.29,3.81,71.49-.54,11.78-3.15,21.94-14.17,25.72-25.53,2.37-7.13,3.34-18.24,3-28.85"/><path class="cls-19" d="M106.45,159.37c3.56-7.86,8.81-15.42,21.8-20.51,15.27-6,50.51-6.09,68.32-1.82,10.2,2.44,21.79,13.62,25.22,22.59,0,0,3.29,5.84,4,18.28-.22,27.73-18.13,30.72-29.15,32.92-15.15,3-51.63,3.3-66.82.5-11-2-20.14-11-23.82-18.81-4.1-8.72-2.71-26.42,1.25-35.2"/><path class="cls-20" d="M101.47,158.46c1.94-.07,3.41,3.69,3.27,8.38s-1.82,8.58-3.77,8.66-3.41-3.68-3.27-8.38,1.83-8.58,3.77-8.66"/><path class="cls-19" d="M100.58,158.77c1.77-.06,3.09,3.55,3,8.07s-1.66,8.24-3.43,8.31-3.08-3.55-2.95-8.07,1.67-8.24,3.43-8.31"/><path class="cls-20" d="M227.37,158.46c-1.94-.07-3.41,3.69-3.27,8.38s1.82,8.58,3.77,8.66,3.41-3.68,3.27-8.38-1.83-8.58-3.77-8.66"/><path class="cls-19" d="M228.26,158.77c-1.77-.06-3.09,3.55-2.95,8.07s1.66,8.24,3.43,8.31,3.08-3.55,2.95-8.07-1.67-8.24-3.43-8.31"/><path class="cls-21" d="M217.69,157.07c-7.9-15.87-28.91-21.9-53.92-21.11-20.1.64-38.1,3.79-47.8,15.42a35.51,35.51,0,0,0-6.23,9.52c-3.78,8.27-3.57,25.14.3,33.33,3.46,7.33,13.31,15.37,23.76,17.26,14.38,2.6,48.91,2.26,63.26-.63,10.43-2.1,19.46-9.29,22.84-16.68,3.78-8.27,3-24.58-.17-32.92Z"/><path class="cls-22" d="M220,163.6c-10.59-9.82-27.38-15.91-46.09-15.38-20.07.58-37.47,8.65-47.12,20.33a35.51,35.51,0,0,0-6.19,9.56c-2.9,6.43-3.39,18-1.67,26.79a35.16,35.16,0,0,0,14.71,6.83c14.36,2.67,48.84,2.44,63.16-.42,10.42-2.08,19.41-9.29,22.76-16.73,3.45-7.64,3-22.16.44-31"/><g class="cls-23"><g class="cls-24"><path class="cls-25" d="M185.38,144.64S129,135.12,117.2,161.69"/></g></g><g class="cls-23"><g class="cls-26"><path class="cls-17" d="M113.57,174.45a5.29,5.29,0,0,0-3.59,6.63,5.44,5.44,0,0,0,6.77,3.51,5.29,5.29,0,0,0,3.6-6.62,5.46,5.46,0,0,0-6.78-3.52"/></g></g><rect class="cls-27" x="21.07" y="298.66" width="285.62" height="4.6"/><path class="cls-20" d="M141.8,260.49c1.14-3.56,2.9-8.15,6.58-9.16,6.37-1.76,24.84-2.76,31.64-1.38,4.4.89,7.64,5.52,9.16,9.65,1.58,4.3,1.62,12.1.32,16.17-1.16,3.64-4.31,7.38-8.1,8.24-6.5,1.47-24,1.75-30.86.58-4.26-.73-8.94-3.62-10.39-7.61s.28-12.21,1.65-16.49"/><path class="cls-28" d="M140.49,258.57c1.17-3.64,4.31-7.38,8.11-8.24,6.49-1.47,24.31-1.81,30.85-.58,3.83.71,7.12,4.33,8.43,7.93,1.45,4,1.61,12.1.31,16.16-1.16,3.64-4.3,7.38-8.1,8.24-6.49,1.47-24.31,1.81-30.85.58-3.83-.71-7.12-4.33-8.43-7.92-1.45-4-1.61-12.1-.32-16.17"/><path class="cls-20" d="M148,258.68a4.57,4.57,0,0,1,2.8-3.21,36.21,36.21,0,0,1,10.7-.2,4.59,4.59,0,0,1,2.92,3.1,14,14,0,0,1,.12,6.3,4.55,4.55,0,0,1-2.8,3.21,36.14,36.14,0,0,1-10.69.2,4.55,4.55,0,0,1-2.92-3.1,14.11,14.11,0,0,1-.13-6.3"/><path class="cls-20" d="M169.24,261.16A2.63,2.63,0,0,1,171,259.4a25.35,25.35,0,0,1,6.57-.12,2.59,2.59,0,0,1,1.79,1.69,6.8,6.8,0,0,1,.07,3.44,2.6,2.6,0,0,1-1.72,1.75,25,25,0,0,1-6.58.13,2.63,2.63,0,0,1-1.79-1.69,6.91,6.91,0,0,1-.07-3.44"/><path class="cls-20" d="M148.74,273c.83-.78,3-1.59,5.64-1.81,4.48-.37,16.72-.6,21.2-.4,2.63.12,4.85.85,5.71,1.6a2.4,2.4,0,0,1,.07,3.41c-.83.77-3,1.59-5.64,1.8-4.48.38-16.72.61-21.2.41-2.62-.12-4.85-.86-5.71-1.6a2.4,2.4,0,0,1-.07-3.41"/><rect class="cls-29" x="103.35" y="258.42" width="124.59" height="9.2"/><rect class="cls-30" x="108.05" y="225.07" width="115.19" height="73.59" rx="5.32"/><rect class="cls-31" x="108.05" y="227.37" width="114.01" height="71.29" rx="5.32"/><rect class="cls-32" x="151.54" y="248.07" width="28.21" height="27.59" rx="12"/><path class="cls-30" d="M164.68,258.57l-.29.27a.27.27,0,0,1,0,.12.32.32,0,0,1-.31.32l-.11,0a4.3,4.3,0,0,0-1.08,3.66,12.07,12.07,0,0,1,3.7-.24l.25,0a.32.32,0,0,1,.6.08,9.46,9.46,0,0,1,2.66.85l1.09-1.07a1,1,0,0,0,0-1.4l-4.16-4.08A11.35,11.35,0,0,0,164.68,258.57Z"/><path class="cls-30" d="M167.34,266l.3,0,2.33-2.28a9.18,9.18,0,0,0-2.54-.79.3.3,0,0,1-.27.15.31.31,0,0,1-.31-.24l-.25,0a11.51,11.51,0,0,0-3.62.23,3.4,3.4,0,0,0,1.23,1.68.22.22,0,0,1,.16-.05.3.3,0,0,1,.32.3s0,.05,0,.07A8.19,8.19,0,0,0,167.34,266Z"/><path class="cls-30" d="M162.71,263a4.52,4.52,0,0,1,1.13-3.83.35.35,0,0,1-.06-.17.31.31,0,0,1,.32-.31.32.32,0,0,1,.14,0l.3-.28h0a11.35,11.35,0,0,1,2.36-1.47l-.82-.81a1.05,1.05,0,0,0-1.44,0l-5.14,5a1,1,0,0,0,0,1.4l1.13,1.11A12.2,12.2,0,0,1,162.71,263Z"/><path class="cls-30" d="M167.31,266.24h0a8.32,8.32,0,0,1-2.73-.95.27.27,0,0,1-.2.07.31.31,0,0,1-.32-.3.3.3,0,0,1,0-.1,3.65,3.65,0,0,1-1.31-1.79,12.42,12.42,0,0,0-2,.66l3.85,3.77a1,1,0,0,0,1.44,0l1.37-1.34Z"/><path class="cls-15" d="M104.52,169.89c0,12.64-2.65,14.94-8.81,14.94s-11.17-6.69-11.17-14.94,5-14.95,11.17-14.95S104.52,156.09,104.52,169.89Z"/><path class="cls-33" d="M104.52,169.89c0,12.64-2.65,14.94-8.81,14.94,2.93-5.75-.59-5.54-.59-13.8s4.7-10.34.59-16.09C101.87,154.94,104.52,156.09,104.52,169.89Z"/><path class="cls-15" d="M223.23,169.89c0,12.64,2.65,14.94,8.82,14.94s11.17-6.69,11.17-14.94-5-14.95-11.17-14.95S223.23,156.09,223.23,169.89Z"/><path class="cls-33" d="M223.23,169.89c0,12.64,2.65,14.94,8.82,14.94-2.94-5.75.59-5.54.59-13.8s-4.7-10.34-.59-16.09C225.88,154.94,223.23,156.09,223.23,169.89Z"/><path class="cls-15" d="M95.12,154.94c0-72.44,135.17-82.79,138.1,0-.58,5.75-2.93,2.3-2.93,2.3,2.35-67.84-123.42-82.79-131.65-1.15"/><path class="cls-33" d="M225.3,182.05S215,200.93,182.1,199.78v3.45s37.61-.08,45.84-19"/><ellipse class="cls-33" cx="175.04" cy="202.08" rx="8.23" ry="4.6"/><path class="cls-15" d="M226.76,182.53s-11.75,21.7-44.66,20.7h0s37.61,0,45.84-19.55"/><ellipse class="cls-15" cx="176.22" cy="203.23" rx="6.17" ry="3.45"/><path class="cls-34" d="M179.74,177.93s10.58-13.79,24.69,0"/><path class="cls-34" d="M126.85,177.93s10.58-13.79,24.69,0"/><polygon class="cls-10" points="107 18.52 96.75 28.42 91.79 23.63 102.03 13.72 107 18.52"/><polygon class="cls-10" points="89.18 33.84 80.04 42.68 75.62 38.4 84.76 29.56 89.18 33.84"/><path class="cls-10" d="M99.2,32.56a4.19,4.19,0,0,0-4,1,3.85,3.85,0,0,0-1.06,3.83Z"/><path class="cls-35" d="M225.76,254.65s1.26.28,3.45.6"/><path class="cls-36" d="M236.17,256c22.31,1.65,72-2.16,62.26-71C286,96.67,222.86,152.08,251,166.64s34-34.18-11.14-48.7C207.91,107.68,217,99.4,225.12,95.43"/><path class="cls-35" d="M228.34,94c1.92-.75,3.31-1.14,3.31-1.14"/><rect class="cls-4" x="239.47" y="73.12" width="9.78" height="16.42" rx="1.24" transform="translate(139.47 -153.88) rotate(47.56)"/><rect class="cls-37" x="236.15" y="80.01" width="16.42" height="2.64" transform="translate(139.47 -153.88) rotate(47.56)"/><rect class="cls-37" x="233.04" y="81.5" width="19.37" height="2.64" transform="translate(477.73 -19.86) rotate(137.56)"/><rect class="cls-10" x="246.06" y="90.38" width="23.61" height="11.44" transform="translate(154.76 -159.04) rotate(47.56)"/><rect class="cls-10" x="219.04" y="60.84" width="23.61" height="11.44" transform="translate(124.18 -148.72) rotate(47.56)"/><path class="cls-10" d="M238.16,95.77a7.46,7.46,0,0,0-8.74-9.56Z"/><path class="cls-38" d="M95.79,31.29l-2.93,2.83a.62.62,0,0,1-.86,0L86.51,28.8a.57.57,0,0,1,0-.83l2.92-2.83a.62.62,0,0,1,.86,0l5.5,5.32A.57.57,0,0,1,95.79,31.29Z"/><polygon class="cls-37" points="95.8 26.09 87.5 34.12 86.16 32.83 94.46 24.8 95.8 26.09"/><polygon class="cls-37" points="95.11 34.57 87 26.72 88.1 25.65 96.22 33.5 95.11 34.57"/></svg>