<svg id="Capa_1" data-name="Capa 1" xmlns="http://www.w3.org/2000/svg" viewBox="0 0 119 29"><defs><style>.cls-1{font-size:18.44px;font-family:Montserrat-Bold, Montserrat;font-weight:700;}.cls-1,.cls-4{fill:#201932;}.cls-2{letter-spacing:0.01em;}.cls-3{fill:#662d91;}</style></defs><title>Mesa de trabajo 28</title><text class="cls-1" transform="translate(32.84 21.14)">GA<tspan class="cls-2" x="28.34" y="0">L</tspan><tspan x="39.59" y="0">ASIX</tspan></text><path class="cls-3" d="M13.32,7.51c-.22.19-.42.39-.61.59a1.07,1.07,0,0,1,.06.27.68.68,0,0,1-.66.68.54.54,0,0,1-.22,0A9.47,9.47,0,0,0,9.61,17a24.48,24.48,0,0,1,7.81-.52l.52.06a.65.65,0,0,1,.6-.38.68.68,0,0,1,.67.56,19.52,19.52,0,0,1,5.61,1.83l2.31-2.32a2.15,2.15,0,0,0,0-3L18.34,4.31A23.76,23.76,0,0,0,13.32,7.51Z"/><path class="cls-4" d="M18.94,23.7l.63.08,4.92-5a19.08,19.08,0,0,0-5.36-1.72.7.7,0,0,1-.57.34.68.68,0,0,1-.66-.52l-.52-.05a24,24,0,0,0-7.66.5A7.36,7.36,0,0,0,12.32,21a.61.61,0,0,1,.35-.11.67.67,0,0,1,.68.66.76.76,0,0,1,0,.15A16.8,16.8,0,0,0,18.94,23.7Z"/><path class="cls-4" d="M9.17,17.05a9.91,9.91,0,0,1,2.37-8.31.61.61,0,0,1-.11-.35.66.66,0,0,1,.66-.68.57.57,0,0,1,.31.07c.2-.21.41-.41.62-.6h0A24.31,24.31,0,0,1,18,4L16.27,2.23a2.14,2.14,0,0,0-3,0L2.38,13.15a2.15,2.15,0,0,0,0,3l2.4,2.41A25.39,25.39,0,0,1,9.17,17.05Z"/><path class="cls-3" d="M18.87,24.15h0a17.7,17.7,0,0,1-5.75-2.05.74.74,0,0,1-.42.16.67.67,0,0,1-.67-.67.56.56,0,0,1,0-.22,7.81,7.81,0,0,1-2.76-3.87,24.16,24.16,0,0,0-4.18,1.44l8.14,8.17a2.14,2.14,0,0,0,3,0l2.9-2.91Z"/></svg>