<svg id="Capa_1" data-name="Capa 1" xmlns="http://www.w3.org/2000/svg" xmlns:xlink="http://www.w3.org/1999/xlink" viewBox="0 0 277 232"><defs><style>.cls-1,.cls-18{fill:none;}.cls-2,.cls-4{fill:#fff;}.cls-11,.cls-12,.cls-13,.cls-14,.cls-15,.cls-2,.cls-3,.cls-6,.cls-8,.cls-9{fill-rule:evenodd;}.cls-3,.cls-5{fill:#b5bcc4;}.cls-6,.cls-7{fill:#092f8e;}.cls-8{fill:#334f6c;}.cls-9{fill:#c2c9d1;}.cls-10{fill:#4f6984;}.cls-11{fill:#6887a8;}.cls-12{fill:#d6dfe8;}.cls-13{fill:#47607b;}.cls-14{fill:#002f5b;}.cls-15{fill:#001c46;}.cls-16{opacity:0.6;}.cls-17{clip-path:url(#clip-path);}.cls-18{stroke:#fff;stroke-linecap:round;stroke-linejoin:round;stroke-width:9px;}.cls-19{clip-path:url(#clip-path-2);}.cls-20{clip-path:url(#clip-path-3);}.cls-21{clip-path:url(#clip-path-4);}.cls-22{opacity:0.7;}</style><clipPath id="clip-path"><rect class="cls-1" x="-1.44" y="37.35" width="70.59" height="25.68" transform="translate(-25.11 63.89) rotate(-69.08)"/></clipPath><clipPath id="clip-path-2"><rect class="cls-1" x="29.66" y="83.92" width="11.31" height="11.31" transform="translate(-60.96 90.58) rotate(-69.08)"/></clipPath><clipPath id="clip-path-3"><path class="cls-1" d="M-1966.47-285.28c-60,99.36-40.46,229.31,37.27,302.88,129.25,122.32,369.79,143.33,306.72,351.16C-1707,674.05-1126,642.52-1126,642.52v-927.8Z"/></clipPath><clipPath id="clip-path-4"><rect class="cls-1" x="-2001.67" y="-285.28" width="875.67" height="929"/></clipPath></defs><title>Mesa de trabajo 5</title><path class="cls-2" d="M198.51,206.57s19.09,5,28.66,22.07c18.86,8.4,29.41-30.26-.63-44.25-6.36-10-6.71-11.91-6.71-11.91-3.26-7-29,2-27.12,4.46"/><path class="cls-3" d="M197.57,192.57l-4.86-15.63a1,1,0,0,1,.43-1.12c2.36-1.92,10.24-6.31,18.31-4.94,5.19.88,10.16,3.39,14.77,13,8.45,4.1,25.92,18.24,17.28,37.45.16-20.11-11.55-31.72-19.6-32.48-12.7-10.55-15-13.07-21.51-12C195.13,183.74,196.89,188.88,197.57,192.57Z"/><path class="cls-4" d="M175.43,54.28a39.84,39.84,0,0,0-21.38-3.81c-10.38.94-20.15,5.25-28.82,10.63a99.2,99.2,0,0,0-15.59,11.78l0,.05c-.38.39-.77.76-1.12,1.18a13.86,13.86,0,0,0-1.78,2.7c-.22.5-.43,1-.65,1.49"/><path class="cls-4" d="M106.05,78.3c-.15.52-.34,1-.47,1.56a14,14,0,0,0,17.58,16.6,13.92,13.92,0,0,0,4.34-2.17c1.22-.91,2.3-2,3.49-3,6.29-5.22,13.25-9.88,21.15-12.14.57-.17,1.16-.32,1.75-.45,3.4-.74,7.14-.79,10.07,1.14,2.08,1.37,4.53,2.25,5.84,4.39l2.3.53c.82,1.18,2,1,3,2,3,3.07,3.5,5.86,7.79,5.25a14.3,14.3,0,0,0,11.84-11.74,14,14,0,0,0-1.13-7.93,23.77,23.77,0,0,0-1.9-3.23,42.9,42.9,0,0,0-16.25-14.84"/><path class="cls-4" d="M26.41,123.34c-.16.41-.2.51-.34.93a14.38,14.38,0,0,0,2.56,13.28C35.4,146,44.31,153.09,55,155.1a33.59,33.59,0,0,0,11.62.1,38,38,0,0,0,11-3.61c9.25-4.7,16.56-12.49,22.41-20.85a81.29,81.29,0,0,0,5.51-8.94,18.5,18.5,0,0,0,.81-1.87,14,14,0,0,0-21.47-15.84,16.18,16.18,0,0,0-4.38,5.32c-3.27,5.9-7.33,11.5-12.76,15.54-2.41,1.8-5.24,3.41-8.15,2.56a15.39,15.39,0,0,1-6.26-4.23,42,42,0,0,1-2.94-3.3,17.77,17.77,0,0,0-1.41-1.55A14.25,14.25,0,0,0,33.35,116a14.51,14.51,0,0,0-6.94,7.36"/><path class="cls-2" d="M191.89,126.11c-4.41-5.83-11-14.18-14.54-18.74-5.31-6.84-17-13.69-24.26-19.48-6.33-5.08-11.59-13.42-19-15.25s-18.78-4-25.43,4.28L84.56,107c-6.66,8.28-3.52,19.2,1.31,25.75s16.66,17,27.55,25c.07.29,6.2,17.22,10.58,24.54,6.78,11.38,16.05,21.49,27.95,27.44a54.4,54.4,0,0,0,30.47,5.17h.13a18.61,18.61,0,0,0,3.76-.85,19,19,0,0,0,6.06-32.74,19.22,19.22,0,0,0-12.49-4.34c-1.36,0-2.7.26-4.06.28a15,15,0,0,1-5.57-1c-4.39-1.73-7.77-5.25-10.51-8.9a60.28,60.28,0,0,1-9.28-18.38c-.06-.18-.13-.44-.13-.44l-.31-.93c.26-.36.53-.7.8-1l4.73-5.09c2.08,2.59,4.1,5.25,6.13,7.92,4,5.28,8.39,10.37,13.74,14.25,8.63,6.27,19.21,9.39,29.78,11.52,3.24.66,6.49,1.22,9.76,1.73l.25,0,.24,0,1.92.2c.64,0,1.29,0,1.93,0a19,19,0,0,0,3.89-37.43,35.05,35.05,0,0,0-3.63-.67c-6.24-1-12.54-2-18.44-4.45a15.36,15.36,0,0,1-3.77-2.12,34,34,0,0,1-5.46-6.29"/><path class="cls-5" d="M150.33,148.42s.07.26.13.44a60.28,60.28,0,0,0,9.28,18.38c2.74,3.65,6.12,7.17,10.51,8.9a15,15,0,0,0,5.57,1c1.36,0,2.7-.26,4.06-.28a18.93,18.93,0,0,1,16.19,29.52,12.42,12.42,0,0,0,.44-2,19,19,0,0,0-19.25-21.55c-1.35,0-2.69.27-4,.29a15.13,15.13,0,0,1-5.57-1c-4.39-1.73-7.77-5.25-10.51-8.9-4.15-5.5-13.54-22.81-13.54-22.81.27-.35,6.46-2.79,6.46-2.79Zm-11-68,0,0,0,0,0,0,.08,0,0,0h0l0,0,.08,0,0,0,0,0,0,0,.08,0,0,0,0,0L140,80l0,0,0,0,.1-.06.07,0,.11-.06.06,0,.12-.07.05,0c.46-.28.92-.54,1.39-.8l0,0,.19-.1.18-.1.11-.06,0,0,.05,0,.1-.06h0l.06,0,.14-.08.05,0,.09-.05,0,0a45.58,45.58,0,0,1,8.53-3.48c.58-.16,1.17-.31,1.75-.44,3.41-.74,7.14-.79,10.08,1.14,2.08,1.37,4.46,2.77,5.77,4.92l1,.85A22.12,22.12,0,0,0,173.1,84c3.05,3.07,5,4.19,9.28,3.58a14.31,14.31,0,0,0,11.84-11.74c.07-.46.11-.93.14-1.39a14.12,14.12,0,0,1,.35,5.82A14.3,14.3,0,0,1,182.87,92c-4.29.61-4.74-2.17-7.79-5.25-1-1-5.11-1.61-5.94-2.79h0c-1.31-2.14-3.1-2.77-5.18-4.14C161,77.91,157.29,78,153.89,78.7c-.59.13-1.18.28-1.75.45a41.81,41.81,0,0,0-5.88,2.17,77.69,77.69,0,0,0,6.83,6.57c7.21,5.79,18.95,12.64,24.26,19.48,3.54,4.56,10.13,12.91,14.54,18.74a34,34,0,0,0,5.46,6.29,15.36,15.36,0,0,0,3.77,2.12C207,137,213.32,138,219.56,139a35.05,35.05,0,0,1,3.63.67,19,19,0,0,1,12.66,26,18.77,18.77,0,0,1-5.08,6.83c.38-.71.73-1.44,1-2.17,2-4.73,3.48-9,1.46-13.73a19.25,19.25,0,0,0-12.7-10.94,34.39,34.39,0,0,0-3.62-.67c-6.24-1-12.55-2-18.45-4.45a15.3,15.3,0,0,1-3.76-2.12,17.12,17.12,0,0,1-1.71-1.59,56.07,56.07,0,0,1-3.76-4.7c-4.41-5.83-11-14.18-14.53-18.74-5.31-6.84-17.05-13.69-24.26-19.48-4.5-3.61-8.45-8.85-13-12.25.6-.41,1.21-.81,1.83-1.19Z"/><path class="cls-5" d="M159.33,130.22a6.88,6.88,0,0,0-.38-.77,15.5,15.5,0,0,0-2.41-2.95c2.28-3.11,4.49-6.21,6.68-9.21a86.91,86.91,0,0,0,7-10.85c.72-1.41,1.41-2.85,2-4.31-1.62-1.4-3.41-2.78-5.25-4.15a48.38,48.38,0,0,1-2.32,5.41c-2.47,5-6.06,9.5-9.42,14.11l-3.89,5.34c-2.39-.92-5.51-1.29-7.55.17a17.21,17.21,0,0,0-1.59,1.33c-3.4,2.86-9.5,9.81-11.3,13-1.13,2-.74,4.88.41,6.86a9,9,0,0,0,.75,1.1q-2,1.74-4,3.36c-4.44,3.41-9.13,6.64-14.32,8.38l1.7,1.27s-.55.62-1.18,1.46c.35,1,.82,2.2,1.37,3.62A101.73,101.73,0,0,0,132,153.54q2.43-1.87,4.71-3.95a12.24,12.24,0,0,0,1.49.88,30,30,0,0,1-.29,4.12,50,50,0,0,1-8.7,22,19,19,0,0,1-5.28,5.49.41.41,0,0,0,.07.11c1.35,2.27,2.8,4.49,4.35,6.63a25,25,0,0,0,6-5.73,56.58,56.58,0,0,0,8.61-16,47.14,47.14,0,0,0,3.23-16.48,9,9,0,0,0,1.07-.7,30.81,30.81,0,0,0,2.78-2.49c.24-.32.49-.64.74-.94l4.73-5.09,0,0c.93-1.12,1.78-2.2,2.48-3.15,7.47-.15,14.9-1.24,21.73-4.26a24.88,24.88,0,0,0,11.14-9.14c-1.69-2.21-3.6-4.68-5.51-7.13a14.72,14.72,0,0,1-1.68,3.48c-2.54,3.59-6.83,5.57-10.95,6.81a56.5,56.5,0,0,1-13.47,2.2"/><path class="cls-5" d="M196.51,131.67a54.56,54.56,0,0,0-6.17,7.43,11.63,11.63,0,0,0-2.36-.38c-2.64-.11-5.94.6-7.41,2.8a16.62,16.62,0,0,0-1,1.79c-2.18,3.88-5.45,12.53-6,16.11a5.79,5.79,0,0,0,.39,3c.5.4,1,.78,1.52,1.15a53.25,53.25,0,0,0,10,5.67h.28a5,5,0,0,0,1,.17c2.55.12,5.2-1.78,6.55-3.94,2.18-3.48,5.91-13.07,6.53-16.94.36-2.26-1-4.83-2.79-6.29-.22-.17-.47-.36-.74-.54.51-.67,1-1.32,1.54-2a39.52,39.52,0,0,1,4.41-4.73l-1.14-.45a15.73,15.73,0,0,1-3.77-2.13c-.29-.23-.57-.48-.84-.73"/><path class="cls-5" d="M165,173.39h0m.14.54c0-.05,0-.11-.05-.16l.1.29,0-.13m.31.62a.64.64,0,0,1-.08-.14l.14.23-.06-.09m-30,22.74a75.62,75.62,0,0,1,10.32-12.52,17.1,17.1,0,0,1,1.53-1.38c2.09-1.62,5.45-1.26,7.92-.32a10.86,10.86,0,0,1,1.43.69c1.47-1.46,2.89-3,4.22-4.57a28.68,28.68,0,0,0,3.28-4.49c.14-.24.33-.61.33-.61.15-.42.28-.85.4-1.28a19.16,19.16,0,0,0,5.41,3.33l.17.06a21.29,21.29,0,0,1-3.56,5.65,78.47,78.47,0,0,1-5.3,6,10,10,0,0,1,1.12,1.45c1.22,1.94,1.73,4.82.67,6.85-1.74,3.33-7.84,10.74-11.13,13.66l-.27-.13a61.26,61.26,0,0,1-16.54-12.34"/><path class="cls-5" d="M90.06,137.59a51.5,51.5,0,0,1-12.21,8.8,35.54,35.54,0,0,1-22.6,3.51c-10.66-2-19.56-9.13-26.33-17.55a14.6,14.6,0,0,1-3.09-7.23,14.45,14.45,0,0,0,2.8,12.43C35.4,146,44.31,153.09,55,155.1a35.65,35.65,0,0,0,22.59-3.51,54.31,54.31,0,0,0,14.93-11.54q-1.29-1.26-2.43-2.46"/><path class="cls-3" d="M101.1,125c-1.72-2.76-3.78-6.49-2.43-9.44,2.36-5.11,11.9-17.63,16.57-21.25,3-2.35,7.87-1.83,11.44-.48a27.47,27.47,0,0,1,10.87,8.92c1.77,2.81,2.5,7,1,9.9a66.41,66.41,0,0,1-6.26,9,90,90,0,0,1-10.4,11.33c-2.84,2.35-7.34,3.75-10.78,2.43s-7.92-7.08-10-10.37"/><path class="cls-6" d="M73.8,119.17a28.67,28.67,0,0,0,11.39-4.49c1.55-1.08,34.05-35.16,39.38-46.35a26.92,26.92,0,0,0,2.33-8.25l-1.67,1c-1.25.78-2.5,1.58-3.73,2.41a23.07,23.07,0,0,1-1,2.57c-6.14,12.9-27.63,38.2-39.38,46.35a23.61,23.61,0,0,1-3.8,2.16,48.31,48.31,0,0,1-3.47,4.58"/><path class="cls-7" d="M139.11,54.08c.19,1.14.4,2.27.59,3.35a73.11,73.11,0,0,0,8,23.28,42.82,42.82,0,0,1,4.46-1.57c.58-.16,1.17-.31,1.76-.44s1.17-.23,1.76-.31l-.45-.76A67.09,67.09,0,0,1,147.45,55c-.2-1.12-.43-2.25-.59-3.37a60,60,0,0,0-7.75,2.42"/><path class="cls-7" d="M145.7,76.92c.61,1.29,1.26,2.55,2,3.79h0l.08,0h0l.05,0h.07l0,0,.08,0,.06,0,.09,0h0l.06,0,0,0h.07l0,0h0l.06,0,0,0h0l.15-.06h0l.05,0,.07,0h0l0,0H149l.07,0h.06l.15-.06h0l0,0,.08,0h.09l0,0,.07,0,0,0h0l.16-.06h0l.09,0,0,0h.06l0,0,.07,0h.06l.16-.06h0l.1,0,0,0h0l.06,0,.06,0h.05l.17-.05h0l.12,0h.08l.06,0,.07,0h.05l.17,0h0l.13,0h.14l.06,0H152l.18,0c.57-.17,1.16-.32,1.75-.45l.14,0h.08l.09,0h0l.14,0h.08l.08,0h0l.14,0H155l.21,0h.12l.21,0h.12l-.45-.76q-1-1.65-1.8-3.36h0c-.58.13-1.17.28-1.75.44a44.06,44.06,0,0,0-5.94,2.21"/><path class="cls-7" d="M68.88,124.71l-.13.13.13-.13m-5.95,2.79A14.82,14.82,0,0,0,67.68,125c.78-.58,1.54-1.2,2.26-1.84q.12.44.27.87a35.18,35.18,0,0,0,5.93,10.49,31.18,31.18,0,0,0,8.72,8.13,6.67,6.67,0,0,0,3.92,1.12A52.62,52.62,0,0,1,81,149.67a30.39,30.39,0,0,1-4.67-3.39A47.55,47.55,0,0,1,63.4,128.66c-.16-.38-.32-.76-.47-1.16"/><path class="cls-7" d="M76.93,146.84a30,30,0,0,0,4,2.83l.13-.07h0l.12-.07h0l.12-.08h0l.11-.08h0l.11-.07h0l.11-.07v0l.11-.06,0,0L82,149h0l.11-.07,0,0,.11-.07h0l.11-.07v0l.11-.07h0l.11-.08h0l.11-.09h0c.38-.26.76-.52,1.13-.79h0l.11-.08,0,0,.11-.07,0,0,.1-.07,0,0,.1-.07,0,0,.09-.07,0,0,.09-.08,0,0,.1-.07,0,0,.09-.07,0,0,.09-.07,0,0,.09-.07,0,0,.09-.07,0,0,.09-.07,0,0,.09-.07,0,0,.1-.08,0,0,.1-.08h0l.1-.09h0l.12-.09h0c.44-.35.88-.71,1.31-1.08h0l.11-.09h0l.11-.09h0l.11-.09h0l.11-.09h0l.11-.1h0l.11-.1h0l.11-.1h0l.69-.62a6.77,6.77,0,0,1-3.92-1.12l-.44-.26a49.12,49.12,0,0,1-6.57,4l-.92.45"/><path class="cls-7" d="M158.48,145.09c1.07,1.39,2.13,2.79,3.2,4.2.74,1,1.48,1.93,2.25,2.87a24.65,24.65,0,0,1,2.52-4.72,57.67,57.67,0,0,1,12.77-13.83A42.46,42.46,0,0,1,192,126.19l-.06-.08c-1.5-2-3.25-4.25-5-6.57-8.27,3.43-15.44,9.45-21.31,16a53.3,53.3,0,0,0-7.05,9.57"/><path class="cls-7" d="M163.41,138a53.16,53.16,0,0,0,14.28-3.12c.51-.42,1-.84,1.53-1.25A42.46,42.46,0,0,1,192,126.19l-.06-.08-.34-.44-.1-.13-.26-.35-.08-.11-.75-1-.06-.08,0,0-.08-.11-.06-.08-.13-.17,0,0-.07-.09-.88-1.13-.06-.09-.06-.08-.12-.16-.13-.16,0,0v0l-.08-.09-.2-.27-.13-.16-.1-.13-.55-.71,0,0-.69-.89a46.21,46.21,0,0,0-5.23,2.59l.65.83a21.94,21.94,0,0,1-8.77,4.85,75.46,75.46,0,0,0-8,7.71c-.73.8-1.44,1.62-2.12,2.46"/><path class="cls-7" d="M122.55,179.57c.5,1,1,1.85,1.45,2.62.91,1.54,1.88,3.06,2.89,4.54a50.4,50.4,0,0,1,3.87-4c8.23-7.8,18.7-13.38,30.12-14-.4-.48-.77-1-1.14-1.45a55.06,55.06,0,0,1-4-6c-11.72,1.92-22.81,8.18-31.06,16.14-.74.72-1.46,1.47-2.17,2.23"/><path class="cls-7" d="M123.93,182.08a19,19,0,0,0,5.28-5.49,51.84,51.84,0,0,0,3.53-5.8,61.66,61.66,0,0,1,11.07-6.09c-.26.79-.53,1.59-.81,2.37a64.92,64.92,0,0,1-4.1,9.17,57.38,57.38,0,0,0-8.14,6.45,50.4,50.4,0,0,0-3.87,4l-.17-.25,0,0-.08-.11,0-.05-.07-.11-.06-.08,0-.07-.07-.1-.06-.09,0-.07,0-.06-.06-.11-.06-.08-.07-.11,0-.07h0l-.09-.15,0-.07-.08-.13,0-.05-.11-.17,0-.07-.08-.13,0-.05-.12-.18,0,0-.09-.14,0,0-.11-.18,0-.05-.09-.14,0-.05,0-.07-.12-.21,0-.07-.14-.22,0,0-.15-.26,0-.07-.12-.19,0-.08-.15-.26Zm26.42-19.67a53.77,53.77,0,0,1,5.43-1.21l.07.12,0,.07h0l.21.37h0v0l0,.07.06.1h0l.11.19h0l.06.1,0,.07v0h0l.22.36h0v0l0,.06.06.1h0a1.74,1.74,0,0,1,.11.18h0l.05.1,0,.06,0,0h0l.21.35v0l0,0,0,.06.05.09,0,0h0a1,1,0,0,1,.11.17h0l0,0,.05.09,0,0v0l0,0c.07.11.14.22.22.33v0l0,0,0,.05.05.09,0,0h0l.12.17h0l0,0,.06.08,0,.06v0l0,0,.22.33,0,0,0,0,0,0,.06.09,0,0h0a1.63,1.63,0,0,0,.11.17h0l0,0,0,.08,0,.05,0,0v0l.24.33v0l0,0,0,.06.06.07v0h0l.12.16h0l0,0,.06.08,0,0,0,0v0l.12.16.13.18h0l0,0,.08.11h0l0,0,.07.1,0,0h0l0,.05.06.08,0,0,0,0,0,0,.06.08,0,0,0,0,0,0,.06.08,0,0h0l0,.06,0,0,.05.06,0,0,0,0,.05.06.08.09a40.24,40.24,0,0,0-6.23.84c-1.34-2.11-2.84-4.62-4.3-7.12"/><path class="cls-8" d="M98.6,124.11c-1.72-2.75-3.78-6.48-2.43-9.43,2.36-5.12,11.9-17.64,16.57-21.26,3-2.34,7.87-1.83,11.44-.48a27.41,27.41,0,0,1,10.87,8.93c1.77,2.8,2.51,6.95,1,9.89-2.62,5-12.09,16.51-16.66,20.3-2.84,2.35-7.34,3.74-10.78,2.43s-7.92-7.08-10-10.38"/><path class="cls-9" d="M95.9,124.7c-1.76-2.81-2.5-7-1-9.9,2.61-5,12.23-16.75,16.66-20.29,2.59-2.08,6.8-2.16,9.89-1a28.61,28.61,0,0,1,10.88,8.93c1.76,2.8,2.5,7,1,9.89-2.62,5-12.23,16.75-16.66,20.3-2.59,2.07-6.8,2.15-9.9,1A28.72,28.72,0,0,1,95.9,124.7"/><path class="cls-8" d="M100.92,120.5a3.93,3.93,0,0,1-.57-3.63,30.45,30.45,0,0,1,5.77-7,3.92,3.92,0,0,1,3.66-.14,12.68,12.68,0,0,1,4.25,3.48,3.94,3.94,0,0,1,.57,3.62,30.55,30.55,0,0,1-5.77,7,4,4,0,0,1-3.67.14,12.55,12.55,0,0,1-4.24-3.48"/><path class="cls-8" d="M114.31,108.13a2.28,2.28,0,0,1-.21-2.1,21.4,21.4,0,0,1,3.55-4.33,2.25,2.25,0,0,1,2.11-.2,6,6,0,0,1,2.31,1.9,2.23,2.23,0,0,1,.21,2.1,20.81,20.81,0,0,1-3.55,4.33,2.23,2.23,0,0,1-2.1.2,6,6,0,0,1-2.32-1.9"/><path class="cls-8" d="M110.81,128.08a8.94,8.94,0,0,1,1.92-4.68c2.23-3.1,8.84-11.15,11.44-13.94a8.89,8.89,0,0,1,4.21-2.79,2.12,2.12,0,0,1,2.3,1.88,9,9,0,0,1-1.93,4.67c-2.22,3.1-8.83,11.15-11.44,13.94a8.93,8.93,0,0,1-4.21,2.8,2.12,2.12,0,0,1-2.29-1.88"/><path class="cls-10" d="M195.66,130.82a54.83,54.83,0,0,0-9,10.91,80.77,80.77,0,0,0-6.46,11.87A42.65,42.65,0,0,0,176.9,164l0,.34a2.09,2.09,0,0,0,0,.25,51.19,51.19,0,0,0,4.67,2.77,3.22,3.22,0,0,0,1.6-2.08c.23-1.07.41-2.16.72-3.22a64,64,0,0,1,11.84-21.94,37.58,37.58,0,0,1,5.42-5.57,15.2,15.2,0,0,1-3.75-2.11,18.05,18.05,0,0,1-1.69-1.58"/><path class="cls-11" d="M175.78,165.12c-1.72-1.44-3.89-3.44-3.64-5.67.44-3.87,4-14.16,6.26-17.56,1.47-2.19,4.78-2.9,7.41-2.79a18.83,18.83,0,0,1,9.08,3.5c1.77,1.45,3.15,4,2.79,6.28-.63,3.87-4.35,13.47-6.53,17-1.35,2.15-4,4-6.55,3.93s-6.74-2.93-8.82-4.64"/><path class="cls-12" d="M174.14,166.09c-1.77-1.46-3.15-4-2.79-6.29.63-3.87,4.4-13.65,6.53-16.94,1.25-1.92,4-2.9,6.29-2.79a19.74,19.74,0,0,1,9.07,3.5c1.77,1.46,3.16,4,2.79,6.28-.62,3.88-4.39,13.66-6.53,17-1.25,1.92-4,2.89-6.28,2.79a19.77,19.77,0,0,1-9.08-3.5"/><path class="cls-10" d="M163.3,172.65s0-.13,0,0m.15.54a.88.88,0,0,1,0-.15l.1.28-.05-.13m.22.49.15.23-.06-.09Zm-.35-2.27a21.92,21.92,0,0,0,5.43,4.05,21.16,21.16,0,0,1-3.57,5.65,77.4,77.4,0,0,1-8.9,9.39c-1,.88-1.82,1.94-2.83,2.82-1.73,1.5-4,2.17-5.47,1a3.18,3.18,0,0,1,.74-5.45c.32-.13.17,0,.25-.09a25.46,25.46,0,0,0,2.72-2.68,79.37,79.37,0,0,0,7.47-7.64,30.54,30.54,0,0,0,3.28-4.49c.14-.25.32-.62.32-.62.19-.5.33-1,.48-1.54,0-.09,0-.16.08-.4"/><path class="cls-11" d="M135.78,203.86c-1.19-1.9-2.61-4.49-1.67-6.52,1.63-3.54,8.25-12.19,11.48-14.69,2.09-1.61,5.44-1.25,7.91-.32a19,19,0,0,1,7.51,6.19c1.22,1.94,1.73,4.81.66,6.84-1.81,3.48-8.37,11.41-11.54,14-2,1.62-5.08,2.58-7.45,1.67s-5.47-4.9-6.9-7.19"/><path class="cls-12" d="M133.91,204.27c-1.22-1.94-1.72-4.82-.66-6.85,1.81-3.48,8.48-11.57,11.54-14,1.79-1.43,4.71-1.48,6.84-.66a19.7,19.7,0,0,1,7.51,6.18c1.22,1.94,1.73,4.82.67,6.85-1.82,3.47-8.48,11.57-11.54,14-1.8,1.42-4.71,1.48-6.85.66a19.77,19.77,0,0,1-7.51-6.18"/><path class="cls-10" d="M166.72,100l-.48-.33c.13.11.14.1.27.2l.21.13m.75.29-.64-.24a3,3,0,0,0,.64.24m.78.1-.74-.09a3.18,3.18,0,0,0,.74.09m-56.53,56c5.19-1.74,9.88-5,14.32-8.38,11.11-8.56,19.09-20,27.22-31.13,3.36-4.6,7-9.07,9.42-14.11a48.31,48.31,0,0,0,2.41-5.66,3.4,3.4,0,0,1,0-.45c1.87,1.34,3.7,2.72,5.42,4.11a48.44,48.44,0,0,1-2.29,5,86.29,86.29,0,0,1-7,10.86c-9,12.38-18.49,26.4-31.22,36.25-4.68,3.62-9.61,7-15.06,9-1-2.51-1.56-4.2-1.58-4.29l-1.7-1.27"/><path class="cls-11" d="M131.22,143.21c-1.12-2-2.44-4.58-1.43-6.58,1.77-3.47,8.7-11.87,12-14.25,2.14-1.53,5.49-1,7.92,0a19.05,19.05,0,0,1,7.27,6.46c1.14,2,1.54,4.88.4,6.87-1.94,3.4-8.79,11.08-12.06,13.57-2,1.55-5.17,2.39-7.51,1.39s-5.28-5.1-6.62-7.44"/><path class="cls-12" d="M129.34,143.54c-1.15-2-1.54-4.87-.41-6.86,1.94-3.41,8.91-11.25,12.06-13.58,1.85-1.36,4.76-1.31,6.87-.4a19.73,19.73,0,0,1,7.27,6.46c1.14,2,1.54,4.87.4,6.86-1.94,3.41-8.9,11.25-12.06,13.58-1.84,1.36-4.75,1.31-6.86.4a19.74,19.74,0,0,1-7.27-6.46"/><path class="cls-10" d="M176.15,106.15a6.26,6.26,0,0,1,1.39,1.47c1,1.56.63,3.36-.15,4.87-1.64,3.2-4.38,5.77-7.27,8.07-5.3,4.22-11.45,7.73-17.86,9a7.82,7.82,0,0,1-4.52,0l-.21-.08a3.29,3.29,0,0,0-3.69,1.27,2.15,2.15,0,0,0-.3.59,2.59,2.59,0,0,0-.22,1.08,3.43,3.43,0,0,0,2.36,3.15c3.07,1.11,6.53.61,9.69-.25a52.16,52.16,0,0,0,19.74-10.67,31.82,31.82,0,0,0,7.68-8.83,12.64,12.64,0,0,0,1.6-8.9c-.81-3.41-3.6-6.12-6.8-7.79-2.32-1.21-5.09-1.44-7.64-2a4.37,4.37,0,0,0-2.06.15,2.93,2.93,0,0,0-1.07.78c3.69,2.6,7.16,5.15,9.33,8.1"/><path class="cls-10" d="M109.08,154.38a3.26,3.26,0,0,0-1.43,1.19,2.77,2.77,0,0,0-.31.59,2.46,2.46,0,0,0-.21,1.31c0,.46.11.93.17,1.4.73,5.57,1.72,11.31,4.71,16,1.6,2.51,4.14,4.67,7.24,4.92,3.37.27,6.66-1.76,9-4.05,3.83-3.73,6.53-8.55,8.67-13.54,2.57-6,4.4-12.51,4.1-18.88a20.8,20.8,0,0,0-.35-3,3.93,3.93,0,0,0-.2-.69,3.18,3.18,0,0,0-6.07,1.64c.95,7.52-1.5,15.32-5.1,22.14-1.72,3.27-3.71,6.5-6.63,8.75-.93.73-2.06,1.47-3.15,1.23s-2-1.58-2.7-2.91c-2-3.87-2.71-8.32-3.27-12.77-1.47-1.08-3-2.2-4.47-3.36"/><path class="cls-2" d="M99.62,15.81C78.54-3.27,44.94-.55,24.63,21.88A56.4,56.4,0,0,0,9.84,61.66,42.14,42.14,0,0,0,16.4,86.41c6,9.94,22.82,24.21,33.6,28.55,9.64,3.88,22.54,3.39,31.07-2.53,11.75-8.15,33.24-33.45,39.38-46.35,4.47-9.39,2.86-22.19-2.52-31.08-3.38-5.57-10.15-12.51-17.35-18.3"/><path class="cls-3" d="M82.54,11c-7.81-2.89-19.92-1.78-27.2,3.41C42.63,23.44,23.13,46.21,18.58,59.44c-3.88,11.26-2.71,17.25.49,24a31.67,31.67,0,0,0,3.18,5.15,1.38,1.38,0,0,0-.31.28c-1,1.29.59,4.58,3.61,7.34,2.73,2.5,5.68,3.71,7,3a28.55,28.55,0,0,0,9,5.07c7.18,2.06,18.14,1.3,25.63-4.66C77.47,91.38,97.56,67.73,104,56.25c4.67-8.35,4.94-18.81,1.74-25.56a19.49,19.49,0,0,0-1.78-3"/><path class="cls-3" d="M100.58,16.7c7.2,5.79,7.58,11.81,11,17.38,5.38,8.89,7,21.69,2.53,31.08-6.15,12.9-27.63,38.22-39.38,46.35-12,8.31-27,3.06-32.84-.92,17.38,11.79,32.05,6.82,39.22,1.84,11.75-8.15,33.24-33.45,39.38-46.35,4.47-9.39,2.86-22.19-2.52-31.08-3.38-5.57-10.15-12.51-17.35-18.3"/><path class="cls-13" d="M17.47,84.83c-3.2-6.75-5.26-14.43-1.39-25.69,4.56-13.23,24.06-36,36.76-45,7.28-5.19,21.09-6.3,28.9-3.41,0,0,5.68,1.19,14.28,7.79,18.13,15.9,10.15,29.13,5.47,37.48C95.07,67.43,75,91.09,64.68,99.28c-7.48,6-18.44,6.72-25.62,4.66-8-2.31-18.91-13.26-22.48-20.8"/><path class="cls-8" d="M19.45,88.57c1-1.3,4.32-.11,7.34,2.65s4.63,6,3.6,7.34-4.32.11-7.34-2.65-4.63-6-3.6-7.34"/><path class="cls-13" d="M19.16,89.31c.94-1.17,4.05,0,7,2.69s4.5,5.75,3.57,6.92-4.05,0-6.95-2.68-4.5-5.75-3.57-6.93"/><path class="cls-8" d="M91.2,12.27c.91-1.38,4.28-.49,7.52,2s5.13,5.59,4.22,7-4.27.49-7.51-2-5.13-5.6-4.23-7"/><path class="cls-13" d="M91.87,11.91c.82-1.24,4-.32,7.13,2.05s5,5.32,4.15,6.56-4,.33-7.13-2.05-5-5.31-4.15-6.56"/><path class="cls-14" d="M77.78,11.86C62.94,7.94,47.29,18,33.91,34.6,23.16,47.91,15.23,61.3,17.49,74.16a31.21,31.21,0,0,0,2.81,9.42c3.35,7.13,14.58,16.58,22.12,18.75,6.75,1.93,17.52.15,24.57-5.51C76.7,89,95.66,66.6,101.73,55.72c4.42-7.92,4.7-17.82,1.71-24.2-3.34-7.13-14.51-15.91-21.77-18.59Z"/><path class="cls-15" d="M83.36,14.09C71,15.33,57.66,22.69,47.62,35,36.84,48.3,32.49,64.09,34.81,76.94a31.24,31.24,0,0,0,2.86,9.42c2.63,5.52,10,12.43,16.72,16.3a29.76,29.76,0,0,0,12.67-5.6C76.8,89.32,95.81,67,101.89,56.13c4.42-7.89,4.66-17.78,1.63-24.16-3.12-6.56-12.91-14.54-20.16-17.88"/><g class="cls-16"><g class="cls-17"><path class="cls-18" d="M51.63,25.62S14,56.53,25,79.23"/></g></g><g class="cls-16"><g class="cls-19"><path class="cls-2" d="M30.54,88.23a4.61,4.61,0,1,0,6.08-2.37,4.62,4.62,0,0,0-6.08,2.37"/></g></g><path class="cls-2" d="M24.88,133a17.34,17.34,0,0,1-10-8.56c-1.66-3.47-14.49-6.74-12.63-12,.81-2.26,7.81,2,10.67,3.39,0,0-11.18-7.65-10-10.57,1-2.52,11.49,3.37,11.49,3.37S4.67,97.85,6.42,95.87c1.91-3.24,13,6.45,13,6.45S11.68,91.56,14.81,89s15.2,15.6,17.71,15.07c.76-1.66-.21-5.85.24-7.84.8-3.55,2.94-4.24,5-.58,3.16,5.7,6.66,16.1,5.5,18.71S24.88,133,24.88,133Z"/><path class="cls-6" d="M27.62,136.11c1.25-5.79,12.13-18.17,19.3-19.23.21-.82-2.17-2.5-3.7-2.48-2.39.66-12,3.44-18.27,18.14C24.35,134.79,27.62,136.11,27.62,136.11Z"/><path class="cls-3" d="M39.94,115.58s-1.33-27.48-7.23-19C34.8,87,42.43,98.9,43.22,114.4"/><path class="cls-3" d="M32.32,104.11c-3.71,1.65-15.7-19.2-18-11.45-.37-2.19-.38-2.58.53-3.7,1.21-.7,2.91.65,5.1,2.7C24.37,95.81,30,103.21,32.32,104.11Z"/><path class="cls-3" d="M19.4,102.32c-4.12-2.1-13.42-10-12.61-3.87C4.91,95.14,7.18,91.1,19.4,102.32Z"/><path class="cls-3" d="M14.34,108.65c-9.2-5-13.92-5.47-10.67-.85C2.86,103.22,9.17,107.75,14.34,108.65Z"/><path class="cls-3" d="M12.89,115.85c-1.57,1.26-12.91-7.09-9.6.31a4.38,4.38,0,0,1-1.13-1.86C.6,108.55,9.49,114.09,12.89,115.85Z"/><path class="cls-3" d="M17.27,122.19a16.87,16.87,0,0,1,8.26-3.79c.71,0,.58-7.74,3.35-11.2,0,0-5.82,1.25-5.3,5.81C23.48,117.92,17.94,114.39,17.27,122.19Z"/><path class="cls-2" d="M188.62,64.87a33.43,33.43,0,0,1,11.16,7c2.15,3.19,11.89,4.47,12.94,10-1.18,4.77-4.25-2.23-9.75-1.79,0,0,9.51,5,10.54,11.43.31,6.39-7.95-5.48-10.94-4.09-1.19-.44,8.79,6.44,6.85,13.91-1.42,3.47-6.91-7-10.95-6.92.55.93,6.59,10.73,3.85,13.67-3.16,2.25-8.2-13.69-17.09-13.55-.5,1.76,5.31,5.7,5.16,7.73-.28,3.63-9.29-.62-11.82-4-3.95-5.18-5.3-10.28-5.41-12.41C173,83,188.62,64.87,188.62,64.87Z"/><path class="cls-6" d="M185.45,62.16c-.39,5.91-9.37,19.74-16.31,21.82-.09.84,2.51,2.17,4,1.92,2.27-1,11.36-5.13,15.45-20.59C188.88,63,185.45,62.16,185.45,62.16Z"/><path class="cls-3" d="M174.84,85.08l-1.68.82s-.68,11.81,12.45,17.1c3.58,1.37-2.33-2.3-6.56-7.4C176,92,174.58,87.1,174.84,85.08Z"/><path class="cls-3" d="M185.23,94.53s4.36-6.16,16,11.9c.46.72,1.51,1.11,1.64.16s.46,2.4-2.09,1.55C197.76,106.44,192.75,94.47,185.23,94.53Z"/><path class="cls-3" d="M198.47,94.41c4.32,1.15,6.64,5.39,8.13,6.43,0,0,3.62,3.8,3-2.47,0,0,.93,5.15-2.63.59S201,94.06,198.47,94.41Z"/><path class="cls-3" d="M202.57,87.42c.25.38.45-2.06,7.52,4.58,4.35,3.59,3.8-.77,2.77-2.59,0,0,2,5.52-2.69,1S203,86.41,202.57,87.42Z"/><path class="cls-3" d="M203,80.08c4,.47,4.28,1.18,6.75,2.69s3.77.88,2.53-2.25c0,0,1.51,3.17-2,.91S204.22,79.47,203,80.08Z"/><path class="cls-6" d="M194.1,208.86c.76-8,3.26-17.12-7-30.72,0,0,2.76-2.64,5.6-1.2s9.71,20.35,5.8,29.63C198,207.67,193.84,211.55,194.1,208.86Z"/><path class="cls-2" d="M228.31,175.29c25.94,7.92,30.13,45.12,45.36,2.35,2-19.67-14.44-24.63-17.79-25.5s-8.28-12.21-20-6.59c-3.61,1.72-1,7.5-2.16,11.47C231,166,228.31,175.29,228.31,175.29Z"/><path class="cls-3" d="M274.09,176.67c.36-18.52-12.27-22.91-18.21-24.53-8.35-9.33-14.21-9.47-19.94-6.55-4.41,2-1.21,9.81-1.21,9.81s-.46-7.12,6.06-6.8,5.86,1.61,11.5,6.45S265.8,156.62,274.09,176.67Z"/><path class="cls-6" d="M224.26,176.12c2.4-9.75,12-25.77,5.2-33.51a6.51,6.51,0,0,1,6.64,2.54c1.12,1.7,1.07,16.31-6.88,30.58C227.59,178.52,224,177.08,224.26,176.12Z"/></svg>