<svg xmlns="http://www.w3.org/2000/svg" xmlns:xlink="http://www.w3.org/1999/xlink" viewBox="0 0 617 622"><defs><style>.cls-1{fill:none;}.cls-2{fill:url(#linear-gradient);}.cls-3{fill:url(#linear-gradient-2);}.cls-4{fill:url(#linear-gradient-3);}.cls-5{isolation:isolate;}.cls-6{clip-path:url(#clip-path);}.cls-7{mix-blend-mode:screen;}.cls-13,.cls-14,.cls-15,.cls-16,.cls-20,.cls-25,.cls-8{opacity:0.3;}.cls-8{fill:url(#linear-gradient-4);}.cls-21,.cls-26,.cls-9{opacity:0.8;}.cls-9{fill:url(#linear-gradient-5);}.cls-10{fill:url(#linear-gradient-6);}.cls-11{clip-path:url(#clip-path-2);}.cls-12,.cls-18,.cls-24,.cls-29{opacity:0.4;}.cls-12{fill:url(#linear-gradient-8);}.cls-13{fill:url(#linear-gradient-9);}.cls-14{fill:url(#linear-gradient-10);}.cls-15{fill:url(#linear-gradient-11);}.cls-17{clip-path:url(#clip-path-3);}.cls-18{fill:url(#linear-gradient-13);}.cls-19{opacity:0.6;}.cls-20{fill:url(#linear-gradient-14);}.cls-21{fill:url(#linear-gradient-15);}.cls-22{fill:url(#linear-gradient-16);}.cls-23{clip-path:url(#clip-path-4);}.cls-24{fill:url(#linear-gradient-17);}.cls-25{fill:url(#linear-gradient-18);}.cls-26{fill:url(#linear-gradient-19);}.cls-27{fill:url(#linear-gradient-20);}.cls-28{clip-path:url(#clip-path-5);}.cls-29{fill:url(#linear-gradient-22);}</style><linearGradient id="linear-gradient" x1="551.8" y1="582.3" x2="606.51" y2="582.3" gradientUnits="userSpaceOnUse"><stop offset="0" stop-color="#ff2525"/><stop offset="0.15" stop-color="#ff2925"/><stop offset="0.29" stop-color="#ff3527"/><stop offset="0.44" stop-color="#ff4929"/><stop offset="0.58" stop-color="#ff652c"/><stop offset="0.72" stop-color="#ff8931"/><stop offset="0.87" stop-color="#ffb436"/><stop offset="1" stop-color="#ffe43b"/></linearGradient><linearGradient id="linear-gradient-2" x1="-3817.68" y1="-1366.87" x2="-3784.02" y2="-1366.87" gradientTransform="matrix(-0.8, -0.6, -0.6, 0.8, -3287.48, -1087.3)" gradientUnits="userSpaceOnUse"><stop offset="0" stop-color="aqua"/><stop offset="0.04" stop-color="#00f4ff"/><stop offset="0.4" stop-color="#008dff"/><stop offset="0.69" stop-color="#0041ff"/><stop offset="0.9" stop-color="#0012ff"/><stop offset="1" stop-color="blue"/></linearGradient><linearGradient id="linear-gradient-3" x1="17.13" y1="43.3" x2="61.18" y2="43.3" xlink:href="#linear-gradient"/><clipPath id="clip-path"><path class="cls-1" d="M-1100.47-71.28c-60,99.36-40.46,229.31,37.27,302.88,129.25,122.32,369.79,143.33,306.72,351.16C-841,888.05-260,856.52-260,856.52V-71.28Z"/></clipPath><linearGradient id="linear-gradient-4" x1="547.03" y1="582.3" x2="611.28" y2="582.3" xlink:href="#linear-gradient"/><linearGradient id="linear-gradient-5" x1="549.29" y1="582.3" x2="609.02" y2="582.3" gradientTransform="translate(13.37 -13) rotate(1.3)" xlink:href="#linear-gradient"/><linearGradient id="linear-gradient-6" x1="544.52" y1="582.3" x2="629.87" y2="582.3" xlink:href="#linear-gradient"/><clipPath id="clip-path-2"><circle class="cls-2" cx="579.15" cy="582.3" r="27.35"/></clipPath><linearGradient id="linear-gradient-8" x1="627.23" y1="579.36" x2="530.3" y2="582" xlink:href="#linear-gradient"/><linearGradient id="linear-gradient-9" x1="-3821.31" y1="-1366.87" x2="-3780.39" y2="-1366.87" xlink:href="#linear-gradient-2"/><linearGradient id="linear-gradient-10" x1="-3819.23" y1="-1366.87" x2="-3782.47" y2="-1366.87" xlink:href="#linear-gradient-2"/><linearGradient id="linear-gradient-11" x1="-3822.16" y1="-1366.87" x2="-3769.64" y2="-1366.87" xlink:href="#linear-gradient-2"/><clipPath id="clip-path-3"><path class="cls-3" d="M565.64,71.27a16.83,16.83,0,1,1,3.48,23.55A16.82,16.82,0,0,1,565.64,71.27Z"/></clipPath><linearGradient id="linear-gradient-13" x1="-3771.26" y1="-1368.68" x2="-3830.92" y2="-1367.06" xlink:href="#linear-gradient-2"/><linearGradient id="linear-gradient-14" x1="156.4" y1="330.3" x2="193.91" y2="330.3" gradientUnits="userSpaceOnUse"><stop offset="0" stop-color="#00ff5b"/><stop offset="0.07" stop-color="#06e271"/><stop offset="0.19" stop-color="#10b097"/><stop offset="0.32" stop-color="#1986b7"/><stop offset="0.45" stop-color="#2064d1"/><stop offset="0.58" stop-color="#2649e5"/><stop offset="0.72" stop-color="#2a36f4"/><stop offset="0.85" stop-color="#2c2bfc"/><stop offset="1" stop-color="#2d27ff"/></linearGradient><linearGradient id="linear-gradient-15" x1="157.72" y1="330.3" x2="192.59" y2="330.3" xlink:href="#linear-gradient-14"/><linearGradient id="linear-gradient-16" x1="154.94" y1="330.3" x2="204.76" y2="330.3" xlink:href="#linear-gradient-14"/><clipPath id="clip-path-4"><path class="cls-1" d="M191.13,330.3a16,16,0,1,0-16,16A16,16,0,0,0,191.13,330.3Z"/></clipPath><linearGradient id="linear-gradient-17" x1="203.22" y1="328.58" x2="146.63" y2="330.12" xlink:href="#linear-gradient-14"/><linearGradient id="linear-gradient-18" x1="10.6" y1="43.3" x2="67.71" y2="43.3" gradientTransform="translate(81.36 2.96) rotate(88.41)" xlink:href="#linear-gradient"/><linearGradient id="linear-gradient-19" x1="15.33" y1="43.3" x2="62.98" y2="43.3" xlink:href="#linear-gradient"/><linearGradient id="linear-gradient-20" x1="11.27" y1="43.3" x2="79.99" y2="43.3" xlink:href="#linear-gradient"/><clipPath id="clip-path-5"><circle class="cls-4" cx="39.15" cy="43.3" r="22.03"/></clipPath><linearGradient id="linear-gradient-22" x1="61.43" y1="58.29" x2="14.15" y2="25.39" xlink:href="#linear-gradient"/></defs><title>Mesa de trabajo 6</title><g class="cls-5"><g id="Capa_1" data-name="Capa 1"><g class="cls-7"><circle class="cls-8" cx="579.15" cy="582.3" r="32.12"/><circle class="cls-9" cx="579.15" cy="582.3" r="29.87" transform="translate(-13.07 13.3) rotate(-1.3)"/><circle class="cls-10" cx="579.15" cy="582.3" r="27.35"/><circle class="cls-2" cx="579.15" cy="582.3" r="27.35"/><g class="cls-11"><path class="cls-12" d="M554.42,570.62c18.67-10.4,33.47-1.21,36-13.25s-46.67,12.56-24.83,16.82,27.86,3.52,30.87-1.75,2.57-9.45,2.7-12.3,15.12,31.88-35.08,18.07c-16-4.11-12.05.49-12.05.49s-7.41,6.29.69,10.68,3.7-2.88,31.25,0c15.5.13,20,.3,23.78-8.41,0,0,6.28,30.62-20.83,12.8-17.94-5-56,4.52-26.6,1.51,14.81,3.76,7.32,11.91,17.06,4.27,8.22-4.32,13.56,4.31,11.3,3.16s8.58,7.14,8.56.11c.22,9.53-17.14-4.28-18.58,2.86-4.29-.61-7.33,5.68-13.32-3.37s-5.82-.11-9.45-1.27S537,580.35,554.42,570.62Z"/></g></g><path class="cls-13" d="M562.73,69.11A20.46,20.46,0,1,1,567,97.73,20.45,20.45,0,0,1,562.73,69.11Z"/><path class="cls-14" d="M564.4,70.35a18.38,18.38,0,1,1,3.8,25.71A18.38,18.38,0,0,1,564.4,70.35Z"/><path class="cls-15" d="M565.64,71.27a16.83,16.83,0,1,1,3.48,23.55A16.82,16.82,0,0,1,565.64,71.27Z"/><g class="cls-16"><path class="cls-3" d="M565.64,71.27a16.83,16.83,0,1,1,3.48,23.55A16.82,16.82,0,0,1,565.64,71.27Z"/><g class="cls-17"><path class="cls-18" d="M595.66,84.61c-5.4-12-16.09-12.88-12.93-19.76s18.45,23.32,6.1,17.42-15.06-8.48-14.61-12.19,2.19-5.62,3.18-7.07-19.17,10.2,10.7,21.8c9.41,3.84,5.78,4.66,5.78,4.66s1.35,5.83-4.27,5-.76-2.79-15.44-11.47c-7.7-5.63-10-7.2-8.66-12.88,0,0-14.34,12.83,5.59,14,10.71,4.11,26,22.76,12.6,10.5-8.7-3.57-8,3.2-10-4.15-2.48-5.15-8.28-2.84-6.74-2.58s-6.86.38-4.27-3.09c-3.61,4.63,10,4.17,8.13,8.23,2.34,1.27,1.54,5.5,7.82,3.22s2.92,2.09,5.13,2.84S600.72,95.82,595.66,84.61Z"/></g></g><g class="cls-19"><circle class="cls-20" cx="175.15" cy="330.3" r="18.75"/><path class="cls-21" d="M192.59,330.3a17.44,17.44,0,1,0-17.44,17.44A17.43,17.43,0,0,0,192.59,330.3Z"/><path class="cls-22" d="M191.13,330.3a16,16,0,1,0-16,16A16,16,0,0,0,191.13,330.3Z"/><g class="cls-23"><path class="cls-24" d="M160.71,323.48c10.9-6.07,19.55-.7,21-7.73s-27.24,7.33-14.49,9.82,16.27,2.05,18-1,1.49-5.51,1.57-7.18,8.83,18.61-20.48,10.56c-9.34-2.4-7,.28-7,.28s-4.32,3.67.41,6.24,2.15-1.69,18.24,0c9.05.07,11.69.17,13.89-4.91,0,0,3.66,17.87-12.17,7.47-10.47-2.93-32.67,2.64-15.53.88,8.65,2.2,4.28,6.95,10,2.49,4.8-2.52,7.91,2.52,6.59,1.85s5,4.16,5,.06c.13,5.56-10-2.5-10.85,1.67-2.5-.36-4.28,3.32-7.78-2s-3.4-.06-5.51-.74S150.52,329.16,160.71,323.48Z"/></g></g><g class="cls-7"><circle class="cls-25" cx="39.15" cy="43.3" r="28.56" transform="translate(-5.22 81.24) rotate(-88.41)"/><circle class="cls-26" cx="39.15" cy="43.3" r="23.83"/><circle class="cls-27" cx="39.15" cy="43.3" r="22.03"/><circle class="cls-4" cx="39.15" cy="43.3" r="22.03"/><g class="cls-28"><path class="cls-29" d="M19.24,33.9c15-8.38,27-1,29-10.67s-37.57,10.11-20,13.54S50.67,39.6,53.1,35.36s2.07-7.61,2.17-9.9S67.45,51.12,27,40c-12.89-3.31-9.71.39-9.71.39s-6,5.07.56,8.6,3-2.32,25.16,0c12.48.1,16.12.24,19.15-6.77,0,0,5,24.66-16.77,10.31C31,48.51.35,56.18,24,53.75c11.93,3,5.9,9.59,13.75,3.44,6.61-3.48,10.91,3.47,9.09,2.54s6.91,5.75,6.89.09c.18,7.67-13.79-3.45-15,2.3-3.45-.49-5.9,4.58-10.72-2.71s-4.69-.09-7.61-1S5.18,41.73,19.24,33.9Z"/></g></g></g></g></svg>