<svg id="Capa_1" data-name="Capa 1" xmlns="http://www.w3.org/2000/svg" xmlns:xlink="http://www.w3.org/1999/xlink" viewBox="0 0 518 552"><defs><style>.cls-1{fill:none;}.cls-2{clip-path:url(#clip-path);}.cls-3{fill:url(#Degradado_sin_nombre_19);}.cls-4{clip-path:url(#clip-path-2);}.cls-5{fill:#fff;}.cls-6{opacity:0.1;}.cls-7{fill:url(#linear-gradient);}.cls-8{fill:url(#Degradado_sin_nombre_38);}.cls-9{clip-path:url(#clip-path-4);}.cls-10{fill:url(#linear-gradient-2);}.cls-11{clip-path:url(#clip-path-5);}.cls-12{opacity:0.4;}.cls-13{opacity:0.3;}.cls-14{fill:url(#linear-gradient-3);}.cls-15{fill:url(#linear-gradient-4);}.cls-16{fill:url(#linear-gradient-5);}.cls-17{fill:url(#linear-gradient-6);}.cls-18{fill:url(#linear-gradient-7);}.cls-19{fill:url(#linear-gradient-8);}.cls-20{fill:url(#linear-gradient-9);}.cls-21{fill:url(#linear-gradient-10);}.cls-22{fill:url(#linear-gradient-11);}.cls-23{fill:url(#linear-gradient-12);}.cls-24{fill:url(#linear-gradient-13);}.cls-25{fill:url(#linear-gradient-14);}.cls-26{fill:url(#linear-gradient-15);}.cls-27{fill:url(#linear-gradient-16);}.cls-28{fill:url(#linear-gradient-17);}.cls-29{fill:url(#linear-gradient-18);}.cls-30{fill:url(#linear-gradient-19);}.cls-31{fill:url(#linear-gradient-20);}.cls-32{fill:url(#Degradado_sin_nombre_25);}.cls-33{fill:url(#Degradado_sin_nombre_25-2);}.cls-34{fill:url(#Degradado_sin_nombre_25-3);}.cls-35{fill:url(#Degradado_sin_nombre_25-4);}.cls-36{fill:#efeee8;}.cls-37{clip-path:url(#clip-path-7);}.cls-38{fill:#d8d8d8;}.cls-39{fill:url(#linear-gradient-21);}.cls-40{fill:#aaa9a5;}.cls-41{fill:#445068;}.cls-42{fill:#092f8e;}.cls-43{fill:#1d1d1a;}.cls-44{fill:url(#Degradado_sin_nombre_6);}.cls-45{fill:#596984;}.cls-46{fill:#9eb8dd;}.cls-47{fill:#082359;}.cls-48{clip-path:url(#clip-path-8);}.cls-49{clip-path:url(#clip-path-9);}.cls-50{clip-path:url(#clip-path-10);}</style><clipPath id="clip-path"><rect class="cls-1" x="258.73" y="-563.15" width="291.94" height="320.97" rx="19.35"/></clipPath><linearGradient id="Degradado_sin_nombre_19" x1="56.99" y1="-175.28" x2="1423.99" y2="-175.28" gradientUnits="userSpaceOnUse"><stop offset="0" stop-color="#0e061e"/><stop offset="0.08" stop-color="#130825"/><stop offset="0.2" stop-color="#220c37"/><stop offset="0.33" stop-color="#3b1355"/><stop offset="0.48" stop-color="#5d1d7e"/><stop offset="0.51" stop-color="#641f87"/><stop offset="0.99" stop-color="#f7931e"/></linearGradient><clipPath id="clip-path-2"><rect class="cls-1" x="-196.2" y="-568.28" width="1367" height="786"/></clipPath><linearGradient id="linear-gradient" x1="-309.34" y1="-256.25" x2="700.73" y2="-256.25" gradientUnits="userSpaceOnUse"><stop offset="0" stop-color="#2d62ff"/><stop offset="0.21" stop-color="#641f87"/><stop offset="0.48" stop-color="#1e2f8a"/><stop offset="1" stop-color="#0e061e"/></linearGradient><linearGradient id="Degradado_sin_nombre_38" x1="-220.2" y1="-127.96" x2="1435.65" y2="-127.96" gradientUnits="userSpaceOnUse"><stop offset="0" stop-color="#e19748"/><stop offset="0.55" stop-color="#ff2cdf"/><stop offset="1" stop-color="#0e061e"/></linearGradient><clipPath id="clip-path-4"><path class="cls-1" d="M44.13,356.49c161,335.74,559.65,174.5,453.51-44.64C411.84,173.54,330.75,194.39,257.27,140,197.94,94.07,157.82,3.35,99.93,13.55,38.38,31.23-51,162.89,44.13,356.49Z"/></clipPath><linearGradient id="linear-gradient-2" x1="-638.13" y1="169.74" x2="728.94" y2="169.74" gradientTransform="translate(412.28 126.41) rotate(90)" gradientUnits="userSpaceOnUse"><stop offset="0" stop-color="#0e061e"/><stop offset="0.08" stop-color="#100725"/><stop offset="0.19" stop-color="#150937"/><stop offset="0.32" stop-color="#1d0d55"/><stop offset="0.38" stop-color="#210f65"/><stop offset="0.57" stop-color="#4f1279"/><stop offset="0.76" stop-color="#80158f"/><stop offset="0.95" stop-color="#80518f"/></linearGradient><clipPath id="clip-path-5"><rect class="cls-1" x="-150.46" y="-511.69" width="786" height="1367" transform="matrix(0.09, -1, 1, 0.09, 49.85, 398.13)"/></clipPath><linearGradient id="linear-gradient-3" x1="-751.27" y1="88.78" x2="258.84" y2="88.78" gradientTransform="translate(212.41 -1.28) rotate(5.1)" gradientUnits="userSpaceOnUse"><stop offset="0" stop-color="#2d62ff"/><stop offset="0.21" stop-color="#8f5c9b"/><stop offset="0.48" stop-color="#1e2f8a"/><stop offset="1" stop-color="#0e061e"/></linearGradient><linearGradient id="linear-gradient-4" x1="-662.12" y1="217.06" x2="993.79" y2="217.06" xlink:href="#linear-gradient-3"/><linearGradient id="linear-gradient-5" x1="548.98" y1="589.35" x2="630.37" y2="313.57" gradientTransform="matrix(1, -0.03, 0.04, 1.3, -237.69, -234.84)" gradientUnits="userSpaceOnUse"><stop offset="0" stop-color="#210f65"/><stop offset="0.26" stop-color="#4f1279"/><stop offset="0.52" stop-color="#80158f"/><stop offset="0.95" stop-color="#80518f"/></linearGradient><linearGradient id="linear-gradient-6" x1="-756.67" y1="362.25" x2="-725.56" y2="180.13" gradientTransform="matrix(0.94, 0.35, -0.4, 1.09, 928.47, 288.99)" xlink:href="#linear-gradient-5"/><linearGradient id="linear-gradient-7" x1="491.78" y1="572.47" x2="573.17" y2="296.69" xlink:href="#linear-gradient-5"/><linearGradient id="linear-gradient-8" x1="-577.02" y1="392.94" x2="-545.91" y2="210.82" gradientTransform="matrix(0.94, 0.35, -0.4, 1.09, 928.47, 288.99)" xlink:href="#linear-gradient-5"/><linearGradient id="linear-gradient-9" x1="-60.25" y1="358.25" x2="21.14" y2="82.46" gradientTransform="matrix(1.09, 0.13, -0.12, 0.99, 456.38, 300.84)" xlink:href="#linear-gradient-5"/><linearGradient id="linear-gradient-10" x1="-218.16" y1="311.64" x2="-136.77" y2="35.86" gradientTransform="matrix(1.09, 0.13, -0.12, 0.99, 456.38, 300.84)" xlink:href="#linear-gradient-5"/><linearGradient id="linear-gradient-11" x1="434.49" y1="555.56" x2="515.88" y2="279.78" xlink:href="#linear-gradient-5"/><linearGradient id="linear-gradient-12" x1="-221.33" y1="310.71" x2="-139.94" y2="34.92" gradientTransform="matrix(1.09, 0.13, -0.12, 0.99, 456.38, 300.84)" xlink:href="#linear-gradient-5"/><linearGradient id="linear-gradient-13" x1="633.46" y1="614.28" x2="714.85" y2="338.5" xlink:href="#linear-gradient-5"/><linearGradient id="linear-gradient-14" x1="-63.09" y1="357.41" x2="18.3" y2="81.62" gradientTransform="matrix(1.09, 0.13, -0.12, 0.99, 456.38, 300.84)" xlink:href="#linear-gradient-5"/><linearGradient id="linear-gradient-15" x1="-516.02" y1="403.36" x2="-484.9" y2="221.24" gradientTransform="matrix(0.94, 0.35, -0.4, 1.09, 928.47, 288.99)" xlink:href="#linear-gradient-5"/><linearGradient id="linear-gradient-16" x1="-148.1" y1="332.32" x2="-66.71" y2="56.54" gradientTransform="matrix(1.09, 0.13, -0.12, 0.99, 456.38, 300.84)" xlink:href="#linear-gradient-5"/><linearGradient id="linear-gradient-17" x1="-695" y1="372.78" x2="-663.89" y2="190.67" gradientTransform="matrix(0.94, 0.35, -0.4, 1.09, 928.47, 288.99)" xlink:href="#linear-gradient-5"/><linearGradient id="linear-gradient-18" x1="-308.02" y1="285.12" x2="-226.63" y2="9.34" gradientTransform="matrix(1.09, 0.13, -0.12, 0.99, 456.38, 300.84)" xlink:href="#linear-gradient-5"/><linearGradient id="linear-gradient-19" x1="497.04" y1="574.02" x2="578.43" y2="298.24" xlink:href="#linear-gradient-5"/><linearGradient id="linear-gradient-20" x1="-547.64" y1="397.96" x2="-516.53" y2="215.84" gradientTransform="matrix(0.94, 0.35, -0.4, 1.09, 928.47, 288.99)" xlink:href="#linear-gradient-5"/><linearGradient id="Degradado_sin_nombre_25" x1="311.46" y1="224.2" x2="248.26" y2="472.44" gradientUnits="userSpaceOnUse"><stop offset="0.08" stop-color="#f2f2f2"/><stop offset="0.11" stop-color="#f3f3f3" stop-opacity="0.94"/><stop offset="0.25" stop-color="#f6f6f6" stop-opacity="0.69"/><stop offset="0.39" stop-color="#f9f9f9" stop-opacity="0.48"/><stop offset="0.53" stop-color="#fbfbfb" stop-opacity="0.31"/><stop offset="0.66" stop-color="#fdfdfd" stop-opacity="0.17"/><stop offset="0.78" stop-color="#fefefe" stop-opacity="0.08"/><stop offset="0.9" stop-color="#fff" stop-opacity="0.02"/><stop offset="1" stop-color="#fff" stop-opacity="0"/></linearGradient><linearGradient id="Degradado_sin_nombre_25-2" x1="308.9" y1="234.27" x2="249.36" y2="468.11" xlink:href="#Degradado_sin_nombre_25"/><linearGradient id="Degradado_sin_nombre_25-3" x1="373.06" y1="195.56" x2="312.91" y2="431.82" xlink:href="#Degradado_sin_nombre_25"/><linearGradient id="Degradado_sin_nombre_25-4" x1="247.84" y1="202.37" x2="189.86" y2="430.09" xlink:href="#Degradado_sin_nombre_25"/><clipPath id="clip-path-7"><path class="cls-1" d="M267.26,4.69C164.63,81.3,237.31,249.74,237.31,249.74h59.91S369.9,81.3,267.26,4.69Zm0,188.51a17.67,17.67,0,0,1,0-35.22,17.67,17.67,0,0,1,0,35.22Zm.49-59.85v0h-1v0a28.48,28.48,0,1,1,0-57v0h1v0a28.48,28.48,0,1,1,0,57Z"/></clipPath><linearGradient id="linear-gradient-21" x1="-173.92" y1="324.7" x2="-92.53" y2="48.92" gradientTransform="matrix(1.09, 0.13, -0.12, 0.99, 456.38, 300.84)" xlink:href="#linear-gradient-5"/><linearGradient id="Degradado_sin_nombre_6" x1="266.52" y1="277.97" x2="270.65" y2="309.78" gradientUnits="userSpaceOnUse"><stop offset="0" stop-color="#ff2525"/><stop offset="1" stop-color="#ffe53b"/></linearGradient><clipPath id="clip-path-8"><path class="cls-1" d="M233.89,41.38s35.3,10.17,66.75,0C285.43,16,267.26,4.69,267.26,4.69S249.62,15.21,233.89,41.38Z"/></clipPath><clipPath id="clip-path-9"><rect class="cls-1" x="987.99" y="670.72" width="1366" height="1081"/></clipPath><clipPath id="clip-path-10"><rect class="cls-1" x="-1257.01" y="827.72" width="1366" height="1081"/></clipPath></defs><title>Mesa de trabajo 14</title><g class="cls-2"><rect class="cls-3" x="56.99" y="-568.28" width="1367" height="786"/><g class="cls-4"><path class="cls-5" d="M84.64,242.17a1.08,1.08,0,1,1-1.44-.51A1.07,1.07,0,0,1,84.64,242.17Z"/><path class="cls-5" d="M61.9,275.16a.95.95,0,0,1-1.72.8.95.95,0,1,1,1.72-.8Z"/><path class="cls-5" d="M95.12,261.05a1.87,1.87,0,1,1-2.48-.91A1.86,1.86,0,0,1,95.12,261.05Z"/><path class="cls-5" d="M82.7,282.41a1.87,1.87,0,1,1-2.48-.91A1.86,1.86,0,0,1,82.7,282.41Z"/><path class="cls-5" d="M75.21,321.69a1.37,1.37,0,1,1-1-1.64A1.37,1.37,0,0,1,75.21,321.69Z"/><path class="cls-5" d="M72.06,349.75a1.37,1.37,0,1,1-1-1.65A1.38,1.38,0,0,1,72.06,349.75Z"/><path class="cls-5" d="M67,387.28a1.37,1.37,0,1,1-1-1.65A1.37,1.37,0,0,1,67,387.28Z"/><path class="cls-5" d="M45.82,360.72a1.37,1.37,0,0,1-1.65,1,1.37,1.37,0,0,1,.63-2.67A1.37,1.37,0,0,1,45.82,360.72Z"/><path class="cls-5" d="M51.18,411.15a1.37,1.37,0,1,1-1-1.64A1.37,1.37,0,0,1,51.18,411.15Z"/><path class="cls-5" d="M16.15,317.14a2.06,2.06,0,1,1-1.52-2.48A2.06,2.06,0,0,1,16.15,317.14Z"/><path class="cls-5" d="M64.29,439.25c-3.39-.55-3.55.28-4.53,2.74.36-2.79.48-3.29-2.82-4.49,2.89.4,3.54.73,4.51-2.65C60.94,438.43,61.59,438.15,64.29,439.25Z"/><path class="cls-5" d="M24.69,400.59c-1.7-.27-1.79.15-2.28,1.38.18-1.4.24-1.65-1.41-2.25,1.45.2,1.77.36,2.26-1.33C23,400.19,23.33,400.05,24.69,400.59Z"/><path class="cls-5" d="M18.05,387.46c-.67-.11-.7.06-.89.54.07-.55.09-.65-.56-.88.57.08.7.14.89-.53C17.39,387.3,17.52,387.24,18.05,387.46Z"/><path class="cls-5" d="M37.38,445.93c-.67-.11-.7.05-.89.54.07-.55.09-.65-.56-.88.57.07.7.14.89-.53C36.72,445.77,36.85,445.71,37.38,445.93Z"/><path class="cls-5" d="M37.29,281.68c-.66-.11-.7.06-.89.54.07-.55.1-.65-.55-.88.56.08.69.14.88-.52C36.63,281.52,36.76,281.47,37.29,281.68Z"/><path class="cls-5" d="M90.72,284.6c-.67-.11-.7,0-.9.54.08-.55.1-.65-.55-.89.57.08.7.15.89-.52C90.06,284.44,90.18,284.38,90.72,284.6Z"/><path class="cls-5" d="M6.42,266.35c-3.39-.54-3.55.29-4.53,2.75.36-2.8.48-3.29-2.82-4.49,2.89.4,3.54.73,4.51-2.65C3.06,265.54,3.72,265.26,6.42,266.35Z"/><path class="cls-5" d="M78.29,301.32c-3.38-.54-3.55.29-4.53,2.75.36-2.8.48-3.29-2.82-4.49,2.89.4,3.54.73,4.51-2.65C74.94,300.51,75.59,300.23,78.29,301.32Z"/><path class="cls-5" d="M56,253.27c-3.38-.55-3.55.28-4.53,2.74.37-2.79.48-3.29-2.81-4.49,2.88.4,3.53.73,4.51-2.65C52.69,252.45,53.35,252.17,56,253.27Z"/><path class="cls-5" d="M35.79,262.58a1.39,1.39,0,1,1-1-1.68A1.39,1.39,0,0,1,35.79,262.58Z"/><path class="cls-5" d="M7.84,244a2.16,2.16,0,1,1-1.6-2.6A2.17,2.17,0,0,1,7.84,244Z"/><path class="cls-5" d="M8.23,281.91a1.47,1.47,0,1,1-1.09-1.78A1.47,1.47,0,0,1,8.23,281.91Z"/><path class="cls-5" d="M41.51,298.22a.87.87,0,1,1-.65-1.05A.87.87,0,0,1,41.51,298.22Z"/><path class="cls-5" d="M30.39,338.46a.87.87,0,1,1-.65-1A.86.86,0,0,1,30.39,338.46Z"/><path class="cls-5" d="M42.31,389.44a1.34,1.34,0,1,1-1-1.62A1.34,1.34,0,0,1,42.31,389.44Z"/><path class="cls-5" d="M20.69,424a.87.87,0,1,1,.22-1.21A.86.86,0,0,1,20.69,424Z"/><path class="cls-5" d="M30.23,230.64a.86.86,0,0,1-1.2-.23.87.87,0,0,1,.22-1.21.88.88,0,0,1,1.21.23A.87.87,0,0,1,30.23,230.64Z"/><path class="cls-5" d="M44.66,439.26a.87.87,0,1,1-1-1.43.87.87,0,0,1,1,1.43Z"/><path class="cls-5" d="M3.18,458A.89.89,0,0,1,2,457.72a.88.88,0,0,1,.22-1.21.87.87,0,0,1,1.21.22A.88.88,0,0,1,3.18,458Z"/><path class="cls-5" d="M9.84,427c.1-.07-.05-.44-.32-.84s-.57-.67-.66-.6.05.44.32.83S9.75,427.05,9.84,427Z"/><path class="cls-5" d="M181.51,72.86a1.83,1.83,0,1,1-1.32-2.21A1.82,1.82,0,0,1,181.51,72.86Z"/><path class="cls-5" d="M84.87,20.23a1.49,1.49,0,1,1-1.08-1.81A1.5,1.5,0,0,1,84.87,20.23Z"/><path class="cls-5" d="M163.48,23.48a1,1,0,1,1-.71-1.18A1,1,0,0,1,163.48,23.48Z"/><path class="cls-5" d="M141.39,35.45a1.3,1.3,0,1,1-.94-1.6A1.3,1.3,0,0,1,141.39,35.45Z"/><path class="cls-5" d="M131.19,112.79a1.31,1.31,0,1,1-.95-1.6A1.33,1.33,0,0,1,131.19,112.79Z"/><path class="cls-5" d="M286.43,20.79a1.58,1.58,0,1,1-1.14-1.92A1.57,1.57,0,0,1,286.43,20.79Z"/><path class="cls-5" d="M279.88,64a1.58,1.58,0,1,1-1.14-1.92A1.57,1.57,0,0,1,279.88,64Z"/><path class="cls-5" d="M255.93,33A1.57,1.57,0,0,1,254,34.1a1.58,1.58,0,0,1,.78-3.07A1.58,1.58,0,0,1,255.93,33Z"/><path class="cls-5" d="M261.16,91.27a1.58,1.58,0,1,1-3.06-.78,1.58,1.58,0,0,1,3.06.78Z"/><path class="cls-5" d="M53.68,15.66c-3.9-.69-4.1.27-5.28,3.09.47-3.22.62-3.8-3.17-5.24,3.32.52,4.07.91,5.26-3C49.82,14.66,50.59,14.35,53.68,15.66Z"/><path class="cls-5" d="M182.72,119.72c-3.9-.7-4.1.26-5.28,3.08.47-3.22.61-3.79-3.17-5.23,3.32.51,4.07.9,5.26-3C178.86,118.72,179.63,118.4,182.72,119.72Z"/><path class="cls-5" d="M275.76,123.94c-3.9-.69-4.11.26-5.28,3.09.47-3.22.61-3.8-3.17-5.24,3.32.52,4.07.91,5.26-3C271.9,122.94,272.67,122.63,275.76,123.94Z"/><path class="cls-5" d="M8,75.86c-2-.35-2.06.13-2.65,1.54.24-1.61.31-1.9-1.59-2.62,1.67.26,2,.45,2.64-1.49C6,75.36,6.43,75.2,8,75.86Z"/><path class="cls-5" d="M151.07,137.93c-1.95-.35-2.06.13-2.65,1.55.24-1.62.31-1.9-1.59-2.63,1.67.26,2,.46,2.64-1.49C149.14,137.43,149.52,137.27,151.07,137.93Z"/><path class="cls-5" d="M230.78,78.58c-1.95-.35-2.06.13-2.65,1.54.24-1.61.31-1.9-1.58-2.62,1.66.26,2,.45,2.63-1.5C228.85,78.07,229.23,77.92,230.78,78.58Z"/><path class="cls-5" d="M223.37,63.29c-.76-.14-.8.05-1,.6.1-.63.13-.74-.62-1,.65.1.8.17,1-.59C222.61,63.09,222.76,63,223.37,63.29Z"/><path class="cls-5" d="M244.57,131.14c-.77-.14-.81.05-1,.61.09-.64.12-.75-.62-1,.65.1.8.18,1-.59C243.81,131,244,130.88,244.57,131.14Z"/><path class="cls-5" d="M75.65,45.91c-.76-.14-.8.05-1,.6.09-.63.12-.74-.63-1,.66.11.8.18,1-.58C74.9,45.71,75.05,45.65,75.65,45.91Z"/><path class="cls-5" d="M26.44,106.18c-3.06-.54-3.22.21-4.15,2.42.37-2.53.49-3-2.48-4.11,2.61.41,3.19.71,4.12-2.33C23.41,105.4,24,105.15,26.44,106.18Z"/><path class="cls-5" d="M197.88,33.2c-3.89-.7-4.1.26-5.28,3.08.47-3.22.62-3.79-3.16-5.24,3.32.52,4.06.91,5.25-3C194,32.19,194.79,31.88,197.88,33.2Z"/><path class="cls-5" d="M110.17,50.05c-2.28-.41-2.4.16-3.09,1.81.27-1.89.36-2.22-1.86-3.07,2,.3,2.38.53,3.08-1.74C107.91,49.47,108.36,49.28,110.17,50.05Z"/><path class="cls-5" d="M27.51,41.64a1.34,1.34,0,1,1-1-1.63A1.34,1.34,0,0,1,27.51,41.64Z"/><path class="cls-5" d="M11.49,7.48A2.43,2.43,0,1,1,9.73,4.53,2.43,2.43,0,0,1,11.49,7.48Z"/><path class="cls-5" d="M197.55,60.93a1.61,1.61,0,1,1-1.16-2A1.61,1.61,0,0,1,197.55,60.93Z"/><path class="cls-5" d="M22.53,55.75a1.58,1.58,0,1,1-1.14-1.93A1.57,1.57,0,0,1,22.53,55.75Z"/><path class="cls-5" d="M238.55,7a1,1,0,1,1-.73-1.22A1,1,0,0,1,238.55,7Z"/><path class="cls-5" d="M251.34,66a1.55,1.55,0,1,1-1.12-1.89A1.55,1.55,0,0,1,251.34,66Z"/><path class="cls-5" d="M225.72,105.52a1,1,0,1,1,.29-1.4A1,1,0,0,1,225.72,105.52Z"/><path class="cls-5" d="M105.57,76a1,1,0,1,1,.28-1.4A1,1,0,0,1,105.57,76Z"/><path class="cls-5" d="M253.1,123.59a1,1,0,1,1,.28-1.4A1,1,0,0,1,253.1,123.59Z"/><path class="cls-5" d="M135.69,68.51a1,1,0,1,1,.29-1.4A1,1,0,0,1,135.69,68.51Z"/><path class="cls-5" d="M204.87,144.36a1,1,0,1,1,.28-1.39A1,1,0,0,1,204.87,144.36Z"/><path class="cls-5" d="M213.15,108.75c.11-.07-.05-.5-.36-1s-.64-.78-.75-.7.05.51.35,1S213,108.83,213.15,108.75Z"/><path class="cls-5" d="M118,30.48a1.55,1.55,0,1,1-1.12-1.89A1.55,1.55,0,0,1,118,30.48Z"/><path class="cls-5" d="M89.13,114.19a1.46,1.46,0,1,1-1.06-1.77A1.46,1.46,0,0,1,89.13,114.19Z"/><path class="cls-5" d="M70.45,67.35a1.76,1.76,0,1,1-1.27-2.15A1.77,1.77,0,0,1,70.45,67.35Z"/><path class="cls-5" d="M31.32,76.86a1.43,1.43,0,1,1-1-1.75A1.43,1.43,0,0,1,31.32,76.86Z"/><path class="cls-5" d="M58.78,116.86a1,1,0,0,1-1.23.72,1,1,0,1,1,1.23-.72Z"/><path class="cls-5" d="M323.25,155.29a2.34,2.34,0,1,1-1.74-2.81A2.34,2.34,0,0,1,323.25,155.29Z"/><path class="cls-5" d="M198,89.62a1.91,1.91,0,1,1-1.42-2.3A1.91,1.91,0,0,1,198,89.62Z"/><path class="cls-5" d="M299.09,92.21a1.25,1.25,0,1,1-.93-1.5A1.25,1.25,0,0,1,299.09,92.21Z"/><path class="cls-5" d="M271,108a1.68,1.68,0,1,1-1.24-2A1.68,1.68,0,0,1,271,108Z"/><path class="cls-5" d="M259.4,207.61a1.68,1.68,0,0,1-3.27-.78,1.68,1.68,0,1,1,3.27.78Z"/><path class="cls-5" d="M461.71,44.65a2,2,0,1,1-1.51-2.44A2,2,0,0,1,461.71,44.65Z"/><path class="cls-5" d="M457,86.27a2,2,0,1,1-1.51-2.45A2,2,0,0,1,457,86.27Z"/><path class="cls-5" d="M449.47,141.93a2,2,0,1,1-1.51-2.44A2,2,0,0,1,449.47,141.93Z"/><path class="cls-5" d="M418.07,102.51a2,2,0,1,1-1.51-2.45A2,2,0,0,1,418.07,102.51Z"/><path class="cls-5" d="M426,177.33a2,2,0,1,1-1.5-2.45A2,2,0,0,1,426,177.33Z"/><path class="cls-5" d="M374.11,37.83a3,3,0,1,1-2.25-3.68A3.05,3.05,0,0,1,374.11,37.83Z"/><path class="cls-5" d="M328.57,32.52c-3.88-.63-4.07.33-5.19,3.15.42-3.21.55-3.78-3.22-5.15,3.3.46,4,.84,5.17-3C324.73,31.59,325.49,31.27,328.57,32.52Z"/><path class="cls-5" d="M157.85,84.38c-5-.81-5.27.42-6.72,4.07.54-4.15.71-4.88-4.18-6.66,4.28.6,5.24,1.08,6.7-3.93C152.87,83.17,153.85,82.75,157.85,84.38Z"/><path class="cls-5" d="M325.76,215.47c-5-.81-5.27.42-6.73,4.07.54-4.15.72-4.88-4.17-6.66,4.28.6,5.24,1.08,6.69-3.93C320.78,214.26,321.76,213.84,325.76,215.47Z"/><path class="cls-5" d="M445.38,219c-5-.82-5.26.42-6.72,4.06.54-4.14.72-4.88-4.17-6.66,4.27.6,5.24,1.09,6.69-3.93C440.41,217.81,441.39,217.39,445.38,219Z"/><path class="cls-5" d="M100.35,162.65c-2.52-.41-2.65.21-3.38,2,.27-2.08.36-2.45-2.09-3.34,2.14.3,2.63.54,3.36-2C97.85,162,98.34,161.83,100.35,162.65Z"/><path class="cls-5" d="M285.46,239.52c-2.52-.41-2.64.21-3.37,2,.27-2.08.35-2.45-2.1-3.34,2.15.29,2.63.54,3.36-2C283,238.91,283.45,238.7,285.46,239.52Z"/><path class="cls-5" d="M386.68,161.64c-2.52-.41-2.64.21-3.37,2,.27-2.08.36-2.45-2.1-3.34,2.15.29,2.63.54,3.36-2C384.18,161,384.67,160.82,386.68,161.64Z"/><path class="cls-5" d="M376.85,142.14c-1-.16-1,.09-1.32.8.1-.81.14-1-.82-1.31.84.12,1,.22,1.31-.77C375.87,141.91,376.06,141.82,376.85,142.14Z"/><path class="cls-5" d="M405.46,228.9c-1-.16-1,.08-1.33.8.11-.82.15-1-.82-1.31.85.12,1,.21,1.32-.77C404.48,228.66,404.67,228.58,405.46,228.9Z"/><path class="cls-5" d="M186.69,122.8c-1-.16-1,.08-1.32.8.11-.82.14-1-.82-1.31.84.11,1,.21,1.32-.78C185.72,122.56,185.91,122.48,186.69,122.8Z"/><path class="cls-5" d="M124.68,201.24c-3.94-.64-4.14.33-5.28,3.19.43-3.25.56-3.83-3.27-5.22,3.35.46,4.11.84,5.25-3.09C120.77,200.29,121.54,200,124.68,201.24Z"/><path class="cls-5" d="M343.49,104c-5-.81-5.27.42-6.73,4.07.54-4.15.72-4.88-4.17-6.66,4.28.6,5.24,1.08,6.69-3.93C338.51,102.78,339.49,102.36,343.49,104Z"/><path class="cls-5" d="M230.76,17.19c-5-.81-5.27.42-6.73,4.07.54-4.14.72-4.88-4.17-6.66,4.28.6,5.24,1.08,6.69-3.93C225.78,16,226.76,15.57,230.76,17.19Z"/><path class="cls-5" d="M231.13,127.43c-2.94-.48-3.09.24-3.94,2.38.32-2.43.42-2.86-2.45-3.9,2.51.35,3.08.63,3.93-2.31C228.22,126.72,228.79,126.47,231.13,127.43Z"/><path class="cls-5" d="M466.31,14.44c-5-.82-5.27.42-6.73,4.07.54-4.15.72-4.89-4.17-6.66,4.28.59,5.24,1.08,6.69-3.93C461.33,13.23,462.31,12.81,466.31,14.44Z"/><path class="cls-5" d="M121.88,13.88a2.69,2.69,0,1,1-2-3.25A2.69,2.69,0,0,1,121.88,13.88Z"/><path class="cls-5" d="M124.74,118.29a1.72,1.72,0,1,1-1.27-2.07A1.72,1.72,0,0,1,124.74,118.29Z"/><path class="cls-5" d="M103.48,74.73A3.13,3.13,0,1,1,101.16,71,3.14,3.14,0,0,1,103.48,74.73Z"/><path class="cls-5" d="M334.91,59.27A1.91,1.91,0,1,1,333.49,57,1.91,1.91,0,0,1,334.91,59.27Z"/><path class="cls-5" d="M343.62,139.63a2.07,2.07,0,1,1-1.53-2.48A2.08,2.08,0,0,1,343.62,139.63Z"/><path class="cls-5" d="M118.64,136.52a2,2,0,1,1-1.5-2.45A2,2,0,0,1,118.64,136.52Z"/><path class="cls-5" d="M411.74,9.79a1.28,1.28,0,0,1-1.55,1,1.3,1.3,0,0,1-1-1.55,1.29,1.29,0,0,1,2.51.6Z"/><path class="cls-5" d="M395.21,69.48a1.3,1.3,0,1,1-1-1.55A1.29,1.29,0,0,1,395.21,69.48Z"/><path class="cls-5" d="M412.84,145.11a2,2,0,1,1-1.48-2.4A2,2,0,0,1,412.84,145.11Z"/><path class="cls-5" d="M127,49.22a1.25,1.25,0,1,1-.93-1.5A1.25,1.25,0,0,1,127,49.22Z"/><path class="cls-5" d="M278.51-1A2,2,0,0,1,276.06.48,2,2,0,0,1,274.57-2,2,2,0,0,1,277-3.47,2,2,0,0,1,278.51-1Z"/><path class="cls-5" d="M162.84,16.28A1.91,1.91,0,1,1,161.42,14,1.92,1.92,0,0,1,162.84,16.28Z"/><path class="cls-5" d="M220.37,43.14a2,2,0,1,1,.53-2.82A2,2,0,0,1,220.37,43.14Z"/><path class="cls-5" d="M380.72,196.35a1.29,1.29,0,1,1,.34-1.79A1.29,1.29,0,0,1,380.72,196.35Z"/><path class="cls-5" d="M259.69,44.23a1.29,1.29,0,0,1-1.79-.34A1.29,1.29,0,1,1,260,42.44,1.28,1.28,0,0,1,259.69,44.23Z"/><path class="cls-5" d="M225.74,160.8a1.29,1.29,0,1,1,.33-1.8A1.29,1.29,0,0,1,225.74,160.8Z"/><path class="cls-5" d="M416.27,219a1.29,1.29,0,1,1-1.46-2.13,1.29,1.29,0,0,1,1.46,2.13Z"/><path class="cls-5" d="M264.3,150.62a1.29,1.29,0,1,1-1.46-2.13,1.29,1.29,0,0,1,1.46,2.13Z"/><path class="cls-5" d="M354.71,246.68a1.29,1.29,0,1,1,.33-1.79A1.29,1.29,0,0,1,354.71,246.68Z"/><path class="cls-5" d="M364.63,200.77c.14-.1-.07-.65-.47-1.24s-.85-1-1-.9.08.66.47,1.25S364.49,200.87,364.63,200.77Z"/><path class="cls-5" d="M240.77,102.12a2,2,0,1,1-1.48-2.4A2,2,0,0,1,240.77,102.12Z"/><path class="cls-5" d="M205.39,210.26a1.88,1.88,0,1,1-3.65-.87,1.88,1.88,0,0,1,3.65.87Z"/><path class="cls-5" d="M180.44,150.46a2.27,2.27,0,1,1-1.68-2.74A2.27,2.27,0,0,1,180.44,150.46Z"/><path class="cls-5" d="M130.36,163.47a1.83,1.83,0,1,1-1.36-2.23A1.84,1.84,0,0,1,130.36,163.47Z"/><path class="cls-5" d="M166.44,214.3a1.29,1.29,0,1,1-.95-1.56A1.29,1.29,0,0,1,166.44,214.3Z"/><path class="cls-5" d="M428.57,1A1.11,1.11,0,0,1,427,.67a1.11,1.11,0,0,1,.28-1.52,1.11,1.11,0,0,1,1.53.28A1.1,1.1,0,0,1,428.57,1Z"/><path class="cls-5" d="M518.42,45c-4-.76-4.27.24-5.52,3.15.52-3.34.68-3.93-3.24-5.46,3.45.56,4.22,1,5.49-3C514.42,44,515.22,43.64,518.42,45Z"/><path class="cls-5" d="M327.63-.4a2.09,2.09,0,0,1-2.54,1.48,2.08,2.08,0,0,1-1.48-2.54,2.07,2.07,0,0,1,2.54-1.48A2.07,2.07,0,0,1,327.63-.4Z"/></g><g class="cls-4"><g class="cls-6"><path class="cls-7" d="M-196.22-86.21C-299.64-110.1-40.16-764.12,339.32-120.65s489-373.64,189-297-457.47-32.65-273-188.65H-16.2s46.54,25.45-190.44,248.94S-196.22-86.21-196.22-86.21Z"/><path class="cls-8" d="M-220.2,2.39c110-456.27,637.5-109.49,685.49,244.49,24.24,178.71,402.92,19.06,274.52-114s364.48-73.5,187.49-255c-170-174.35-118.17-742.41,1.5-318,192,681,273.3-618.48,291-106.49,4.51,130.49-420,960,186,574.47,113.26-72-132,306-132,306l-126-109.5s-250.49-126-265.49-33-355.48,222-355.48,222L333.3,249.88S-4.2-123.6-220.2,54.89Z"/></g></g></g><g class="cls-9"><rect class="cls-10" x="-150.46" y="-511.69" width="786" height="1367" transform="matrix(0.09, -1, 1, 0.09, 49.85, 398.13)"/><g class="cls-11"><g class="cls-12"><path class="cls-5" d="M63.5,131.92a1.22,1.22,0,1,1-1.6-.63A1.22,1.22,0,0,1,63.5,131.92Z"/><path class="cls-5" d="M36.64,168.27a1.07,1.07,0,1,1-1.41-.56A1.07,1.07,0,0,1,36.64,168.27Z"/><path class="cls-5" d="M74.61,153.59a2.11,2.11,0,1,1-2.76-1.11A2.11,2.11,0,0,1,74.61,153.59Z"/><path class="cls-5" d="M59.82,177.21a2.11,2.11,0,1,1-2.76-1.11A2.1,2.1,0,0,1,59.82,177.21Z"/><path class="cls-5" d="M49.92,221.23a1.54,1.54,0,1,1-1.09-1.9A1.55,1.55,0,0,1,49.92,221.23Z"/><path class="cls-5" d="M45.33,252.74a1.54,1.54,0,1,1-1.08-1.89A1.54,1.54,0,0,1,45.33,252.74Z"/><path class="cls-5" d="M38.24,294.87a1.54,1.54,0,1,1-1.08-1.9A1.54,1.54,0,0,1,38.24,294.87Z"/><path class="cls-5" d="M15.34,264.14a1.54,1.54,0,1,1-1.09-1.9A1.54,1.54,0,0,1,15.34,264.14Z"/><path class="cls-5" d="M19.51,321.2a1.54,1.54,0,1,1-1.08-1.9A1.54,1.54,0,0,1,19.51,321.2Z"/><path class="cls-5" d="M33.26,353.36c-3.8-.75-4,.19-5.21,2.92.51-3.14.66-3.69-3-5.16,3.23.56,3.95.95,5.18-2.82C29.5,352.32,30.26,352,33.26,353.36Z"/><path class="cls-5" d="M2.67,359.89c-.75-.14-.79,0-1,.58.1-.62.13-.73-.59-1,.64.11.78.19,1-.55C1.93,359.69,2.08,359.63,2.67,359.89Z"/><path class="cls-5" d="M8.65,174.71c-.74-.14-.79,0-1,.58.1-.62.13-.73-.59-1,.63.11.78.19,1-.55C7.92,174.51,8.06,174.45,8.65,174.71Z"/><path class="cls-5" d="M68.78,180c-.75-.15-.79,0-1,.57.1-.61.13-.72-.59-1,.64.11.78.18,1-.56C68,179.77,68.19,179.71,68.78,180Z"/><path class="cls-5" d="M54.15,198.38c-3.8-.75-4,.19-5.21,2.92.51-3.13.66-3.69-3-5.16,3.24.56,4,1,5.18-2.82C50.4,197.34,51.15,197,54.15,198.38Z"/><path class="cls-5" d="M30.85,143.37c-3.8-.74-4,.19-5.21,2.93.51-3.14.66-3.7-3-5.16,3.24.55,4,.94,5.18-2.83C27.1,142.33,27.85,142,30.85,143.37Z"/><path class="cls-5" d="M7.67,153.12a1.57,1.57,0,1,1-1.1-1.93A1.57,1.57,0,0,1,7.67,153.12Z"/><path class="cls-5" d="M12.79,193.51a1,1,0,1,1-.69-1.2A1,1,0,0,1,12.79,193.51Z"/><path class="cls-5" d="M10.32,296.39a1.51,1.51,0,1,1-1.06-1.86A1.51,1.51,0,0,1,10.32,296.39Z"/><path class="cls-5" d="M2.59,116.91a1,1,0,1,1,.3-1.36A1,1,0,0,1,2.59,116.91Z"/><path class="cls-5" d="M11.12,352.65a1,1,0,1,1,.3-1.36A1,1,0,0,1,11.12,352.65Z"/><path class="cls-5" d="M368.14,219.61a2.58,2.58,0,1,1-3.42-1.28A2.59,2.59,0,0,1,368.14,219.61Z"/><path class="cls-5" d="M312.83,297.66a2.26,2.26,0,1,1-3-1.13A2.28,2.28,0,0,1,312.83,297.66Z"/><path class="cls-5" d="M392.57,265a4.46,4.46,0,1,1-5.9-2.24A4.46,4.46,0,0,1,392.57,265Z"/><path class="cls-5" d="M80.52,482.5A2,2,0,1,1,79,480.07,2,2,0,0,1,80.52,482.5Z"/><path class="cls-5" d="M34.92,507.42a2.71,2.71,0,1,1-2-3.3A2.72,2.72,0,0,1,34.92,507.42Z"/><path class="cls-5" d="M362.26,315.6a4.46,4.46,0,1,1-5.89-2.24A4.44,4.44,0,0,1,362.26,315.6Z"/><path class="cls-5" d="M343.16,409.16a3.26,3.26,0,1,1-2.38-4A3.27,3.27,0,0,1,343.16,409.16Z"/><path class="cls-5" d="M334.78,476a3.26,3.26,0,1,1-2.38-4A3.27,3.27,0,0,1,334.78,476Z"/><path class="cls-5" d="M271.8,501.41a3.27,3.27,0,1,1-2.38-4A3.26,3.26,0,0,1,271.8,501.41Z"/><path class="cls-5" d="M202.31,396.45a4.9,4.9,0,1,1-3.55-6A4.9,4.9,0,0,1,202.31,396.45Z"/><path class="cls-5" d="M71.17,200.14c-5.55-1-5.85.4-7.51,4.43.66-4.6.86-5.41-4.54-7.45,4.74.72,5.8,1.27,7.48-4.27C65.67,198.74,66.76,198.29,71.17,200.14Z"/><path class="cls-5" d="M129.14,387c-6.24-1.1-6.56.44-8.43,5,.74-5.15,1-6.06-5.08-8.34,5.3.8,6.5,1.42,8.38-4.79C123,385.45,124.19,384.94,129.14,387Z"/><path class="cls-5" d="M253.88,312.46c-1.59-.27-1.67.12-2.14,1.26.18-1.31.24-1.54-1.3-2.12,1.35.21,1.66.36,2.14-1.22C252.31,312.06,252.62,311.93,253.88,312.46Z"/><path class="cls-5" d="M381.33,321.07c-1.59-.28-1.67.11-2.15,1.26.19-1.31.25-1.54-1.29-2.12,1.35.2,1.65.36,2.13-1.22C379.75,320.67,380.07,320.54,381.33,321.07Z"/><path class="cls-5" d="M151.74,502.33c-8.07-1.41-8.49.58-10.9,6.42.95-6.66,1.24-7.85-6.59-10.8,6.87,1,8.42,1.84,10.85-6.19C143.75,500.29,145.33,499.64,151.74,502.33Z"/><path class="cls-5" d="M180.65,274.92c-8.06-1.41-8.48.57-10.9,6.41.95-6.66,1.25-7.84-6.58-10.8,6.87,1.05,8.41,1.85,10.85-6.19C172.67,272.88,174.25,272.22,180.65,274.92Z"/><path class="cls-5" d="M351.15,360.62c-8.07-1.41-8.49.57-10.9,6.42.95-6.67,1.25-7.85-6.58-10.8,6.86,1,8.41,1.84,10.84-6.2C343.17,358.58,344.75,357.92,351.15,360.62Z"/><path class="cls-5" d="M299.53,245.21c-8.07-1.41-8.49.57-10.9,6.41.95-6.66,1.24-7.84-6.59-10.8,6.87,1.05,8.41,1.85,10.85-6.19C291.54,243.17,293.12,242.51,299.53,245.21Z"/><path class="cls-5" d="M250.89,266.83a3.33,3.33,0,1,1-2.41-4.05A3.34,3.34,0,0,1,250.89,266.83Z"/><path class="cls-5" d="M138.82,430.19a3.08,3.08,0,1,1-2.25-3.73A3.09,3.09,0,0,1,138.82,430.19Z"/><path class="cls-5" d="M184.74,221.59a5.16,5.16,0,1,1-3.75-6.27A5.15,5.15,0,0,1,184.74,221.59Z"/><path class="cls-5" d="M184.5,312.1a3.52,3.52,0,1,1-2.56-4.27A3.53,3.53,0,0,1,184.5,312.1Z"/><path class="cls-5" d="M146.52,328.64a2.52,2.52,0,1,1-1.83-3.05A2.51,2.51,0,0,1,146.52,328.64Z"/><path class="cls-5" d="M263.43,352.07a2.08,2.08,0,1,1-1.51-2.52A2.07,2.07,0,0,1,263.43,352.07Z"/><path class="cls-5" d="M235.65,447.8a2.08,2.08,0,1,1-1.52-2.51A2.08,2.08,0,0,1,235.65,447.8Z"/><path class="cls-5" d="M49.23,332.05a3.27,3.27,0,1,1-2.38-4A3.28,3.28,0,0,1,49.23,332.05Z"/><path class="cls-5" d="M30.75,256.52A2.08,2.08,0,1,1,29.24,254,2.07,2.07,0,0,1,30.75,256.52Z"/><path class="cls-5" d="M18.05,404.52a2.08,2.08,0,1,1,.58-2.88A2.07,2.07,0,0,1,18.05,404.52Z"/><path class="cls-5" d="M238.61,190.4a2.08,2.08,0,1,1,.57-2.88A2.08,2.08,0,0,1,238.61,190.4Z"/><path class="cls-5" d="M96.31,276.54a2.08,2.08,0,1,1,.57-2.88A2.07,2.07,0,0,1,96.31,276.54Z"/><path class="cls-5" d="M131,186.59a2.08,2.08,0,1,1,.58-2.88A2.07,2.07,0,0,1,131,186.59Z"/><path class="cls-5" d="M502.17,232.33a1.61,1.61,0,1,1-2.12-.84A1.61,1.61,0,0,1,502.17,232.33Z"/><path class="cls-5" d="M222,86.7a2.15,2.15,0,1,1-1.52-2.63A2.14,2.14,0,0,1,222,86.7Z"/><path class="cls-5" d="M134.59,231.79a3,3,0,1,1-2.13-3.66A3,3,0,0,1,134.59,231.79Z"/><path class="cls-5" d="M361.16,434.49a2.68,2.68,0,1,1-1.91-3.27A2.68,2.68,0,0,1,361.16,434.49Z"/><path class="cls-5" d="M219.76,355.78a2.19,2.19,0,1,1-1.56-2.67A2.19,2.19,0,0,1,219.76,355.78Z"/><path class="cls-5" d="M280.32,123.58a2.06,2.06,0,1,1-1.46-2.51A2.06,2.06,0,0,1,280.32,123.58Z"/><path class="cls-5" d="M195.51,214.27a2.19,2.19,0,1,1-1.56-2.68A2.19,2.19,0,0,1,195.51,214.27Z"/><path class="cls-5" d="M335.32,361.63a1.43,1.43,0,1,1-1-1.74A1.42,1.42,0,0,1,335.32,361.63Z"/><path class="cls-5" d="M302.68,378.93a1.92,1.92,0,0,1-3.72-1,1.92,1.92,0,1,1,3.72,1Z"/><path class="cls-5" d="M286.62,492.52a1.92,1.92,0,1,1-1.36-2.37A1.93,1.93,0,0,1,286.62,492.52Z"/><path class="cls-5" d="M516.15,359.35a2.32,2.32,0,1,1-1.65-2.84A2.32,2.32,0,0,1,516.15,359.35Z"/><path class="cls-5" d="M505.94,422.81a2.32,2.32,0,1,1-1.66-2.84A2.32,2.32,0,0,1,505.94,422.81Z"/><path class="cls-5" d="M471.14,376.81a2.32,2.32,0,1,1-1.65-2.84A2.32,2.32,0,0,1,471.14,376.81Z"/><path class="cls-5" d="M478,462.63a2.32,2.32,0,1,1-1.65-2.84A2.31,2.31,0,0,1,478,462.63Z"/><path class="cls-5" d="M422.69,301.56a3.49,3.49,0,1,1-2.47-4.27A3.48,3.48,0,0,1,422.69,301.56Z"/><path class="cls-5" d="M331.25,160.8c-3.95-.74-4.17.23-5.39,3.08.51-3.26.66-3.84-3.15-5.34,3.36.56,4.11,1,5.35-3C327.35,159.75,328.12,159.44,331.25,160.8Z"/><path class="cls-5" d="M370.76,294.19c-4.42-.83-4.67.26-6,3.45.57-3.65.74-4.3-3.54-6,3.77.62,4.61,1.07,6-3.32C366.39,293,367.26,292.67,370.76,294.19Z"/><path class="cls-5" d="M174,348.64c-5.73-1.07-6,.33-7.81,4.47.73-4.73,1-5.57-4.58-7.74,4.87.8,6,1.38,7.76-4.31C168.31,347.12,169.44,346.67,174,348.64Z"/><path class="cls-5" d="M362.31,503.41c-5.73-1.08-6,.33-7.81,4.46.73-4.73,1-5.57-4.58-7.74,4.87.8,6,1.39,7.76-4.31C356.65,501.88,357.78,501.43,362.31,503.41Z"/><path class="cls-5" d="M149.24,178.71c-3.2-.6-3.38.19-4.37,2.5.41-2.65.54-3.12-2.57-4.33,2.73.45,3.34.77,4.35-2.41C146.07,177.86,146.71,177.6,149.24,178.71Z"/><path class="cls-5" d="M499.06,510.88c-5.72-1.08-6,.33-7.81,4.46.74-4.73,1-5.57-4.58-7.74,4.87.81,6,1.39,7.77-4.3C493.4,509.35,494.53,508.9,499.06,510.88Z"/><path class="cls-5" d="M106,436.54c-2.87-.54-3,.16-3.92,2.24.37-2.37.48-2.8-2.3-3.88,2.45.4,3,.69,3.9-2.16C103.11,435.77,103.67,435.55,106,436.54Z"/><path class="cls-5" d="M315.52,529.76c-2.87-.54-3,.17-3.92,2.24.37-2.37.48-2.79-2.3-3.88,2.45.4,3,.69,3.9-2.16C312.68,529,313.25,528.77,315.52,529.76Z"/><path class="cls-5" d="M433.54,443.56c-2.87-.54-3,.16-3.92,2.24.37-2.38.49-2.8-2.29-3.89,2.44.41,3,.7,3.89-2.16C430.7,442.79,431.27,442.57,433.54,443.56Z"/><path class="cls-5" d="M422.85,421c-1.12-.21-1.19.06-1.54.87.15-.93.19-1.09-.9-1.52,1,.16,1.18.28,1.53-.84C421.74,420.68,422,420.59,422.85,421Z"/><path class="cls-5" d="M453.1,521c-1.12-.21-1.19.07-1.53.88.14-.93.18-1.1-.9-1.52.95.16,1.17.27,1.52-.85C452,520.74,452.21,520.65,453.1,521Z"/><path class="cls-5" d="M205.87,393.41c-1.13-.21-1.19.07-1.54.88.15-.93.19-1.09-.9-1.52,1,.16,1.17.27,1.53-.85C204.75,393.11,205,393,205.87,393.41Z"/><path class="cls-5" d="M158.42,243.06c-1.13-.21-1.19.07-1.54.88.15-.93.19-1.1-.9-1.52,1,.16,1.17.27,1.53-.85C157.31,242.76,157.53,242.67,158.42,243.06Z"/><path class="cls-5" d="M460.12,242.32c-1.12-.22-1.18.06-1.53.87.14-.93.19-1.09-.9-1.52.95.16,1.17.27,1.52-.84C459,242,459.23,241.93,460.12,242.32Z"/><path class="cls-5" d="M184.13,155.71c-1.13-.21-1.19.06-1.54.88.15-.93.19-1.1-.9-1.52,1,.15,1.17.27,1.53-.85C183,155.41,183.24,155.32,184.13,155.71Z"/><path class="cls-5" d="M132.68,481.38c-4.49-.84-4.74.26-6.13,3.5.58-3.71.76-4.37-3.59-6.07,3.82.63,4.68,1.09,6.09-3.38C128.24,480.18,129.13,479.83,132.68,481.38Z"/><path class="cls-5" d="M385.78,376.38c-5.72-1.08-6,.33-7.81,4.46.73-4.73,1-5.57-4.58-7.74,4.87.81,6,1.39,7.76-4.3C380.12,374.85,381.25,374.4,385.78,376.38Z"/><path class="cls-5" d="M259.29,273.86c-5.72-1.07-6,.33-7.81,4.46.74-4.72,1-5.56-4.58-7.73,4.87.8,6,1.38,7.77-4.31C253.63,272.34,254.76,271.89,259.29,273.86Z"/><path class="cls-5" d="M408.4,215c-5.72-1.08-6,.33-7.81,4.46.74-4.73,1-5.57-4.58-7.74,4.88.81,6,1.39,7.77-4.3C402.75,213.43,403.87,213,408.4,215Z"/><path class="cls-5" d="M256.57,400c-3.35-.63-3.54.19-4.58,2.62.44-2.78.57-3.27-2.68-4.54,2.86.47,3.49.81,4.55-2.53C253.26,399.08,253.92,398.82,256.57,400Z"/><path class="cls-5" d="M223.79,130.14c-3.62-.68-3.82.21-4.94,2.83.46-3,.6-3.53-2.91-4.9,3.09.51,3.78.87,4.92-2.73C220.21,129.18,220.92,128.89,223.79,130.14Z"/><path class="cls-5" d="M528.84,277.44c-5.72-1.08-6,.33-7.81,4.46.74-4.73,1-5.57-4.58-7.74,4.87.81,6,1.39,7.77-4.3C523.18,275.91,524.31,275.46,528.84,277.44Z"/><path class="cls-5" d="M493.19,194.92c-5.72-1.08-6,.33-7.81,4.46.73-4.73,1-5.57-4.58-7.74,4.87.8,6,1.39,7.76-4.31C487.53,193.39,488.66,192.94,493.19,194.92Z"/><path class="cls-5" d="M458.41,209.84a2.36,2.36,0,1,1-1.67-2.89A2.37,2.37,0,0,1,458.41,209.84Z"/><path class="cls-5" d="M134.83,267a3.08,3.08,0,1,1-2.19-3.77A3.07,3.07,0,0,1,134.83,267Z"/><path class="cls-5" d="M135.13,386.49a2,2,0,1,1-1.41-2.41A2,2,0,0,1,135.13,386.49Z"/><path class="cls-5" d="M112,336a3.58,3.58,0,1,1-2.55-4.36A3.58,3.58,0,0,1,112,336Z"/><path class="cls-5" d="M206.29,109.45a4,4,0,1,1-2.86-4.92A4,4,0,0,1,206.29,109.45Z"/><path class="cls-5" d="M377.25,325a2.19,2.19,0,1,1-1.57-2.68A2.2,2.2,0,0,1,377.25,325Z"/><path class="cls-5" d="M384.91,417.16a2.36,2.36,0,1,1-1.68-2.89A2.38,2.38,0,0,1,384.91,417.16Z"/><path class="cls-5" d="M411.79,177.08a3.67,3.67,0,1,1-2.6-4.49A3.66,3.66,0,0,1,411.79,177.08Z"/><path class="cls-5" d="M410.8,241.43a2.5,2.5,0,1,1-1.78-3.06A2.52,2.52,0,0,1,410.8,241.43Z"/><path class="cls-5" d="M383.65,252.84a1.79,1.79,0,1,1-1.27-2.18A1.79,1.79,0,0,1,383.65,252.84Z"/><path class="cls-5" d="M127.62,407.17a2.33,2.33,0,1,1-1.65-2.85A2.33,2.33,0,0,1,127.62,407.17Z"/><path class="cls-5" d="M466.55,270.56a1.46,1.46,0,0,1-1.8,1,1.47,1.47,0,1,1,1.8-1Z"/><path class="cls-5" d="M445.93,338.37a1.48,1.48,0,1,1-1.05-1.8A1.47,1.47,0,0,1,445.93,338.37Z"/><path class="cls-5" d="M463.94,425.4a2.28,2.28,0,1,1-1.62-2.79A2.28,2.28,0,0,1,463.94,425.4Z"/><path class="cls-5" d="M139.7,307.54a1.43,1.43,0,1,1-1-1.75A1.43,1.43,0,0,1,139.7,307.54Z"/><path class="cls-5" d="M314.44,254.38a2.32,2.32,0,1,1-1.65-2.83A2.32,2.32,0,0,1,314.44,254.38Z"/><path class="cls-5" d="M181.62,270.88a2.19,2.19,0,1,1-1.56-2.68A2.19,2.19,0,0,1,181.62,270.88Z"/><path class="cls-5" d="M188,198.75a1.79,1.79,0,0,1-3.46-.92,1.79,1.79,0,0,1,3.46.92Z"/><path class="cls-5" d="M302,200.51a1.48,1.48,0,0,1-1.81,1.05,1.5,1.5,0,0,1-1.06-1.8,1.48,1.48,0,0,1,2.87.75Z"/><path class="cls-5" d="M244.88,240.62a2.32,2.32,0,1,1,2-2.6A2.34,2.34,0,0,1,244.88,240.62Z"/><path class="cls-5" d="M260.17,230.62a1.48,1.48,0,1,1,1.28-1.66A1.47,1.47,0,0,1,260.17,230.62Z"/><path class="cls-5" d="M246.67,303.25a2.32,2.32,0,1,1,.68-3.21A2.32,2.32,0,0,1,246.67,303.25Z"/><path class="cls-5" d="M425.74,483.1a1.48,1.48,0,1,1,.43-2A1.47,1.47,0,0,1,425.74,483.1Z"/><path class="cls-5" d="M291.62,305.62a1.48,1.48,0,0,1-2-.44,1.48,1.48,0,1,1,2.48-1.6A1.47,1.47,0,0,1,291.62,305.62Z"/><path class="cls-5" d="M260,175.29a1.48,1.48,0,1,1,.44-2A1.48,1.48,0,0,1,260,175.29Z"/><path class="cls-5" d="M450.37,155.4a1.48,1.48,0,0,1-2-.44,1.48,1.48,0,1,1,2.48-1.61A1.49,1.49,0,0,1,450.37,155.4Z"/><path class="cls-5" d="M348.42,215.35a1.48,1.48,0,1,1,.44-2A1.48,1.48,0,0,1,348.42,215.35Z"/><path class="cls-5" d="M373.91,151.71a1.48,1.48,0,1,1,.43-2.05A1.47,1.47,0,0,1,373.91,151.71Z"/><path class="cls-5" d="M249.45,438a1.48,1.48,0,0,1-1.61-2.49,1.49,1.49,0,0,1,2,.44A1.47,1.47,0,0,1,249.45,438Z"/><path class="cls-5" d="M465.75,510.05a1.48,1.48,0,1,1,.43-2A1.47,1.47,0,0,1,465.75,510.05Z"/><path class="cls-5" d="M293.85,427.46a1.48,1.48,0,1,1,.43-2A1.46,1.46,0,0,1,293.85,427.46Z"/><path class="cls-5" d="M394.54,539.94a1.48,1.48,0,1,1,.43-2A1.47,1.47,0,0,1,394.54,539.94Z"/><path class="cls-5" d="M235.68,114.09c.16-.11-.06-.75-.51-1.44s-.94-1.15-1.1-1.05.07.76.51,1.44S235.51,114.19,235.68,114.09Z"/><path class="cls-5" d="M407.2,487.7c.16-.11-.06-.75-.51-1.44s-.94-1.15-1.1-1.05.07.76.51,1.44S407,487.8,407.2,487.7Z"/><path class="cls-5" d="M268.32,371.3a2.28,2.28,0,1,1-1.62-2.79A2.27,2.27,0,0,1,268.32,371.3Z"/><path class="cls-5" d="M224.76,494a2.15,2.15,0,1,1-1.53-2.61A2.15,2.15,0,0,1,224.76,494Z"/><path class="cls-5" d="M197.92,424.88a2.59,2.59,0,1,1-1.84-3.18A2.6,2.6,0,0,1,197.92,424.88Z"/><path class="cls-5" d="M140.26,438.33a2.11,2.11,0,0,1-2.57,1.49,2.11,2.11,0,0,1,1.08-4.07A2.12,2.12,0,0,1,140.26,438.33Z"/><path class="cls-5" d="M180.09,497.51a1.48,1.48,0,0,1-2.86-.75,1.48,1.48,0,0,1,2.86.75Z"/><path class="cls-5" d="M484.81,22.83a1.22,1.22,0,0,1-1.5.88,1.24,1.24,0,1,1,.63-2.39A1.22,1.22,0,0,1,484.81,22.83Z"/><path class="cls-5" d="M434.54,106.49a1.72,1.72,0,1,1-1.23-2.11A1.73,1.73,0,0,1,434.54,106.49Z"/><path class="cls-5" d="M483.7,177.87a1.26,1.26,0,1,1-2.44-.64,1.25,1.25,0,0,1,1.54-.89A1.26,1.26,0,0,1,483.7,177.87Z"/><path class="cls-5" d="M518.44,44.05a1.17,1.17,0,0,1-1.44.84,1.18,1.18,0,1,1,1.44-.84Z"/><path class="cls-5" d="M469.63,96.35a1.26,1.26,0,1,1-.9-1.54A1.25,1.25,0,0,1,469.63,96.35Z"/><path class="cls-5" d="M457.31,173.79c-3.3-.62-3.48.19-4.5,2.58.42-2.73.55-3.21-2.65-4.46,2.81.46,3.44.79,4.48-2.49C454,172.91,454.69,172.65,457.31,173.79Z"/><path class="cls-5" d="M443,75.89c-1.84-.34-1.94.11-2.51,1.45.23-1.53.3-1.8-1.49-2.5,1.58.26,1.93.45,2.51-1.39C441.13,75.4,441.49,75.26,443,75.89Z"/><path class="cls-5" d="M418.17,224.48c-1.66-.31-1.75.09-2.26,1.29.21-1.37.28-1.61-1.32-2.24,1.4.23,1.72.4,2.24-1.24C416.53,224,416.86,223.91,418.17,224.48Z"/><path class="cls-5" d="M475.71,199.57c-.64-.13-.68,0-.88.5.08-.53.11-.63-.52-.87.55.09.68.15.88-.49C475.07,199.39,475.2,199.34,475.71,199.57Z"/><path class="cls-5" d="M448.28,113c-.65-.13-.68,0-.88.5.08-.53.11-.63-.52-.87.55.09.67.15.88-.49C447.64,112.79,447.77,112.74,448.28,113Z"/><path class="cls-5" d="M463,62.62c-.65-.12-.68,0-.88.51.08-.54.1-.64-.52-.88.55.09.67.16.88-.49C462.4,62.45,462.53,62.4,463,62.62Z"/><path class="cls-5" d="M433.6,250.3c-2.59-.49-2.73.15-3.53,2,.33-2.14.43-2.52-2.07-3.5,2.2.36,2.69.62,3.51-1.95C431,249.61,431.55,249.4,433.6,250.3Z"/><path class="cls-5" d="M506.42,130.65c-3.3-.62-3.48.19-4.5,2.58.43-2.73.55-3.21-2.64-4.46,2.81.46,3.44.79,4.47-2.49C503.16,129.77,503.81,129.51,506.42,130.65Z"/><path class="cls-5" d="M504.93,203.32c-1.93-.37-2,.11-2.63,1.51.24-1.6.32-1.88-1.55-2.62,1.64.27,2,.47,2.62-1.45C503,202.8,503.4,202.65,504.93,203.32Z"/><path class="cls-5" d="M485.88,47.86c-2.09-.39-2.21.13-2.85,1.63.27-1.72.35-2-1.67-2.82,1.77.29,2.17.51,2.83-1.57C483.81,47.31,484.22,47.14,485.88,47.86Z"/><path class="cls-5" d="M434.71,126.75a1.78,1.78,0,1,1-1.27-2.17A1.78,1.78,0,0,1,434.71,126.75Z"/><path class="cls-5" d="M435,195.62a1.13,1.13,0,1,1-.81-1.39A1.14,1.14,0,0,1,435,195.62Z"/><path class="cls-5" d="M421.62,166.57a2.06,2.06,0,1,1-1.47-2.52A2.07,2.07,0,0,1,421.62,166.57Z"/><path class="cls-5" d="M475.78,36a2.32,2.32,0,1,1-1.65-2.83A2.33,2.33,0,0,1,475.78,36Z"/><path class="cls-5" d="M430.64,207.54a1.34,1.34,0,0,1-1.64,1,1.34,1.34,0,0,1,.69-2.59A1.35,1.35,0,0,1,430.64,207.54Z"/><path class="cls-5" d="M437.54,150.13a.82.82,0,0,1-1,.58.81.81,0,0,1-.59-1,.83.83,0,0,1,1.6.42Z"/><path class="cls-5" d="M461.67,129a1.26,1.26,0,0,1-2.44-.65,1.26,1.26,0,1,1,2.44.65Z"/><path class="cls-5" d="M465.31,87.41a1,1,0,0,1-1.26.74,1,1,0,0,1,.53-2A1,1,0,0,1,465.31,87.41Z"/><path class="cls-5" d="M498.1,111.5a1.34,1.34,0,0,1-1.51-1.15,1.35,1.35,0,0,1,1.17-1.5,1.34,1.34,0,0,1,.34,2.65Z"/><path class="cls-5" d="M506.9,105.73A.85.85,0,0,1,506,105a.85.85,0,1,1,1.69-.22A.85.85,0,0,1,506.9,105.73Z"/><path class="cls-5" d="M499.17,147.59a1.34,1.34,0,1,1,.39-1.85A1.35,1.35,0,0,1,499.17,147.59Z"/><path class="cls-5" d="M506.75,73.85a.83.83,0,0,1-1.17-.25.85.85,0,1,1,1.42-.93A.84.84,0,0,1,506.75,73.85Z"/><path class="cls-5" d="M500.85,225.23a.84.84,0,0,1-1.17-.25.85.85,0,1,1,1.17.25Z"/><path class="cls-5" d="M492.72,38.6c.09-.06,0-.43-.3-.82s-.54-.67-.63-.61,0,.44.29.83S492.62,38.67,492.72,38.6Z"/><path class="cls-5" d="M511.68,186.79a1.31,1.31,0,1,1-.93-1.61A1.3,1.3,0,0,1,511.68,186.79Z"/><path class="cls-5" d="M486.66,257.51a1.24,1.24,0,1,1-.88-1.5A1.23,1.23,0,0,1,486.66,257.51Z"/><path class="cls-5" d="M471.16,217.7a1.49,1.49,0,1,1-1.07-1.83A1.5,1.5,0,0,1,471.16,217.7Z"/><path class="cls-5" d="M437.94,225.49a1.21,1.21,0,1,1-.86-1.49A1.21,1.21,0,0,1,437.94,225.49Z"/><path class="cls-5" d="M460.93,259.56a.87.87,0,0,1-1.05.61.85.85,0,1,1,1.05-.61Z"/><path class="cls-5" d="M494.59,347.08c-2.8-.57-3,.12-3.86,2.14.39-2.32.5-2.73-2.21-3.83,2.39.43,2.92.72,3.84-2.07C491.82,346.29,492.38,346.08,494.59,347.08Z"/><path class="cls-5" d="M520.26,391.3c-4.39-.88-4.64.2-6,3.36.61-3.63.79-4.27-3.45-6,3.74.66,4.57,1.12,6-3.24C515.93,390.08,516.8,389.74,520.26,391.3Z"/><path class="cls-5" d="M501.71,248.72a3.5,3.5,0,1,1-2.44-4.31A3.5,3.5,0,0,1,501.71,248.72Z"/><path class="cls-5" d="M516.16,318.56a2.28,2.28,0,1,1-1.59-2.81A2.29,2.29,0,0,1,516.16,318.56Z"/></g></g><g class="cls-11"><g class="cls-13"><path class="cls-14" d="M-446.19,199.78c-100.89-33,215.7-661.36,536.48,13.3s520.26-328.7,214.65-279S-147.82-139.12,49.8-278.1l-270.45-24.13s44.09,29.49-211.82,231S-446.19,199.78-446.19,199.78Z"/><path class="cls-15" d="M-477.95,285.9c150.12-444.69,644.71-52.39,661.05,304.45,8.25,180.15,399.63,54.8,283.56-89.14S836.23,460.4,676.07,263.89c-153.86-188.78-51.7-750,29.76-316.59,130.7,695.34,327.2-591.74,299.3-80.21C998-2.53,501.48,785.92,1139.32,455.82c119.22-61.69-158.67,293.05-158.67,293.05L864.89,628.6s-238.3-147.76-261.5-56.47S229.58,761.65,229.58,761.65l-178.22-180s-303-402-534-243.42Z"/></g></g></g><path class="cls-1" d="M10.41,262.66c27-39.52,47.94-20.5,59.49,6.16,48.27-30.92,54.26,32.23,50.39,44.73,35.25,4.33,46.41,18.9,50,62,10.73-29,27.36-28.4,39.34-17.29,2-60.76,87.65-75.42,90.37,7.17,23.82-37.08,69.19-58.75,74.17,10.32,9.53-29.19,53.86-54.49,55.78,4.13,16.89-44.57,32-56.07,66.88-48,0-3.1,1.22-8.44,3.37-14.46-.82-1.85-1.68-3.69-2.58-5.55C411.84,173.54,330.75,194.39,257.27,140,197.94,94.07,157.82,3.35,99.93,13.55,52.2,27.26-12.26,109.5,5.54,236Q7.37,249,10.41,262.66Z"/><path class="cls-16" d="M430,379.9c-1.92-58.62-46.25-33.32-55.78-4.13-5-69.07-50.35-47.4-74.17-10.32-2.72-82.59-88.39-67.93-90.37-7.17,8.25,7.64,14.3,20.26,14.67,31.59,23.92-56.89,60.89-24.07,73.16,14.92,24.74-66.94,97.95-31.66,88.76,18,5.95,2.81,12,7.78,18,15.66,26.26-16.78,59.29-22,63.49,32.38,6.12-17,20.83-26.55,34.76-27.82,16.75-36.39,18.31-79.63-2.27-125.6-2.15,6-3.32,11.36-3.37,14.46C462,323.83,446.86,335.33,430,379.9Z"/><path class="cls-17" d="M114,446.35c30.68-24.47,82.93-33.91,79.63,19.32a36.07,36.07,0,0,1,8.26-8.36l8.16-88.91a70,70,0,0,1-.42-10.12c-12-11.11-28.61-11.73-39.34,17.29-3.61-43.12-14.77-57.69-50-62,3.87-12.5-2.12-75.65-50.39-44.73-11.55-26.66-32.54-45.68-59.49-6.16C17,292,27.82,323.3,44.13,356.49q9.91,20.68,21,38.87C91.65,395.65,118.1,411.94,114,446.35Z"/><path class="cls-18" d="M210.07,368.4l-8.16,88.91c19.65-14.72,56.62-18.16,52.08,20.14,24.06-31.24,42-37.64,79-26.15,1.72-9.11,26.17-41.28,53.21-28.52,9.19-49.65-64-84.93-88.76-18-12.27-39-49.24-71.81-73.16-14.92-.37-11.33-6.42-23.95-14.67-31.59A70,70,0,0,0,210.07,368.4Z"/><path class="cls-19" d="M210.07,368.4l-8.16,88.91c19.65-14.72,56.62-18.16,52.08,20.14,24.06-31.24,42-37.64,79-26.15,1.72-9.11,26.17-41.28,53.21-28.52,9.19-49.65-64-84.93-88.76-18-12.27-39-49.24-71.81-73.16-14.92-.37-11.33-6.42-23.95-14.67-31.59A70,70,0,0,0,210.07,368.4Z"/><path class="cls-20" d="M358.13,545c47-8.66,88.48-30.62,117-61.47l-105.77,9.88Z"/><path class="cls-21" d="M197.12,509.5l1.59-17.4-91.23-39.41c61.46,68.15,136.57,96.38,205.51,96.4,5.52,0,11-.18,16.42-.53l-97.86-42.27Z"/><polygon class="cls-22" points="197.12 509.5 231.55 506.29 198.71 492.1 197.12 509.5"/><polygon class="cls-23" points="197.12 509.5 231.55 506.29 198.71 492.1 197.12 509.5"/><path class="cls-24" d="M467.73,470.82c-4.2-54.37-37.23-49.16-63.49-32.38-6-7.88-12.05-12.85-18-15.66A53.15,53.15,0,0,1,381.9,436l-12.52,57.42,105.77-9.88A155.88,155.88,0,0,0,502.49,443C488.56,444.27,473.85,453.84,467.73,470.82Z"/><path class="cls-25" d="M467.73,470.82c-4.2-54.37-37.23-49.16-63.49-32.38-6-7.88-12.05-12.85-18-15.66A53.15,53.15,0,0,1,381.9,436l-12.52,57.42,105.77-9.88A155.88,155.88,0,0,0,502.49,443C488.56,444.27,473.85,453.84,467.73,470.82Z"/><path class="cls-26" d="M231.55,506.29l97.86,42.27A245.44,245.44,0,0,0,358.13,545l11.25-51.59Z"/><path class="cls-27" d="M231.55,506.29l97.86,42.27A245.44,245.44,0,0,0,358.13,545l11.25-51.59Z"/><path class="cls-28" d="M201.91,457.31a36.07,36.07,0,0,0-8.26,8.36c3.3-53.23-49-43.79-79.63-19.32,4.08-34.41-22.37-50.7-48.89-51a378,378,0,0,0,42.35,57.33l91.23,39.41Z"/><path class="cls-29" d="M201.91,457.31a36.07,36.07,0,0,0-8.26,8.36c3.3-53.23-49-43.79-79.63-19.32,4.08-34.41-22.37-50.7-48.89-51a378,378,0,0,0,42.35,57.33l91.23,39.41Z"/><path class="cls-30" d="M333,451.3c-37-11.49-55-5.09-79,26.15,4.54-38.3-32.43-34.86-52.08-20.14l-3.2,34.79,32.84,14.19,137.83-12.88L381.9,436a53.15,53.15,0,0,0,4.34-13.21C359.2,410,334.75,442.19,333,451.3Z"/><path class="cls-31" d="M333,451.3c-37-11.49-55-5.09-79,26.15,4.54-38.3-32.43-34.86-52.08-20.14l-3.2,34.79,32.84,14.19,137.83-12.88L381.9,436a53.15,53.15,0,0,0,4.34-13.21C359.2,410,334.75,442.19,333,451.3Z"/><rect class="cls-32" x="236.32" y="280.68" width="61.88" height="234.25"/><rect class="cls-33" x="264.81" y="280.68" width="4.91" height="234.25"/><polygon class="cls-34" points="338.96 475.15 312.93 475.15 312.93 286.08 338.96 243.85 338.96 475.15"/><polygon class="cls-35" points="221.1 473.19 195.07 473.19 195.07 243.85 221.59 286.08 221.1 473.19"/><path class="cls-36" d="M267.26,4.69C164.63,81.3,237.31,249.74,237.31,249.74h59.91S369.9,81.3,267.26,4.69Zm0,188.51a17.67,17.67,0,0,1,0-35.22,17.67,17.67,0,0,1,0,35.22Zm.49-59.85v0h-1v0a28.48,28.48,0,1,1,0-57v0h1v0a28.48,28.48,0,1,1,0,57Z"/><g class="cls-37"><polygon class="cls-38" points="267.26 -6.11 267.26 258.09 354.68 256.13 354.68 -6.11 267.26 -6.11"/></g><path class="cls-39" d="M333,451.3c-37-11.49-55-5.09-79,26.15,4.54-38.3-32.43-34.86-52.08-20.14l-3.2,34.79,32.84,14.19,137.83-12.88L381.9,436a53.15,53.15,0,0,0,4.34-13.21C359.2,410,334.75,442.19,333,451.3Z"/><circle class="cls-40" cx="267.26" cy="104.87" r="28.97"/><circle class="cls-41" cx="267.26" cy="104.87" r="23.08"/><circle class="cls-40" cx="267.26" cy="175.59" r="21.12"/><circle class="cls-41" cx="267.26" cy="175.59" r="16.82"/><path class="cls-42" d="M233.89,41.38s35.3,10.17,66.75,0C285.43,16,267.26,4.69,267.26,4.69S249.62,15.21,233.89,41.38Z"/><path class="cls-42" d="M311.26,207.24c34.32,30.7,37.7,35.6,5,80.42a2,2,0,0,1-3.56-1.64c3.54-14.53,6.34-38.81-13.27-41.81,0,0,0,0,0,0,.55-.9,11.44-35.84,11.78-36.94A0,0,0,0,1,311.26,207.24Z"/><path class="cls-42" d="M223.08,207.24c-34.33,30.7-37.7,35.6-5,80.42A2,2,0,0,0,221.6,286c-3.53-14.53-6.34-38.81,13.27-41.81,0,0,0,0,0,0-.54-.9-11.43-35.84-11.77-36.94C223.1,207.24,223.09,207.23,223.08,207.24Z"/><polygon class="cls-43" points="294.52 249.73 267.02 249.73 267.02 249.74 239.76 249.74 245.16 262.51 267.26 262.51 267.26 262.5 289.12 262.5 294.52 249.73"/><path class="cls-44" d="M289.36,262.51h-44.2s-16.69,16.7-4.42,35.85c0,0,2.46-15.72,5.9-13.75-3.93,8.84,5.89,27.5,5.89,27.5s0-11.3,2.95-11.79c0,9.83,10.31,26.52,11.78,29.47,1.48-3,11.79-19.64,11.79-29.47,2.95.49,2.95,11.79,2.95,11.79s9.82-18.66,5.89-27.5c3.44-2,5.89,13.75,5.89,13.75C306.06,279.21,289.36,262.51,289.36,262.51Z"/><path class="cls-42" d="M264.81,207h4.91a0,0,0,0,1,0,0v79.06a2.46,2.46,0,0,1-2.46,2.46h0a2.46,2.46,0,0,1-2.46-2.46V207A0,0,0,0,1,264.81,207Z"/><ellipse class="cls-45" cx="264.32" cy="103.4" rx="18.17" ry="18.66"/><circle class="cls-45" cx="265.3" cy="175.59" r="12.77"/><circle class="cls-46" cx="261.12" cy="171.9" r="5.65"/><circle class="cls-46" cx="258.18" cy="97.75" r="9.09"/><path class="cls-47" d="M234.85,244.34c-29.95-17.19-38.3,7.37-38.39,7.11-2.37-11-4.82-16.44,26.61-44.43Z"/><path class="cls-47" d="M299.3,244.38c30-17.19,38.31,7.36,38.39,7.1,2.37-11,4.83-16.43-26.6-44.43Z"/><path class="cls-47" d="M264.81,207h4.91a0,0,0,0,1,0,0V268.4a2.46,2.46,0,0,1-2.46,2.46h0a2.46,2.46,0,0,1-2.46-2.46V207a0,0,0,0,1,0,0Z"/><g class="cls-48"><polygon class="cls-47" points="267.26 45.88 267.26 4.69 299.67 4.69 305.57 44.47 267.26 45.88"/></g></svg>