<svg xmlns="http://www.w3.org/2000/svg" xmlns:xlink="http://www.w3.org/1999/xlink" viewBox="0 0 876 929"><defs><style>.cls-1,.cls-30{fill:none;}.cls-2{fill:url(#linear-gradient);}.cls-3{fill:url(#linear-gradient-2);}.cls-4{fill:url(#linear-gradient-3);}.cls-5{isolation:isolate;}.cls-6{clip-path:url(#clip-path);}.cls-7{fill:url(#linear-gradient-4);}.cls-8{clip-path:url(#clip-path-2);}.cls-9{opacity:0.7;}.cls-10,.cls-15{fill:#fff;}.cls-11{clip-path:url(#clip-path-3);}.cls-12,.cls-33,.cls-38,.cls-39,.cls-40,.cls-44,.cls-49{opacity:0.3;}.cls-13{fill:url(#linear-gradient-5);}.cls-14{fill:url(#linear-gradient-6);}.cls-15,.cls-16,.cls-18,.cls-20,.cls-21,.cls-23,.cls-24,.cls-25,.cls-26,.cls-27{fill-rule:evenodd;}.cls-16,.cls-17{fill:#b5bcc4;}.cls-18,.cls-19{fill:#092f8e;}.cls-20{fill:#334f6c;}.cls-21{fill:#c2c9d1;}.cls-22{fill:#4f6984;}.cls-23{fill:#6887a8;}.cls-24{fill:#d6dfe8;}.cls-25{fill:#47607b;}.cls-26{fill:#002f5b;}.cls-27{fill:#001c46;}.cls-28{opacity:0.6;}.cls-29{clip-path:url(#clip-path-4);}.cls-30{stroke:#fff;stroke-linecap:round;stroke-linejoin:round;stroke-width:9px;}.cls-31{clip-path:url(#clip-path-5);}.cls-32{mix-blend-mode:screen;}.cls-33{fill:url(#linear-gradient-7);}.cls-34,.cls-45,.cls-50{opacity:0.8;}.cls-34{fill:url(#linear-gradient-8);}.cls-35{fill:url(#linear-gradient-9);}.cls-36{clip-path:url(#clip-path-6);}.cls-37,.cls-42,.cls-48,.cls-53{opacity:0.4;}.cls-37{fill:url(#linear-gradient-11);}.cls-38{fill:url(#linear-gradient-12);}.cls-39{fill:url(#linear-gradient-13);}.cls-40{fill:url(#linear-gradient-14);}.cls-41{clip-path:url(#clip-path-7);}.cls-42{fill:url(#linear-gradient-16);}.cls-43{opacity:0.6;}.cls-44{fill:url(#linear-gradient-17);}.cls-45{fill:url(#linear-gradient-18);}.cls-46{fill:url(#linear-gradient-19);}.cls-47{clip-path:url(#clip-path-8);}.cls-48{fill:url(#linear-gradient-20);}.cls-49{fill:url(#linear-gradient-21);}.cls-50{fill:url(#linear-gradient-22);}.cls-51{fill:url(#linear-gradient-23);}.cls-52{clip-path:url(#clip-path-9);}.cls-53{fill:url(#linear-gradient-25);}</style><linearGradient id="linear-gradient" x1="716.8" y1="685.3" x2="771.51" y2="685.3" gradientUnits="userSpaceOnUse"><stop offset="0" stop-color="#ff2525"/><stop offset="0.15" stop-color="#ff2925"/><stop offset="0.29" stop-color="#ff3527"/><stop offset="0.44" stop-color="#ff4929"/><stop offset="0.58" stop-color="#ff652c"/><stop offset="0.72" stop-color="#ff8931"/><stop offset="0.87" stop-color="#ffb436"/><stop offset="1" stop-color="#ffe43b"/></linearGradient><linearGradient id="linear-gradient-2" x1="-1921.22" y1="-691.33" x2="-1887.56" y2="-691.33" gradientTransform="matrix(-0.8, -0.6, -0.6, 0.8, -1197.05, -396.03)" gradientUnits="userSpaceOnUse"><stop offset="0" stop-color="aqua"/><stop offset="0.04" stop-color="#00f4ff"/><stop offset="0.4" stop-color="#008dff"/><stop offset="0.69" stop-color="#0041ff"/><stop offset="0.9" stop-color="#0012ff"/><stop offset="1" stop-color="blue"/></linearGradient><linearGradient id="linear-gradient-3" x1="182.13" y1="146.3" x2="226.18" y2="146.3" xlink:href="#linear-gradient"/><clipPath id="clip-path"><path class="cls-1" d="M35.53-.28C-24.51,99.08-4.93,229,72.8,302.6,202.05,424.92,442.59,445.93,379.52,653.76,295,959.05,876,927.52,876,927.52V-.28Z"/></clipPath><linearGradient id="linear-gradient-4" x1="-0.01" y1="464.22" x2="875.99" y2="464.22" gradientUnits="userSpaceOnUse"><stop offset="0" stop-color="#0e061e"/><stop offset="0.09" stop-color="#100725"/><stop offset="0.22" stop-color="#150937"/><stop offset="0.36" stop-color="#1d0d55"/><stop offset="0.43" stop-color="#210f65"/><stop offset="0.82" stop-color="#4f1a7c"/><stop offset="0.99" stop-color="#641f87"/></linearGradient><clipPath id="clip-path-2"><rect class="cls-1" x="0.33" y="-0.28" width="875.67" height="929"/></clipPath><clipPath id="clip-path-3"><rect class="cls-1" x="-0.01" y="-0.28" width="876" height="929"/></clipPath><linearGradient id="linear-gradient-5" x1="-72.55" y1="368.37" x2="574.75" y2="368.37" gradientUnits="userSpaceOnUse"><stop offset="0" stop-color="#2d62ff"/><stop offset="0.21" stop-color="#641f87"/><stop offset="0.48" stop-color="#1e2f8a"/><stop offset="1" stop-color="#0e061e"/></linearGradient><linearGradient id="linear-gradient-6" x1="-16.01" y1="520" x2="1045.71" y2="520" xlink:href="#linear-gradient-5"/><clipPath id="clip-path-4"><rect class="cls-1" x="467.56" y="279.35" width="70.59" height="25.68" transform="translate(50.38 657.57) rotate(-69.08)"/></clipPath><clipPath id="clip-path-5"><rect class="cls-1" x="498.66" y="325.92" width="11.31" height="11.31" transform="translate(14.52 684.23) rotate(-69.08)"/></clipPath><linearGradient id="linear-gradient-7" x1="712.03" y1="685.3" x2="776.28" y2="685.3" xlink:href="#linear-gradient"/><linearGradient id="linear-gradient-8" x1="714.29" y1="685.3" x2="774.02" y2="685.3" gradientTransform="translate(15.76 -16.72) rotate(1.3)" xlink:href="#linear-gradient"/><linearGradient id="linear-gradient-9" x1="709.52" y1="685.3" x2="794.87" y2="685.3" xlink:href="#linear-gradient"/><clipPath id="clip-path-6"><circle class="cls-2" cx="744.15" cy="685.3" r="27.35"/></clipPath><linearGradient id="linear-gradient-11" x1="792.23" y1="682.36" x2="695.3" y2="685" xlink:href="#linear-gradient"/><linearGradient id="linear-gradient-12" x1="-1924.85" y1="-691.33" x2="-1883.93" y2="-691.33" xlink:href="#linear-gradient-2"/><linearGradient id="linear-gradient-13" x1="-1922.77" y1="-691.33" x2="-1886.01" y2="-691.33" xlink:href="#linear-gradient-2"/><linearGradient id="linear-gradient-14" x1="-1925.7" y1="-691.33" x2="-1873.18" y2="-691.33" xlink:href="#linear-gradient-2"/><clipPath id="clip-path-7"><path class="cls-3" d="M730.64,174.27a16.83,16.83,0,1,1,3.48,23.55A16.82,16.82,0,0,1,730.64,174.27Z"/></clipPath><linearGradient id="linear-gradient-16" x1="-1874.8" y1="-693.14" x2="-1934.46" y2="-691.52" xlink:href="#linear-gradient-2"/><linearGradient id="linear-gradient-17" x1="321.4" y1="433.3" x2="358.91" y2="433.3" gradientUnits="userSpaceOnUse"><stop offset="0" stop-color="#00ff5b"/><stop offset="0.07" stop-color="#06e271"/><stop offset="0.19" stop-color="#10b097"/><stop offset="0.32" stop-color="#1986b7"/><stop offset="0.45" stop-color="#2064d1"/><stop offset="0.58" stop-color="#2649e5"/><stop offset="0.72" stop-color="#2a36f4"/><stop offset="0.85" stop-color="#2c2bfc"/><stop offset="1" stop-color="#2d27ff"/></linearGradient><linearGradient id="linear-gradient-18" x1="322.72" y1="433.3" x2="357.59" y2="433.3" xlink:href="#linear-gradient-17"/><linearGradient id="linear-gradient-19" x1="319.94" y1="433.3" x2="369.76" y2="433.3" xlink:href="#linear-gradient-17"/><clipPath id="clip-path-8"><path class="cls-1" d="M356.13,433.3a16,16,0,1,0-16,16A16,16,0,0,0,356.13,433.3Z"/></clipPath><linearGradient id="linear-gradient-20" x1="368.22" y1="431.58" x2="311.63" y2="433.12" xlink:href="#linear-gradient-17"/><linearGradient id="linear-gradient-21" x1="175.6" y1="146.3" x2="232.71" y2="146.3" gradientTransform="translate(344.75 -61.83) rotate(88.41)" xlink:href="#linear-gradient"/><linearGradient id="linear-gradient-22" x1="180.33" y1="146.3" x2="227.98" y2="146.3" xlink:href="#linear-gradient"/><linearGradient id="linear-gradient-23" x1="176.27" y1="146.3" x2="244.99" y2="146.3" xlink:href="#linear-gradient"/><clipPath id="clip-path-9"><circle class="cls-4" cx="204.15" cy="146.3" r="22.03"/></clipPath><linearGradient id="linear-gradient-25" x1="226.43" y1="161.29" x2="179.15" y2="128.39" xlink:href="#linear-gradient"/></defs><title>Mesa de trabajo 7</title><g class="cls-5"><g id="Capa_1" data-name="Capa 1"><g class="cls-6"><rect class="cls-7" x="-0.01" y="-0.28" width="876" height="929"/><g class="cls-8"><g class="cls-9"><path class="cls-10" d="M237.56,626.59a2.11,2.11,0,1,1-2.8-1.05A2.11,2.11,0,0,1,237.56,626.59Z"/><path class="cls-10" d="M192.26,690.71a1.86,1.86,0,1,1-2.46-.92A1.86,1.86,0,0,1,192.26,690.71Z"/><path class="cls-10" d="M257.67,663.8a3.67,3.67,0,1,1-4.84-1.83A3.66,3.66,0,0,1,257.67,663.8Z"/><path class="cls-10" d="M32.85,926.37a3.1,3.1,0,1,1-2.25-3.74A3.09,3.09,0,0,1,32.85,926.37Z"/><path class="cls-10" d="M1.83,842.71a1.66,1.66,0,0,1-2,1.21,1.66,1.66,0,0,1-1.2-2,1.65,1.65,0,0,1,3.21.8Z"/><path class="cls-10" d="M232.86,705.38a3.64,3.64,0,0,1-1.81,4.84,3.67,3.67,0,1,1,1.81-4.84Z"/><path class="cls-10" d="M217.3,782.19a2.68,2.68,0,1,1-2-3.25A2.69,2.69,0,0,1,217.3,782.19Z"/><path class="cls-10" d="M210.5,837.09a2.68,2.68,0,1,1-1.95-3.25A2.67,2.67,0,0,1,210.5,837.09Z"/><path class="cls-10" d="M199.76,910.51a2.68,2.68,0,1,1-2-3.25A2.68,2.68,0,0,1,199.76,910.51Z"/><path class="cls-10" d="M158.84,858a2.68,2.68,0,1,1-2-3.25A2.68,2.68,0,0,1,158.84,858Z"/><path class="cls-10" d="M101.68,771.93A4,4,0,1,1,98.76,767,4,4,0,0,1,101.68,771.93Z"/><path class="cls-10" d="M41.62,764.29c-5.12-.89-5.39.37-6.91,4.07.59-4.22.78-5-4.19-6.84,4.36.66,5.34,1.16,6.88-3.94C36.55,763,37.55,762.58,41.62,764.29Z"/><path class="cls-10" d="M103.83,909.76c-1.3-.23-1.37.09-1.76,1,.16-1.08.2-1.27-1.06-1.75,1.11.17,1.36.3,1.75-1C102.54,909.43,102.8,909.33,103.83,909.76Z"/><path class="cls-10" d="M143.91,702.94c-1.31-.23-1.38.09-1.76,1,.15-1.07.2-1.26-1.07-1.74,1.11.17,1.36.3,1.75-1C142.62,702.61,142.87,702.5,143.91,702.94Z"/><path class="cls-10" d="M248.51,709.84c-1.3-.22-1.37.1-1.75,1,.15-1.07.2-1.27-1.07-1.74,1.11.17,1.36.3,1.75-1C247.22,709.52,247.48,709.41,248.51,709.84Z"/><path class="cls-10" d="M60.31,858.9c-6.63-1.15-7,.48-8.94,5.27.77-5.47,1-6.44-5.42-8.85,5.64.85,6.91,1.5,8.89-5.1C53.75,857.23,55.05,856.69,60.31,858.9Z"/><path class="cls-10" d="M83.76,672.21c-6.62-1.15-7,.48-8.94,5.28.77-5.47,1-6.44-5.41-8.86,5.63.85,6.9,1.51,8.89-5.09C77.21,670.55,78.5,670,83.76,672.21Z"/><path class="cls-10" d="M223.8,742.34c-6.63-1.15-7,.48-8.94,5.28.77-5.47,1-6.44-5.42-8.86,5.64.85,6.91,1.51,8.9-5.09C217.24,740.67,218.54,740.13,223.8,742.34Z"/><path class="cls-10" d="M181.29,647.68c-6.63-1.15-7,.48-8.94,5.28.77-5.47,1-6.44-5.42-8.85,5.64.84,6.91,1.5,8.89-5.1C174.73,646,176,645.48,181.29,647.68Z"/><path class="cls-10" d="M141.39,665.48a2.73,2.73,0,1,1-2-3.31A2.72,2.72,0,0,1,141.39,665.48Z"/><path class="cls-10" d="M49.61,799.7a2.53,2.53,0,1,1-1.84-3.06A2.53,2.53,0,0,1,49.61,799.7Z"/><path class="cls-10" d="M60,906a2.73,2.73,0,1,1-2-3.3A2.73,2.73,0,0,1,60,906Z"/><path class="cls-10" d="M87.05,628.43A4.23,4.23,0,1,1,84,623.3,4.24,4.24,0,0,1,87.05,628.43Z"/><path class="cls-10" d="M87,702.73a2.89,2.89,0,1,1-2.11-3.51A2.89,2.89,0,0,1,87,702.73Z"/><path class="cls-10" d="M55.81,716.35a2.06,2.06,0,1,1-1.5-2.51A2.06,2.06,0,0,1,55.81,716.35Z"/><path class="cls-10" d="M151.79,735.43a1.71,1.71,0,1,1-1.24-2.06A1.7,1.7,0,0,1,151.79,735.43Z"/><path class="cls-10" d="M129.11,814a1.7,1.7,0,0,1-2.07,1.23,1.7,1.7,0,1,1,2.07-1.23Z"/><path class="cls-10" d="M151.33,914.18a2.63,2.63,0,1,1-1.92-3.19A2.63,2.63,0,0,1,151.33,914.18Z"/><path class="cls-10" d="M131.22,602.78a1.71,1.71,0,1,1,.47-2.37A1.7,1.7,0,0,1,131.22,602.78Z"/><path class="cls-10" d="M14.54,673.65a1.71,1.71,0,1,1,.46-2.37A1.71,1.71,0,0,1,14.54,673.65Z"/><path class="cls-10" d="M42.9,599.78a1.71,1.71,0,1,1,.47-2.37A1.71,1.71,0,0,1,42.9,599.78Z"/><path class="cls-10" d="M489.12,477.21a2.41,2.41,0,1,1-3.21-1.15A2.4,2.4,0,0,1,489.12,477.21Z"/><path class="cls-10" d="M438.51,550.87a2.11,2.11,0,1,1-2.81-1A2.1,2.1,0,0,1,438.51,550.87Z"/><path class="cls-10" d="M512.56,519.27a4.17,4.17,0,1,1-5.54-2A4.17,4.17,0,0,1,512.56,519.27Z"/><path class="cls-10" d="M65.3,369.65a2.82,2.82,0,1,1-2.09-3.41A2.83,2.83,0,0,1,65.3,369.65Z"/><path class="cls-10" d="M260.56,821.45a3.52,3.52,0,1,1-2.62-4.22A3.53,3.53,0,0,1,260.56,821.45Z"/><path class="cls-10" d="M72,723.14a2.88,2.88,0,1,1-2.14-3.45A2.88,2.88,0,0,1,72,723.14Z"/><path class="cls-10" d="M143.23,416a2.7,2.7,0,1,1-2-3.25A2.7,2.7,0,0,1,143.23,416Z"/><path class="cls-10" d="M35.09,538.15A2.88,2.88,0,1,1,33,534.69,2.88,2.88,0,0,1,35.09,538.15Z"/><path class="cls-10" d="M224,726.68a1.88,1.88,0,1,1-1.41-2.25A1.88,1.88,0,0,1,224,726.68Z"/><path class="cls-10" d="M181.76,750.57a2.53,2.53,0,1,1-1.88-3.05A2.53,2.53,0,0,1,181.76,750.57Z"/><path class="cls-10" d="M164.74,900.34a2.53,2.53,0,1,1-1.87-3.06A2.55,2.55,0,0,1,164.74,900.34Z"/><path class="cls-10" d="M484.93,567a4.17,4.17,0,1,1-5.53-2A4.16,4.16,0,0,1,484.93,567Z"/><path class="cls-10" d="M468.36,654.61a3.05,3.05,0,1,1-2.28-3.67A3.07,3.07,0,0,1,468.36,654.61Z"/><path class="cls-10" d="M461.44,717.19a3.05,3.05,0,1,1-2.28-3.67A3.05,3.05,0,0,1,461.44,717.19Z"/><path class="cls-10" d="M450.3,800.92a3.05,3.05,0,1,1-2.28-3.67A3.05,3.05,0,0,1,450.3,800.92Z"/><path class="cls-10" d="M403,741.75a3.05,3.05,0,1,1-2.28-3.67A3.05,3.05,0,0,1,403,741.75Z"/><path class="cls-10" d="M415.08,854.22a3.05,3.05,0,1,1-2.28-3.67A3.05,3.05,0,0,1,415.08,854.22Z"/><path class="cls-10" d="M336.62,644.65a4.58,4.58,0,1,1-3.4-5.53A4.6,4.6,0,0,1,336.62,644.65Z"/><path class="cls-10" d="M211.45,463.05c-5.2-.83-5.45.45-6.95,4.23.55-4.3.73-5.06-4.34-6.89,4.43.61,5.43,1.11,6.92-4.09C206.3,461.81,207.31,461.37,211.45,463.05Z"/><path class="cls-10" d="M268.13,636.84c-5.83-.94-6.12.5-7.8,4.74.62-4.82.82-5.68-4.86-7.73,5,.68,6.09,1.24,7.76-4.58C262.35,635.44,263.48,635,268.13,636.84Z"/><path class="cls-10" d="M11.62,715.41c-7.56-1.21-7.92.65-10.1,6.14.8-6.24,1.06-7.35-6.3-10,6.44.88,7.89,1.61,10.05-5.93C4.13,713.61,5.6,713,11.62,715.41Z"/><path class="cls-10" d="M264.54,911.92c-7.55-1.21-7.92.66-10.1,6.14.8-6.23,1.06-7.34-6.29-10,6.43.88,7.88,1.6,10-5.94C257.05,910.12,258.52,909.49,264.54,911.92Z"/><path class="cls-10" d="M444.42,916.83c-7.55-1.21-7.92.65-10.09,6.14.8-6.23,1.06-7.34-6.3-10,6.43.89,7.89,1.61,10.05-5.93C436.94,915,438.41,914.4,444.42,916.83Z"/><path class="cls-10" d="M356,830.76c-3.78-.6-4,.33-5.06,3.08.4-3.12.53-3.68-3.16-5,3.23.44,4,.8,5-3C352.2,829.86,352.94,829.54,356,830.76Z"/><path class="cls-10" d="M341.1,801.49c-1.48-.24-1.55.13-2,1.21.15-1.23.21-1.45-1.24-2,1.26.17,1.55.32,2-1.17C339.63,801.13,339.92,801,341.1,801.49Z"/><path class="cls-10" d="M55.12,773.07c-1.48-.24-1.55.13-2,1.21.15-1.23.21-1.45-1.24-2,1.26.17,1.55.32,2-1.17C53.65,772.72,53.94,772.59,55.12,773.07Z"/><path class="cls-10" d="M383.65,565.49c-1.49-.23-1.56.13-2,1.21.16-1.23.21-1.44-1.23-2,1.26.18,1.55.32,2-1.16C382.18,565.14,382.47,565,383.65,565.49Z"/><path class="cls-10" d="M18,461.64c-1.48-.24-1.56.13-2,1.21.15-1.23.21-1.45-1.24-2,1.26.18,1.55.32,2-1.16C16.57,461.29,16.86,461.16,18,461.64Z"/><path class="cls-10" d="M502.82,571.8c-1.49-.23-1.56.13-2,1.21.16-1.22.21-1.44-1.24-2,1.27.17,1.55.31,2-1.17C501.34,571.45,501.63,571.33,502.82,571.8Z"/><path class="cls-10" d="M290.81,744.24c-7.55-1.21-7.92.65-10.1,6.14.8-6.23,1.06-7.34-6.29-10,6.43.88,7.88,1.61,10.05-5.93C283.32,742.44,284.79,741.81,290.81,744.24Z"/><path class="cls-10" d="M121,614.13c-7.55-1.21-7.92.65-10.1,6.14.8-6.24,1.06-7.35-6.29-10,6.43.88,7.88,1.61,10-5.93C113.52,612.33,115,611.7,121,614.13Z"/><path class="cls-10" d="M314.74,531.42c-7.55-1.22-7.92.65-10.1,6.14.8-6.24,1.06-7.35-6.29-10,6.43.88,7.88,1.6,10-5.94C307.25,529.62,308.72,529,314.74,531.42Z"/><path class="cls-10" d="M122,779.87c-4.43-.71-4.65.38-5.92,3.6.46-3.65.62-4.3-3.7-5.86,3.77.52,4.63.94,5.9-3.48C117.57,778.82,118.43,778.45,122,779.87Z"/><path class="cls-10" d="M69.22,426.64c-4.78-.77-5,.41-6.39,3.88.5-3.94.67-4.65-4-6.33,4.07.56,5,1,6.36-3.75C64.48,425.5,65.41,425.1,69.22,426.64Z"/><path class="cls-10" d="M475.16,609.16c-7.55-1.21-7.92.65-10.09,6.14.8-6.24,1.06-7.35-6.3-10,6.43.88,7.89,1.61,10.05-5.93C467.68,607.36,469.15,606.73,475.16,609.16Z"/><path class="cls-10" d="M425.38,502.05c-7.56-1.21-7.92.65-10.1,6.14.8-6.24,1.06-7.35-6.29-10,6.43.88,7.88,1.61,10-5.93C417.89,500.25,419.36,499.62,425.38,502.05Z"/><path class="cls-10" d="M380.24,522.9a3.11,3.11,0,1,1-6.05-1.42,3.11,3.11,0,1,1,6.05,1.42Z"/><path class="cls-10" d="M45.49,400.09a5.29,5.29,0,1,1-3.93-6.36A5.28,5.28,0,0,1,45.49,400.09Z"/><path class="cls-10" d="M277.76,677a2.88,2.88,0,1,1-2.15-3.46A2.87,2.87,0,0,1,277.76,677Z"/><path class="cls-10" d="M291.13,797.83a3.11,3.11,0,1,1-2.3-3.73A3.11,3.11,0,0,1,291.13,797.83Z"/><path class="cls-10" d="M317.83,481.54a4.82,4.82,0,1,1-3.58-5.8A4.82,4.82,0,0,1,317.83,481.54Z"/><path class="cls-10" d="M318.83,566.1a3.29,3.29,0,1,1-2.45-4A3.28,3.28,0,0,1,318.83,566.1Z"/><path class="cls-10" d="M283.58,582.06a2.35,2.35,0,1,1-1.75-2.82A2.34,2.34,0,0,1,283.58,582.06Z"/><path class="cls-10" d="M393.11,602.36a1.95,1.95,0,1,1-1.45-2.33A2,2,0,0,1,393.11,602.36Z"/><path class="cls-10" d="M368.45,692.17a1.94,1.94,0,1,1-1.45-2.33A1.92,1.92,0,0,1,368.45,692.17Z"/><path class="cls-10" d="M395.23,805.82a3,3,0,1,1-2.23-3.61A3,3,0,0,1,395.23,805.82Z"/><path class="cls-10" d="M192.74,586.56a3.05,3.05,0,1,1-2.28-3.66A3.06,3.06,0,0,1,192.74,586.56Z"/><path class="cls-10" d="M18.88,613a2.88,2.88,0,1,1-2.14-3.46A2.87,2.87,0,0,1,18.88,613Z"/><path class="cls-10" d="M24.71,518A2.35,2.35,0,1,1,23,515.2,2.36,2.36,0,0,1,24.71,518Z"/><path class="cls-10" d="M174.46,516.26a1.94,1.94,0,1,1-1.45-2.33A1.94,1.94,0,0,1,174.46,516.26Z"/><path class="cls-10" d="M100.89,571a3.05,3.05,0,1,1,2.54-3.5A3.05,3.05,0,0,1,100.89,571Z"/><path class="cls-10" d="M120.61,557.3a1.94,1.94,0,1,1,1.62-2.22A1.95,1.95,0,0,1,120.61,557.3Z"/><path class="cls-10" d="M105.48,653.18a3.05,3.05,0,1,1,.78-4.24A3.05,3.05,0,0,1,105.48,653.18Z"/><path class="cls-10" d="M347.12,883a1.94,1.94,0,1,1,.5-2.7A1.93,1.93,0,0,1,347.12,883Z"/><path class="cls-10" d="M164.61,654.69a1.95,1.95,0,1,1,.49-2.71A1.95,1.95,0,0,1,164.61,654.69Z"/><path class="cls-10" d="M118.36,484.64a1.95,1.95,0,1,1,.5-2.71A1.93,1.93,0,0,1,118.36,484.64Z"/><path class="cls-10" d="M367.73,451.68a1.94,1.94,0,1,1,.49-2.7A1.95,1.95,0,0,1,367.73,451.68Z"/><path class="cls-10" d="M236,534.08a1.95,1.95,0,1,1,.5-2.71A1.94,1.94,0,0,1,236,534.08Z"/><path class="cls-10" d="M267.16,449.58a1.94,1.94,0,1,1,.5-2.7A1.93,1.93,0,0,1,267.16,449.58Z"/><path class="cls-10" d="M114,830.08a1.95,1.95,0,1,1,.5-2.71A1.94,1.94,0,0,1,114,830.08Z"/><path class="cls-10" d="M400.64,916.94a1.94,1.94,0,1,1,.5-2.7A1.93,1.93,0,0,1,400.64,916.94Z"/><path class="cls-10" d="M171.9,814.63a1.94,1.94,0,1,1,.5-2.7A1.93,1.93,0,0,1,171.9,814.63Z"/><path class="cls-10" d="M84.26,405.12c.21-.14-.11-1-.72-1.86s-1.27-1.49-1.48-1.34.11,1,.71,1.86S84,405.27,84.26,405.12Z"/><path class="cls-10" d="M322.94,889.68c.21-.15-.11-1-.72-1.87s-1.27-1.48-1.48-1.33.12,1,.71,1.86S322.73,889.83,322.94,889.68Z"/><path class="cls-10" d="M136.36,741.78a3,3,0,1,1-2.24-3.6A3,3,0,0,1,136.36,741.78Z"/><path class="cls-10" d="M83.54,904.51a2.83,2.83,0,1,1-2.1-3.38A2.8,2.8,0,0,1,83.54,904.51Z"/><path class="cls-10" d="M45.82,814.69a3.41,3.41,0,1,1-2.54-4.12A3.42,3.42,0,0,1,45.82,814.69Z"/><path class="cls-10" d="M25,910.72a1.94,1.94,0,0,1-3.78-.89,1.94,1.94,0,0,1,3.78.89Z"/><path class="cls-10" d="M649.3,430.72a1.25,1.25,0,1,1-1.67-.6A1.25,1.25,0,0,1,649.3,430.72Z"/><path class="cls-10" d="M622.79,469.17a1.1,1.1,0,0,1-.54,1.47,1.09,1.09,0,0,1-1.46-.54,1.1,1.1,0,1,1,2-.93Z"/><path class="cls-10" d="M661.51,452.72a2.18,2.18,0,1,1-2.89-1.05A2.17,2.17,0,0,1,661.51,452.72Z"/><path class="cls-10" d="M427.92,374.11a1.47,1.47,0,1,1-1.09-1.78A1.47,1.47,0,0,1,427.92,374.11Z"/><path class="cls-10" d="M370.46,475.23a2.06,2.06,0,1,1-1.52-2.47A2,2,0,0,1,370.46,475.23Z"/><path class="cls-10" d="M529.53,610.4a1.84,1.84,0,1,1-1.36-2.21A1.84,1.84,0,0,1,529.53,610.4Z"/><path class="cls-10" d="M431.1,558.85A1.51,1.51,0,1,1,430,557,1.51,1.51,0,0,1,431.1,558.85Z"/><path class="cls-10" d="M468.6,398.4a1.41,1.41,0,0,1-2.75-.65,1.41,1.41,0,1,1,2.75.65Z"/><path class="cls-10" d="M412,462.14a1.5,1.5,0,1,1-1.11-1.81A1.5,1.5,0,0,1,412,462.14Z"/><path class="cls-10" d="M510.52,560.84a1,1,0,1,1-.73-1.17A1,1,0,0,1,510.52,560.84Z"/><path class="cls-10" d="M488.42,573.29a1.32,1.32,0,1,1-1-1.6A1.34,1.34,0,0,1,488.42,573.29Z"/><path class="cls-10" d="M479.38,651.54a1.32,1.32,0,0,1-2.57-.61,1.32,1.32,0,1,1,2.57.61Z"/><path class="cls-10" d="M647,477.62a2.16,2.16,0,0,1-1,2.89,2.18,2.18,0,1,1,1-2.89Z"/><path class="cls-10" d="M638.29,523.41a1.6,1.6,0,1,1-1.19-1.92A1.61,1.61,0,0,1,638.29,523.41Z"/><path class="cls-10" d="M634.61,556.11a1.59,1.59,0,1,1-1.19-1.92A1.6,1.6,0,0,1,634.61,556.11Z"/><path class="cls-10" d="M628.71,599.86a1.59,1.59,0,1,1-1.19-1.92A1.58,1.58,0,0,1,628.71,599.86Z"/><path class="cls-10" d="M604,568.89a1.59,1.59,0,1,1-1.19-1.92A1.6,1.6,0,0,1,604,568.89Z"/><path class="cls-10" d="M610.25,627.68a1.59,1.59,0,1,1-1.18-1.92A1.58,1.58,0,0,1,610.25,627.68Z"/><path class="cls-10" d="M569.45,518.08a2.4,2.4,0,1,1-1.77-2.89A2.41,2.41,0,0,1,569.45,518.08Z"/><path class="cls-10" d="M504.21,423.06c-2.72-.44-2.85.23-3.64,2.21.29-2.25.39-2.65-2.26-3.61,2.32.32,2.84.58,3.62-2.13C501.52,422.41,502.05,422.18,504.21,423.06Z"/><path class="cls-10" d="M533.67,513.93c-3-.49-3.2.26-4.08,2.47.32-2.51.43-3-2.54-4,2.6.36,3.18.66,4.06-2.39C530.65,513.2,531.24,513,533.67,513.93Z"/><path class="cls-10" d="M399.54,554.75c-4-.64-4.14.33-5.28,3.2.42-3.26.56-3.84-3.28-5.23,3.35.47,4.11.85,5.25-3.09C395.63,553.8,396.39,553.47,399.54,554.75Z"/><path class="cls-10" d="M531.53,657.69c-3.95-.64-4.14.33-5.29,3.2.43-3.26.56-3.84-3.28-5.23,3.36.46,4.12.84,5.26-3.09C527.62,656.74,528.38,656.41,531.53,657.69Z"/><path class="cls-10" d="M379.59,438.54c-2.21-.36-2.31.18-2.95,1.79.23-1.82.31-2.15-1.84-2.93,1.88.26,2.3.47,2.94-1.73C377.4,438,377.83,437.82,379.59,438.54Z"/><path class="cls-10" d="M625.53,660.43c-3.95-.64-4.14.33-5.28,3.2.42-3.26.56-3.84-3.28-5.24,3.36.47,4.11.85,5.25-3.09C621.62,659.48,622.39,659.15,625.53,660.43Z"/><path class="cls-10" d="M354.38,616.28c-2-.33-2.07.16-2.65,1.6.22-1.63.29-1.93-1.64-2.62,1.68.23,2.07.42,2.64-1.56C352.42,615.8,352.81,615.63,354.38,616.28Z"/><path class="cls-10" d="M499.87,676.6c-2-.32-2.08.16-2.65,1.6.21-1.63.28-1.92-1.64-2.62,1.68.23,2.06.42,2.63-1.55C497.91,676.12,498.29,676,499.87,676.6Z"/><path class="cls-10" d="M579.38,615.36c-2-.32-2.08.17-2.65,1.61.21-1.64.28-1.93-1.65-2.63,1.69.24,2.07.43,2.64-1.55C577.41,614.89,577.8,614.72,579.38,615.36Z"/><path class="cls-10" d="M571.64,600.05c-.77-.13-.81.06-1,.63.09-.64.11-.76-.64-1,.66.09.81.17,1-.61C570.87,599.86,571,599.8,571.64,600.05Z"/><path class="cls-10" d="M594.16,668.21c-.78-.13-.82.06-1,.63.08-.64.11-.76-.65-1,.67.09.81.16,1-.61C593.39,668,593.54,668,594.16,668.21Z"/><path class="cls-10" d="M422.22,584.92c-.78-.12-.82.07-1,.63.08-.64.11-.75-.64-1,.66.09.8.16,1-.61C421.45,584.74,421.6,584.67,422.22,584.92Z"/><path class="cls-10" d="M387,482.55c-.78-.13-.82.07-1,.63.08-.64.11-.76-.65-1,.66.09.81.17,1-.61C386.25,482.36,386.4,482.3,387,482.55Z"/><path class="cls-10" d="M594.1,476.76c-.77-.13-.81.07-1,.63.09-.64.11-.76-.64-1,.66.09.81.17,1-.61C593.33,476.57,593.48,476.51,594.1,476.76Z"/><path class="cls-10" d="M403.14,422.14c-.78-.13-.82.06-1,.63.08-.64.11-.76-.65-1,.66.09.81.17,1-.61C402.37,422,402.52,421.89,403.14,422.14Z"/><path class="cls-10" d="M656.37,480.17c-.77-.12-.81.07-1,.63.09-.64.11-.75-.64-1,.66.09.81.17,1-.61C655.6,480,655.75,479.92,656.37,480.17Z"/><path class="cls-10" d="M373.52,646.59c-3.1-.5-3.25.26-4.14,2.51.33-2.56.44-3-2.58-4.11,2.64.37,3.23.67,4.13-2.42C370.45,645.84,371.05,645.59,373.52,646.59Z"/><path class="cls-10" d="M545.41,570.08c-3.94-.63-4.14.34-5.28,3.2.42-3.25.56-3.83-3.28-5.23,3.36.47,4.12.85,5.26-3.09C541.5,569.14,542.27,568.81,545.41,570.08Z"/><path class="cls-10" d="M456.8,501.93c-3.95-.64-4.14.33-5.28,3.2.42-3.26.56-3.84-3.28-5.24,3.35.47,4.11.85,5.25-3.09C452.89,501,453.65,500.65,456.8,501.93Z"/><path class="cls-10" d="M558.12,458.89c-3.94-.64-4.14.33-5.28,3.19.42-3.25.56-3.83-3.28-5.23,3.36.47,4.12.85,5.26-3.09C554.21,457.94,555,457.61,558.12,458.89Z"/><path class="cls-10" d="M457.14,588.54c-2.32-.37-2.43.2-3.1,1.88.25-1.91.33-2.25-1.92-3.07,2,.28,2.41.5,3.08-1.81C454.85,588,455.3,587.79,457.14,588.54Z"/><path class="cls-10" d="M429.92,403.9c-2.5-.41-2.63.21-3.35,2,.27-2.06.36-2.43-2.08-3.31,2.13.29,2.61.53,3.33-2C427.44,403.29,427.93,403.09,429.92,403.9Z"/><path class="cls-10" d="M641.89,499.67c-3.95-.64-4.14.33-5.29,3.2.43-3.26.56-3.84-3.28-5.24,3.36.47,4.12.85,5.26-3.09C638,498.72,638.74,498.39,641.89,499.67Z"/><path class="cls-10" d="M616,443.65c-4-.64-4.14.33-5.28,3.19.42-3.25.56-3.83-3.28-5.23,3.36.47,4.11.85,5.25-3.09C612.06,442.7,612.83,442.37,616,443.65Z"/><path class="cls-10" d="M592.36,454.5a1.62,1.62,0,1,1-1.2-2A1.62,1.62,0,0,1,592.36,454.5Z"/><path class="cls-10" d="M371.25,499.37a2.12,2.12,0,1,1-1.58-2.55A2.11,2.11,0,0,1,371.25,499.37Z"/><path class="cls-10" d="M373.54,581.41a1.35,1.35,0,1,1-1-1.63A1.36,1.36,0,0,1,373.54,581.41Z"/><path class="cls-10" d="M356.81,547.19a2.46,2.46,0,1,1-1.82-3A2.46,2.46,0,0,1,356.81,547.19Z"/><path class="cls-10" d="M417.54,390a2.77,2.77,0,0,1-5.38-1.28,2.77,2.77,0,1,1,5.38,1.28Z"/><path class="cls-10" d="M538.66,535a1.51,1.51,0,1,1-1.12-1.81A1.5,1.5,0,0,1,538.66,535Z"/><path class="cls-10" d="M545.53,598.09a1.62,1.62,0,1,1-1.2-2A1.63,1.63,0,0,1,545.53,598.09Z"/><path class="cls-10" d="M559.79,432.82a2.52,2.52,0,1,1-1.87-3A2.52,2.52,0,0,1,559.79,432.82Z"/><path class="cls-10" d="M560.23,477a1.72,1.72,0,1,1-1.28-2.07A1.72,1.72,0,0,1,560.23,477Z"/><path class="cls-10" d="M541.79,485.32a1.22,1.22,0,0,1-1.48.91,1.23,1.23,0,1,1,1.48-.91Z"/><path class="cls-10" d="M368.75,595.74a1.6,1.6,0,1,1-1.18-1.93A1.6,1.6,0,0,1,368.75,595.74Z"/><path class="cls-10" d="M599,496a1,1,0,0,1-2-.46,1,1,0,0,1,1.23-.75A1,1,0,0,1,599,496Z"/><path class="cls-10" d="M586,542.94a1,1,0,0,1-1.22.75,1,1,0,0,1-.76-1.22,1,1,0,0,1,1.23-.75A1,1,0,0,1,586,542.94Z"/><path class="cls-10" d="M599.93,602.36a1.57,1.57,0,1,1-1.17-1.88A1.57,1.57,0,0,1,599.93,602.36Z"/><path class="cls-10" d="M375.3,527.13a1,1,0,0,1-1.92-.45,1,1,0,0,1,1.92.45Z"/><path class="cls-10" d="M494.32,487.59a1.6,1.6,0,1,1-1.19-1.92A1.61,1.61,0,0,1,494.32,487.59Z"/><path class="cls-10" d="M403.43,501.24a1.51,1.51,0,1,1-1.11-1.82A1.51,1.51,0,0,1,403.43,501.24Z"/><path class="cls-10" d="M406.57,451.61a1.23,1.23,0,1,1-.92-1.48A1.23,1.23,0,0,1,406.57,451.61Z"/><path class="cls-10" d="M484.83,450.83a1,1,0,1,1-.76-1.22A1,1,0,0,1,484.83,450.83Z"/><path class="cls-10" d="M446.33,479.36a1.59,1.59,0,1,1,1.33-1.82A1.6,1.6,0,0,1,446.33,479.36Z"/><path class="cls-10" d="M456.65,472.23a1,1,0,0,1-.31-2,1,1,0,0,1,.31,2Z"/><path class="cls-10" d="M448.65,522.32a1.59,1.59,0,1,1,.41-2.22A1.61,1.61,0,0,1,448.65,522.32Z"/><path class="cls-10" d="M574.71,642.64a1,1,0,1,1,.26-1.41A1,1,0,0,1,574.71,642.64Z"/><path class="cls-10" d="M479.55,523.16a1,1,0,1,1,.26-1.41A1,1,0,0,1,479.55,523.16Z"/><path class="cls-10" d="M455.54,434.25a1,1,0,0,1-1.15-1.67,1,1,0,0,1,1.41.26A1,1,0,0,1,455.54,434.25Z"/><path class="cls-10" d="M585.89,417.27a1,1,0,0,1-1.15-1.68,1,1,0,0,1,1.15,1.68Z"/><path class="cls-10" d="M517,460.2a1,1,0,1,1,.26-1.41A1,1,0,0,1,517,460.2Z"/><path class="cls-10" d="M533.34,416.07a1,1,0,1,1,.26-1.41A1,1,0,0,1,533.34,416.07Z"/><path class="cls-10" d="M452.91,614.77a1,1,0,0,1-1.41-.27,1,1,0,0,1,.26-1.41,1,1,0,0,1,1.41.27A1,1,0,0,1,452.91,614.77Z"/><path class="cls-10" d="M602.65,660.44a1,1,0,0,1-1.41-.27,1,1,0,1,1,1.67-1.14A1,1,0,0,1,602.65,660.44Z"/><path class="cls-10" d="M483.21,606.76a1,1,0,0,1-1.15-1.68,1,1,0,0,1,1.15,1.68Z"/><path class="cls-10" d="M554.29,682.2a1,1,0,1,1,.26-1.41A1,1,0,0,1,554.29,682.2Z"/><path class="cls-10" d="M437.8,392.67c.11-.08-.06-.52-.38-1s-.66-.78-.77-.7.06.52.37,1S437.68,392.74,437.8,392.67Z"/><path class="cls-10" d="M562.07,646.12c.11-.08-.06-.51-.38-1s-.66-.77-.77-.7.06.52.37,1S562,646.2,562.07,646.12Z"/><path class="cls-10" d="M464.7,568.65a1.57,1.57,0,1,1-1.16-1.88A1.57,1.57,0,0,1,464.7,568.65Z"/><path class="cls-10" d="M437,653.64a1.48,1.48,0,1,1-1.1-1.76A1.47,1.47,0,0,1,437,653.64Z"/><path class="cls-10" d="M417.32,606.66a1.78,1.78,0,1,1-1.32-2.15A1.8,1.8,0,0,1,417.32,606.66Z"/><path class="cls-10" d="M378,616.9a1.44,1.44,0,1,1-1.07-1.74A1.44,1.44,0,0,1,378,616.9Z"/><path class="cls-10" d="M406.34,656.83a1,1,0,1,1-.75-1.22A1,1,0,0,1,406.34,656.83Z"/><path class="cls-10" d="M808.71,408.75a1.47,1.47,0,1,1-2-.73A1.47,1.47,0,0,1,808.71,408.75Z"/><path class="cls-10" d="M777.07,453.19a1.3,1.3,0,0,1-.65,1.71,1.31,1.31,0,0,1-1.71-.66,1.29,1.29,0,1,1,2.36-1.05Z"/><path class="cls-10" d="M822.58,434.66a2.54,2.54,0,1,1-3.35-1.28A2.54,2.54,0,0,1,822.58,434.66Z"/><path class="cls-10" d="M551.16,338.74a1.72,1.72,0,1,1-1.24-2.1A1.72,1.72,0,0,1,551.16,338.74Z"/><path class="cls-10" d="M482.28,455.82a2.4,2.4,0,1,1-1.74-2.92A2.42,2.42,0,0,1,482.28,455.82Z"/><path class="cls-10" d="M665.67,616.49a2.15,2.15,0,1,1-1.56-2.61A2.14,2.14,0,0,1,665.67,616.49Z"/><path class="cls-10" d="M551.62,554.54a1.75,1.75,0,1,1-1.27-2.12A1.74,1.74,0,0,1,551.62,554.54Z"/><path class="cls-10" d="M598.25,367.83a1.65,1.65,0,1,1-1.19-2A1.66,1.66,0,0,1,598.25,367.83Z"/><path class="cls-10" d="M531,441.26a1.76,1.76,0,1,1-1.27-2.13A1.77,1.77,0,0,1,531,441.26Z"/><path class="cls-10" d="M644.34,558.27a1.14,1.14,0,1,1-.83-1.39A1.15,1.15,0,0,1,644.34,558.27Z"/><path class="cls-10" d="M618.31,572.42a1.54,1.54,0,0,1-3-.76,1.54,1.54,0,1,1,3,.76Z"/><path class="cls-10" d="M606.38,663.64a1.54,1.54,0,1,1-1.11-1.88A1.55,1.55,0,0,1,606.38,663.64Z"/><path class="cls-10" d="M805.23,463.48a2.54,2.54,0,1,1-3.35-1.28A2.53,2.53,0,0,1,805.23,463.48Z"/><path class="cls-10" d="M794.21,516.81a1.86,1.86,0,1,1-1.35-2.27A1.86,1.86,0,0,1,794.21,516.81Z"/><path class="cls-10" d="M789.34,554.93a1.86,1.86,0,1,1-1.35-2.26A1.85,1.85,0,0,1,789.34,554.93Z"/><path class="cls-10" d="M781.68,605.92a1.86,1.86,0,1,1-1.35-2.27A1.86,1.86,0,0,1,781.68,605.92Z"/><path class="cls-10" d="M753.39,569.31a1.86,1.86,0,1,1-1.35-2.26A1.86,1.86,0,0,1,753.39,569.31Z"/><path class="cls-10" d="M759.64,638.08a1.87,1.87,0,0,1-2.27,1.35,1.86,1.86,0,1,1,2.27-1.35Z"/><path class="cls-10" d="M713.91,509.37a2.8,2.8,0,1,1-2-3.41A2.79,2.79,0,0,1,713.91,509.37Z"/><path class="cls-10" d="M639.4,397.25c-3.17-.56-3.34.22-4.29,2.51.38-2.62.5-3.08-2.58-4.25,2.7.42,3.31.73,4.27-2.43C636.26,396.44,636.89,396.18,639.4,397.25Z"/><path class="cls-10" d="M672.2,503.9c-3.55-.64-3.74.24-4.81,2.81.42-2.93.56-3.46-2.89-4.77,3,.47,3.7.82,4.78-2.71C668.68,503,669.38,502.7,672.2,503.9Z"/><path class="cls-10" d="M514.83,549.2c-4.59-.81-4.84.32-6.22,3.65.55-3.8.72-4.48-3.74-6.17,3.92.6,4.79,1.06,6.19-3.52C510.28,548,511.19,547.66,514.83,549.2Z"/><path class="cls-10" d="M667.17,671.75c-4.6-.82-4.84.31-6.23,3.64.55-3.8.72-4.47-3.74-6.17,3.92.61,4.8,1.06,6.19-3.52C662.62,670.57,663.52,670.2,667.17,671.75Z"/><path class="cls-10" d="M493.59,413.13c-2.57-.46-2.71.18-3.49,2,.31-2.13.41-2.5-2.09-3.45,2.19.34,2.68.59,3.47-2C491,412.47,491.55,412.26,493.59,413.13Z"/><path class="cls-10" d="M776.9,676.6c-4.6-.82-4.84.31-6.23,3.64.56-3.8.73-4.47-3.73-6.17,3.91.61,4.79,1.07,6.19-3.51C772.35,675.42,773.25,675.05,776.9,676.6Z"/><path class="cls-10" d="M461,620.26c-2.31-.41-2.43.16-3.13,1.83.28-1.91.37-2.25-1.87-3.1,2,.31,2.4.53,3.11-1.76C458.74,619.67,459.19,619.48,461,620.26Z"/><path class="cls-10" d="M629.86,693.27c-2.3-.41-2.42.16-3.12,1.83.28-1.91.36-2.24-1.87-3.1,2,.31,2.4.54,3.1-1.76C627.58,692.68,628,692.5,629.86,693.27Z"/><path class="cls-10" d="M723.79,623.16c-2.3-.41-2.42.15-3.12,1.82.28-1.9.36-2.24-1.87-3.09,2,.3,2.4.53,3.1-1.77C721.51,622.57,722,622.38,723.79,623.16Z"/><path class="cls-10" d="M715,605.14c-.9-.16-.95.06-1.22.71.11-.74.14-.88-.74-1.21.77.12.95.21,1.22-.69C714.14,604.9,714.31,604.83,715,605.14Z"/><path class="cls-10" d="M740.13,685.13c-.91-.16-1,.06-1.23.72.11-.75.14-.88-.73-1.21.77.11.94.2,1.22-.7C739.23,684.9,739.41,684.83,740.13,685.13Z"/><path class="cls-10" d="M540.79,584.84c-.9-.16-.95.06-1.22.72.11-.75.14-.88-.74-1.22.77.12.94.21,1.22-.69C539.9,584.61,540.07,584.54,540.79,584.84Z"/><path class="cls-10" d="M501.49,464.66c-.91-.16-1,.06-1.23.72.11-.75.14-.88-.73-1.22.77.12.94.21,1.21-.69C500.59,464.43,500.77,464.36,501.49,464.66Z"/><path class="cls-10" d="M743.43,461.55c-.9-.16-.95.06-1.22.71.11-.74.14-.88-.74-1.21.77.12.95.21,1.22-.69C742.54,461.32,742.72,461.24,743.43,461.55Z"/><path class="cls-10" d="M521.37,394.39c-.9-.16-1,.07-1.22.72.11-.75.14-.88-.73-1.21.76.12.94.21,1.21-.7C520.48,394.16,520.66,394.09,521.37,394.39Z"/><path class="cls-10" d="M816.1,466.63c-.91-.16-1,.06-1.23.71.11-.74.14-.88-.73-1.21.77.12.94.21,1.21-.69C815.2,466.4,815.38,466.32,816.1,466.63Z"/><path class="cls-10" d="M482.83,656c-3.61-.64-3.8.24-4.88,2.86.43-3,.56-3.51-2.94-4.84,3.08.47,3.77.83,4.86-2.76C479.26,655.07,480,654.78,482.83,656Z"/><path class="cls-10" d="M684.93,569.68c-4.6-.82-4.84.32-6.23,3.64.55-3.8.73-4.47-3.73-6.16,3.91.6,4.79,1.06,6.19-3.52C680.38,568.5,681.28,568.13,684.93,569.68Z"/><path class="cls-10" d="M582.64,488.52c-4.6-.82-4.84.32-6.23,3.64.55-3.79.72-4.47-3.74-6.16,3.92.6,4.8,1.06,6.2-3.52C578.09,487.34,579,487,582.64,488.52Z"/><path class="cls-10" d="M701.73,440c-4.6-.82-4.84.31-6.23,3.64.55-3.8.73-4.47-3.74-6.17,3.92.61,4.8,1.07,6.2-3.51C697.18,438.86,698.08,438.49,701.73,440Z"/><path class="cls-10" d="M581.51,589.68c-2.7-.48-2.84.19-3.65,2.14.32-2.23.42-2.62-2.19-3.62,2.29.36,2.81.63,3.63-2.06C578.84,589,579.37,588.78,581.51,589.68Z"/><path class="cls-10" d="M553,373.56c-2.91-.52-3.07.2-3.94,2.3.35-2.4.45-2.83-2.37-3.9,2.48.38,3,.67,3.92-2.23C550.09,372.81,550.66,372.58,553,373.56Z"/><path class="cls-10" d="M798.83,489.14c-4.59-.82-4.84.32-6.22,3.64.55-3.79.72-4.47-3.74-6.16,3.92.6,4.8,1.06,6.19-3.52C794.28,488,795.19,487.59,798.83,489.14Z"/><path class="cls-10" d="M769.55,423.26c-4.59-.82-4.84.31-6.22,3.64.55-3.8.72-4.47-3.74-6.17,3.92.61,4.79,1.07,6.19-3.51C765,422.08,765.91,421.71,769.55,423.26Z"/><path class="cls-10" d="M741.79,435.52a1.9,1.9,0,1,1-1.37-2.31A1.9,1.9,0,0,1,741.79,435.52Z"/><path class="cls-10" d="M482.77,484a2.48,2.48,0,1,1-1.79-3A2.47,2.47,0,0,1,482.77,484Z"/><path class="cls-10" d="M484,579.88a1.58,1.58,0,1,1-1.15-1.92A1.58,1.58,0,0,1,484,579.88Z"/><path class="cls-10" d="M465.07,539.62a2.87,2.87,0,1,1-2.08-3.49A2.87,2.87,0,0,1,465.07,539.62Z"/><path class="cls-10" d="M538.76,357.11a3.23,3.23,0,1,1-2.33-3.92A3.23,3.23,0,0,1,538.76,357.11Z"/><path class="cls-10" d="M677.66,528.52a1.76,1.76,0,1,1-1.28-2.13A1.76,1.76,0,0,1,677.66,528.52Z"/><path class="cls-10" d="M684.57,602.39a1.89,1.89,0,1,1-1.37-2.3A1.89,1.89,0,0,1,684.57,602.39Z"/><path class="cls-10" d="M704.13,409.63a2.94,2.94,0,1,1-2.13-3.58A2.94,2.94,0,0,1,704.13,409.63Z"/><path class="cls-10" d="M703.87,461.25a2,2,0,0,1-3.89-1,2,2,0,1,1,3.89,1Z"/><path class="cls-10" d="M682.19,470.63a1.43,1.43,0,0,1-2.78-.71,1.43,1.43,0,1,1,2.78.71Z"/><path class="cls-10" d="M478.15,596.52a1.86,1.86,0,0,1-3.61-.91,1.86,1.86,0,1,1,3.61.91Z"/><path class="cls-10" d="M748.83,484.14a1.19,1.19,0,1,1-.86-1.43A1.18,1.18,0,0,1,748.83,484.14Z"/><path class="cls-10" d="M732.85,538.7a1.19,1.19,0,1,1-.86-1.44A1.18,1.18,0,0,1,732.85,538.7Z"/><path class="cls-10" d="M748,608.34a1.83,1.83,0,0,1-3.55-.9,1.83,1.83,0,1,1,3.55.9Z"/><path class="cls-10" d="M487,516.52a1.14,1.14,0,1,1-.84-1.39A1.14,1.14,0,0,1,487,516.52Z"/><path class="cls-10" d="M626.71,472.44a1.86,1.86,0,1,1-3.61-.92,1.86,1.86,0,0,1,3.61.92Z"/><path class="cls-10" d="M520.33,486.77a1.76,1.76,0,1,1-1.28-2.13A1.76,1.76,0,0,1,520.33,486.77Z"/><path class="cls-10" d="M524.86,428.87a1.43,1.43,0,1,1-1-1.74A1.42,1.42,0,0,1,524.86,428.87Z"/><path class="cls-10" d="M616.27,429.34a1.19,1.19,0,0,1-2.3-.58,1.19,1.19,0,1,1,2.3.58Z"/><path class="cls-10" d="M570.81,462a1.86,1.86,0,1,1,1.58-2.1A1.86,1.86,0,0,1,570.81,462Z"/><path class="cls-10" d="M583,453.83a1.19,1.19,0,1,1,1-1.34A1.19,1.19,0,0,1,583,453.83Z"/><path class="cls-10" d="M572.76,512.19a1.86,1.86,0,1,1,.52-2.58A1.86,1.86,0,0,1,572.76,512.19Z"/><path class="cls-10" d="M717.87,654.94a1.2,1.2,0,0,1-1.64-.34,1.18,1.18,0,1,1,2-1.31A1.2,1.2,0,0,1,717.87,654.94Z"/><path class="cls-10" d="M608.83,513.72a1.18,1.18,0,0,1-1.64-.34,1.2,1.2,0,0,1,.33-1.64,1.19,1.19,0,0,1,1.64.34A1.17,1.17,0,0,1,608.83,513.72Z"/><path class="cls-10" d="M582.36,409.46a1.19,1.19,0,0,1-1.64-.33,1.21,1.21,0,0,1,.33-1.65,1.19,1.19,0,0,1,1.64.34A1.17,1.17,0,0,1,582.36,409.46Z"/><path class="cls-10" d="M734.89,391.92a1.19,1.19,0,1,1,.33-1.64A1.18,1.18,0,0,1,734.89,391.92Z"/><path class="cls-10" d="M653.63,440.85a1.19,1.19,0,0,1-1.31-2,1.19,1.19,0,0,1,1.31,2Z"/><path class="cls-10" d="M673.54,389.6a1.19,1.19,0,1,1,.33-1.64A1.19,1.19,0,0,1,673.54,389.6Z"/><path class="cls-10" d="M576.11,620.24a1.18,1.18,0,0,1-1.64-.34,1.18,1.18,0,1,1,2-1.31A1.18,1.18,0,0,1,576.11,620.24Z"/><path class="cls-10" d="M750.18,676.21a1.19,1.19,0,1,1,.33-1.64A1.18,1.18,0,0,1,750.18,676.21Z"/><path class="cls-10" d="M611.63,611.41a1.19,1.19,0,0,1-1.64-.33,1.21,1.21,0,0,1,.33-1.65,1.19,1.19,0,0,1,1.64.34A1.17,1.17,0,0,1,611.63,611.41Z"/><path class="cls-10" d="M693.32,700.78a1.19,1.19,0,0,1-1.31-2,1.18,1.18,0,0,1,1.64.33A1.19,1.19,0,0,1,693.32,700.78Z"/><path class="cls-10" d="M562.37,360.58c.13-.08-.06-.6-.42-1.14s-.76-.92-.89-.84.06.61.42,1.15S562.24,360.67,562.37,360.58Z"/><path class="cls-10" d="M703,658.77c.13-.08-.06-.6-.42-1.14s-.76-.92-.89-.84.06.61.41,1.15S702.91,658.86,703,658.77Z"/><path class="cls-10" d="M590.69,566.59a1.83,1.83,0,1,1-1.32-2.23A1.82,1.82,0,0,1,590.69,566.59Z"/><path class="cls-10" d="M556.78,665.35a1.72,1.72,0,1,1-1.25-2.08A1.73,1.73,0,0,1,556.78,665.35Z"/><path class="cls-10" d="M534.68,610.14a2.08,2.08,0,1,1-1.5-2.53A2.08,2.08,0,0,1,534.68,610.14Z"/><path class="cls-10" d="M488.55,621.41a1.69,1.69,0,1,1-1.22-2.06A1.71,1.71,0,0,1,488.55,621.41Z"/><path class="cls-10" d="M521,668.54a1.18,1.18,0,0,1-1.44.86,1.2,1.2,0,0,1-.85-1.44,1.18,1.18,0,1,1,2.29.58Z"/><path class="cls-10" d="M834.79,66.09a2.46,2.46,0,1,1-3.29-1.17A2.47,2.47,0,0,1,834.79,66.09Z"/><path class="cls-10" d="M783.27,141.62a2.16,2.16,0,1,1-2.89-1A2.17,2.17,0,0,1,783.27,141.62Z"/><path class="cls-10" d="M858.91,109a4.27,4.27,0,1,1-5.67-2A4.25,4.25,0,0,1,858.91,109Z"/><path class="cls-10" d="M289.35,156.05a4,4,0,1,1-3-4.83A4,4,0,0,1,289.35,156.05Z"/><path class="cls-10" d="M602.14,419.07a3.6,3.6,0,1,1-2.7-4.32A3.61,3.61,0,0,1,602.14,419.07Z"/><path class="cls-10" d="M408.91,319.14a2.95,2.95,0,1,1-2.21-3.53A3,3,0,0,1,408.91,319.14Z"/><path class="cls-10" d="M480.7,4.65a2.77,2.77,0,1,1-2.06-3.32A2.76,2.76,0,0,1,480.7,4.65Z"/><path class="cls-10" d="M370.48,130a2.94,2.94,0,1,1-2.2-3.53A2.95,2.95,0,0,1,370.48,130Z"/><path class="cls-10" d="M564.42,322.24a1.92,1.92,0,1,1-1.45-2.3A1.92,1.92,0,0,1,564.42,322.24Z"/><path class="cls-10" d="M521.27,346.82a2.59,2.59,0,1,1-1.93-3.11A2.58,2.58,0,0,1,521.27,346.82Z"/><path class="cls-10" d="M504.37,500.11a2.58,2.58,0,1,1-1.92-3.12A2.59,2.59,0,0,1,504.37,500.11Z"/><path class="cls-10" d="M830.82,157.92a4.27,4.27,0,1,1-5.67-2A4.27,4.27,0,0,1,830.82,157.92Z"/><path class="cls-10" d="M814.16,247.65a3.12,3.12,0,1,1-2.34-3.74A3.12,3.12,0,0,1,814.16,247.65Z"/><path class="cls-10" d="M807.3,311.71A3.12,3.12,0,1,1,805,308,3.11,3.11,0,0,1,807.3,311.71Z"/><path class="cls-10" d="M796.19,397.41a3.12,3.12,0,1,1-2.34-3.75A3.11,3.11,0,0,1,796.19,397.41Z"/><path class="cls-10" d="M747.54,337a3.12,3.12,0,1,1-2.34-3.74A3.12,3.12,0,0,1,747.54,337Z"/><path class="cls-10" d="M760.34,452.06a3.12,3.12,0,1,1-2.34-3.74A3.13,3.13,0,0,1,760.34,452.06Z"/><path class="cls-10" d="M679.34,237.92a4.69,4.69,0,1,1-3.5-5.64A4.68,4.68,0,0,1,679.34,237.92Z"/><path class="cls-10" d="M550.66,52.56c-5.33-.84-5.58.48-7.1,4.35.55-4.4.73-5.18-4.47-7,4.54.6,5.57,1.11,7.08-4.21C545.38,51.31,546.41,50.86,550.66,52.56Z"/><path class="cls-10" d="M609.25,230.16c-6-.93-6.26.54-8,4.88.61-4.93.81-5.81-5-7.88,5.09.67,6.24,1.24,7.93-4.72C603.33,228.76,604.49,228.26,609.25,230.16Z"/><path class="cls-10" d="M347.08,311.44c-7.73-1.22-8.1.69-10.31,6.31.79-6.38,1.06-7.52-6.48-10.21,6.59.88,8.08,1.62,10.26-6.1C339.41,309.62,340.91,309,347.08,311.44Z"/><path class="cls-10" d="M606.52,511.62c-7.73-1.21-8.1.69-10.31,6.31.8-6.38,1.06-7.52-6.47-10.2,6.58.88,8.07,1.61,10.26-6.11C598.86,509.8,600.35,509.15,606.52,511.62Z"/><path class="cls-10" d="M306.85,84.13c-4.33-.68-4.53.39-5.77,3.54.44-3.58.59-4.22-3.63-5.72,3.69.49,4.52.9,5.75-3.42C302.56,83.11,303.4,82.74,306.85,84.13Z"/><path class="cls-10" d="M790.58,516c-7.73-1.21-8.1.69-10.31,6.32.79-6.39,1.06-7.52-6.48-10.21,6.59.88,8.07,1.62,10.26-6.11C782.91,514.2,784.41,513.55,790.58,516Z"/><path class="cls-10" d="M259.31,432.34c-3.88-.61-4.07.35-5.17,3.17.39-3.2.53-3.77-3.25-5.12,3.3.44,4.05.81,5.14-3.07C255.46,431.43,256.21,431.1,259.31,432.34Z"/><path class="cls-10" d="M544.74,549c-3.88-.61-4.06.35-5.17,3.17.4-3.21.53-3.78-3.25-5.12,3.3.44,4,.81,5.15-3.07C540.9,548.05,541.65,547.72,544.74,549Z"/><path class="cls-10" d="M699.77,428.27c-3.88-.61-4.07.34-5.17,3.17.39-3.21.53-3.78-3.25-5.13,3.3.45,4,.82,5.14-3.06C695.92,427.36,696.67,427,699.77,428.27Z"/><path class="cls-10" d="M684.47,398.37c-1.52-.24-1.59.13-2,1.24.16-1.26.21-1.48-1.27-2,1.3.18,1.59.32,2-1.2C683,398,683.26,397.88,684.47,398.37Z"/><path class="cls-10" d="M729.24,531.57c-1.52-.24-1.59.14-2,1.24.15-1.25.2-1.47-1.28-2,1.3.17,1.59.31,2-1.2C727.74,531.22,728,531.09,729.24,531.57Z"/><path class="cls-10" d="M391.79,370.28c-1.52-.24-1.6.13-2,1.24.16-1.26.21-1.48-1.27-2,1.29.18,1.58.32,2-1.2C390.28,369.92,390.58,369.79,391.79,370.28Z"/><path class="cls-10" d="M321.84,170.21c-1.53-.24-1.6.14-2,1.25.15-1.26.21-1.48-1.28-2,1.3.17,1.59.32,2-1.2C320.33,169.86,320.62,169.73,321.84,170.21Z"/><path class="cls-10" d="M727.19,156.77c-1.52-.23-1.6.14-2,1.25.16-1.26.21-1.48-1.27-2,1.29.17,1.58.32,2-1.2C725.68,156.42,726,156.29,727.19,156.77Z"/><path class="cls-10" d="M352.78,51.78c-1.52-.23-1.6.14-2,1.25.16-1.26.21-1.48-1.27-2,1.29.17,1.58.32,2-1.2C351.27,51.43,351.56,51.3,352.78,51.78Z"/><path class="cls-10" d="M849.13,162.82c-1.52-.24-1.59.14-2,1.24.16-1.25.21-1.48-1.27-2,1.29.17,1.58.31,2-1.21C847.62,162.46,847.92,162.34,849.13,162.82Z"/><path class="cls-10" d="M297.08,491.49c-6.07-.95-6.36.54-8.09,5,.62-5,.83-5.9-5.08-8,5.16.69,6.33,1.26,8-4.79C291.06,490.07,292.24,489.55,297.08,491.49Z"/><path class="cls-10" d="M632.82,340c-7.73-1.21-8.1.7-10.31,6.32.8-6.39,1.06-7.52-6.47-10.21,6.58.88,8.07,1.62,10.25-6.1C625.16,338.16,626.65,337.5,632.82,340Z"/><path class="cls-10" d="M458.64,207.44c-7.73-1.21-8.1.69-10.31,6.32.8-6.39,1.06-7.52-6.47-10.21,6.58.88,8.07,1.62,10.26-6.11C451,205.62,452.47,205,458.64,207.44Z"/><path class="cls-10" d="M656.57,122.15c-7.73-1.22-8.1.69-10.31,6.31.79-6.38,1.06-7.52-6.48-10.21,6.59.88,8.07,1.62,10.26-6.1C648.9,120.33,650.4,119.68,656.57,122.15Z"/><path class="cls-10" d="M460.19,377c-4.54-.71-4.75.4-6.05,3.7.47-3.74.62-4.41-3.79-6,3.86.52,4.73.95,6-3.58C455.69,375.94,456.57,375.56,460.19,377Z"/><path class="cls-10" d="M405,15.79c-4.9-.76-5.13.44-6.53,4,.5-4,.67-4.76-4.1-6.46,4.17.56,5.11,1,6.5-3.87C400.16,14.64,401.11,14.23,405,15.79Z"/><path class="cls-10" d="M821,201.13c-7.74-1.21-8.1.7-10.31,6.32.79-6.38,1.06-7.52-6.48-10.21,6.59.88,8.07,1.62,10.26-6.1C813.3,199.32,814.8,198.66,821,201.13Z"/><path class="cls-10" d="M769.66,91.72c-7.73-1.21-8.1.69-10.31,6.32.8-6.39,1.06-7.52-6.47-10.21,6.58.88,8.07,1.62,10.26-6.11C762,89.91,763.49,89.25,769.66,91.72Z"/><path class="cls-10" d="M723.55,113.21a3.18,3.18,0,1,1-2.37-3.82A3.19,3.19,0,0,1,723.55,113.21Z"/><path class="cls-10" d="M291.13,203.3a4.15,4.15,0,1,1-3.1-5A4.14,4.14,0,0,1,291.13,203.3Z"/><path class="cls-10" d="M296.45,363.89a2.64,2.64,0,1,1-2-3.18A2.65,2.65,0,0,1,296.45,363.89Z"/><path class="cls-10" d="M263.35,297.06a4.81,4.81,0,1,1-3.6-5.77A4.81,4.81,0,0,1,263.35,297.06Z"/><path class="cls-10" d="M619.24,271.25a2.95,2.95,0,1,1-2.21-3.53A2.95,2.95,0,0,1,619.24,271.25Z"/><path class="cls-10" d="M633.33,394.8A3.18,3.18,0,1,1,631,391,3.19,3.19,0,0,1,633.33,394.8Z"/><path class="cls-10" d="M659.56,71.11a4.93,4.93,0,1,1-3.69-5.92A4.93,4.93,0,0,1,659.56,71.11Z"/><path class="cls-10" d="M660.88,157.62a3.37,3.37,0,1,1-2.52-4A3.38,3.38,0,0,1,660.88,157.62Z"/><path class="cls-10" d="M624.87,174.07a2.41,2.41,0,1,1-1.8-2.88A2.41,2.41,0,0,1,624.87,174.07Z"/><path class="cls-10" d="M287.22,392a3.13,3.13,0,1,1-2.33-3.76A3.13,3.13,0,0,1,287.22,392Z"/><path class="cls-10" d="M737,194.46a2,2,0,1,1-1.49-2.38A2,2,0,0,1,737,194.46Z"/><path class="cls-10" d="M712.08,286.43a2,2,0,1,1-1.49-2.38A2,2,0,0,1,712.08,286.43Z"/><path class="cls-10" d="M739.87,402.61a3.07,3.07,0,1,1-2.3-3.68A3.07,3.07,0,0,1,739.87,402.61Z"/><path class="cls-10" d="M299.34,257.61a1.92,1.92,0,1,1-1.45-2.3A1.92,1.92,0,0,1,299.34,257.61Z"/><path class="cls-10" d="M531.94,179a3.12,3.12,0,1,1-2.34-3.74A3.12,3.12,0,0,1,531.94,179Z"/><path class="cls-10" d="M354.16,206.63a2.95,2.95,0,1,1-2.21-3.54A2.94,2.94,0,0,1,354.16,206.63Z"/><path class="cls-10" d="M359.79,109.45a2.4,2.4,0,1,1-1.8-2.89A2.42,2.42,0,0,1,359.79,109.45Z"/><path class="cls-10" d="M513,107.13a2,2,0,1,1-1.49-2.39A2,2,0,0,1,513,107.13Z"/><path class="cls-10" d="M437.91,163.37a3.12,3.12,0,1,1,2.59-3.58A3.13,3.13,0,0,1,437.91,163.37Z"/><path class="cls-10" d="M458.05,149.3a2,2,0,1,1,1.64-2.28A2,2,0,0,1,458.05,149.3Z"/><path class="cls-10" d="M442.89,247.45a3.12,3.12,0,1,1,.79-4.35A3.12,3.12,0,0,1,442.89,247.45Z"/><path class="cls-10" d="M690.91,481.73a2,2,0,1,1,.5-2.77A2,2,0,0,1,690.91,481.73Z"/><path class="cls-10" d="M503.39,248.78a2,2,0,1,1,.5-2.76A2,2,0,0,1,503.39,248.78Z"/><path class="cls-10" d="M455.49,75a2,2,0,1,1,.5-2.76A2,2,0,0,1,455.49,75Z"/><path class="cls-10" d="M710.5,40.39a2,2,0,1,1,.5-2.77A2,2,0,0,1,710.5,40.39Z"/><path class="cls-10" d="M576,125.14a2,2,0,1,1,.5-2.77A2,2,0,0,1,576,125.14Z"/><path class="cls-10" d="M607.61,38.59a2,2,0,1,1,.5-2.77A2,2,0,0,1,607.61,38.59Z"/><path class="cls-10" d="M452.18,428.4a2,2,0,0,1-2.76-.51,2,2,0,1,1,3.26-2.26A2,2,0,0,1,452.18,428.4Z"/><path class="cls-10" d="M745.78,516.28a2,2,0,1,1,.5-2.76A2,2,0,0,1,745.78,516.28Z"/><path class="cls-10" d="M511.41,412.4a2,2,0,1,1,.5-2.77A2,2,0,0,1,511.41,412.4Z"/><path class="cls-10" d="M651.33,559.38a2,2,0,1,1,.5-2.77A2,2,0,0,1,651.33,559.38Z"/><path class="cls-10" d="M666.19,488.66c.22-.15-.11-1-.74-1.91s-1.31-1.51-1.52-1.36.12,1,.74,1.9S666,488.81,666.19,488.66Z"/><path class="cls-10" d="M474.79,338a3.07,3.07,0,1,1-2.3-3.68A3.07,3.07,0,0,1,474.79,338Z"/><path class="cls-10" d="M421.32,504.65a2.89,2.89,0,1,1-2.17-3.44A2.89,2.89,0,0,1,421.32,504.65Z"/><path class="cls-10" d="M382.41,412.89a3.49,3.49,0,1,1-2.61-4.2A3.48,3.48,0,0,1,382.41,412.89Z"/><path class="cls-10" d="M305.48,433.33a2.82,2.82,0,1,1-2.11-3.41A2.83,2.83,0,0,1,305.48,433.33Z"/><path class="cls-10" d="M361.44,511.21a2,2,0,0,1-3.87-.89,2,2,0,1,1,3.87.89Z"/><path class="cls-10" d="M711.85,76a1.4,1.4,0,1,1-1-1.73A1.4,1.4,0,0,1,711.85,76Z"/><path class="cls-10" d="M653.51,169.49a2,2,0,1,1-1.35-2.41A2,2,0,0,1,653.51,169.49Z"/><path class="cls-10" d="M798.89,303.68a1.74,1.74,0,1,1-1.21-2.14A1.74,1.74,0,0,1,798.89,303.68Z"/><path class="cls-10" d="M707.68,251a1.43,1.43,0,1,1-1-1.75A1.43,1.43,0,0,1,707.68,251Z"/><path class="cls-10" d="M749.43,100.55a1.34,1.34,0,1,1-.92-1.66A1.34,1.34,0,0,1,749.43,100.55Z"/><path class="cls-10" d="M693.33,158.7a1.43,1.43,0,1,1-1-1.76A1.44,1.44,0,0,1,693.33,158.7Z"/><path class="cls-10" d="M782.82,256a.94.94,0,1,1-1.8-.51.94.94,0,0,1,1.8.51Z"/><path class="cls-10" d="M761.4,266.94a1.25,1.25,0,0,1-2.41-.68,1.25,1.25,0,1,1,2.41.68Z"/><path class="cls-10" d="M749.8,340.69a1.25,1.25,0,1,1-.86-1.55A1.25,1.25,0,0,1,749.8,340.69Z"/><path class="cls-10" d="M871.05,267.26a1.51,1.51,0,1,1-1-1.86A1.51,1.51,0,0,1,871.05,267.26Z"/><path class="cls-10" d="M874.66,323.18a1.5,1.5,0,0,1-1.86,1.05,1.52,1.52,0,1,1,1.86-1.05Z"/><path class="cls-10" d="M840.28,217.8a2.27,2.27,0,1,1-1.56-2.8A2.27,2.27,0,0,1,840.28,217.8Z"/><path class="cls-10" d="M782.2,125.28c-2.56-.52-2.71.11-3.54,2,.37-2.12.47-2.49-2-3.51,2.18.4,2.67.67,3.52-1.87C779.67,124.56,780.18,124.36,782.2,125.28Z"/><path class="cls-10" d="M806.56,212.48c-2.87-.58-3,.12-4,2.19.4-2.38.52-2.8-2.25-3.93,2.45.44,3,.74,3.94-2.1C803.73,211.67,804.3,211.45,806.56,212.48Z"/><path class="cls-10" d="M678,245.92c-3.71-.75-3.94.16-5.13,2.83.53-3.07.68-3.61-2.9-5.08,3.16.57,3.87,1,5.1-2.73C674.28,244.87,675,244.59,678,245.92Z"/><path class="cls-10" d="M798.94,348.54c-3.71-.76-3.93.15-5.12,2.82.52-3.06.68-3.61-2.91-5.08,3.17.58,3.87,1,5.1-2.72C795.28,347.49,796,347.21,798.94,348.54Z"/><path class="cls-10" d="M663.58,135.09c-2.08-.42-2.2.09-2.87,1.59.29-1.72.38-2-1.63-2.85,1.77.32,2.17.54,2.86-1.53C661.53,134.51,661.94,134.35,663.58,135.09Z"/><path class="cls-10" d="M632.8,302.43c-1.87-.38-2,.08-2.58,1.42.27-1.54.35-1.81-1.45-2.55,1.58.29,1.94.48,2.55-1.37C631,301.91,631.33,301.77,632.8,302.43Z"/><path class="cls-10" d="M768.23,365.22c-1.86-.38-2,.07-2.57,1.41.26-1.54.34-1.81-1.46-2.55,1.59.29,1.94.49,2.56-1.36C766.39,364.69,766.76,364.55,768.23,365.22Z"/><path class="cls-10" d="M845.9,310.32c-1.86-.38-2,.07-2.57,1.41.27-1.54.34-1.81-1.46-2.55,1.59.29,1.94.49,2.56-1.36C844.06,309.79,844.43,309.65,845.9,310.32Z"/><path class="cls-10" d="M839.17,295.51c-.73-.15-.77,0-1,.56.1-.6.13-.71-.57-1,.62.11.76.19,1-.54C838.45,295.31,838.6,295.25,839.17,295.51Z"/><path class="cls-10" d="M857.85,360.94c-.73-.15-.78,0-1,.55.1-.6.13-.71-.57-1,.62.11.76.19,1-.53C857.13,360.73,857.27,360.67,857.85,360.94Z"/><path class="cls-10" d="M698.25,275.38c-.73-.15-.77,0-1,.56.1-.61.13-.71-.57-1,.62.11.76.19,1-.54C697.53,275.18,697.68,275.12,698.25,275.38Z"/><path class="cls-10" d="M668.9,177.06c-.73-.15-.77,0-1,.56.11-.61.14-.71-.57-1,.62.11.76.19,1-.54C668.18,176.86,668.32,176.8,668.9,177.06Z"/><path class="cls-10" d="M865.24,179.63c-.73-.15-.78,0-1,.55.1-.6.13-.71-.57-1,.62.11.76.19,1-.54C864.52,179.42,864.66,179.37,865.24,179.63Z"/><path class="cls-10" d="M686.51,120.48c-.73-.15-.77,0-1,.55.11-.6.14-.71-.57-1,.63.12.76.19,1-.53C685.79,120.27,685.94,120.22,686.51,120.48Z"/><path class="cls-10" d="M649.74,331.88c-2.91-.59-3.09.12-4,2.22.41-2.41.53-2.83-2.28-4,2.48.45,3,.76,4-2.13C646.86,331.06,647.44,330.84,649.74,331.88Z"/><path class="cls-10" d="M815.5,266.12c-3.71-.76-3.93.15-5.13,2.82.53-3.07.68-3.61-2.9-5.08,3.16.57,3.87,1,5.1-2.72C811.83,265.07,812.57,264.79,815.5,266.12Z"/><path class="cls-10" d="M734.23,198.13c-3.71-.76-3.94.15-5.13,2.82.53-3.07.68-3.61-2.9-5.08,3.16.57,3.87,1,5.1-2.73C730.56,197.08,731.3,196.79,734.23,198.13Z"/><path class="cls-10" d="M831.86,161.3c-3.71-.76-3.94.16-5.13,2.83.53-3.07.68-3.62-2.9-5.08,3.16.57,3.87,1,5.1-2.73C828.19,160.25,828.93,160,831.86,161.3Z"/><path class="cls-10" d="M731.18,280.17c-2.17-.45-2.3.09-3,1.65.31-1.8.4-2.12-1.7-3,1.85.34,2.26.57,3-1.59C729,279.55,729.47,279.39,731.18,280.17Z"/><path class="cls-10" d="M712.58,104.24c-2.35-.48-2.49.1-3.24,1.79.33-1.94.43-2.29-1.84-3.22,2,.37,2.45.61,3.23-1.72C710.26,103.58,710.73,103.4,712.58,104.24Z"/><path class="cls-10" d="M864.45,158.48a1.54,1.54,0,1,1-1.06-1.9A1.54,1.54,0,0,1,864.45,158.48Z"/><path class="cls-10" d="M653.31,192.38a2,2,0,1,1-1.39-2.48A2,2,0,0,1,653.31,192.38Z"/><path class="cls-10" d="M652.29,270.16a1.28,1.28,0,1,1-.89-1.58A1.29,1.29,0,0,1,652.29,270.16Z"/><path class="cls-10" d="M637.78,237.1a2.33,2.33,0,1,1-1.61-2.87A2.33,2.33,0,0,1,637.78,237.1Z"/><path class="cls-10" d="M701.4,90.6a2.62,2.62,0,1,1-1.81-3.23A2.61,2.61,0,0,1,701.4,90.6Z"/><path class="cls-10" d="M810.47,232.58a1.43,1.43,0,1,1-1-1.76A1.42,1.42,0,0,1,810.47,232.58Z"/><path class="cls-10" d="M814.52,292.64a1.54,1.54,0,1,1-1.06-1.89A1.53,1.53,0,0,1,814.52,292.64Z"/><path class="cls-10" d="M834.45,136.69a2.39,2.39,0,1,1-1.65-2.95A2.39,2.39,0,0,1,834.45,136.69Z"/><path class="cls-10" d="M833.15,178.55a1.63,1.63,0,1,1-1.13-2A1.64,1.64,0,0,1,833.15,178.55Z"/><path class="cls-10" d="M815.37,185.71a1.17,1.17,0,1,1-.81-1.44A1.17,1.17,0,0,1,815.37,185.71Z"/><path class="cls-10" d="M647.2,283.54a1.52,1.52,0,1,1-1.05-1.87A1.53,1.53,0,0,1,647.2,283.54Z"/><path class="cls-10" d="M869.14,198.07a1,1,0,1,1-.67-1.18A1,1,0,0,1,869.14,198.07Z"/><path class="cls-10" d="M855,242a1,1,0,1,1-.67-1.18A1,1,0,0,1,855,242Z"/><path class="cls-10" d="M865.87,298.81a1.49,1.49,0,1,1-1-1.84A1.5,1.5,0,0,1,865.87,298.81Z"/><path class="cls-10" d="M656.07,218.83a.94.94,0,1,1-.65-1.15A.93.93,0,0,1,656.07,218.83Z"/><path class="cls-10" d="M770.32,186a1.51,1.51,0,1,1-1.05-1.87A1.52,1.52,0,0,1,770.32,186Z"/><path class="cls-10" d="M683.72,195.4a1.43,1.43,0,1,1-1-1.76A1.42,1.42,0,0,1,683.72,195.4Z"/><path class="cls-10" d="M688.61,148.52a1.16,1.16,0,1,1-.8-1.43A1.15,1.15,0,0,1,688.61,148.52Z"/><path class="cls-10" d="M762.76,150.83a1,1,0,1,1-.67-1.19A1,1,0,0,1,762.76,150.83Z"/><path class="cls-10" d="M725.19,176.35a1.51,1.51,0,1,1,1.33-1.68A1.52,1.52,0,0,1,725.19,176.35Z"/><path class="cls-10" d="M735.24,170a1,1,0,1,1,.85-1.06A1,1,0,0,1,735.24,170Z"/><path class="cls-10" d="M725.72,217.12a1.51,1.51,0,1,1,.47-2.08A1.5,1.5,0,0,1,725.72,217.12Z"/><path class="cls-10" d="M840.42,336a1,1,0,1,1,.31-1.33A1,1,0,0,1,840.42,336Z"/><path class="cls-10" d="M755,219.12a1,1,0,1,1-1-1.63,1,1,0,0,1,1.32.3A1,1,0,0,1,755,219.12Z"/><path class="cls-10" d="M735.67,134a1,1,0,1,1,.3-1.33A1,1,0,0,1,735.67,134Z"/><path class="cls-10" d="M859.77,123a1,1,0,1,1,.31-1.33A1,1,0,0,1,859.77,123Z"/><path class="cls-10" d="M792.82,161a1,1,0,1,1,.31-1.33A1,1,0,0,1,792.82,161Z"/><path class="cls-10" d="M810.05,119.8a1,1,0,1,1,.3-1.33A1,1,0,0,1,810.05,119.8Z"/><path class="cls-10" d="M726.16,304.84a1,1,0,1,1,.31-1.33A1,1,0,0,1,726.16,304.84Z"/><path class="cls-10" d="M866.19,353.91a1,1,0,1,1,.3-1.33A1,1,0,0,1,866.19,353.91Z"/><path class="cls-10" d="M755.16,298.43a1,1,0,1,1,.31-1.33A1,1,0,0,1,755.16,298.43Z"/><path class="cls-10" d="M819.55,372.64a1,1,0,1,1,.3-1.33A1,1,0,0,1,819.55,372.64Z"/><path class="cls-10" d="M720.48,93.91c.11-.06,0-.48-.32-.93s-.59-.77-.7-.7,0,.5.31.94S720.37,94,720.48,93.91Z"/><path class="cls-10" d="M828.31,338.77c.11-.07,0-.49-.31-.94s-.6-.76-.71-.69,0,.49.32.94S828.21,338.84,828.31,338.77Z"/><path class="cls-10" d="M739.12,261.62a1.48,1.48,0,1,1-1-1.83A1.48,1.48,0,0,1,739.12,261.62Z"/><path class="cls-10" d="M709.53,341a1.4,1.4,0,1,1-1-1.72A1.39,1.39,0,0,1,709.53,341Z"/><path class="cls-10" d="M692.77,295.78a1.71,1.71,0,0,1-2.09,1.17,1.69,1.69,0,1,1,2.09-1.17Z"/><path class="cls-10" d="M655.1,304a1.37,1.37,0,1,1-.94-1.7A1.37,1.37,0,0,1,655.1,304Z"/><path class="cls-10" d="M680.42,342.86a1,1,0,0,1-1.18.67,1,1,0,0,1-.67-1.19,1,1,0,0,1,1.19-.66A1,1,0,0,1,680.42,342.86Z"/><path class="cls-10" d="M626.16,73.21A3.45,3.45,0,1,1,623.78,69,3.46,3.46,0,0,1,626.16,73.21Z"/><path class="cls-10" d="M721.5,217.62a2.52,2.52,0,1,1-1.74-3.1A2.53,2.53,0,0,1,721.5,217.62Z"/><path class="cls-10" d="M696.59,54.35a2.52,2.52,0,1,1-1.73-3.11A2.52,2.52,0,0,1,696.59,54.35Z"/><path class="cls-10" d="M854.28,226.8a1.64,1.64,0,1,1-3.16-.9,1.64,1.64,0,0,1,3.16.9Z"/><path class="cls-10" d="M816.37,246a2.21,2.21,0,1,1-1.51-2.74A2.22,2.22,0,0,1,816.37,246Z"/><path class="cls-10" d="M795.5,376.31a2.21,2.21,0,1,1-1.52-2.75A2.22,2.22,0,0,1,795.5,376.31Z"/><path class="cls-10" d="M669,208.44c-6.55-1.36-7,.26-9.07,5,.94-5.42,1.22-6.38-5.11-9,5.59,1,6.83,1.72,9-4.78C662.5,206.57,663.81,206.07,669,208.44Z"/><path class="cls-10" d="M882.32,390.43c-6.56-1.36-7,.25-9.08,5,1-5.43,1.22-6.39-5.1-9,5.59,1,6.83,1.72,9-4.79C875.84,388.56,877.15,388.06,882.32,390.43Z"/><path class="cls-10" d="M644.13,12.47c-3.67-.76-3.89.15-5.08,2.79.53-3,.68-3.58-2.86-5,3.13.57,3.83,1,5-2.69C640.51,11.42,641.24,11.15,644.13,12.47Z"/><path class="cls-10" d="M588.88,308.1c-3.29-.68-3.49.12-4.55,2.49.47-2.72.61-3.2-2.56-4.51,2.8.51,3.42.86,4.52-2.41C585.63,307.16,586.29,306.91,588.88,308.1Z"/><path class="cls-10" d="M828,419.75c-3.29-.68-3.49.13-4.55,2.49.47-2.72.61-3.2-2.57-4.51,2.81.52,3.43.86,4.53-2.4C824.7,418.81,825.36,418.56,828,419.75Z"/><path class="cls-10" d="M704.72,260.61c-1.29-.27-1.37.05-1.79,1,.19-1.07.24-1.26-1-1.77,1.1.2,1.34.34,1.77-.94C703.44,260.24,703.7,260.15,704.72,260.61Z"/><path class="cls-10" d="M653.33,86.68c-1.29-.27-1.37,0-1.79,1,.19-1.07.24-1.26-1-1.77,1.1.2,1.34.34,1.77-.94C652.05,86.31,652.31,86.21,653.33,86.68Z"/><path class="cls-10" d="M618.68,360.24c-5.15-1.07-5.46.2-7.12,3.9.74-4.26,1-5-4-7.06,4.39.8,5.36,1.35,7.08-3.76C613.6,358.77,614.63,358.38,618.68,360.24Z"/><path class="cls-10" d="M768.69,124.24c-6.56-1.36-7,.25-9.07,5,.94-5.43,1.22-6.39-5.11-9,5.59,1,6.83,1.72,9-4.79C762.22,122.37,763.52,121.87,768.69,124.24Z"/><path class="cls-10" d="M762.9,269.24c-3.85-.8-4.08.14-5.32,2.91.55-3.18.71-3.75-3-5.28,3.28.6,4,1,5.29-2.81C759.1,268.14,759.87,267.85,762.9,269.24Z"/><path class="cls-10" d="M625.69,113.67a3.55,3.55,0,1,1-2.44-4.38A3.53,3.53,0,0,1,625.69,113.67Z"/><path class="cls-10" d="M623.5,251.15a2.26,2.26,0,1,1-1.56-2.8A2.27,2.27,0,0,1,623.5,251.15Z"/><path class="cls-10" d="M598,192.64a4.12,4.12,0,1,1-2.84-5.08A4.12,4.12,0,0,1,598,192.64Z"/><path class="cls-10" d="M614.43,274.78a2.68,2.68,0,1,1-1.83-3.31A2.68,2.68,0,0,1,614.43,274.78Z"/><path class="cls-10" d="M630.43,160.44a1.65,1.65,0,1,1-1.14-2A1.64,1.64,0,0,1,630.43,160.44Z"/><path class="cls-10" d="M832.54,103a2.67,2.67,0,1,1-1.85-3.3A2.67,2.67,0,0,1,832.54,103Z"/><path class="cls-10" d="M679.43,119.16a2.52,2.52,0,1,1-1.74-3.11A2.52,2.52,0,0,1,679.43,119.16Z"/><path class="cls-10" d="M688.32,36.34a2.06,2.06,0,1,1-1.42-2.55A2.06,2.06,0,0,1,688.32,36.34Z"/><path class="cls-10" d="M819.36,40.78a1.7,1.7,0,1,1-1.17-2.1A1.7,1.7,0,0,1,819.36,40.78Z"/><path class="cls-10" d="M752.83,85.7a2.67,2.67,0,1,1,2.36-3A2.67,2.67,0,0,1,752.83,85.7Z"/><path class="cls-10" d="M770.62,74.52a1.7,1.7,0,1,1,1.51-1.88A1.69,1.69,0,0,1,770.62,74.52Z"/><path class="cls-10" d="M753.55,157.77a2.67,2.67,0,1,1,.85-3.68A2.67,2.67,0,0,1,753.55,157.77Z"/><path class="cls-10" d="M805.21,161.45a1.69,1.69,0,0,1-2.34-.55,1.7,1.7,0,1,1,2.88-1.79A1.69,1.69,0,0,1,805.21,161.45Z"/><path class="cls-10" d="M771.56,10.88a1.7,1.7,0,1,1,.55-2.34A1.69,1.69,0,0,1,771.56,10.88Z"/><path class="cls-10" d="M872.44,58.82a1.7,1.7,0,1,1,.55-2.34A1.69,1.69,0,0,1,872.44,58.82Z"/><path class="cls-10" d="M753.9,312.82a1.7,1.7,0,1,1,.54-2.34A1.7,1.7,0,0,1,753.9,312.82Z"/><path class="cls-10" d="M805.19,301.63a1.7,1.7,0,0,1-2.34-.55,1.7,1.7,0,1,1,2.88-1.79A1.69,1.69,0,0,1,805.19,301.63Z"/><path class="cls-10" d="M777,236.5a2.62,2.62,0,1,1-1.8-3.24A2.62,2.62,0,0,1,777,236.5Z"/><path class="cls-10" d="M724.32,376.7a2.47,2.47,0,1,1-1.71-3A2.47,2.47,0,0,1,724.32,376.7Z"/><path class="cls-10" d="M694.91,296.64a3,3,0,1,1-2-3.7A3,3,0,0,1,694.91,296.64Z"/><path class="cls-10" d="M628.3,310.88a2.41,2.41,0,1,1-1.65-3A2.42,2.42,0,0,1,628.3,310.88Z"/><path class="cls-10" d="M672.86,379.8a1.7,1.7,0,1,1-1.17-2.1A1.7,1.7,0,0,1,672.86,379.8Z"/></g></g><g class="cls-11"><g class="cls-12"><path class="cls-13" d="M-.06,569.34c-66.28-28.24,100-801,343.2-40.7S656.5,87.1,464.26,177.68s-293.18-39-174.94-223h-174s29.82,30.14-122,294.2S-.06,569.34-.06,569.34Z"/><path class="cls-14" d="M-16,674C55,134.91,392.82,544.65,423.58,962.9c15.53,211.15,258.36,22.52,176.07-134.7S833.3,741.36,719.87,526.92c-109-206-75.69-877.22,1-375.72C843.91,955.81,896-579.58,907.37,25.37c2.89,154.18-269.14,1134.25,119.2,678.78C1099.15,619,942,1065.69,942,1065.69L861.24,936.31s-160.52-148.87-170.13-39-227.81,262.3-227.81,262.3L339,966.45S123,525.15-16,736.05Z"/></g></g></g><path class="cls-15" d="M667.51,448.57s19.09,5,28.66,22.07c18.86,8.4,29.41-30.26-.63-44.25-6.36-10-6.71-11.91-6.71-11.91-3.26-7-29,2-27.12,4.46"/><path class="cls-16" d="M666.57,434.57l-4.86-15.63a1,1,0,0,1,.43-1.12c2.36-1.92,10.24-6.31,18.31-4.94,5.19.88,10.16,3.39,14.77,13,8.45,4.1,25.92,18.24,17.28,37.45.16-20.11-11.55-31.72-19.6-32.48-12.7-10.55-15-13.07-21.51-12C664.13,425.74,665.89,430.88,666.57,434.57Z"/><path class="cls-10" d="M644.43,296.28a39.84,39.84,0,0,0-21.38-3.81c-10.38.94-20.15,5.25-28.82,10.63a99.2,99.2,0,0,0-15.59,11.78l0,.05c-.38.39-.77.76-1.12,1.18a13.86,13.86,0,0,0-1.78,2.7c-.22.5-.43,1-.65,1.49"/><path class="cls-10" d="M575.05,320.3c-.15.52-.34,1-.47,1.56a14,14,0,0,0,17.58,16.6,13.92,13.92,0,0,0,4.34-2.17c1.22-.91,2.3-2,3.49-3,6.29-5.22,13.25-9.88,21.15-12.14.57-.17,1.16-.32,1.75-.45,3.4-.74,7.14-.79,10.07,1.14,2.08,1.37,4.53,2.25,5.84,4.39l2.3.53c.82,1.18,2,1,3,2,3,3.07,3.5,5.86,7.79,5.25a14.3,14.3,0,0,0,11.84-11.74,14,14,0,0,0-1.13-7.93,23.77,23.77,0,0,0-1.9-3.23,42.9,42.9,0,0,0-16.25-14.84"/><path class="cls-10" d="M495.41,365.34c-.16.41-.2.51-.34.93a14.38,14.38,0,0,0,2.56,13.28C504.4,388,513.31,395.09,524,397.1a33.59,33.59,0,0,0,11.62.1,38,38,0,0,0,11-3.61c9.25-4.7,16.56-12.49,22.41-20.85a81.29,81.29,0,0,0,5.51-8.94,18.5,18.5,0,0,0,.81-1.87,14,14,0,0,0-21.47-15.84,16.18,16.18,0,0,0-4.38,5.32c-3.27,5.9-7.33,11.5-12.76,15.54-2.41,1.8-5.24,3.41-8.15,2.56a15.39,15.39,0,0,1-6.26-4.23,42,42,0,0,1-2.94-3.3,17.77,17.77,0,0,0-1.41-1.55A14.25,14.25,0,0,0,502.35,358a14.51,14.51,0,0,0-6.94,7.36"/><path class="cls-15" d="M660.89,368.11c-4.41-5.83-11-14.18-14.54-18.74-5.31-6.84-17.05-13.69-24.26-19.48-6.33-5.08-11.59-13.42-19-15.25s-18.78-4-25.43,4.28l-24.11,30c-6.66,8.28-3.52,19.2,1.31,25.75s16.66,17,27.55,24.95c.07.29,6.2,17.22,10.58,24.54,6.78,11.38,16,21.49,28,27.44a54.4,54.4,0,0,0,30.47,5.17h.13a18.61,18.61,0,0,0,3.76-.85,19,19,0,0,0,6.06-32.74,19.22,19.22,0,0,0-12.49-4.34c-1.36,0-2.7.26-4.06.28a15,15,0,0,1-5.57-1c-4.39-1.73-7.77-5.25-10.51-8.9a60.28,60.28,0,0,1-9.28-18.38c-.06-.18-.13-.44-.13-.44l-.31-.93c.26-.36.53-.7.8-1l4.73-5.09c2.08,2.59,4.1,5.25,6.13,7.92,4,5.28,8.39,10.37,13.74,14.25,8.63,6.27,19.21,9.39,29.78,11.52,3.24.66,6.49,1.22,9.76,1.73l.25,0,.24,0,1.92.2c.64,0,1.29,0,1.93,0a19,19,0,0,0,3.89-37.43,35.05,35.05,0,0,0-3.63-.67c-6.24-1-12.54-2-18.44-4.45a15.36,15.36,0,0,1-3.77-2.12,34,34,0,0,1-5.46-6.29"/><path class="cls-17" d="M619.33,390.42s.07.26.13.44a60.28,60.28,0,0,0,9.28,18.38c2.74,3.65,6.12,7.17,10.51,8.9a15,15,0,0,0,5.57,1c1.36,0,2.7-.26,4.06-.28a18.93,18.93,0,0,1,16.19,29.52,12.42,12.42,0,0,0,.44-2,19,19,0,0,0-19.25-21.55c-1.35,0-2.69.27-4,.29a15.13,15.13,0,0,1-5.57-1c-4.39-1.73-7.77-5.25-10.51-8.9-4.15-5.5-13.54-22.81-13.54-22.81.27-.35,6.46-2.79,6.46-2.79Zm-11-68,.05,0,0,0,0,0,.08-.05,0,0h0l0,0,.08-.05,0,0,0,0,0,0,.08-.05,0,0,0,0L609,322l.05,0,0,0,.1-.06.07,0,.11-.06.06,0,.12-.07,0,0c.46-.28.92-.54,1.39-.8l0,0,.19-.1.18-.1.11-.06,0,0,.05,0,.1-.06h0l.06,0,.14-.08,0,0,.09-.05,0,0a45.58,45.58,0,0,1,8.53-3.48c.58-.16,1.17-.31,1.75-.44,3.41-.74,7.14-.79,10.08,1.14,2.08,1.37,4.46,2.77,5.77,4.92l1,.85A22.12,22.12,0,0,0,642.1,326c3,3.07,5,4.19,9.28,3.58a14.31,14.31,0,0,0,11.84-11.74c.07-.46.11-.93.14-1.39a14.12,14.12,0,0,1,.35,5.82A14.3,14.3,0,0,1,651.87,334c-4.29.61-4.74-2.17-7.79-5.25-1-1-5.11-1.61-5.94-2.79h0c-1.31-2.14-3.1-2.77-5.18-4.14-2.93-1.93-6.67-1.88-10.07-1.14-.59.13-1.18.28-1.75.45a41.81,41.81,0,0,0-5.88,2.17,77.69,77.69,0,0,0,6.83,6.57c7.21,5.79,18.95,12.64,24.26,19.48,3.54,4.56,10.13,12.91,14.54,18.74a34,34,0,0,0,5.46,6.29,15.36,15.36,0,0,0,3.77,2.12C676,379,682.32,380,688.56,381a35.05,35.05,0,0,1,3.63.67,19,19,0,0,1,12.66,26,18.77,18.77,0,0,1-5.08,6.83c.38-.71.73-1.44,1-2.17,2-4.73,3.48-9,1.46-13.73a19.25,19.25,0,0,0-12.7-10.94,34.39,34.39,0,0,0-3.62-.67c-6.24-1-12.55-2-18.45-4.45a15.3,15.3,0,0,1-3.76-2.12,17.12,17.12,0,0,1-1.71-1.59,56.07,56.07,0,0,1-3.76-4.7c-4.41-5.83-11-14.18-14.53-18.74-5.31-6.84-17-13.69-24.26-19.48-4.5-3.61-8.45-8.85-13-12.25.6-.41,1.21-.81,1.83-1.19Z"/><path class="cls-17" d="M628.33,372.22a6.88,6.88,0,0,0-.38-.77,15.5,15.5,0,0,0-2.41-2.95c2.28-3.11,4.49-6.21,6.68-9.21a86.91,86.91,0,0,0,7-10.85c.72-1.41,1.41-2.85,2-4.31-1.62-1.4-3.41-2.78-5.25-4.15a48.38,48.38,0,0,1-2.32,5.41c-2.47,5-6.06,9.5-9.42,14.11l-3.89,5.34c-2.39-.92-5.51-1.29-7.55.17a17.21,17.21,0,0,0-1.59,1.33c-3.4,2.86-9.5,9.81-11.3,13-1.13,2-.74,4.88.41,6.86a9,9,0,0,0,.75,1.1q-1.95,1.74-4,3.36c-4.44,3.41-9.13,6.64-14.32,8.38l1.7,1.27s-.55.62-1.18,1.46c.35,1,.82,2.2,1.37,3.62A101.73,101.73,0,0,0,601,395.54q2.43-1.87,4.71-4a12.24,12.24,0,0,0,1.49.88,30,30,0,0,1-.29,4.12,50,50,0,0,1-8.7,22,19,19,0,0,1-5.28,5.49.41.41,0,0,0,.07.11c1.35,2.27,2.8,4.49,4.35,6.63a25,25,0,0,0,6-5.73,56.58,56.58,0,0,0,8.61-16,47.14,47.14,0,0,0,3.23-16.48,9,9,0,0,0,1.07-.7,30.81,30.81,0,0,0,2.78-2.49c.24-.32.49-.64.74-.94l4.73-5.09,0,0c.93-1.12,1.78-2.2,2.48-3.15,7.47-.15,14.9-1.24,21.73-4.26a24.88,24.88,0,0,0,11.14-9.14c-1.69-2.21-3.6-4.68-5.51-7.13a14.72,14.72,0,0,1-1.68,3.48c-2.54,3.59-6.83,5.57-11,6.81a56.5,56.5,0,0,1-13.47,2.2"/><path class="cls-17" d="M665.51,373.67a54.56,54.56,0,0,0-6.17,7.43,11.63,11.63,0,0,0-2.36-.38c-2.64-.11-5.94.6-7.41,2.8a16.62,16.62,0,0,0-1,1.79c-2.18,3.88-5.45,12.53-6,16.11a5.79,5.79,0,0,0,.39,3c.5.4,1,.78,1.52,1.15a53.25,53.25,0,0,0,10,5.67h.28a5,5,0,0,0,1,.17c2.55.12,5.2-1.78,6.55-3.94,2.18-3.48,5.91-13.07,6.53-16.94.36-2.26-1-4.83-2.79-6.29-.22-.17-.47-.36-.74-.54.51-.67,1-1.32,1.54-2a39.52,39.52,0,0,1,4.41-4.73l-1.14-.45a15.73,15.73,0,0,1-3.77-2.13c-.29-.23-.57-.48-.84-.73"/><path class="cls-17" d="M634,415.39h0m.14.54c0-.05,0-.11,0-.16l.1.29,0-.13m.31.62a.64.64,0,0,1-.08-.14l.14.23-.06-.09m-30,22.74a75.62,75.62,0,0,1,10.32-12.52,17.1,17.1,0,0,1,1.53-1.38c2.09-1.62,5.45-1.26,7.92-.32a10.86,10.86,0,0,1,1.43.69c1.47-1.46,2.89-3,4.22-4.57a28.68,28.68,0,0,0,3.28-4.49c.14-.24.33-.61.33-.61.15-.42.28-.85.4-1.28a19.16,19.16,0,0,0,5.41,3.33l.17.06a21.29,21.29,0,0,1-3.56,5.65,78.47,78.47,0,0,1-5.3,5.95,10,10,0,0,1,1.12,1.45c1.22,1.94,1.73,4.82.67,6.85-1.74,3.33-7.84,10.74-11.13,13.66l-.27-.13a61.26,61.26,0,0,1-16.54-12.34"/><path class="cls-17" d="M559.06,379.59a51.5,51.5,0,0,1-12.21,8.8,35.54,35.54,0,0,1-22.6,3.51c-10.66-2-19.56-9.13-26.33-17.55a14.6,14.6,0,0,1-3.09-7.23,14.45,14.45,0,0,0,2.8,12.43C504.4,388,513.31,395.09,524,397.1a35.65,35.65,0,0,0,22.59-3.51,54.31,54.31,0,0,0,14.93-11.54q-1.29-1.26-2.43-2.46"/><path class="cls-16" d="M570.1,367c-1.72-2.76-3.78-6.49-2.43-9.44,2.36-5.11,11.9-17.63,16.57-21.25,3-2.35,7.87-1.83,11.44-.48a27.47,27.47,0,0,1,10.87,8.92c1.77,2.81,2.5,7,1,9.9a66.41,66.41,0,0,1-6.26,9,90,90,0,0,1-10.4,11.33c-2.84,2.35-7.34,3.75-10.78,2.43s-7.92-7.08-10-10.37"/><path class="cls-18" d="M542.8,361.17a28.67,28.67,0,0,0,11.39-4.49c1.55-1.08,34-35.16,39.38-46.35a26.92,26.92,0,0,0,2.33-8.25l-1.67,1c-1.25.78-2.5,1.58-3.73,2.41a23.07,23.07,0,0,1-1,2.57c-6.14,12.9-27.63,38.2-39.38,46.35a23.61,23.61,0,0,1-3.8,2.16,48.31,48.31,0,0,1-3.47,4.58"/><path class="cls-19" d="M608.11,296.08c.19,1.14.4,2.27.59,3.35a73.11,73.11,0,0,0,8,23.28,42.82,42.82,0,0,1,4.46-1.57c.58-.16,1.17-.31,1.76-.44s1.17-.23,1.76-.31l-.45-.76a67.09,67.09,0,0,1-7.75-22.6c-.2-1.12-.43-2.25-.59-3.37a60,60,0,0,0-7.75,2.42"/><path class="cls-19" d="M614.7,318.92c.61,1.29,1.26,2.55,2,3.79h0l.08,0h.05l0,0h.07l0,0,.08,0,.06,0,.09,0h0l.06,0,.05,0h.07l0,0h0l.06,0,.05,0h0l.15-.06h0l.05,0,.07,0h0l0,0H618l.07,0h.06l.15-.06h0l0,0,.08,0h.09l.05,0,.07,0,0,0h0l.16-.06h0l.09,0,0,0h.06l0,0,.07,0h.06l.16-.06h0l.1,0,0,0h0l.06,0,.06,0h.05l.17-.05h0l.12,0h.08l.06,0,.07,0h0l.17-.05h0l.13,0h.14l.06,0H621l.18,0c.57-.17,1.16-.32,1.75-.45l.14,0h.08l.09,0h0l.14,0h.08l.08,0h0l.14,0H624l.21,0h.12l.21,0h.12l-.45-.76q-1-1.65-1.8-3.36h0c-.58.13-1.17.28-1.75.44a44.06,44.06,0,0,0-5.94,2.21"/><path class="cls-19" d="M537.88,366.71l-.13.13.13-.13m-6,2.79a14.82,14.82,0,0,0,4.75-2.55c.78-.58,1.54-1.2,2.26-1.84q.12.43.27.87a35.18,35.18,0,0,0,5.93,10.49,31.18,31.18,0,0,0,8.72,8.13,6.67,6.67,0,0,0,3.92,1.12,52.62,52.62,0,0,1-7.83,5.95,30.39,30.39,0,0,1-4.67-3.39,47.55,47.55,0,0,1-12.88-17.62c-.16-.38-.32-.76-.47-1.16"/><path class="cls-19" d="M545.93,388.84a30,30,0,0,0,4,2.83l.13-.07h0l.12-.07h0l.12-.08h0l.11-.08h0l.11-.07h0l.11-.07v0l.11-.06,0,0L551,391h0l.11-.07,0,0,.11-.07h0l.11-.07v0l.11-.07h0l.11-.08h0l.11-.09h0c.38-.26.76-.52,1.13-.79h0l.11-.08,0,0,.11-.07,0,0,.1-.07,0,0,.1-.07,0,0,.09-.07,0,0,.09-.08,0,0,.1-.07,0,0,.09-.07,0,0,.09-.07,0,0,.09-.07,0,0,.09-.07,0,0,.09-.07,0,0,.09-.07,0,0,.1-.08,0,0,.1-.08h0l.1-.09h0l.12-.09h0c.44-.35.88-.71,1.31-1.08h0l.11-.09h0l.11-.09h0l.11-.09h0l.11-.09h0l.11-.1h0l.11-.1h0l.11-.1h0l.69-.62a6.77,6.77,0,0,1-3.92-1.12l-.44-.26a49.12,49.12,0,0,1-6.57,4.05l-.92.45"/><path class="cls-19" d="M627.48,387.09c1.07,1.39,2.13,2.79,3.2,4.2.74,1,1.48,1.93,2.25,2.87a24.65,24.65,0,0,1,2.52-4.72,57.67,57.67,0,0,1,12.77-13.83A42.46,42.46,0,0,1,661,368.19l-.06-.08c-1.5-2-3.25-4.25-5-6.57-8.27,3.43-15.44,9.45-21.31,16a53.3,53.3,0,0,0-7,9.57"/><path class="cls-19" d="M632.41,380a53.16,53.16,0,0,0,14.28-3.12c.51-.42,1-.84,1.53-1.25A42.46,42.46,0,0,1,661,368.19l-.06-.08-.34-.44-.1-.13-.26-.35-.08-.11-.75-1-.06-.08,0,0-.08-.11-.06-.08-.13-.17,0,0-.07-.09-.88-1.13-.06-.09-.06-.08-.12-.16-.13-.16,0,0v0l-.08-.09-.2-.27-.13-.16-.1-.13-.55-.71,0,0-.69-.89a46.21,46.21,0,0,0-5.23,2.59l.65.83a21.94,21.94,0,0,1-8.77,4.85,75.46,75.46,0,0,0-8,7.71c-.73.8-1.44,1.62-2.12,2.46"/><path class="cls-19" d="M591.55,421.57c.5,1,1,1.85,1.45,2.62.91,1.54,1.88,3.06,2.89,4.54a50.4,50.4,0,0,1,3.87-4c8.23-7.8,18.7-13.38,30.12-14-.4-.48-.77-1-1.14-1.45a55.06,55.06,0,0,1-4-6c-11.72,1.92-22.81,8.18-31.06,16.14-.74.72-1.46,1.47-2.17,2.23"/><path class="cls-19" d="M592.93,424.08a19,19,0,0,0,5.28-5.49,51.84,51.84,0,0,0,3.53-5.8,61.66,61.66,0,0,1,11.07-6.09c-.26.79-.53,1.59-.81,2.37a64.92,64.92,0,0,1-4.1,9.17,57.38,57.38,0,0,0-8.14,6.45,50.4,50.4,0,0,0-3.87,4l-.17-.25,0,0-.08-.11,0-.05-.07-.11-.06-.08,0-.07-.07-.1-.06-.09,0-.07,0-.06-.06-.11-.06-.08-.07-.11,0-.07h0l-.09-.15-.05-.07-.08-.13,0-.05-.11-.17,0-.07-.08-.13,0-.05-.12-.18,0-.05-.09-.14,0-.05-.11-.18,0,0-.09-.14,0,0,0-.07-.12-.21-.05-.07-.14-.22,0,0-.15-.26,0-.07-.12-.19-.05-.08-.15-.26Zm26.42-19.67a53.77,53.77,0,0,1,5.43-1.21l.07.12,0,.07h0l.21.37h0v0l0,.07.06.1h0l.11.19h0l.06.1,0,.07v0h0l.22.36h0v0l0,.06.06.1h0a1.74,1.74,0,0,1,.11.18h0l0,.1,0,.06,0,0h0l.21.35v0l0,0,0,.06,0,.09,0,0h0a1,1,0,0,1,.11.17h0l0,0,.05.09,0,.05v0l0,0,.22.33v0l0,0,0,.05,0,.09,0,0h0l.12.17h0l0,0,.06.08,0,.06v0l0,0,.22.33,0,0,0,0,0,.05.06.09,0,0h0a1.63,1.63,0,0,0,.11.17h0l0,0,0,.08,0,.05,0,0v0l.24.33v0l0,0,0,.06.06.07v0h0l.12.16h0l0,0,.06.08,0,.05,0,0v0l.12.16.13.18h0l0,.05.08.11h0l0,.05.07.1,0,0h0l0,0,.06.08,0,0,0,0,0,0,.06.08,0,0,0,0,0,0,.06.08,0,.05h0l0,.06,0,0,.05.06,0,0,0,0,0,.06.08.09a40.24,40.24,0,0,0-6.23.84c-1.34-2.11-2.84-4.62-4.3-7.12"/><path class="cls-20" d="M567.6,366.11c-1.72-2.75-3.78-6.48-2.43-9.43,2.36-5.12,11.9-17.64,16.57-21.26,3-2.34,7.87-1.83,11.44-.48a27.41,27.41,0,0,1,10.87,8.93c1.77,2.8,2.51,6.95,1,9.89-2.62,5-12.09,16.51-16.66,20.3-2.84,2.35-7.34,3.74-10.78,2.43s-7.92-7.08-10-10.38"/><path class="cls-21" d="M564.9,366.7c-1.76-2.81-2.5-7-1-9.9,2.61-5,12.23-16.75,16.66-20.29,2.59-2.08,6.8-2.16,9.89-1a28.61,28.61,0,0,1,10.88,8.93c1.76,2.8,2.5,7,1,9.89-2.62,5-12.23,16.75-16.66,20.3-2.59,2.07-6.8,2.15-9.9,1a28.72,28.72,0,0,1-10.87-8.92"/><path class="cls-20" d="M569.92,362.5a3.93,3.93,0,0,1-.57-3.63,30.45,30.45,0,0,1,5.77-7,3.92,3.92,0,0,1,3.66-.14,12.68,12.68,0,0,1,4.25,3.48,3.94,3.94,0,0,1,.57,3.62,30.55,30.55,0,0,1-5.77,7,4,4,0,0,1-3.67.14,12.55,12.55,0,0,1-4.24-3.48"/><path class="cls-20" d="M583.31,350.13a2.28,2.28,0,0,1-.21-2.1,21.4,21.4,0,0,1,3.55-4.33,2.25,2.25,0,0,1,2.11-.2,6,6,0,0,1,2.31,1.9,2.23,2.23,0,0,1,.21,2.1,20.81,20.81,0,0,1-3.55,4.33,2.23,2.23,0,0,1-2.1.2,6,6,0,0,1-2.32-1.9"/><path class="cls-20" d="M579.81,370.08a8.94,8.94,0,0,1,1.92-4.68c2.23-3.1,8.84-11.15,11.44-13.94a8.89,8.89,0,0,1,4.21-2.79,2.12,2.12,0,0,1,2.3,1.88,9,9,0,0,1-1.93,4.67c-2.22,3.1-8.83,11.15-11.44,13.94a8.93,8.93,0,0,1-4.21,2.8,2.12,2.12,0,0,1-2.29-1.88"/><path class="cls-22" d="M664.66,372.82a54.83,54.83,0,0,0-9,10.91,80.77,80.77,0,0,0-6.46,11.87A42.65,42.65,0,0,0,645.9,406l0,.34a2.09,2.09,0,0,0,0,.25,51.19,51.19,0,0,0,4.67,2.77,3.22,3.22,0,0,0,1.6-2.08c.23-1.07.41-2.16.72-3.22a64,64,0,0,1,11.84-21.94,37.58,37.58,0,0,1,5.42-5.57,15.2,15.2,0,0,1-3.75-2.11,18.05,18.05,0,0,1-1.69-1.58"/><path class="cls-23" d="M644.78,407.12c-1.72-1.44-3.89-3.44-3.64-5.67.44-3.87,4-14.16,6.26-17.56,1.47-2.19,4.78-2.9,7.41-2.79a18.83,18.83,0,0,1,9.08,3.5c1.77,1.45,3.15,4,2.79,6.28-.63,3.87-4.35,13.47-6.53,16.95-1.35,2.15-4,4.05-6.55,3.93s-6.74-2.93-8.82-4.64"/><path class="cls-24" d="M643.14,408.09c-1.77-1.46-3.15-4-2.79-6.29.63-3.87,4.4-13.65,6.53-16.94,1.25-1.92,4-2.9,6.29-2.79a19.74,19.74,0,0,1,9.07,3.5c1.77,1.46,3.16,4,2.79,6.28-.62,3.88-4.39,13.66-6.53,16.95-1.25,1.92-4,2.89-6.28,2.79a19.77,19.77,0,0,1-9.08-3.5"/><path class="cls-22" d="M632.3,414.65s0-.13,0,0m.15.54a.88.88,0,0,1-.05-.15l.1.28,0-.13m.22.49.15.23-.06-.09Zm-.35-2.27a21.92,21.92,0,0,0,5.43,4,21.16,21.16,0,0,1-3.57,5.65,77.4,77.4,0,0,1-8.9,9.39c-1,.88-1.82,1.94-2.83,2.82-1.73,1.5-4,2.17-5.47,1a3.18,3.18,0,0,1,.74-5.45c.32-.13.17,0,.25-.09a25.46,25.46,0,0,0,2.72-2.68,79.37,79.37,0,0,0,7.47-7.64,30.54,30.54,0,0,0,3.28-4.49c.14-.25.32-.62.32-.62.19-.5.33-1,.48-1.54,0-.09,0-.16.08-.4"/><path class="cls-23" d="M604.78,445.86c-1.19-1.9-2.61-4.49-1.67-6.52,1.63-3.54,8.25-12.19,11.48-14.69,2.09-1.61,5.44-1.25,7.91-.32a19,19,0,0,1,7.51,6.19c1.22,1.94,1.73,4.81.66,6.84-1.81,3.48-8.37,11.41-11.54,14-2,1.62-5.08,2.58-7.45,1.67s-5.47-4.9-6.9-7.19"/><path class="cls-24" d="M602.91,446.27c-1.22-1.94-1.72-4.82-.66-6.85,1.81-3.48,8.48-11.57,11.54-14,1.79-1.43,4.71-1.48,6.84-.66a19.7,19.7,0,0,1,7.51,6.18c1.22,1.94,1.73,4.82.67,6.85-1.82,3.47-8.48,11.57-11.54,14-1.8,1.42-4.71,1.48-6.85.66a19.77,19.77,0,0,1-7.51-6.18"/><path class="cls-22" d="M635.72,342l-.48-.33c.13.11.14.1.27.2l.21.13m.75.29-.64-.24a3,3,0,0,0,.64.24m.78.1-.74-.09a3.18,3.18,0,0,0,.74.09m-56.53,56c5.19-1.74,9.88-5,14.32-8.38,11.11-8.56,19.09-20,27.22-31.13,3.36-4.6,7-9.07,9.42-14.11a48.31,48.31,0,0,0,2.41-5.66,3.4,3.4,0,0,1,0-.45c1.87,1.34,3.7,2.72,5.42,4.11a48.44,48.44,0,0,1-2.29,5,86.29,86.29,0,0,1-7,10.86c-9,12.38-18.49,26.4-31.22,36.25-4.68,3.62-9.61,7-15.06,9-1-2.51-1.56-4.2-1.58-4.29l-1.7-1.27"/><path class="cls-23" d="M600.22,385.21c-1.12-1.95-2.44-4.58-1.43-6.58,1.77-3.47,8.7-11.87,12-14.25,2.14-1.53,5.49-1.05,7.92,0a19.05,19.05,0,0,1,7.27,6.46c1.14,2,1.54,4.88.4,6.87-1.94,3.4-8.79,11.08-12.06,13.57-2,1.55-5.17,2.39-7.51,1.39s-5.28-5.1-6.62-7.44"/><path class="cls-24" d="M598.34,385.54c-1.15-2-1.54-4.87-.41-6.86,1.94-3.41,8.91-11.25,12.06-13.58,1.85-1.36,4.76-1.31,6.87-.4a19.73,19.73,0,0,1,7.27,6.46c1.14,2,1.54,4.87.4,6.86-1.94,3.41-8.9,11.25-12.06,13.58-1.84,1.36-4.75,1.31-6.86.4a19.74,19.74,0,0,1-7.27-6.46"/><path class="cls-22" d="M645.15,348.15a6.26,6.26,0,0,1,1.39,1.47c1,1.56.63,3.36-.15,4.87-1.64,3.2-4.38,5.77-7.27,8.07-5.3,4.22-11.45,7.73-17.86,9a7.82,7.82,0,0,1-4.52,0l-.21-.08a3.29,3.29,0,0,0-3.69,1.27,2.15,2.15,0,0,0-.3.59,2.59,2.59,0,0,0-.22,1.08,3.43,3.43,0,0,0,2.36,3.15c3.07,1.11,6.53.61,9.69-.25a52.16,52.16,0,0,0,19.74-10.67,31.82,31.82,0,0,0,7.68-8.83,12.64,12.64,0,0,0,1.6-8.9c-.81-3.41-3.6-6.12-6.8-7.79-2.32-1.21-5.09-1.44-7.64-2a4.37,4.37,0,0,0-2.06.15,2.93,2.93,0,0,0-1.07.78c3.69,2.6,7.16,5.15,9.33,8.1"/><path class="cls-22" d="M578.08,396.38a3.26,3.26,0,0,0-1.43,1.19,2.77,2.77,0,0,0-.31.59,2.46,2.46,0,0,0-.21,1.31c0,.46.11.93.17,1.4.73,5.57,1.72,11.31,4.71,16,1.6,2.51,4.14,4.67,7.24,4.92,3.37.27,6.66-1.76,9-4,3.83-3.73,6.53-8.55,8.67-13.54,2.57-6,4.4-12.51,4.1-18.88a20.8,20.8,0,0,0-.35-3,3.93,3.93,0,0,0-.2-.69,3.18,3.18,0,0,0-6.07,1.64c1,7.52-1.5,15.32-5.1,22.14-1.72,3.27-3.71,6.5-6.63,8.75-.93.73-2.06,1.47-3.15,1.23s-2-1.58-2.7-2.91c-2-3.87-2.71-8.32-3.27-12.77-1.47-1.08-3-2.2-4.47-3.36"/><path class="cls-15" d="M568.62,257.81c-21.08-19.08-54.68-16.36-75,6.07a56.4,56.4,0,0,0-14.79,39.78,42.14,42.14,0,0,0,6.56,24.75c6,9.94,22.82,24.21,33.6,28.55,9.64,3.88,22.54,3.39,31.07-2.53,11.75-8.15,33.24-33.45,39.38-46.35,4.47-9.39,2.86-22.19-2.52-31.08-3.38-5.57-10.15-12.51-17.35-18.3"/><path class="cls-16" d="M551.54,253c-7.81-2.89-19.92-1.78-27.2,3.41-12.71,9.05-32.21,31.82-36.76,45.05-3.88,11.26-2.71,17.25.49,24a31.67,31.67,0,0,0,3.18,5.15,1.38,1.38,0,0,0-.31.28c-1,1.29.59,4.58,3.61,7.34,2.73,2.5,5.68,3.71,7,3a28.55,28.55,0,0,0,9,5.07c7.18,2.06,18.14,1.3,25.63-4.66,10.29-8.2,30.38-31.85,36.81-43.33,4.67-8.35,4.94-18.81,1.74-25.56a19.49,19.49,0,0,0-1.78-3"/><path class="cls-16" d="M569.58,258.7c7.2,5.79,7.58,11.81,11,17.38,5.38,8.89,7,21.69,2.53,31.08-6.15,12.9-27.63,38.22-39.38,46.35-12,8.31-27,3.06-32.84-.92,17.38,11.79,32,6.82,39.22,1.84,11.75-8.15,33.24-33.45,39.38-46.35,4.47-9.39,2.86-22.19-2.52-31.08-3.38-5.57-10.15-12.51-17.35-18.3"/><path class="cls-25" d="M486.47,326.83c-3.2-6.75-5.26-14.43-1.39-25.69,4.56-13.23,24.06-36,36.76-45.05,7.28-5.19,21.09-6.3,28.9-3.41,0,0,5.68,1.19,14.28,7.79,18.13,15.9,10.15,29.13,5.47,37.48-6.42,11.48-26.51,35.14-36.81,43.33-7.48,6-18.44,6.72-25.62,4.66-8-2.31-18.91-13.26-22.48-20.8"/><path class="cls-20" d="M488.45,330.57c1-1.3,4.32-.11,7.34,2.65s4.63,6,3.6,7.34-4.32.11-7.34-2.65-4.63-6.05-3.6-7.34"/><path class="cls-25" d="M488.16,331.31c.94-1.17,4,0,6.95,2.69s4.5,5.75,3.57,6.92-4.05,0-6.95-2.68-4.5-5.75-3.57-6.93"/><path class="cls-20" d="M560.2,254.27c.91-1.38,4.28-.49,7.52,2s5.13,5.59,4.22,7-4.27.49-7.51-2-5.13-5.6-4.23-7"/><path class="cls-25" d="M560.87,253.91c.82-1.24,4-.32,7.13,2.05s5,5.32,4.15,6.56-4,.33-7.13-2-5-5.31-4.15-6.56"/><path class="cls-26" d="M546.78,253.86c-14.84-3.92-30.49,6.18-43.87,22.74-10.75,13.31-18.68,26.7-16.42,39.56a31.21,31.21,0,0,0,2.81,9.42c3.35,7.13,14.58,16.58,22.12,18.75,6.75,1.93,17.52.15,24.57-5.51,9.71-7.78,28.67-30.22,34.74-41.1,4.42-7.92,4.7-17.82,1.71-24.2-3.34-7.13-14.51-15.91-21.77-18.59Z"/><path class="cls-27" d="M552.36,256.09c-12.35,1.24-25.7,8.6-35.74,21-10.78,13.26-15.13,29-12.81,41.9a31.24,31.24,0,0,0,2.86,9.42c2.63,5.52,10,12.43,16.72,16.3a29.76,29.76,0,0,0,12.67-5.6c9.74-7.74,28.75-30.08,34.83-40.93,4.42-7.89,4.66-17.78,1.63-24.16-3.12-6.56-12.91-14.54-20.16-17.88"/><g class="cls-28"><g class="cls-29"><path class="cls-30" d="M520.63,267.62S483,298.53,494,321.23"/></g></g><g class="cls-28"><g class="cls-31"><path class="cls-15" d="M499.54,330.23a4.61,4.61,0,1,0,6.08-2.37,4.62,4.62,0,0,0-6.08,2.37"/></g></g><path class="cls-15" d="M493.88,375a17.34,17.34,0,0,1-10-8.56c-1.66-3.47-14.49-6.74-12.63-12,.81-2.26,7.81,2,10.67,3.39,0,0-11.18-7.65-10-10.57,1-2.52,11.49,3.37,11.49,3.37s-9.67-10.8-7.92-12.78c1.91-3.24,13,6.45,13,6.45s-7.72-10.76-4.59-13.28,15.2,15.6,17.71,15.07c.76-1.66-.21-5.85.24-7.84.8-3.55,2.94-4.24,5-.58,3.16,5.7,6.66,16.1,5.5,18.71S493.88,375,493.88,375Z"/><path class="cls-18" d="M496.62,378.11c1.25-5.79,12.13-18.17,19.3-19.23.21-.82-2.17-2.5-3.7-2.48-2.39.66-12,3.44-18.27,18.14C493.35,376.79,496.62,378.11,496.62,378.11Z"/><path class="cls-16" d="M508.94,357.58s-1.33-27.48-7.23-19c2.09-9.55,9.72,2.36,10.51,17.86"/><path class="cls-16" d="M501.32,346.11c-3.71,1.65-15.7-19.2-18-11.45-.37-2.19-.38-2.58.53-3.7,1.21-.7,2.91.65,5.1,2.7C493.37,337.81,499,345.21,501.32,346.11Z"/><path class="cls-16" d="M488.4,344.32c-4.12-2.1-13.42-10-12.61-3.87C473.91,337.14,476.18,333.1,488.4,344.32Z"/><path class="cls-16" d="M483.34,350.65c-9.2-5-13.92-5.47-10.67-.85C471.86,345.22,478.17,349.75,483.34,350.65Z"/><path class="cls-16" d="M481.89,357.85c-1.57,1.26-12.91-7.09-9.6.31a4.38,4.38,0,0,1-1.13-1.86C469.6,350.55,478.49,356.09,481.89,357.85Z"/><path class="cls-16" d="M486.27,364.19a16.87,16.87,0,0,1,8.26-3.79c.71,0,.58-7.74,3.35-11.2,0,0-5.82,1.25-5.3,5.81C492.48,359.92,486.94,356.39,486.27,364.19Z"/><path class="cls-15" d="M657.62,306.87a33.43,33.43,0,0,1,11.16,7c2.15,3.19,11.89,4.47,12.94,10-1.18,4.77-4.25-2.23-9.75-1.79,0,0,9.51,5.05,10.54,11.43.31,6.39-8-5.48-10.94-4.09-1.19-.44,8.79,6.44,6.85,13.91-1.42,3.47-6.91-7-10.95-6.92.55.93,6.59,10.73,3.85,13.67-3.16,2.25-8.2-13.69-17.09-13.55-.5,1.76,5.31,5.7,5.16,7.73-.28,3.63-9.29-.62-11.82-3.95-4-5.18-5.3-10.28-5.41-12.41C642,325,657.62,306.87,657.62,306.87Z"/><path class="cls-18" d="M654.45,304.16c-.39,5.91-9.37,19.74-16.31,21.82-.09.84,2.51,2.17,4,1.92,2.27-1,11.36-5.13,15.45-20.59C657.88,305,654.45,304.16,654.45,304.16Z"/><path class="cls-16" d="M643.84,327.08l-1.68.82s-.68,11.81,12.45,17.1c3.58,1.37-2.33-2.3-6.56-7.4C645,334,643.58,329.1,643.84,327.08Z"/><path class="cls-16" d="M654.23,336.53s4.36-6.16,16,11.9c.46.72,1.51,1.11,1.64.16s.46,2.4-2.09,1.55C666.76,348.44,661.75,336.47,654.23,336.53Z"/><path class="cls-16" d="M667.47,336.41c4.32,1.15,6.64,5.39,8.13,6.43,0,0,3.62,3.8,3-2.47,0,0,.93,5.15-2.63.59S670,336.06,667.47,336.41Z"/><path class="cls-16" d="M671.57,329.42c.25.38.45-2.06,7.52,4.58,4.35,3.59,3.8-.77,2.77-2.59,0,0,2,5.52-2.69,1S672,328.41,671.57,329.42Z"/><path class="cls-16" d="M672,322.08c4,.47,4.28,1.18,6.75,2.69s3.77.88,2.53-2.25c0,0,1.51,3.17-2,.91S673.22,321.47,672,322.08Z"/><path class="cls-18" d="M663.1,450.86c.76-7.95,3.26-17.12-7-30.72,0,0,2.76-2.64,5.6-1.2s9.71,20.35,5.8,29.63C667,449.67,662.84,453.55,663.1,450.86Z"/><path class="cls-15" d="M697.31,417.29c25.94,7.92,30.13,45.12,45.36,2.35,2-19.67-14.44-24.63-17.79-25.5s-8.28-12.21-20-6.59c-3.61,1.72-1,7.5-2.16,11.47C700,408,697.31,417.29,697.31,417.29Z"/><path class="cls-16" d="M743.09,418.67c.36-18.52-12.27-22.91-18.21-24.53-8.35-9.33-14.21-9.47-19.94-6.55-4.41,2-1.21,9.81-1.21,9.81s-.46-7.12,6.06-6.8,5.86,1.61,11.5,6.45S734.8,398.62,743.09,418.67Z"/><path class="cls-18" d="M693.26,418.12c2.4-9.75,12-25.77,5.2-33.51a6.51,6.51,0,0,1,6.64,2.54c1.12,1.7,1.07,16.31-6.88,30.58C696.59,420.52,693,419.08,693.26,418.12Z"/><g class="cls-32"><circle class="cls-33" cx="744.15" cy="685.3" r="32.12"/><circle class="cls-34" cx="744.15" cy="685.3" r="29.87" transform="translate(-15.37 17.08) rotate(-1.3)"/><circle class="cls-35" cx="744.15" cy="685.3" r="27.35"/><circle class="cls-2" cx="744.15" cy="685.3" r="27.35"/><g class="cls-36"><path class="cls-37" d="M719.42,673.62c18.67-10.4,33.47-1.21,36-13.25s-46.67,12.56-24.83,16.82,27.86,3.52,30.87-1.75,2.57-9.45,2.7-12.3,15.12,31.88-35.08,18.07c-16-4.11-12.05.49-12.05.49s-7.41,6.29.69,10.68,3.7-2.88,31.25,0c15.5.13,20,.3,23.78-8.41,0,0,6.28,30.62-20.83,12.8-17.94-5-56,4.52-26.6,1.51,14.81,3.76,7.32,11.91,17.06,4.27,8.22-4.32,13.56,4.31,11.3,3.16s8.58,7.14,8.56.11c.22,9.53-17.14-4.28-18.58,2.86-4.29-.61-7.33,5.68-13.32-3.37s-5.82-.11-9.45-1.27S702,683.35,719.42,673.62Z"/></g></g><path class="cls-38" d="M727.73,172.11A20.46,20.46,0,1,1,732,200.73,20.45,20.45,0,0,1,727.73,172.11Z"/><path class="cls-39" d="M729.4,173.35a18.38,18.38,0,1,1,3.8,25.71A18.38,18.38,0,0,1,729.4,173.35Z"/><path class="cls-40" d="M730.64,174.27a16.83,16.83,0,1,1,3.48,23.55A16.82,16.82,0,0,1,730.64,174.27Z"/><g class="cls-12"><path class="cls-3" d="M730.64,174.27a16.83,16.83,0,1,1,3.48,23.55A16.82,16.82,0,0,1,730.64,174.27Z"/><g class="cls-41"><path class="cls-42" d="M760.66,187.61c-5.4-12-16.09-12.88-12.93-19.76s18.45,23.32,6.1,17.42-15.06-8.48-14.61-12.19,2.19-5.62,3.18-7.07-19.17,10.2,10.7,21.8c9.41,3.84,5.78,4.66,5.78,4.66s1.35,5.83-4.27,5-.76-2.79-15.44-11.47c-7.7-5.63-10-7.2-8.66-12.88,0,0-14.34,12.83,5.59,14,10.71,4.11,26,22.76,12.6,10.5-8.7-3.57-8,3.2-10-4.15-2.48-5.15-8.28-2.84-6.74-2.58s-6.86.38-4.27-3.09c-3.61,4.63,10,4.17,8.13,8.23,2.34,1.27,1.54,5.5,7.82,3.22s2.92,2.09,5.13,2.84S765.72,198.82,760.66,187.61Z"/></g></g><g class="cls-43"><circle class="cls-44" cx="340.15" cy="433.3" r="18.75"/><path class="cls-45" d="M357.59,433.3a17.44,17.44,0,1,0-17.44,17.44A17.43,17.43,0,0,0,357.59,433.3Z"/><path class="cls-46" d="M356.13,433.3a16,16,0,1,0-16,16A16,16,0,0,0,356.13,433.3Z"/><g class="cls-47"><path class="cls-48" d="M325.71,426.48c10.9-6.07,19.55-.7,21-7.73s-27.24,7.33-14.49,9.82,16.27,2.05,18-1,1.49-5.51,1.57-7.18,8.83,18.61-20.48,10.56c-9.34-2.4-7,.28-7,.28s-4.32,3.67.41,6.24,2.15-1.69,18.24,0c9,.07,11.69.17,13.89-4.91,0,0,3.66,17.87-12.17,7.47-10.47-2.93-32.67,2.64-15.53.88,8.65,2.2,4.28,6.95,10,2.49,4.8-2.52,7.91,2.52,6.59,1.85s5,4.16,5,.06c.13,5.56-10-2.5-10.85,1.67-2.5-.36-4.28,3.32-7.78-2s-3.4-.06-5.51-.74S315.52,432.16,325.71,426.48Z"/></g></g><g class="cls-32"><circle class="cls-49" cx="204.15" cy="146.3" r="28.56" transform="translate(52.25 346.33) rotate(-88.41)"/><circle class="cls-50" cx="204.15" cy="146.3" r="23.83"/><circle class="cls-51" cx="204.15" cy="146.3" r="22.03"/><circle class="cls-4" cx="204.15" cy="146.3" r="22.03"/><g class="cls-52"><path class="cls-53" d="M184.24,136.9c15-8.38,26.95-1,29-10.67s-37.57,10.11-20,13.54,22.43,2.83,24.86-1.41,2.07-7.61,2.17-9.9S232.45,154.12,192,143c-12.89-3.31-9.71.39-9.71.39s-6,5.07.56,8.6,3-2.32,25.16,0c12.48.1,16.12.24,19.15-6.77,0,0,5.05,24.66-16.77,10.31-14.45-4-45.07,3.64-21.43,1.21,11.93,3,5.9,9.59,13.75,3.44,6.61-3.48,10.91,3.47,9.09,2.54s6.91,5.75,6.89.09c.18,7.67-13.79-3.45-15,2.3-3.45-.49-5.9,4.58-10.72-2.71s-4.69-.09-7.61-1S170.18,144.73,184.24,136.9Z"/></g></g></g></g></svg>