<svg id="Capa_1" data-name="Capa 1" xmlns="http://www.w3.org/2000/svg" xmlns:xlink="http://www.w3.org/1999/xlink" viewBox="0 0 127 187"><defs><style>.cls-1,.cls-22{fill:none;}.cls-2{clip-path:url(#clip-path);}.cls-3{clip-path:url(#clip-path-2);}.cls-4,.cls-8{fill:#fff;}.cls-5{opacity:0.3;}.cls-6{fill:url(#linear-gradient);}.cls-7{clip-path:url(#clip-path-4);}.cls-10,.cls-11,.cls-13,.cls-14,.cls-16,.cls-17,.cls-18,.cls-19,.cls-8{fill-rule:evenodd;}.cls-10,.cls-9{fill:#b5bcc4;}.cls-11,.cls-12{fill:#092f8e;}.cls-13{fill:#334f6c;}.cls-14{fill:#c2c9d1;}.cls-15{fill:#4f6984;}.cls-16{fill:#d6dfe8;}.cls-17{fill:#47607b;}.cls-18{fill:#002f5b;}.cls-19{fill:#001c46;}.cls-20{opacity:0.6;}.cls-21{clip-path:url(#clip-path-5);}.cls-22{stroke:#fff;stroke-linecap:round;stroke-linejoin:round;stroke-width:9px;}.cls-23{clip-path:url(#clip-path-6);}</style><clipPath id="clip-path"><rect class="cls-1" x="-768" y="-506.78" width="413" height="731.78"/></clipPath><clipPath id="clip-path-2"><rect class="cls-1" x="-1554.17" y="-1137.31" width="1456.47" height="1357.16"/></clipPath><linearGradient id="linear-gradient" x1="-1579.74" y1="-14144.56" x2="184.48" y2="-14144.56" gradientTransform="matrix(1, 0, 0, -1, 0, -14685)" gradientUnits="userSpaceOnUse"><stop offset="0" stop-color="#2d62ff"/><stop offset="0.21" stop-color="#641f87"/><stop offset="0.48" stop-color="#1e2f8a"/><stop offset="1" stop-color="#0e061e"/></linearGradient><clipPath id="clip-path-4"><rect class="cls-1" x="-286" y="-509.78" width="413" height="728.78"/></clipPath><clipPath id="clip-path-5"><polygon class="cls-1" points="57.27 19.64 32.13 84.93 8.2 75.86 33.35 10.56 57.27 19.64"/></clipPath><clipPath id="clip-path-6"><polygon class="cls-1" points="41.48 83.52 37.45 93.98 26.91 89.98 30.94 79.52 41.48 83.52"/></clipPath></defs><title>Mesa de trabajo 19</title><g class="cls-2"><g class="cls-3"><path class="cls-4" d="M96.05,115.42c-4-.62-4.14.35-5.26,3.22.4-3.26.54-3.84-3.31-5.21,3.36.45,4.12.83,5.23-3.12C92.13,114.49,92.9,114.16,96.05,115.42Z"/><path class="cls-4" d="M80.46,85c-1.55-.24-1.62.14-2.06,1.26.15-1.27.21-1.5-1.3-2,1.32.18,1.61.32,2.05-1.22C78.92,84.62,79.22,84.49,80.46,85Z"/><path class="cls-4" d="M27.83,25.55C20,24.32,19.58,26.26,17.34,32c.8-6.5,1.07-7.65-6.6-10.39,6.7.89,8.22,1.64,10.44-6.22C20,23.7,21.55,23,27.83,25.55Z"/><path class="cls-4" d="M28.39,81.37A3.24,3.24,0,1,1,26,77.5,3.25,3.25,0,0,1,28.39,81.37Z"/><path class="cls-4" d="M87.06,169.85a2,2,0,0,1-2.81-.51,2,2,0,0,1,.51-2.82,2,2,0,0,1,2.3,3.33Z"/><path class="cls-4" d="M61.9,176.93c.22-.16-.12-1-.76-1.94s-1.33-1.54-1.55-1.39.13,1,.75,1.94S61.67,177.08,61.9,176.93Z"/></g><g class="cls-3"><g class="cls-5"><path class="cls-6" d="M-1579.74-765.52c117.2,787.83,679.22,189.06,730.36-422.15,25.81-308.56,429.28-32.91,292.48,196.84s388.33,126.91,199.76,440.28C-538.31-249.49-483,731.37-355.54-1.5-151-1177.3-64.35,1066.42-45.51,182.39-40.71-42.93-493-1475.15,152.65-809.54,273.32-685.13,12-1337.88,12-1337.88l-134.24,189.07s-266.88,217.55-282.86,57-378.75-383.32-378.75-383.32L-990-1192.85S-1349.61-548-1579.74-856.16Z"/></g></g></g><g class="cls-7"><path class="cls-4" d="M174,51.8A40.11,40.11,0,0,0,152.64,48c-10.35.94-20.09,5.2-28.74,10.52a99.53,99.53,0,0,0-15.56,11.67l0,0c-.37.38-.77.75-1.12,1.16a14.26,14.26,0,0,0-1.78,2.69c-.21.49-.42,1-.64,1.47"/><path class="cls-4" d="M104.76,75.59c-.15.51-.34,1-.46,1.54a14,14,0,0,0,5.22,14.28,14.22,14.22,0,0,0,12.31,2.16,14,14,0,0,0,4.32-2.15c1.23-.9,2.3-2,3.49-3,6.27-5.17,13.22-9.79,21.09-12,.58-.16,1.16-.31,1.75-.44,3.4-.73,7.12-.78,10.05,1.14,2.08,1.35,4.51,2.22,5.83,4.34l2.29.52c.82,1.17,2,1,3,2,3,3,3.49,5.8,7.78,5.2a14.24,14.24,0,0,0,11.81-11.63,13.87,13.87,0,0,0-1.13-7.85,24,24,0,0,0-1.9-3.19A42.74,42.74,0,0,0,174,51.8"/><path class="cls-4" d="M25.31,120.19c-.16.4-.2.5-.33.91a14.12,14.12,0,0,0,2.55,13.15c6.75,8.34,15.63,15.4,26.27,17.38a33.67,33.67,0,0,0,11.59.1,37.91,37.91,0,0,0,11-3.58c9.23-4.65,16.52-12.36,22.35-20.64a78.57,78.57,0,0,0,5.5-8.85,18.29,18.29,0,0,0,.81-1.85,14.09,14.09,0,0,0-5.29-16,14.33,14.33,0,0,0-16.13.27,16.07,16.07,0,0,0-4.37,5.27c-3.26,5.84-7.31,11.39-12.73,15.39-2.41,1.78-5.23,3.38-8.13,2.54a15.35,15.35,0,0,1-6.24-4.2,39.51,39.51,0,0,1-2.93-3.27,19.08,19.08,0,0,0-1.41-1.53,14.3,14.3,0,0,0-15.54-2.42,14.41,14.41,0,0,0-6.92,7.29"/><path class="cls-8" d="M190.39,122.93c-4.4-5.77-11-14-14.5-18.56-5.3-6.77-17-13.55-24.2-19.28-6.32-5-11.56-13.29-18.95-15.11S114,66,107.37,74.22L83.32,104c-6.64,8.21-3.51,19,1.31,25.5s16.62,16.81,27.48,24.7c.07.3,6.19,17.06,10.55,24.31,6.77,11.26,16,21.28,27.89,27.16a54.48,54.48,0,0,0,30.4,5.13h.13a19.85,19.85,0,0,0,3.74-.84,18.84,18.84,0,0,0-6.41-36.72c-1.35,0-2.69.26-4,.27a14.81,14.81,0,0,1-5.55-1c-4.38-1.7-7.75-5.19-10.49-8.8a59.79,59.79,0,0,1-9.26-18.21l-.13-.43-.31-.93c.27-.35.53-.69.8-1l4.72-5.05c2.08,2.57,4.09,5.2,6.12,7.85,4,5.23,8.36,10.26,13.7,14.11,8.61,6.21,19.16,9.3,29.71,11.41,3.23.65,6.48,1.2,9.73,1.71l.25,0,.25,0,1.91.19c.64,0,1.29,0,1.93,0A19.35,19.35,0,0,0,234.25,162a18.92,18.92,0,0,0,0-14.87,19.18,19.18,0,0,0-12.67-10.84c-1.19-.31-2.4-.47-3.61-.66-6.23-1-12.52-2-18.4-4.4a15.09,15.09,0,0,1-3.76-2.11,33.87,33.87,0,0,1-5.45-6.22"/><path class="cls-9" d="M157.91,127a6,6,0,0,0-.38-.76,14.38,14.38,0,0,0-2.4-2.92c2.27-3.09,4.48-6.15,6.66-9.13a84.44,84.44,0,0,0,7-10.74,46,46,0,0,0,2-4.27c-1.62-1.38-3.4-2.75-5.23-4.11a47.64,47.64,0,0,1-2.32,5.36c-2.46,5-6.05,9.41-9.4,14-1.29,1.76-2.58,3.53-3.88,5.29-2.39-.91-5.5-1.27-7.53.17a16.68,16.68,0,0,0-1.59,1.31c-3.39,2.84-9.47,9.72-11.27,12.85-1.13,2-.74,4.83.41,6.79a8.92,8.92,0,0,0,.75,1.09q-2,1.72-4,3.32c-4.43,3.39-9.11,6.58-14.29,8.31l1.7,1.25s-.55.61-1.18,1.45c.35,1,.82,2.18,1.36,3.58a102.7,102.7,0,0,0,16.42-9.72c1.61-1.24,3.18-2.55,4.7-3.91a12,12,0,0,0,1.48.87,28.09,28.09,0,0,1-.29,4.08,49.34,49.34,0,0,1-8.68,21.78,18.75,18.75,0,0,1-5.27,5.44l.07.11q2,3.38,4.35,6.56a24.87,24.87,0,0,0,6-5.67,56.09,56.09,0,0,0,8.59-15.87,46.22,46.22,0,0,0,3.22-16.32,7.78,7.78,0,0,0,1.07-.68,31.82,31.82,0,0,0,2.77-2.47c.25-.32.49-.63.74-.93l4.72-5.05,0,0c.92-1.1,1.78-2.17,2.47-3.11,7.45-.15,14.87-1.23,21.68-4.22a24.74,24.74,0,0,0,11.11-9.05c-1.68-2.19-3.59-4.64-5.49-7.06a14.7,14.7,0,0,1-1.68,3.45c-2.54,3.55-6.81,5.51-10.92,6.74A56.74,56.74,0,0,1,157.91,127"/><path class="cls-9" d="M88.81,134.3A51.6,51.6,0,0,1,76.62,143a35.8,35.8,0,0,1-22.54,3.48c-10.63-2-19.51-9-26.26-17.39A14.46,14.46,0,0,1,24.73,122a14.18,14.18,0,0,0,2.8,12.3c6.75,8.34,15.63,15.4,26.27,17.38a35.76,35.76,0,0,0,22.54-3.48,53.86,53.86,0,0,0,14.89-11.42c-.85-.83-1.66-1.64-2.42-2.43"/><path class="cls-10" d="M99.82,121.81c-1.72-2.72-3.77-6.42-2.42-9.34,2.35-5.06,11.87-17.46,16.53-21,3-2.32,7.85-1.81,11.41-.48a27.44,27.44,0,0,1,10.85,8.84c1.76,2.78,2.49,6.89,1,9.8a66.36,66.36,0,0,1-6.24,8.87,88.57,88.57,0,0,1-10.38,11.22c-2.83,2.33-7.32,3.71-10.75,2.41s-7.9-7-10-10.28"/><path class="cls-11" d="M72.59,116.05A28.76,28.76,0,0,0,84,111.61c1.55-1.07,34-34.81,39.28-45.9a26.45,26.45,0,0,0,2.33-8.16l-1.66,1c-1.26.78-2.5,1.57-3.73,2.4a25.35,25.35,0,0,1-1,2.53c-6.13,12.78-27.57,37.84-39.29,45.9a24.19,24.19,0,0,1-3.79,2.14,47.93,47.93,0,0,1-3.46,4.53"/><path class="cls-12" d="M67.68,121.54l-.13.12.13-.12m-5.94,2.77a14.81,14.81,0,0,0,4.74-2.53c.78-.58,1.54-1.19,2.26-1.83.08.3.17.58.27.86a34.7,34.7,0,0,0,5.91,10.39c2.5,3.14,5.26,6.13,8.7,8.05a6.81,6.81,0,0,0,3.91,1.12,53.45,53.45,0,0,1-7.81,5.89,30.11,30.11,0,0,1-4.66-3.36,47.35,47.35,0,0,1-12.85-17.45l-.47-1.14"/><path class="cls-12" d="M75.71,143.45a29.17,29.17,0,0,0,4,2.81l.13-.08h0l.12-.08h0l.12-.08h0l.11-.07h0l.12-.07h0l.11-.07h0l.11-.07,0,0,.11-.07h0l.11-.07h0l.1-.07,0,0,.11-.07h0l.11-.07,0,0,.11-.07h0l.12-.08h0l1.13-.79h0l.12-.09h0l.11-.08h0l.1-.07,0,0,.1-.07,0,0,.09-.07,0,0,.09-.07,0,0,.1-.07,0,0,.09-.07,0,0,.09-.07,0,0,.09-.07,0,0,.09-.07,0,0,.09-.07,0,0,.09-.08,0,0,.1-.07,0,0,.1-.08h0l.1-.09h0l.12-.09h0c.44-.35.87-.7,1.3-1.07h0l.12-.09h0l.11-.09h0l.11-.09h0l.1-.09h0l.11-.09h0l.11-.1h0l.11-.09h0l.68-.61a6.81,6.81,0,0,1-3.91-1.12l-.44-.26a46.63,46.63,0,0,1-6.56,4l-.91.44"/><path class="cls-12" d="M121.22,175.86c.5,1,1,1.83,1.44,2.6q1.38,2.29,2.89,4.5a48.09,48.09,0,0,1,3.86-4c8.21-7.72,18.66-13.24,30-13.86-.39-.47-.76-1-1.13-1.43a56.17,56.17,0,0,1-3.95-6c-11.69,1.89-22.76,8.1-31,16-.74.72-1.46,1.46-2.17,2.21"/><path class="cls-12" d="M122.59,178.35a18.75,18.75,0,0,0,5.27-5.44,49.56,49.56,0,0,0,3.52-5.74,61.89,61.89,0,0,1,11.05-6c-.26.79-.53,1.58-.81,2.35a64.38,64.38,0,0,1-4.08,9.08,57.75,57.75,0,0,0-8.13,6.39,48.09,48.09,0,0,0-3.86,4l-.17-.25,0,0-.08-.12,0-.05-.07-.1-.06-.08,0-.07-.07-.1-.06-.09,0-.07,0-.06-.06-.1-.06-.09-.07-.11,0-.06h0l-.1-.15-.05-.07-.08-.13,0-.05-.11-.17,0-.06-.09-.14,0,0-.11-.17,0,0-.08-.14,0,0-.11-.18,0-.05-.09-.14,0-.05,0-.07-.13-.2,0-.07-.14-.23,0,0-.16-.26,0-.06-.12-.2,0-.07-.16-.26ZM149,158.87a50.19,50.19,0,0,1,5.41-1.19l.07.11,0,.07h0l.21.37h0l0,.07.06.1h0a1.74,1.74,0,0,0,.11.18h0v0l.05.09,0,.07v0h0c.07.12.14.24.22.35v0l0,.06,0,.09v0h0l.11.17h0v0l.06.09,0,.06v0h0l.22.35v0l0,0,0,.06.06.08v0h0c0,.06.07.12.11.17h0v0l.06.09,0,.06,0,0v0l.23.33v0l0,.05.06.09v0h0l.11.16h0v0l.06.08,0,0,0,0v0l.23.33v0l0,0,0,0,.05.08,0,0h0l.11.16h0l0,0,.05.08,0,.05,0,0v0l.24.33v0l0,0,0,.06.06.07,0,0h0l.11.16h0l0,0,.06.08,0,0,0,0v0l.12.16a1.09,1.09,0,0,1,.13.17h0l0,0,.08.11h0l0,0,.07.09v0l0,0,0,.05.06.08,0,0,0,0,0,0,.06.08,0,0,0,0,0,0,.06.08,0,.05v0l.05,0,0,.05,0,0,0,0,0,0,0,.06.07.09a41.39,41.39,0,0,0-6.21.83c-1.34-2.08-2.83-4.57-4.28-7"/><path class="cls-13" d="M97.33,120.94c-1.72-2.72-3.78-6.41-2.42-9.33,2.35-5.07,11.87-17.47,16.52-21,3-2.32,7.86-1.81,11.42-.47a27.32,27.32,0,0,1,10.84,8.83c1.77,2.78,2.5,6.89,1,9.8-2.61,5-12.06,16.35-16.62,20.1-2.83,2.32-7.32,3.7-10.75,2.4s-7.91-7-10-10.28"/><path class="cls-14" d="M94.64,121.53c-1.76-2.78-2.5-6.89-1-9.8,2.6-5,12.2-16.59,16.61-20.1,2.59-2,6.79-2.13,9.88-1A28.42,28.42,0,0,1,131,99.51c1.76,2.77,2.5,6.88,1,9.79-2.61,5-12.2,16.59-16.62,20.1-2.58,2-6.78,2.14-9.87,1a28.42,28.42,0,0,1-10.84-8.83"/><path class="cls-13" d="M99.64,117.37a3.88,3.88,0,0,1-.57-3.59,29.85,29.85,0,0,1,5.76-7,3.93,3.93,0,0,1,3.65-.14,12.43,12.43,0,0,1,4.24,3.44,3.91,3.91,0,0,1,.57,3.59,29.85,29.85,0,0,1-5.76,7,3.92,3.92,0,0,1-3.66.14,12.49,12.49,0,0,1-4.23-3.44"/><path class="cls-13" d="M113,105.13a2.26,2.26,0,0,1-.21-2.09,21.06,21.06,0,0,1,3.54-4.28,2.23,2.23,0,0,1,2.1-.2,6,6,0,0,1,2.31,1.88,2.19,2.19,0,0,1,.21,2.08,21.06,21.06,0,0,1-3.54,4.28,2.26,2.26,0,0,1-2.1.21,6.12,6.12,0,0,1-2.31-1.88"/><path class="cls-13" d="M109.5,124.88a8.84,8.84,0,0,1,1.92-4.63c2.22-3.08,8.82-11,11.42-13.81a9,9,0,0,1,4.2-2.77,2.12,2.12,0,0,1,2.29,1.87,8.84,8.84,0,0,1-1.92,4.62c-2.22,3.08-8.81,11-11.42,13.81a8.91,8.91,0,0,1-4.2,2.77,2.12,2.12,0,0,1-2.29-1.86"/><path class="cls-15" d="M165.29,97l-.48-.32.26.2.22.12m.75.3-.65-.25a3.66,3.66,0,0,0,.65.25m.77.09-.74-.09a3.18,3.18,0,0,0,.74.09m-56.4,55.48c5.19-1.73,9.87-4.93,14.29-8.31,11.09-8.47,19-19.78,27.16-30.82,3.35-4.56,6.93-9,9.39-14a46.47,46.47,0,0,0,2.4-5.6,2.32,2.32,0,0,1,0-.46c1.86,1.34,3.69,2.7,5.4,4.07a46.82,46.82,0,0,1-2.28,5,85.73,85.73,0,0,1-7,10.75c-9,12.26-18.44,26.14-31.14,35.9-4.67,3.58-9.58,6.89-15,8.94-1-2.49-1.56-4.17-1.58-4.26l-1.7-1.24"/><path class="cls-16" d="M128,140.19c-1.14-2-1.54-4.83-.4-6.8,1.93-3.37,8.88-11.13,12-13.44,1.85-1.35,4.75-1.3,6.86-.4a19.67,19.67,0,0,1,7.25,6.39c1.14,2,1.54,4.83.4,6.8-1.93,3.38-8.88,11.14-12,13.44-1.84,1.35-4.74,1.3-6.85.41a19.69,19.69,0,0,1-7.25-6.4"/><path class="cls-15" d="M107.79,150.92a3.26,3.26,0,0,0-1.44,1.18,2.18,2.18,0,0,0-.3.59,2.38,2.38,0,0,0-.21,1.29,13.51,13.51,0,0,0,.17,1.39c.73,5.51,1.71,11.19,4.7,15.83,1.6,2.49,4.12,4.62,7.22,4.87,3.36.26,6.64-1.74,9-4,3.82-3.69,6.51-8.46,8.64-13.41,2.56-6,4.39-12.39,4.1-18.69a20.38,20.38,0,0,0-.35-2.93,3.49,3.49,0,0,0-.21-.69A3.17,3.17,0,0,0,133,138c1,7.45-1.49,15.16-5.08,21.92-1.73,3.23-3.71,6.44-6.62,8.67-.93.72-2.06,1.45-3.14,1.21-1.24-.28-2-1.56-2.7-2.88-2-3.83-2.7-8.23-3.26-12.64-1.47-1.07-3-2.18-4.45-3.33"/><path class="cls-8" d="M98.35,13.71c-21-18.89-54.55-16.2-74.81,6A55.57,55.57,0,0,0,8.78,59.11a41.48,41.48,0,0,0,6.54,24.51c6,9.84,22.77,24,33.52,28.26,9.62,3.85,22.49,3.37,31-2.5,11.72-8.06,33.16-33.12,39.29-45.9,4.46-9.29,2.85-22-2.52-30.77-3.37-5.52-10.13-12.39-17.31-18.12"/><path class="cls-10" d="M81.3,8.93c-7.79-2.86-19.87-1.76-27.13,3.38C41.5,21.27,22,43.81,17.5,56.91,13.63,68.06,14.8,74,18,80.67a32,32,0,0,0,3.17,5.11,1.14,1.14,0,0,0-.31.27c-1,1.28.59,4.54,3.6,7.27,2.73,2.48,5.67,3.68,7,2.93a28.34,28.34,0,0,0,9,5c7.16,2,18.09,1.29,25.56-4.61,10.27-8.12,30.31-31.54,36.72-42.91,4.67-8.26,4.93-18.62,1.74-25.31a20.26,20.26,0,0,0-1.78-3"/><path class="cls-10" d="M99.3,14.59c7.18,5.73,7.57,11.69,10.93,17.21,5.38,8.8,7,21.48,2.53,30.77-6.13,12.78-27.57,37.85-39.29,45.9-12,8.23-26.91,3-32.75-.91,17.33,11.68,32,6.75,39.12,1.82,11.72-8.06,33.16-33.12,39.29-45.9,4.46-9.29,2.85-22-2.52-30.77-3.37-5.52-10.13-12.39-17.31-18.12"/><path class="cls-17" d="M16.39,82.05C13.2,75.37,11.15,67.76,15,56.61,19.55,43.52,39,21,51.68,12c7.26-5.14,21-6.24,28.83-3.38,0,0,5.66,1.18,14.24,7.72,18.09,15.74,10.13,28.84,5.47,37.11C93.8,64.82,73.76,88.25,63.49,96.36,56,102.26,45.09,103,37.93,101c-8-2.29-18.86-13.13-22.43-20.6"/><path class="cls-13" d="M18.37,85.75c1-1.28,4.31-.1,7.32,2.63s4.62,6,3.59,7.27S25,95.76,22,93s-4.62-6-3.59-7.27"/><path class="cls-17" d="M18.08,86.49c.93-1.16,4,0,6.93,2.66s4.49,5.7,3.56,6.86-4,0-6.93-2.66-4.49-5.7-3.56-6.86"/><path class="cls-13" d="M90,10.2c.91-1.36,4.27-.48,7.5,2s5.11,5.53,4.21,6.9-4.27.48-7.5-2S89,11.56,90,10.2"/><path class="cls-17" d="M90.61,9.85c.82-1.23,4-.32,7.11,2s5,5.26,4.14,6.49-4,.33-7.11-2-5-5.26-4.14-6.5"/><path class="cls-18" d="M76.55,9.8C61.75,5.91,46.14,15.92,32.8,32.32,22.07,45.5,14.16,58.76,16.42,71.49a30.8,30.8,0,0,0,2.8,9.33c3.34,7.06,14.54,16.41,22.06,18.56,6.74,1.91,17.48.15,24.52-5.46,9.68-7.7,28.59-29.92,34.65-40.7,4.41-7.83,4.69-17.64,1.71-23.95-3.34-7.06-14.47-15.75-21.73-18.41Z"/><path class="cls-19" d="M82.12,12c-12.31,1.23-25.63,8.52-35.65,20.75C35.72,45.88,31.38,61.52,33.7,74.24a30.39,30.39,0,0,0,2.85,9.33c2.61,5.46,10,12.31,16.67,16.13a29.6,29.6,0,0,0,12.64-5.53c9.72-7.67,28.68-29.79,34.75-40.53,4.4-7.82,4.65-17.61,1.63-23.93C99.12,23.21,89.35,15.31,82.12,12"/><g class="cls-20"><g class="cls-21"><path class="cls-22" d="M50.48,23.42S13,54,23.88,76.5"/></g></g><g class="cls-20"><g class="cls-23"><path class="cls-8" d="M29.43,85.42a4.56,4.56,0,0,0,2.37,6,4.62,4.62,0,0,0,6.06-2.34,4.56,4.56,0,0,0-2.36-6,4.62,4.62,0,0,0-6.07,2.34"/></g></g><path class="cls-8" d="M23.79,129.72a17.27,17.27,0,0,1-10-8.48c-1.66-3.43-14.45-6.67-12.6-11.83.81-2.24,7.79,2,10.64,3.36,0,0-11.14-7.57-10-10.47,1-2.49,11.46,3.33,11.46,3.33S3.62,94.94,5.37,93c1.91-3.2,13,6.39,13,6.39s-7.71-10.66-4.58-13.15,15.16,15.45,17.67,14.93c.75-1.65-.21-5.8.23-7.77.8-3.52,2.94-4.19,5-.57,3.15,5.64,6.64,15.94,5.48,18.52S23.79,129.72,23.79,129.72Z"/><path class="cls-11" d="M26.52,132.83c1.24-5.73,12.1-18,19.25-19,.21-.81-2.16-2.48-3.69-2.46-2.39.66-11.95,3.41-18.22,18C23.26,131.52,26.52,132.83,26.52,132.83Z"/><path class="cls-10" d="M38.81,112.5S37.49,85.29,31.6,93.65c2.08-9.46,9.7,2.33,10.48,17.68"/><path class="cls-10" d="M31.21,101.15c-3.7,1.63-15.66-19-18-11.35-.37-2.17-.38-2.55.53-3.66,1.21-.69,2.9.65,5.09,2.68C23.28,92.92,28.88,100.25,31.21,101.15Z"/><path class="cls-10" d="M18.32,99.37C14.21,97.29,4.93,89.5,5.74,95.54,3.87,92.26,6.12,88.26,18.32,99.37Z"/><path class="cls-10" d="M13.27,105.63c-9.17-4.94-13.88-5.41-10.65-.83C1.81,100.26,8.12,104.75,13.27,105.63Z"/><path class="cls-10" d="M11.82,112.77c-1.56,1.24-12.87-7-9.57.3a4.3,4.3,0,0,1-1.13-1.83C-.44,105.54,8.43,111,11.82,112.77Z"/><path class="cls-10" d="M16.19,119a17,17,0,0,1,8.24-3.75c.72,0,.58-7.67,3.34-11.09,0,0-5.8,1.24-5.28,5.76C22.39,114.82,16.86,111.33,16.19,119Z"/></g></svg>