<svg xmlns="http://www.w3.org/2000/svg" xmlns:xlink="http://www.w3.org/1999/xlink" viewBox="0 0 343 304"><defs><style>.cls-1{fill:none;}.cls-2{fill:url(#Degradado_sin_nombre_182);}.cls-3{fill:url(#Degradado_sin_nombre_118);}.cls-4{fill:url(#linear-gradient);}.cls-5{isolation:isolate;}.cls-6{clip-path:url(#clip-path);}.cls-7{fill:url(#Degradado_sin_nombre_19);}.cls-8{clip-path:url(#clip-path-2);}.cls-9{fill:#fff;}.cls-10{opacity:0.1;}.cls-11{fill:url(#Degradado_sin_nombre_38);}.cls-12{clip-path:url(#clip-path-4);}.cls-13{fill:url(#Degradado_sin_nombre_19-2);}.cls-14{clip-path:url(#clip-path-5);}.cls-15{fill:url(#linear-gradient-2);}.cls-16{fill:url(#Degradado_sin_nombre_38-2);}.cls-17{fill:url(#Degradado_sin_nombre_109);}.cls-18{fill:url(#Degradado_sin_nombre_109-2);}.cls-19{fill:url(#Degradado_sin_nombre_109-3);}.cls-20{fill:url(#Degradado_sin_nombre_109-4);}.cls-21{clip-path:url(#clip-path-7);}.cls-22,.cls-24,.cls-40,.cls-45,.cls-52{opacity:0.3;}.cls-22{fill:url(#Degradado_sin_nombre_191);}.cls-23{fill:url(#Degradado_sin_nombre_65);}.cls-24{fill:url(#Degradado_sin_nombre_184);}.cls-25{clip-path:url(#clip-path-9);}.cls-26{fill:url(#Degradado_sin_nombre_67);}.cls-27{clip-path:url(#clip-path-10);}.cls-28{opacity:0.25;}.cls-29{fill:url(#Degradado_sin_nombre_67-2);}.cls-30{fill:url(#Degradado_sin_nombre_67-3);}.cls-31{fill:url(#Degradado_sin_nombre_67-4);}.cls-32{fill:url(#Degradado_sin_nombre_67-5);}.cls-33{fill:url(#Degradado_sin_nombre_109-5);}.cls-34{fill:url(#Degradado_sin_nombre_109-6);}.cls-35{fill:url(#Degradado_sin_nombre_143);}.cls-36{clip-path:url(#clip-path-11);}.cls-37,.cls-39,.cls-43,.cls-49{opacity:0.4;}.cls-37{fill:url(#linear-gradient-3);}.cls-38{clip-path:url(#clip-path-12);}.cls-39{fill:url(#Degradado_sin_nombre_182-3);}.cls-40{fill:url(#Degradado_sin_nombre_118-2);}.cls-41{fill:url(#Degradado_sin_nombre_118-3);}.cls-42{clip-path:url(#clip-path-13);}.cls-43{fill:url(#Degradado_sin_nombre_118-5);}.cls-44{mix-blend-mode:screen;}.cls-45{fill:url(#linear-gradient-4);}.cls-46{opacity:0.8;fill:url(#linear-gradient-5);}.cls-47{fill:url(#linear-gradient-6);}.cls-48{clip-path:url(#clip-path-14);}.cls-49{fill:url(#linear-gradient-8);}.cls-50{clip-path:url(#clip-path-15);}.cls-51{clip-path:url(#clip-path-16);}.cls-53{fill:url(#linear-gradient-9);}.cls-54{clip-path:url(#clip-path-18);}.cls-55{clip-path:url(#clip-path-19);}.cls-56{fill:url(#linear-gradient-10);}</style><linearGradient id="Degradado_sin_nombre_182" x1="251.32" y1="67.78" x2="269.86" y2="67.78" gradientUnits="userSpaceOnUse"><stop offset="0" stop-color="aqua"/><stop offset="0.09" stop-color="#06fafa"/><stop offset="0.21" stop-color="#16ecec"/><stop offset="0.34" stop-color="#31d5d5"/><stop offset="0.49" stop-color="#57b5b5"/><stop offset="0.65" stop-color="#878b8b"/><stop offset="0.81" stop-color="#c15a5a"/><stop offset="0.96" stop-color="#ff2525"/></linearGradient><linearGradient id="Degradado_sin_nombre_118" x1="148.36" y1="120.56" x2="159.82" y2="120.56" gradientUnits="userSpaceOnUse"><stop offset="0" stop-color="#ffe53b"/><stop offset="0.09" stop-color="#f1d846"/><stop offset="0.27" stop-color="#ccb762"/><stop offset="0.5" stop-color="#908190"/><stop offset="0.79" stop-color="#3f38cf"/><stop offset="1" stop-color="blue"/></linearGradient><linearGradient id="linear-gradient" x1="201.19" y1="214.8" x2="242.7" y2="214.8" gradientUnits="userSpaceOnUse"><stop offset="0" stop-color="#ff2525"/><stop offset="0.15" stop-color="#ff2925"/><stop offset="0.29" stop-color="#ff3527"/><stop offset="0.44" stop-color="#ff4929"/><stop offset="0.58" stop-color="#ff652c"/><stop offset="0.72" stop-color="#ff8931"/><stop offset="0.87" stop-color="#ffb436"/><stop offset="1" stop-color="#ffe43b"/></linearGradient><clipPath id="clip-path"><rect class="cls-1" x="-496.27" y="-0.15" width="275.14" height="302.5" rx="18.24"/></clipPath><linearGradient id="Degradado_sin_nombre_19" x1="-686.4" y1="365.41" x2="601.96" y2="365.41" gradientUnits="userSpaceOnUse"><stop offset="0" stop-color="#0e061e"/><stop offset="0.08" stop-color="#130825"/><stop offset="0.2" stop-color="#220c37"/><stop offset="0.33" stop-color="#3b1355"/><stop offset="0.48" stop-color="#5d1d7e"/><stop offset="0.51" stop-color="#641f87"/><stop offset="0.99" stop-color="#f7931e"/></linearGradient><clipPath id="clip-path-2"><rect class="cls-1" x="-925.03" y="-4.99" width="1288.36" height="740.79"/></clipPath><linearGradient id="Degradado_sin_nombre_38" x1="-947.65" y1="410.01" x2="612.95" y2="410.01" gradientUnits="userSpaceOnUse"><stop offset="0" stop-color="#e19748"/><stop offset="0.55" stop-color="#ff2cdf"/><stop offset="1" stop-color="#0e061e"/></linearGradient><clipPath id="clip-path-4"><rect class="cls-1" x="0.73" y="0.85" width="275.14" height="302.5" rx="18.24"/></clipPath><linearGradient id="Degradado_sin_nombre_19-2" x1="-189.4" y1="366.41" x2="1098.96" y2="366.41" xlink:href="#Degradado_sin_nombre_19"/><clipPath id="clip-path-5"><rect class="cls-1" x="-428.03" y="-3.99" width="1288.36" height="740.79"/></clipPath><linearGradient id="linear-gradient-2" x1="-534.66" y1="290.1" x2="417.3" y2="290.1" gradientUnits="userSpaceOnUse"><stop offset="0" stop-color="#2d62ff"/><stop offset="0.21" stop-color="#641f87"/><stop offset="0.48" stop-color="#1e2f8a"/><stop offset="1" stop-color="#0e061e"/></linearGradient><linearGradient id="Degradado_sin_nombre_38-2" x1="-450.65" y1="411.01" x2="1109.95" y2="411.01" xlink:href="#Degradado_sin_nombre_38"/><linearGradient id="Degradado_sin_nombre_109" x1="387.85" y1="317.11" x2="-98.13" y2="431.05" gradientTransform="matrix(0.94, 0.05, -0.05, 0.95, -91.82, -220.38)" gradientUnits="userSpaceOnUse"><stop offset="0" stop-color="#999" stop-opacity="0.6"/><stop offset="0.02" stop-color="#aaa" stop-opacity="0.68"/><stop offset="0.05" stop-color="#bebebe" stop-opacity="0.76"/><stop offset="0.09" stop-color="#cecece" stop-opacity="0.84"/><stop offset="0.13" stop-color="#dbdbdb" stop-opacity="0.9"/><stop offset="0.17" stop-color="#e6e6e6" stop-opacity="0.94"/><stop offset="0.23" stop-color="#ededed" stop-opacity="0.98"/><stop offset="0.31" stop-color="#f1f1f1" stop-opacity="0.99"/><stop offset="0.5" stop-color="#f2f2f2"/><stop offset="0.61" stop-color="#f6b9b9"/><stop offset="0.75" stop-color="#fa7a7a"/><stop offset="0.86" stop-color="#fd4c4c"/><stop offset="0.95" stop-color="#fe3030"/><stop offset="1" stop-color="#ff2525"/></linearGradient><linearGradient id="Degradado_sin_nombre_109-2" x1="309.41" y1="347.26" x2="39.32" y2="410.58" xlink:href="#Degradado_sin_nombre_109"/><linearGradient id="Degradado_sin_nombre_109-3" x1="308.38" y1="342.87" x2="38.3" y2="406.2" xlink:href="#Degradado_sin_nombre_109"/><linearGradient id="Degradado_sin_nombre_109-4" x1="388.95" y1="321.79" x2="-97.03" y2="435.73" xlink:href="#Degradado_sin_nombre_109"/><clipPath id="clip-path-7"><rect class="cls-1" x="0.98" y="1.07" width="275.15" height="302.5" rx="18.24"/></clipPath><linearGradient id="Degradado_sin_nombre_191" x1="145.2" y1="236.88" x2="56.56" y2="218.69" gradientUnits="userSpaceOnUse"><stop offset="0" stop-color="#ffe53b" stop-opacity="0.3"/><stop offset="0.14" stop-color="#ffe03a" stop-opacity="0.32"/><stop offset="0.29" stop-color="#ffd139" stop-opacity="0.37"/><stop offset="0.44" stop-color="#ffb836" stop-opacity="0.46"/><stop offset="0.6" stop-color="#ff9532" stop-opacity="0.58"/><stop offset="0.77" stop-color="#ff692d" stop-opacity="0.74"/><stop offset="0.94" stop-color="#ff3327" stop-opacity="0.92"/><stop offset="1" stop-color="#ff1d25"/></linearGradient><linearGradient id="Degradado_sin_nombre_65" x1="131.04" y1="209.02" x2="-112.13" y2="209.02" gradientUnits="userSpaceOnUse"><stop offset="0" stop-color="#ffe53b"/><stop offset="0.49" stop-color="#ff7b2f"/><stop offset="0.84" stop-color="#ff3728"/><stop offset="1" stop-color="#ff1d25"/></linearGradient><linearGradient id="Degradado_sin_nombre_184" x1="79.12" y1="34.79" x2="100.88" y2="34.79" gradientUnits="userSpaceOnUse"><stop offset="0.13" stop-color="#9ff"/><stop offset="0.17" stop-color="#a4e8e8"/><stop offset="0.24" stop-color="#b9baba"/><stop offset="0.31" stop-color="#cc9292"/><stop offset="0.39" stop-color="#dc7070"/><stop offset="0.47" stop-color="#e95555"/><stop offset="0.56" stop-color="#f34040"/><stop offset="0.66" stop-color="#fa3131"/><stop offset="0.78" stop-color="#fe2828"/><stop offset="0.96" stop-color="#ff2525"/></linearGradient><clipPath id="clip-path-9"><rect class="cls-1" x="0.99" y="1.07" width="275.14" height="302.5" rx="18.24"/></clipPath><linearGradient id="Degradado_sin_nombre_67" x1="163.64" y1="209.02" x2="-218.61" y2="209.02" gradientUnits="userSpaceOnUse"><stop offset="0" stop-color="#ffe53b"/><stop offset="0.1" stop-color="#ffc437"/><stop offset="0.26" stop-color="#ff9232"/><stop offset="0.42" stop-color="#ff682d"/><stop offset="0.58" stop-color="#ff472a"/><stop offset="0.73" stop-color="#ff3027"/><stop offset="0.88" stop-color="#ff2226"/><stop offset="1" stop-color="#ff1d25"/></linearGradient><clipPath id="clip-path-10"><circle class="cls-1" cx="8.52" cy="209.02" r="122.52"/></clipPath><linearGradient id="Degradado_sin_nombre_67-2" x1="-166.47" y1="255.75" x2="185.22" y2="52.7" xlink:href="#Degradado_sin_nombre_67"/><linearGradient id="Degradado_sin_nombre_67-3" x1="-110.87" y1="326.44" x2="240.83" y2="123.39" xlink:href="#Degradado_sin_nombre_67"/><linearGradient id="Degradado_sin_nombre_67-4" x1="-162.58" y1="186.97" x2="127.24" y2="19.64" xlink:href="#Degradado_sin_nombre_67"/><linearGradient id="Degradado_sin_nombre_67-5" x1="-311.73" y1="247.38" x2="21.5" y2="83.71" gradientTransform="translate(222.17 119.33) rotate(-3.84)" xlink:href="#Degradado_sin_nombre_67"/><linearGradient id="Degradado_sin_nombre_109-5" x1="391.82" y1="334.03" x2="-94.16" y2="447.97" xlink:href="#Degradado_sin_nombre_109"/><linearGradient id="Degradado_sin_nombre_109-6" x1="313.09" y1="362.96" x2="43.01" y2="426.28" xlink:href="#Degradado_sin_nombre_109"/><linearGradient id="Degradado_sin_nombre_143" x1="192.05" y1="122.44" x2="251.79" y2="122.44" gradientUnits="userSpaceOnUse"><stop offset="0.04" stop-color="#fcee21"/><stop offset="0.08" stop-color="#f8ee25"/><stop offset="0.12" stop-color="#ecef2f"/><stop offset="0.16" stop-color="#d8f041"/><stop offset="0.2" stop-color="#bbf25a"/><stop offset="0.24" stop-color="#97f57a"/><stop offset="0.28" stop-color="#6af8a1"/><stop offset="0.32" stop-color="#37fbcf"/><stop offset="0.36" stop-color="aqua"/><stop offset="0.41" stop-color="#00f9ff"/><stop offset="0.49" stop-color="#00e9ff"/><stop offset="0.57" stop-color="#00ceff"/><stop offset="0.66" stop-color="#00a8ff"/><stop offset="0.76" stop-color="#0078ff"/><stop offset="0.86" stop-color="#003eff"/><stop offset="0.96" stop-color="blue"/></linearGradient><clipPath id="clip-path-11"><path class="cls-1" d="M235.44,122.44a19.15,19.15,0,1,0-19.15,19.15A19.15,19.15,0,0,0,235.44,122.44Z"/></clipPath><linearGradient id="linear-gradient-3" x1="249.95" y1="120.38" x2="182.08" y2="122.23" gradientUnits="userSpaceOnUse"><stop offset="0" stop-color="#00ff5b"/><stop offset="0.07" stop-color="#06e271"/><stop offset="0.19" stop-color="#10b097"/><stop offset="0.32" stop-color="#1986b7"/><stop offset="0.45" stop-color="#2064d1"/><stop offset="0.58" stop-color="#2649e5"/><stop offset="0.72" stop-color="#2a36f4"/><stop offset="0.85" stop-color="#2c2bfc"/><stop offset="1" stop-color="#2d27ff"/></linearGradient><clipPath id="clip-path-12"><path class="cls-2" d="M269.86,67.78a9.27,9.27,0,1,0-9.27,9.27A9.27,9.27,0,0,0,269.86,67.78Z"/></clipPath><linearGradient id="Degradado_sin_nombre_182-3" x1="276.88" y1="66.78" x2="244.03" y2="67.67" xlink:href="#Degradado_sin_nombre_182"/><linearGradient id="Degradado_sin_nombre_118-2" x1="147.36" y1="120.56" x2="160.81" y2="120.56" xlink:href="#Degradado_sin_nombre_118"/><linearGradient id="Degradado_sin_nombre_118-3" x1="146.84" y1="120.56" x2="164.71" y2="120.56" xlink:href="#Degradado_sin_nombre_118"/><clipPath id="clip-path-13"><path class="cls-3" d="M159.82,120.56a5.73,5.73,0,1,0-5.73,5.73A5.73,5.73,0,0,0,159.82,120.56Z"/></clipPath><linearGradient id="Degradado_sin_nombre_118-5" x1="164.16" y1="119.94" x2="143.86" y2="120.49" xlink:href="#Degradado_sin_nombre_118"/><linearGradient id="linear-gradient-4" x1="195.03" y1="214.8" x2="248.86" y2="214.8" gradientTransform="translate(430.52 -13.01) rotate(88.41)" xlink:href="#linear-gradient"/><linearGradient id="linear-gradient-5" x1="199.49" y1="214.8" x2="244.4" y2="214.8" xlink:href="#linear-gradient"/><linearGradient id="linear-gradient-6" x1="195.66" y1="214.8" x2="260.43" y2="214.8" xlink:href="#linear-gradient"/><clipPath id="clip-path-14"><circle class="cls-4" cx="221.95" cy="214.8" r="20.76"/></clipPath><linearGradient id="linear-gradient-8" x1="242.94" y1="228.93" x2="198.38" y2="197.93" xlink:href="#linear-gradient"/><clipPath id="clip-path-15"><rect class="cls-1" x="-490.34" y="-717.57" width="265.86" height="292.29" rx="17.63"/></clipPath><clipPath id="clip-path-16"><rect class="cls-1" x="-588.63" y="-790.69" width="1244.88" height="715.78"/></clipPath><linearGradient id="linear-gradient-9" x1="-610.48" y1="-389.7" x2="897.44" y2="-389.7" xlink:href="#linear-gradient-2"/><clipPath id="clip-path-18"><rect class="cls-1" x="39.66" y="-733.57" width="265.86" height="292.29" rx="17.63"/></clipPath><clipPath id="clip-path-19"><rect class="cls-1" x="-58.63" y="-806.69" width="1244.88" height="715.78"/></clipPath><linearGradient id="linear-gradient-10" x1="-80.48" y1="-405.7" x2="1427.44" y2="-405.7" xlink:href="#linear-gradient-2"/></defs><title>Mesa de trabajo 25</title><g class="cls-5"><g id="Capa_1" data-name="Capa 1"><g class="cls-6"><rect class="cls-7" x="-686.4" y="-4.98" width="1288.36" height="740.79"/><g class="cls-8"><path class="cls-9" d="M333,271.77a2.18,2.18,0,1,1-2.86-1.16A2.19,2.19,0,0,1,333,271.77Z"/><path class="cls-9" d="M22.6,203.46a2.44,2.44,0,1,1-1.68-3A2.42,2.42,0,0,1,22.6,203.46Z"/><path class="cls-9" d="M82.51,248.56c-4.68-.95-5,.2-6.45,3.56.66-3.86.85-4.55-3.66-6.39,4,.71,4.87,1.2,6.41-3.44C77.89,247.24,78.82,246.89,82.51,248.56Z"/><path class="cls-9" d="M274.4,291.83c-6.78-1.37-7.18.29-9.35,5.17.95-5.6,1.23-6.6-5.32-9.27,5.78,1,7.06,1.75,9.3-5C267.7,289.92,269.05,289.41,274.4,291.83Z"/><path class="cls-9" d="M178,269.26a4.36,4.36,0,1,1-3-5.38A4.35,4.35,0,0,1,178,269.26Z"/><path class="cls-9" d="M47.07,295.26a1.75,1.75,0,1,1-1.22-2.16A1.74,1.74,0,0,1,47.07,295.26Z"/><path class="cls-9" d="M224.18,244.14a1.74,1.74,0,0,1-2.41-.56,1.75,1.75,0,1,1,3-1.86A1.74,1.74,0,0,1,224.18,244.14Z"/><path class="cls-9" d="M133.36,238.47a1.75,1.75,0,0,1-2.41-.56,1.75,1.75,0,1,1,3-1.86A1.74,1.74,0,0,1,133.36,238.47Z"/><path class="cls-9" d="M89.11,202.15a2.93,2.93,0,1,1-2-3.6A3,3,0,0,1,89.11,202.15Z"/><path class="cls-9" d="M59.39,12.23a2.93,2.93,0,1,1-2-3.61A2.92,2.92,0,0,1,59.39,12.23Z"/><path class="cls-9" d="M243.7,212.24a1.92,1.92,0,1,1-1.34-2.35A1.92,1.92,0,0,1,243.7,212.24Z"/><path class="cls-9" d="M199.66,234.76a2.58,2.58,0,1,1-1.78-3.19A2.59,2.59,0,0,1,199.66,234.76Z"/><path class="cls-9" d="M292.45,122.65c-5.9-1.2-6.25.25-8.14,4.5.83-4.88,1.07-5.75-4.62-8.08,5,.91,6.14,1.53,8.09-4.33C286.62,121,287.8,120.54,292.45,122.65Z"/><path class="cls-9" d="M27.93,191.71c-7.63-1.56-8.09.32-10.54,5.82,1.08-6.32,1.39-7.44-6-10.45,6.51,1.17,8,2,10.48-5.62C20.39,189.55,21.91,189,27.93,191.71Z"/><path class="cls-9" d="M69.77,252.27c-1.5-.31-1.59.06-2.07,1.14.21-1.24.27-1.46-1.18-2,1.28.23,1.56.38,2.06-1.11C68.28,251.84,68.58,251.73,69.77,252.27Z"/><path class="cls-9" d="M9.18,50.05c-1.5-.3-1.59.07-2.07,1.15.21-1.24.27-1.46-1.18-2.06,1.28.24,1.56.39,2.06-1.1C7.7,49.63,8,49.52,9.18,50.05Z"/><path class="cls-9" d="M311,233c-7.64-1.55-8.1.33-10.54,5.82,1.07-6.31,1.39-7.43-6-10.45,6.51,1.17,8,2,10.48-5.61C303.41,230.82,304.93,230.24,311,233Z"/><path class="cls-9" d="M143.62,93.26c-7.64-1.56-8.09.32-10.54,5.82,1.08-6.32,1.39-7.44-6-10.45,6.51,1.17,8,2,10.48-5.61C136.08,91.11,137.6,90.52,143.62,93.26Z"/><path class="cls-9" d="M344.4,17.31c-7.64-1.56-8.09.32-10.54,5.82,1.08-6.32,1.39-7.44-6-10.45,6.51,1.17,8,2,10.49-5.61C336.85,15.16,338.37,14.57,344.4,17.31Z"/><path class="cls-9" d="M137.52,262c-4.48-.91-4.74.19-6.18,3.42.63-3.71.82-4.36-3.51-6.13,3.82.69,4.67,1.16,6.15-3.29C133.1,260.78,134,260.44,137.52,262Z"/><path class="cls-9" d="M300.54,164a2.93,2.93,0,1,1-2-3.61A2.94,2.94,0,0,1,300.54,164Z"/><path class="cls-9" d="M309,287.54a3.17,3.17,0,1,1-2.19-3.89A3.16,3.16,0,0,1,309,287.54Z"/><path class="cls-9" d="M347.09,52.79a3.35,3.35,0,1,1-2.33-4.13A3.36,3.36,0,0,1,347.09,52.79Z"/><path class="cls-9" d="M310.52,67.54a2.39,2.39,0,1,1-1.66-3A2.4,2.4,0,0,1,310.52,67.54Z"/><path class="cls-9" d="M217.84,68.25a3.11,3.11,0,1,1-2.16-3.83A3.12,3.12,0,0,1,217.84,68.25Z"/><path class="cls-9" d="M39.7,87.74a2.93,2.93,0,1,1-2-3.61A2.93,2.93,0,0,1,39.7,87.74Z"/><path class="cls-9" d="M125,48.47A3.11,3.11,0,1,1,127.72,45,3.11,3.11,0,0,1,125,48.47Z"/><path class="cls-9" d="M145.65,35.38a2,2,0,1,1,1.74-2.19A2,2,0,0,1,145.65,35.38Z"/><path class="cls-9" d="M126.15,132.35a3.1,3.1,0,1,1,1-4.28A3.11,3.11,0,0,1,126.15,132.35Z"/><path class="cls-9" d="M186.29,136.41a2,2,0,1,1,.62-2.73A2,2,0,0,1,186.29,136.41Z"/><path class="cls-9" d="M264.09,16.66a2,2,0,1,1,.62-2.73A2,2,0,0,1,264.09,16.66Z"/><path class="cls-9" d="M186.89,299.57a2,2,0,1,1,.62-2.73A2,2,0,0,1,186.89,299.57Z"/><path class="cls-9" d="M153.81,223.88a3.05,3.05,0,1,1-2.12-3.77A3.06,3.06,0,0,1,153.81,223.88Z"/><path class="cls-9" d="M58.52,294.24a3.47,3.47,0,1,1-2.41-4.3A3.49,3.49,0,0,1,58.52,294.24Z"/><path class="cls-9" d="M173.74,146.22A4,4,0,1,1,171,141.3,4,4,0,0,1,173.74,146.22Z"/><path class="cls-9" d="M255.24,124.42a2.92,2.92,0,1,1-2-3.6A2.92,2.92,0,0,1,255.24,124.42Z"/><path class="cls-9" d="M223.23,302.69c-7.59-1.58-8,.29-10.5,5.74,1.1-6.27,1.41-7.38-5.91-10.41,6.47,1.19,7.91,2,10.45-5.54C215.74,300.52,217.25,299.94,223.23,302.69Z"/><path class="cls-9" d="M194.56,76c-4.25-.88-4.5.16-5.88,3.22.62-3.52.79-4.14-3.31-5.83,3.62.66,4.43,1.11,5.85-3.1C190.37,74.74,191.21,74.42,194.56,76Z"/><path class="cls-9" d="M205.17,161.81c-1.49-.31-1.58.06-2.07,1.13.22-1.24.28-1.45-1.16-2.05,1.27.24,1.56.39,2.06-1.09C203.7,161.38,204,161.27,205.17,161.81Z"/><path class="cls-9" d="M241.55,46.21c-1.49-.31-1.58.06-2.06,1.13.22-1.23.28-1.45-1.16-2,1.27.23,1.55.39,2-1.09C240.08,45.79,240.38,45.67,241.55,46.21Z"/><path class="cls-9" d="M338.63,205.31c-7.59-1.58-8.05.29-10.5,5.74,1.09-6.28,1.41-7.39-5.91-10.41,6.47,1.19,7.9,2,10.44-5.54C331.14,203.14,332.65,202.56,338.63,205.31Z"/><path class="cls-9" d="M295,13.18c-4.8-1-5.09.18-6.65,3.63.69-4,.89-4.67-3.74-6.59,4.1.76,5,1.26,6.61-3.5C290.23,11.8,291.19,11.44,295,13.18Z"/><path class="cls-9" d="M173.19,193a4.1,4.1,0,1,1-2.82-5.07A4.1,4.1,0,0,1,173.19,193Z"/><path class="cls-9" d="M141.14,284.38a4.76,4.76,0,1,1-3.28-5.88A4.76,4.76,0,0,1,141.14,284.38Z"/><path class="cls-9" d="M178.66,247.13a1.91,1.91,0,1,1-1.32-2.34A1.9,1.9,0,0,1,178.66,247.13Z"/><path class="cls-9" d="M235.35,199.4a2.92,2.92,0,1,1-2-3.61A2.91,2.91,0,0,1,235.35,199.4Z"/><path class="cls-9" d="M245.67,103.58a2.38,2.38,0,1,1-1.64-3A2.39,2.39,0,0,1,245.67,103.58Z"/><path class="cls-9" d="M320.29,160.71A3.09,3.09,0,1,1,323,157.3,3.1,3.1,0,0,1,320.29,160.71Z"/><path class="cls-9" d="M340.88,147.78a2,2,0,1,1,1.74-2.17A2,2,0,0,1,340.88,147.78Z"/><path class="cls-9" d="M321.1,244.1a3.09,3.09,0,1,1,1-4.26A3.09,3.09,0,0,1,321.1,244.1Z"/><path class="cls-9" d="M342,74.16a2,2,0,1,1,.63-2.72A2,2,0,0,1,342,74.16Z"/></g><g class="cls-8"><g class="cls-10"><path class="cls-11" d="M-947.65,532.86c103.67-430,600.83-103.19,646.06,230.43,22.84,168.42,379.74,18,258.72-107.45s343.52-69.27,176.71-240.32C-26.41,251.19,22.47-284.19,135.25,115.83c181,641.79,257.58-582.9,274.25-100.37,4.25,123-395.82,904.74,175.29,541.43,106.75-67.9-124.4,288.39-124.4,288.39L341.65,742.07S105.57,623.33,91.43,711s-335,209.23-335,209.23L-426,766.11s-318.08-352-521.66-183.77Z"/></g></g></g><g class="cls-12"><rect class="cls-13" x="-189.4" y="-3.98" width="1288.36" height="740.79"/><g class="cls-14"><path class="cls-9" d="M110.12,130.53a2.2,2.2,0,1,1-1.63-2.66A2.19,2.19,0,0,1,110.12,130.53Z"/><path class="cls-9" d="M24.38,281.62a3.07,3.07,0,1,1-2.28-3.7A3.08,3.08,0,0,1,24.38,281.62Z"/><path class="cls-9" d="M170.9,166.79a2.11,2.11,0,1,1-1.56-2.54A2.1,2.1,0,0,1,170.9,166.79Z"/><path class="cls-9" d="M86.37,262a2.25,2.25,0,1,1-1.66-2.71A2.25,2.25,0,0,1,86.37,262Z"/><path class="cls-9" d="M224.11,203.59c-4.06-.66-4.26.34-5.43,3.29.43-3.35.57-3.95-3.38-5.38,3.45.48,4.24.87,5.41-3.19C220.09,202.61,220.88,202.27,224.11,203.59Z"/><path class="cls-9" d="M38,226.81c-3.3-.54-3.46.27-4.42,2.67.36-2.72.47-3.21-2.74-4.37,2.81.39,3.44.71,4.39-2.59C34.72,226,35.36,225.74,38,226.81Z"/><path class="cls-9" d="M49.12,292.53c-1.16-.18-1.22.1-1.55.94.12-1,.16-1.12-1-1.53,1,.14,1.21.25,1.54-.91C48,292.26,48.19,292.16,49.12,292.53Z"/><path class="cls-9" d="M73.14,202.29c-1.16-.19-1.21.1-1.55.94.13-1,.17-1.12-1-1.53,1,.13,1.21.24,1.54-.91C72,202,72.22,201.92,73.14,202.29Z"/><path class="cls-9" d="M304.66,257.05c-5.89-.95-6.18.5-7.89,4.79.63-4.87.84-5.74-4.9-7.82,5,.7,6.15,1.27,7.85-4.62C298.82,255.64,300,255.15,304.66,257.05Z"/><path class="cls-9" d="M113.13,175c-3.74-.6-3.92.32-5,3,.4-3.08.53-3.63-3.1-5,3.17.44,3.89.8,5-2.92C109.43,174.13,110.15,173.81,113.13,175Z"/><path class="cls-9" d="M94.63,154.27a4.13,4.13,0,1,1-3.06-5A4.13,4.13,0,0,1,94.63,154.27Z"/><path class="cls-9" d="M307.13,218.12a3.77,3.77,0,1,1-2.8-4.52A3.77,3.77,0,0,1,307.13,218.12Z"/><path class="cls-9" d="M307.82,284.13a2.56,2.56,0,1,1-1.9-3.09A2.57,2.57,0,0,1,307.82,284.13Z"/><path class="cls-9" d="M280.29,296.55a1.83,1.83,0,1,1-1.36-2.2A1.81,1.81,0,0,1,280.29,296.55Z"/><path class="cls-9" d="M209.38,300a2.38,2.38,0,1,1-1.77-2.87A2.39,2.39,0,0,1,209.38,300Z"/><path class="cls-9" d="M78.29,246.31a1.83,1.83,0,1,1-1.36-2.21A1.83,1.83,0,0,1,78.29,246.31Z"/><path class="cls-9" d="M195.18,245.08a1.5,1.5,0,0,1-1.82,1.12,1.53,1.53,0,0,1-1.13-1.82,1.52,1.52,0,0,1,3,.7Z"/><path class="cls-9" d="M137.7,287.72a2.38,2.38,0,1,1,2-2.72A2.37,2.37,0,0,1,137.7,287.72Z"/><path class="cls-9" d="M153.11,277.06a1.52,1.52,0,1,1,1.26-1.73A1.51,1.51,0,0,1,153.11,277.06Z"/><path class="cls-9" d="M151.43,220.34a1.52,1.52,0,1,1,.39-2.11A1.52,1.52,0,0,1,151.43,220.34Z"/><path class="cls-9" d="M243.18,259.05a1.52,1.52,0,1,1,.39-2.11A1.53,1.53,0,0,1,243.18,259.05Z"/><path class="cls-9" d="M267.61,193.13A1.52,1.52,0,1,1,268,191,1.53,1.53,0,0,1,267.61,193.13Z"/><path class="cls-9" d="M124.89,158.24c.16-.11-.09-.76-.56-1.45s-1-1.16-1.16-1,.09.78.56,1.46S124.72,158.36,124.89,158.24Z"/></g><g class="cls-14"><g class="cls-10"><path class="cls-15" d="M-428,450.36C-525.52,427.84-281-188.56,76.68,417.89S537.53,65.74,254.81,138-176.35,107.22-2.47-39.8H-258.38s43.86,24-179.49,234.62S-428,450.36-428,450.36Z"/><path class="cls-16" d="M-450.65,533.86c103.67-430,600.83-103.19,646.06,230.43,22.84,168.42,379.74,18,258.72-107.45s343.52-69.27,176.71-240.32c-160.25-164.33-111.37-699.71,1.41-299.69,181,641.79,257.58-582.9,274.25-100.37,4.25,123-395.82,904.74,175.29,541.43,106.75-67.9-124.4,288.39-124.4,288.39L838.65,743.07S602.57,624.33,588.43,712s-335,209.23-335,209.23L71,767.11s-318.08-352-521.66-183.77Z"/></g></g></g><path class="cls-17" d="M119.62,125l3.16,4.34q7.47-3.65,14.56-7.06l-3.12-4.52Q127,121.29,119.62,125Z"/><path class="cls-18" d="M109,139.17l1.69,2.47q8.1-3.93,15.42-7.35l-1.73-2.63Q116.91,135.23,109,139.17Z"/><path class="cls-19" d="M124.36,131.66l1.73,2.63q7.78-3.64,14.72-6.72L139,124.75Q132,128,124.36,131.66Z"/><path class="cls-20" d="M104.3,132.93l3.09,4q7.88-3.93,15.39-7.6L119.62,125C118.36,125.63,112.68,128.56,104.3,132.93Z"/><g class="cls-21"><ellipse class="cls-22" cx="9.45" cy="209.02" rx="138.55" ry="138.54"/><ellipse class="cls-23" cx="9.45" cy="209.02" rx="121.58" ry="121.58"/></g><g class="cls-21"><ellipse class="cls-23" cx="9.45" cy="209.02" rx="121.58" ry="121.58"/></g><circle class="cls-24" cx="90" cy="34.79" r="10.88"/><g class="cls-25"><circle class="cls-26" cx="8.52" cy="209.02" r="122.52"/><g class="cls-27"><g class="cls-28"><path class="cls-29" d="M-122.48,219.39C-159.24,243-19.75,169.44-70.65,169.44c33.93-15.08,68.8-22.62,56.55-6.6s66-24.51,35.81-26.39c40.53-18.85,42.42-39.59,17-37.7S51.87,79,55.64,79.9,94.28,111,91.46,113.83s17,26.39-5.66,34.87c0,0-66.91,23.56-33.93,20.74-29.21,16-38.64,0-50.89,16s12.25,16,12.25,16-15.08,10.37-56.55,11.31,3.77,14.14,3.77,14.14-11.31,3.77-38.64,8.48-6.6,19.79-4.71,18.85-31.1,14.14-39.58,7.54S-122.48,219.39-122.48,219.39Z"/><path class="cls-30" d="M-66.88,290.07C-103.64,313.63,35.85,240.12-15,240.12c33.93-15.08,68.8-22.62,56.55-6.6s66-24.5,35.81-26.39c40.53-18.85,42.41-39.58,17-37.69s13.2-19.8,17-18.85,38.64,31.1,35.81,33.92,17,26.39-5.65,34.88c0,0-66.92,23.56-33.93,20.73-29.22,16-38.64,0-50.89,16s12.25,16,12.25,16-15.08,10.36-56.55,11.3,3.77,14.14,3.77,14.14-11.31,3.77-38.64,8.48-6.6,19.8-4.71,18.85-31.11,14.14-39.59,7.54S-66.88,290.07-66.88,290.07Z"/><path class="cls-31" d="M-124,159.53c-29.75,20.29,83.14-43,42-43,27.46-13,55.68-19.48,45.76-5.68s53.39-21.11,29-22.73C25.47,71.87,27,54,6.41,55.63s10.67-17,13.73-16.23,31.27,26.79,29,29.22,13.73,22.73-4.58,30c0,0-54.15,20.3-27.46,17.86-23.64,13.8-31.27,0-41.18,13.8s9.91,13.8,9.91,13.8-12.2,8.93-45.76,9.74S-56.9,166-56.9,166s-9.15,3.25-31.27,7.31-5.34,17-3.82,16.23-25.17,12.18-32,6.5S-124,159.53-124,159.53Z"/><path class="cls-32" d="M-42.78,347.14c-35.6,18.52,100.21-40.92,49.44-37.51,33.16-12.55,67.61-20,56.11-8.28S127.48,280.23,97.3,281c39.57-15.56,40.51-29.81,15.2-26.82s12.26-14.37,16.07-14,40,18.6,37.28,20.71,18.14,16.85-4,24.14c0,0-65.69,20.54-32.91,16.4-28.42,12.88-38.55,2.59-50,14.33s13,10.1,13,10.1-14.57,8.07-55.9,11.49,4.41,9.38,4.41,9.38-11.11,3.33-38.17,8.37S-3.53,369-1.69,368.25-32.07,380-40.84,376-42.78,347.14-42.78,347.14Z"/></g></g></g><path class="cls-33" d="M134.22,117.76l3.12,4.52c99.21-47.61,145.65-60.37,155-56.67C294,78.55,217.05,125.1,1,221.47v5.75C243.18,126.57,341.25,54.94,343,41.62,344.29,31.53,269.81,51.11,134.22,117.76Z"/><path class="cls-34" d="M230.16,94.3c.65-5-31.61,3-91.13,30.45l1.78,2.82c38.16-17,56.87-21.65,61.22-19.94,1,7.93-51,38.53-201,103.85v1.77C164.23,149.1,229.11,102.38,230.16,94.3Z"/><path class="cls-35" d="M235.44,122.44a19.15,19.15,0,1,0-19.15,19.15A19.15,19.15,0,0,0,235.44,122.44Z"/><g class="cls-36"><path class="cls-37" d="M199,114.26c13.07-7.28,23.44-.84,25.21-9.27s-32.67,8.79-17.38,11.78,19.51,2.45,21.61-1.24,1.8-6.61,1.89-8.61,10.59,22.32-24.55,12.66c-11.21-2.88-8.44.34-8.44.34s-5.19,4.4.48,7.48,2.59-2,21.88,0c10.85.08,14,.21,16.65-5.89,0,0,4.39,21.44-14.59,9-12.56-3.51-39.18,3.16-18.62,1.06,10.37,2.63,5.12,8.34,11.95,3,5.75-3,9.49,3,7.91,2.22s6,5,6,.07c.16,6.67-12-3-13,2-3-.43-5.14,4-9.33-2.37s-4.07-.07-6.61-.88S186.75,121.07,199,114.26Z"/></g><path class="cls-2" d="M269.86,67.78a9.27,9.27,0,1,0-9.27,9.27A9.27,9.27,0,0,0,269.86,67.78Z"/><g class="cls-38"><path class="cls-39" d="M252.21,63.82c6.32-3.53,11.34-.41,12.19-4.49S248.59,63.59,256,65s9.44,1.19,10.46-.59a7.81,7.81,0,0,0,.92-4.17c0-1,5.12,10.8-11.89,6.12-5.42-1.39-4.08.17-4.08.17s-2.51,2.13.23,3.62,1.25-1,10.59,0c5.25,0,6.79.1,8.06-2.85,0,0,2.13,10.37-7.06,4.33-6.08-1.69-19,1.53-9,.51,5,1.28,2.48,4,5.78,1.45,2.79-1.46,4.59,1.46,3.83,1.07s2.9,2.42,2.9,0c.07,3.23-5.81-1.45-6.3,1-1.45-.21-2.48,1.92-4.51-1.15s-2,0-3.2-.42S246.29,67.11,252.21,63.82Z"/></g><circle class="cls-40" cx="154.09" cy="120.56" r="6.73"/><path class="cls-41" d="M159.82,120.56a5.73,5.73,0,1,0-5.73,5.73A5.73,5.73,0,0,0,159.82,120.56Z"/><path class="cls-3" d="M159.82,120.56a5.73,5.73,0,1,0-5.73,5.73A5.73,5.73,0,0,0,159.82,120.56Z"/><g class="cls-42"><path class="cls-43" d="M148.91,118.11c3.91-2.18,7-.25,7.54-2.78s-9.78,2.64-5.2,3.53,5.83.73,6.46-.37a4.81,4.81,0,0,0,.57-2.58c0-.59,3.17,6.68-7.35,3.79-3.35-.86-2.52.1-2.52.1s-1.55,1.32.14,2.24.78-.6,6.55,0c3.24,0,4.19.06,5-1.76,0,0,1.31,6.41-4.36,2.68-3.76-1-11.72.94-5.58.31,3.11.79,1.54,2.5,3.58.9,1.72-.91,2.84.9,2.36.66s1.8,1.49,1.8,0c0,2-3.59-.89-3.89.6-.9-.13-1.54,1.19-2.79-.7s-1.22,0-2-.27S145.25,120.15,148.91,118.11Z"/></g><g class="cls-44"><circle class="cls-45" cx="221.95" cy="214.8" r="26.91" transform="translate(1.08 430.71) rotate(-88.41)"/><circle class="cls-46" cx="221.95" cy="214.8" r="22.45"/><circle class="cls-47" cx="221.95" cy="214.8" r="20.76"/><circle class="cls-4" cx="221.95" cy="214.8" r="20.76"/><g class="cls-48"><path class="cls-49" d="M203.17,205.94c14.17-7.9,25.41-.92,27.33-10.06s-35.41,9.53-18.84,12.77,21.14,2.67,23.42-1.33,2-7.17,2-9.33,11.48,24.18-26.62,13.71c-12.14-3.12-9.15.37-9.15.37s-5.61,4.77.53,8.11,2.81-2.19,23.72,0c11.76.09,15.19.22,18-6.39,0,0,4.76,23.24-15.81,9.72-13.62-3.8-42.48,3.43-20.19,1.14,11.24,2.86,5.55,9,13,3.24,6.24-3.27,10.28,3.27,8.57,2.4s6.51,5.42,6.5.08c.17,7.23-13-3.25-14.11,2.17-3.25-.46-5.56,4.31-10.1-2.56s-4.42-.08-7.17-1S189.93,213.32,203.17,205.94Z"/></g></g><g class="cls-50"><g class="cls-51"><path class="cls-9" d="M109.42,2.53c-7.54-1.22-7.91.63-10.1,6.11.81-6.23,1.07-7.33-6.27-10,6.42.89,7.87,1.62,10-5.91C102,.72,103.41.09,109.42,2.53Z"/><path class="cls-9" d="M49.45,17.4c-1.49-.24-1.56.12-2,1.2.16-1.23.21-1.44-1.23-2,1.26.18,1.55.32,2-1.16C48,17,48.26,16.92,49.45,17.4Z"/><path class="cls-9" d="M65.68,2.55A1.93,1.93,0,0,1,63,2a2,2,0,0,1,.49-2.69,1.94,1.94,0,0,1,2.2,3.2Z"/></g><g class="cls-51"><g class="cls-52"><path class="cls-53" d="M-610.48-271C-510.31-686.5-29.94-370.71,13.77-48.35,35.84,114.4,380.69-31,263.76-152.16S595.68-219.09,434.5-384.37c-154.84-158.78-107.61-676.1,1.37-289.58,174.84,620.13,248.89-563.23,265-97C705-652.1,318.4,103.27,870.23-247.78,973.38-313.39,750,30.88,750,30.88L635.29-68.84s-228.11-114.74-241.77-30S69.8,103.27,69.8,103.27L-106.43-45.61s-307.35-340.12-504-177.57Z"/></g></g></g><g class="cls-54"><g class="cls-55"><path class="cls-9" d="M174.6,86.43A2.69,2.69,0,1,1,169.41,85a2.69,2.69,0,0,1,5.19,1.43Z"/><path class="cls-9" d="M33.5,6A2.2,2.2,0,1,1,32,3.32,2.2,2.2,0,0,1,33.5,6Z"/><path class="cls-9" d="M149.41,13.06a1.44,1.44,0,1,1-1-1.76A1.42,1.42,0,0,1,149.41,13.06Z"/><path class="cls-9" d="M116.48,30.09a1.94,1.94,0,0,1-2.37,1.34,1.93,1.93,0,0,1,1-3.73A1.94,1.94,0,0,1,116.48,30.09Z"/><path class="cls-9" d="M99.21,143.91a1.93,1.93,0,1,1-1.34-2.39A1.93,1.93,0,0,1,99.21,143.91Z"/><path class="cls-9" d="M330.9,12.59a2.33,2.33,0,1,1-1.63-2.87A2.32,2.32,0,0,1,330.9,12.59Z"/><path class="cls-9" d="M320,76.18a2.33,2.33,0,1,1-1.63-2.87A2.33,2.33,0,0,1,320,76.18Z"/><path class="cls-9" d="M285.56,29.66a2.33,2.33,0,1,1-1.64-2.86A2.34,2.34,0,0,1,285.56,29.66Z"/><path class="cls-9" d="M291.6,115.86A2.33,2.33,0,1,1,290,113,2.33,2.33,0,0,1,291.6,115.86Z"/><path class="cls-9" d="M175.06,155.6c-5.73-1.14-6.07.27-7.88,4.4.78-4.74,1-5.58-4.52-7.81,4.88.86,6,1.45,7.83-4.24C169.39,154,170.53,153.57,175.06,155.6Z"/><path class="cls-9" d="M312.22,164.48c-5.73-1.14-6.07.27-7.88,4.4.78-4.74,1-5.57-4.52-7.81,4.88.86,6,1.45,7.83-4.24C306.56,162.9,307.69,162.45,312.22,164.48Z"/><path class="cls-9" d="M127.84,181.58c-2.88-.57-3,.13-4,2.2.4-2.37.52-2.79-2.26-3.91,2.45.43,3,.72,3.93-2.13C125,180.78,125.57,180.56,127.84,181.58Z"/><path class="cls-9" d="M247.15,96.26c-2.88-.57-3.05.14-4,2.21.4-2.38.51-2.8-2.26-3.92,2.45.43,3,.73,3.93-2.13C244.31,95.47,244.88,95.25,247.15,96.26Z"/><path class="cls-9" d="M236.65,73.5c-1.13-.23-1.2,0-1.55.86.15-.93.2-1.1-.89-1.54,1,.17,1.17.29,1.54-.83C235.53,73.18,235.76,73.1,236.65,73.5Z"/><path class="cls-9" d="M266,174.22c-1.12-.23-1.19.05-1.55.86.16-.93.2-1.09-.88-1.53.95.17,1.17.28,1.54-.84C264.88,173.91,265.1,173.82,266,174.22Z"/><path class="cls-9" d="M19.18,43.64c-1.13-.22-1.19.06-1.55.87.15-.93.2-1.1-.89-1.54,1,.17,1.17.29,1.54-.83C18.06,43.33,18.29,43.24,19.18,43.64Z"/><path class="cls-9" d="M199.89,28.37c-5.73-1.14-6.06.27-7.88,4.39.79-4.73,1-5.57-4.52-7.81,4.88.86,6,1.45,7.84-4.24C194.23,26.78,195.37,26.34,199.89,28.37Z"/><path class="cls-9" d="M70,50.74c-3.36-.67-3.55.16-4.62,2.58.46-2.78.6-3.27-2.65-4.58,2.87.5,3.5.85,4.6-2.49C66.67,49.81,67.34,49.55,70,50.74Z"/><path class="cls-9" d="M198.61,69.28A2.38,2.38,0,1,1,197,66.36,2.38,2.38,0,0,1,198.61,69.28Z"/><path class="cls-9" d="M277.84,78.35a2.29,2.29,0,1,1-1.6-2.82A2.3,2.3,0,0,1,277.84,78.35Z"/><path class="cls-9" d="M238.92,135.87a1.49,1.49,0,1,1,.45-2.05A1.49,1.49,0,0,1,238.92,135.87Z"/><path class="cls-9" d="M62.46,88.83a1.49,1.49,0,0,1-1.59-2.51,1.5,1.5,0,0,1,2.05.46A1.48,1.48,0,0,1,62.46,88.83Z"/><path class="cls-9" d="M278.8,163.32a1.49,1.49,0,1,1,.45-2A1.49,1.49,0,0,1,278.8,163.32Z"/><path class="cls-9" d="M107.13,78.7a1.49,1.49,0,1,1,.45-2A1.5,1.5,0,0,1,107.13,78.7Z"/><path class="cls-9" d="M207,192.59a1.48,1.48,0,0,1-2-.46,1.48,1.48,0,1,1,2.5-1.59A1.48,1.48,0,0,1,207,192.59Z"/><path class="cls-9" d="M220.27,140.29c.16-.1-.06-.75-.5-1.44s-.93-1.17-1.09-1.07.06.76.49,1.45S220.1,140.4,220.27,140.29Z"/><path class="cls-9" d="M82.07,22.08a2.29,2.29,0,1,1-1.6-2.81A2.28,2.28,0,0,1,82.07,22.08Z"/><path class="cls-9" d="M37.12,144.77a2.16,2.16,0,1,1-1.51-2.63A2.16,2.16,0,0,1,37.12,144.77Z"/><path class="cls-9" d="M10.89,75.14a2.6,2.6,0,1,1-1.82-3.21A2.6,2.6,0,0,1,10.89,75.14Z"/></g><g class="cls-55"><g class="cls-52"><path class="cls-56" d="M-80.48-287C19.69-702.5,500.06-386.71,543.77-64.35,565.84,98.4,910.69-47,793.76-168.16s331.92-66.93,170.74-232.21c-154.84-158.78-107.61-676.1,1.37-289.58,174.84,620.13,248.89-563.23,265-97C1235-668.1,848.4,87.27,1400.23-263.78,1503.38-329.39,1280,14.88,1280,14.88L1165.29-84.84s-228.11-114.74-241.77-30S599.8,87.27,599.8,87.27L423.57-61.61s-307.35-340.12-504-177.57Z"/></g></g></g></g></g></svg>