<svg id="Capa_1" data-name="Capa 1" xmlns="http://www.w3.org/2000/svg" xmlns:xlink="http://www.w3.org/1999/xlink" viewBox="0 0 295 296"><defs><style>.cls-1{fill:none;}.cls-2{clip-path:url(#clip-path);}.cls-3{clip-path:url(#clip-path-2);}.cls-4{opacity:0.3;}.cls-5{fill:url(#linear-gradient);}.cls-6{clip-path:url(#clip-path-3);}.cls-7{fill:url(#linear-gradient-2);}.cls-8{clip-path:url(#clip-path-4);}.cls-9{fill:#fff;}.cls-10{fill:url(#linear-gradient-3);}.cls-11{fill:url(#linear-gradient-4);}.cls-12{fill:#201932;}.cls-13{clip-path:url(#clip-path-6);}.cls-14{fill:url(#linear-gradient-5);}.cls-15{clip-path:url(#clip-path-7);}.cls-16{fill:url(#linear-gradient-6);}.cls-17{fill:url(#linear-gradient-7);}.cls-18{fill:#eeedeb;}.cls-19{fill:#d8d8d8;}.cls-20{fill:#c8c8c8;}.cls-21{fill:#662d91;}.cls-22{fill:#f0f0f0;}.cls-23{fill:#3c2158;}.cls-24{fill:#58297e;}.cls-25{fill:#2e1d45;}.cls-26{fill:#4a256b;}.cls-27{fill:#f6f6f8;}</style><clipPath id="clip-path"><rect class="cls-1" x="-497.48" y="-639.79" width="207.47" height="228.11" rx="13.76"/></clipPath><clipPath id="clip-path-2"><rect class="cls-1" x="-574.18" y="-696.85" width="971.5" height="558.6"/></clipPath><linearGradient id="linear-gradient" x1="-591.24" y1="-383.92" x2="585.54" y2="-383.92" gradientUnits="userSpaceOnUse"><stop offset="0" stop-color="#2d62ff"/><stop offset="0.21" stop-color="#641f87"/><stop offset="0.48" stop-color="#1e2f8a"/><stop offset="1" stop-color="#0e061e"/></linearGradient><clipPath id="clip-path-3"><rect class="cls-1" x="-528.34" y="18.43" width="265.86" height="292.29" rx="17.63"/></clipPath><linearGradient id="linear-gradient-2" x1="-626.63" y1="303.2" x2="618.25" y2="303.2" gradientUnits="userSpaceOnUse"><stop offset="0" stop-color="#0e061e"/><stop offset="0.09" stop-color="#100725"/><stop offset="0.22" stop-color="#150937"/><stop offset="0.36" stop-color="#1d0d55"/><stop offset="0.43" stop-color="#210f65"/><stop offset="0.82" stop-color="#4f1a7c"/><stop offset="0.99" stop-color="#641f87"/></linearGradient><clipPath id="clip-path-4"><rect class="cls-1" x="-626.63" y="-54.69" width="1244.88" height="715.78"/></clipPath><linearGradient id="linear-gradient-3" x1="-729.66" y1="229.47" x2="190.17" y2="229.47" xlink:href="#linear-gradient"/><linearGradient id="linear-gradient-4" x1="-648.48" y1="346.3" x2="859.44" y2="346.3" xlink:href="#linear-gradient"/><clipPath id="clip-path-6"><rect class="cls-1" x="1.66" y="2.43" width="265.86" height="292.29" rx="17.63"/></clipPath><linearGradient id="linear-gradient-5" x1="-96.63" y1="287.2" x2="1148.25" y2="287.2" xlink:href="#linear-gradient-2"/><clipPath id="clip-path-7"><rect class="cls-1" x="-96.63" y="-70.69" width="1244.88" height="715.78"/></clipPath><linearGradient id="linear-gradient-6" x1="-199.66" y1="213.47" x2="720.17" y2="213.47" xlink:href="#linear-gradient"/><linearGradient id="linear-gradient-7" x1="-118.48" y1="330.3" x2="1389.44" y2="330.3" xlink:href="#linear-gradient"/></defs><title>Mesa de trabajo 24</title><g class="cls-2"><g class="cls-3"><g class="cls-4"><path class="cls-5" d="M-591.24-291.28c78.18-324.27,453.06-77.82,487.17,173.75C-86.85,9.47,182.28-104,91-198.54s259-52.24,133.25-181.22c-120.84-123.92-84-527.63,1.06-226,136.45,484,194.23-439.54,206.8-75.68C435.33-588.69,133.66.8,564.31-273.16c80.49-51.21-93.8,217.46-93.8,217.46L381-133.52S203-223.06,192.29-157-60.35.8-60.35.8L-197.88-115.4S-437.73-380.82-591.24-254Z"/></g></g></g><g class="cls-6"><rect class="cls-7" x="-626.63" y="-54.69" width="1244.88" height="715.78"/><g class="cls-8"><path class="cls-9" d="M12.57,236.35a2.24,2.24,0,1,1-1.66-2.69A2.24,2.24,0,0,1,12.57,236.35Z"/><path class="cls-9" d="M130.94,239.27a1.47,1.47,0,1,1-1.1-1.75A1.47,1.47,0,0,1,130.94,239.27Z"/><path class="cls-9" d="M98,257.83a2,2,0,0,1-3.83-.9,2,2,0,1,1,3.83.9Z"/><path class="cls-9" d="M270.27,251.2a2.37,2.37,0,1,1-1.77-2.86A2.37,2.37,0,0,1,270.27,251.2Z"/><path class="cls-9" d="M218.72,175.51a3.57,3.57,0,1,1-2.64-4.3A3.57,3.57,0,0,1,218.72,175.51Z"/><path class="cls-9" d="M121.44,34c-4-.66-4.25.34-5.42,3.29.43-3.35.58-3.94-3.37-5.37,3.45.47,4.23.86,5.4-3.18C117.43,33,118.22,32.64,121.44,34Z"/><path class="cls-9" d="M165.39,169.35c-4.54-.73-4.76.39-6.07,3.69.48-3.75.64-4.42-3.78-6,3.86.53,4.74,1,6.05-3.57C160.89,168.26,161.78,167.88,165.39,169.35Z"/><path class="cls-9" d="M255.43,113.92c-1.15-.19-1.21.1-1.54.94.12-1,.16-1.13-1-1.54,1,.14,1.2.25,1.54-.9C254.29,113.64,254.51,113.55,255.43,113.92Z"/><path class="cls-9" d="M182.94,253c-5.88-1-6.17.5-7.87,4.77.62-4.85.83-5.72-4.89-7.79,5,.69,6.13,1.26,7.83-4.61C177.11,251.61,178.25,251.12,182.94,253Z"/><path class="cls-9" d="M50.83,151.51c-5.88-.95-6.16.5-7.86,4.77.62-4.86.83-5.72-4.9-7.79,5,.69,6.14,1.26,7.83-4.61C45,150.1,46.15,149.61,50.83,151.51Z"/><path class="cls-9" d="M201.81,87.3c-5.89-1-6.17.5-7.87,4.77.62-4.85.83-5.72-4.9-7.79,5,.69,6.14,1.26,7.83-4.61C196,85.89,197.12,85.4,201.81,87.3Z"/><path class="cls-9" d="M51.4,280.59c-3.45-.56-3.62.29-4.62,2.79.37-2.84.49-3.35-2.87-4.57,2.94.41,3.6.74,4.6-2.7C48,279.76,48.65,279.47,51.4,280.59Z"/><path class="cls-9" d="M10.71,5.44c-3.72-.61-3.9.31-5,3,.4-3.08.53-3.63-3.1-4.94,3.17.44,3.89.8,5-2.92C7,4.54,7.75,4.23,10.71,5.44Z"/><path class="cls-9" d="M288,64.56c-5.88-1-6.17.49-7.87,4.77.63-4.86.83-5.72-4.89-7.8,5,.7,6.14,1.26,7.83-4.61C282.17,63.15,283.32,62.65,288,64.56Z"/><path class="cls-9" d="M252.82,80.75A2.42,2.42,0,1,1,251,77.83,2.41,2.41,0,0,1,252.82,80.75Z"/><path class="cls-9" d="M172.85,200.66a2.24,2.24,0,1,1-1.67-2.69A2.24,2.24,0,0,1,172.85,200.66Z"/><path class="cls-9" d="M183.13,294.76a2.42,2.42,0,1,1-1.79-2.91A2.42,2.42,0,0,1,183.13,294.76Z"/><path class="cls-9" d="M204.27,48.46A3.76,3.76,0,1,1,201.48,44,3.75,3.75,0,0,1,204.27,48.46Z"/><path class="cls-9" d="M205,114.32a2.56,2.56,0,1,1-1.91-3.08A2.58,2.58,0,0,1,205,114.32Z"/><path class="cls-9" d="M177.49,126.71a1.83,1.83,0,1,1-1.36-2.2A1.84,1.84,0,0,1,177.49,126.71Z"/><path class="cls-9" d="M262.76,142.64a1.51,1.51,0,0,1-1.82,1.12,1.51,1.51,0,1,1,.69-2.94A1.51,1.51,0,0,1,262.76,142.64Z"/><path class="cls-9" d="M243.46,212.55a1.52,1.52,0,1,1-1.12-1.81A1.51,1.51,0,0,1,243.46,212.55Z"/><path class="cls-9" d="M106.74,130.12a2.38,2.38,0,1,1-1.77-2.86A2.38,2.38,0,0,1,106.74,130.12Z"/><path class="cls-9" d="M92.58,75.35a1.52,1.52,0,1,1-1.13-1.82A1.51,1.51,0,0,1,92.58,75.35Z"/><path class="cls-9" d="M35.22,117.89a2.38,2.38,0,1,1,2-2.72A2.38,2.38,0,0,1,35.22,117.89Z"/><path class="cls-9" d="M50.59,107.25a1.51,1.51,0,0,1-.46-3,1.51,1.51,0,1,1,.46,3Z"/><path class="cls-9" d="M38.7,181.9a2.37,2.37,0,1,1,.62-3.3A2.37,2.37,0,0,1,38.7,181.9Z"/><path class="cls-9" d="M84.75,183.14a1.51,1.51,0,1,1,.39-2.1A1.51,1.51,0,0,1,84.75,183.14Z"/><path class="cls-9" d="M48.92,50.66a1.51,1.51,0,1,1,.39-2.11A1.51,1.51,0,0,1,48.92,50.66Z"/><path class="cls-9" d="M243.16,25.27a1.51,1.51,0,1,1,.39-2.11A1.51,1.51,0,0,1,243.16,25.27Z"/><path class="cls-9" d="M140.46,89.29a1.51,1.51,0,1,1,.39-2.1A1.51,1.51,0,0,1,140.46,89.29Z"/><path class="cls-9" d="M164.84,23.52a1.51,1.51,0,1,1,.39-2.1A1.49,1.49,0,0,1,164.84,23.52Z"/><path class="cls-9" d="M62.65,250.94a2.33,2.33,0,1,1-1.73-2.81A2.32,2.32,0,0,1,62.65,250.94Z"/><path class="cls-9" d="M253.14,41.08a2.41,2.41,0,1,1-1.72-3A2.42,2.42,0,0,1,253.14,41.08Z"/><path class="cls-9" d="M155.3,204.54a3.37,3.37,0,1,1-2.41-4.11A3.39,3.39,0,0,1,155.3,204.54Z"/><path class="cls-9" d="M223.76,184.64a2.47,2.47,0,1,1-1.76-3A2.47,2.47,0,0,1,223.76,184.64Z"/><path class="cls-9" d="M171.61,144.79c-3.61-.67-3.8.22-4.91,2.83.45-3,.59-3.51-2.9-4.87,3.07.5,3.76.86,4.88-2.73C168,143.84,168.75,143.56,171.61,144.79Z"/><path class="cls-9" d="M182.14,217.14c-1.27-.24-1.34.07-1.73,1,.16-1,.21-1.23-1-1.71,1.08.17,1.32.3,1.72-1C180.88,216.8,181.13,216.7,182.14,217.14Z"/><path class="cls-9" d="M210.77,118.81c-1.26-.23-1.33.08-1.72,1,.16-1,.21-1.23-1-1.71,1.08.18,1.32.31,1.71-1C209.52,118.48,209.77,118.38,210.77,118.81Z"/><path class="cls-9" d="M295.68,251.46c-6.44-1.2-6.79.39-8.77,5,.82-5.32,1.06-6.26-5.18-8.69,5.49.89,6.72,1.54,8.73-4.87C289.31,249.76,290.58,249.25,295.68,251.46Z"/><path class="cls-9" d="M255.3,89.93c-4.08-.76-4.3.25-5.55,3.19.51-3.37.67-4-3.28-5.5,3.47.57,4.25,1,5.52-3.08C251.27,88.86,252.07,88.53,255.3,89.93Z"/><path class="cls-9" d="M155.69,244.09a3.47,3.47,0,1,1-2.48-4.23A3.47,3.47,0,0,1,155.69,244.09Z"/><path class="cls-9" d="M235.55,66.71a4.53,4.53,0,1,1-3.23-5.52A4.52,4.52,0,0,1,235.55,66.71Z"/><path class="cls-9" d="M161.29,289.71a1.61,1.61,0,1,1-1.16-2A1.61,1.61,0,0,1,161.29,289.71Z"/><path class="cls-9" d="M208.32,248.34a2.46,2.46,0,1,1-1.76-3A2.45,2.45,0,0,1,208.32,248.34Z"/><path class="cls-9" d="M215.29,167.2a2,2,0,1,1-1.44-2.45A2,2,0,0,1,215.29,167.2Z"/><path class="cls-9" d="M279.37,214.11a2.61,2.61,0,1,1,2.25-2.93A2.61,2.61,0,0,1,279.37,214.11Z"/><path class="cls-9" d="M296.54,202.82A1.66,1.66,0,1,1,298,201,1.66,1.66,0,0,1,296.54,202.82Z"/><path class="cls-9" d="M281.58,284.55a2.61,2.61,0,1,1,.76-3.62A2.62,2.62,0,0,1,281.58,284.55Z"/><path class="cls-9" d="M296.13,140.59a1.65,1.65,0,0,1-2.29-.49,1.66,1.66,0,1,1,2.78-1.81A1.65,1.65,0,0,1,296.13,140.59Z"/><path class="cls-9" d="M268.62,71.84c.18-.13-.08-.85-.58-1.62s-1.06-1.29-1.24-1.17.08.85.57,1.61S268.43,72,268.62,71.84Z"/></g><g class="cls-8"><g class="cls-4"><path class="cls-10" d="M-626.65,384.32C-720.83,362.56-484.53-233-138.95,353S306.35,12.69,33.16,82.5-383.44,52.77-215.43-89.3H-462.71s42.38,23.19-173.43,226.71S-626.65,384.32-626.65,384.32Z"/><path class="cls-11" d="M-648.48,465C-548.31,49.5-67.94,365.29-24.23,687.65-2.16,850.4,342.69,705,225.76,583.84S557.68,516.91,396.5,351.63c-154.84-158.78-107.61-676.1,1.37-289.58,174.84,620.13,248.89-563.23,265-97C667,83.9,280.4,839.27,832.23,488.22,935.38,422.61,712,766.88,712,766.88L597.29,667.16s-228.11-114.74-241.77-30S31.8,839.27,31.8,839.27L-144.43,690.39s-307.35-340.12-504-177.57Z"/></g></g></g><rect class="cls-12" x="1.66" y="2.43" width="265.86" height="292.29" rx="17.63"/><g class="cls-13"><rect class="cls-14" x="-96.63" y="-70.69" width="1244.88" height="715.78"/><g class="cls-15"><path class="cls-9" d="M223.71,175.11a2.82,2.82,0,1,1-2.08-3.41A2.81,2.81,0,0,1,223.71,175.11Z"/><path class="cls-9" d="M131.31,298.27c-4.23-.69-4.44.36-5.66,3.43.45-3.49.6-4.11-3.51-5.61,3.59.5,4.41.91,5.63-3.31C127.12,297.26,127.94,296.9,131.31,298.27Z"/><path class="cls-9" d="M176.32,266.92c-1.48-.24-1.56.13-2,1.21.16-1.23.21-1.45-1.23-2,1.26.18,1.55.32,2-1.16C174.85,266.57,175.14,266.44,176.32,266.92Z"/><path class="cls-9" d="M227.52,232.05c-4.78-.77-5,.4-6.4,3.87.51-3.94.68-4.64-4-6.33,4.07.57,5,1,6.37-3.74C222.78,230.9,223.71,230.51,227.52,232.05Z"/><path class="cls-9" d="M203.86,205.48a5.28,5.28,0,1,1-3.91-6.36A5.28,5.28,0,0,1,203.86,205.48Z"/><path class="cls-9" d="M276.5,290.09a1.94,1.94,0,1,1,.5-2.69A1.93,1.93,0,0,1,276.5,290.09Z"/><path class="cls-9" d="M242.58,210.59c.21-.15-.1-1-.71-1.87s-1.27-1.48-1.48-1.34.12,1,.71,1.87S242.37,210.73,242.58,210.59Z"/></g><g class="cls-15"><g class="cls-4"><path class="cls-16" d="M-96.65,368.32C-190.83,346.56,45.47-249,391.05,337S836.35-3.31,563.16,66.5,146.56,36.77,314.57-105.3H67.29s42.38,23.19-173.43,226.71S-96.65,368.32-96.65,368.32Z"/><path class="cls-17" d="M-118.48,449C-18.31,33.5,462.06,349.29,505.77,671.65c22.07,162.75,366.92,17.36,250-103.81s331.92-66.93,170.74-232.21c-154.84-158.78-107.61-676.1,1.37-289.58,174.84,620.13,248.89-563.23,265-97C1197,67.9,810.4,823.27,1362.23,472.22,1465.38,406.61,1242,750.88,1242,750.88l-114.74-99.72s-228.11-114.74-241.77-30S561.8,823.27,561.8,823.27L385.57,674.39s-307.35-340.12-504-177.57Z"/></g></g></g><rect class="cls-9" x="67.06" y="96.84" width="227.56" height="146.1" rx="4.12"/><rect class="cls-12" x="74.09" y="103.86" width="213.51" height="103.68"/><path class="cls-18" d="M175,225.86a5.9,5.9,0,1,0,5.89-5.9A5.89,5.89,0,0,0,175,225.86Z"/><polygon class="cls-9" points="146.71 261.71 214.98 261.71 207 242.93 154.69 242.93 146.71 261.71"/><polygon class="cls-19" points="152.7 247.61 154.69 242.93 207 242.93 208.99 247.61 152.7 247.61"/><rect class="cls-9" x="140.95" y="259.05" width="79.8" height="3.55"/><path class="cls-9" d="M91.66,127.24H197.47a0,0,0,0,1,0,0V196A2.46,2.46,0,0,1,195,198.5H94.12A2.46,2.46,0,0,1,91.66,196v-68.8A0,0,0,0,1,91.66,127.24Z"/><rect class="cls-12" x="114.33" y="115.36" width="60.46" height="95.02" transform="translate(307.43 18.31) rotate(90)"/><rect class="cls-18" x="144.56" y="132.45" width="47.51" height="60.66"/><path class="cls-20" d="M94.12,119.68H195a2.46,2.46,0,0,1,2.46,2.46v5.1a0,0,0,0,1,0,0H91.66a0,0,0,0,1,0,0v-5.1A2.46,2.46,0,0,1,94.12,119.68Z"/><path class="cls-21" d="M169,148.36a4.59,4.59,0,1,0,4.59-4.59A4.58,4.58,0,0,0,169,148.36Z"/><path class="cls-21" d="M99.73,123.32A1.34,1.34,0,1,1,98.39,122,1.34,1.34,0,0,1,99.73,123.32Z"/><path class="cls-22" d="M105.46,123.32a1.34,1.34,0,1,1-1.34-1.34A1.34,1.34,0,0,1,105.46,123.32Z"/><path class="cls-22" d="M111.19,123.32a1.34,1.34,0,1,1-1.34-1.34A1.34,1.34,0,0,1,111.19,123.32Z"/><polygon class="cls-23" points="123.07 155.97 108 193.1 138.15 193.1 123.07 155.97"/><polygon class="cls-20" points="166.05 155.97 181.13 193.1 150.98 193.1 166.05 155.97"/><polygon class="cls-24" points="144.56 140.16 123.07 193.1 166.05 193.1 144.56 140.16"/><polygon class="cls-9" points="144.56 193.1 166.05 193.1 144.56 140.16 144.56 193.1"/><path class="cls-9" d="M209.33,127h58.42a0,0,0,0,1,0,0v49.49a2.46,2.46,0,0,1-2.46,2.46h-53.5a2.46,2.46,0,0,1-2.46-2.46V127A0,0,0,0,1,209.33,127Z"/><rect class="cls-25" x="217.96" y="129.21" width="41.16" height="47.63" transform="translate(391.57 -85.51) rotate(90)"/><path class="cls-20" d="M211.79,119.49h53.5a2.46,2.46,0,0,1,2.46,2.46V127a0,0,0,0,1,0,0H209.33a0,0,0,0,1,0,0V122A2.46,2.46,0,0,1,211.79,119.49Z"/><path class="cls-21" d="M217.4,123.13a1.34,1.34,0,1,1-1.34-1.34A1.34,1.34,0,0,1,217.4,123.13Z"/><path class="cls-22" d="M223.13,123.13a1.34,1.34,0,1,1-1.34-1.34A1.34,1.34,0,0,1,223.13,123.13Z"/><path class="cls-22" d="M228.86,123.13a1.34,1.34,0,1,1-1.34-1.34A1.34,1.34,0,0,1,228.86,123.13Z"/><rect class="cls-9" x="218.35" y="136.07" width="6" height="1.55"/><rect class="cls-21" x="222.88" y="140.16" width="20.33" height="1.55"/><rect class="cls-21" x="222.88" y="144.26" width="10.17" height="1.55"/><rect class="cls-21" x="227.96" y="148.36" width="7.62" height="1.55"/><rect class="cls-9" x="218.35" y="154.43" width="6" height="1.55"/><rect class="cls-21" x="222.88" y="158.52" width="20.33" height="1.55"/><rect class="cls-21" x="222.88" y="162.62" width="10.17" height="1.55"/><rect class="cls-21" x="227.96" y="166.71" width="7.62" height="1.55"/><path class="cls-9" d="M126.6,189.59H28.34A4.44,4.44,0,0,0,23.9,194V256H131V194A4.44,4.44,0,0,0,126.6,189.59Z"/><path class="cls-19" d="M130.1,261.76H24.84A5.8,5.8,0,0,1,19,256H135.9A5.8,5.8,0,0,1,130.1,261.76Z"/><rect class="cls-21" x="28.34" y="194.03" width="98.26" height="57.49"/><rect class="cls-22" x="32.78" y="198.48" width="89.37" height="48.6"/><rect class="cls-26" x="41.69" y="205.41" width="26.96" height="26.96" rx="2"/><path class="cls-21" d="M43.69,205.41h23a2,2,0,0,1,2,2V209a0,0,0,0,1,0,0h-27a0,0,0,0,1,0,0v-1.55A2,2,0,0,1,43.69,205.41Z"/><rect class="cls-25" x="117.82" y="198.47" width="4.33" height="48.62"/><rect class="cls-9" x="58.88" y="213.19" width="26.96" height="26.96" rx="2"/><path class="cls-23" d="M60.88,213.19h23a2,2,0,0,1,2,2v1.55a0,0,0,0,1,0,0h-27a0,0,0,0,1,0,0v-1.55A2,2,0,0,1,60.88,213.19Z"/><rect class="cls-9" x="46.94" y="50.59" width="39.08" height="73.01" rx="2.47"/><rect class="cls-25" x="50.03" y="54.61" width="32.9" height="62.51"/><rect class="cls-9" x="50.03" y="54.61" width="32.9" height="3.04"/><path class="cls-21" d="M69.25,121.86H63.7a1.39,1.39,0,1,1,0-2.78h5.55a1.39,1.39,0,0,1,0,2.78Zm-5.55-2.27a.88.88,0,1,0,0,1.75h5.55a.88.88,0,1,0,0-1.75Z"/><path class="cls-21" d="M70,53.12h-7.1a.52.52,0,1,1,0-1H70a.52.52,0,0,1,0,1Z"/><path class="cls-21" d="M73.06,53.12h-.51a.52.52,0,0,1,0-1h.51a.52.52,0,1,1,0,1Z"/><path class="cls-21" d="M52.24,56.13a.7.7,0,1,1-.69-.7A.69.69,0,0,1,52.24,56.13Z"/><path class="cls-20" d="M54.58,56.13a.7.7,0,1,1-.69-.7A.69.69,0,0,1,54.58,56.13Z"/><path class="cls-20" d="M56.92,56.13a.7.7,0,1,1-.7-.7A.69.69,0,0,1,56.92,56.13Z"/><rect class="cls-20" x="77.85" y="55.64" width="3.86" height="0.98"/><rect class="cls-20" x="75.04" y="55.64" width="1.32" height="0.98"/><rect class="cls-9" x="53.94" y="70.85" width="6" height="1.55"/><rect class="cls-21" x="58.47" y="74.95" width="20.33" height="1.55"/><rect class="cls-21" x="58.47" y="79.04" width="10.17" height="1.55"/><rect class="cls-21" x="63.56" y="83.14" width="7.62" height="1.55"/><rect class="cls-9" x="53.94" y="93.72" width="6" height="1.55"/><rect class="cls-21" x="58.47" y="97.81" width="20.33" height="1.55"/><rect class="cls-21" x="58.47" y="101.91" width="10.17" height="1.55"/><rect class="cls-21" x="63.56" y="106" width="7.62" height="1.55"/><rect class="cls-12" x="124.15" y="51.35" width="5.03" height="8.45" rx="1.24" transform="translate(-2.2 105.84) rotate(-45)"/><rect class="cls-21" x="122.44" y="54.9" width="8.45" height="1.36" transform="translate(-2.2 105.84) rotate(-45)"/><rect class="cls-21" x="122.49" y="55.7" width="9.97" height="1.36" transform="translate(77.2 -73.62) rotate(45)"/><rect class="cls-9" x="127.87" y="45.35" width="12.16" height="5.89" transform="translate(5.09 108.86) rotate(-45)"/><rect class="cls-9" x="113.3" y="59.92" width="12.16" height="5.89" transform="translate(-9.48 102.83) rotate(-45)"/><path class="cls-9" d="M134.23,58.43a3.84,3.84,0,0,0-4.71,4.72Z"/><rect class="cls-9" x="209.84" y="55.98" width="46.65" height="27.52" rx="1.71"/><rect class="cls-21" x="215.2" y="61.71" width="6.08" height="2.49"/><rect class="cls-21" x="224.96" y="61.71" width="9.76" height="2.49"/><rect class="cls-20" x="241.38" y="67.25" width="9.76" height="2.49"/><rect class="cls-21" x="238.39" y="61.71" width="12.75" height="2.49"/><path class="cls-20" d="M222.57,73.74a4,4,0,0,1-5.5,5.49,3.21,3.21,0,0,1-1.34-1.34,4,4,0,0,1,5.49-5.49A3.17,3.17,0,0,1,222.57,73.74Z"/><path class="cls-24" d="M228.38,73.74a4,4,0,0,1-5.5,5.49,3.21,3.21,0,0,1-1.34-1.34A4,4,0,0,1,227,72.4,3.17,3.17,0,0,1,228.38,73.74Z"/><path class="cls-9" d="M98,67.46h-22a.87.87,0,0,0-.88.88V71H73.34v5h1.85v2.63a.88.88,0,0,0,.88.88H98a.88.88,0,0,0,.88-.88V68.34A.87.87,0,0,0,98,67.46Z"/><rect class="cls-9" x="83.39" y="63.94" width="7.32" height="19.02" transform="translate(160.5 -13.59) rotate(90)"/><polygon class="cls-21" points="93.84 70.97 88.86 75.94 95.39 75.94 95.39 70.97 93.84 70.97"/><rect class="cls-21" x="153.85" y="84.17" width="48.69" height="33.25" rx="2.33"/><polygon class="cls-21" points="178.81 113.07 171.75 123.57 184.63 115.75 178.81 113.07"/><path class="cls-27" d="M168.12,100.79a2.32,2.32,0,1,1-2.32-2.32A2.32,2.32,0,0,1,168.12,100.79Z"/><path class="cls-27" d="M180.51,100.79a2.32,2.32,0,1,1-2.32-2.32A2.32,2.32,0,0,1,180.51,100.79Z"/><circle class="cls-27" cx="190.58" cy="100.79" r="2.32"/></svg>