<svg id="Capa_1" data-name="Capa 1" xmlns="http://www.w3.org/2000/svg" xmlns:xlink="http://www.w3.org/1999/xlink" viewBox="0 0 413 736"><defs><style>.cls-1{fill:none;}.cls-2{clip-path:url(#clip-path);}.cls-3{clip-path:url(#clip-path-2);}.cls-4{clip-path:url(#clip-path-3);}.cls-5{opacity:0.3;}.cls-6{fill:url(#linear-gradient);}.cls-7{clip-path:url(#clip-path-4);}.cls-8{clip-path:url(#clip-path-5);}.cls-9{clip-path:url(#clip-path-6);}.cls-10{opacity:0.4;}.cls-11{fill:url(#linear-gradient-2);}.cls-12{clip-path:url(#clip-path-8);}.cls-13{fill:#0a0a0c;}.cls-14{fill:url(#Degradado_sin_nombre_250);}.cls-15{clip-path:url(#clip-path-9);}</style><clipPath id="clip-path"><rect class="cls-1" x="-547.51" y="-851.78" width="414" height="736"/></clipPath><clipPath id="clip-path-2"><path class="cls-1" d="M-556.31-383.28c161,335.74,559.64,174.51,453.51-44.63-85.8-138.32-166.89-117.46-240.37-171.83-59.33-46-99.46-136.68-157.34-126.48C-562.06-708.54-651.46-576.87-556.31-383.28Z"/></clipPath><clipPath id="clip-path-3"><rect class="cls-1" x="-750.9" y="-1251.45" width="786" height="1367" transform="matrix(0.09, -1, 1, 0.09, 239.62, -873.95)"/></clipPath><linearGradient id="linear-gradient" x1="-759.55" y1="-628.66" x2="896.37" y2="-628.66" gradientTransform="translate(-366.18 109.95) rotate(5.1)" gradientUnits="userSpaceOnUse"><stop offset="0" stop-color="#2d62ff"/><stop offset="0.21" stop-color="#8f5c9b"/><stop offset="0.48" stop-color="#1e2f8a"/><stop offset="1" stop-color="#0e061e"/></linearGradient><clipPath id="clip-path-4"><rect class="cls-1" x="5.49" y="-816.78" width="414" height="736"/></clipPath><clipPath id="clip-path-5"><path class="cls-1" d="M-3.31-348.28c161,335.74,559.64,174.51,453.51-44.63C364.4-531.23,283.31-510.37,209.83-564.74c-59.33-46-99.46-136.68-157.34-126.48C-9.06-673.54-98.46-541.87-3.31-348.28Z"/></clipPath><clipPath id="clip-path-6"><rect class="cls-1" x="-197.9" y="-1216.45" width="786" height="1367" transform="matrix(0.09, -1, 1, 0.09, 708.6, -291.25)"/></clipPath><linearGradient id="linear-gradient-2" x1="-205.6" y1="-642.97" x2="1450.31" y2="-642.97" xlink:href="#linear-gradient"/><clipPath id="clip-path-8"><rect class="cls-1" x="-547.51" y="-115.78" width="414" height="736"/></clipPath><linearGradient id="Degradado_sin_nombre_250" x1="207.74" y1="736.22" x2="207.74" y2="0.22" gradientUnits="userSpaceOnUse"><stop offset="0" stop-color="#ff2ccf"/><stop offset="0.03" stop-color="#e72bd5"/><stop offset="0.14" stop-color="#982ae7"/><stop offset="0.23" stop-color="#5e28f4"/><stop offset="0.3" stop-color="#3b27fc"/><stop offset="0.33" stop-color="#2d27ff"/><stop offset="0.48" stop-color="#1c1ea2"/><stop offset="0.61" stop-color="#0f175e"/><stop offset="0.69" stop-color="#071334"/><stop offset="0.74" stop-color="#041124"/></linearGradient><clipPath id="clip-path-9"><rect class="cls-1" x="0.49" y="0.22" width="414" height="736"/></clipPath></defs><title>Mesa de trabajo 27</title><g class="cls-2"><g class="cls-3"><g class="cls-4"><g class="cls-5"><path class="cls-6" d="M-1078.39-453.86c150.12-444.69,644.71-52.4,661.05,304.45,8.25,180.15,399.63,54.8,283.56-89.15S235.79-279.37,75.63-475.87c-153.86-188.78-51.7-750,29.76-316.59,130.7,695.33,327.2-591.74,299.3-80.21C397.58-742.3-99,46.16,538.88-283.94,658.09-345.64,380.21,9.11,380.21,9.11L264.45-111.16S26.15-258.92,3-167.63-370.86,21.89-370.86,21.89l-178.22-180s-303-402-534-243.42Z"/></g></g></g></g><g class="cls-7"><g class="cls-8"><g class="cls-9"><g class="cls-5"><path class="cls-11" d="M-525.39-418.86c150.12-444.69,644.71-52.4,661.05,304.45,8.25,180.15,399.63,54.8,283.56-89.15s369.57-40.81,209.41-237.31c-153.86-188.78-51.7-750,29.76-316.59,130.7,695.33,327.2-591.74,299.3-80.21C950.58-707.3,454,81.16,1091.88-248.94c119.21-61.7-158.67,293.05-158.67,293.05L817.45-76.16S579.15-223.92,556-132.63,182.14,56.89,182.14,56.89L3.92-123.15s-303-402-534-243.42Z"/></g></g></g></g><g class="cls-12"><path class="cls-13" d="M334.49,517.74V476.92h-27V514.6q-4.49-.51-9-1v-19.4h-14V476.92h-24v-15h-14v-20.3h-27v9h-20v54.1q-14-1-28-1.9V476.92h-27V452.11h-27v13.54h-27v33.17l-7-.25V448.36h-27v49.43l-5-.12V441.59h-27v55.58l-8-.1V430.31h-27v11.28h-25v55.34l-5,0V426.55h-27v9.78h-27v12h-27v50.31l-3,.1V419h-25V392.72h-27V410h-25v92.53l-6,.39V458.88h-27v45.94l-6,.46V476.92h-27v30.57q-8.5.74-17,1.54V448.36h-53v66.18q-6.51.75-13,1.53V458.88h-27v28.57h-27v35.73q-29.87,4.29-59,9.28V475.72h-8v-64h-7v-40h-2v40h-8V536.91l-4,.75V460.72h-6v-23h-3v23h-6v79.79c-63.41,12.34-123.52,27.32-179,45V710.72h1366v-124C575.87,555.84,458.34,532.76,334.49,517.74Zm-402-20.46v-.06h4.15Z"/></g><rect class="cls-14" x="0.49" y="0.22" width="414.5" height="736"/><g class="cls-15"><path class="cls-13" d="M76.92,418.54c6.9,6.17,7.58,7.16,1,16.17a.4.4,0,0,1-.71-.33c.71-2.92,1.27-7.8-2.67-8.41h0c.11-.18,2.3-7.2,2.36-7.43Z"/><path class="cls-13" d="M68.08,377.84c-20.63,15.39-6,49.24-6,49.24h12S88.71,393.23,68.08,377.84Zm0,37.88a3.55,3.55,0,1,1,3.26-3.54A3.56,3.56,0,0,1,68.08,415.72Zm.1-12H68a5.72,5.72,0,0,1,0-11.44h.2a5.72,5.72,0,0,1,0,11.44Z"/><path class="cls-13" d="M59.2,418.54c-6.9,6.17-7.58,7.16-1,16.17a.4.4,0,0,0,.71-.33c-.71-2.92-1.27-7.8,2.67-8.41h0c-.11-.18-2.3-7.2-2.37-7.43Z"/><path class="cls-13" d="M72.52,429.65H63.64s-3.36,3.36-.89,7.21c0,0,.49-3.16,1.18-2.77-.79,1.78,1.19,5.53,1.19,5.53s0-2.27.59-2.37c0,2,2.49,21.88,2.78,22.47-1,0,2-20.5,2-22.47.59.1.59,2.37.59,2.37s2-3.75,1.18-5.53c.69-.39,1.19,2.77,1.19,2.77C75.88,433,72.52,429.65,72.52,429.65Z"/><path class="cls-13" d="M61.57,426c-6-3.46-7.7,1.48-7.72,1.43-.48-2.22-1-3.31,5.35-8.93Z"/><path class="cls-13" d="M74.52,426c6-3.46,7.7,1.48,7.71,1.42.48-2.21,1-3.3-5.34-8.92Z"/><path class="cls-13" d="M882.49,633.74V592.92h-27V630.6q-4.49-.51-9-1v-19.4h-14V592.92h-24v-15h-14v-20.3h-27v9h-20v54.1q-14-1-28-1.9V592.92h-27V568.11h-27v13.54h-27v33.17l-7-.25V564.36h-27v49.43l-5-.12V557.59h-27v55.58l-8-.1V546.31h-27v11.28h-25v55.34l-5,0V542.55h-27v9.78h-27v12h-27v50.31l-3,.1V535h-25V508.72h-27V526h-25v92.53l-6,.39V574.88h-27v45.94l-6,.46V592.92h-27v30.57q-8.5.74-17,1.54V564.36h-53v66.18q-6.51.75-13,1.53V574.88h-27v28.57h-27v35.73q-29.87,4.29-59,9.28V591.72h-8v-64h-7v-40h-2v40h-8V652.91l-4,.75V576.72h-6v-23h-3v23h-6v79.79c-63.41,12.34-123.52,27.32-179,45V826.72h1366v-124C1123.87,671.84,1006.34,648.76,882.49,633.74Zm-402-20.46v-.06h4.15Z"/></g></svg>