<svg id="Capa_1" data-name="Capa 1" xmlns="http://www.w3.org/2000/svg" xmlns:xlink="http://www.w3.org/1999/xlink" viewBox="0 0 472 827"><defs><style>.cls-1{fill:none;}.cls-2{fill:#efefef;}.cls-3{clip-path:url(#clip-path);}.cls-4{fill:url(#linear-gradient);}.cls-5{clip-path:url(#clip-path-2);}.cls-6{fill:#fff;}.cls-7{opacity:0.3;}.cls-8{fill:url(#linear-gradient-2);}.cls-9{clip-path:url(#clip-path-4);}.cls-10{fill:url(#linear-gradient-3);}.cls-11{clip-path:url(#clip-path-5);}.cls-12{fill:url(#linear-gradient-4);}.cls-13{fill:url(#linear-gradient-5);}</style><clipPath id="clip-path"><rect class="cls-1" x="-1130.71" y="135.09" width="291.94" height="320.97" rx="19.35"/></clipPath><linearGradient id="linear-gradient" x1="-1238.64" y1="447.8" x2="128.36" y2="447.8" gradientUnits="userSpaceOnUse"><stop offset="0" stop-color="#0e061e"/><stop offset="0.09" stop-color="#100725"/><stop offset="0.22" stop-color="#150937"/><stop offset="0.36" stop-color="#1d0d55"/><stop offset="0.43" stop-color="#210f65"/><stop offset="0.82" stop-color="#4f1a7c"/><stop offset="0.99" stop-color="#641f87"/></linearGradient><clipPath id="clip-path-2"><rect class="cls-1" x="-1238.64" y="54.8" width="1367" height="786"/></clipPath><linearGradient id="linear-gradient-2" x1="-1262.64" y1="495.12" x2="393.21" y2="495.12" gradientUnits="userSpaceOnUse"><stop offset="0" stop-color="#2d62ff"/><stop offset="0.21" stop-color="#641f87"/><stop offset="0.48" stop-color="#1e2f8a"/><stop offset="1" stop-color="#0e061e"/></linearGradient><clipPath id="clip-path-4"><rect class="cls-1" x="95.29" y="-468.91" width="291.94" height="320.97" rx="19.35"/></clipPath><linearGradient id="linear-gradient-3" x1="-12.64" y1="-156.2" x2="1354.36" y2="-156.2" xlink:href="#linear-gradient"/><clipPath id="clip-path-5"><rect class="cls-1" x="-12.64" y="-549.2" width="1367" height="786"/></clipPath><linearGradient id="linear-gradient-4" x1="-125.78" y1="-237.16" x2="884.29" y2="-237.16" xlink:href="#linear-gradient-2"/><linearGradient id="linear-gradient-5" x1="-36.64" y1="-108.88" x2="1619.21" y2="-108.88" xlink:href="#linear-gradient-2"/></defs><title>Mesa de trabajo 9</title><path class="cls-2" d="M472,8.72c-104,326-388-58-472,216,0,0,2,118,164,166s22,112,38,168,14,54,142,126c82,62,34,52,56,102s72,26.82,72,26.82Z"/><g class="cls-3"><rect class="cls-4" x="-1238.64" y="54.8" width="1367" height="786"/><g class="cls-5"><path class="cls-6" d="M160.32,244.12a2.36,2.36,0,1,1-3.12-1.19A2.36,2.36,0,0,1,160.32,244.12Z"/><path class="cls-6" d="M109.31,315.11a2.07,2.07,0,1,1-2.73-1.06A2.06,2.06,0,0,1,109.31,315.11Z"/><path class="cls-6" d="M182.37,285.73a4.08,4.08,0,1,1-5.37-2.08A4.07,4.07,0,0,1,182.37,285.73Z"/><path class="cls-6" d="M154.38,331.79a4.08,4.08,0,1,1-5.37-2.08A4.07,4.07,0,0,1,154.38,331.79Z"/><path class="cls-6" d="M136.36,417.17a3,3,0,1,1-2.15-3.64A3,3,0,0,1,136.36,417.17Z"/><path class="cls-6" d="M128.31,478.23a3,3,0,1,1-2.15-3.64A3,3,0,0,1,128.31,478.23Z"/><path class="cls-6" d="M115.69,559.88a3,3,0,1,1-2.15-3.64A3,3,0,0,1,115.69,559.88Z"/><path class="cls-6" d="M70.61,501a3,3,0,1,1-2.15-3.64A3,3,0,0,1,70.61,501Z"/><path class="cls-6" d="M80.15,611.28A3,3,0,1,1,78,607.64,3,3,0,0,1,80.15,611.28Z"/><path class="cls-6" d="M7.74,404.72a4.48,4.48,0,1,1-3.21-5.47A4.49,4.49,0,0,1,7.74,404.72Z"/><path class="cls-6" d="M107.56,673.11c-7.36-1.34-7.76.47-10,5.8.91-6.09,1.19-7.17-6-9.91,6.27,1,7.68,1.73,10-5.6C100.28,671.2,101.73,670.61,107.56,673.11Z"/><path class="cls-6" d="M22.82,587.12c-3.7-.67-3.9.24-5,2.91.46-3,.6-3.59-3-5,3.14.5,3.85.87,5-2.81C19.16,586.16,19.89,585.86,22.82,587.12Z"/><path class="cls-6" d="M8.9,558.19c-1.45-.27-1.53.09-2,1.14.18-1.2.23-1.41-1.17-2,1.23.19,1.51.34,2-1.1C7.46,557.81,7.75,557.69,8.9,558.19Z"/><path class="cls-6" d="M48.58,686.54c-1.45-.26-1.53.09-2,1.14.18-1.2.24-1.41-1.17-1.95,1.24.2,1.51.34,2-1.1C47.15,686.17,47.43,686.05,48.58,686.54Z"/><path class="cls-6" d="M55.36,328.28c-1.45-.26-1.53.09-2,1.14.18-1.19.24-1.41-1.16-1.95,1.23.2,1.5.34,2-1.1C53.93,327.91,54.21,327.79,55.36,328.28Z"/><path class="cls-6" d="M171.76,336.91c-1.44-.27-1.52.09-2,1.14.18-1.2.23-1.41-1.17-1.95,1.23.19,1.51.34,2-1.1C170.33,336.53,170.62,336.41,171.76,336.91Z"/><path class="cls-6" d="M144,372.87c-7.36-1.34-7.75.47-10,5.79.9-6.08,1.18-7.16-6-9.9,6.27,1,7.68,1.73,9.95-5.6C136.67,371,138.12,370.36,144,372.87Z"/><path class="cls-6" d="M97.47,267.1c-7.36-1.34-7.76.47-10,5.8.91-6.09,1.19-7.17-6-9.91,6.27,1,7.68,1.73,10-5.6C90.19,265.19,91.64,264.6,97.47,267.1Z"/><path class="cls-6" d="M52.9,286.56a3,3,0,1,1-2.18-3.7A3,3,0,0,1,52.9,286.56Z"/><path class="cls-6" d="M63.85,364.53a1.9,1.9,0,1,1-1.37-2.31A1.88,1.88,0,0,1,63.85,364.53Z"/><path class="cls-6" d="M37.89,451.84a1.89,1.89,0,0,1-2.31,1.36,1.89,1.89,0,1,1,2.31-1.36Z"/><path class="cls-6" d="M61.74,563.54A2.93,2.93,0,1,1,59.63,560,2.92,2.92,0,0,1,61.74,563.54Z"/><path class="cls-6" d="M13.11,638a1.9,1.9,0,1,1,.54-2.64A1.91,1.91,0,0,1,13.11,638Z"/><path class="cls-6" d="M42.13,216.66a1.9,1.9,0,1,1,.54-2.63A1.9,1.9,0,0,1,42.13,216.66Z"/><path class="cls-6" d="M64.74,672.31a1.88,1.88,0,0,1-2.62-.55,1.9,1.9,0,1,1,3.17-2.08A1.89,1.89,0,0,1,64.74,672.31Z"/><path class="cls-6" d="M108.81,264.44a1.39,1.39,0,1,1-1.84-.7A1.4,1.4,0,0,1,108.81,264.44Z"/><path class="cls-6" d="M79,306.39a1.22,1.22,0,1,1-1.61-.62A1.22,1.22,0,0,1,79,306.39Z"/><path class="cls-6" d="M121.92,288.87a2.41,2.41,0,1,1-3.17-1.21A2.4,2.4,0,0,1,121.92,288.87Z"/><path class="cls-6" d="M105.57,316.08a2.4,2.4,0,1,1-3.16-1.21A2.39,2.39,0,0,1,105.57,316.08Z"/><path class="cls-6" d="M95.22,366.4A1.75,1.75,0,1,1,94,364.26,1.76,1.76,0,0,1,95.22,366.4Z"/><path class="cls-6" d="M90.67,402.37a1.76,1.76,0,1,1-1.28-2.13A1.76,1.76,0,0,1,90.67,402.37Z"/><path class="cls-6" d="M83.48,450.48a1.75,1.75,0,1,1-1.27-2.13A1.76,1.76,0,0,1,83.48,450.48Z"/><path class="cls-6" d="M56.76,416a1.76,1.76,0,1,1-1.28-2.14A1.76,1.76,0,0,1,56.76,416Z"/><path class="cls-6" d="M62.71,480.85a1.75,1.75,0,1,1-1.28-2.13A1.76,1.76,0,0,1,62.71,480.85Z"/><path class="cls-6" d="M19.45,359.45a2.64,2.64,0,1,1-1.9-3.21A2.63,2.63,0,0,1,19.45,359.45Z"/><path class="cls-6" d="M79,517.17c-4.34-.76-4.57.31-5.87,3.45.51-3.59.67-4.22-3.54-5.82,3.7.57,4.53,1,5.84-3.32C74.74,516.07,75.59,515.72,79,517.17Z"/><path class="cls-6" d="M28.88,466.8c-2.17-.38-2.29.15-2.94,1.73.26-1.8.34-2.12-1.78-2.92,1.86.29,2.27.5,2.93-1.67C26.73,466.25,27.15,466.07,28.88,466.8Z"/><path class="cls-6" d="M20.6,449.81c-.85-.15-.9.06-1.16.67.11-.7.14-.83-.69-1.14.73.11.89.2,1.15-.65C19.75,449.59,19.92,449.52,20.6,449.81Z"/><path class="cls-6" d="M44.35,525.26c-.85-.15-.9.06-1.16.68.11-.71.14-.83-.69-1.15.73.12.89.2,1.15-.65C43.5,525,43.67,525,44.35,525.26Z"/><path class="cls-6" d="M47.26,314.31c-.85-.15-.89.06-1.15.67.1-.7.13-.83-.69-1.14.72.11.89.2,1.14-.65C46.42,314.09,46.59,314,47.26,314.31Z"/><path class="cls-6" d="M115.83,319c-.86-.15-.9.06-1.16.68.1-.7.14-.83-.69-1.14.72.11.89.19,1.15-.66C115,318.82,115.15,318.75,115.83,319Z"/><path class="cls-6" d="M7.9,294.05c-4.34-.77-4.57.3-5.87,3.44.51-3.58.67-4.22-3.54-5.81,3.7.56,4.53,1,5.84-3.33C3.6,293,4.45,292.59,7.9,294.05Z"/><path class="cls-6" d="M99.56,340.29c-4.34-.77-4.57.3-5.87,3.44.52-3.58.68-4.22-3.53-5.81,3.69.56,4.52,1,5.84-3.33C95.27,339.18,96.12,338.83,99.56,340.29Z"/><path class="cls-6" d="M71.87,278.16c-4.33-.77-4.56.3-5.87,3.44.52-3.58.68-4.22-3.53-5.82,3.7.57,4.53,1,5.84-3.32C67.58,277.05,68.43,276.7,71.87,278.16Z"/><path class="cls-6" d="M45.69,289.75a1.78,1.78,0,0,1-2.17,1.3,1.79,1.79,0,1,1,2.17-1.3Z"/><path class="cls-6" d="M10.14,265.36a2.78,2.78,0,1,1-2-3.37A2.78,2.78,0,0,1,10.14,265.36Z"/><path class="cls-6" d="M9.94,314.06a1.9,1.9,0,1,1-1.38-2.3A1.91,1.91,0,0,1,9.94,314.06Z"/><path class="cls-6" d="M52.37,335.62a1.11,1.11,0,0,1-1.36.81,1.11,1.11,0,1,1,.55-2.16A1.11,1.11,0,0,1,52.37,335.62Z"/><path class="cls-6" d="M37.35,387.11a1.1,1.1,0,0,1-1.36.8,1.11,1.11,0,1,1,1.36-.8Z"/><path class="cls-6" d="M51.73,452.8a1.73,1.73,0,1,1-1.25-2.1A1.73,1.73,0,0,1,51.73,452.8Z"/><path class="cls-6" d="M23.32,496.79a1.12,1.12,0,1,1,.31-1.55A1.12,1.12,0,0,1,23.32,496.79Z"/><path class="cls-6" d="M39.14,248.62a1.12,1.12,0,1,1,.31-1.55A1.11,1.11,0,0,1,39.14,248.62Z"/><path class="cls-6" d="M53.82,516.84a1.12,1.12,0,1,1,.31-1.56A1.12,1.12,0,0,1,53.82,516.84Z"/><path class="cls-6" d="M.2,540.06a1.13,1.13,0,0,1-1.55-.31A1.13,1.13,0,0,1-1,538.2a1.12,1.12,0,0,1,1.55.31A1.11,1.11,0,0,1,.2,540.06Z"/><path class="cls-6" d="M9.33,500.42c.12-.08-.05-.56-.4-1.08s-.72-.86-.84-.78.06.57.4,1.08S9.21,500.51,9.33,500.42Z"/><path class="cls-6" d="M318.17,96.89a1.63,1.63,0,1,1-3,1.35,1.63,1.63,0,0,1,3-1.35Z"/><path class="cls-6" d="M283.47,146.5a1.43,1.43,0,1,1-1.9-.7A1.44,1.44,0,0,1,283.47,146.5Z"/><path class="cls-6" d="M333.81,125.51a2.83,2.83,0,1,1-3.74-1.4A2.81,2.81,0,0,1,333.81,125.51Z"/><path class="cls-6" d="M31.64,21.66a1.91,1.91,0,1,1-1.4-2.32A1.91,1.91,0,0,1,31.64,21.66Z"/><path class="cls-6" d="M161.41,328.82a2.38,2.38,0,0,1-2.88,1.77,2.41,2.41,0,0,1-1.76-2.9,2.39,2.39,0,0,1,4.64,1.13Z"/><path class="cls-6" d="M34.23,261.17a2,2,0,1,1-1.43-2.35A1.95,1.95,0,0,1,34.23,261.17Z"/><path class="cls-6" d="M84.18,53.49a1.83,1.83,0,1,1-1.34-2.21A1.83,1.83,0,0,1,84.18,53.49Z"/><path class="cls-6" d="M10.24,135.64a2,2,0,1,1-1.43-2.35A2,2,0,0,1,10.24,135.64Z"/><path class="cls-6" d="M137.18,264.42a1.28,1.28,0,1,1-.94-1.53A1.26,1.26,0,0,1,137.18,264.42Z"/><path class="cls-6" d="M108.42,280.37a1.71,1.71,0,0,1-3.33-.81,1.71,1.71,0,1,1,3.33.81Z"/><path class="cls-6" d="M96.06,381.73a1.71,1.71,0,1,1-1.25-2.08A1.72,1.72,0,0,1,96.06,381.73Z"/><path class="cls-6" d="M314.83,157.66a2.83,2.83,0,1,1-3.74-1.39A2.81,2.81,0,0,1,314.83,157.66Z"/><path class="cls-6" d="M303.11,217a2.06,2.06,0,1,1-1.52-2.5A2.06,2.06,0,0,1,303.11,217Z"/><path class="cls-6" d="M298.08,259.31a2.07,2.07,0,1,1-1.52-2.5A2.06,2.06,0,0,1,298.08,259.31Z"/><path class="cls-6" d="M290.07,316a2.07,2.07,0,1,1-1.53-2.5A2.07,2.07,0,0,1,290.07,316Z"/><path class="cls-6" d="M258.32,275.62a2.07,2.07,0,1,1-1.53-2.5A2.06,2.06,0,0,1,258.32,275.62Z"/><path class="cls-6" d="M265.91,351.88a2.07,2.07,0,1,1-1.52-2.5A2.07,2.07,0,0,1,265.91,351.88Z"/><path class="cls-6" d="M213.92,209.47a3.1,3.1,0,1,1-2.27-3.76A3.12,3.12,0,0,1,213.92,209.47Z"/><path class="cls-6" d="M130.14,85.75c-3.52-.59-3.7.27-4.74,2.83.4-2.91.52-3.43-2.9-4.69,3,.43,3.67.78,4.71-2.74C126.65,84.88,127.34,84.59,130.14,85.75Z"/><path class="cls-6" d="M167.57,203.8c-3.95-.67-4.15.3-5.31,3.17.44-3.26.58-3.84-3.25-5.26,3.36.49,4.12.87,5.28-3.07C163.66,202.82,164.43,202.5,167.57,203.8Z"/><path class="cls-6" d="M163.6,390.14c-5.11-.86-5.37.39-6.87,4.1.57-4.22.76-5-4.21-6.81,4.35.64,5.33,1.13,6.84-4C158.54,388.88,159.54,388.46,163.6,390.14Z"/><path class="cls-6" d="M285.44,394.46c-5.11-.86-5.37.4-6.87,4.11.57-4.22.75-5-4.21-6.81,4.35.63,5.33,1.13,6.84-4C280.38,393.2,281.38,392.78,285.44,394.46Z"/><path class="cls-6" d="M122.41,414.39c-2.56-.43-2.69.2-3.45,2.06.29-2.12.38-2.5-2.11-3.42,2.18.32,2.68.57,3.43-2C119.87,413.76,120.37,413.54,122.41,414.39Z"/><path class="cls-6" d="M226,335.66c-2.56-.43-2.69.2-3.44,2.06.29-2.12.38-2.49-2.12-3.41,2.19.31,2.68.56,3.44-2C223.45,335,224,334.82,226,335.66Z"/><path class="cls-6" d="M216.09,315.75c-1-.17-1.06.08-1.36.81.12-.83.15-1-.82-1.34.85.12,1,.22,1.34-.78C215.09,315.5,215.29,315.42,216.09,315.75Z"/><path class="cls-6" d="M244.71,404.29c-1-.17-1.06.08-1.35.81.11-.83.15-1-.83-1.34.86.12,1.05.22,1.35-.78C243.71,404,243.91,404,244.71,404.29Z"/><path class="cls-6" d="M22.51,294.9c-1-.16-1.06.08-1.36.81.12-.83.15-1-.82-1.34.85.13,1,.23,1.34-.78C21.51,294.66,21.71,294.57,22.51,294.9Z"/><path class="cls-6" d="M246.22,156.11c-1-.17-1.05.08-1.35.81.11-.83.15-1-.83-1.34.86.12,1.05.22,1.35-.78C245.23,155.86,245.42,155.78,246.22,156.11Z"/><path class="cls-6" d="M326.92,161.05c-1-.17-1.06.07-1.35.8.11-.83.15-1-.83-1.34.85.13,1.05.23,1.34-.77C325.92,160.8,326.12,160.72,326.92,161.05Z"/><path class="cls-6" d="M182.33,276.69c-5.11-.87-5.37.39-6.87,4.1.57-4.22.76-5-4.21-6.81,4.35.63,5.33,1.13,6.84-4C177.27,275.43,178.27,275,182.33,276.69Z"/><path class="cls-6" d="M68,187.6c-5.11-.86-5.37.39-6.88,4.1.58-4.22.76-5-4.2-6.81,4.35.63,5.33,1.13,6.84-4C63,186.34,64,185.91,68,187.6Z"/><path class="cls-6" d="M199.73,132.64c-5.11-.86-5.37.4-6.88,4.1.58-4.22.76-5-4.21-6.81,4.36.64,5.34,1.14,6.84-4C194.67,131.38,195.66,131,199.73,132.64Z"/><path class="cls-6" d="M67.74,299.88c-3-.5-3.14.24-4,2.41.34-2.47.45-2.91-2.47-4,2.56.37,3.13.66,4-2.33C64.78,299.15,65.36,298.9,67.74,299.88Z"/><path class="cls-6" d="M34,60.29c-3.23-.55-3.4.25-4.35,2.6.36-2.67.48-3.15-2.67-4.31,2.76.4,3.38.71,4.34-2.51C30.78,59.49,31.41,59.23,34,60.29Z"/><path class="cls-6" d="M308,186.2c-5.11-.86-5.37.4-6.88,4.1.58-4.22.76-5-4.21-6.81,4.36.64,5.34,1.14,6.84-4C302.92,184.94,303.91,184.52,308,186.2Z"/><path class="cls-6" d="M274.84,113.36c-5.11-.86-5.37.4-6.87,4.1.58-4.22.76-5-4.21-6.8,4.35.63,5.33,1.13,6.84-4C269.78,112.1,270.78,111.68,274.84,113.36Z"/><path class="cls-6" d="M244.15,127.24a2.11,2.11,0,1,1-1.54-2.55A2.11,2.11,0,0,1,244.15,127.24Z"/><path class="cls-6" d="M18.06,42.17a3.59,3.59,0,1,1-2.63-4.33A3.59,3.59,0,0,1,18.06,42.17Z"/><path class="cls-6" d="M173.87,231.08a2,2,0,1,1-1.44-2.36A2,2,0,0,1,173.87,231.08Z"/><path class="cls-6" d="M182.25,313a2.11,2.11,0,1,1-4.09-1,2.11,2.11,0,0,1,4.09,1Z"/><path class="cls-6" d="M202.1,98.87a3.26,3.26,0,1,1-2.4-4A3.26,3.26,0,0,1,202.1,98.87Z"/><path class="cls-6" d="M202.31,156.16a2.23,2.23,0,1,1-1.64-2.7A2.23,2.23,0,0,1,202.31,156.16Z"/><path class="cls-6" d="M178.34,166.78a1.59,1.59,0,1,1-3.09-.76,1.59,1.59,0,1,1,3.09.76Z"/><path class="cls-6" d="M252.42,181.14a1.31,1.31,0,1,1-1-1.59A1.31,1.31,0,0,1,252.42,181.14Z"/><path class="cls-6" d="M235.22,241.84a1.32,1.32,0,0,1-1.59,1,1.31,1.31,0,1,1,.62-2.55A1.31,1.31,0,0,1,235.22,241.84Z"/><path class="cls-6" d="M252.73,319a2,2,0,1,1-1.49-2.45A2,2,0,0,1,252.73,319Z"/><path class="cls-6" d="M116.77,169.32a2.06,2.06,0,1,1-1.52-2.49A2.06,2.06,0,0,1,116.77,169.32Z"/><path class="cls-6" d="M3.32,122a1.6,1.6,0,0,1-1.93,1.17A1.59,1.59,0,1,1,3.32,122Z"/><path class="cls-6" d="M104.78,121.59a1.32,1.32,0,0,1-2.56-.62,1.32,1.32,0,1,1,2.56.62Z"/><path class="cls-6" d="M54.63,158.26a2.07,2.07,0,1,1,1.74-2.36A2.07,2.07,0,0,1,54.63,158.26Z"/><path class="cls-6" d="M68.07,149.09a1.31,1.31,0,1,1,1.11-1.49A1.3,1.3,0,0,1,68.07,149.09Z"/><path class="cls-6" d="M57.29,214a2.07,2.07,0,1,1,.55-2.88A2.07,2.07,0,0,1,57.29,214Z"/><path class="cls-6" d="M219.71,371a1.3,1.3,0,0,1-1.82-.36,1.31,1.31,0,1,1,1.82.36Z"/><path class="cls-6" d="M97.33,215.31a1.31,1.31,0,0,1-1.82-.35,1.31,1.31,0,1,1,2.18-1.47A1.31,1.31,0,0,1,97.33,215.31Z"/><path class="cls-6" d="M67,99.86A1.32,1.32,0,1,1,67.3,98,1.32,1.32,0,0,1,67,99.86Z"/><path class="cls-6" d="M236.07,78.92a1.32,1.32,0,1,1,.35-1.83A1.32,1.32,0,0,1,236.07,78.92Z"/><path class="cls-6" d="M146.35,134a1.3,1.3,0,0,1-1.82-.36,1.31,1.31,0,1,1,1.82.36Z"/><path class="cls-6" d="M168,76.94a1.32,1.32,0,1,1,.35-1.83A1.32,1.32,0,0,1,168,76.94Z"/><path class="cls-6" d="M62.05,333.85A1.32,1.32,0,1,1,62.4,332,1.32,1.32,0,0,1,62.05,333.85Z"/><path class="cls-6" d="M255.78,394.29a1.31,1.31,0,0,1-1.82-.35,1.33,1.33,0,0,1,.35-1.83,1.31,1.31,0,0,1,1.47,2.18Z"/><path class="cls-6" d="M101.39,323.71a1.32,1.32,0,1,1,.35-1.83A1.31,1.31,0,0,1,101.39,323.71Z"/><path class="cls-6" d="M192.91,422.11a1.32,1.32,0,1,1,.35-1.83A1.32,1.32,0,0,1,192.91,422.11Z"/><path class="cls-6" d="M44.29,45.8c.14-.1-.07-.67-.48-1.27s-.85-1-1-.91.07.67.47,1.26S44.14,45.9,44.29,45.8Z"/><path class="cls-6" d="M203.29,375.39c.14-.09-.07-.66-.48-1.27s-.85-1-1-.91.07.67.47,1.27S203.14,375.49,203.29,375.39Z"/><path class="cls-6" d="M77.71,274.16a2,2,0,1,1-1.49-2.45A2,2,0,0,1,77.71,274.16Z"/><path class="cls-6" d="M41,384.1a1.91,1.91,0,1,1-1.41-2.29A1.91,1.91,0,0,1,41,384.1Z"/><path class="cls-6" d="M16,323.05a2.31,2.31,0,1,1-1.69-2.81A2.32,2.32,0,0,1,16,323.05Z"/><path class="cls-6" d="M1.33,388a1.31,1.31,0,0,1-1.59,1,1.31,1.31,0,0,1-1-1.58,1.3,1.3,0,0,1,1.58-1A1.31,1.31,0,0,1,1.33,388Z"/></g><g class="cls-5"><g class="cls-7"><path class="cls-8" d="M-1262.64,625.48c110-456.27,637.5-109.5,685.49,244.49,24.23,178.7,402.92,19,274.52-114s364.48-73.5,187.49-255c-170-174.36-118.17-742.42,1.5-318,192,681,273.3-618.48,291-106.5,4.51,130.49-420,960,186,574.47,113.26-72.05-132,306-132,306l-126-109.5s-250.49-126-265.49-33-355.48,222-355.48,222L-709.14,873s-337.5-373.48-553.5-195Z"/></g></g></g><g class="cls-9"><rect class="cls-10" x="-12.64" y="-549.2" width="1367" height="786"/><g class="cls-11"><path class="cls-6" d="M309.47,68.72a1.9,1.9,0,1,1-2.51-1A1.92,1.92,0,0,1,309.47,68.72Z"/><path class="cls-6" d="M267.89,125.64a1.66,1.66,0,1,1-2.19-.87A1.67,1.67,0,0,1,267.89,125.64Z"/><path class="cls-6" d="M327,102.41a3.29,3.29,0,1,1-4.31-1.71A3.29,3.29,0,0,1,327,102.41Z"/><path class="cls-6" d="M121.45,334.9a2.78,2.78,0,1,1-2-3.39A2.79,2.79,0,0,1,121.45,334.9Z"/><path class="cls-6" d="M38.18,12.59A2.13,2.13,0,1,1,36.68,10,2.13,2.13,0,0,1,38.18,12.59Z"/><path class="cls-6" d="M94.8,259.36a1.49,1.49,0,1,1-1.06-1.81A1.48,1.48,0,0,1,94.8,259.36Z"/><path class="cls-6" d="M60.94,277.23a2,2,0,1,1-1.41-2.45A2,2,0,0,1,60.94,277.23Z"/><path class="cls-6" d="M44.11,394.91a2,2,0,1,1-1.4-2.46A2,2,0,0,1,44.11,394.91Z"/><path class="cls-6" d="M304.12,139.38a3.29,3.29,0,0,1-6,2.62,3.29,3.29,0,1,1,6-2.62Z"/><path class="cls-6" d="M289.06,208.1a2.41,2.41,0,1,1-1.71-2.95A2.4,2.4,0,0,1,289.06,208.1Z"/><path class="cls-6" d="M282.18,257.28a2.41,2.41,0,1,1-1.71-2.94A2.4,2.4,0,0,1,282.18,257.28Z"/><path class="cls-6" d="M271.49,323a2.4,2.4,0,1,1-1.71-2.94A2.4,2.4,0,0,1,271.49,323Z"/><path class="cls-6" d="M235.51,275.31a2.41,2.41,0,1,1-1.71-2.95A2.4,2.4,0,0,1,235.51,275.31Z"/><path class="cls-6" d="M242.51,364.25a2.41,2.41,0,1,1-1.71-2.95A2.4,2.4,0,0,1,242.51,364.25Z"/><path class="cls-6" d="M185.43,197.25a3.61,3.61,0,1,1-2.55-4.43A3.61,3.61,0,0,1,185.43,197.25Z"/><path class="cls-6" d="M90.9,51.24c-4.09-.77-4.32.23-5.59,3.18.54-3.38.7-4-3.26-5.53,3.48.58,4.26,1,5.55-3.07C86.86,50.15,87.66,49.83,90.9,51.24Z"/><path class="cls-6" d="M131.62,189.53c-4.58-.87-4.83.26-6.25,3.57.59-3.79.77-4.46-3.66-6.21,3.9.65,4.77,1.12,6.22-3.43C127.1,188.3,128,187.94,131.62,189.53Z"/><path class="cls-6" d="M122.53,406.31c-5.93-1.12-6.26.33-8.1,4.61.77-4.9,1-5.76-4.74-8,5,.84,6.18,1.44,8.06-4.45C116.67,404.72,117.84,404.26,122.53,406.31Z"/><path class="cls-6" d="M264.22,414.28c-5.92-1.13-6.26.33-8.1,4.61.78-4.9,1-5.77-4.73-8,5.05.84,6.18,1.45,8.05-4.45C258.36,412.69,259.53,412.22,264.22,414.28Z"/><path class="cls-6" d="M74,433.55c-3-.57-3.14.16-4.06,2.31.39-2.46.5-2.89-2.38-4,2.54.42,3.1.73,4-2.23C71.06,432.75,71.65,432.51,74,433.55Z"/><path class="cls-6" d="M196.44,344.41c-3-.56-3.14.17-4.06,2.31.38-2.45.5-2.89-2.38-4,2.53.42,3.1.72,4-2.23C193.5,343.61,194.09,343.38,196.44,344.41Z"/><path class="cls-6" d="M185.4,321c-1.17-.22-1.23.07-1.6.91.16-1,.2-1.13-.93-1.58,1,.17,1.22.29,1.59-.87C184.24,320.68,184.48,320.59,185.4,321Z"/><path class="cls-6" d="M216.58,424.73c-1.16-.22-1.23.07-1.59.91.15-1,.2-1.13-.93-1.58,1,.17,1.21.29,1.58-.87C215.43,424.42,215.66,424.33,216.58,424.73Z"/><path class="cls-6" d="M224.31,135.92c-1.16-.22-1.23.07-1.59.91.15-1,.2-1.14-.93-1.58,1,.17,1.21.28,1.58-.88C223.16,135.61,223.39,135.52,224.31,135.92Z"/><path class="cls-6" d="M318.11,143.61c-1.17-.22-1.23.06-1.59.91.15-1,.19-1.14-.93-1.58,1,.16,1.21.28,1.58-.88C317,143.3,317.19,143.21,318.11,143.61Z"/><path class="cls-6" d="M147.05,274.72c-5.92-1.12-6.26.33-8.1,4.61.77-4.9,1-5.77-4.73-8,5.05.84,6.18,1.44,8.05-4.45C141.19,273.13,142.36,272.67,147.05,274.72Z"/><path class="cls-6" d="M16.15,168.28c-5.93-1.12-6.26.34-8.1,4.62.77-4.9,1-5.77-4.73-8,5,.84,6.17,1.45,8-4.45C10.29,166.7,11.46,166.23,16.15,168.28Z"/><path class="cls-6" d="M170.76,107.49c-5.93-1.13-6.26.33-8.1,4.61.77-4.9,1-5.77-4.73-8,5,.84,6.18,1.45,8-4.45C164.9,105.9,166.07,105.43,170.76,107.49Z"/><path class="cls-6" d="M13.13,299c-3.48-.66-3.67.19-4.75,2.7.45-2.87.59-3.38-2.78-4.71,3,.5,3.63.85,4.73-2.61C9.69,298,10.38,297.76,13.13,299Z"/><path class="cls-6" d="M295.46,172.43c-5.93-1.13-6.26.33-8.1,4.61.77-4.9,1-5.77-4.73-8,5.05.84,6.17,1.45,8.05-4.45C289.6,170.84,290.77,170.37,295.46,172.43Z"/><path class="cls-6" d="M258.65,86.86c-5.93-1.13-6.26.33-8.1,4.61.77-4.9,1-5.77-4.73-8,5,.84,6.17,1.45,8.05-4.45C252.79,85.27,254,84.8,258.65,86.86Z"/><path class="cls-6" d="M222.59,102.27a2.45,2.45,0,1,1-1.73-3A2.44,2.44,0,0,1,222.59,102.27Z"/><path class="cls-6" d="M138.3,221.44a2.27,2.27,0,1,1-1.62-2.78A2.28,2.28,0,0,1,138.3,221.44Z"/><path class="cls-6" d="M146.09,317a2.45,2.45,0,1,1-1.74-3A2.45,2.45,0,0,1,146.09,317Z"/><path class="cls-6" d="M174.34,68.24a3.8,3.8,0,1,1-2.7-4.65A3.8,3.8,0,0,1,174.34,68.24Z"/><path class="cls-6" d="M173.2,134.92a2.59,2.59,0,1,1-1.84-3.17A2.6,2.6,0,0,1,173.2,134.92Z"/><path class="cls-6" d="M145.05,146.7a1.85,1.85,0,1,1-3.58-.95,1.85,1.85,0,0,1,3.58.95Z"/><path class="cls-6" d="M230.93,165.2a1.53,1.53,0,1,1-1.09-1.87A1.53,1.53,0,0,1,230.93,165.2Z"/><path class="cls-6" d="M209.45,235.43a1.54,1.54,0,0,1-3-.78,1.55,1.55,0,0,1,1.88-1.09A1.53,1.53,0,0,1,209.45,235.43Z"/><path class="cls-6" d="M228,325.64a2.36,2.36,0,1,1-1.68-2.89A2.36,2.36,0,0,1,228,325.64Z"/><path class="cls-6" d="M73.33,148.19a2.41,2.41,0,1,1-1.71-2.94A2.4,2.4,0,0,1,73.33,148.19Z"/><path class="cls-6" d="M60.52,92.35a1.53,1.53,0,1,1-1.09-1.87A1.52,1.52,0,0,1,60.52,92.35Z"/><path class="cls-6" d="M1.28,133.81a2.39,2.39,0,0,1-2.7-2.08,2.41,2.41,0,0,1,4.78-.61A2.4,2.4,0,0,1,1.28,133.81Z"/><path class="cls-6" d="M17.14,123.47a1.52,1.52,0,0,1-1.71-1.33,1.55,1.55,0,0,1,1.32-1.71,1.53,1.53,0,0,1,.39,3Z"/><path class="cls-6" d="M3,198.72a2.41,2.41,0,1,1,.72-3.33A2.4,2.4,0,0,1,3,198.72Z"/><path class="cls-6" d="M188.29,385.38a1.53,1.53,0,1,1,.45-2.12A1.53,1.53,0,0,1,188.29,385.38Z"/><path class="cls-6" d="M49.6,201.25a1.53,1.53,0,1,1,.46-2.12A1.53,1.53,0,0,1,49.6,201.25Z"/><path class="cls-6" d="M17,66.14A1.53,1.53,0,1,1,17.47,64,1.54,1.54,0,0,1,17,66.14Z"/><path class="cls-6" d="M214.35,45.84a1.53,1.53,0,1,1,.45-2.12A1.53,1.53,0,0,1,214.35,45.84Z"/><path class="cls-6" d="M108.61,107.79a1.54,1.54,0,0,1-2.12-.46,1.53,1.53,0,1,1,2.57-1.66A1.53,1.53,0,0,1,108.61,107.79Z"/><path class="cls-6" d="M135.12,41.89a1.53,1.53,0,1,1-1.66-2.57,1.53,1.53,0,0,1,1.66,2.57Z"/><path class="cls-6" d="M5.68,338.36a1.53,1.53,0,1,1,.46-2.12A1.53,1.53,0,0,1,5.68,338.36Z"/><path class="cls-6" d="M229.71,413.37a1.54,1.54,0,1,1,.45-2.12A1.54,1.54,0,0,1,229.71,413.37Z"/><path class="cls-6" d="M51.71,327.51a1.53,1.53,0,0,1-1.66-2.58,1.54,1.54,0,0,1,2.12.46A1.53,1.53,0,0,1,51.71,327.51Z"/><path class="cls-6" d="M155.87,444.22a1.53,1.53,0,1,1,.45-2.12A1.54,1.54,0,0,1,155.87,444.22Z"/><path class="cls-6" d="M169.07,390.1c.17-.11-.06-.77-.52-1.48s-1-1.2-1.14-1.09.07.79.52,1.49S168.9,390.22,169.07,390.1Z"/><path class="cls-6" d="M25.35,269.27a2.37,2.37,0,1,1-1.68-2.9A2.36,2.36,0,0,1,25.35,269.27Z"/><path class="cls-6" d="M439.66,176.57a1.46,1.46,0,1,1-1.92-.79A1.47,1.47,0,0,1,439.66,176.57Z"/><path class="cls-6" d="M186.75,40a2,2,0,1,1-1.35-2.41A2,2,0,0,1,186.75,40Z"/><path class="cls-6" d="M105.1,170.78a2.72,2.72,0,1,1-1.88-3.36A2.73,2.73,0,0,1,105.1,170.78Z"/><path class="cls-6" d="M308.41,358.54a2.45,2.45,0,1,1-1.7-3A2.44,2.44,0,0,1,308.41,358.54Z"/><path class="cls-6" d="M180.84,284.86a2,2,0,1,1-1.38-2.45A2,2,0,0,1,180.84,284.86Z"/><path class="cls-6" d="M239.3,74.39A1.87,1.87,0,1,1,238,72.08,1.87,1.87,0,0,1,239.3,74.39Z"/><path class="cls-6" d="M160.8,155.71a2,2,0,1,1-1.38-2.46A2,2,0,0,1,160.8,155.71Z"/><path class="cls-6" d="M285.94,291.85a1.3,1.3,0,1,1-.91-1.6A1.31,1.31,0,0,1,285.94,291.85Z"/><path class="cls-6" d="M256,307.13a1.75,1.75,0,1,1-1.21-2.17A1.76,1.76,0,0,1,256,307.13Z"/><path class="cls-6" d="M239.72,410.28a1.75,1.75,0,1,1-1.2-2.17A1.76,1.76,0,0,1,239.72,410.28Z"/><path class="cls-6" d="M471.31,189.09a2.89,2.89,0,1,1-3.77-1.56A2.88,2.88,0,0,1,471.31,189.09Z"/><path class="cls-6" d="M457.22,249.27a2.11,2.11,0,1,1-1.47-2.61A2.11,2.11,0,0,1,457.22,249.27Z"/><path class="cls-6" d="M450.56,292.38a2.11,2.11,0,1,1-1.46-2.61A2.11,2.11,0,0,1,450.56,292.38Z"/><path class="cls-6" d="M440.35,350a2.11,2.11,0,1,1-1.47-2.61A2.11,2.11,0,0,1,440.35,350Z"/><path class="cls-6" d="M409.34,307.63a2.11,2.11,0,1,1-1.46-2.61A2.11,2.11,0,0,1,409.34,307.63Z"/><path class="cls-6" d="M414.38,385.84a2.11,2.11,0,1,1-1.47-2.61A2.12,2.12,0,0,1,414.38,385.84Z"/><path class="cls-6" d="M366.33,238.44a3.17,3.17,0,1,1-2.19-3.93A3.17,3.17,0,0,1,366.33,238.44Z"/><path class="cls-6" d="M285.12,109c-3.58-.73-3.79.15-4.94,2.72.51-3,.66-3.48-2.8-4.9,3.05.56,3.73.93,4.92-2.62C281.59,108,282.3,107.72,285.12,109Z"/><path class="cls-6" d="M319.16,231c-4-.82-4.25.17-5.54,3.05.57-3.31.74-3.9-3.14-5.49,3.42.62,4.18,1,5.51-2.94C315.2,229.85,316,229.54,319.16,231Z"/><path class="cls-6" d="M139.26,277.71c-5.19-1.07-5.5.21-7.17,4,.74-4.3.95-5.06-4.06-7.11,4.42.8,5.41,1.34,7.13-3.81C134.13,276.24,135.17,275.84,139.26,277.71Z"/><path class="cls-6" d="M308.45,421.29c-5.19-1.07-5.5.21-7.17,3.94.74-4.29,1-5.05-4.06-7.11,4.43.81,5.41,1.35,7.14-3.8C303.33,419.82,304.36,419.42,308.45,421.29Z"/><path class="cls-6" d="M119.21,122.68c-2.91-.59-3.09.12-4,2.21.41-2.4.53-2.83-2.27-4,2.47.45,3,.76,4-2.13C116.33,121.86,116.91,121.64,119.21,122.68Z"/><path class="cls-6" d="M432.82,430.06c-5.19-1.07-5.5.21-7.17,3.95.74-4.3,1-5.06-4.06-7.11,4.42.8,5.41,1.34,7.13-3.81C427.69,428.59,428.73,428.19,432.82,430.06Z"/><path class="cls-6" d="M76.08,356.73c-2.6-.53-2.76.11-3.6,2,.37-2.15.48-2.54-2-3.57,2.22.41,2.71.68,3.58-1.91C73.51,356,74,355.79,76.08,356.73Z"/><path class="cls-6" d="M265.49,444.6c-2.61-.53-2.76.11-3.6,2,.37-2.15.48-2.54-2-3.57,2.22.41,2.71.68,3.57-1.91C262.92,443.86,263.44,443.66,265.49,444.6Z"/><path class="cls-6" d="M374.15,367.84c-2.6-.53-2.76.11-3.59,2,.37-2.15.47-2.53-2-3.57,2.22.41,2.71.68,3.58-1.91C371.58,367.1,372.1,366.9,374.15,367.84Z"/><path class="cls-6" d="M364.75,347.13c-1-.21-1.08,0-1.41.78.14-.85.19-1-.8-1.4.87.16,1.06.27,1.4-.75C363.74,346.84,363.94,346.77,364.75,347.13Z"/><path class="cls-6" d="M390.84,438.65c-1-.21-1.08,0-1.41.77.15-.84.19-1-.8-1.4.87.16,1.07.27,1.4-.74C389.83,438.36,390,438.28,390.84,438.65Z"/><path class="cls-6" d="M167.65,318.92c-1-.21-1.08,0-1.41.77.15-.84.19-1-.8-1.39.87.15,1.07.26,1.4-.75C166.64,318.63,166.85,318.55,167.65,318.92Z"/><path class="cls-6" d="M126.63,181.38c-1-.2-1.08.05-1.41.78.15-.84.19-1-.8-1.4.87.16,1.06.27,1.4-.75C125.62,181.1,125.82,181,126.63,181.38Z"/><path class="cls-6" d="M401.25,185.05c-1-.21-1.08,0-1.41.78.14-.84.19-1-.8-1.4.87.16,1.06.27,1.4-.75C400.24,184.77,400.44,184.69,401.25,185.05Z"/><path class="cls-6" d="M151.29,102.25c-1-.21-1.08,0-1.41.77.14-.84.19-1-.8-1.39.87.15,1.06.26,1.4-.75C150.28,102,150.48,101.88,151.29,102.25Z"/><path class="cls-6" d="M99.77,397.93c-4.08-.84-4.32.17-5.63,3.1.58-3.37.75-4-3.18-5.58,3.47.63,4.24,1.06,5.59-3C95.74,396.78,96.56,396.47,99.77,397.93Z"/><path class="cls-6" d="M331.65,306c-5.19-1.07-5.5.21-7.17,3.94.73-4.29.95-5.05-4.06-7.11,4.42.81,5.41,1.35,7.13-3.8C326.52,304.54,327.55,304.14,331.65,306Z"/><path class="cls-6" d="M218,210.87c-5.19-1.06-5.5.22-7.17,3.95.73-4.29.95-5-4.06-7.11,4.42.8,5.41,1.35,7.13-3.8C212.87,209.4,213.9,209,218,210.87Z"/><path class="cls-6" d="M354.57,159.41c-5.19-1.07-5.5.21-7.17,4,.74-4.3,1-5.06-4.06-7.11,4.42.8,5.41,1.34,7.13-3.81C349.44,157.94,350.48,157.54,354.57,159.41Z"/><path class="cls-6" d="M213.71,325.62c-3.05-.62-3.23.13-4.21,2.32.44-2.52.56-3-2.38-4.17,2.6.47,3.17.79,4.18-2.23C210.7,324.76,211.31,324.53,213.71,325.62Z"/><path class="cls-6" d="M187.76,79.55c-3.29-.68-3.49.13-4.54,2.5.46-2.72.6-3.2-2.57-4.5,2.8.5,3.42.85,4.51-2.41C184.51,78.62,185.17,78.37,187.76,79.55Z"/><path class="cls-6" d="M463.29,218c-5.19-1.06-5.5.22-7.17,4,.74-4.29.95-5.05-4.06-7.11,4.42.8,5.41,1.35,7.13-3.8C458.16,216.54,459.2,216.15,463.29,218Z"/><path class="cls-6" d="M432,142.39c-5.19-1.07-5.5.21-7.17,4,.73-4.3.95-5.06-4.06-7.11,4.42.8,5.41,1.34,7.13-3.81C426.9,140.92,427.93,140.52,432,142.39Z"/><path class="cls-6" d="M400.16,155.47a2.15,2.15,0,1,1-1.48-2.66A2.15,2.15,0,0,1,400.16,155.47Z"/><path class="cls-6" d="M104.82,202.8a2.81,2.81,0,1,1-1.94-3.47A2.8,2.8,0,0,1,104.82,202.8Z"/><path class="cls-6" d="M103.36,311.6a1.79,1.79,0,1,1-1.24-2.22A1.79,1.79,0,0,1,103.36,311.6Z"/><path class="cls-6" d="M83.08,265.35a3.26,3.26,0,1,1-2.26-4A3.26,3.26,0,0,1,83.08,265.35Z"/><path class="cls-6" d="M172.13,60.46a3.67,3.67,0,1,1-2.53-4.52A3.66,3.66,0,0,1,172.13,60.46Z"/><path class="cls-6" d="M324.62,259.09a2,2,0,1,1-1.38-2.46A2,2,0,0,1,324.62,259.09Z"/><path class="cls-6" d="M330.27,343.11a2.15,2.15,0,1,1-1.49-2.65A2.15,2.15,0,0,1,330.27,343.11Z"/><path class="cls-6" d="M358.2,125a3.34,3.34,0,1,1-2.31-4.12A3.34,3.34,0,0,1,358.2,125Z"/><path class="cls-6" d="M356.37,183.54a2.28,2.28,0,1,1-1.58-2.82A2.29,2.29,0,0,1,356.37,183.54Z"/><path class="cls-6" d="M331.49,193.53a1.63,1.63,0,1,1-1.13-2A1.63,1.63,0,0,1,331.49,193.53Z"/><path class="cls-6" d="M96.23,330.31a2.11,2.11,0,1,1-1.46-2.62A2.11,2.11,0,0,1,96.23,330.31Z"/><path class="cls-6" d="M406.69,210.85a1.33,1.33,0,0,1-1.65.93,1.34,1.34,0,1,1,.72-2.58A1.33,1.33,0,0,1,406.69,210.85Z"/><path class="cls-6" d="M387,272.28a1.35,1.35,0,0,1-2.6-.73,1.35,1.35,0,0,1,2.6.73Z"/><path class="cls-6" d="M402.09,351.75a2.08,2.08,0,1,1-1.44-2.56A2.07,2.07,0,0,1,402.09,351.75Z"/><path class="cls-6" d="M108.66,239.8a1.29,1.29,0,0,1-1.61.9,1.3,1.3,0,1,1,.71-2.5A1.29,1.29,0,0,1,108.66,239.8Z"/><path class="cls-6" d="M268.48,193.94a2.11,2.11,0,1,1-1.47-2.61A2.12,2.12,0,0,1,268.48,193.94Z"/><path class="cls-6" d="M147.35,207a2,2,0,1,1-1.38-2.46A2,2,0,0,1,147.35,207Z"/><path class="cls-6" d="M154.22,141.47a1.63,1.63,0,1,1-1.13-2A1.62,1.62,0,0,1,154.22,141.47Z"/><path class="cls-6" d="M257.93,144.73a1.35,1.35,0,1,1-.94-1.66A1.35,1.35,0,0,1,257.93,144.73Z"/><path class="cls-6" d="M205.37,180.41a2.11,2.11,0,1,1,1.86-2.34A2.12,2.12,0,0,1,205.37,180.41Z"/><path class="cls-6" d="M219.43,171.52a1.33,1.33,0,0,1-1.48-1.18,1.34,1.34,0,1,1,2.66-.3A1.33,1.33,0,0,1,219.43,171.52Z"/><path class="cls-6" d="M206.09,237.44a2.11,2.11,0,1,1,.66-2.92A2.12,2.12,0,0,1,206.09,237.44Z"/><path class="cls-6" d="M366.48,403.72a1.35,1.35,0,1,1,.43-1.85A1.35,1.35,0,0,1,366.48,403.72Z"/><path class="cls-6" d="M247,240.25a1.35,1.35,0,0,1-1.85-.43,1.34,1.34,0,1,1,2.27-1.43A1.35,1.35,0,0,1,247,240.25Z"/><path class="cls-6" d="M220,121.16a1.35,1.35,0,1,1,.43-1.85A1.35,1.35,0,0,1,220,121.16Z"/><path class="cls-6" d="M393.63,105.8a1.35,1.35,0,1,1,.42-1.85A1.34,1.34,0,0,1,393.63,105.8Z"/><path class="cls-6" d="M300,158.9a1.35,1.35,0,1,1,.42-1.86A1.34,1.34,0,0,1,300,158.9Z"/><path class="cls-6" d="M324.08,101.34a1.35,1.35,0,1,1,.43-1.85A1.35,1.35,0,0,1,324.08,101.34Z"/><path class="cls-6" d="M206.67,360.13a1.34,1.34,0,1,1,.43-1.85A1.35,1.35,0,0,1,206.67,360.13Z"/><path class="cls-6" d="M402.51,428.82a1.34,1.34,0,0,1-1.85-.43,1.34,1.34,0,1,1,1.85.43Z"/><path class="cls-6" d="M247.24,351.18a1.35,1.35,0,0,1-1.43-2.29,1.35,1.35,0,1,1,1.43,2.29Z"/><path class="cls-6" d="M337.26,455a1.34,1.34,0,1,1,.43-1.85A1.33,1.33,0,0,1,337.26,455Z"/><path class="cls-6" d="M198.81,65.11c.15-.1-.05-.69-.44-1.32s-.84-1.06-1-1,.05.69.44,1.31S198.66,65.2,198.81,65.11Z"/><path class="cls-6" d="M349.54,407.63c.15-.09,0-.68-.44-1.31s-.84-1.06-1-1,.06.69.44,1.31S349.39,407.73,349.54,407.63Z"/><path class="cls-6" d="M224.81,299.69a2.08,2.08,0,1,1-1.43-2.56A2.07,2.07,0,0,1,224.81,299.69Z"/><path class="cls-6" d="M183.4,410.74a2,2,0,1,1-1.36-2.39A2,2,0,0,1,183.4,410.74Z"/><path class="cls-6" d="M160,347.45a2.36,2.36,0,1,1-1.63-2.93A2.38,2.38,0,0,1,160,347.45Z"/><path class="cls-6" d="M107.28,358.85a1.91,1.91,0,1,1-1.31-2.37A1.92,1.92,0,0,1,107.28,358.85Z"/><path class="cls-6" d="M142.69,413.3a1.35,1.35,0,0,1-1.66.92,1.34,1.34,0,1,1,1.66-.92Z"/><path class="cls-6" d="M446.14,151.49a3.45,3.45,0,1,1-2.55-4.16A3.45,3.45,0,0,1,446.14,151.49Z"/><path class="cls-6" d="M262,54.16A2.82,2.82,0,1,1,260,50.77,2.82,2.82,0,0,1,262,54.16Z"/><path class="cls-6" d="M410.87,58.47a1.84,1.84,0,1,1-1.37-2.21A1.84,1.84,0,0,1,410.87,58.47Z"/><path class="cls-6" d="M369.35,81.63a2.47,2.47,0,1,1-4.81-1.16,2.47,2.47,0,1,1,4.81,1.16Z"/><path class="cls-6" d="M351.85,228.21a2.47,2.47,0,1,1-1.81-3A2.47,2.47,0,0,1,351.85,228.21Z"/><path class="cls-6" d="M202.93,46.25c-7.39-1.22-7.76.6-9.93,6,.82-6.1,1.08-7.19-6.1-9.83,6.29.9,7.71,1.62,9.87-5.75C195.61,44.45,197,43.84,202.93,46.25Z"/><path class="cls-6" d="M449.53,240.11c-7.39-1.23-7.76.59-9.92,6,.81-6.1,1.07-7.19-6.11-9.83,6.29.9,7.71,1.62,9.87-5.75C442.21,238.31,443.65,237.69,449.53,240.11Z"/><path class="cls-6" d="M117.86,161.22c-3.7-.62-3.89.3-5,3,.41-3.06.54-3.61-3.07-4.93,3.16.45,3.87.81,5-2.89C114.19,160.31,114.91,160,117.86,161.22Z"/><path class="cls-6" d="M390.07,275.32c-3.71-.62-3.89.3-5,3,.41-3.06.54-3.61-3.06-4.93,3.15.45,3.87.81,5-2.89C386.4,274.41,387.12,274.11,390.07,275.32Z"/><path class="cls-6" d="M245.21,103c-1.45-.24-1.52.12-2,1.17.16-1.2.21-1.41-1.2-1.93,1.24.18,1.52.32,1.94-1.13C243.77,102.61,244.06,102.49,245.21,103Z"/><path class="cls-6" d="M153.51,218.17c-5.8-1-6.09.46-7.79,4.67.64-4.79.85-5.64-4.79-7.71,4.93.7,6,1.27,7.74-4.52C147.76,216.75,148.89,216.27,153.51,218.17Z"/><path class="cls-6" d="M476.19,76c-7.39-1.23-7.76.6-9.92,6,.81-6.1,1.07-7.19-6.11-9.83,6.29.9,7.71,1.62,9.87-5.75C468.87,74.24,470.31,73.63,476.19,76Z"/><path class="cls-6" d="M310.63,110c-4.34-.72-4.55.34-5.82,3.49.48-3.58.63-4.22-3.58-5.76,3.69.52,4.52,1,5.78-3.38C306.33,108.94,307.18,108.58,310.63,110Z"/><path class="cls-6" d="M154,96A2.53,2.53,0,1,1,152.14,93,2.53,2.53,0,0,1,154,96Z"/><path class="cls-6" d="M122.91,31.77a4.6,4.6,0,1,1-3.4-5.55A4.62,4.62,0,0,1,122.91,31.77Z"/><path class="cls-6" d="M463.78,10.14a2.82,2.82,0,1,1-2.08-3.4A2.81,2.81,0,0,1,463.78,10.14Z"/><path class="cls-6" d="M476.21,128.52a3,3,0,1,1-2.24-3.66A3.05,3.05,0,0,1,476.21,128.52Z"/><path class="cls-6" d="M144.93,122.83a3,3,0,1,1-2.2-3.62A3,3,0,0,1,144.93,122.83Z"/><path class="cls-6" d="M302.52,159.12a1.91,1.91,0,1,1,.5-2.65A1.91,1.91,0,0,1,302.52,159.12Z"/><path class="cls-6" d="M359.35,144.32a1.9,1.9,0,1,1,.5-2.65A1.9,1.9,0,0,1,359.35,144.32Z"/><path class="cls-6" d="M324.94,72.77a2.94,2.94,0,1,1-2.17-3.54A2.93,2.93,0,0,1,324.94,72.77Z"/><path class="cls-6" d="M272.31,231.84a2.76,2.76,0,1,1-2-3.32A2.75,2.75,0,0,1,272.31,231.84Z"/><path class="cls-6" d="M235.87,143.67a3.34,3.34,0,1,1-2.46-4A3.35,3.35,0,0,1,235.87,143.67Z"/><path class="cls-6" d="M162.05,162.57a2.7,2.7,0,1,1-2-3.28A2.7,2.7,0,0,1,162.05,162.57Z"/><path class="cls-6" d="M214.94,237.6a1.9,1.9,0,0,1-3.69-.89,1.9,1.9,0,1,1,3.69.89Z"/><path class="cls-6" d="M361.05,19.23a4.22,4.22,0,1,1-3.11-5.08A4.22,4.22,0,0,1,361.05,19.23Z"/><path class="cls-6" d="M420.16,182.6c-8.09-1.34-8.5.65-10.86,6.53.89-6.69,1.18-7.87-6.7-10.76,6.89,1,8.45,1.77,10.81-6.31C412.14,180.63,413.72,180,420.16,182.6Z"/><path class="cls-6" d="M327.09,308.53c-4.06-.67-4.27.32-5.45,3.27.45-3.35.59-3.95-3.36-5.39,3.46.49,4.24.88,5.42-3.17C323.06,307.54,323.86,307.2,327.09,308.53Z"/><path class="cls-6" d="M466.49,244.67c-1.59-.26-1.67.13-2.14,1.28.18-1.31.24-1.54-1.31-2.11,1.35.19,1.66.35,2.12-1.24C464.91,244.28,465.22,244.15,466.49,244.67Z"/><path class="cls-6" d="M395,34.37c-1.59-.27-1.67.12-2.14,1.28.18-1.31.24-1.55-1.31-2.12,1.35.2,1.66.35,2.12-1.24C393.39,34,393.7,33.85,395,34.37Z"/><path class="cls-6" d="M366.14,370.86c-6.35-1.05-6.67.51-8.52,5.12.7-5.24.92-6.18-5.25-8.44,5.4.77,6.62,1.39,8.48-5C359.85,369.31,361.09,368.78,366.14,370.86Z"/><path class="cls-6" d="M362.49,68.77a4.35,4.35,0,1,1-3.21-5.25A4.32,4.32,0,0,1,362.49,68.77Z"/><path class="cls-6" d="M366.63,237.12a2.77,2.77,0,1,1-2.06-3.35A2.79,2.79,0,0,1,366.63,237.12Z"/><path class="cls-6" d="M332.54,166.78a5,5,0,1,1-3.72-6.07A5,5,0,0,1,332.54,166.78Z"/><path class="cls-6" d="M356.7,266.48a3.28,3.28,0,1,1-2.41-4A3.28,3.28,0,0,1,356.7,266.48Z"/><path class="cls-6" d="M370.61,125.77a2,2,0,1,1-1.5-2.43A2,2,0,0,1,370.61,125.77Z"/><path class="cls-6" d="M428.52,72.82a3.09,3.09,0,1,1-2.28-3.72A3.09,3.09,0,0,1,428.52,72.82Z"/><path class="cls-6" d="M456.28,289.24a3.65,3.65,0,1,1-2.69-4.42A3.66,3.66,0,0,1,456.28,289.24Z"/><path class="cls-6" d="M375.47,310a3,3,0,1,1-2.18-3.59A3,3,0,0,1,375.47,310Z"/><path class="cls-6" d="M433.42,392.11a2.08,2.08,0,0,1-4.05-1,2.08,2.08,0,0,1,4.05,1Z"/></g><g class="cls-11"><g class="cls-7"><path class="cls-12" d="M-12.66-67.12C-116.08-91,143.39-745,522.88-101.57s489-373.64,189-297S254.4-431.2,438.89-587.2H167.36s46.54,25.46-190.45,249S-12.66-67.12-12.66-67.12Z"/><path class="cls-13" d="M-36.64,21.48C73.36-434.79,600.86-88,648.85,266c24.23,178.7,402.92,19,274.52-114s364.48-73.5,187.49-255c-170-174.36-118.17-742.42,1.5-318,192,681,273.3-618.48,291-106.5,4.51,130.49-420,960,186,574.47,113.26-72-132,306-132,306l-126-109.5s-250.49-126-265.49-33-355.48,222-355.48,222L516.86,269S179.36-104.51-36.64,74Z"/></g></g></g></svg>