<svg id="Capa_1" data-name="Capa 1" xmlns="http://www.w3.org/2000/svg" xmlns:xlink="http://www.w3.org/1999/xlink" viewBox="0 0 602 832"><defs><style>.cls-1{fill:none;}.cls-2{fill:#efefef;}.cls-3{clip-path:url(#clip-path);}.cls-4{clip-path:url(#clip-path-2);}.cls-5{opacity:0.3;}.cls-6{fill:url(#linear-gradient);}</style><clipPath id="clip-path"><rect class="cls-1" x="207.29" y="1001.09" width="291.94" height="320.97" rx="19.35"/></clipPath><clipPath id="clip-path-2"><rect class="cls-1" x="99.36" y="920.8" width="1367" height="786"/></clipPath><linearGradient id="linear-gradient" x1="75.36" y1="1361.12" x2="1731.21" y2="1361.12" gradientUnits="userSpaceOnUse"><stop offset="0" stop-color="#2d62ff"/><stop offset="0.21" stop-color="#641f87"/><stop offset="0.48" stop-color="#1e2f8a"/><stop offset="1" stop-color="#0e061e"/></linearGradient></defs><title>Mesa de trabajo 11</title><path class="cls-2" d="M0,831.89c219.62-468.53,649,59.45,598-435.53-88.9-447-235.89-483-342-270C173.12,355.86,0,173.72,0,173.72Z"/><g class="cls-3"><g class="cls-4"><g class="cls-5"><path class="cls-6" d="M75.36,1491.48c110-456.27,637.5-109.5,685.49,244.49,24.23,178.7,402.92,19,274.52-114s364.48-73.5,187.49-255c-170-174.36-118.17-742.42,1.5-318,192,681,273.3-618.48,291-106.5,4.51,130.49-420,960,186,574.47,113.26-72-132,306-132,306l-126-109.5s-250.49-126-265.49-33-355.48,222-355.48,222L628.86,1739s-337.5-373.48-553.5-195Z"/></g></g></g></svg>