<svg id="Capa_1" data-name="Capa 1" xmlns="http://www.w3.org/2000/svg" viewBox="0 0 676 168"><defs><style>.cls-1{font-size:100px;font-family:Montserrat-Bold, Montserrat;font-weight:700;}.cls-1,.cls-4{fill:#201932;}.cls-2{letter-spacing:0.01em;}.cls-3{fill:#662d91;}</style></defs><title>Mesa de trabajo 17</title><text class="cls-1" transform="translate(196.4 119.72)">GA<tspan class="cls-2" x="153.7" y="0">L</tspan><tspan x="214.7" y="0">ASIX</tspan></text><path class="cls-3" d="M90.2,45.8Q88.48,47.36,86.88,49a3.7,3.7,0,0,1,.32,1.45,3.65,3.65,0,0,1-3.58,3.7,3.58,3.58,0,0,1-1.19-.19C71.49,67.35,66.72,83.31,70,97a134,134,0,0,1,42.59-2.82c1,.09,1.91.2,2.85.31a3.63,3.63,0,0,1,6.87,1,106.52,106.52,0,0,1,30.62,9.92l12.56-12.56a11.68,11.68,0,0,0,0-16.47L117.55,28.44A129,129,0,0,0,90.2,45.8Z"/><path class="cls-4" d="M120.86,133.61c1,.15,2.19.29,3.42.41l26.83-26.83a104.6,104.6,0,0,0-29.26-9.34,3.63,3.63,0,0,1-6.69-1c-.93-.11-1.87-.21-2.83-.3a131.45,131.45,0,0,0-41.71,2.75c1.95,6.25,6,13.35,14.15,19.68a3.54,3.54,0,0,1,1.92-.59,3.63,3.63,0,0,1,3.7,3.58,3.42,3.42,0,0,1-.07.79C97.72,127.24,107.63,131.07,120.86,133.61Z"/><path class="cls-4" d="M67.62,97.54c-3.42-14.38,1.51-31.1,12.89-45.08a3.59,3.59,0,0,1-.59-1.91,3.63,3.63,0,0,1,3.58-3.7,3.68,3.68,0,0,1,1.69.38c1.1-1.11,2.23-2.2,3.41-3.25l.05,0a132.13,132.13,0,0,1,27.08-17.33l-9.45-9.44a11.68,11.68,0,0,0-16.47,0L30.62,76.36a11.68,11.68,0,0,0,0,16.47l13,13A141.08,141.08,0,0,1,67.62,97.54Z"/><path class="cls-3" d="M120.48,136h0c-12.47-2.39-23-6.14-31.33-11.16a3.69,3.69,0,0,1-2.29.86,3.63,3.63,0,0,1-3.5-4.82c-7.51-5.82-12.57-12.88-15-21a137.59,137.59,0,0,0-22.77,7.8L89.81,152a11.68,11.68,0,0,0,16.47,0l15.8-15.8C121.51,136.15,121,136.08,120.48,136Z"/></svg>