<svg id="Capa_1" data-name="Capa 1" xmlns="http://www.w3.org/2000/svg" xmlns:xlink="http://www.w3.org/1999/xlink" viewBox="0 0 292 404"><defs><style>.cls-1,.cls-11,.cls-12,.cls-31{fill:none;}.cls-2{fill:#201932;}.cls-3{clip-path:url(#clip-path);}.cls-4{fill:url(#linear-gradient);}.cls-5{clip-path:url(#clip-path-2);}.cls-13,.cls-17,.cls-6{fill:#fff;}.cls-7{opacity:0.3;}.cls-8{fill:url(#linear-gradient-2);}.cls-9{fill:url(#linear-gradient-3);}.cls-10{fill:#e1e1e1;}.cls-11,.cls-13{stroke:#515151;}.cls-11,.cls-12,.cls-13{stroke-miterlimit:10;}.cls-12{stroke:#1b2d37;}.cls-14{fill:url(#Nueva_muestra_de_degradado_1);}.cls-15{clip-path:url(#clip-path-4);}.cls-16{clip-path:url(#clip-path-5);}.cls-17,.cls-19,.cls-20,.cls-22,.cls-23,.cls-25,.cls-26,.cls-27,.cls-28,.cls-29{fill-rule:evenodd;}.cls-18,.cls-19{fill:#b5bcc4;}.cls-20,.cls-21{fill:#092f8e;}.cls-22{fill:#334f6c;}.cls-23{fill:#c2c9d1;}.cls-24{fill:#4f6984;}.cls-25{fill:#6887a8;}.cls-26{fill:#d6dfe8;}.cls-27{fill:#47607b;}.cls-28{fill:#002f5b;}.cls-29{fill:#001c46;}.cls-30{clip-path:url(#clip-path-6);}.cls-31{stroke:#fff;stroke-linecap:round;stroke-linejoin:round;stroke-width:9px;}.cls-32{clip-path:url(#clip-path-7);}.cls-33{fill:#1b2d37;}</style><clipPath id="clip-path"><rect class="cls-1" x="0.29" y="46.09" width="291.94" height="320.97" rx="19.35"/></clipPath><linearGradient id="linear-gradient" x1="-107.64" y1="358.8" x2="1259.36" y2="358.8" gradientUnits="userSpaceOnUse"><stop offset="0" stop-color="#0e061e"/><stop offset="0.09" stop-color="#100725"/><stop offset="0.22" stop-color="#150937"/><stop offset="0.36" stop-color="#1d0d55"/><stop offset="0.43" stop-color="#210f65"/><stop offset="0.82" stop-color="#4f1a7c"/><stop offset="0.99" stop-color="#641f87"/></linearGradient><clipPath id="clip-path-2"><rect class="cls-1" x="-107.64" y="-34.2" width="1367" height="786"/></clipPath><linearGradient id="linear-gradient-2" x1="-220.78" y1="277.84" x2="789.29" y2="277.84" gradientUnits="userSpaceOnUse"><stop offset="0" stop-color="#2d62ff"/><stop offset="0.21" stop-color="#641f87"/><stop offset="0.48" stop-color="#1e2f8a"/><stop offset="1" stop-color="#0e061e"/></linearGradient><linearGradient id="linear-gradient-3" x1="-131.64" y1="406.12" x2="1524.21" y2="406.12" xlink:href="#linear-gradient-2"/><linearGradient id="Nueva_muestra_de_degradado_1" x1="91.36" y1="123.74" x2="284.97" y2="420.97" gradientUnits="userSpaceOnUse"><stop offset="0" stop-color="#fff" stop-opacity="0"/><stop offset="0.05" stop-color="#d5eff9" stop-opacity="0.14"/><stop offset="0.17" stop-color="#79caed" stop-opacity="0.44"/><stop offset="0.26" stop-color="#3fb4e5" stop-opacity="0.63"/><stop offset="0.3" stop-color="#29abe2" stop-opacity="0.7"/><stop offset="0.36" stop-color="#298ee2" stop-opacity="0.7"/><stop offset="0.46" stop-color="#295fe2" stop-opacity="0.7"/><stop offset="0.55" stop-color="#2942e2" stop-opacity="0.7"/><stop offset="0.61" stop-color="#2938e2" stop-opacity="0.7"/><stop offset="0.64" stop-color="#4138e2" stop-opacity="0.75"/><stop offset="0.69" stop-color="#6338e2" stop-opacity="0.83"/><stop offset="0.74" stop-color="#8038e2" stop-opacity="0.89"/><stop offset="0.8" stop-color="#9738e2" stop-opacity="0.94"/><stop offset="0.86" stop-color="#a738e2" stop-opacity="0.97"/><stop offset="0.92" stop-color="#b038e2" stop-opacity="0.99"/><stop offset="1" stop-color="#b338e2"/></linearGradient><clipPath id="clip-path-4"><path class="cls-1" d="M208.8,19.47c-5.21-20.55-23.88-19-23.88-19L148.41,7.75,62.5,24.86,26,32.13S8.15,37.84,11.21,58.82,77,389,77,389s5.85,18.27,27.35,14l75.17-15,75.17-15c21.51-4.28,19.91-23.39,19.91-23.39S214,40,208.8,19.47Z"/></clipPath><clipPath id="clip-path-5"><path class="cls-1" d="M210.76,29.28c-5.21-20.56-23.88-19-23.88-19l-36.52,7.27L64.45,34.66,27.94,41.94S10.1,47.65,13.16,68.63,78.92,398.8,78.92,398.8s5.84,18.26,27.34,14l75.17-15,75.18-15c21.5-4.28,19.9-23.39,19.9-23.39S216,49.83,210.76,29.28Z"/></clipPath><clipPath id="clip-path-6"><rect class="cls-1" x="111.13" y="213.84" width="70.59" height="25.68" transform="translate(-83.74 85.8) rotate(-25.67)"/></clipPath><clipPath id="clip-path-7"><rect class="cls-1" x="114.77" y="250.64" width="11.31" height="11.31" transform="translate(-99.13 77.45) rotate(-25.67)"/></clipPath></defs><title>Mesa de trabajo 12</title><rect class="cls-2" x="0.29" y="46.09" width="291.94" height="320.97" rx="19.35"/><g class="cls-3"><rect class="cls-4" x="-107.64" y="-34.2" width="1367" height="786"/><g class="cls-5"><path class="cls-6" d="M195,324.21a2.12,2.12,0,1,1-1.56-2.56A2.11,2.11,0,0,1,195,324.21Z"/><path class="cls-6" d="M253.44,359.15a2,2,0,1,1-1.5-2.45A2,2,0,0,1,253.44,359.15Z"/><path class="cls-6" d="M159.34,393.21c-1.11-.18-1.17.1-1.49.91.12-.93.16-1.09-.92-1.48.94.13,1.16.24,1.48-.88C158.24,392.94,158.46,392.85,159.34,393.21Z"/><path class="cls-6" d="M197.84,367c-3.59-.58-3.77.3-4.81,2.91.39-3,.51-3.49-3-4.76,3.06.43,3.75.77,4.78-2.81C194.28,366.15,195,365.85,197.84,367Z"/><path class="cls-6" d="M180.06,347a4,4,0,1,1-2.93-4.78A4,4,0,0,1,180.06,347Z"/><path class="cls-6" d="M209.17,350.88c.16-.11-.08-.73-.54-1.4s-.95-1.12-1.11-1,.09.75.54,1.4S209,351,209.17,350.88Z"/><path class="cls-6" d="M290.62,255.86a1.4,1.4,0,1,1-1-1.73A1.4,1.4,0,0,1,290.62,255.86Z"/><path class="cls-6" d="M233.05,350.38a2,2,0,1,1-1.38-2.4A2,2,0,0,1,233.05,350.38Z"/><path class="cls-6" d="M272.91,339.13a1.43,1.43,0,1,1-1-1.76A1.45,1.45,0,0,1,272.91,339.13Z"/><path class="cls-6" d="M242.79,315.75c-2.09-.41-2.21.11-2.87,1.61.28-1.72.37-2-1.66-2.84,1.78.31,2.18.52,2.85-1.56C240.72,315.18,241.14,315,242.79,315.75Z"/><path class="cls-6" d="M248.58,357.82c-.73-.14-.78,0-1,.57.1-.61.13-.71-.58-1,.63.11.77.19,1-.54C247.85,357.62,248,357.57,248.58,357.82Z"/><path class="cls-6" d="M265.66,300.83c-.74-.14-.78,0-1,.57.1-.61.13-.72-.58-1,.62.11.76.18,1-.55C264.93,300.63,265.08,300.57,265.66,300.83Z"/><path class="cls-6" d="M291.66,284.25c-2.37-.46-2.5.12-3.24,1.83.31-2,.4-2.3-1.88-3.21,2,.34,2.46.58,3.22-1.77C289.32,283.6,289.79,283.42,291.66,284.25Z"/><path class="cls-6" d="M233.09,373.36a2,2,0,1,1-1.42-2.47A2,2,0,0,1,233.09,373.36Z"/><path class="cls-6" d="M280.29,270.67a2.63,2.63,0,1,1-1.85-3.22A2.62,2.62,0,0,1,280.29,270.67Z"/><path class="cls-6" d="M236.15,399.89a.94.94,0,0,1-1.16.66.93.93,0,1,1,1.16-.66Z"/><path class="cls-6" d="M263.65,376.07a1.42,1.42,0,0,1-1.75,1,1.43,1.43,0,1,1,1.75-1Z"/><path class="cls-6" d="M268.07,329a1.17,1.17,0,1,1-.83-1.43A1.17,1.17,0,0,1,268.07,329Z"/><path class="cls-6" d="M298.35,390.27a4,4,0,1,1-2.89-4.81A4,4,0,0,1,298.35,390.27Z"/></g><g class="cls-5"><g class="cls-7"><path class="cls-8" d="M-107.66,447.88C-211.08,424,48.39-230,427.88,413.43s489-373.64,189-297S159.4,83.8,343.89-72.2H72.36s46.54,25.46-190.45,249S-107.66,447.88-107.66,447.88Z"/><path class="cls-9" d="M-131.64,536.48C-21.64,80.21,505.86,427,553.85,781c24.23,178.7,402.92,19,274.52-114s364.48-73.5,187.49-255c-170-174.36-118.17-742.42,1.5-318,192,681,273.3-618.48,291-106.5,4.51,130.49-420,960,186,574.47,113.26-72.05-132,306-132,306l-126-109.5s-250.49-126-265.49-33-355.48,222-355.48,222L421.86,784S84.36,410.49-131.64,589Z"/></g></g></g><path class="cls-6" d="M201.93,29.72c-4.88-19.42-22-18.06-22-18.06L146.64,18.3c-3.92.78-3.93,5.88-3.93,5.88L144.08,31c1,4.91-4.91,6.08-4.91,6.08l-28.44,5.66L82.29,48.45s-5.89,1.17-6.86-3.74l-1.37-6.86s-2-4.71-5.88-3.93L34.83,40.56S18.55,45.84,21.48,65.65,83.59,377.53,83.59,377.53,89,394.8,108.68,390.89l68.65-13.68L246,363.54c19.64-3.91,18.07-22,18.07-22S206.82,49.14,201.93,29.72Z"/><rect class="cls-10" x="48.63" y="105.27" width="166" height="90" transform="matrix(0.98, -0.2, 0.2, 0.98, -26.82, 28.6)"/><rect class="cls-11" x="50.19" y="75.12" width="166" height="166" transform="translate(-28.32 29.06) rotate(-11.26)"/><polygon class="cls-12" points="50.39 80.29 33.72 83.61 31.44 72.15 38.84 65.77 48.11 68.83 50.39 80.29"/><line class="cls-12" x1="76.95" y1="101" x2="154.43" y2="85.57"/><line class="cls-12" x1="78.62" y1="222.01" x2="205.13" y2="196.81"/><line class="cls-12" x1="80.57" y1="231.81" x2="207.09" y2="206.62"/><line class="cls-12" x1="82.72" y1="242.6" x2="209.23" y2="217.41"/><rect class="cls-13" x="74.6" y="258.71" width="166" height="44" transform="matrix(0.98, -0.2, 0.2, 0.98, -51.79, 36.19)"/><rect class="cls-10" x="81.37" y="276.02" width="34" height="34" transform="matrix(0.98, -0.2, 0.2, 0.98, -55.34, 24.86)"/><line class="cls-12" x1="126.03" y1="275.78" x2="178.99" y2="265.23"/><line class="cls-12" x1="128.18" y1="286.57" x2="226.26" y2="267.04"/><line class="cls-12" x1="130.13" y1="296.38" x2="212.52" y2="279.97"/><rect class="cls-13" x="86.13" y="316.57" width="166" height="44" transform="translate(-62.87 39.55) rotate(-11.26)"/><rect class="cls-10" x="92.89" y="333.88" width="34" height="34" transform="translate(-66.42 28.22) rotate(-11.26)"/><line class="cls-12" x1="137.56" y1="333.64" x2="190.52" y2="323.1"/><line class="cls-12" x1="139.71" y1="344.43" x2="237.78" y2="324.9"/><line class="cls-12" x1="141.66" y1="354.24" x2="224.04" y2="337.83"/><line class="cls-12" x1="175.55" y1="40.61" x2="193.21" y2="37.1"/><line class="cls-12" x1="176.52" y1="45.48" x2="194.18" y2="41.97"/><line class="cls-12" x1="177.49" y1="50.35" x2="195.15" y2="46.84"/><polygon class="cls-6" points="58.62 208.65 114.97 135.75 155.54 165.39 166.15 141.87 221.43 176.23 58.62 208.65"/><circle class="cls-6" cx="148.31" cy="129.1" r="8"/><circle class="cls-10" cx="55.38" cy="102.75" r="9"/><path class="cls-14" d="M201.93,29.72c-4.88-19.42-22-18.06-22-18.06L146.64,18.3c-3.92.78-3.93,5.88-3.93,5.88L144.08,31c1,4.91-4.91,6.08-4.91,6.08l-28.44,5.66L82.29,48.45s-5.89,1.17-6.86-3.74l-1.37-6.86s-2-4.71-5.88-3.93L34.83,40.56S18.55,45.84,21.48,65.65,83.59,377.53,83.59,377.53,89,394.8,108.68,390.89l68.65-13.68L246,363.54c19.64-3.91,18.07-22,18.07-22S206.82,49.14,201.93,29.72Z"/><g class="cls-15"><g class="cls-16"><path class="cls-6" d="M246.46,327a39.94,39.94,0,0,0-12.92-17.46c-8.19-6.45-18.24-10-28.23-12.08a99.51,99.51,0,0,0-19.43-2.15h-.06c-.54,0-1.08,0-1.62.09a14.26,14.26,0,0,0-3.16.75l-1.49.64"/><path class="cls-6" d="M179.55,296.73c-.47.26-1,.51-1.41.8a14,14,0,0,0,1.36,24.15,14,14,0,0,0,4.64,1.4c1.52.18,3.06.12,4.6.22,8.16.53,16.42,1.92,23.71,5.71.53.27,1.06.57,1.57.88,3,1.8,5.73,4.33,6.54,7.75.57,2.43,1.74,4.74,1.23,7.2l1.31,2c-.22,1.43.74,2.07.78,3.51.1,4.33-1.49,6.67,2.05,9.17a14.29,14.29,0,0,0,16.67-.39,14.11,14.11,0,0,0,4.63-6.54,23.82,23.82,0,0,0,.83-3.65,42.91,42.91,0,0,0-1.6-21.95"/><path class="cls-6" d="M90.74,274.71c-.39.19-.49.23-.88.44a14.35,14.35,0,0,0-7.26,11.41c-.88,10.77.7,22.06,7.06,30.85a33.41,33.41,0,0,0,8.38,8,37.52,37.52,0,0,0,10.45,4.92c10,2.95,20.61,2.31,30.6.26a81.55,81.55,0,0,0,10.15-2.71,18.13,18.13,0,0,0,1.87-.8,14,14,0,0,0-4.7-26.26,16.16,16.16,0,0,0-6.84.85c-6.43,2-13.23,3.31-19.95,2.52-3-.35-6.15-1.12-7.69-3.74a15.51,15.51,0,0,1-1.63-7.37,40.71,40.71,0,0,1,.14-4.42,17.59,17.59,0,0,0,0-2.09,14.25,14.25,0,0,0-9.63-12.49,14.53,14.53,0,0,0-10.1.58"/><path class="cls-17" d="M209.05,390.44c.8-7.26,1.75-17.86,2.32-23.6.84-8.62-3-21.66-4.24-30.82-1.1-8,.81-17.71-3.31-24.13s-10.89-15.82-21.42-14.37l-38.15,5.24c-10.53,1.45-15.75,11.54-16.74,19.61s.43,23.79,2.87,37.06c-.16.26-7.34,16.77-9.19,25.1-2.89,12.92-3.11,26.64,1.45,39.14a54.39,54.39,0,0,0,18.58,24.7l.1.08a19,19,0,0,0,24.13-29.4c-1-.91-2.14-1.66-3.14-2.58a14.83,14.83,0,0,1-3.36-4.56c-2-4.26-2-9.14-1.52-13.68a60.17,60.17,0,0,1,5.89-19.73c.08-.17.21-.41.21-.41l.41-.9,1.29-.19,6.94-.45c-.27,3.32-.63,6.64-1,10-.72,6.59-1,13.28.18,19.79,2,10.48,7.5,20,13.71,28.83,1.91,2.7,3.89,5.35,5.91,8l.15.2.15.19,1.26,1.46c.47.45.91.91,1.4,1.33a19,19,0,0,0,28.55-24.52c-.65-1-1.43-2-2.17-3-3.84-5-7.75-10.07-10.35-15.9a15.09,15.09,0,0,1-1.27-4.13,33.84,33.84,0,0,1,.35-8.33"/><path class="cls-18" d="M163.53,378.09s-.13.24-.21.41a60.17,60.17,0,0,0-5.89,19.73c-.52,4.54-.48,9.42,1.52,13.68a14.83,14.83,0,0,0,3.36,4.56c1,.92,2.14,1.67,3.14,2.58a19,19,0,0,1-.82,28.88,19,19,0,0,1-7.7,3.7,12.72,12.72,0,0,0,1.71-1.18,19.39,19.39,0,0,0,6.91-17.13,19.19,19.19,0,0,0-6.09-11.74c-1-.91-2.14-1.66-3.14-2.59a15.07,15.07,0,0,1-3.36-4.55c-2-4.27-2-9.15-1.52-13.68.78-6.85,5.84-25.88,5.84-25.88.44-.07,6.62,2.41,6.62,2.41Zm38.73-57,.06,0h.06l.09,0h.12l.09,0h.11l.1,0h.1l.11,0h.09l.12,0,.08,0,.13,0h.07l.14,0h.05l1.55.38h0l.21.05.21.06.12,0H206l.11,0h0l.06,0,.15,0h0l.1,0h0a44.43,44.43,0,0,1,8.59,3.34c.54.27,1.07.57,1.58.88,3,1.8,5.73,4.33,6.54,7.76.56,2.42,1.33,5.07.82,7.53l.11,1.29a22,22,0,0,0,.16,4c.1,4.33.74,6.47,4.28,9a14.3,14.3,0,0,0,16.67-.4c.36-.28.71-.59,1.05-.91a14.14,14.14,0,0,1-3.74,4.47,14.29,14.29,0,0,1-16.67.39c-3.54-2.5-2-4.83-2.05-9.17,0-1.44-2.61-4.68-2.4-6.1h0c.52-2.46-.35-4.14-.92-6.57-.81-3.42-3.55-5.95-6.54-7.75-.51-.31-1-.61-1.57-.88a42.79,42.79,0,0,0-5.76-2.46,79.12,79.12,0,0,0,.44,9.47c1.26,9.16,5.08,22.2,4.24,30.82-.57,5.74-1.52,16.34-2.32,23.6a33.84,33.84,0,0,0-.35,8.33A15.09,15.09,0,0,0,210,402.9c2.6,5.83,6.51,10.88,10.35,15.9.74,1,1.52,1.93,2.17,3a19,19,0,0,1-8.64,27.57,18.79,18.79,0,0,1-8.39,1.46c.76-.25,1.52-.54,2.25-.86,4.73-2,8.71-4.14,10.49-9a19.25,19.25,0,0,0-1.7-16.68c-.65-1.05-1.43-2-2.17-3-3.84-5-7.74-10.08-10.34-15.91a15.11,15.11,0,0,1-1.28-4.13,18,18,0,0,1-.15-2.32,55.36,55.36,0,0,1,.5-6c.8-7.26,1.76-17.86,2.32-23.6.85-8.62-3-21.67-4.23-30.83-.79-5.7-.05-12.23-1-17.84.71.12,1.43.25,2.14.4Z"/><path class="cls-18" d="M182.58,371.06a6.84,6.84,0,0,0,.24-.82,15.09,15.09,0,0,0,.28-3.8c3.8-.7,7.53-1.43,11.19-2.11a86.05,86.05,0,0,0,12.52-3.09c1.49-.52,3-1.1,4.41-1.75-.22-2.13-.56-4.37-1-6.62a47.39,47.39,0,0,1-5.41,2.33c-5.25,2-10.93,2.74-16.53,3.77l-6.51,1.21c-1.1-2.31-3.11-4.72-5.6-5.06a16.74,16.74,0,0,0-2.06-.13c-4.44-.26-13.65.6-17.12,1.66-2.19.66-3.89,3-4.42,5.26a7.94,7.94,0,0,0-.21,1.32c-1.75-.06-3.49-.17-5.25-.35-5.57-.57-11.19-1.45-16.17-3.75.12.7.25,1.4.37,2.09,0,0-.82.07-1.87.25-.4.94-.91,2.17-1.49,3.57a102.12,102.12,0,0,0,18.7,4.17c2,.21,4.09.32,6.14.37a13.52,13.52,0,0,0,.48,1.67,29.85,29.85,0,0,1-3.05,2.78,50,50,0,0,1-21.44,10,18.85,18.85,0,0,1-7.6.36.5.5,0,0,0,0,.13c-.58,2.57-1,5.18-1.39,7.8a24.72,24.72,0,0,0,8.32,0,56.63,56.63,0,0,0,17.27-5.72,47,47,0,0,0,13.67-9.75,9.37,9.37,0,0,0,1.25.22,29.67,29.67,0,0,0,3.73.11l1.19-.18,6.94-.45v.06c1.44-.17,2.8-.37,4-.58,5.53,5,11.68,9.34,18.71,11.84a25,25,0,0,0,14.38,1c.29-2.76.6-5.87.9-9a14.91,14.91,0,0,1-3.61,1.37c-4.32.86-8.8-.64-12.64-2.58a56,56,0,0,1-11.29-7.65"/><path class="cls-18" d="M208.59,397.66a53.9,53.9,0,0,0-9.59,1.16,11.78,11.78,0,0,0-1.46-1.91c-1.84-1.89-4.73-3.64-7.3-3.06a18.27,18.27,0,0,0-2,.61c-4.25,1.31-12.57,5.35-15.45,7.56a5.64,5.64,0,0,0-1.76,2.42c.09.63.19,1.25.31,1.88a53.31,53.31,0,0,0,3.39,11l.2.19a5.18,5.18,0,0,0,.64.83c1.77,1.84,5,2.28,7.46,1.64,4-1,13.27-5.43,16.39-7.82,1.82-1.39,2.58-4.2,2.29-6.48a8.6,8.6,0,0,0-.16-.9c.82-.14,1.65-.26,2.46-.37a40,40,0,0,1,6.46-.41c-.18-.36-.35-.73-.52-1.11a15.09,15.09,0,0,1-1.27-4.13c0-.37-.09-.74-.11-1.11"/><path class="cls-18" d="M157,406.3h0m-.27.48.07-.14-.12.27.05-.13m-.2.67,0-.16,0,.27,0-.11m-37.43-4.11a75.31,75.31,0,0,1,16.09-2,18.81,18.81,0,0,1,2.07.05c2.63.26,4.82,2.84,6,5.21a11.09,11.09,0,0,1,.56,1.49c2.07-.06,4.16-.18,6.21-.42a29.61,29.61,0,0,0,5.47-1l.66-.23c.4-.2.78-.42,1.16-.65a19.3,19.3,0,0,0,1.65,6.13l.08.17a21.11,21.11,0,0,1-6.47,1.65,75.05,75.05,0,0,1-7.93.68,10.73,10.73,0,0,1-.19,1.83c-.45,2.25-2.05,4.68-4.22,5.43-3.55,1.23-13.08,2.42-17.47,2.28,0-.09-.07-.19-.11-.28a61.07,61.07,0,0,1-3.53-20.33"/><path class="cls-18" d="M127.19,328.81a51.64,51.64,0,0,1-14.92-2,35.57,35.57,0,0,1-18.83-13C87.08,305,85.5,293.75,86.38,283a14.57,14.57,0,0,1,2.72-7.38,14.41,14.41,0,0,0-6.5,11c-.88,10.77.7,22.06,7.06,30.84a35.59,35.59,0,0,0,18.83,13,54.06,54.06,0,0,0,18.77,1.88c0-1.2-.07-2.35-.07-3.45"/><path class="cls-19" d="M143.87,327.23c.64-3.18,1.71-7.31,4.72-8.52,5.23-2.09,20.76-4.63,26.64-4,3.8.37,7,4.08,8.64,7.51a27.43,27.43,0,0,1,1.77,14c-.65,3.25-3,6.77-6.1,7.86a66.54,66.54,0,0,1-10.69,2.21,90.58,90.58,0,0,1-15.36,1.08c-3.67-.24-7.9-2.32-9.49-5.64s-.89-10.59-.13-14.41"/><path class="cls-20" d="M128,304.25a28.6,28.6,0,0,0,11.35,4.56c1.87.29,48.9-2.14,60.47-6.61a26.9,26.9,0,0,0,7.36-4.38l-1.91-.41q-2.17-.45-4.38-.81a23.72,23.72,0,0,1-2.52,1.14c-13.33,5.16-46.33,8.76-60.46,6.61a25.22,25.22,0,0,1-4.24-1,52.36,52.36,0,0,1-5.67.94"/><path class="cls-21" d="M220.22,301.85c-.65.95-1.27,1.92-1.88,2.84a72.89,72.89,0,0,0-10.21,22.38,43.78,43.78,0,0,1,4.32,1.93c.53.28,1.06.58,1.57.89s1,.63,1.5,1c.06-.29.13-.57.2-.86a67.07,67.07,0,0,1,9.9-21.75c.63-.94,1.23-1.92,1.88-2.85a61.26,61.26,0,0,0-7.28-3.56"/><path class="cls-21" d="M209.3,323c-.44,1.35-.84,2.72-1.17,4.1h0l.08,0,0,0h0l.05,0,0,0h0l0,0,.08,0,.06,0,.1,0h0l.06,0,.05,0h0l0,0,0,0h0l.06,0,.05,0h0l.15.06h0l0,0,.07,0h.07l0,0h0l.06,0,.05,0h0l.15.06h.06l.08,0H210l0,0,0,0,.07,0h0l.16.07h0l0,0,.1,0h.05l0,0,.05,0,.07,0h0l.15.07h0l.1,0,0,0h0l.05,0,.06,0h0l.16.08h0l.11.05h0l0,0,.05,0,.06,0h0l.16.08h0l.12.06,0,0h0l.05,0,.06,0,0,0h0l.16.09c.53.27,1.06.57,1.57.88l.13.07h0l0,0,.08.05h0l.12.08h0l0,0,.07,0h0l.12.07h0l.05,0h0a.24.24,0,0,0,.08.06h0l0,0,0,0h0l.17.12h0l0,0,0,0h0l.18.12h0l0,0,.05,0c.06-.29.13-.57.19-.86.3-1.24.63-2.46,1-3.68h0c-.51-.31-1-.61-1.58-.88A41.48,41.48,0,0,0,209.3,323"/><path class="cls-21" d="M120.66,304.89h0m-6.25-2.06a14.85,14.85,0,0,0,5.21,1.41c1,.11,1.94.19,2.91.22a8.69,8.69,0,0,0-.4.81,34.93,34.93,0,0,0-2.91,11.7,31.22,31.22,0,0,0,.75,11.9,6.8,6.8,0,0,0,2.07,3.51,53.5,53.5,0,0,1-9.77-1.06,30.43,30.43,0,0,1-1.07-5.68A47.76,47.76,0,0,1,114,304l.45-1.17"/><path class="cls-21" d="M111.3,326.5a29,29,0,0,0,1,4.82l.15,0h0l.15,0h0l.14,0h0l.14,0h0l.12,0h0l.12,0h0l.12,0h0l.12,0h0l.12,0h0l.13,0h0l.13,0h0l.13,0h0l.14,0h0l.14,0h0c.45.08.91.14,1.37.2h0l.15,0h0l.13,0h0l.13,0h0l.12,0h0l.12,0h.79l.12,0h.18l.12,0h.64c.56.05,1.12.09,1.68.11h1.08l.92,0a6.8,6.8,0,0,1-2.07-3.51c0-.17-.1-.33-.14-.5a46.79,46.79,0,0,1-7.56-1.57l-1-.3"/><path class="cls-21" d="M171.73,381.27c-.17,1.75-.36,3.5-.55,5.26-.14,1.2-.25,2.41-.35,3.62a24.84,24.84,0,0,1,5.08-1.69,57.73,57.73,0,0,1,18.78-1.27A42.49,42.49,0,0,1,209,390.54v-.1c.27-2.47.56-5.32.85-8.23-8.37-3.19-17.71-3.76-26.46-3a53.57,53.57,0,0,0-11.71,2.11"/><path class="cls-21" d="M180.2,379.49a53.49,53.49,0,0,0,12.52,7.56c.66,0,1.31.08,2,.14A42.49,42.49,0,0,1,209,390.54v-.1l.06-.55,0-.16,0-.43,0-.14c0-.4.09-.81.13-1.22v-.15l0-.14v-.1l0-.2v-.17c0-.47.09-.95.14-1.42v-.21l0-.2V385l0-.33,0-.21v-.17l.09-.89v-.05c0-.37.07-.74.11-1.11a45.56,45.56,0,0,0-5.58-1.73c0,.35-.07.71-.1,1.06a21.92,21.92,0,0,1-9.7-2.51,77.17,77.17,0,0,0-11.08.13c-1.08.09-2.16.19-3.24.33"/><path class="cls-21" d="M121.94,381.63c-.3,1-.56,2-.75,2.9-.39,1.75-.74,3.51-1,5.28a50,50,0,0,1,5.59-.27c11.34,0,22.78,3.13,31.5,10.53,0-.62.1-1.23.17-1.84a56.9,56.9,0,0,1,1.27-7.11c-9.83-6.66-22.19-9.73-33.65-9.62-1,0-2.07.06-3.11.13"/><path class="cls-21" d="M121.22,384.4a18.85,18.85,0,0,0,7.6-.36,51.29,51.29,0,0,0,6.56-1.79,61.49,61.49,0,0,1,12.23,3.18c-.74.41-1.48.79-2.22,1.17a65.77,65.77,0,0,1-9.28,3.85,57,57,0,0,0-10.35-.91,50,50,0,0,0-5.59.27c0-.1,0-.2,0-.3v-.05l0-.13v-.06l0-.12,0-.11V389l0-.12,0-.1v-.16l0-.12,0-.1,0-.13v-.08h0l0-.18v-.08l0-.15v-.06l0-.2v-.08l0-.15v-.06l0-.21,0-.06,0-.16v-.06l0-.21v-.05l0-.17v-.06l0-.08,0-.23,0-.09.06-.25v0l.07-.3v-.08l0-.22,0-.09.07-.29Zm32.71,3.87a49.64,49.64,0,0,1,4.77,2.85l0,.13,0,.08v0h0c0,.14-.07.28-.1.42h0v0l0,.08,0,.11h0a1.6,1.6,0,0,1-.05.21h0v0l0,.11,0,.07v0l-.09.41V393l0,.11v0h0c0,.07,0,.14,0,.21h0v0l0,.1v.12c0,.13,0,.27-.08.4v.12l0,.1v0h0c0,.07,0,.14,0,.2v0l0,.1v.12c0,.13,0,.26-.07.4v.12l0,.1v0l0,.19v.26l-.06.4v.12l0,.1v0h0l0,.2h0v.25l-.06.4v.25h0l0,.2h0V398c0,.07,0,.13,0,.2l0,.22h0v.06l0,.14h0v1.4a41.17,41.17,0,0,0-5.1-3.68c.47-2.45,1.11-5.31,1.77-8.12"/><path class="cls-22" d="M142.66,324.88c.64-3.18,1.7-7.31,4.72-8.52,5.23-2.1,20.76-4.63,26.64-4.06,3.8.38,7,4.09,8.64,7.52a27.39,27.39,0,0,1,1.76,13.95c-.64,3.26-3,6.78-6.09,7.86-5.36,1.86-20.13,3.69-26.05,3.3-3.67-.25-7.9-2.33-9.49-5.65s-.9-10.58-.13-14.4"/><path class="cls-23" d="M140.29,323.45c.65-3.25,3-6.77,6.1-7.86,5.36-1.86,20.4-3.76,26-3.29,3.31.27,6.43,3.11,7.86,6.09a28.55,28.55,0,0,1,1.77,14c-.65,3.25-3,6.77-6.1,7.86-5.35,1.85-20.39,3.76-26,3.29-3.31-.27-6.43-3.11-7.86-6.1a28.5,28.5,0,0,1-1.77-13.95"/><path class="cls-22" d="M146.83,323.85a3.94,3.94,0,0,1,2.07-3,30.58,30.58,0,0,1,9-1.14,4,4,0,0,1,2.76,2.42,12.58,12.58,0,0,1,.68,5.44,3.94,3.94,0,0,1-2.07,3,30.56,30.56,0,0,1-9,1.14,4,4,0,0,1-2.77-2.42,12.43,12.43,0,0,1-.68-5.44"/><path class="cls-22" d="M165.05,324.07a2.26,2.26,0,0,1,1.3-1.67,20.73,20.73,0,0,1,5.54-.7,2.26,2.26,0,0,1,1.68,1.29,6,6,0,0,1,.37,3,2.25,2.25,0,0,1-1.29,1.68,21.28,21.28,0,0,1-5.55.7,2.24,2.24,0,0,1-1.67-1.3,6,6,0,0,1-.38-3"/><path class="cls-22" d="M148.8,336.15a8.87,8.87,0,0,1,4.6-2.07c3.76-.73,14.09-2,17.9-2.27a9,9,0,0,1,5,.87,2.12,2.12,0,0,1,.37,2.94,9,9,0,0,1-4.6,2.07c-3.76.73-14.09,2-17.9,2.27a9,9,0,0,1-5-.87,2.12,2.12,0,0,1-.37-2.94"/><path class="cls-24" d="M208.55,396.45a55,55,0,0,0-14,1.75,80.91,80.91,0,0,0-12.84,4.18,42.56,42.56,0,0,0-9.52,5.26l-.27.22-.17.17a51.81,51.81,0,0,0,1.48,5.22,3.23,3.23,0,0,0,2.6-.41c.91-.62,1.78-1.29,2.73-1.84a64,64,0,0,1,23.68-7.8,37.47,37.47,0,0,1,7.77-.33,14.89,14.89,0,0,1-1.27-4.1,16.34,16.34,0,0,1-.15-2.32"/><path class="cls-25" d="M170.54,407.71c-.27-2.23-.46-5.17,1.25-6.62,3-2.51,12.63-7.55,16.62-8.45,2.57-.58,5.46,1.17,7.3,3.06a19,19,0,0,1,4.19,8.78c.28,2.27-.47,5.09-2.29,6.48-3.12,2.39-12.42,6.8-16.39,7.82-2.47.64-5.7.2-7.46-1.64s-2.89-6.75-3.22-9.43"/><path class="cls-26" d="M168.68,407.29c-.28-2.28.48-5.09,2.3-6.48,3.11-2.39,12.57-6.9,16.38-7.83,2.23-.53,4.9.65,6.49,2.3a19.74,19.74,0,0,1,4.19,8.78c.28,2.27-.48,5.09-2.3,6.48-3.11,2.39-12.57,6.9-16.39,7.82-2.22.54-4.89-.64-6.48-2.29a19.84,19.84,0,0,1-4.19-8.78"/><path class="cls-24" d="M156.3,404.61h0m-.27.49.07-.15-.12.28.05-.13m-.17.51-.05.27,0-.11Zm1.3-1.89a22.2,22.2,0,0,0,1.16,6.67,21.05,21.05,0,0,1-6.47,1.66,78.43,78.43,0,0,1-12.92.7c-1.31,0-2.65.16-4,.1-2.29-.1-4.37-1.14-4.66-3a3.3,3.3,0,0,1,1.73-3.34,3.37,3.37,0,0,1,2.55-.11c.32.12.15.09.24.1a25.72,25.72,0,0,0,3.82-.07A79.87,79.87,0,0,0,149.3,406a30.21,30.21,0,0,0,5.46-1l.67-.22c.48-.24.94-.52,1.4-.8l.33-.23"/><path class="cls-25" d="M114.86,408.37c.44-2.21,1.18-5.06,3.27-5.89,3.61-1.45,14.36-3.19,18.43-2.78,2.62.26,4.82,2.83,6,5.21a18.94,18.94,0,0,1,1.2,9.65c-.45,2.25-2,4.68-4.22,5.43-3.71,1.28-13.92,2.53-18,2.25-2.54-.17-5.46-1.62-6.56-3.91s-.61-7.32-.07-10"/><path class="cls-26" d="M113.22,407.37c.45-2.24,2.06-4.68,4.22-5.42,3.71-1.28,14.12-2.58,18-2.26,2.29.2,4.44,2.16,5.43,4.23a19.74,19.74,0,0,1,1.21,9.65c-.45,2.25-2.06,4.68-4.22,5.43-3.71,1.28-14.12,2.58-18,2.25-2.29-.19-4.44-2.15-5.43-4.22a19.78,19.78,0,0,1-1.21-9.66"/><path class="cls-24" d="M208.73,354.16l-.12-.57a3.23,3.23,0,0,0,.06.33l.06.24m.35.73c-.11-.21-.21-.41-.31-.62a3.83,3.83,0,0,0,.31.62m.5.6-.48-.57a2.64,2.64,0,0,0,.48.57M130,357.34c5,2.3,10.6,3.18,16.17,3.75,14,1.42,27.6-1.4,41.17-3.91,5.6-1,11.28-1.81,16.54-3.77a45.64,45.64,0,0,0,5.63-2.46l.34-.31c.43,2.27.82,4.53,1.12,6.72a50.24,50.24,0,0,1-5.14,2.09,85.42,85.42,0,0,1-12.52,3.09c-15.06,2.8-31.57,6.48-47.6,4.88-5.88-.58-11.76-1.54-17.14-3.78,1-2.48,1.76-4.13,1.81-4.21-.13-.69-.25-1.39-.38-2.09"/><path class="cls-25" d="M153.23,361.17c.52-2.18,1.37-5,3.49-5.76,3.66-1.31,14.47-2.64,18.52-2.09,2.61.37,4.71,3,5.77,5.43a19,19,0,0,1,.84,9.7c-.54,2.22-2.23,4.59-4.43,5.26-3.75,1.14-14,2-18.09,1.57-2.53-.26-5.39-1.81-6.41-4.15s-.33-7.34.31-10"/><path class="cls-26" d="M151.63,360.12c.53-2.23,2.23-4.6,4.42-5.27,3.76-1.14,14.2-2,18.09-1.57,2.28.28,4.36,2.32,5.27,4.43a19.66,19.66,0,0,1,.84,9.68c-.53,2.23-2.23,4.6-4.42,5.27-3.75,1.14-14.2,2-18.09,1.57-2.28-.28-4.36-2.32-5.27-4.42a19.82,19.82,0,0,1-.84-9.69"/><path class="cls-24" d="M211.33,365.13a6.22,6.22,0,0,1,0,2c-.32,1.84-1.85,2.87-3.45,3.44a26,26,0,0,1-10.83.86c-6.74-.57-13.63-2.25-19.17-5.73a7.75,7.75,0,0,1-3.29-3.09l-.1-.2a3.3,3.3,0,0,0-3.56-1.62,2.07,2.07,0,0,0-.62.23,2.53,2.53,0,0,0-.9.64,3.41,3.41,0,0,0-.45,3.9c1.46,2.92,4.32,4.93,7.21,6.48a52.22,52.22,0,0,0,21.68,5.81,31.76,31.76,0,0,0,11.64-1.13,12.63,12.63,0,0,0,7.28-5.37c1.76-3,1.59-6.92.41-10.33-.85-2.48-2.7-4.55-4.14-6.73a4.49,4.49,0,0,0-1.6-1.31,2.79,2.79,0,0,0-1.31-.16c.89,4.41,1.66,8.66,1.2,12.29"/><path class="cls-24" d="M129.47,354.08a3.2,3.2,0,0,0-1.86-.13,2.75,2.75,0,0,0-.63.22,2.42,2.42,0,0,0-1,.81c-.3.35-.56.75-.84,1.13-3.3,4.55-6.52,9.39-7.57,14.85-.56,2.93-.2,6.24,1.88,8.55,2.26,2.51,6,3.3,9.32,3.25,5.35-.08,10.62-1.72,15.61-3.89,6-2.6,11.79-6.06,15.95-10.89a20.58,20.58,0,0,0,1.78-2.39,3.75,3.75,0,0,0,.32-.64,3.25,3.25,0,0,0-1-3.59,3.29,3.29,0,0,0-4.52.61c-4.48,6.12-11.61,10.1-18.92,12.58-3.5,1.19-7.17,2.17-10.83,1.8-1.18-.11-2.51-.35-3.13-1.27s-.38-2.53,0-4c1.2-4.18,3.74-7.9,6.4-11.51-.34-1.8-.65-3.65-.94-5.51"/><path class="cls-17" d="M217.83,246.91c-2.2-28.35-28.48-49.47-58.65-47.13a56.4,56.4,0,0,0-38.08,18.73A42.12,42.12,0,0,0,108.85,241c-2.46,11.36-.06,33.27,4.79,43.83,4.34,9.45,14,18,24.31,19.52,14.13,2.15,47.13-1.45,60.46-6.61,9.7-3.74,17.33-14.15,19.53-24.31,1.37-6.37,1.22-16.07,0-25.21"/><path class="cls-19" d="M208.73,231.66c-3.69-7.47-13.24-15-22.1-16.22-15.45-2.15-45.26,1-57.66,7.47-10.55,5.51-13.82,10.67-16.13,17.77a32,32,0,0,0-1.24,5.93,1.13,1.13,0,0,0-.41,0c-1.64.23-2.73,3.73-2.43,7.81.27,3.69,1.58,6.6,3,7a28.47,28.47,0,0,0,3.07,9.88c3.8,6.43,12.28,13.41,21.81,14.23,13.12,1.12,44-2.26,56.53-6.18,9.13-2.86,16.52-10.27,18.83-17.37a20.37,20.37,0,0,0,.77-3.41"/><path class="cls-19" d="M217.91,248.22c1.25,9.14-2.61,13.78-4,20.15-2.2,10.16-9.83,20.57-19.52,24.31-13.33,5.16-46.34,8.78-60.46,6.61-14.43-2.21-21.7-16.31-23.22-23.23,4.51,20.51,18.59,27,27.22,28.29,14.13,2.15,47.13-1.45,60.46-6.61,9.7-3.74,17.33-14.15,19.53-24.31,1.37-6.37,1.22-16.07,0-25.21"/><path class="cls-27" d="M110.72,240.59c2.31-7.1,6.1-14.1,16.65-19.62,12.39-6.48,42.21-9.61,57.66-7.46,8.85,1.24,19.64,9.91,23.33,17.38,0,0,3.31,4.77,5,15.48,2.25,24-12.65,28.13-21.78,31-12.56,3.92-43.41,7.29-56.52,6.17-9.53-.81-18-7.79-21.81-14.22-4.24-7.2-4.62-22.63-2-30.56"/><path class="cls-22" d="M109.59,244.66c1.63-.23,3.21,2.9,3.5,7s-.79,7.58-2.43,7.81-3.21-2.89-3.5-7,.79-7.58,2.43-7.82"/><path class="cls-27" d="M108.86,245c1.49-.21,2.92,2.8,3.21,6.72s-.69,7.28-2.17,7.49-2.92-2.81-3.21-6.73.69-7.27,2.17-7.48"/><path class="cls-22" d="M214.15,238.55c1.6-.37,3.44,2.59,4.09,6.61s-.12,7.58-1.72,8-3.44-2.58-4.1-6.61.12-7.59,1.73-8"/><path class="cls-27" d="M214.87,238.75c1.45-.34,3.14,2.52,3.77,6.39s0,7.27-1.49,7.61-3.14-2.52-3.77-6.38,0-7.28,1.49-7.62"/><path class="cls-28" d="M204.67,229c-8.08-13.05-26.39-16.46-47.49-13.63-17,2.28-31.92,6.56-39.11,17.46a31,31,0,0,0-4.44,8.77c-2.47,7.48-.8,22.06,3.19,28.82,3.57,6,12.61,12.15,21.63,12.88,12.4,1,41.59-2.25,53.49-6,8.64-2.71,15.65-9.71,17.86-16.4,2.47-7.48.4-21.53-3-28.47Z"/><path class="cls-29" d="M207.2,234.48c-9.83-7.58-24.58-11.41-40.37-9.34-16.93,2.22-31,10.71-38.09,21.64a30.79,30.79,0,0,0-4.4,8.81c-1.89,5.81-1.28,15.89.94,23.32a29.82,29.82,0,0,0,13.05,4.65c12.4,1.07,41.56-2.1,53.43-5.8,8.63-2.7,15.61-9.71,17.79-16.43,2.25-6.92.62-19.44-2.35-26.85"/><g class="cls-30"><path class="cls-31" d="M176.23,221.06s-48.57-3.4-56.21,20.62"/></g><g class="cls-32"><path class="cls-17" d="M117.87,252.05a4.61,4.61,0,1,0,6,2.45,4.61,4.61,0,0,0-6-2.45"/></g><path class="cls-17" d="M83,280.65a17.31,17.31,0,0,1-1.4-13.11c1.18-3.66-5.89-14.85-1-17.36,2.14-1.08,4.29,6.83,5.41,9.8,0,0-2.85-13.24,0-14.59,2.44-1.15,6,10.35,6,10.35s.39-14.49,3-14.73c3.61-1,5,13.62,5,13.62s1.78-13.13,5.79-12.81.32,21.77,2.51,23.12c1.69-.69,3.87-4.4,5.56-5.53,3-2,5.05-1.06,4,3-1.63,6.31-6.23,16.27-8.87,17.37S83,280.65,83,280.65Z"/><path class="cls-20" d="M82.84,284.82c4.89-3.35,21.31-4.86,27.24-.71.72-.45.15-3.31-1-4.34-2.19-1.17-11.07-5.74-25.74.62C81.38,281.61,82.84,284.82,82.84,284.82Z"/><path class="cls-19" d="M105.91,278.37s17.92-20.87,7.83-18.8c8.08-5.5,5.44,8.39-4.64,20.2"/><path class="cls-19" d="M108.25,264.8c-3.82-1.35,1.79-24.74-5.2-20.69,1.23-1.85,1.49-2.13,2.93-2.32,1.35.32,1.66,2.47,1.84,5.47C108.19,253.31,107.17,262.54,108.25,264.8Z"/><path class="cls-19" d="M100.1,254.63c-1.55-4.37-2.9-16.48-6.5-11.49C94.51,239.45,98.93,238.07,100.1,254.63Z"/><path class="cls-19" d="M92.08,255.74c-3.25-10-6.36-13.54-7.18-8C87.46,243.91,88.94,251.54,92.08,255.74Z"/><path class="cls-19" d="M86.06,260c-2-.17-4.5-14-7.17-6.38a4.14,4.14,0,0,1,.45-2.12C82.16,246.23,84.81,256.36,86.06,260Z"/><path class="cls-19" d="M84.89,267.59a17,17,0,0,1,8.61,2.92c.52.49,5.74-5.22,10.13-5.83,0,0-5.09-3.09-7.85.58C92.34,268.76,90.74,262.39,84.89,267.59Z"/><path class="cls-17" d="M248.76,343.71A33.25,33.25,0,0,1,252,356.49c-.63,3.79,5.56,11.42,2.54,16.13-4.13,2.66-1.55-4.53-5.85-8,0,0,3.44,10.2-.19,15.55-4.17,4.86-2-9.44-5.14-10.5-.57-1.13,2,10.73-4.58,14.82-3.43,1.55-.24-9.8-3.2-12.55-.24,1.05-2.59,12.32-6.6,12.58-3.84-.55,3.45-15.59-3.1-21.59-1.58.93-.06,7.78-1.57,9.16-2.7,2.44-6.32-6.84-5.87-11,.69-6.48,3.22-11.12,4.6-12.73C224.94,346.19,248.76,343.71,248.76,343.71Z"/><path class="cls-20" d="M248.32,339.57c-4.35,4-20.37,7.89-26.84,4.64-.65.55.33,3.29,1.6,4.16,2.33.83,11.78,4.07,25.38-4.35C250.24,342.53,248.32,339.57,248.32,339.57Z"/><path class="cls-19" d="M224.86,348.92l-1.78-.55s-8.61,8.11-2.71,21c1.66,3.46-.11-3.27.32-9.88C221,354.74,223.28,350.21,224.86,348.92Z"/><path class="cls-19" d="M288,338.39l-1.78-.56s-8.62,8.11-2.71,21c1.66,3.46-.12-3.27.32-9.88C284.16,344.21,286.44,339.67,288,338.39Z"/><path class="cls-19" d="M225.92,362.93s7.39-1.48,3.45,19.65c-.16.84.34,1.85,1.09,1.25s-1.31,2.05-2.59-.32C226.83,380.19,231.42,368.06,225.92,362.93Z"/><path class="cls-19" d="M235.62,371.94c2.34,3.81,1.11,8.48,1.48,10.26,0,0,0,5.25,3.89.28,0,0-2.87,4.37-2.32-1.38S237.7,373.44,235.62,371.94Z"/><path class="cls-19" d="M243.4,369.67c-.08.46,1.74-1.18,2.31,8.5.69,5.6,3.3,2.05,3.8,0,0,0-2.32,5.4-2.68-1.09S244.38,369.22,243.4,369.67Z"/><path class="cls-19" d="M248.73,364.62c2.6,3.1,2.3,3.8,3.06,6.6s2.13,3.23,3.38.1c0,0-1.08,3.34-2.09-.72S250.06,365,248.73,364.62Z"/></g></g><path class="cls-33" d="M208.8,19.47c-5.21-20.55-23.88-19-23.88-19L148.41,7.75,62.5,24.86,26,32.13S8.15,37.84,11.21,58.82,77,389,77,389s5.85,18.27,27.35,14l75.17-15,75.17-15c21.51-4.28,19.91-23.39,19.91-23.39S214,40,208.8,19.47Zm55.25,322.12s1.57,18-18.07,22l-68.65,13.67-68.65,13.68C89,394.8,83.59,377.53,83.59,377.53S24.4,85.47,21.48,65.65,34.83,40.56,34.83,40.56l33.35-6.64c3.92-.78,5.88,3.93,5.88,3.93l1.37,6.86c1,4.91,6.86,3.74,6.86,3.74l28.44-5.67,28.44-5.66S145.06,36,144.08,31l-1.37-6.86s0-5.1,3.93-5.88L180,11.66s17.07-1.36,22,18.06S264.05,341.59,264.05,341.59Z"/><path class="cls-1" d="M239.51,384a.89.89,0,0,0,.23-.13,9,9,0,0,0,.67-.69A7.82,7.82,0,0,1,239.51,384Z"/><path class="cls-6" d="M243.78,369.89c1.47,1.19,1.51,5.95,2,8.9,0-.2-.07-.39-.1-.62C245.32,371.48,244.33,370.2,243.78,369.89Z"/><path class="cls-6" d="M218.81,364.83v0h0Z"/><path class="cls-6" d="M218.72,364.42v0Z"/><path class="cls-6" d="M237.21,383.18c.18,1.07.58,1.66,1.43,1.37C237.73,384.81,237.36,383.94,237.21,383.18Z"/><path class="cls-6" d="M237.1,382.19v0h0Z"/><path class="cls-6" d="M252.56,373a5.2,5.2,0,0,1-.76-1.74A3.21,3.21,0,0,0,252.56,373Z"/><path class="cls-6" d="M237.05,380.28a24,24,0,0,0-.13-4.64C237.07,377.12,237,378.79,237.05,380.28Z"/><path class="cls-6" d="M254.47,372.68l.11-.06a4.8,4.8,0,0,0,.52-1.1,4.49,4.49,0,0,1-.27.54A5.68,5.68,0,0,1,254.47,372.68Z"/><path class="cls-6" d="M228.21,384a1.06,1.06,0,0,0,.81.53h.1A1.35,1.35,0,0,1,228.21,384Z"/><path class="cls-6" d="M246,379.8c0-.11-.06-.24-.09-.36A2.37,2.37,0,0,0,246,379.8Z"/><path class="cls-6" d="M253.08,370.6c.66,2.67,1.36,2.14,1.75,1.46a6.21,6.21,0,0,0,.29-.63c1.51-4.72-3.66-11.45-3.08-14.94a33.25,33.25,0,0,0-3.28-12.78s-23.82,2.48-25.68,4.66l1.78.55c-1.58,1.29-3.86,5.83-4.17,10.54a44.5,44.5,0,0,0,0,5l4.75-.95a1.28,1.28,0,0,1,.47-.62s7.39-1.48,3.45,19.65c-.16.84.34,1.85,1.09,1.25.19-.15.19-.09.08,0,3.08-2.45,4.87-11,5.08-11.93,2.08,1.5,3.61,3.41,3,9.16-.26,2.71.24,3.16.84,2.89a7.82,7.82,0,0,0,.9-.82c.17-.19.35-.4.54-.65,3.8-5,2-13.83,2.45-12.85,1-.45,3.07.95,3.43,7.44s2.57,1.33,2.67,1.1c1.94-5.55-.77-13.59-.77-13.59C250.06,365,252.08,366.53,253.08,370.6Z"/><path class="cls-6" d="M246.07,379.9c.22.76.53,1.24,1,1.26C246.68,381.09,246.33,380.72,246.07,379.9Z"/><path class="cls-18" d="M218.81,364.83l-.09-.41Z"/><path class="cls-18" d="M223.08,348.37a17.77,17.77,0,0,0-4.37,16,11.57,11.57,0,0,1-.23-3.26C219.17,354.62,221.7,350,223.08,348.37Z"/><path class="cls-18" d="M220.7,364.5a44.5,44.5,0,0,1,0-5c.31-4.71,2.59-9.25,4.17-10.54l-1.78-.55c-1.38,1.61-3.91,6.25-4.6,12.73a11.57,11.57,0,0,0,.23,3.26v.06l.09.41v0Z"/><path class="cls-18" d="M225.92,362.93c5.5,5.13.91,17.26,2,20.58a2.37,2.37,0,0,0,.34.48C226.44,381.2,231.85,368.36,225.92,362.93Z"/><path class="cls-18" d="M229.12,384.51a1.91,1.91,0,0,0,1.42-.64A2.8,2.8,0,0,1,229.12,384.51Z"/><path class="cls-18" d="M230.46,383.83c-.75.6-1.25-.41-1.09-1.25,3.94-21.13-3.45-19.65-3.45-19.65,5.93,5.43.52,18.27,2.29,21.06a1.35,1.35,0,0,0,.91.52,2.8,2.8,0,0,0,1.42-.64C230.65,383.74,230.65,383.68,230.46,383.83Z"/><path class="cls-18" d="M239.74,383.86a6.26,6.26,0,0,0,1.25-1.38l0,0c-.17.23-.35.44-.54.65A9,9,0,0,1,239.74,383.86Z"/><path class="cls-18" d="M237.21,383.18a8.68,8.68,0,0,1-.11-1A5.73,5.73,0,0,0,237.21,383.18Z"/><path class="cls-18" d="M237.1,382.19c0-.58,0-1.22,0-1.91A8.66,8.66,0,0,0,237.1,382.19Z"/><path class="cls-18" d="M235.62,371.94a9.84,9.84,0,0,1,1.3,3.7A5.85,5.85,0,0,0,235.62,371.94Z"/><path class="cls-18" d="M238.82,384.49l-.18.06a2.82,2.82,0,0,0,1.1-.69.89.89,0,0,1-.23.13C239.29,384.17,239.06,384.33,238.82,384.49Z"/><path class="cls-18" d="M241,382.52c-.19.25-.37.46-.54.65C240.6,383,240.78,382.75,241,382.52Z"/><path class="cls-18" d="M239.51,384c-.6.27-1.1-.18-.84-2.89.56-5.75-1-7.66-3-9.16a5.85,5.85,0,0,1,1.3,3.7,24,24,0,0,1,.13,4.64c0,.69,0,1.33,0,1.91h0a8.68,8.68,0,0,0,.11,1c.15.76.52,1.63,1.43,1.37l.18-.06C239.06,384.33,239.29,384.17,239.51,384Z"/><path class="cls-18" d="M243.4,369.67c0,.14.13.09.38.22A1.45,1.45,0,0,0,243.4,369.67Z"/><path class="cls-18" d="M246.07,379.9l0-.1Z"/><path class="cls-18" d="M245.81,378.79c0,.23.09.45.14.65C245.9,379.23,245.85,379,245.81,378.79Z"/><path class="cls-18" d="M247.05,381.16c1,.2,2.14-1.68,2.46-3h0a8.49,8.49,0,0,1-1,2C247.91,380.9,247.43,381.19,247.05,381.16Z"/><path class="cls-18" d="M246.83,377.11c-.36-6.49-2.45-7.89-3.43-7.44a1.45,1.45,0,0,1,.38.22c.55.31,1.54,1.59,1.93,8.28,0,.23.07.42.1.62s.09.44.14.65.05.25.09.36l0,.1c.26.82.61,1.19,1,1.26s.86-.26,1.49-1a8.49,8.49,0,0,0,1-2C249.4,378.44,247.18,383.46,246.83,377.11Z"/><path class="cls-18" d="M252.56,373c.56.72,1.24.67,1.91-.32C253.54,373.25,253,373.31,252.56,373Z"/><path class="cls-18" d="M255.12,371.43s0,.06,0,.09l.07-.2Z"/><path class="cls-18" d="M251.79,371.22v0c-.44-1.91-.78-4.8-3.07-6.64C251.33,367.72,251,368.42,251.79,371.22Z"/><path class="cls-18" d="M254.83,372.06a4.49,4.49,0,0,0,.27-.54s0-.06,0-.09A6.21,6.21,0,0,1,254.83,372.06Z"/><path class="cls-18" d="M253.08,370.6c-1-4.07-3-5.56-4.35-6,2.29,1.84,2.63,4.73,3.07,6.64a5.2,5.2,0,0,0,.76,1.74c.39.31,1,.25,1.91-.32a5.68,5.68,0,0,0,.36-.62C254.44,372.74,253.74,373.27,253.08,370.6Z"/><path class="cls-20" d="M248.32,339.57c-4.35,4-20.37,7.89-26.84,4.64-.65.55.33,3.29,1.6,4.16,2.33.83,11.78,4.07,25.38-4.35C250.24,342.53,248.32,339.57,248.32,339.57Z"/></svg>