<svg xmlns="http://www.w3.org/2000/svg" xmlns:xlink="http://www.w3.org/1999/xlink" viewBox="0 0 363 321"><defs><style>.cls-1{fill:none;}.cls-2{fill:url(#linear-gradient);}.cls-3{fill:url(#Degradado_sin_nombre_182);}.cls-4{fill:url(#Degradado_sin_nombre_118);}.cls-5{isolation:isolate;}.cls-6{clip-path:url(#clip-path);}.cls-7{fill:url(#Degradado_sin_nombre_19);}.cls-8{clip-path:url(#clip-path-2);}.cls-9{fill:#fff;}.cls-10{opacity:0.1;}.cls-11{fill:url(#linear-gradient-2);}.cls-12{fill:url(#Degradado_sin_nombre_38);}.cls-13{fill:url(#Degradado_sin_nombre_109);}.cls-14{fill:url(#Degradado_sin_nombre_109-2);}.cls-15{fill:url(#Degradado_sin_nombre_109-3);}.cls-16{fill:url(#Degradado_sin_nombre_109-4);}.cls-17{clip-path:url(#clip-path-4);}.cls-18,.cls-20,.cls-36,.cls-41,.cls-48{opacity:0.3;}.cls-18{fill:url(#Degradado_sin_nombre_191);}.cls-19{fill:url(#Degradado_sin_nombre_65);}.cls-20{fill:url(#Degradado_sin_nombre_184);}.cls-21{clip-path:url(#clip-path-6);}.cls-22{fill:url(#Degradado_sin_nombre_67);}.cls-23{clip-path:url(#clip-path-7);}.cls-24{opacity:0.25;}.cls-25{fill:url(#Degradado_sin_nombre_67-2);}.cls-26{fill:url(#Degradado_sin_nombre_67-3);}.cls-27{fill:url(#Degradado_sin_nombre_67-4);}.cls-28{fill:url(#Degradado_sin_nombre_67-5);}.cls-29{fill:url(#Degradado_sin_nombre_109-5);}.cls-30{fill:url(#Degradado_sin_nombre_109-6);}.cls-31{fill:url(#Degradado_sin_nombre_143);}.cls-32{clip-path:url(#clip-path-8);}.cls-33,.cls-35,.cls-39,.cls-45{opacity:0.4;}.cls-33{fill:url(#linear-gradient-3);}.cls-34{clip-path:url(#clip-path-9);}.cls-35{fill:url(#Degradado_sin_nombre_182-3);}.cls-36{fill:url(#Degradado_sin_nombre_118-2);}.cls-37{fill:url(#Degradado_sin_nombre_118-3);}.cls-38{clip-path:url(#clip-path-10);}.cls-39{fill:url(#Degradado_sin_nombre_118-5);}.cls-40{mix-blend-mode:screen;}.cls-41{fill:url(#linear-gradient-4);}.cls-42{opacity:0.8;fill:url(#linear-gradient-5);}.cls-43{fill:url(#linear-gradient-6);}.cls-44{clip-path:url(#clip-path-11);}.cls-45{fill:url(#linear-gradient-8);}.cls-46{clip-path:url(#clip-path-12);}.cls-47{clip-path:url(#clip-path-13);}.cls-49{fill:url(#linear-gradient-9);}.cls-50{clip-path:url(#clip-path-14);}.cls-51{fill:url(#linear-gradient-10);}.cls-52{clip-path:url(#clip-path-15);}.cls-53{fill:url(#linear-gradient-11);}.cls-54{fill:url(#linear-gradient-12);}.cls-55{clip-path:url(#clip-path-16);}.cls-56{fill:url(#linear-gradient-13);}.cls-57{clip-path:url(#clip-path-17);}.cls-58{fill:url(#linear-gradient-14);}</style><linearGradient id="linear-gradient" x1="212.42" y1="226.86" x2="256.47" y2="226.86" gradientUnits="userSpaceOnUse"><stop offset="0" stop-color="#ff2525"/><stop offset="0.15" stop-color="#ff2925"/><stop offset="0.29" stop-color="#ff3527"/><stop offset="0.44" stop-color="#ff4929"/><stop offset="0.58" stop-color="#ff652c"/><stop offset="0.72" stop-color="#ff8931"/><stop offset="0.87" stop-color="#ffb436"/><stop offset="1" stop-color="#ffe43b"/></linearGradient><linearGradient id="Degradado_sin_nombre_182" x1="265.61" y1="70.86" x2="285.28" y2="70.86" gradientUnits="userSpaceOnUse"><stop offset="0" stop-color="aqua"/><stop offset="0.09" stop-color="#06fafa"/><stop offset="0.21" stop-color="#16ecec"/><stop offset="0.34" stop-color="#31d5d5"/><stop offset="0.49" stop-color="#57b5b5"/><stop offset="0.65" stop-color="#878b8b"/><stop offset="0.81" stop-color="#c15a5a"/><stop offset="0.96" stop-color="#ff2525"/></linearGradient><linearGradient id="Degradado_sin_nombre_118" x1="156.37" y1="126.86" x2="168.53" y2="126.86" gradientUnits="userSpaceOnUse"><stop offset="0" stop-color="#ffe53b"/><stop offset="0.09" stop-color="#f1d846"/><stop offset="0.27" stop-color="#ccb762"/><stop offset="0.5" stop-color="#908190"/><stop offset="0.79" stop-color="#3f38cf"/><stop offset="1" stop-color="blue"/></linearGradient><clipPath id="clip-path"><rect class="cls-1" x="-0.27" y="-0.15" width="291.94" height="320.97" rx="19.35"/></clipPath><linearGradient id="Degradado_sin_nombre_19" x1="-202.01" y1="387.72" x2="1164.99" y2="387.72" gradientUnits="userSpaceOnUse"><stop offset="0" stop-color="#0e061e"/><stop offset="0.08" stop-color="#130825"/><stop offset="0.2" stop-color="#220c37"/><stop offset="0.33" stop-color="#3b1355"/><stop offset="0.48" stop-color="#5d1d7e"/><stop offset="0.51" stop-color="#641f87"/><stop offset="0.99" stop-color="#f7931e"/></linearGradient><clipPath id="clip-path-2"><rect class="cls-1" x="-455.2" y="-5.28" width="1367" height="786"/></clipPath><linearGradient id="linear-gradient-2" x1="-568.34" y1="306.75" x2="441.73" y2="306.75" gradientUnits="userSpaceOnUse"><stop offset="0" stop-color="#2d62ff"/><stop offset="0.21" stop-color="#641f87"/><stop offset="0.48" stop-color="#1e2f8a"/><stop offset="1" stop-color="#0e061e"/></linearGradient><linearGradient id="Degradado_sin_nombre_38" x1="-479.2" y1="435.04" x2="1176.65" y2="435.04" gradientUnits="userSpaceOnUse"><stop offset="0" stop-color="#e19748"/><stop offset="0.55" stop-color="#ff2cdf"/><stop offset="1" stop-color="#0e061e"/></linearGradient><linearGradient id="Degradado_sin_nombre_109" x1="26.36" y1="120.72" x2="-489.27" y2="241.61" gradientTransform="matrix(0.94, 0.05, -0.05, 0.95, 253.22, -11.3)" gradientUnits="userSpaceOnUse"><stop offset="0" stop-color="#999" stop-opacity="0.6"/><stop offset="0.02" stop-color="#aaa" stop-opacity="0.68"/><stop offset="0.05" stop-color="#bebebe" stop-opacity="0.76"/><stop offset="0.09" stop-color="#cecece" stop-opacity="0.84"/><stop offset="0.13" stop-color="#dbdbdb" stop-opacity="0.9"/><stop offset="0.17" stop-color="#e6e6e6" stop-opacity="0.94"/><stop offset="0.23" stop-color="#ededed" stop-opacity="0.98"/><stop offset="0.31" stop-color="#f1f1f1" stop-opacity="0.99"/><stop offset="0.5" stop-color="#f2f2f2"/><stop offset="0.61" stop-color="#f6b9b9"/><stop offset="0.75" stop-color="#fa7a7a"/><stop offset="0.86" stop-color="#fd4c4c"/><stop offset="0.95" stop-color="#fe3030"/><stop offset="1" stop-color="#ff2525"/></linearGradient><linearGradient id="Degradado_sin_nombre_109-2" x1="-56.86" y1="152.7" x2="-343.43" y2="219.89" xlink:href="#Degradado_sin_nombre_109"/><linearGradient id="Degradado_sin_nombre_109-3" x1="-57.95" y1="148.05" x2="-344.52" y2="215.24" xlink:href="#Degradado_sin_nombre_109"/><linearGradient id="Degradado_sin_nombre_109-4" x1="27.53" y1="125.69" x2="-488.11" y2="246.58" xlink:href="#Degradado_sin_nombre_109"/><clipPath id="clip-path-4"><path class="cls-1" d="M19.35.08H272.59a19.36,19.36,0,0,1,19.36,19.36V301.7a19.35,19.35,0,0,1-19.35,19.35H19.35A19.36,19.36,0,0,1,0,301.7V19.44A19.35,19.35,0,0,1,19.35.08Z"/></clipPath><linearGradient id="Degradado_sin_nombre_191" x1="153.02" y1="250.28" x2="58.97" y2="230.98" gradientUnits="userSpaceOnUse"><stop offset="0" stop-color="#ffe53b" stop-opacity="0.3"/><stop offset="0.14" stop-color="#ffe03a" stop-opacity="0.32"/><stop offset="0.29" stop-color="#ffd139" stop-opacity="0.37"/><stop offset="0.44" stop-color="#ffb836" stop-opacity="0.46"/><stop offset="0.6" stop-color="#ff9532" stop-opacity="0.58"/><stop offset="0.77" stop-color="#ff692d" stop-opacity="0.74"/><stop offset="0.94" stop-color="#ff3327" stop-opacity="0.92"/><stop offset="1" stop-color="#ff1d25"/></linearGradient><linearGradient id="Degradado_sin_nombre_65" x1="137.99" y1="220.72" x2="-120.02" y2="220.72" gradientUnits="userSpaceOnUse"><stop offset="0" stop-color="#ffe53b"/><stop offset="0.49" stop-color="#ff7b2f"/><stop offset="0.84" stop-color="#ff3728"/><stop offset="1" stop-color="#ff1d25"/></linearGradient><linearGradient id="Degradado_sin_nombre_184" x1="82.9" y1="35.86" x2="105.99" y2="35.86" gradientUnits="userSpaceOnUse"><stop offset="0.13" stop-color="#9ff"/><stop offset="0.17" stop-color="#a4e8e8"/><stop offset="0.24" stop-color="#b9baba"/><stop offset="0.31" stop-color="#cc9292"/><stop offset="0.39" stop-color="#dc7070"/><stop offset="0.47" stop-color="#e95555"/><stop offset="0.56" stop-color="#f34040"/><stop offset="0.66" stop-color="#fa3131"/><stop offset="0.78" stop-color="#fe2828"/><stop offset="0.96" stop-color="#ff2525"/></linearGradient><clipPath id="clip-path-6"><rect class="cls-1" x="0.01" y="0.08" width="291.94" height="320.97" rx="19.35"/></clipPath><linearGradient id="Degradado_sin_nombre_67" x1="172.58" y1="220.72" x2="-233" y2="220.72" gradientUnits="userSpaceOnUse"><stop offset="0" stop-color="#ffe53b"/><stop offset="0.1" stop-color="#ffc437"/><stop offset="0.26" stop-color="#ff9232"/><stop offset="0.42" stop-color="#ff682d"/><stop offset="0.58" stop-color="#ff472a"/><stop offset="0.73" stop-color="#ff3027"/><stop offset="0.88" stop-color="#ff2226"/><stop offset="1" stop-color="#ff1d25"/></linearGradient><clipPath id="clip-path-7"><circle class="cls-1" cx="7.99" cy="220.72" r="130"/></clipPath><linearGradient id="Degradado_sin_nombre_67-2" x1="-177.68" y1="270.31" x2="195.48" y2="54.87" xlink:href="#Degradado_sin_nombre_67"/><linearGradient id="Degradado_sin_nombre_67-3" x1="-118.68" y1="345.31" x2="254.48" y2="129.87" xlink:href="#Degradado_sin_nombre_67"/><linearGradient id="Degradado_sin_nombre_67-4" x1="-173.55" y1="197.32" x2="133.96" y2="19.78" xlink:href="#Degradado_sin_nombre_67"/><linearGradient id="Degradado_sin_nombre_67-5" x1="56.48" y1="195.58" x2="410.05" y2="21.92" gradientTransform="translate(-147.19 218.25) rotate(-3.84)" xlink:href="#Degradado_sin_nombre_67"/><linearGradient id="Degradado_sin_nombre_109-5" x1="30.57" y1="138.67" x2="-485.07" y2="259.56" xlink:href="#Degradado_sin_nombre_109"/><linearGradient id="Degradado_sin_nombre_109-6" x1="-52.95" y1="169.37" x2="-339.53" y2="236.55" xlink:href="#Degradado_sin_nombre_109"/><linearGradient id="Degradado_sin_nombre_143" x1="202.72" y1="128.86" x2="266.12" y2="128.86" gradientUnits="userSpaceOnUse"><stop offset="0.04" stop-color="#fcee21"/><stop offset="0.08" stop-color="#f8ee25"/><stop offset="0.12" stop-color="#ecef2f"/><stop offset="0.16" stop-color="#d8f041"/><stop offset="0.2" stop-color="#bbf25a"/><stop offset="0.24" stop-color="#97f57a"/><stop offset="0.28" stop-color="#6af8a1"/><stop offset="0.32" stop-color="#37fbcf"/><stop offset="0.36" stop-color="aqua"/><stop offset="0.41" stop-color="#00f9ff"/><stop offset="0.49" stop-color="#00e9ff"/><stop offset="0.57" stop-color="#00ceff"/><stop offset="0.66" stop-color="#00a8ff"/><stop offset="0.76" stop-color="#0078ff"/><stop offset="0.86" stop-color="#003eff"/><stop offset="0.96" stop-color="blue"/></linearGradient><clipPath id="clip-path-8"><path class="cls-1" d="M248.77,128.86a20.32,20.32,0,1,0-20.32,20.32A20.32,20.32,0,0,0,248.77,128.86Z"/></clipPath><linearGradient id="linear-gradient-3" x1="264.16" y1="126.68" x2="192.15" y2="128.63" gradientUnits="userSpaceOnUse"><stop offset="0" stop-color="#00ff5b"/><stop offset="0.07" stop-color="#06e271"/><stop offset="0.19" stop-color="#10b097"/><stop offset="0.32" stop-color="#1986b7"/><stop offset="0.45" stop-color="#2064d1"/><stop offset="0.58" stop-color="#2649e5"/><stop offset="0.72" stop-color="#2a36f4"/><stop offset="0.85" stop-color="#2c2bfc"/><stop offset="1" stop-color="#2d27ff"/></linearGradient><clipPath id="clip-path-9"><path class="cls-3" d="M285.28,70.86a9.84,9.84,0,1,0-9.83,9.84A9.83,9.83,0,0,0,285.28,70.86Z"/></clipPath><linearGradient id="Degradado_sin_nombre_182-3" x1="292.73" y1="69.8" x2="257.88" y2="70.75" xlink:href="#Degradado_sin_nombre_182"/><linearGradient id="Degradado_sin_nombre_118-2" x1="155.31" y1="126.86" x2="169.58" y2="126.86" xlink:href="#Degradado_sin_nombre_118"/><linearGradient id="Degradado_sin_nombre_118-3" x1="154.75" y1="126.86" x2="173.72" y2="126.86" xlink:href="#Degradado_sin_nombre_118"/><clipPath id="clip-path-10"><path class="cls-4" d="M168.53,126.86a6.08,6.08,0,1,0-6.08,6.08A6.08,6.08,0,0,0,168.53,126.86Z"/></clipPath><linearGradient id="Degradado_sin_nombre_118-5" x1="173.13" y1="126.21" x2="151.59" y2="126.79" xlink:href="#Degradado_sin_nombre_118"/><linearGradient id="linear-gradient-4" x1="205.89" y1="226.86" x2="263" y2="226.86" gradientTransform="translate(454.73 -13.78) rotate(88.41)" xlink:href="#linear-gradient"/><linearGradient id="linear-gradient-5" x1="210.62" y1="226.86" x2="258.27" y2="226.86" xlink:href="#linear-gradient"/><linearGradient id="linear-gradient-6" x1="206.56" y1="226.86" x2="275.28" y2="226.86" xlink:href="#linear-gradient"/><clipPath id="clip-path-11"><circle class="cls-2" cx="234.45" cy="226.86" r="22.03"/></clipPath><linearGradient id="linear-gradient-8" x1="256.73" y1="241.85" x2="209.45" y2="208.95" xlink:href="#linear-gradient"/><clipPath id="clip-path-12"><path class="cls-1" d="M878.13,967.49c161,335.74,559.65,174.5,453.51-44.64-85.8-138.31-166.89-117.46-240.37-171.83-59.33-45.95-99.45-136.67-157.34-126.47C872.38,642.23,783,773.89,878.13,967.49Z"/></clipPath><clipPath id="clip-path-13"><rect class="cls-1" x="683.54" y="99.31" width="786" height="1367" transform="matrix(0.09, -1, 1, 0.09, 201.14, 1785.52)"/></clipPath><linearGradient id="linear-gradient-9" x1="82.72" y1="602.41" x2="1092.82" y2="602.41" gradientTransform="translate(261.43 23.99) rotate(5.1)" gradientUnits="userSpaceOnUse"><stop offset="0" stop-color="#2d62ff"/><stop offset="0.21" stop-color="#8f5c9b"/><stop offset="0.48" stop-color="#1e2f8a"/><stop offset="1" stop-color="#0e061e"/></linearGradient><clipPath id="clip-path-14"><path class="cls-1" d="M-214.87,919.49c161,335.74,559.65,174.5,453.51-44.64C152.84,736.54,71.75,757.39-1.73,703c-59.33-45.95-99.45-136.67-157.34-126.47C-220.62,594.23-310,725.89-214.87,919.49Z"/></clipPath><linearGradient id="linear-gradient-10" x1="-897.13" y1="732.74" x2="469.94" y2="732.74" gradientTransform="translate(716.25 948.41) rotate(90)" gradientUnits="userSpaceOnUse"><stop offset="0" stop-color="#0e061e"/><stop offset="0.08" stop-color="#100725"/><stop offset="0.19" stop-color="#150937"/><stop offset="0.32" stop-color="#1d0d55"/><stop offset="0.38" stop-color="#210f65"/><stop offset="0.57" stop-color="#4f1279"/><stop offset="0.76" stop-color="#80158f"/><stop offset="0.95" stop-color="#80518f"/></linearGradient><clipPath id="clip-path-15"><rect class="cls-1" x="-409.46" y="51.31" width="786" height="1367" transform="matrix(0.09, -1, 1, 0.09, -746.9, 653.11)"/></clipPath><linearGradient id="linear-gradient-11" x1="-1010.27" y1="651.78" x2="-0.16" y2="651.78" xlink:href="#linear-gradient-9"/><linearGradient id="linear-gradient-12" x1="-921.12" y1="780.06" x2="734.79" y2="780.06" xlink:href="#linear-gradient-9"/><clipPath id="clip-path-16"><rect class="cls-1" x="83.29" y="-675.91" width="291.94" height="320.97" rx="19.35"/></clipPath><linearGradient id="linear-gradient-13" x1="-24.64" y1="-363.2" x2="1342.36" y2="-363.2" gradientUnits="userSpaceOnUse"><stop offset="0" stop-color="#0e061e"/><stop offset="0.09" stop-color="#100725"/><stop offset="0.22" stop-color="#150937"/><stop offset="0.36" stop-color="#1d0d55"/><stop offset="0.43" stop-color="#210f65"/><stop offset="0.82" stop-color="#4f1a7c"/><stop offset="0.99" stop-color="#641f87"/></linearGradient><clipPath id="clip-path-17"><rect class="cls-1" x="-24.64" y="-756.2" width="1367" height="786"/></clipPath><linearGradient id="linear-gradient-14" x1="-48.64" y1="-315.88" x2="1607.21" y2="-315.88" xlink:href="#linear-gradient-2"/></defs><title>Mesa de trabajo 13</title><g class="cls-5"><g id="Capa_1" data-name="Capa 1"><g class="cls-6"><rect class="cls-7" x="-202.01" y="-5.28" width="1367" height="786"/><g class="cls-8"><path class="cls-9" d="M271.87,292.09a1.36,1.36,0,1,1-1.81-.65A1.35,1.35,0,0,1,271.87,292.09Z"/><path class="cls-9" d="M285.09,315.84a2.35,2.35,0,1,1-3.12-1.13A2.35,2.35,0,0,1,285.09,315.84Z"/><path class="cls-9" d="M32.58,231.23a1.59,1.59,0,1,1-1.18-1.92A1.58,1.58,0,0,1,32.58,231.23Z"/><path class="cls-9" d="M76.57,257.43a1.53,1.53,0,1,1-1.13-1.84A1.53,1.53,0,0,1,76.57,257.43Z"/><path class="cls-9" d="M115.08,284c-2.94-.47-3.08.25-3.93,2.39.31-2.43.42-2.86-2.45-3.9,2.51.35,3.07.63,3.91-2.3C112.17,283.32,112.74,283.07,115.08,284Z"/><path class="cls-9" d="M5.87,283.17c-.84-.14-.88.07-1.13.68.09-.69.12-.82-.69-1.11.71.1.87.18,1.11-.66C5,283,5.2,282.9,5.87,283.17Z"/><path class="cls-9" d="M173.39,322.65c-4.27-.68-4.48.37-5.71,3.47.45-3.53.6-4.15-3.55-5.65,3.63.5,4.45.91,5.68-3.35C169.16,321.63,170,321.28,173.39,322.65Z"/><path class="cls-9" d="M34.77,263.42c-2.7-.44-2.83.23-3.61,2.19.29-2.23.38-2.63-2.25-3.58,2.3.32,2.82.58,3.6-2.12C32.1,262.77,32.62,262.55,34.77,263.42Z"/><path class="cls-9" d="M235.87,306.1c-4.27-.69-4.47.36-5.7,3.46.45-3.52.6-4.14-3.56-5.64,3.64.5,4.46.91,5.68-3.35C231.64,305.08,232.47,304.72,235.87,306.1Z"/><path class="cls-9" d="M210.37,317.86a1.75,1.75,0,1,1-1.3-2.11A1.74,1.74,0,0,1,210.37,317.86Z"/><path class="cls-9" d="M21.38,248.42a3,3,0,1,1-2.21-3.59A3,3,0,0,1,21.38,248.42Z"/><path class="cls-9" d="M175.15,294.49a2.72,2.72,0,1,1-2-3.28A2.72,2.72,0,0,1,175.15,294.49Z"/><path class="cls-9" d="M9.61,315A1.32,1.32,0,0,1,8,316a1.33,1.33,0,1,1,1.59-1Z"/><path class="cls-9" d="M94.18,314.06a1.1,1.1,0,1,1-.82-1.32A1.1,1.1,0,0,1,94.18,314.06Z"/><path class="cls-9" d="M62.51,296.18a1.1,1.1,0,1,1,.28-1.52A1.08,1.08,0,0,1,62.51,296.18Z"/><path class="cls-9" d="M203.33,277.64a1.1,1.1,0,1,1,.28-1.52A1.09,1.09,0,0,1,203.33,277.64Z"/><path class="cls-9" d="M146.54,276.43a1.1,1.1,0,1,1,.28-1.53A1.09,1.09,0,0,1,146.54,276.43Z"/><path class="cls-9" d="M43.27,251.27c.12-.08-.06-.55-.4-1.05s-.72-.84-.84-.76.07.56.4,1.06S43.15,251.35,43.27,251.27Z"/><path class="cls-9" d="M4.53,188.27a4.22,4.22,0,0,1-5.16,3,4.21,4.21,0,0,1-3-5.17,4.22,4.22,0,0,1,5.15-3A4.23,4.23,0,0,1,4.53,188.27Z"/><path class="cls-9" d="M209.83,35.83a2.9,2.9,0,1,1-2.06-3.55A2.89,2.89,0,0,1,209.83,35.83Z"/><path class="cls-9" d="M90.35,163.59a3.08,3.08,0,1,1-2.19-3.78A3.08,3.08,0,0,1,90.35,163.59Z"/><path class="cls-9" d="M281.57,88.26c-5.55-1.05-5.86.32-7.58,4.33.72-4.59.93-5.4-4.45-7.51,4.74.78,5.79,1.34,7.55-4.18C276.08,86.78,277.18,86.34,281.57,88.26Z"/><path class="cls-9" d="M337.24,276.18c-6.23-1.18-6.58.36-8.5,4.85.8-5.14,1-6.06-5-8.42,5.3.87,6.49,1.51,8.45-4.69C331.08,274.52,332.31,274,337.24,276.18Z"/><path class="cls-9" d="M25.18,113.49c-4.52-.85-4.77.26-6.16,3.52.58-3.73.75-4.39-3.62-6.1,3.85.63,4.71,1.09,6.13-3.4C20.71,112.29,21.6,111.93,25.18,113.49Z"/><path class="cls-9" d="M38.1,204.15c-1.58-.3-1.67.09-2.16,1.23.2-1.31.27-1.54-1.27-2.14,1.35.22,1.65.38,2.15-1.2C36.54,203.72,36.85,203.6,38.1,204.15Z"/><path class="cls-9" d="M74.32,81.09c-1.58-.3-1.67.09-2.16,1.23.2-1.31.26-1.54-1.27-2.14,1.35.22,1.65.38,2.15-1.19C72.75,80.67,73.07,80.54,74.32,81.09Z"/><path class="cls-9" d="M180.21,247.54c-8.06-1.52-8.51.46-11,6.28,1-6.66,1.35-7.84-6.46-10.9,6.87,1.13,8.4,2,10.94-6.07C172.24,245.39,173.83,244.75,180.21,247.54Z"/><path class="cls-9" d="M130.2,45.07c-5.11-1-5.39.29-7,4,.66-4.22.86-5-4.09-6.9,4.35.71,5.32,1.23,6.93-3.84C125.15,43.71,126.16,43.31,130.2,45.07Z"/><path class="cls-9" d="M4.88,237.81A4.33,4.33,0,0,1-.43,240.9a4.34,4.34,0,0,1-3.09-5.31,4.35,4.35,0,0,1,5.31-3.09A4.35,4.35,0,0,1,4.88,237.81Z"/><path class="cls-9" d="M105.54,15.92a5.67,5.67,0,1,1-4-6.93A5.66,5.66,0,0,1,105.54,15.92Z"/><path class="cls-9" d="M346.38,319.53a3.09,3.09,0,1,1-2.2-3.77A3.09,3.09,0,0,1,346.38,319.53Z"/><path class="cls-9" d="M355.4,217.92a2.52,2.52,0,1,1-1.8-3.08A2.53,2.53,0,0,1,355.4,217.92Z"/><path class="cls-9" d="M11.74,295a2,2,0,1,1-3.9-1,2,2,0,0,1,3.9,1Z"/><path class="cls-9" d="M257.9,220.09a3.27,3.27,0,1,1-2.33-4A3.26,3.26,0,0,1,257.9,220.09Z"/><path class="cls-9" d="M70.79,243.33a3.09,3.09,0,1,1-2.19-3.78A3.08,3.08,0,0,1,70.79,243.33Z"/><path class="cls-9" d="M79.81,141.71A2.52,2.52,0,1,1,78,138.63,2.52,2.52,0,0,1,79.81,141.71Z"/><path class="cls-9" d="M240.37,144.21a2.08,2.08,0,1,1-1.48-2.55A2.09,2.09,0,0,1,240.37,144.21Z"/><path class="cls-9" d="M159.91,200.7a3.27,3.27,0,1,1,2.82-3.66A3.26,3.26,0,0,1,159.91,200.7Z"/><path class="cls-9" d="M181.45,186.61a2.08,2.08,0,0,1-2.32-1.8,2.08,2.08,0,1,1,4.12-.53A2.06,2.06,0,0,1,181.45,186.61Z"/><path class="cls-9" d="M162.43,288.93a3.27,3.27,0,1,1,1-4.52A3.27,3.27,0,0,1,162.43,288.93Z"/><path class="cls-9" d="M225.75,292.28a2.08,2.08,0,1,1,.62-2.88A2.08,2.08,0,0,1,225.75,292.28Z"/><path class="cls-9" d="M181.17,108.67a2.09,2.09,0,1,1,.61-2.88A2.08,2.08,0,0,1,181.17,108.67Z"/><path class="cls-9" d="M305.77,165.1a2.09,2.09,0,1,1,.61-2.88A2.08,2.08,0,0,1,305.77,165.1Z"/><path class="cls-9" d="M341.67,75.45a2.08,2.08,0,1,1,.61-2.88A2.07,2.07,0,0,1,341.67,75.45Z"/><path class="cls-9" d="M146.94,22.45c.23-.15-.09-1.05-.71-2s-1.32-1.63-1.55-1.48.09,1.07.71,2S146.71,22.6,146.94,22.45Z"/></g><g class="cls-8"><g class="cls-10"><path class="cls-11" d="M-455.22,476.79C-558.64,452.9-299.16-201.12,80.32,442.35s489-373.64,189-297-457.47-32.65-273-188.65H-275.2s46.54,25.45-190.44,248.94S-455.22,476.79-455.22,476.79Z"/><path class="cls-12" d="M-479.2,565.39c110-456.27,637.5-109.49,685.49,244.49,24.24,178.71,402.92,19.06,274.52-114s364.48-73.5,187.49-255c-170-174.35-118.17-742.41,1.5-318,192,681,273.3-618.48,291-106.49,4.51,130.49-420,960,186,574.47,113.26-72-132,306-132,306l-126-109.5s-250.49-126-265.49-33-355.48,222-355.48,222L74.3,812.88s-337.5-373.48-553.5-195Z"/></g></g></g><path class="cls-13" d="M125.88,131.57l3.35,4.61q7.92-3.87,15.45-7.48l-3.32-4.81Q133.74,127.64,125.88,131.57Z"/><path class="cls-14" d="M114.58,146.62l1.8,2.62q8.59-4.19,16.36-7.8l-1.84-2.8Q123,142.44,114.58,146.62Z"/><path class="cls-15" d="M130.9,138.64l1.84,2.8q8.26-3.87,15.62-7.14l-1.89-3Q139,134.78,130.9,138.64Z"/><path class="cls-16" d="M109.62,140l3.28,4.25q8.35-4.16,16.33-8.06l-3.35-4.61C124.54,132.24,118.52,135.35,109.62,140Z"/><g class="cls-17"><ellipse class="cls-18" cx="8.98" cy="220.72" rx="147.01" ry="147"/><ellipse class="cls-19" cx="8.98" cy="220.72" rx="129" ry="129"/></g><g class="cls-17"><ellipse class="cls-19" cx="8.98" cy="220.72" rx="129" ry="129"/></g><circle class="cls-20" cx="94.45" cy="35.86" r="11.55"/><g class="cls-21"><circle class="cls-22" cx="7.99" cy="220.72" r="130"/><g class="cls-23"><g class="cls-24"><path class="cls-25" d="M-131,231.72c-39,25,109-53,55-53,36-16,73-24,60-7s70-26,38-28c43-20,45-42,18-40s14-21,18-20,41,33,38,36,18,28-6,37c0,0-71,25-36,22-31,17-41,0-54,17s13,17,13,17-16,11-60,12,4,15,4,15-12,4-41,9-7,21-5,20-33,15-42,8S-131,231.72-131,231.72Z"/><path class="cls-26" d="M-72,306.72c-39,25,109-53,55-53,36-16,73-24,60-7s70-26,38-28c43-20,45-42,18-40s14-21,18-20,41,33,38,36,18,28-6,37c0,0-71,25-36,22-31,17-41,0-54,17s13,17,13,17-16,11-60,12,4,15,4,15-12,4-41,9-7,21-5,20-33,15-42,8S-72,306.72-72,306.72Z"/><path class="cls-27" d="M-132.64,168.22c-31.56,21.53,88.22-45.65,44.51-45.65,29.14-13.78,59.08-20.67,48.56-6S17.08,94.15-8.81,92.43C26,75.2,27.6,56.25,5.75,58S17.08,39.89,20.32,40.75s33.18,28.42,30.75,31,14.57,24.11-4.85,31.86c0,0-57.46,21.53-29.14,18.95-25.09,14.64-33.18,0-43.7,14.64s10.52,14.64,10.52,14.64S-29,161.33-64.66,162.19s3.24,12.92,3.24,12.92-9.71,3.44-33.18,7.75-5.66,18.08-4.05,17.22-26.7,12.92-34,6.89S-132.64,168.22-132.64,168.22Z"/><path class="cls-28" d="M-46.43,367.28C-84.2,386.92,59.9,323.86,6,327.48c35.18-13.31,71.73-21.24,59.54-8.79s68.65-22.41,36.63-21.62c42-16.51,43-31.64,16.13-28.46s13-15.25,17.05-14.84,42.42,19.74,39.56,22,19.24,17.88-4.29,25.62c0,0-69.7,21.79-34.92,17.4-30.15,13.66-40.9,2.75-53.1,15.2s13.75,10.71,13.75,10.71-15.46,8.57-59.31,12.2,4.67,9.95,4.67,9.95-11.79,3.53-40.49,8.88-6,14.78-4.08,14-32.24,12.43-41.54,8.27S-46.43,367.28-46.43,367.28Z"/></g></g></g><path class="cls-29" d="M141.36,123.89l3.32,4.81C250,78.18,299.22,64.64,309.16,68.56,310.85,82.3,229.25,131.68,0,233.94V240C257,133.25,361,57.25,362.87,43.11,364.26,32.4,285.23,53.18,141.36,123.89Z"/><path class="cls-30" d="M243.17,99c.68-5.27-33.55,3.15-96.7,32.3l1.89,3c40.49-18,60.34-23,65-21.15,1,8.41-54.14,40.88-213.33,110.19v1.87C173.21,157.14,242.05,107.58,243.17,99Z"/><path class="cls-31" d="M248.77,128.86a20.32,20.32,0,1,0-20.32,20.32A20.32,20.32,0,0,0,248.77,128.86Z"/><g class="cls-32"><path class="cls-33" d="M210.07,120.18c13.87-7.73,24.87-.89,26.75-9.84s-34.67,9.33-18.44,12.5,20.69,2.61,22.93-1.31,1.91-7,2-9.13,11.23,23.68-26.06,13.42c-11.89-3-9,.36-9,.36s-5.5,4.68.52,7.94,2.74-2.14,23.21,0c11.51.09,14.87.22,17.67-6.25,0,0,4.66,22.75-15.48,9.51-13.33-3.72-41.57,3.36-19.76,1.12,11,2.8,5.44,8.85,12.68,3.17,6.11-3.2,10.07,3.21,8.39,2.35s6.37,5.3,6.36.08c.17,7.08-12.73-3.18-13.8,2.13-3.19-.46-5.45,4.22-9.9-2.51s-4.33-.08-7-.94S197.11,127.41,210.07,120.18Z"/></g><path class="cls-3" d="M285.28,70.86a9.84,9.84,0,1,0-9.83,9.84A9.83,9.83,0,0,0,285.28,70.86Z"/><g class="cls-34"><path class="cls-35" d="M266.55,66.66c6.71-3.74,12-.43,12.95-4.76s-16.78,4.51-8.93,6.05,10,1.26,11.1-.63a8.17,8.17,0,0,0,1-4.43c.05-1,5.44,11.46-12.61,6.5-5.75-1.48-4.33.18-4.33.18s-2.66,2.26.25,3.84,1.32-1,11.23,0c5.57,0,7.2.11,8.55-3,0,0,2.26,11-7.49,4.61-6.45-1.81-20.12,1.62-9.56.54,5.32,1.35,2.63,4.28,6.13,1.53,3-1.55,4.88,1.55,4.07,1.14s3.08,2.57,3.07,0c.08,3.42-6.16-1.54-6.68,1-1.54-.22-2.63,2-4.79-1.22s-2.09,0-3.39-.45S260.28,70.16,266.55,66.66Z"/></g><circle class="cls-36" cx="162.45" cy="126.86" r="7.14"/><path class="cls-37" d="M168.53,126.86a6.08,6.08,0,1,0-6.08,6.08A6.08,6.08,0,0,0,168.53,126.86Z"/><path class="cls-4" d="M168.53,126.86a6.08,6.08,0,1,0-6.08,6.08A6.08,6.08,0,0,0,168.53,126.86Z"/><g class="cls-38"><path class="cls-39" d="M157,124.27c4.15-2.32,7.44-.27,8-3s-10.37,2.79-5.51,3.74,6.19.78,6.86-.39a5,5,0,0,0,.59-2.73c0-.64,3.37,7.08-7.79,4-3.55-.91-2.68.11-2.68.11s-1.64,1.4.16,2.38.82-.65,6.94,0c3.44,0,4.45.06,5.28-1.87,0,0,1.4,6.8-4.63,2.84-4-1.11-12.43,1-5.91.34,3.29.83,1.63,2.64,3.8.94,1.82-.95,3,1,2.51.71s1.9,1.58,1.9,0c.05,2.12-3.81-.95-4.13.64-1-.14-1.63,1.26-3-.75s-1.29,0-2.1-.28S153.07,126.43,157,124.27Z"/></g><g class="cls-40"><circle class="cls-41" cx="234.45" cy="226.86" r="28.56" transform="translate(1.18 454.94) rotate(-88.41)"/><circle class="cls-42" cx="234.45" cy="226.86" r="23.83"/><circle class="cls-43" cx="234.45" cy="226.86" r="22.03"/><circle class="cls-2" cx="234.45" cy="226.86" r="22.03"/><g class="cls-44"><path class="cls-45" d="M214.53,217.45c15-8.37,26.95-1,29-10.66s-37.57,10.11-20,13.54,22.43,2.83,24.86-1.41,2.07-7.61,2.17-9.9,12.18,25.66-28.24,14.55c-12.88-3.31-9.71.39-9.71.39s-6,5.07.56,8.6,3-2.32,25.16,0c12.48.1,16.12.24,19.15-6.77,0,0,5.06,24.66-16.77,10.31-14.45-4-45.07,3.63-21.42,1.21,11.92,3,5.89,9.59,13.74,3.44,6.62-3.48,10.91,3.47,9.09,2.54s6.91,5.75,6.9.09c.18,7.67-13.8-3.45-15,2.3-3.45-.49-5.9,4.58-10.72-2.71s-4.69-.09-7.61-1S200.48,225.29,214.53,217.45Z"/></g></g><g class="cls-46"><g class="cls-47"><g class="cls-48"><path class="cls-49" d="M387.81,810.78c-100.89-33,215.7-661.36,536.48,13.3s520.26-328.7,214.65-279S686.18,471.88,883.8,332.9L613.35,308.77s44.09,29.49-211.82,231S387.81,810.78,387.81,810.78Z"/></g></g></g><g class="cls-50"><rect class="cls-51" x="-409.46" y="51.31" width="786" height="1367" transform="matrix(0.09, -1, 1, 0.09, -746.9, 653.11)"/><g class="cls-52"><g class="cls-48"><path class="cls-53" d="M-705.19,762.78c-100.89-33,215.7-661.36,536.48,13.3s520.26-328.7,214.65-279S-406.82,423.88-209.2,284.9l-270.45-24.13s44.09,29.49-211.82,231S-705.19,762.78-705.19,762.78Z"/><path class="cls-54" d="M-736.95,848.9C-586.83,404.21-92.24,796.51-75.9,1153.35c8.25,180.15,399.63,54.8,283.56-89.14s369.57-40.81,209.41-237.32c-153.86-188.78-51.7-750,29.76-316.59,130.7,695.34,327.2-591.74,299.3-80.21C739,560.47,242.48,1348.92,880.32,1018.82c119.22-61.69-158.67,293-158.67,293L605.89,1191.6s-238.3-147.76-261.5-56.47S-29.42,1324.65-29.42,1324.65l-178.22-180s-303-402-534-243.42Z"/></g></g></g><g class="cls-55"><rect class="cls-56" x="-24.64" y="-756.2" width="1367" height="786"/><g class="cls-57"><path class="cls-9" d="M296.18,16.67a1.45,1.45,0,1,1-2.65,1.18,1.44,1.44,0,0,1,.72-1.91A1.46,1.46,0,0,1,296.18,16.67Z"/><path class="cls-9" d="M264.87,60.53a1.28,1.28,0,1,1-1.69-.64A1.28,1.28,0,0,1,264.87,60.53Z"/><path class="cls-9" d="M309.85,42.28A2.51,2.51,0,1,1,306.54,41,2.5,2.5,0,0,1,309.85,42.28Z"/><path class="cls-9" d="M154.67,221.75a2.12,2.12,0,1,1-1.54-2.57A2.13,2.13,0,0,1,154.67,221.75Z"/><path class="cls-9" d="M42.05,160.45a1.73,1.73,0,1,1-1.25-2.1A1.74,1.74,0,0,1,42.05,160.45Z"/><path class="cls-9" d="M21.78,48.52a1.74,1.74,0,1,1-1.26-2.11A1.74,1.74,0,0,1,21.78,48.52Z"/><path class="cls-9" d="M133.65,164.22a1.13,1.13,0,0,1-1.38.83,1.14,1.14,0,1,1,.56-2.2A1.13,1.13,0,0,1,133.65,164.22Z"/><path class="cls-9" d="M107.92,178.17a1.53,1.53,0,1,1-1.1-1.86A1.53,1.53,0,0,1,107.92,178.17Z"/><path class="cls-9" d="M96,268.29a1.52,1.52,0,0,1-3-.76,1.52,1.52,0,1,1,3,.76Z"/><path class="cls-9" d="M292.69,70.73a2.52,2.52,0,1,1-3.32-1.27A2.52,2.52,0,0,1,292.69,70.73Z"/><path class="cls-9" d="M281.75,123.4a1.84,1.84,0,1,1-1.34-2.24A1.83,1.83,0,0,1,281.75,123.4Z"/><path class="cls-9" d="M276.9,161.06a1.84,1.84,0,1,1-1.33-2.24A1.83,1.83,0,0,1,276.9,161.06Z"/><path class="cls-9" d="M269.28,211.42a1.84,1.84,0,1,1-1.33-2.24A1.85,1.85,0,0,1,269.28,211.42Z"/><path class="cls-9" d="M241.37,175.23A1.84,1.84,0,1,1,240,173,1.84,1.84,0,0,1,241.37,175.23Z"/><path class="cls-9" d="M247.47,243.18a1.84,1.84,0,1,1-1.33-2.24A1.83,1.83,0,0,1,247.47,243.18Z"/><path class="cls-9" d="M202.42,116a2.76,2.76,0,1,1-2-3.37A2.75,2.75,0,0,1,202.42,116Z"/><path class="cls-9" d="M128.92,5.14c-3.13-.56-3.3.21-4.24,2.48.38-2.59.49-3-2.54-4.21,2.66.42,3.26.73,4.22-2.39C125.82,4.34,126.44,4.08,128.92,5.14Z"/><path class="cls-9" d="M161.22,110.53c-3.51-.63-3.7.24-4.75,2.77.42-2.89.55-3.41-2.85-4.71,3,.47,3.66.82,4.73-2.68C157.75,109.63,158.44,109.34,161.22,110.53Z"/><path class="cls-9" d="M5.71,155.14c-4.54-.81-4.78.31-6.15,3.59.55-3.75.72-4.42-3.69-6.09,3.87.6,4.74,1.05,6.12-3.47C1.22,154,2.11,153.61,5.71,155.14Z"/><path class="cls-9" d="M156.09,276.35c-4.54-.82-4.78.3-6.15,3.59.54-3.75.71-4.42-3.69-6.1,3.87.6,4.73,1.06,6.12-3.47C151.6,275.18,152.49,274.81,156.09,276.35Z"/><path class="cls-9" d="M264.49,281.24c-4.54-.81-4.78.31-6.15,3.6.55-3.75.72-4.42-3.69-6.1,3.87.6,4.74,1.05,6.12-3.47C260,280.08,260.89,279.71,264.49,281.24Z"/><path class="cls-9" d="M119.22,297.58c-2.28-.41-2.4.15-3.09,1.8.28-1.88.36-2.22-1.85-3.06,1.94.3,2.38.53,3.07-1.74C117,297,117.41,296.81,119.22,297.58Z"/><path class="cls-9" d="M212.08,228.4c-2.28-.41-2.4.15-3.09,1.8.28-1.88.36-2.22-1.85-3.06,1.94.3,2.38.53,3.07-1.74C209.83,227.81,210.27,227.63,212.08,228.4Z"/><path class="cls-9" d="M203.44,210.59c-.89-.16-.94.06-1.21.7.11-.73.14-.87-.72-1.2.76.12.93.21,1.2-.68C202.56,210.36,202.73,210.29,203.44,210.59Z"/><path class="cls-9" d="M228.16,289.64c-.9-.16-.94.06-1.21.71.1-.74.14-.87-.73-1.2.76.12.93.21,1.2-.68C227.27,289.41,227.45,289.34,228.16,289.64Z"/><path class="cls-9" d="M31.32,190.37c-.89-.16-.94.06-1.21.71.11-.74.15-.87-.72-1.2.76.12.93.21,1.2-.68C30.44,190.14,30.62,190.07,31.32,190.37Z"/><path class="cls-9" d="M231.64,68.76c-.9-.16-.95.06-1.21.71.1-.74.14-.87-.73-1.2.76.12.93.2,1.2-.69C230.75,68.53,230.93,68.46,231.64,68.76Z"/><path class="cls-9" d="M12.32,2.21c-.89-.16-.94.06-1.21.7.11-.73.14-.87-.72-1.2.76.12.93.21,1.2-.68C11.44,2,11.61,1.91,12.32,2.21Z"/><path class="cls-9" d="M303.42,73.85c-.9-.16-.95.06-1.22.7.11-.73.15-.86-.72-1.19.76.11.93.2,1.2-.69C302.53,73.62,302.71,73.55,303.42,73.85Z"/><path class="cls-9" d="M173.73,175.53c-4.54-.81-4.78.31-6.15,3.59.55-3.75.72-4.41-3.69-6.09,3.87.6,4.74,1.05,6.13-3.47C169.24,174.36,170.13,174,173.73,175.53Z"/><path class="cls-9" d="M72.76,95.25c-4.55-.81-4.79.31-6.16,3.6.55-3.75.72-4.42-3.69-6.1,3.87.6,4.74,1,6.13-3.47C68.26,94.09,69.15,93.72,72.76,95.25Z"/><path class="cls-9" d="M190.45,47.47c-4.54-.81-4.78.31-6.15,3.59.55-3.75.72-4.41-3.69-6.09,3.87.6,4.74,1.05,6.12-3.47C186,46.3,186.85,45.94,190.45,47.47Z"/><path class="cls-9" d="M71.55,195.19c-2.67-.47-2.81.18-3.61,2.11.32-2.2.42-2.59-2.17-3.57,2.27.35,2.78.61,3.59-2C68.91,194.51,69.43,194.29,71.55,195.19Z"/><path class="cls-9" d="M286.34,96.07c-4.54-.81-4.78.31-6.15,3.6.55-3.76.72-4.42-3.69-6.1,3.87.6,4.74,1.05,6.12-3.47C281.85,94.91,282.74,94.54,286.34,96.07Z"/><path class="cls-9" d="M257.48,31c-4.54-.81-4.79.3-6.16,3.59.55-3.75.72-4.42-3.68-6.1,3.86.61,4.73,1.06,6.12-3.46C253,29.79,253.87,29.43,257.48,31Z"/><path class="cls-9" d="M230,43a1.88,1.88,0,1,1-1.35-2.28A1.89,1.89,0,0,1,230,43Z"/><path class="cls-9" d="M166.59,134.86a1.73,1.73,0,1,1-1.26-2.1A1.71,1.71,0,0,1,166.59,134.86Z"/><path class="cls-9" d="M173.35,207.84a1.87,1.87,0,1,1-1.35-2.27A1.86,1.86,0,0,1,173.35,207.84Z"/><path class="cls-9" d="M192.86,17.43a2.91,2.91,0,1,1-2.1-3.53A2.91,2.91,0,0,1,192.86,17.43Z"/><path class="cls-9" d="M192.55,68.43A2,2,0,1,1,191.12,66,2,2,0,0,1,192.55,68.43Z"/><path class="cls-9" d="M171.12,77.67a1.4,1.4,0,0,1-1.72,1,1.41,1.41,0,0,1,.7-2.74A1.4,1.4,0,0,1,171.12,77.67Z"/><path class="cls-9" d="M236.94,91.09a1.17,1.17,0,1,1-.85-1.42A1.17,1.17,0,0,1,236.94,91.09Z"/><path class="cls-9" d="M221.11,145a1.17,1.17,0,0,1-2.27-.58,1.17,1.17,0,0,1,2.27.58Z"/><path class="cls-9" d="M236,213.78a1.81,1.81,0,1,1-1.31-2.2A1.82,1.82,0,0,1,236,213.78Z"/><path class="cls-9" d="M116.31,79.41A1.84,1.84,0,1,1,115,77.17,1.84,1.84,0,0,1,116.31,79.41Z"/><path class="cls-9" d="M11.2,93.47a1.74,1.74,0,1,1-1.26-2.11A1.74,1.74,0,0,1,11.2,93.47Z"/><path class="cls-9" d="M15.73,36.27a1.41,1.41,0,1,1-1-1.72A1.42,1.42,0,0,1,15.73,36.27Z"/><path class="cls-9" d="M106,36.82a1.17,1.17,0,1,1-.85-1.42A1.16,1.16,0,0,1,106,36.82Z"/><path class="cls-9" d="M61.09,69A1.84,1.84,0,1,1,62.66,67,1.83,1.83,0,0,1,61.09,69Z"/><path class="cls-9" d="M73.13,61a1.18,1.18,0,1,1,1-1.33A1.17,1.17,0,0,1,73.13,61Z"/><path class="cls-9" d="M63,118.63a1.84,1.84,0,1,1,.51-2.55A1.83,1.83,0,0,1,63,118.63Z"/><path class="cls-9" d="M206.19,259.79a1.17,1.17,0,1,1,.33-1.63A1.17,1.17,0,0,1,206.19,259.79Z"/><path class="cls-9" d="M98.61,120.18a1.17,1.17,0,1,1,.33-1.63A1.18,1.18,0,0,1,98.61,120.18Z"/><path class="cls-9" d="M72.56,17.15a1.17,1.17,0,1,1,.33-1.62A1.16,1.16,0,0,1,72.56,17.15Z"/><path class="cls-9" d="M223.26,0a1.18,1.18,0,0,1-1.62-.34A1.18,1.18,0,0,1,222-2a1.17,1.17,0,0,1,1.62.33A1.17,1.17,0,0,1,223.26,0Z"/><path class="cls-9" d="M142.93,48.23a1.17,1.17,0,1,1,.33-1.63A1.16,1.16,0,0,1,142.93,48.23Z"/><path class="cls-9" d="M66.18,225.38a1.17,1.17,0,1,1,.33-1.63A1.18,1.18,0,0,1,66.18,225.38Z"/><path class="cls-9" d="M238.09,280.84a1.17,1.17,0,1,1,.33-1.63A1.17,1.17,0,0,1,238.09,280.84Z"/><path class="cls-9" d="M101.28,216.69a1.16,1.16,0,0,1-1.61-.34,1.16,1.16,0,1,1,1.94-1.28A1.16,1.16,0,0,1,101.28,216.69Z"/><path class="cls-9" d="M181.9,305.05a1.17,1.17,0,0,1-1.62-.33,1.17,1.17,0,1,1,1.95-1.29A1.16,1.16,0,0,1,181.9,305.05Z"/><path class="cls-9" d="M191.54,263.56c.13-.08-.06-.59-.41-1.13s-.75-.91-.88-.82.06.6.41,1.13S191.41,263.65,191.54,263.56Z"/><path class="cls-9" d="M80.64,172.38a1.81,1.81,0,1,1-1.31-2.19A1.81,1.81,0,0,1,80.64,172.38Z"/><path class="cls-9" d="M47,269.92a1.7,1.7,0,1,1-1.23-2.05A1.7,1.7,0,0,1,47,269.92Z"/><path class="cls-9" d="M25.26,215.36a2.05,2.05,0,1,1-1.48-2.51A2,2,0,0,1,25.26,215.36Z"/><path class="cls-9" d="M11.68,273a1.18,1.18,0,0,1-1.43.84,1.17,1.17,0,1,1,1.43-.84Z"/><path class="cls-9" d="M174.13,43.44a1.76,1.76,0,1,1-1.24-2.15A1.75,1.75,0,0,1,174.13,43.44Z"/><path class="cls-9" d="M135.91,6.69A1.26,1.26,0,1,1,135,5.14,1.27,1.27,0,0,1,135.91,6.69Z"/><path class="cls-9" d="M124.91,81.3a1.27,1.27,0,1,1-.89-1.56A1.26,1.26,0,0,1,124.91,81.3Z"/><path class="cls-9" d="M269.35,36.33a1.53,1.53,0,1,1-1.08-1.87A1.52,1.52,0,0,1,269.35,36.33Z"/><path class="cls-9" d="M246.66,6a1.53,1.53,0,1,1-1.08-1.87A1.53,1.53,0,0,1,246.66,6Z"/><path class="cls-9" d="M250.85,62.4a1.53,1.53,0,1,1-1.08-1.87A1.53,1.53,0,0,1,250.85,62.4Z"/><path class="cls-9" d="M174.62,88.75c-3.76-.73-4,.19-5.15,2.9.5-3.1.65-3.65-3-5.1,3.2.54,3.91.93,5.12-2.8C170.9,87.72,171.65,87.43,174.62,88.75Z"/><path class="cls-9" d="M264.48,94.2c-3.75-.74-4,.19-5.15,2.9.5-3.11.65-3.66-3-5.11,3.2.55,3.91.94,5.12-2.8C260.77,93.17,261.51,92.88,264.48,94.2Z"/><path class="cls-9" d="M6.37,43.79c-1.89-.36-2,.1-2.59,1.46.25-1.56.33-1.84-1.49-2.56,1.6.27,2,.47,2.57-1.41C4.5,43.28,4.88,43.13,6.37,43.79Z"/><path class="cls-9" d="M143.76,105.89c-1.88-.37-2,.1-2.58,1.46.25-1.56.32-1.84-1.5-2.57,1.61.28,2,.47,2.57-1.4C141.9,105.38,142.27,105.23,143.76,105.89Z"/><path class="cls-9" d="M221.68,49.69c-1.89-.37-2,.09-2.59,1.45.26-1.55.33-1.83-1.49-2.56,1.6.28,2,.47,2.57-1.4C219.81,49.17,220.19,49,221.68,49.69Z"/><path class="cls-9" d="M214.74,34.8c-.74-.14-.78,0-1,.57.1-.61.13-.72-.58-1,.63.11.77.18,1-.55C214,34.6,214.15,34.54,214.74,34.8Z"/><path class="cls-9" d="M234.23,100.7c-.74-.15-.78,0-1,.57.1-.61.13-.72-.59-1,.63.11.77.19,1-.55C233.5,100.5,233.65,100.44,234.23,100.7Z"/><path class="cls-9" d="M72.22,15.84c-.74-.15-.78,0-1,.57.1-.61.13-.72-.58-1,.63.11.77.19,1-.55C71.49,15.63,71.63,15.58,72.22,15.84Z"/><path class="cls-9" d="M23.76,73.37c-2.94-.57-3.11.15-4,2.28.4-2.44.51-2.87-2.34-4,2.51.43,3.08.74,4-2.19C20.85,72.57,21.43,72.34,23.76,73.37Z"/><path class="cls-9" d="M190.54,5.34c-3.75-.73-4,.2-5.15,2.9.5-3.1.65-3.65-3-5.1,3.2.55,3.92.93,5.12-2.8C186.83,4.32,187.57,4,190.54,5.34Z"/><path class="cls-9" d="M105.52,20.35c-2.2-.43-2.33.11-3,1.7.3-1.82.38-2.14-1.75-3,1.88.32,2.3.55,3-1.64C103.34,19.75,103.78,19.58,105.52,20.35Z"/><path class="cls-9" d="M25.74,11a1.29,1.29,0,1,1-2.49-.68,1.29,1.29,0,1,1,2.49.68Z"/><path class="cls-9" d="M189.81,32.14a1.55,1.55,0,1,1-1.09-1.9A1.55,1.55,0,0,1,189.81,32.14Z"/><path class="cls-9" d="M20.73,24.57a1.53,1.53,0,1,1-1.07-1.88A1.53,1.53,0,0,1,20.73,24.57Z"/><path class="cls-9" d="M241.73,37.87a1.5,1.5,0,1,1-1-1.84A1.49,1.49,0,0,1,241.73,37.87Z"/><path class="cls-9" d="M216.39,75.65a1,1,0,0,1-1.34-.3,1,1,0,1,1,1.64-1A1,1,0,0,1,216.39,75.65Z"/><path class="cls-9" d="M100.69,45.32a1,1,0,0,1-1.34-.3A1,1,0,0,1,101,44,1,1,0,0,1,100.69,45.32Z"/><path class="cls-9" d="M242.59,93.52a1,1,0,1,1,.29-1.34A1,1,0,0,1,242.59,93.52Z"/><path class="cls-9" d="M129.92,38.56a1,1,0,1,1,.29-1.34A1,1,0,0,1,129.92,38.56Z"/><path class="cls-9" d="M195.66,112.89a1,1,0,0,1-1-1.64,1,1,0,0,1,1.35.3A1,1,0,0,1,195.66,112.89Z"/><path class="cls-9" d="M204.19,78.6c.11-.07,0-.49-.33-.95s-.61-.76-.72-.69,0,.5.33.94S204.08,78.67,204.19,78.6Z"/><path class="cls-9" d="M113.35,1.54a1.5,1.5,0,1,1-2.89-.78A1.51,1.51,0,0,1,112.3-.3,1.49,1.49,0,0,1,113.35,1.54Z"/><path class="cls-9" d="M84.24,82a1.41,1.41,0,1,1-1-1.72A1.4,1.4,0,0,1,84.24,82Z"/><path class="cls-9" d="M66.87,36.49a1.7,1.7,0,1,1-1.2-2.1A1.7,1.7,0,0,1,66.87,36.49Z"/><path class="cls-9" d="M28.91,45.1a1.38,1.38,0,1,1-1-1.7A1.38,1.38,0,0,1,28.91,45.1Z"/><path class="cls-9" d="M54.86,84.16a1,1,0,0,1-1.19.68A1,1,0,0,1,54.18,83,1,1,0,0,1,54.86,84.16Z"/><path class="cls-9" d="M351.76.92a1.91,1.91,0,0,1-2.29,1.41A1.91,1.91,0,1,1,351.76.92Z"/><path class="cls-9" d="M290.77,3.91a2.12,2.12,0,1,1-1.57-2.53A2.11,2.11,0,0,1,290.77,3.91Z"/><path class="cls-9" d="M246.79,8.48A1.46,1.46,0,1,1,244,7.8a1.46,1.46,0,1,1,2.83.68Z"/></g><g class="cls-57"><g class="cls-48"><path class="cls-58" d="M-48.64-185.52C61.36-641.79,588.86-295,636.85,59c24.23,178.7,402.92,19,274.52-114s364.48-73.5,187.49-255c-170-174.36-118.17-742.42,1.5-318,192,681,273.3-618.48,291-106.5,4.51,130.49-420,960,186,574.47,113.26-72.05-132,306-132,306l-126-109.5s-250.49-126-265.49-33-355.48,222-355.48,222L504.86,62S167.36-311.51-48.64-133Z"/></g></g></g></g></g></svg>