<svg id="Capa_1" data-name="Capa 1" xmlns="http://www.w3.org/2000/svg" xmlns:xlink="http://www.w3.org/1999/xlink" viewBox="0 0 209 290"><defs><style>.cls-1,.cls-16,.cls-17,.cls-36{fill:none;}.cls-2{clip-path:url(#clip-path);}.cls-3{fill:url(#linear-gradient);}.cls-4{clip-path:url(#clip-path-2);}.cls-18,.cls-22,.cls-5{fill:#fff;}.cls-6{opacity:0.3;}.cls-7{fill:url(#linear-gradient-2);}.cls-8{fill:url(#linear-gradient-3);}.cls-9{fill:#201932;}.cls-10{clip-path:url(#clip-path-4);}.cls-11{fill:url(#linear-gradient-4);}.cls-12{clip-path:url(#clip-path-5);}.cls-13{fill:url(#linear-gradient-5);}.cls-14{fill:url(#linear-gradient-6);}.cls-15{fill:#e1e1e1;}.cls-16,.cls-18{stroke:#515151;}.cls-16,.cls-17,.cls-18{stroke-miterlimit:10;}.cls-17{stroke:#1b2d37;}.cls-19{fill:url(#Nueva_muestra_de_degradado_1);}.cls-20{clip-path:url(#clip-path-7);}.cls-21{clip-path:url(#clip-path-8);}.cls-22,.cls-24,.cls-25,.cls-27,.cls-28,.cls-30,.cls-31,.cls-32,.cls-33,.cls-34{fill-rule:evenodd;}.cls-23,.cls-24{fill:#b5bcc4;}.cls-25,.cls-26{fill:#092f8e;}.cls-27{fill:#334f6c;}.cls-28{fill:#c2c9d1;}.cls-29{fill:#4f6984;}.cls-30{fill:#6887a8;}.cls-31{fill:#d6dfe8;}.cls-32{fill:#47607b;}.cls-33{fill:#002f5b;}.cls-34{fill:#001c46;}.cls-35{clip-path:url(#clip-path-9);}.cls-36{stroke:#fff;stroke-linecap:round;stroke-linejoin:round;stroke-width:9px;}.cls-37{clip-path:url(#clip-path-10);}.cls-38{fill:#1b2d37;}</style><clipPath id="clip-path"><rect class="cls-1" x="-485.48" y="38.21" width="207.47" height="228.11" rx="13.76"/></clipPath><linearGradient id="linear-gradient" x1="-562.18" y1="260.45" x2="409.32" y2="260.45" gradientUnits="userSpaceOnUse"><stop offset="0" stop-color="#0e061e"/><stop offset="0.09" stop-color="#100725"/><stop offset="0.22" stop-color="#150937"/><stop offset="0.36" stop-color="#1d0d55"/><stop offset="0.43" stop-color="#210f65"/><stop offset="0.82" stop-color="#4f1a7c"/><stop offset="0.99" stop-color="#641f87"/></linearGradient><clipPath id="clip-path-2"><rect class="cls-1" x="-562.18" y="-18.85" width="971.5" height="558.6"/></clipPath><linearGradient id="linear-gradient-2" x1="-642.59" y1="202.91" x2="75.25" y2="202.91" gradientUnits="userSpaceOnUse"><stop offset="0" stop-color="#2d62ff"/><stop offset="0.21" stop-color="#641f87"/><stop offset="0.48" stop-color="#1e2f8a"/><stop offset="1" stop-color="#0e061e"/></linearGradient><linearGradient id="linear-gradient-3" x1="-579.24" y1="294.08" x2="597.54" y2="294.08" xlink:href="#linear-gradient-2"/><clipPath id="clip-path-4"><rect class="cls-1" x="0.52" y="34.21" width="207.47" height="228.11" rx="13.76"/></clipPath><linearGradient id="linear-gradient-4" x1="-76.18" y1="256.45" x2="895.32" y2="256.45" xlink:href="#linear-gradient"/><clipPath id="clip-path-5"><rect class="cls-1" x="-76.18" y="-22.85" width="971.5" height="558.6"/></clipPath><linearGradient id="linear-gradient-5" x1="-156.59" y1="198.91" x2="561.25" y2="198.91" xlink:href="#linear-gradient-2"/><linearGradient id="linear-gradient-6" x1="-93.24" y1="290.08" x2="1083.54" y2="290.08" xlink:href="#linear-gradient-2"/><linearGradient id="Nueva_muestra_de_degradado_1" x1="65.25" y1="89.4" x2="202.84" y2="300.63" gradientUnits="userSpaceOnUse"><stop offset="0" stop-color="#fff" stop-opacity="0"/><stop offset="0.05" stop-color="#d5eff9" stop-opacity="0.14"/><stop offset="0.17" stop-color="#79caed" stop-opacity="0.44"/><stop offset="0.26" stop-color="#3fb4e5" stop-opacity="0.63"/><stop offset="0.3" stop-color="#29abe2" stop-opacity="0.7"/><stop offset="0.36" stop-color="#298ee2" stop-opacity="0.7"/><stop offset="0.46" stop-color="#295fe2" stop-opacity="0.7"/><stop offset="0.55" stop-color="#2942e2" stop-opacity="0.7"/><stop offset="0.61" stop-color="#2938e2" stop-opacity="0.7"/><stop offset="0.64" stop-color="#4138e2" stop-opacity="0.75"/><stop offset="0.69" stop-color="#6338e2" stop-opacity="0.83"/><stop offset="0.74" stop-color="#8038e2" stop-opacity="0.89"/><stop offset="0.8" stop-color="#9738e2" stop-opacity="0.94"/><stop offset="0.86" stop-color="#a738e2" stop-opacity="0.97"/><stop offset="0.92" stop-color="#b038e2" stop-opacity="0.99"/><stop offset="1" stop-color="#b338e2"/></linearGradient><clipPath id="clip-path-7"><path class="cls-1" d="M148.71,15.29c-3.7-14.61-17-13.5-17-13.5L105.79,7,44.73,19.12,18.78,24.29s-12.68,4.06-10.5,19S55,277.9,55,277.9s4.15,13,19.44,9.94l53.42-10.64,53.42-10.64c15.29-3,14.15-16.63,14.15-16.63S152.41,29.89,148.71,15.29Z"/></clipPath><clipPath id="clip-path-8"><path class="cls-1" d="M150.1,22.26c-3.71-14.61-17-13.5-17-13.5l-25.95,5.17L46.12,26.09,20.17,31.26s-12.68,4.05-10.5,19S56.4,284.87,56.4,284.87s4.15,13,19.43,9.94l53.43-10.64,53.42-10.64c15.28-3,14.15-16.63,14.15-16.63S153.8,36.86,150.1,22.26Z"/></clipPath><clipPath id="clip-path-9"><rect class="cls-1" x="79.29" y="153.43" width="50.17" height="18.25" transform="translate(-60.11 61.26) rotate(-25.67)"/></clipPath><clipPath id="clip-path-10"><rect class="cls-1" x="81.88" y="179.58" width="8.04" height="8.04" transform="translate(-71.05 55.32) rotate(-25.67)"/></clipPath></defs><title>Mesa de trabajo 22</title><g class="cls-2"><rect class="cls-3" x="-562.18" y="-18.85" width="971.5" height="558.6"/><g class="cls-4"><path class="cls-5" d="M9.53,239.33a1.93,1.93,0,0,1-.92,2.56,1.91,1.91,0,1,1,.92-2.56Z"/><path class="cls-5" d="M28.29,272.7a3.31,3.31,0,1,1-4.4-1.59A3.3,3.3,0,0,1,28.29,272.7Z"/><path class="cls-5" d="M107.89,226.31a4.87,4.87,0,1,1-3.6-5.88A4.86,4.86,0,0,1,107.89,226.31Z"/><path class="cls-5" d="M35.07,217.9c-6.2-1-6.51.53-8.3,5,.66-5.13.88-6-5.16-8.23,5.28.73,6.47,1.33,8.26-4.86C28.92,216.41,30.13,215.9,35.07,217.9Z"/><path class="cls-5" d="M158,142.19c-1.57-.25-1.65.14-2.11,1.28.17-1.3.22-1.53-1.31-2.09,1.34.19,1.64.34,2.1-1.24C156.47,141.81,156.78,141.68,158,142.19Z"/><path class="cls-5" d="M84.79,105.85c-8-1.3-8.42.68-10.75,6.51.86-6.63,1.14-7.81-6.68-10.64,6.84,1,8.39,1.72,10.7-6.3C76.83,103.92,78.39,103.25,84.79,105.85Z"/><path class="cls-5" d="M202.51,74.78c-8-1.3-8.43.68-10.75,6.51.86-6.63,1.14-7.81-6.68-10.64,6.84.94,8.38,1.72,10.69-6.3C194.55,72.85,196.11,72.18,202.51,74.78Z"/><path class="cls-5" d="M154.47,96.89a3.31,3.31,0,1,1-2.45-4A3.33,3.33,0,0,1,154.47,96.89Z"/><path class="cls-5" d="M45.25,260.66A3.06,3.06,0,1,1,43,257,3.07,3.07,0,0,1,45.25,260.66Z"/><path class="cls-5" d="M88.15,52.81a5.12,5.12,0,1,1-3.8-6.18A5.12,5.12,0,0,1,88.15,52.81Z"/><path class="cls-5" d="M89.1,142.74a3.5,3.5,0,1,1-2.6-4.21A3.51,3.51,0,0,1,89.1,142.74Z"/><path class="cls-5" d="M51.58,159.67a2.5,2.5,0,1,1-1.85-3A2.5,2.5,0,0,1,51.58,159.67Z"/><path class="cls-5" d="M168,181.41a2.07,2.07,0,1,1-1.54-2.48A2.06,2.06,0,0,1,168,181.41Z"/><path class="cls-5" d="M141.69,276.89a2.07,2.07,0,1,1-1.54-2.48A2.07,2.07,0,0,1,141.69,276.89Z"/><path class="cls-5" d="M141.26,21.12a2.07,2.07,0,1,1,.54-2.87A2.06,2.06,0,0,1,141.26,21.12Z"/><path class="cls-5" d="M1,108.56A2.06,2.06,0,0,1-1.85,108a2.07,2.07,0,0,1,.53-2.87,2.07,2.07,0,0,1,2.87.54A2.06,2.06,0,0,1,1,108.56Z"/><path class="cls-5" d="M34.31,18.74a2.07,2.07,0,1,1,.53-2.87A2.07,2.07,0,0,1,34.31,18.74Z"/><path class="cls-5" d="M113.08,246.63a2.53,2.53,0,1,1-1.75-3.12A2.54,2.54,0,0,1,113.08,246.63Z"/><path class="cls-5" d="M90,177.52a1.35,1.35,0,1,1-.94-1.66A1.35,1.35,0,0,1,90,177.52Z"/><path class="cls-5" d="M58.89,193.28A1.81,1.81,0,1,1,57.65,191,1.82,1.82,0,0,1,58.89,193.28Z"/><path class="cls-5" d="M173.3,122.37a3.28,3.28,0,1,1-2.25-4.07A3.29,3.29,0,0,1,173.3,122.37Z"/><path class="cls-5" d="M124.48,114.56c-4.16-.86-4.41.16-5.75,3.15.6-3.44.77-4-3.23-5.7,3.53.65,4.32,1.09,5.71-3C120.38,113.37,121.2,113.06,124.48,114.56Z"/><path class="cls-5" d="M181.14,256.39c-2.69-.56-2.86.1-3.73,2,.39-2.23.5-2.62-2.1-3.7,2.3.43,2.81.71,3.71-2C178.48,255.62,179,255.42,181.14,256.39Z"/><path class="cls-5" d="M171.45,234.93c-1.06-.22-1.12,0-1.47.8.16-.88.2-1-.82-1.45.9.16,1.1.28,1.45-.77C170.4,234.62,170.61,234.55,171.45,234.93Z"/><path class="cls-5" d="M209.57,67.16c-1-.21-1.12,0-1.46.81.16-.88.2-1-.82-1.45.9.16,1.1.27,1.45-.78C208.53,66.86,208.74,66.78,209.57,67.16Z"/><path class="cls-5" d="M137.25,192.27c-5.37-1.11-5.69.21-7.43,4.07.77-4.44,1-5.23-4.19-7.37,4.58.84,5.6,1.41,7.39-3.92C132,190.74,133,190.33,137.25,192.27Z"/><path class="cls-5" d="M19.76,93.53c-5.37-1.12-5.7.21-7.43,4.07.77-4.44,1-5.23-4.19-7.37,4.58.84,5.6,1.41,7.39-3.93C14.45,92,15.53,91.59,19.76,93.53Z"/><path class="cls-5" d="M161.29,40.51c-5.38-1.11-5.7.21-7.44,4.08.78-4.45,1-5.24-4.18-7.37,4.58.84,5.59,1.4,7.39-3.93C156,39,157.05,38.57,161.29,40.51Z"/><path class="cls-5" d="M15.08,212.34c-3.15-.65-3.34.13-4.36,2.39.46-2.6.59-3.06-2.45-4.32,2.68.49,3.28.83,4.33-2.3C12,211.45,12.6,211.21,15.08,212.34Z"/><path class="cls-5" d="M208.51,36.53A2.23,2.23,0,1,1,207,33.77,2.25,2.25,0,0,1,208.51,36.53Z"/><path class="cls-5" d="M130.08,143.67a2.07,2.07,0,1,1-1.43-2.54A2.08,2.08,0,0,1,130.08,143.67Z"/><path class="cls-5" d="M135.75,230.69a2.23,2.23,0,1,1-1.53-2.75A2.23,2.23,0,0,1,135.75,230.69Z"/><path class="cls-5" d="M165.12,4.87A3.46,3.46,0,1,1,162.74.59,3.46,3.46,0,0,1,165.12,4.87Z"/><path class="cls-5" d="M163.1,65.5a2.36,2.36,0,1,1-1.63-2.91A2.36,2.36,0,0,1,163.1,65.5Z"/><path class="cls-5" d="M137.32,75.8a1.68,1.68,0,1,1-1.16-2.08A1.67,1.67,0,0,1,137.32,75.8Z"/><path class="cls-5" d="M194.58,157.46a1.39,1.39,0,0,1-2.68-.76,1.41,1.41,0,0,1,1.72-1A1.39,1.39,0,0,1,194.58,157.46Z"/><path class="cls-5" d="M210.1,239.78a2.15,2.15,0,1,1-1.48-2.65A2.14,2.14,0,0,1,210.1,239.78Z"/><path class="cls-5" d="M72.07,76.09a2.19,2.19,0,1,1-1.51-2.7A2.19,2.19,0,0,1,72.07,76.09Z"/><path class="cls-5" d="M61.24,25.11a1.39,1.39,0,1,1-1-1.72A1.39,1.39,0,0,1,61.24,25.11Z"/><path class="cls-5" d="M6.74,62a2.19,2.19,0,1,1,1.93-2.42A2.17,2.17,0,0,1,6.74,62Z"/><path class="cls-5" d="M21.32,52.78a1.38,1.38,0,0,1-1.53-1.23,1.39,1.39,0,1,1,1.53,1.23Z"/><path class="cls-5" d="M7.37,121a2.19,2.19,0,1,1,.7-3A2.18,2.18,0,0,1,7.37,121Z"/><path class="cls-5" d="M49.7,124a1.37,1.37,0,0,1-1.91-.45,1.39,1.39,0,1,1,1.91.45Z"/><path class="cls-5" d="M22.06.63A1.39,1.39,0,0,1,20.14.18a1.41,1.41,0,0,1,.45-1.92,1.39,1.39,0,0,1,1.91.45A1.38,1.38,0,0,1,22.06.63Z"/><path class="cls-5" d="M104.75,39.87a1.4,1.4,0,1,1,.44-1.92A1.38,1.38,0,0,1,104.75,39.87Z"/><path class="cls-5" d="M7.73,248.07a1.4,1.4,0,1,1,.44-1.93A1.4,1.4,0,0,1,7.73,248.07Z"/><path class="cls-5" d="M49.75,238.87a1.38,1.38,0,0,1-1.91-.45A1.39,1.39,0,1,1,50.2,237,1.39,1.39,0,0,1,49.75,238.87Z"/><path class="cls-5" d="M26.64,185.51a2.15,2.15,0,1,1-1.49-2.65A2.15,2.15,0,0,1,26.64,185.51Z"/><path class="cls-5" d="M199.16,136.48c-2.32-.39-2.43.18-3.1,1.86.25-1.91.33-2.25-1.92-3.07,2,.28,2.41.5,3.09-1.8C196.87,135.91,197.32,135.72,199.16,136.48Z"/><path class="cls-5" d="M202.19,55.75a2.87,2.87,0,1,1-2.12-3.46A2.87,2.87,0,0,1,202.19,55.75Z"/></g><g class="cls-4"><g class="cls-6"><path class="cls-7" d="M-562.2,323.75c-73.5-17,110.91-481.78,380.6-24.48S165.91,33.73-47.28,88.21-372.4,65-241.29-45.86h-193s33.08,18.09-135.35,176.92S-562.2,323.75-562.2,323.75Z"/><path class="cls-8" d="M-579.24,386.72C-501.06,62.45-126.18,308.9-92.07,560.47c17.22,127,286.35,13.55,195.09-81s259-52.24,133.25-181.22c-120.84-123.92-84-527.63,1.06-226,136.45,484,194.23-439.54,206.8-75.68,3.2,92.74-298.47,682.23,132.18,408.27,80.49-51.21-93.8,217.46-93.8,217.46L393,544.48S215,454.94,204.29,521-48.35,678.8-48.35,678.8L-185.88,562.6S-425.73,297.18-579.24,424Z"/></g></g></g><rect class="cls-9" x="0.52" y="34.21" width="207.47" height="228.11" rx="13.76"/><g class="cls-10"><rect class="cls-11" x="-76.18" y="-22.85" width="971.5" height="558.6"/><g class="cls-12"><path class="cls-5" d="M158.23,151.16a2.24,2.24,0,1,1-1.67-2.7A2.24,2.24,0,0,1,158.23,151.16Z"/><path class="cls-5" d="M134.74,285.22a2.28,2.28,0,1,1-1.71-2.75A2.28,2.28,0,0,1,134.74,285.22Z"/><path class="cls-5" d="M85.28,249.6c-3.37-.52-3.53.31-4.49,2.75.35-2.77.46-3.27-2.82-4.44,2.87.38,3.51.7,4.46-2.66C81.94,248.81,82.59,248.53,85.28,249.6Z"/><path class="cls-5" d="M121,224.44c-1.18-.18-1.24.11-1.58,1,.13-1,.17-1.15-1-1.56,1,.14,1.24.25,1.57-.93C119.78,224.17,120,224.07,121,224.44Z"/><path class="cls-5" d="M161.53,196.45c-3.81-.59-4,.35-5.07,3.11.39-3.14.51-3.7-3.19-5,3.24.43,4,.8,5-3C157.75,195.56,158.49,195.24,161.53,196.45Z"/><path class="cls-5" d="M142.58,175.42a4.2,4.2,0,1,1-3.14-5A4.21,4.21,0,0,1,142.58,175.42Z"/><path class="cls-5" d="M126.43,269.25A1.87,1.87,0,1,1,125,267,1.88,1.88,0,0,1,126.43,269.25Z"/><path class="cls-5" d="M200.78,242.41a1.55,1.55,0,1,1,.39-2.15A1.54,1.54,0,0,1,200.78,242.41Z"/><path class="cls-5" d="M173.42,179.3c.16-.12-.1-.78-.58-1.48s-1-1.18-1.19-1.06.1.79.58,1.48S173.24,179.42,173.42,179.3Z"/><path class="cls-5" d="M188.89,135.29a4.18,4.18,0,1,1-3.11-5A4.2,4.2,0,0,1,188.89,135.29Z"/><path class="cls-5" d="M207.44,60.61c-4.5-.73-4.72.38-6,3.65.48-3.72.63-4.38-3.74-6,3.82.53,4.69,1,6-3.52C203,59.53,203.85,59.15,207.44,60.61Z"/><path class="cls-5" d="M190.51,184.41a4.31,4.31,0,1,1-3.21-5.19A4.3,4.3,0,0,1,190.51,184.41Z"/><path class="cls-5" d="M161.17,281.74a5,5,0,1,1-3.72-6A5,5,0,0,1,161.17,281.74Z"/><path class="cls-5" d="M198.78,240.92a2,2,0,1,1-1.5-2.4A2,2,0,0,1,198.78,240.92Z"/></g><g class="cls-12"><g class="cls-6"><path class="cls-13" d="M-76.2,319.75c-73.5-17,110.91-481.78,380.6-24.48S651.91,29.73,438.72,84.21,113.6,61,244.71-49.86h-193S84.82-31.77-83.61,127.06-76.2,319.75-76.2,319.75Z"/><path class="cls-14" d="M-93.24,382.72C-15.06,58.45,359.82,304.9,393.93,556.47c17.22,127,286.35,13.55,195.09-81s259-52.24,133.25-181.22c-120.84-123.92-84-527.63,1.06-226,136.45,484,194.23-439.54,206.8-75.68,3.2,92.74-298.47,682.23,132.18,408.27,80.49-51.21-93.8,217.46-93.8,217.46L879,540.48S701,450.94,690.29,517,437.65,674.8,437.65,674.8L300.12,558.6S60.27,293.18-93.24,420Z"/></g></g></g><path class="cls-5" d="M143.83,22.57c-3.48-13.8-15.6-12.83-15.6-12.83l-23.7,4.72c-2.79.55-2.79,4.17-2.79,4.17l1,4.88c.69,3.49-3.49,4.32-3.49,4.32L79,31.86l-20.21,4s-4.19.84-4.88-2.65l-1-4.88S51.56,25,48.77,25.56l-23.7,4.72S13.5,34,15.58,48.11,59.72,269.76,59.72,269.76,63.6,282,77.55,279.25l48.79-9.72,48.79-9.71c14-2.78,12.84-15.6,12.84-15.6S147.3,36.37,143.83,22.57Z"/><rect class="cls-15" x="34.87" y="76.27" width="117.97" height="63.96" transform="translate(-19.33 20.42) rotate(-11.26)"/><rect class="cls-16" x="35.98" y="54.84" width="117.97" height="117.97" transform="translate(-20.4 20.74) rotate(-11.26)"/><polygon class="cls-17" points="36.13 58.51 24.28 60.87 22.66 52.73 27.91 48.19 34.51 50.37 36.13 58.51"/><line class="cls-17" x1="55" y1="73.23" x2="110.07" y2="62.27"/><line class="cls-17" x1="56.19" y1="159.23" x2="146.1" y2="141.32"/><line class="cls-17" x1="57.57" y1="166.2" x2="147.49" y2="148.29"/><line class="cls-17" x1="59.1" y1="173.87" x2="149.01" y2="155.96"/><rect class="cls-18" x="53.33" y="185.31" width="117.97" height="31.27" transform="translate(-37.09 25.81) rotate(-11.26)"/><rect class="cls-15" x="58.14" y="197.61" width="24.16" height="24.16" transform="matrix(0.98, -0.2, 0.2, 0.98, -39.6, 17.75)"/><line class="cls-17" x1="89.88" y1="197.45" x2="127.52" y2="189.95"/><line class="cls-17" x1="91.41" y1="205.11" x2="161.11" y2="191.23"/><line class="cls-17" x1="92.8" y1="212.08" x2="151.35" y2="200.42"/><rect class="cls-18" x="61.52" y="226.44" width="117.97" height="31.27" transform="translate(-44.96 28.2) rotate(-11.26)"/><rect class="cls-15" x="66.33" y="238.74" width="24.16" height="24.16" transform="translate(-47.48 20.15) rotate(-11.26)"/><line class="cls-17" x1="98.07" y1="238.57" x2="135.71" y2="231.07"/><line class="cls-17" x1="99.6" y1="246.23" x2="169.3" y2="232.35"/><line class="cls-17" x1="100.99" y1="253.2" x2="159.54" y2="241.54"/><line class="cls-17" x1="125.08" y1="30.32" x2="137.62" y2="27.82"/><line class="cls-17" x1="125.77" y1="33.78" x2="138.31" y2="31.28"/><line class="cls-17" x1="126.46" y1="37.24" x2="139" y2="34.74"/><polygon class="cls-5" points="41.98 149.74 82.02 97.92 110.86 118.99 118.39 102.27 157.68 126.7 41.98 149.74"/><circle class="cls-5" cx="105.72" cy="93.2" r="5.69"/><circle class="cls-15" cx="39.67" cy="74.47" r="6.4"/><path class="cls-19" d="M143.83,22.57c-3.48-13.8-15.6-12.83-15.6-12.83l-23.7,4.72c-2.79.55-2.79,4.17-2.79,4.17l1,4.88c.69,3.49-3.49,4.32-3.49,4.32L79,31.86l-20.21,4s-4.19.84-4.88-2.65l-1-4.88S51.56,25,48.77,25.56l-23.7,4.72S13.5,34,15.58,48.11,59.72,269.76,59.72,269.76,63.6,282,77.55,279.25l48.79-9.72,48.79-9.71c14-2.78,12.84-15.6,12.84-15.6S147.3,36.37,143.83,22.57Z"/><g class="cls-20"><g class="cls-21"><path class="cls-5" d="M175.47,233.81a28.38,28.38,0,0,0-9.18-12.41c-5.82-4.58-13-7.12-20.07-8.58a69.86,69.86,0,0,0-13.8-1.53h0c-.38,0-.77,0-1.15.06a9.61,9.61,0,0,0-2.24.53l-1.06.45"/><path class="cls-5" d="M127.92,212.33c-.34.19-.68.36-1,.58a9.92,9.92,0,0,0,4.26,18.15c1.08.13,2.17.09,3.27.16,5.8.37,11.67,1.36,16.85,4.05.38.2.75.41,1.12.63,2.12,1.28,4.07,3.08,4.64,5.51.41,1.72,1.24,3.37.87,5.12l.94,1.39c-.16,1,.53,1.47.55,2.49.07,3.08-1,4.74,1.46,6.52A9.93,9.93,0,0,0,176,252a17.78,17.78,0,0,0,.59-2.6,30.58,30.58,0,0,0-1.14-15.6"/><path class="cls-5" d="M64.8,196.69c-.28.13-.35.16-.62.31A10.21,10.21,0,0,0,59,205.1c-.62,7.66.5,15.69,5,21.93A23.62,23.62,0,0,0,70,232.75a26.73,26.73,0,0,0,7.42,3.5c7.08,2.09,14.66,1.64,21.76.18a55.93,55.93,0,0,0,7.21-1.93s.75-.27,1.33-.56a9.92,9.92,0,0,0-3.35-18.66,11.4,11.4,0,0,0-4.86.6,33.89,33.89,0,0,1-14.17,1.79c-2.13-.25-4.38-.8-5.47-2.66a11.1,11.1,0,0,1-1.16-5.24,27.52,27.52,0,0,1,.1-3.14s.06-.82,0-1.48A10.15,10.15,0,0,0,72,196.27a10.33,10.33,0,0,0-7.18.42"/><path class="cls-22" d="M148.88,278.93c.57-5.16,1.25-12.69,1.65-16.77.6-6.12-2.12-15.39-3-21.9-.79-5.72.57-12.59-2.36-17.15s-7.73-11.24-15.21-10.22l-27.12,3.73c-7.48,1-11.19,8.2-11.9,13.94s.31,16.9,2,26.33c-.11.19-5.21,11.92-6.53,17.84-2,9.18-2.21,18.93,1,27.82a38.55,38.55,0,0,0,13.2,17.55l.07.06a13.29,13.29,0,0,0,2.36,1.39,13.53,13.53,0,0,0,14.79-22.28c-.71-.65-1.53-1.18-2.23-1.84a10.49,10.49,0,0,1-2.39-3.24c-1.42-3-1.45-6.5-1.08-9.72a42.73,42.73,0,0,1,4.19-14l.14-.29.3-.63.91-.14,4.93-.32c-.19,2.36-.44,4.72-.7,7.09a48.07,48.07,0,0,0,.13,14.07c1.39,7.45,5.33,14.23,9.74,20.49,1.36,1.92,2.76,3.8,4.2,5.66l.11.14.11.14.89,1c.33.31.65.65,1,.94a13.53,13.53,0,0,0,20.29-17.43c-.46-.74-1-1.42-1.54-2.11-2.73-3.57-5.5-7.16-7.35-11.3a10.9,10.9,0,0,1-.91-2.94,24.58,24.58,0,0,1,.25-5.92"/><path class="cls-23" d="M116.53,270.15l-.14.29a42.73,42.73,0,0,0-4.19,14c-.37,3.22-.34,6.69,1.08,9.72a10.33,10.33,0,0,0,2.39,3.24c.7.66,1.52,1.19,2.23,1.84a13.53,13.53,0,0,1-.59,20.52,13.37,13.37,0,0,1-5.47,2.63,9.81,9.81,0,0,0,1.22-.84A13.8,13.8,0,0,0,118,309.4a13.66,13.66,0,0,0-4.33-8.34c-.71-.65-1.52-1.18-2.23-1.83A10.73,10.73,0,0,1,109,296c-1.42-3-1.44-6.5-1.08-9.73.55-4.86,4.15-18.38,4.15-18.38.32-.06,4.7,1.71,4.7,1.71Zm27.53-40.5h.74l.06,0,.09,0H145l.1,0h0l1.1.26h0l.14,0,.15,0,.09,0h.06l.08,0h0l0,0,.11,0h.13a31.94,31.94,0,0,1,6.11,2.37c.38.2.75.41,1.12.63,2.12,1.28,4.07,3.08,4.64,5.51.41,1.73.95,3.61.58,5.36l.09.91a14.58,14.58,0,0,0,.11,2.87c.07,3.08.53,4.6,3,6.38a10.16,10.16,0,0,0,11.85-.28c.26-.2.5-.42.74-.64a9.91,9.91,0,0,1-14.5,3.45c-2.51-1.78-1.39-3.44-1.46-6.52,0-1-1.86-3.32-1.7-4.33h0c.36-1.75-.25-3-.66-4.67-.57-2.43-2.52-4.23-4.64-5.51-.37-.22-.74-.43-1.12-.63a30,30,0,0,0-4.1-1.74,57,57,0,0,0,.32,6.73c.89,6.51,3.61,15.78,3,21.9-.4,4.08-1.08,11.61-1.65,16.77a24.58,24.58,0,0,0-.25,5.92,10.9,10.9,0,0,0,.91,2.94c1.85,4.14,4.62,7.73,7.35,11.3.53.69,1.08,1.37,1.54,2.11a13.54,13.54,0,0,1-6.14,19.6,13.4,13.4,0,0,1-6,1c.54-.18,1.08-.39,1.6-.61,3.37-1.45,6.19-2.94,7.46-6.38A13.69,13.69,0,0,0,154.18,303c-.46-.74-1-1.42-1.55-2.12-2.72-3.57-5.5-7.16-7.35-11.3a10.88,10.88,0,0,1-.9-2.94,11.25,11.25,0,0,1-.11-1.65,38.45,38.45,0,0,1,.36-4.26c.57-5.16,1.24-12.69,1.64-16.78.61-6.12-2.11-15.39-3-21.9-.56-4.06,0-8.7-.74-12.68l1.53.28Z"/><path class="cls-23" d="M130.07,265.16a4.36,4.36,0,0,0,.17-.59,10.06,10.06,0,0,0,.2-2.7c2.7-.49,5.36-1,7.95-1.49a62.53,62.53,0,0,0,8.9-2.2c1.06-.37,2.12-.78,3.13-1.25-.15-1.51-.39-3.1-.68-4.7a33.68,33.68,0,0,1-3.84,1.66c-3.73,1.39-7.77,1.94-11.75,2.68l-4.62.86c-.78-1.65-2.22-3.36-4-3.6a10.43,10.43,0,0,0-1.47-.09,50.39,50.39,0,0,0-12.17,1.18,5.22,5.22,0,0,0-3.14,3.74,5.84,5.84,0,0,0-.15.93c-1.24,0-2.48-.12-3.73-.24a36.11,36.11,0,0,1-11.49-2.67c.09.5.18,1,.26,1.48,0,0-.58.06-1.32.18-.29.67-.65,1.54-1.06,2.54a72.72,72.72,0,0,0,13.29,3c1.45.14,2.9.22,4.36.26a7.93,7.93,0,0,0,.34,1.18,19.46,19.46,0,0,1-2.17,2,35.49,35.49,0,0,1-15.23,7.11,13.43,13.43,0,0,1-5.41.26s0,.06,0,.09q-.61,2.75-1,5.55a17.83,17.83,0,0,0,5.92,0,40.39,40.39,0,0,0,12.27-4.07,33.49,33.49,0,0,0,9.72-6.93,5.36,5.36,0,0,0,.89.16,20.88,20.88,0,0,0,2.65.08l.84-.13,4.93-.32v0c1-.12,2-.26,2.82-.41a39.82,39.82,0,0,0,13.3,8.41,17.63,17.63,0,0,0,10.21.73c.21-2,.43-4.18.64-6.38a10.49,10.49,0,0,1-2.56,1c-3.07.61-6.25-.46-9-1.83a39.83,39.83,0,0,1-8-5.44"/><path class="cls-23" d="M148.55,284.06a38.51,38.51,0,0,0-6.81.83,8.18,8.18,0,0,0-1-1.36c-1.31-1.34-3.37-2.59-5.2-2.17a13,13,0,0,0-1.4.43,49.87,49.87,0,0,0-11,5.37,4,4,0,0,0-1.25,1.72c.06.45.14.89.22,1.34a37.82,37.82,0,0,0,2.41,7.82l.14.14a3.64,3.64,0,0,0,.45.59,5.76,5.76,0,0,0,5.31,1.17,49.72,49.72,0,0,0,11.64-5.56,5.21,5.21,0,0,0,1.63-4.61,5.37,5.37,0,0,0-.11-.64c.58-.1,1.17-.19,1.75-.27a28.23,28.23,0,0,1,4.59-.28c-.13-.26-.25-.53-.37-.79a10.9,10.9,0,0,1-.91-2.94c0-.26-.06-.52-.08-.79"/><path class="cls-23" d="M111.9,290.2h0m-.19.35.05-.11-.09.2,0-.09m-.15.47,0-.11,0,.19V291M85,288.1a53.23,53.23,0,0,1,11.44-1.43,13.27,13.27,0,0,1,1.47,0c1.87.18,3.42,2,4.24,3.7a7.59,7.59,0,0,1,.4,1.06c1.47,0,2.95-.13,4.42-.3a21.21,21.21,0,0,0,3.88-.71l.47-.16.83-.47a13.56,13.56,0,0,0,1.17,4.36l0,.12a15,15,0,0,1-4.59,1.17,50.68,50.68,0,0,1-5.64.49,8.16,8.16,0,0,1-.13,1.3,5.22,5.22,0,0,1-3,3.86,50.53,50.53,0,0,1-12.42,1.62c0-.07,0-.14-.07-.2A43.46,43.46,0,0,1,85,288.1"/><path class="cls-23" d="M90.71,235.13A36.65,36.65,0,0,1,80.1,233.7a25.27,25.27,0,0,1-13.38-9.22c-4.52-6.24-5.64-14.26-5-21.92a10.48,10.48,0,0,1,1.94-5.24A10.24,10.24,0,0,0,59,205.1c-.62,7.66.5,15.69,5,21.93a25.26,25.26,0,0,0,13.37,9.22,38.58,38.58,0,0,0,13.35,1.33c0-.85-.05-1.67-.05-2.45"/><path class="cls-24" d="M102.56,234c.46-2.26,1.21-5.19,3.35-6,3.72-1.49,14.76-3.3,18.94-2.89,2.7.27,5,2.91,6.14,5.35a19.42,19.42,0,0,1,1.25,9.91c-.46,2.31-2.1,4.81-4.33,5.59a47.18,47.18,0,0,1-7.6,1.57,64.58,64.58,0,0,1-10.91.77c-2.61-.17-5.62-1.65-6.75-4s-.63-7.52-.09-10.24"/><path class="cls-25" d="M91.31,217.68a20.37,20.37,0,0,0,8.07,3.24c1.33.2,34.75-1.52,43-4.7a19,19,0,0,0,5.23-3.11l-1.36-.29c-1-.21-2.06-.41-3.1-.58a18,18,0,0,1-1.8.81c-9.47,3.67-32.92,6.23-43,4.7a18.89,18.89,0,0,1-3-.74,39.38,39.38,0,0,1-4,.67"/><path class="cls-26" d="M156.82,216c-.46.68-.9,1.37-1.34,2a52.06,52.06,0,0,0-7.25,15.91,30,30,0,0,1,3.07,1.37c.38.2.75.41,1.12.63s.72.45,1.06.7c.05-.21.09-.41.14-.61a47.71,47.71,0,0,1,7-15.46c.44-.67.87-1.37,1.34-2a43.5,43.5,0,0,0-5.18-2.53"/><path class="cls-26" d="M149.06,231c-.31,1-.59,1.94-.83,2.92h0l.05,0h.08l0,0h0l0,0,.06,0h0l.07,0h.06l0,0h.09l0,0h.06l.1,0h0l0,0,0,0h.1l.05,0h0l.11,0h0l.06,0h.07l0,0,0,0h0l.11,0h0l.07,0h.06l0,0,.05,0h0l.12.06h0l.07,0h.09l.05,0,0,0h0l.12.06h0l.08,0h.05l0,0,.05,0h0l.11.05h0l.08,0h.06l0,0,0,0h0l.11.06c.38.2.75.41,1.12.63l.09,0h.05l.05,0h0l.09.06h0l0,0,0,0h0l.08,0h0l0,0h0l.06,0h0l0,0h0l.12.08h0l0,0,0,0h0l.12.09h0l0,0,0,0c.05-.21.09-.41.14-.61.21-.88.44-1.75.71-2.62h0c-.37-.22-.74-.43-1.12-.63a31.49,31.49,0,0,0-4.15-1.76"/><path class="cls-26" d="M86.06,218.13h0m-4.43-1.46a10.35,10.35,0,0,0,3.7,1c.68.08,1.37.13,2.06.16-.1.18-.19.38-.28.57A24.94,24.94,0,0,0,85,226.72a22.14,22.14,0,0,0,.54,8.45,4.84,4.84,0,0,0,1.47,2.5,38.69,38.69,0,0,1-7-.75,22.14,22.14,0,0,1-.76-4,34.13,34.13,0,0,1,2-15.38c.11-.27.21-.55.33-.83"/><path class="cls-26" d="M79.41,233.49a20.84,20.84,0,0,0,.69,3.43l.11,0h0l.1,0h0l.1,0h.66l.09,0h0l.09,0h0l.09,0h0l.09,0h.12c.32.06.65.1,1,.15h1.85l1.2.08h.76l.66,0a4.8,4.8,0,0,1-1.47-2.5c0-.11-.07-.23-.11-.35a33.29,33.29,0,0,1-5.37-1.12l-.69-.21"/><path class="cls-26" d="M122.36,272.41c-.12,1.25-.26,2.49-.39,3.74-.1.86-.18,1.72-.25,2.58a18,18,0,0,1,3.61-1.21,41,41,0,0,1,13.35-.9,30.21,30.21,0,0,1,10.2,2.38v-.07c.2-1.75.4-3.78.61-5.85-6-2.27-12.59-2.67-18.81-2.16a38.21,38.21,0,0,0-8.32,1.49"/><path class="cls-26" d="M128.38,271.15a38,38,0,0,0,8.9,5.37l1.4.1a30.21,30.21,0,0,1,10.2,2.38v-.07l.05-.39v-.11l0-.31V278q0-.42.09-.87v-.27l0-.15v-.12c0-.33.07-.67.1-1v-.28l0-.15v0h0V275l0-.23,0-.15v-.12l.06-.63v0c0-.26.05-.52.08-.79a32.48,32.48,0,0,0-4-1.22c0,.24-.05.49-.07.74a15.44,15.44,0,0,1-6.89-1.78,54.42,54.42,0,0,0-7.88.1c-.77.06-1.53.13-2.3.23"/><path class="cls-26" d="M87,272.67c-.22.74-.4,1.43-.54,2.06-.28,1.24-.52,2.5-.72,3.76a34.7,34.7,0,0,1,4-.2c8.06,0,16.19,2.23,22.38,7.48,0-.44.08-.87.13-1.3a39.27,39.27,0,0,1,.9-5.05,42.55,42.55,0,0,0-23.91-6.84c-.74,0-1.48,0-2.21.09"/><path class="cls-26" d="M86.46,274.64a13.43,13.43,0,0,0,5.41-.26,36.08,36.08,0,0,0,4.66-1.27,44.81,44.81,0,0,1,8.69,2.26c-.53.29-1,.56-1.58.83a46.73,46.73,0,0,1-6.59,2.74,41.19,41.19,0,0,0-7.36-.65,34.7,34.7,0,0,0-4,.2l0-.22V278l0-.07v-.33l0-.09v-.07l0-.09v-.05h0l0-.13v-.06l0-.1V277l0-.14v-.05l0-.11v-.05l0-.14v-.05l0-.11v0l0-.15v0l0-.12v-.1l0-.16,0-.06,0-.19v0l0-.2,0-.06,0-.16v-.06l0-.21Zm23.25,2.75a34.13,34.13,0,0,1,3.39,2l0,.09v.06h0c0,.1,0,.2-.07.3h0l0,.05V280h0l0,.15h0l0,.08v.07h0l-.06.29h0v.16h0l0,.15h0v0l0,.07v.07h0l-.06.29h0v.16h0a.59.59,0,0,1,0,.14h0v.16h0c0,.1,0,.19,0,.29v0h0v.14h0a.59.59,0,0,1,0,.14h0v.18c0,.09,0,.19,0,.28v.08l0,.07v0h0c0,.05,0,.1,0,.15h0v.18a2.7,2.7,0,0,0,0,.28V284h0a.68.68,0,0,1,0,.14h0v.18s0,.09,0,.14,0,.1,0,.15h0v.14h0v.15h0v.48h0v.33a27.91,27.91,0,0,0-3.62-2.61c.34-1.74.79-3.77,1.26-5.77"/><path class="cls-27" d="M101.7,232.34c.45-2.26,1.21-5.2,3.35-6.06,3.72-1.49,14.76-3.29,18.94-2.88,2.7.27,5,2.9,6.14,5.34a19.47,19.47,0,0,1,1.25,9.92c-.46,2.31-2.1,4.81-4.33,5.59-3.81,1.32-14.3,2.61-18.51,2.34-2.61-.18-5.62-1.66-6.75-4s-.63-7.53-.09-10.24"/><path class="cls-28" d="M100,231.32c.46-2.31,2.11-4.81,4.33-5.58,3.81-1.32,14.5-2.67,18.51-2.34,2.35.19,4.57,2.21,5.59,4.33a20.33,20.33,0,0,1,1.25,9.92c-.46,2.31-2.1,4.81-4.33,5.58-3.81,1.32-14.5,2.67-18.51,2.34-2.35-.19-4.57-2.21-5.59-4.33a20.35,20.35,0,0,1-1.25-9.92"/><path class="cls-27" d="M104.66,231.61a2.79,2.79,0,0,1,1.48-2.15,21,21,0,0,1,6.41-.81,2.76,2.76,0,0,1,2,1.71,8.94,8.94,0,0,1,.49,3.87,2.8,2.8,0,0,1-1.47,2.15,21.44,21.44,0,0,1-6.42.81,2.81,2.81,0,0,1-2-1.72,8.9,8.9,0,0,1-.49-3.86"/><path class="cls-27" d="M117.61,231.76a1.6,1.6,0,0,1,.92-1.18,14.61,14.61,0,0,1,4-.5,1.61,1.61,0,0,1,1.19.92,4.33,4.33,0,0,1,.26,2.11,1.57,1.57,0,0,1-.92,1.19,14.94,14.94,0,0,1-3.94.5,1.61,1.61,0,0,1-1.19-.92,4.39,4.39,0,0,1-.27-2.12"/><path class="cls-27" d="M106.06,240.35a6.46,6.46,0,0,1,3.28-1.48c2.66-.51,10-1.44,12.72-1.6a6.32,6.32,0,0,1,3.53.61,1.5,1.5,0,0,1,.27,2.09,6.38,6.38,0,0,1-3.28,1.47c-2.66.52-10,1.45-12.71,1.61a6.33,6.33,0,0,1-3.54-.61,1.5,1.5,0,0,1-.27-2.09"/><path class="cls-29" d="M148.53,283.21a39,39,0,0,0-10,1.23,57.87,57.87,0,0,0-9.12,3,30.07,30.07,0,0,0-6.77,3.73l-.19.16-.12.13a37.21,37.21,0,0,0,1.05,3.71,2.3,2.3,0,0,0,1.84-.3c.65-.44,1.27-.91,2-1.31A45.39,45.39,0,0,1,144,288a26.12,26.12,0,0,1,5.51-.23,11.22,11.22,0,0,1-.9-2.92,12.89,12.89,0,0,1-.1-1.64"/><path class="cls-30" d="M121.52,291.21c-.2-1.59-.33-3.68.88-4.71,2.12-1.78,9-5.36,11.81-6,1.83-.42,3.89.83,5.19,2.17a13.45,13.45,0,0,1,3,6.24,5.24,5.24,0,0,1-1.63,4.61,49.61,49.61,0,0,1-11.65,5.56,5.75,5.75,0,0,1-5.3-1.17c-1.26-1.31-2-4.8-2.28-6.7"/><path class="cls-31" d="M120.19,290.91a5.24,5.24,0,0,1,1.63-4.61,48.53,48.53,0,0,1,11.65-5.56,5.25,5.25,0,0,1,4.61,1.63,14.14,14.14,0,0,1,3,6.24,5.24,5.24,0,0,1-1.63,4.61,48.91,48.91,0,0,1-11.65,5.56,5.25,5.25,0,0,1-4.61-1.63,14.24,14.24,0,0,1-3-6.24"/><path class="cls-29" d="M111.39,289s0-.09,0,0m-.19.35a.54.54,0,0,0,0-.11l-.08.2,0-.09m-.12.36,0,.19v-.08Zm.93-1.34a15.58,15.58,0,0,0,.82,4.74,15.06,15.06,0,0,1-4.6,1.18,55.13,55.13,0,0,1-9.18.5c-.93,0-1.89.11-2.83.07-1.63-.07-3.11-.81-3.32-2.15a2.25,2.25,0,0,1,3-2.46c.23.09.11.06.18.08a17.58,17.58,0,0,0,2.71-.06,55.31,55.31,0,0,0,7.59-.3,21.05,21.05,0,0,0,3.88-.71l.47-.16c.34-.17.67-.37,1-.57l.24-.16"/><path class="cls-30" d="M81.94,291.67c.32-1.56.84-3.59,2.33-4.18,2.57-1,10.2-2.27,13.09-2,1.87.19,3.43,2,4.25,3.7a13.46,13.46,0,0,1,.85,6.86,5.22,5.22,0,0,1-3,3.86,49,49,0,0,1-12.8,1.6A5.74,5.74,0,0,1,82,298.75c-.78-1.64-.43-5.2,0-7.08"/><path class="cls-31" d="M80.78,291a5.22,5.22,0,0,1,3-3.86,48.53,48.53,0,0,1,12.81-1.6,5.22,5.22,0,0,1,3.85,3,14,14,0,0,1,.86,6.86,5.22,5.22,0,0,1-3,3.86,48.53,48.53,0,0,1-12.81,1.6,5.22,5.22,0,0,1-3.85-3,14,14,0,0,1-.86-6.86"/><path class="cls-29" d="M148.66,253.15l-.09-.41,0,.24,0,.17m.24.52-.21-.45a2.45,2.45,0,0,0,.21.45m.36.43-.34-.41a1.9,1.9,0,0,0,.34.41m-56.55,1.31a36,36,0,0,0,11.49,2.66c9.91,1,19.61-1,29.25-2.77,4-.74,8-1.29,11.76-2.69a32.43,32.43,0,0,0,4-1.74l.24-.22c.31,1.61.59,3.21.79,4.77a34.26,34.26,0,0,1-3.64,1.49,61.18,61.18,0,0,1-8.9,2.19c-10.71,2-22.44,4.61-33.83,3.47a42.07,42.07,0,0,1-12.18-2.69c.73-1.76,1.25-2.93,1.28-3-.09-.49-.18-1-.26-1.48"/><path class="cls-30" d="M109.21,258.13c.37-1.55,1-3.56,2.48-4.09,2.61-.93,10.29-1.88,13.16-1.49,1.86.26,3.35,2.14,4.1,3.86a13.47,13.47,0,0,1,.6,6.89,5.22,5.22,0,0,1-3.14,3.74,49.12,49.12,0,0,1-12.86,1.12,5.71,5.71,0,0,1-4.55-3c-.73-1.68-.24-5.22.21-7.08"/><path class="cls-31" d="M108.08,257.38a5.22,5.22,0,0,1,3.14-3.74,48.71,48.71,0,0,1,12.85-1.12,5.24,5.24,0,0,1,3.75,3.15,14.11,14.11,0,0,1,.6,6.88,5.25,5.25,0,0,1-3.15,3.75,48.25,48.25,0,0,1-12.85,1.11,5.2,5.2,0,0,1-3.75-3.14,14,14,0,0,1-.59-6.89"/><path class="cls-29" d="M150.51,261a4.29,4.29,0,0,1,0,1.43,3.32,3.32,0,0,1-2.45,2.44,18.56,18.56,0,0,1-7.7.62,30.79,30.79,0,0,1-13.62-4.07,5.54,5.54,0,0,1-2.34-2.2l-.07-.15a2.34,2.34,0,0,0-2.53-1.14,1.65,1.65,0,0,0-.44.16,1.83,1.83,0,0,0-.64.45,2.43,2.43,0,0,0-.31,2.78,11.52,11.52,0,0,0,5.12,4.6,37,37,0,0,0,15.4,4.13,22.49,22.49,0,0,0,8.28-.81A7.95,7.95,0,0,0,154.66,258c-.6-1.76-1.92-3.23-2.94-4.79a3.18,3.18,0,0,0-1.14-.93,2.11,2.11,0,0,0-.93-.11c.63,3.14,1.18,6.15.86,8.74"/><path class="cls-29" d="M92.33,253.09A2.32,2.32,0,0,0,91,253a1.65,1.65,0,0,0-.44.16,1.77,1.77,0,0,0-.75.57c-.21.25-.4.53-.6.8-2.34,3.24-4.63,6.68-5.38,10.56a7.07,7.07,0,0,0,1.34,6.07c1.61,1.79,4.3,2.35,6.62,2.31a29.32,29.32,0,0,0,11.09-2.76A31,31,0,0,0,114.22,263a15,15,0,0,0,1.27-1.7,2.6,2.6,0,0,0,.23-.45,2.33,2.33,0,0,0-.72-2.56,2.35,2.35,0,0,0-3.22.44c-3.18,4.35-8.25,7.18-13.44,8.94a18.59,18.59,0,0,1-7.7,1.28,2.91,2.91,0,0,1-2.22-.91,3.42,3.42,0,0,1,0-2.82A26.74,26.74,0,0,1,93,257c-.23-1.28-.46-2.6-.66-3.92"/><path class="cls-22" d="M155.12,176.93c-1.56-20.15-20.24-35.16-41.68-33.49a40.09,40.09,0,0,0-27.06,13.3,30,30,0,0,0-8.71,16c-1.74,8.07,0,23.64,3.41,31.15,3.08,6.71,10,12.76,17.27,13.87,10.05,1.53,33.5-1,43-4.7,6.89-2.66,12.32-10.06,13.88-17.27,1-4.53.87-11.42,0-17.92"/><path class="cls-24" d="M148.66,166.09c-2.62-5.31-9.42-10.65-15.71-11.52-11-1.54-32.17.69-41,5.3-7.5,3.92-9.82,7.58-11.46,12.63a22.69,22.69,0,0,0-.88,4.21,1,1,0,0,0-.29,0c-1.17.17-1.94,2.66-1.73,5.56.19,2.62,1.12,4.69,2.16,4.93a20.29,20.29,0,0,0,2.18,7c2.7,4.57,8.73,9.53,15.5,10.11,9.32.79,31.25-1.6,40.17-4.39,6.49-2,11.74-7.3,13.39-12.35a14.62,14.62,0,0,0,.55-2.42"/><path class="cls-24" d="M155.18,177.86c.89,6.5-1.85,9.79-2.83,14.32-1.56,7.22-7,14.61-13.87,17.28-9.48,3.66-32.93,6.23-43,4.7-10.25-1.57-15.42-11.6-16.5-16.52,3.2,14.58,13.21,19.18,19.34,20.11,10.05,1.53,33.5-1,43-4.7,6.89-2.66,12.32-10.06,13.88-17.27,1-4.53.87-11.42,0-17.92"/><path class="cls-32" d="M79,172.43c1.65-5,4.33-10,11.83-13.94,8.81-4.6,30-6.83,41-5.3,6.29.88,14,7.05,16.58,12.35,0,0,2.35,3.39,3.57,11,1.6,17.06-9,20-15.48,22-8.92,2.79-30.85,5.19-40.17,4.4-6.77-.58-12.8-5.54-15.5-10.12-3-5.11-3.28-16.07-1.44-21.71"/><path class="cls-27" d="M78.2,175.33c1.16-.16,2.28,2.06,2.49,5s-.56,5.38-1.73,5.55-2.28-2.06-2.49-5,.56-5.38,1.73-5.55"/><path class="cls-32" d="M77.68,175.58c1.06-.15,2.08,2,2.28,4.77s-.49,5.18-1.54,5.32-2.08-2-2.28-4.77.49-5.17,1.54-5.32"/><path class="cls-27" d="M152.51,171c1.14-.27,2.44,1.83,2.91,4.69s-.09,5.39-1.23,5.66-2.44-1.84-2.91-4.69.09-5.4,1.23-5.66"/><path class="cls-32" d="M153,171.13c1-.24,2.23,1.79,2.68,4.54s0,5.17-1.06,5.41-2.23-1.79-2.68-4.54,0-5.17,1.06-5.41"/><path class="cls-33" d="M145.77,164.22C140,155,127,152.52,112,154.54c-12,1.62-22.69,4.66-27.8,12.4a22.22,22.22,0,0,0-3.15,6.24c-1.76,5.31-.57,15.67,2.27,20.47,2.53,4.3,9,8.64,15.37,9.16,8.81.72,29.56-1.6,38-4.25,6.15-1.93,11.13-6.9,12.7-11.66,1.75-5.31.28-15.29-2.16-20.23Z"/><path class="cls-34" d="M147.57,168.09c-7-5.38-17.47-8.11-28.69-6.63-12,1.58-22,7.61-27.08,15.37a22.26,22.26,0,0,0-3.12,6.27c-1.34,4.12-.91,11.29.67,16.57a21.12,21.12,0,0,0,9.28,3.3c8.8.76,29.53-1.49,38-4.12,6.13-1.92,11.09-6.9,12.64-11.68s.44-13.81-1.67-19.08"/><g class="cls-35"><path class="cls-36" d="M125.56,158.55S91,156.14,85.61,173.21"/></g><g class="cls-37"><path class="cls-22" d="M84.09,180.58a3.28,3.28,0,1,0,4.29,1.74,3.27,3.27,0,0,0-4.29-1.74"/></g><path class="cls-22" d="M59.31,200.91a12.32,12.32,0,0,1-1-9.32c.83-2.6-4.19-10.55-.69-12.34,1.52-.77,3,4.86,3.85,7,0,0-2-9.4,0-10.36,1.73-.82,4.29,7.35,4.29,7.35s.28-10.29,2.15-10.46c2.57-.74,3.55,9.67,3.55,9.67s1.27-9.33,4.12-9.1.23,15.47,1.78,16.43c1.2-.49,2.75-3.12,4-3.93,2.15-1.44,3.59-.75,2.85,2.12-1.15,4.49-4.42,11.57-6.3,12.35S59.31,200.91,59.31,200.91Z"/><path class="cls-25" d="M59.19,203.87c3.47-2.38,15.14-3.46,19.36-.51.51-.31.1-2.34-.7-3.08-1.56-.83-7.86-4.08-18.29.44C58.15,201.59,59.19,203.87,59.19,203.87Z"/><path class="cls-24" d="M75.58,199.29s12.74-14.84,5.57-13.36c5.74-3.92,3.87,6-3.3,14.35"/><path class="cls-24" d="M77.25,189.64c-2.72-1,1.27-17.58-3.7-14.7.88-1.31,1.06-1.52,2.08-1.65,1,.23,1.18,1.76,1.31,3.88C77.2,181.47,76.48,188,77.25,189.64Z"/><path class="cls-24" d="M71.45,182.41c-1.1-3.1-2.06-11.71-4.62-8.16C67.48,171.63,70.62,170.65,71.45,182.41Z"/><path class="cls-24" d="M65.75,183.2c-2.31-7.07-4.52-9.62-5.1-5.65C62.47,174.79,63.52,180.22,65.75,183.2Z"/><path class="cls-24" d="M61.48,186.21c-1.42-.12-3.2-10-5.1-4.53a3,3,0,0,1,.32-1.51C58.7,176.44,60.59,183.64,61.48,186.21Z"/><path class="cls-24" d="M60.65,191.62a12.09,12.09,0,0,1,6.12,2.08c.36.35,4.07-3.71,7.19-4.15,0,0-3.61-2.19-5.57.42C65.94,192.46,64.8,187.93,60.65,191.62Z"/><path class="cls-22" d="M177.1,245.72a23.66,23.66,0,0,1,2.34,9.08c-.45,2.7,3.95,8.12,1.8,11.47-2.94,1.88-1.1-3.22-4.15-5.69,0,0,2.44,7.25-.14,11.05-3,3.46-1.44-6.71-3.66-7.46-.4-.8,1.4,7.62-3.25,10.53-2.44,1.1-.17-7-2.27-8.92-.18.75-1.84,8.76-4.7,8.94-2.72-.38,2.46-11.07-2.2-15.34-1.12.66,0,5.53-1.11,6.51-1.92,1.74-4.49-4.86-4.18-7.81a18.21,18.21,0,0,1,3.27-9C160.18,247.48,177.1,245.72,177.1,245.72Z"/><path class="cls-25" d="M176.79,242.78c-3.09,2.85-14.48,5.61-19.07,3.3-.46.39.23,2.34,1.13,2.95,1.66.59,8.37,2.89,18-3.09C178.16,244.88,176.79,242.78,176.79,242.78Z"/><path class="cls-24" d="M160.12,249.43l-1.27-.4s-6.12,5.77-1.92,14.91c1.18,2.45-.08-2.33.23-7C157.38,253.56,159,250.34,160.12,249.43Z"/><path class="cls-24" d="M205,241.94l-1.27-.4s-6.12,5.77-1.93,14.91c1.18,2.45-.08-2.33.23-7C202.26,246.07,203.88,242.85,205,241.94Z"/><path class="cls-24" d="M160.87,259.38s5.26-1.05,2.46,14c-.12.6.24,1.31.77.88s-.93,1.46-1.84-.22C161.52,271.65,164.78,263,160.87,259.38Z"/><path class="cls-24" d="M167.77,265.78c1.66,2.71.79,6,1,7.3,0,0,0,3.72,2.76.19,0,0-2,3.11-1.64-1S169.25,266.85,167.77,265.78Z"/><path class="cls-24" d="M173.29,264.17c0,.33,1.24-.84,1.65,6.05.49,4,2.34,1.45,2.7,0,0,0-1.65,3.84-1.91-.77S174,263.85,173.29,264.17Z"/><path class="cls-24" d="M177.09,260.58c1.84,2.21,1.63,2.71,2.17,4.69s1.51,2.3,2.4.07c0,0-.77,2.38-1.48-.51S178,260.88,177.09,260.58Z"/></g></g><path class="cls-38" d="M148.71,15.29c-3.7-14.61-17-13.5-17-13.5L105.79,7,44.73,19.12,18.78,24.29s-12.68,4.06-10.5,19S55,277.9,55,277.9s4.15,13,19.44,9.94l53.42-10.64,53.42-10.64c15.29-3,14.15-16.63,14.15-16.63S152.41,29.89,148.71,15.29ZM188,244.22s1.12,12.82-12.84,15.6l-48.79,9.71-48.79,9.72c-13.95,2.78-17.83-9.49-17.83-9.49S17.66,62.19,15.58,48.11s9.49-17.83,9.49-17.83l23.7-4.72C51.56,25,53,28.35,53,28.35l1,4.88c.69,3.49,4.88,2.65,4.88,2.65l20.21-4,20.21-4s4.18-.83,3.49-4.32l-1-4.88s0-3.62,2.79-4.17l23.7-4.72s12.12-1,15.6,12.83S188,244.22,188,244.22Z"/><path class="cls-1" d="M170.53,274.35a.51.51,0,0,0,.16-.09,5.65,5.65,0,0,0,.48-.49A7.12,7.12,0,0,1,170.53,274.35Z"/><path class="cls-5" d="M173.56,264.33c1.05.84,1.08,4.23,1.45,6.32,0-.14,0-.27-.07-.43C174.66,265.46,174,264.55,173.56,264.33Z"/><path class="cls-5" d="M155.82,260.73v0h0Z"/><path class="cls-5" d="M155.76,260.44v0Z"/><path class="cls-5" d="M168.89,273.77c.14.76.42,1.18,1,1C169.27,274.93,169,274.31,168.89,273.77Z"/><path class="cls-5" d="M168.82,273.07h0Z"/><path class="cls-5" d="M179.81,266.53a3.65,3.65,0,0,1-.55-1.23A2.28,2.28,0,0,0,179.81,266.53Z"/><path class="cls-5" d="M168.78,271.71a17.1,17.1,0,0,0-.09-3.3C168.8,269.47,168.78,270.65,168.78,271.71Z"/><path class="cls-5" d="M181.16,266.31l.08,0a3.54,3.54,0,0,0,.37-.79,2.74,2.74,0,0,1-.19.39A3,3,0,0,1,181.16,266.31Z"/><path class="cls-5" d="M162.5,274.35a.75.75,0,0,0,.57.37h.07A.92.92,0,0,1,162.5,274.35Z"/><path class="cls-5" d="M175.17,271.37c0-.08,0-.17-.07-.26C175.12,271.2,175.15,271.29,175.17,271.37Z"/><path class="cls-5" d="M180.18,264.83c.47,1.9,1,1.52,1.24,1a3.79,3.79,0,0,0,.2-.45c1.08-3.36-2.6-8.14-2.18-10.62a23.66,23.66,0,0,0-2.34-9.08s-16.92,1.76-18.25,3.31l1.27.4c-1.12.91-2.74,4.13-3,7.49a30.53,30.53,0,0,0,0,3.58l3.38-.68a.9.9,0,0,1,.33-.44s5.26-1.05,2.46,14c-.12.6.24,1.31.77.88.13-.11.14-.06.05,0,2.19-1.74,3.47-7.83,3.62-8.48,1.48,1.07,2.56,2.42,2.17,6.51-.19,1.93.17,2.25.59,2.06a7.12,7.12,0,0,0,.64-.58c.12-.14.25-.29.38-.46,2.7-3.57,1.4-9.84,1.74-9.14.7-.32,2.19.67,2.44,5.29s1.83.94,1.9.78c1.38-3.94-.54-9.66-.54-9.66C178,260.88,179.46,261.94,180.18,264.83Z"/><path class="cls-5" d="M175.19,271.44c.16.54.38.88.7.9C175.63,272.29,175.38,272,175.19,271.44Z"/><path class="cls-23" d="M155.82,260.73l-.06-.29Z"/><path class="cls-23" d="M158.85,249a12.65,12.65,0,0,0-3.1,11.37,8.1,8.1,0,0,1-.17-2.32A18.21,18.21,0,0,1,158.85,249Z"/><path class="cls-23" d="M157.16,260.5a30.53,30.53,0,0,1,0-3.58c.22-3.36,1.84-6.58,3-7.49l-1.27-.4a18.21,18.21,0,0,0-3.27,9,8.1,8.1,0,0,0,.17,2.32v0l.06.29v0Z"/><path class="cls-23" d="M160.87,259.38c3.91,3.64.65,12.27,1.39,14.63a1.28,1.28,0,0,0,.24.34C161.24,272.37,165.09,263.24,160.87,259.38Z"/><path class="cls-23" d="M163.14,274.71a1.3,1.3,0,0,0,1-.45A1.88,1.88,0,0,1,163.14,274.71Z"/><path class="cls-23" d="M164.1,274.23c-.53.43-.89-.28-.77-.88,2.8-15-2.46-14-2.46-14,4.22,3.86.37,13,1.63,15a.92.92,0,0,0,.64.36,1.88,1.88,0,0,0,1-.45C164.24,274.17,164.23,274.12,164.1,274.23Z"/><path class="cls-23" d="M170.69,274.26a4.52,4.52,0,0,0,.89-1l0,0-.38.46A5.65,5.65,0,0,1,170.69,274.26Z"/><path class="cls-23" d="M168.89,273.77c0-.2,0-.44-.07-.69A5.14,5.14,0,0,0,168.89,273.77Z"/><path class="cls-23" d="M168.82,273.07c0-.41,0-.87,0-1.36A6.3,6.3,0,0,0,168.82,273.07Z"/><path class="cls-23" d="M167.77,265.78a6.91,6.91,0,0,1,.92,2.63A4.19,4.19,0,0,0,167.77,265.78Z"/><path class="cls-23" d="M170,274.7l-.13.05a2,2,0,0,0,.78-.49.51.51,0,0,1-.16.09C170.38,274.47,170.21,274.59,170,274.7Z"/><path class="cls-23" d="M171.55,273.31c-.13.17-.26.32-.38.46Z"/><path class="cls-23" d="M170.53,274.35c-.42.19-.78-.13-.59-2.06.39-4.09-.69-5.44-2.17-6.51a4.19,4.19,0,0,1,.92,2.63,17.1,17.1,0,0,1,.09,3.3c0,.49,0,1,0,1.36h0c0,.25,0,.49.07.69.11.54.38,1.16,1,1l.13-.05C170.21,274.59,170.38,274.47,170.53,274.35Z"/><path class="cls-23" d="M173.29,264.17c0,.1.1.06.27.16A.92.92,0,0,0,173.29,264.17Z"/><path class="cls-23" d="M175.19,271.44s0-.05,0-.07S175.18,271.42,175.19,271.44Z"/><path class="cls-23" d="M175,270.65c0,.17.06.32.09.46C175.07,271,175,270.81,175,270.65Z"/><path class="cls-23" d="M175.89,272.34c.7.14,1.52-1.2,1.75-2.11h0a5.61,5.61,0,0,1-.68,1.39C176.5,272.15,176.16,272.36,175.89,272.34Z"/><path class="cls-23" d="M175.73,269.46c-.25-4.62-1.74-5.61-2.44-5.29a.92.92,0,0,1,.27.16c.39.22,1.1,1.13,1.38,5.89,0,.16,0,.29.07.43s.06.32.09.46.05.18.07.26,0,.05,0,.07c.19.58.44.85.7.9s.61-.19,1.06-.71a5.61,5.61,0,0,0,.68-1.39C177.56,270.4,176,274,175.73,269.46Z"/><path class="cls-23" d="M179.81,266.53c.39.52.87.48,1.35-.22C180.5,266.72,180.08,266.76,179.81,266.53Z"/><path class="cls-23" d="M181.62,265.42s0,0,0,.06l0-.14A.3.3,0,0,1,181.62,265.42Z"/><path class="cls-23" d="M179.26,265.27v0c-.31-1.36-.55-3.41-2.17-4.72C178.93,262.79,178.72,263.29,179.26,265.27Z"/><path class="cls-23" d="M181.42,265.87a2.74,2.74,0,0,0,.19-.39s0,0,0-.06A3.79,3.79,0,0,1,181.42,265.87Z"/><path class="cls-23" d="M180.18,264.83c-.72-2.89-2.15-3.95-3.09-4.25,1.62,1.31,1.86,3.36,2.17,4.72a3.65,3.65,0,0,0,.55,1.23c.27.23.69.19,1.35-.22a3,3,0,0,0,.26-.44C181.14,266.35,180.65,266.73,180.18,264.83Z"/><path class="cls-25" d="M176.79,242.78c-3.09,2.85-14.48,5.61-19.07,3.3-.46.39.23,2.34,1.13,2.95,1.66.59,8.37,2.89,18-3.09C178.16,244.88,176.79,242.78,176.79,242.78Z"/></svg>