<svg id="Capa_1" data-name="Capa 1" xmlns="http://www.w3.org/2000/svg" xmlns:xlink="http://www.w3.org/1999/xlink" viewBox="0 0 413 732"><defs><style>.cls-1{fill:none;}.cls-2{clip-path:url(#clip-path);}.cls-3{clip-path:url(#clip-path-2);}.cls-4{fill:#fff;}.cls-5{opacity:0.3;}.cls-6{fill:url(#linear-gradient);}.cls-7{clip-path:url(#clip-path-4);}.cls-8{fill:url(#linear-gradient-2);}.cls-9{clip-path:url(#clip-path-5);}.cls-10{fill:url(#linear-gradient-3);}.cls-11{fill:url(#linear-gradient-4);}</style><clipPath id="clip-path"><rect class="cls-1" x="-695" y="0.22" width="413" height="731.78"/></clipPath><clipPath id="clip-path-2"><rect class="cls-1" x="-1481.17" y="-630.31" width="1456.47" height="1357.16"/></clipPath><linearGradient id="linear-gradient" x1="-1506.74" y1="-13637.56" x2="257.48" y2="-13637.56" gradientTransform="matrix(1, 0, 0, -1, 0, -13671)" gradientUnits="userSpaceOnUse"><stop offset="0" stop-color="#2d62ff"/><stop offset="0.21" stop-color="#641f87"/><stop offset="0.48" stop-color="#1e2f8a"/><stop offset="1" stop-color="#0e061e"/></linearGradient><clipPath id="clip-path-4"><rect class="cls-1" y="0.22" width="413" height="731.78"/></clipPath><linearGradient id="linear-gradient-2" x1="-786.17" y1="-13724.28" x2="670.3" y2="-13724.28" gradientTransform="matrix(1, 0, 0, -1, 0, -13671)" gradientUnits="userSpaceOnUse"><stop offset="0" stop-color="#0e061e"/><stop offset="0.09" stop-color="#100725"/><stop offset="0.22" stop-color="#150937"/><stop offset="0.36" stop-color="#1d0d55"/><stop offset="0.43" stop-color="#210f65"/><stop offset="0.82" stop-color="#4f1a7c"/><stop offset="0.99" stop-color="#641f87"/></linearGradient><clipPath id="clip-path-5"><rect class="cls-1" x="-786.17" y="-630.31" width="1456.47" height="1357.16"/></clipPath><linearGradient id="linear-gradient-3" x1="-906.72" y1="-13859.07" x2="169.46" y2="-13859.07" xlink:href="#linear-gradient"/><linearGradient id="linear-gradient-4" x1="-811.74" y1="-13637.56" x2="952.48" y2="-13637.56" xlink:href="#linear-gradient"/></defs><title>Mesa de trabajo 20</title><g class="cls-2"><g class="cls-3"><path class="cls-4" d="M149.66,48.32a2.19,2.19,0,1,1-1.54-2.7A2.19,2.19,0,0,1,149.66,48.32Z"/><path class="cls-4" d="M143.12,93.13a2.19,2.19,0,1,1-1.54-2.7A2.19,2.19,0,0,1,143.12,93.13Z"/><path class="cls-4" d="M133,153a2.2,2.2,0,1,1-1.55-2.69A2.19,2.19,0,0,1,133,153Z"/><path class="cls-4" d="M100.47,109.31a2.2,2.2,0,0,1-4.24-1.16,2.2,2.2,0,0,1,4.24,1.16Z"/><path class="cls-4" d="M106.37,190.45a2.19,2.19,0,1,1-1.55-2.7A2.19,2.19,0,0,1,106.37,190.45Z"/><path class="cls-4" d="M55.22,37.86a3.29,3.29,0,1,1-2.3-4.06A3.28,3.28,0,0,1,55.22,37.86Z"/><path class="cls-4" d="M6.2,30.53C2,29.71,1.79,30.74.48,33.74c.56-3.44.73-4.05-3.31-5.67,3.56.61,4.35,1,5.7-3.1C2.08,29.39,2.91,29.06,6.2,30.53Z"/><path class="cls-4" d="M125.89,236.18c-5.4-1.06-5.71.27-7.41,4.16.73-4.46,1-5.25-4.27-7.34,4.6.79,5.62,1.35,7.37-4C120.56,234.7,121.63,234.28,125.89,236.18Z"/><path class="cls-4" d="M64.46,172.11c-2.71-.53-2.86.13-3.72,2.08.37-2.23.48-2.63-2.14-3.68,2.31.4,2.82.68,3.7-2C61.79,171.36,62.32,171.15,64.46,172.11Z"/><path class="cls-4" d="M54.52,150.69c-1.06-.2-1.12.06-1.46.82.15-.87.19-1-.84-1.44.91.16,1.11.27,1.45-.79C53.47,150.4,53.68,150.32,54.52,150.69Z"/><path class="cls-4" d="M82.39,245.46c-1.06-.21-1.12,0-1.45.82.14-.88.18-1-.84-1.45.9.16,1.1.27,1.44-.79C81.34,245.17,81.55,245.09,82.39,245.46Z"/><path class="cls-4" d="M19.81,108.29c-5.4-1.06-5.71.27-7.41,4.16.73-4.46.94-5.25-4.27-7.34,4.59.79,5.62,1.35,7.36-4C14.47,106.81,15.54,106.39,19.81,108.29Z"/><path class="cls-4" d="M155.69,15.82c-5.4-1.05-5.71.27-7.41,4.16.73-4.46.94-5.25-4.27-7.34,4.59.79,5.62,1.35,7.37-4C150.35,14.34,151.42,13.92,155.69,15.82Z"/><path class="cls-4" d="M12.11,59.66a2.07,2.07,0,1,1-1.45-2.54A2.07,2.07,0,0,1,12.11,59.66Z"/><path class="cls-4" d="M18.7,146.82a2.23,2.23,0,1,1-1.57-2.74A2.24,2.24,0,0,1,18.7,146.82Z"/><path class="cls-4" d="M96.89,8.88a1.4,1.4,0,1,1-1-1.71A1.39,1.39,0,0,1,96.89,8.88Z"/><path class="cls-4" d="M76.92,72.81a1.4,1.4,0,1,1-1-1.71A1.39,1.39,0,0,1,76.92,72.81Z"/><path class="cls-4" d="M93.32,155.16a2.16,2.16,0,1,1-1.52-2.64A2.16,2.16,0,0,1,93.32,155.16Z"/><path class="cls-4" d="M56.81,209.42a1.4,1.4,0,1,1,.42-1.93A1.4,1.4,0,0,1,56.81,209.42Z"/><path class="cls-4" d="M94.42,235.16a1.4,1.4,0,0,1-1.5-2.36,1.41,1.41,0,0,1,1.93.43A1.39,1.39,0,0,1,94.42,235.16Z"/><path class="cls-4" d="M26.92,262.9a1.4,1.4,0,0,1-1.92-.43,1.39,1.39,0,1,1,2.35-1.5A1.4,1.4,0,0,1,26.92,262.9Z"/><path class="cls-4" d="M39.26,213.62c.15-.1,0-.7-.47-1.36s-.88-1.09-1-1,.06.71.46,1.35S39.1,213.72,39.26,213.62Z"/><path class="cls-4" d="M306.33,253.55a2.51,2.51,0,1,1-3.35-1.19A2.51,2.51,0,0,1,306.33,253.55Z"/><path class="cls-4" d="M253.91,330.49a2.2,2.2,0,1,1-2.93-1.05A2.2,2.2,0,0,1,253.91,330.49Z"/><path class="cls-4" d="M330.92,297.26a4.34,4.34,0,1,1-5.77-2.07A4.34,4.34,0,0,1,330.92,297.26Z"/><path class="cls-4" d="M69.64,613.1a3.67,3.67,0,1,1-2.76-4.39A3.68,3.68,0,0,1,69.64,613.1Z"/><path class="cls-4" d="M31.17,514.52a2,2,0,1,1-1.48-2.34A2,2,0,0,1,31.17,514.52Z"/><path class="cls-4" d="M302.34,347.06a4.34,4.34,0,1,1-5.77-2.08A4.33,4.33,0,0,1,302.34,347.06Z"/><path class="cls-4" d="M285.43,438.44a3.18,3.18,0,1,1-2.39-3.81A3.18,3.18,0,0,1,285.43,438.44Z"/><path class="cls-4" d="M278.48,503.67a3.18,3.18,0,1,1-2.39-3.81A3.18,3.18,0,0,1,278.48,503.67Z"/><path class="cls-4" d="M267.22,590.94a3.18,3.18,0,1,1-2.39-3.81A3.18,3.18,0,0,1,267.22,590.94Z"/><path class="cls-4" d="M217.64,529.49a3.18,3.18,0,1,1-2.38-3.81A3.17,3.17,0,0,1,217.64,529.49Z"/><path class="cls-4" d="M230.74,646.61a3.18,3.18,0,1,1-2.39-3.81A3.18,3.18,0,0,1,230.74,646.61Z"/><path class="cls-4" d="M148.14,428.6a4.77,4.77,0,1,1-3.56-5.74A4.77,4.77,0,0,1,148.14,428.6Z"/><path class="cls-4" d="M17,239.93c-5.42-.85-5.68.49-7.23,4.44.56-4.48.74-5.28-4.55-7.16,4.62.61,5.67,1.13,7.2-4.29C11.63,238.66,12.68,238.2,17,239.93Z"/><path class="cls-4" d="M76.77,420.75c-6.09-.95-6.37.54-8.11,5,.62-5,.83-5.92-5.1-8,5.18.69,6.35,1.27,8.07-4.81C70.74,419.32,71.92,418.81,76.77,420.75Z"/><path class="cls-4" d="M74.15,707.34c-7.88-1.23-8.25.71-10.5,6.44.81-6.5,1.08-7.66-6.59-10.39,6.7.89,8.21,1.64,10.44-6.23C66.34,705.5,67.87,704.83,74.15,707.34Z"/><path class="cls-4" d="M261.57,711.72c-7.88-1.23-8.25.71-10.49,6.44.8-6.5,1.07-7.66-6.6-10.39,6.7.89,8.21,1.64,10.44-6.23C253.76,709.88,255.29,709.21,261.57,711.72Z"/><path class="cls-4" d="M169.05,622.42c-4-.62-4.14.35-5.26,3.22.4-3.26.54-3.84-3.31-5.21,3.36.45,4.12.83,5.23-3.12C165.13,621.49,165.9,621.16,169.05,622.42Z"/><path class="cls-4" d="M153.46,592c-1.55-.24-1.62.14-2.06,1.26.15-1.27.21-1.5-1.3-2,1.32.18,1.61.32,2.05-1.22C151.92,591.62,152.22,591.49,153.46,592Z"/><path class="cls-4" d="M199.12,727.59c-1.55-.24-1.62.14-2.06,1.27.16-1.28.21-1.51-1.3-2.05,1.32.18,1.62.33,2.05-1.22C197.59,727.23,197.89,727.1,199.12,727.59Z"/><path class="cls-4" d="M196.82,346c-1.55-.24-1.62.14-2.06,1.27.15-1.28.21-1.51-1.3-2.05,1.32.18,1.61.33,2-1.22C195.28,345.59,195.58,345.46,196.82,346Z"/><path class="cls-4" d="M321,352c-1.55-.24-1.62.14-2.06,1.26.15-1.27.21-1.5-1.3-2,1.32.18,1.61.32,2.05-1.22C319.45,351.68,319.75,351.55,321,352Z"/><path class="cls-4" d="M100.83,532.55c-7.87-1.23-8.25.71-10.49,6.43.8-6.5,1.07-7.65-6.6-10.39,6.7.89,8.22,1.64,10.44-6.22C93,530.7,94.55,530,100.83,532.55Z"/><path class="cls-4" d="M124.89,310.73c-7.87-1.23-8.25.71-10.49,6.44.8-6.5,1.07-7.66-6.6-10.39,6.7.89,8.22,1.64,10.44-6.23C117.08,308.89,118.61,308.22,124.89,310.73Z"/><path class="cls-4" d="M292.33,391.07c-7.87-1.23-8.24.71-10.49,6.44.81-6.51,1.08-7.66-6.6-10.4,6.71.9,8.22,1.65,10.45-6.22C284.53,389.22,286.05,388.56,292.33,391.07Z"/><path class="cls-4" d="M240,279.69c-7.87-1.23-8.25.71-10.49,6.43.8-6.5,1.07-7.65-6.6-10.39,6.7.9,8.22,1.64,10.44-6.22C232.22,277.84,233.75,277.18,240,279.69Z"/><path class="cls-4" d="M193.09,301.59a3.24,3.24,0,1,1-2.42-3.88A3.25,3.25,0,0,1,193.09,301.59Z"/><path class="cls-4" d="M87,462.58a3,3,0,1,1-2.25-3.6A3,3,0,0,1,87,462.58Z"/><path class="cls-4" d="M101.39,588.37A3.24,3.24,0,1,1,99,584.5,3.25,3.25,0,0,1,101.39,588.37Z"/><path class="cls-4" d="M127.91,258.76a5,5,0,1,1-3.76-6A5,5,0,0,1,127.91,258.76Z"/><path class="cls-4" d="M129.3,346.85a3.43,3.43,0,1,1-2.57-4.12A3.43,3.43,0,0,1,129.3,346.85Z"/><path class="cls-4" d="M92.64,363.62a2.45,2.45,0,1,1-1.83-2.94A2.45,2.45,0,0,1,92.64,363.62Z"/><path class="cls-4" d="M206.82,384.32a2,2,0,1,1-1.52-2.42A2,2,0,0,1,206.82,384.32Z"/><path class="cls-4" d="M181.5,478a2,2,0,0,1-2.42,1.5,2,2,0,1,1,.91-3.92A2,2,0,0,1,181.5,478Z"/><path class="cls-4" d="M209.87,596.27a3.13,3.13,0,1,1-2.34-3.75A3.12,3.12,0,0,1,209.87,596.27Z"/><path class="cls-4" d="M160.06,676.85a2,2,0,0,1-2.81-.51,2,2,0,0,1,.51-2.82,2,2,0,0,1,2.3,3.33Z"/><path class="cls-4" d="M179.76,227.45a2,2,0,1,1,.51-2.82A2,2,0,0,1,179.76,227.45Z"/><path class="cls-4" d="M42.84,313.82a2,2,0,0,1-2.81-.51,2,2,0,1,1,3.32-2.3A2,2,0,0,1,42.84,313.82Z"/><path class="cls-4" d="M75,225.67a2,2,0,1,1,.51-2.82A2,2,0,0,1,75,225.67Z"/><path class="cls-4" d="M216,712a2,2,0,1,1,.5-2.82A2,2,0,0,1,216,712Z"/><path class="cls-4" d="M134.9,683.93c.22-.16-.12-1-.76-1.94s-1.33-1.54-1.55-1.39.13,1,.75,1.94S134.67,684.08,134.9,683.93Z"/></g><g class="cls-3"><g class="cls-5"><path class="cls-6" d="M-1506.74-258.52c117.2,787.83,679.22,189.06,730.36-422.15,25.81-308.56,429.28-32.91,292.48,196.84S-95.57-356.92-284.14-43.55C-465.31,257.51-410,1238.37-282.54,505.5-78-670.3,8.65,1573.42,27.49,689.39,32.29,464.07-420-968.15,225.65-302.54,346.32-178.13,85-830.88,85-830.88L-49.22-641.81s-266.88,217.55-282.86,57S-710.83-968.15-710.83-968.15L-917-685.85S-1276.61-41-1506.74-349.16Z"/></g></g></g><g class="cls-7"><rect class="cls-8" x="-786.17" y="-625.31" width="1456.47" height="1357.16"/><g class="cls-9"><path class="cls-4" d="M252.84,14.22a3.13,3.13,0,1,1-2.18-3.86A3.12,3.12,0,0,1,252.84,14.22Z"/><path class="cls-4" d="M95.9,67c-7.7-1.56-8.15.33-10.62,5.87,1.08-6.37,1.4-7.49-6-10.53,6.56,1.18,8,2,10.56-5.66C88.3,64.82,89.83,64.24,95.9,67Z"/><path class="cls-4" d="M280.27,79.73c-7.69-1.57-8.15.33-10.62,5.87,1.09-6.37,1.4-7.5-6-10.53,6.56,1.18,8,2,10.56-5.66C272.67,77.56,274.2,77,280.27,79.73Z"/><path class="cls-4" d="M32.26,101.64c-3.86-.78-4.09.17-5.33,3,.55-3.2.71-3.76-3-5.29,3.29.6,4,1,5.3-2.84C28.45,100.55,29.22,100.26,32.26,101.64Z"/><path class="cls-4" d="M218.07,92.55c-1.52-.31-1.61.06-2.09,1.15.21-1.25.27-1.47-1.19-2.07,1.29.24,1.58.39,2.08-1.11C216.57,92.12,216.87,92,218.07,92.55Z"/><path class="cls-4" d="M181.88,40.83a2,2,0,1,1,.63-2.75A2,2,0,0,1,181.88,40.83Z"/><path class="cls-4" d="M235.34,78a2,2,0,1,1,.63-2.76A2,2,0,0,1,235.34,78Z"/><path class="cls-4" d="M138.68,116.91a2,2,0,1,1,.63-2.75A2,2,0,0,1,138.68,116.91Z"/><path class="cls-4" d="M156.78,46.67c.22-.15-.07-1-.66-2s-1.24-1.58-1.46-1.44.08,1,.65,1.95S156.55,46.81,156.78,46.67Z"/><path class="cls-4" d="M49.5,49.61a1.73,1.73,0,1,1-1.23-2.13A1.74,1.74,0,0,1,49.5,49.61Z"/><path class="cls-4" d="M222.32,22.34a2.1,2.1,0,1,1-1.5-2.57A2.11,2.11,0,0,1,222.32,22.34Z"/><path class="cls-4" d="M117.87,59.33c-5.17-1-5.45.31-7.05,4,.66-4.27.86-5-4.14-7,4.4.72,5.38,1.24,7-3.9C112.76,58,113.78,57.55,117.87,59.33Z"/><path class="cls-4" d="M241.38,65.87c-5.17-1-5.45.31-7,4,.66-4.27.86-5-4.14-7,4.4.72,5.38,1.25,7-3.9C236.27,64.5,237.29,64.09,241.38,65.87Z"/><path class="cls-4" d="M75.66,83.2c-2.59-.48-2.74.16-3.54,2,.33-2.14.43-2.52-2.08-3.5,2.21.36,2.71.62,3.52-2C73.09,82.52,73.6,82.31,75.66,83.2Z"/><path class="cls-4" d="M182.11,5.18c-2.59-.49-2.74.15-3.54,2,.34-2.14.43-2.52-2.08-3.5,2.21.36,2.71.63,3.52-1.95C179.54,4.49,180.06,4.29,182.11,5.18Z"/><path class="cls-4" d="M199.89,75.12c-1-.19-1.07.06-1.38.8.12-.84.16-1-.82-1.38.86.14,1.06.25,1.38-.76C198.88,74.85,199.09,74.77,199.89,75.12Z"/><path class="cls-4" d="M175.12,40.9a1.33,1.33,0,0,1-1.45-2.24,1.33,1.33,0,0,1,1.45,2.24Z"/><path class="cls-4" d="M15.85.44A1.33,1.33,0,0,1,14,.05a1.35,1.35,0,0,1,.38-1.85,1.35,1.35,0,0,1,1.85.39A1.34,1.34,0,0,1,15.85.44Z"/><path class="cls-4" d="M211.29,65.18a1.33,1.33,0,0,1-1.45-2.24,1.33,1.33,0,0,1,1.45,2.24Z"/><path class="cls-4" d="M147,92.28a1.34,1.34,0,0,1-1.84-.4,1.33,1.33,0,1,1,1.84.4Z"/><path class="cls-4" d="M158.39,45.08c.15-.1-.06-.68-.46-1.3s-.85-1-1-.94.07.68.46,1.29S158.24,45.17,158.39,45.08Z"/><path class="cls-4" d="M318.87,19.53c-3.68-.65-3.88.26-5,2.92.44-3,.57-3.58-3-4.93,3.13.48,3.84.85,4.95-2.82C315.22,18.59,316,18.3,318.87,19.53Z"/><path class="cls-4" d="M394.35,29a1.76,1.76,0,0,1-3.41-.86,1.76,1.76,0,0,1,3.41.86Z"/><path class="cls-4" d="M357.83,32.26a1.21,1.21,0,0,1-2.35-.59,1.21,1.21,0,0,1,2.35.59Z"/><path class="cls-4" d="M254.3,145a3,3,0,1,1-2.21-3.62A3,3,0,0,1,254.3,145Z"/><path class="cls-4" d="M413,150a2,2,0,1,1-1.46-2.36A2,2,0,0,1,413,150Z"/><path class="cls-4" d="M368.68,174.57a2.64,2.64,0,1,1-1.93-3.2A2.65,2.65,0,0,1,368.68,174.57Z"/><path class="cls-4" d="M349.66,330.85a2.64,2.64,0,1,1-1.93-3.21A2.63,2.63,0,0,1,349.66,330.85Z"/><path class="cls-4" d="M191.28,136.44c-7.88-1.32-8.28.62-10.6,6.33.88-6.5,1.17-7.66-6.49-10.49,6.71,1,8.22,1.74,10.54-6.12C183.47,134.5,185,133.85,191.28,136.44Z"/><path class="cls-4" d="M100.29,258.85c-4-.67-4.15.31-5.32,3.17.45-3.26.59-3.84-3.25-5.26,3.36.49,4.12.87,5.29-3.07C96.37,257.87,97.14,257.55,100.29,258.85Z"/><path class="cls-4" d="M390.31,381.18c-4-.67-4.16.3-5.32,3.17.44-3.26.59-3.84-3.26-5.26,3.37.48,4.13.87,5.29-3.07C386.39,380.2,387.16,379.88,390.31,381.18Z"/><path class="cls-4" d="M236.24,197c-1.55-.26-1.63.12-2.09,1.25.18-1.28.23-1.51-1.27-2.07,1.31.19,1.61.35,2.07-1.2C234.7,196.64,235,196.51,236.24,197Z"/><path class="cls-4" d="M138.16,319.66c-6.18-1-6.49.48-8.31,5,.69-5.11.91-6-5.1-8.24,5.27.77,6.45,1.37,8.28-4.8C132,318.14,133.24,317.63,138.16,319.66Z"/><path class="cls-4" d="M306.35,31.57c-7.88-1.32-8.28.62-10.59,6.33.88-6.5,1.16-7.66-6.5-10.49,6.71,1,8.22,1.74,10.55-6.12C298.55,29.63,300.09,29,306.35,31.57Z"/><path class="cls-4" d="M306,204.68c-4.62-.78-4.86.36-6.21,3.71.51-3.81.68-4.49-3.81-6.15,3.93.57,4.82,1,6.18-3.59C301.4,203.54,302.3,203.16,306,204.68Z"/><path class="cls-4" d="M135.41,25.42a4.23,4.23,0,1,1-3.11-5.12A4.23,4.23,0,0,1,135.41,25.42Z"/><path class="cls-4" d="M139,189.41a2.7,2.7,0,1,1-2-3.27A2.71,2.71,0,0,1,139,189.41Z"/><path class="cls-4" d="M106,120.81a4.91,4.91,0,1,1-3.61-5.93A4.92,4.92,0,0,1,106,120.81Z"/><path class="cls-4" d="M129.25,218a3.2,3.2,0,1,1-2.34-3.86A3.2,3.2,0,0,1,129.25,218Z"/><path class="cls-4" d="M143.17,81a2,2,0,1,1-1.45-2.36A2,2,0,0,1,143.17,81Z"/><path class="cls-4" d="M381.51,3.38a3.19,3.19,0,1,1-2.35-3.85A3.19,3.19,0,0,1,381.51,3.38Z"/><path class="cls-4" d="M199.71,29.54a3,3,0,1,1-2.21-3.63A3,3,0,0,1,199.71,29.54Z"/><path class="cls-4" d="M289.82,72.23a3.19,3.19,0,1,1,.85-4.43A3.19,3.19,0,0,1,289.82,72.23Z"/><path class="cls-4" d="M351.56,74.29a2,2,0,1,1,.54-2.82A2,2,0,0,1,351.56,74.29Z"/><path class="cls-4" d="M297.21,257a2,2,0,1,1,.54-2.81A2,2,0,0,1,297.21,257Z"/><path class="cls-4" d="M357.85,241.4a2,2,0,1,1,.55-2.82A2,2,0,0,1,357.85,241.4Z"/><path class="cls-4" d="M321.33,165a3.13,3.13,0,1,1-2.3-3.78A3.13,3.13,0,0,1,321.33,165Z"/><path class="cls-4" d="M264.83,334.53a2.95,2.95,0,1,1-2.17-3.54A2.95,2.95,0,0,1,264.83,334.53Z"/><path class="cls-4" d="M226.17,240.41a3.56,3.56,0,1,1-2.61-4.32A3.56,3.56,0,0,1,226.17,240.41Z"/><path class="cls-4" d="M147.41,260.39a2.88,2.88,0,1,1-2.11-3.5A2.9,2.9,0,0,1,147.41,260.39Z"/><path class="cls-4" d="M203.63,340.53a2,2,0,1,1-3.93-1,2,2,0,0,1,3.93,1Z"/><path class="cls-4" d="M415.55,626.81c-3.95-.62-4.14.36-5.26,3.23.4-3.26.54-3.84-3.31-5.21,3.36.45,4.12.82,5.23-3.12C411.63,625.89,412.4,625.55,415.55,626.81Z"/><path class="cls-4" d="M419.59,489.06a4.9,4.9,0,1,1-3.67-5.87A4.9,4.9,0,0,1,419.59,489.06Z"/></g><g class="cls-9"><g class="cls-5"><path class="cls-10" d="M-786.2-105.54C-896.39-64.28-619.93,1065-215.61-46.06s521,645.16,201.37,512.79-487.42,56.38-290.85,325.74h-289.3s49.59-44-202.91-429.85S-786.2-105.54-786.2-105.54Z"/><path class="cls-11" d="M-811.74-258.52C-694.54,529.31-132.52-69.46-81.38-680.67-55.57-989.23,347.9-713.58,211.1-483.83S599.43-356.92,410.86-43.55C229.69,257.51,285,1238.37,412.46,505.5,617-670.3,703.65,1573.42,722.49,689.39,727.29,464.07,275-968.15,920.65-302.54,1041.32-178.13,780-830.88,780-830.88L645.78-641.81s-266.88,217.55-282.86,57S-15.83-968.15-15.83-968.15L-222-685.85S-581.61-41-811.74-349.16Z"/></g></g></g></svg>