<svg id="Capa_1" data-name="Capa 1" xmlns="http://www.w3.org/2000/svg" viewBox="0 0 306 72"><defs><style>.cls-1{fill:#fff;}</style></defs><title>Mesa de trabajo 16</title><path class="cls-1" d="M187.54,35.47s-12-11.92-19.17-18.81a3,3,0,0,0-5.11,2.16h0a3,3,0,0,0,.88,2.13l13.57,13.56a3,3,0,0,1,0,4.26L164.14,52.34a3,3,0,0,0-.88,2.13h0a3,3,0,0,0,5.11,2.16c7.12-6.89,19.17-18.81,19.17-18.81A1.66,1.66,0,0,0,187.54,35.47Zm-21-18.66Z"/><path class="cls-1" d="M121.29,34.51,134.86,21a3,3,0,0,0,.88-2.13h0a3,3,0,0,0-5.11-2.16c-7.12,6.89-19.17,18.81-19.17,18.81a1.66,1.66,0,0,0,0,2.35s12.05,11.92,19.17,18.81a3,3,0,0,0,5.11-2.16h0a3,3,0,0,0-.88-2.13L121.29,38.77A3,3,0,0,1,121.29,34.51Z"/><path class="cls-1" d="M142.48,61.44a3.22,3.22,0,0,1-1-.15,3.14,3.14,0,0,1-2-4l14-43.31a3.14,3.14,0,1,1,6,1.94l-14,43.31A3.13,3.13,0,0,1,142.48,61.44Z"/><path class="cls-1" d="M42.83,9.64l-6.19,6.19a3.7,3.7,0,0,0-.93,3.64H20.59a2.31,2.31,0,0,0-2.25,1.83L9.79,61.62a2.27,2.27,0,0,0,.79,2.26,2.31,2.31,0,0,0,2.26.8l40.33-8.55a2.33,2.33,0,0,0,1.15-.63A2.3,2.3,0,0,0,55,53.87V39a3.7,3.7,0,0,0,4-.82L65.15,32a3.69,3.69,0,0,0,0-5.22L48.05,9.64A3.69,3.69,0,0,0,42.83,9.64Zm7.56,25.63V52l-30.9,6.56L35.43,42.62a5.07,5.07,0,1,0-3.77-3.4L15.91,55l6.55-30.89H39.19l5.44,5.43a1.29,1.29,0,0,0,.17.16c0,.06.1.11.15.17Zm10.85-5.92-4.88,4.89L40.55,18.43l4.89-4.88Z"/><path class="cls-1" d="M274.37,28.19a5.07,5.07,0,0,0-.68,0V18a6,6,0,0,0-8.15-5.57L242.1,21.52H228.87a8.54,8.54,0,0,0-8.53,8.53v9.78a8.55,8.55,0,0,0,5,7.76l-1.85,8.84a3.19,3.19,0,0,0,.48,2.45,3.63,3.63,0,0,0,2.29,1.55l3.75.77a3.44,3.44,0,0,0,.78.08,3.74,3.74,0,0,0,1.82-.47,3.37,3.37,0,0,0,1.63-2.22l2.12-10.23h5.47l23.82,8.88a6,6,0,0,0,8.05-5.59V41.54a5.14,5.14,0,0,0,5.78-5.06V33.29A5.1,5.1,0,0,0,274.37,28.19ZM230.46,57.25l-3-.62,1.72-8.25,3.07.08Zm9.36-14H228.87a3.44,3.44,0,0,1-3.43-3.43V30.05a3.44,3.44,0,0,1,3.43-3.43h10.95Zm28.77,8.39a.86.86,0,0,1-.37.72.9.9,0,0,1-.8.1h0L245,44.1V25.87l22.41-8.71a.87.87,0,0,1,1.2.82Zm7.48-15.17a1.7,1.7,0,0,1-1.7,1.7,1.65,1.65,0,0,1-.68-.14V31.72a1.65,1.65,0,0,1,.68-.14,1.71,1.71,0,0,1,1.7,1.71Z"/><circle class="cls-1" cx="281.58" cy="25.58" r="1.29"/><circle class="cls-1" cx="286.18" cy="34.96" r="1.29"/><circle class="cls-1" cx="281.58" cy="43.89" r="1.29"/><path class="cls-1" d="M285,24.25a1.78,1.78,0,0,1-1.27-3l4.89-4.89a1.79,1.79,0,0,1,2.52,2.53l-4.88,4.88A1.78,1.78,0,0,1,285,24.25Z"/><path class="cls-1" d="M298.22,36.68h-6.91a1.79,1.79,0,1,1,0-3.57h6.91a1.79,1.79,0,0,1,0,3.57Z"/><path class="cls-1" d="M290,54.14a1.8,1.8,0,0,1-1.27-.53l-4.88-4.88a1.78,1.78,0,0,1,2.52-2.52l4.89,4.88a1.79,1.79,0,0,1-1.26,3Z"/></svg>