<svg id="Capa_1" data-name="Capa 1" xmlns="http://www.w3.org/2000/svg" xmlns:xlink="http://www.w3.org/1999/xlink" viewBox="0 0 330 326"><defs><style>.cls-1{fill:none;}.cls-2{fill:#201932;}.cls-3{clip-path:url(#clip-path);}.cls-4{fill:url(#linear-gradient);}.cls-5{clip-path:url(#clip-path-2);}.cls-6{fill:#fff;}.cls-7{opacity:0.3;}.cls-8{fill:url(#linear-gradient-2);}.cls-9{fill:url(#linear-gradient-3);}.cls-10{fill:#eeedeb;}.cls-11{fill:#d8d8d8;}.cls-12{fill:#c8c8c8;}.cls-13{fill:#662d91;}.cls-14{fill:#f0f0f0;}.cls-15{fill:#3c2158;}.cls-16{fill:#58297e;}.cls-17{fill:#2e1d45;}.cls-18{fill:#4a256b;}.cls-19{fill:#f6f6f8;}</style><clipPath id="clip-path"><rect class="cls-1" x="4.29" y="2.09" width="291.94" height="320.97" rx="19.35"/></clipPath><linearGradient id="linear-gradient" x1="-103.64" y1="314.8" x2="1263.36" y2="314.8" gradientUnits="userSpaceOnUse"><stop offset="0" stop-color="#0e061e"/><stop offset="0.09" stop-color="#100725"/><stop offset="0.22" stop-color="#150937"/><stop offset="0.36" stop-color="#1d0d55"/><stop offset="0.43" stop-color="#210f65"/><stop offset="0.82" stop-color="#4f1a7c"/><stop offset="0.99" stop-color="#641f87"/></linearGradient><clipPath id="clip-path-2"><rect class="cls-1" x="-103.64" y="-78.2" width="1367" height="786"/></clipPath><linearGradient id="linear-gradient-2" x1="-216.78" y1="233.84" x2="793.29" y2="233.84" gradientUnits="userSpaceOnUse"><stop offset="0" stop-color="#2d62ff"/><stop offset="0.21" stop-color="#641f87"/><stop offset="0.48" stop-color="#1e2f8a"/><stop offset="1" stop-color="#0e061e"/></linearGradient><linearGradient id="linear-gradient-3" x1="-127.64" y1="362.12" x2="1528.21" y2="362.12" xlink:href="#linear-gradient-2"/></defs><title>Mesa de trabajo 8</title><rect class="cls-2" x="4.29" y="2.09" width="291.94" height="320.97" rx="19.35"/><g class="cls-3"><rect class="cls-4" x="-103.64" y="-78.2" width="1367" height="786"/><g class="cls-5"><path class="cls-6" d="M166.42,178.93a2.76,2.76,0,0,1-5.37-1.29,2.76,2.76,0,1,1,5.37,1.29Z"/><path class="cls-6" d="M242.48,224.76a2.64,2.64,0,1,1-1.94-3.2A2.63,2.63,0,0,1,242.48,224.76Z"/><path class="cls-6" d="M309,271.22c-5.09-.84-5.35.41-6.84,4.11.56-4.21.74-5-4.21-6.78,4.34.62,5.31,1.12,6.8-4C304,270,305,269.56,309,271.22Z"/><path class="cls-6" d="M75.39,299.33c-4.14-.69-4.34.33-5.55,3.33.45-3.42.6-4-3.43-5.5,3.53.5,4.32.9,5.53-3.22C71.29,298.32,72.1,298,75.39,299.33Z"/><path class="cls-6" d="M119.63,268.76c-1.45-.24-1.52.12-1.95,1.18.16-1.2.21-1.42-1.2-1.94,1.24.18,1.52.32,1.94-1.13C118.19,268.41,118.47,268.29,119.63,268.76Z"/><path class="cls-6" d="M170,234.77c-4.68-.78-4.92.37-6.29,3.77.52-3.86.69-4.55-3.86-6.22,4,.57,4.88,1,6.25-3.65C165.31,233.63,166.22,233.24,170,234.77Z"/><path class="cls-6" d="M146.86,208.64a5.18,5.18,0,1,1-3.81-6.25A5.19,5.19,0,0,1,146.86,208.64Z"/><path class="cls-6" d="M125.84,324a2.3,2.3,0,1,1-1.69-2.78A2.29,2.29,0,0,1,125.84,324Z"/><path class="cls-6" d="M272.51,323.13a1.89,1.89,0,0,1-2.29,1.39,1.9,1.9,0,1,1,2.29-1.39Z"/><path class="cls-6" d="M217.75,291.84a1.9,1.9,0,1,1,.5-2.64A1.9,1.9,0,0,1,217.75,291.84Z"/><path class="cls-6" d="M184.79,213.78c.21-.14-.1-1-.69-1.83s-1.24-1.46-1.45-1.32.11,1,.69,1.83S184.58,213.93,184.79,213.78Z"/></g><g class="cls-5"><g class="cls-7"><path class="cls-8" d="M-103.66,403.88C-207.08,380,52.39-274,431.88,369.43s489-373.64,189-297S163.4,39.8,347.89-116.2H76.36s46.54,25.46-190.45,249S-103.66,403.88-103.66,403.88Z"/><path class="cls-9" d="M-127.64,492.48C-17.64,36.21,509.86,383,557.85,737c24.23,178.7,402.92,19,274.52-114s364.48-73.5,187.49-255c-170-174.36-118.17-742.42,1.5-318,192,681,273.3-618.48,291-106.5,4.51,130.49-420,960,186,574.47,113.26-72.05-132,306-132,306l-126-109.5s-250.49-126-265.49-33-355.48,222-355.48,222L425.86,740S88.36,366.49-127.64,545Z"/></g></g></g><rect class="cls-6" x="76.11" y="105.76" width="249.89" height="160.43" rx="4.53"/><rect class="cls-2" x="83.82" y="113.48" width="234.46" height="113.85"/><path class="cls-10" d="M194.58,247.44a6.48,6.48,0,1,0,6.47-6.48A6.47,6.47,0,0,0,194.58,247.44Z"/><polygon class="cls-6" points="163.57 286.81 238.53 286.81 229.77 266.19 172.33 266.19 163.57 286.81"/><polygon class="cls-11" points="170.15 271.33 172.33 266.19 229.77 266.19 231.96 271.33 170.15 271.33"/><rect class="cls-6" x="157.24" y="283.89" width="87.62" height="3.89"/><path class="cls-6" d="M103.11,139.15H219.31a0,0,0,0,1,0,0v75.79a2.46,2.46,0,0,1-2.46,2.46H105.58a2.46,2.46,0,0,1-2.46-2.46V139.15A0,0,0,0,1,103.11,139.15Z"/><rect class="cls-2" x="128.01" y="126.1" width="66.4" height="104.34" transform="translate(339.48 17.06) rotate(90)"/><rect class="cls-10" x="161.21" y="144.87" width="52.17" height="66.61"/><path class="cls-12" d="M105.58,130.85H216.85a2.46,2.46,0,0,1,2.46,2.46v5.84a0,0,0,0,1,0,0H103.11a0,0,0,0,1,0,0v-5.84a2.46,2.46,0,0,1,2.46-2.46Z"/><path class="cls-13" d="M188,162.33a5,5,0,1,0,5-5A5,5,0,0,0,188,162.33Z"/><path class="cls-13" d="M112,134.84a1.47,1.47,0,1,1-1.47-1.47A1.47,1.47,0,0,1,112,134.84Z"/><path class="cls-14" d="M118.27,134.84a1.47,1.47,0,1,1-1.47-1.47A1.47,1.47,0,0,1,118.27,134.84Z"/><path class="cls-14" d="M124.56,134.84a1.47,1.47,0,1,1-1.47-1.47A1.47,1.47,0,0,1,124.56,134.84Z"/><polygon class="cls-15" points="137.61 170.7 121.06 211.47 154.16 211.47 137.61 170.7"/><polygon class="cls-12" points="184.81 170.7 201.37 211.47 168.26 211.47 184.81 170.7"/><polygon class="cls-16" points="161.21 153.34 137.61 211.47 184.81 211.47 161.21 153.34"/><polygon class="cls-6" points="161.21 211.47 184.81 211.47 161.21 153.34 161.21 211.47"/><path class="cls-6" d="M232.33,138.94h64.15a0,0,0,0,1,0,0v54.59A2.46,2.46,0,0,1,294,196H234.79a2.46,2.46,0,0,1-2.46-2.46V138.94A0,0,0,0,1,232.33,138.94Z"/><rect class="cls-17" x="241.81" y="141.31" width="45.2" height="52.3" transform="translate(431.87 -96.94) rotate(90)"/><path class="cls-12" d="M234.79,130.64H294a2.46,2.46,0,0,1,2.46,2.46v5.84a0,0,0,0,1,0,0H232.33a0,0,0,0,1,0,0V133.1A2.46,2.46,0,0,1,234.79,130.64Z"/><path class="cls-13" d="M241.2,134.63a1.47,1.47,0,1,1-1.47-1.47A1.47,1.47,0,0,1,241.2,134.63Z"/><path class="cls-14" d="M247.49,134.63a1.47,1.47,0,1,1-1.47-1.47A1.47,1.47,0,0,1,247.49,134.63Z"/><path class="cls-14" d="M253.78,134.63a1.48,1.48,0,1,1-1.47-1.47A1.47,1.47,0,0,1,253.78,134.63Z"/><rect class="cls-6" x="242.23" y="148.84" width="6.59" height="1.7"/><rect class="cls-13" x="247.21" y="153.34" width="22.33" height="1.7"/><rect class="cls-13" x="247.21" y="157.84" width="11.16" height="1.7"/><rect class="cls-13" x="252.79" y="162.33" width="8.37" height="1.7"/><rect class="cls-6" x="242.23" y="169" width="6.59" height="1.7"/><rect class="cls-13" x="247.21" y="173.5" width="22.33" height="1.7"/><rect class="cls-13" x="247.21" y="177.99" width="11.16" height="1.7"/><rect class="cls-13" x="252.79" y="182.49" width="8.37" height="1.7"/><path class="cls-6" d="M141.49,207.61H33.59a4.88,4.88,0,0,0-4.88,4.88v68H146.37v-68A4.89,4.89,0,0,0,141.49,207.61Z"/><path class="cls-11" d="M145.33,286.86H29.74a6.36,6.36,0,0,1-6.36-6.36H151.7A6.37,6.37,0,0,1,145.33,286.86Z"/><rect class="cls-13" x="33.59" y="212.49" width="107.9" height="63.13"/><rect class="cls-14" x="38.47" y="217.37" width="98.14" height="53.37"/><rect class="cls-18" x="48.25" y="224.98" width="29.6" height="29.6" rx="2"/><path class="cls-13" d="M50.25,225h25.6a2,2,0,0,1,2,2v1.9a0,0,0,0,1,0,0H48.25a0,0,0,0,1,0,0V227A2,2,0,0,1,50.25,225Z"/><rect class="cls-17" x="131.85" y="217.36" width="4.76" height="53.39"/><rect class="cls-6" x="67.13" y="233.53" width="29.6" height="29.6" rx="2"/><path class="cls-15" d="M69.13,233.53h25.6a2,2,0,0,1,2,2v1.9a0,0,0,0,1,0,0H67.13a0,0,0,0,1,0,0v-1.9A2,2,0,0,1,69.13,233.53Z"/><rect class="cls-6" x="54.01" y="54.98" width="42.91" height="80.17" rx="2.71"/><rect class="cls-17" x="57.4" y="59.39" width="36.13" height="68.64"/><rect class="cls-6" x="57.4" y="59.39" width="36.13" height="3.34"/><path class="cls-13" d="M78.52,133.24h-6.1a1.53,1.53,0,0,1,0-3.06h6.1a1.53,1.53,0,0,1,0,3.06Zm-6.1-2.49a1,1,0,0,0,0,1.92h6.1a1,1,0,1,0,0-1.92Z"/><path class="cls-13" d="M79.37,57.75h-7.8a.57.57,0,0,1-.57-.56.58.58,0,0,1,.57-.57h7.8a.57.57,0,0,1,.56.57A.56.56,0,0,1,79.37,57.75Z"/><path class="cls-13" d="M82.7,57.75h-.57a.56.56,0,0,1-.56-.56.57.57,0,0,1,.56-.57h.57a.57.57,0,0,1,.56.57A.56.56,0,0,1,82.7,57.75Z"/><path class="cls-13" d="M59.84,61.06a.77.77,0,0,1-.77.76.76.76,0,0,1,0-1.52A.77.77,0,0,1,59.84,61.06Z"/><path class="cls-12" d="M62.4,61.06a.76.76,0,1,1-.76-.76A.76.76,0,0,1,62.4,61.06Z"/><path class="cls-12" d="M65,61.06a.76.76,0,0,1-.76.76.76.76,0,1,1,0-1.52A.76.76,0,0,1,65,61.06Z"/><rect class="cls-12" x="87.95" y="60.52" width="4.24" height="1.07"/><rect class="cls-12" x="84.86" y="60.52" width="1.45" height="1.07"/><rect class="cls-6" x="61.7" y="77.23" width="6.59" height="1.7"/><rect class="cls-13" x="66.68" y="81.73" width="22.33" height="1.7"/><rect class="cls-13" x="66.68" y="86.22" width="11.16" height="1.7"/><rect class="cls-13" x="72.26" y="90.72" width="8.37" height="1.7"/><rect class="cls-6" x="61.7" y="102.34" width="6.59" height="1.7"/><rect class="cls-13" x="66.68" y="106.83" width="22.33" height="1.7"/><rect class="cls-13" x="66.68" y="111.33" width="11.16" height="1.7"/><rect class="cls-13" x="72.26" y="115.83" width="8.37" height="1.7"/><rect class="cls-2" x="138.79" y="55.81" width="5.53" height="9.28" rx="1.24" transform="translate(-1.29 117.8) rotate(-45)"/><rect class="cls-13" x="136.92" y="59.71" width="9.28" height="1.49" transform="translate(-1.29 117.8) rotate(-45)"/><rect class="cls-13" x="136.97" y="60.59" width="10.95" height="1.49" transform="translate(85.09 -82.76) rotate(45)"/><rect class="cls-6" x="142.88" y="49.22" width="13.35" height="6.47" transform="translate(6.71 121.12) rotate(-45)"/><rect class="cls-6" x="126.88" y="65.22" width="13.35" height="6.47" transform="translate(-9.29 114.49) rotate(-45)"/><path class="cls-6" d="M149.87,63.59a4.21,4.21,0,0,0-5.18,5.17Z"/><rect class="cls-6" x="232.9" y="60.9" width="51.23" height="30.22" rx="1.71"/><rect class="cls-13" x="238.78" y="67.19" width="6.68" height="2.74"/><rect class="cls-13" x="249.49" y="67.19" width="10.72" height="2.74"/><rect class="cls-12" x="267.53" y="73.27" width="10.72" height="2.74"/><rect class="cls-13" x="264.25" y="67.19" width="14" height="2.74"/><path class="cls-12" d="M246.87,80.4a4.41,4.41,0,0,1-6,6A3.52,3.52,0,0,1,239.36,85a4.41,4.41,0,0,1,6-6A3.52,3.52,0,0,1,246.87,80.4Z"/><path class="cls-16" d="M253.25,80.4a4.41,4.41,0,0,1-6,6A3.56,3.56,0,0,1,245.74,85a4.41,4.41,0,0,1,6-6A3.52,3.52,0,0,1,253.25,80.4Z"/><path class="cls-6" d="M110.1,73.5H86a1,1,0,0,0-1,1v2.9H83v5.46h2v2.89a1,1,0,0,0,1,1h24.1a1,1,0,0,0,1-1V74.46A1,1,0,0,0,110.1,73.5Z"/><rect class="cls-6" x="94.03" y="69.64" width="8.03" height="20.89" transform="translate(178.14 -17.96) rotate(90)"/><polygon class="cls-13" points="105.51 77.36 100.05 82.82 107.21 82.82 107.21 77.36 105.51 77.36"/><rect class="cls-13" x="171.41" y="91.85" width="53.46" height="36.51" rx="2.33"/><polygon class="cls-13" points="198.82 123.58 191.07 135.12 205.22 126.53 198.82 123.58"/><path class="cls-19" d="M187.08,110.1a2.55,2.55,0,1,1-2.55-2.55A2.55,2.55,0,0,1,187.08,110.1Z"/><path class="cls-19" d="M200.69,110.1a2.55,2.55,0,1,1-2.55-2.55A2.55,2.55,0,0,1,200.69,110.1Z"/><circle class="cls-19" cx="211.75" cy="110.1" r="2.55"/></svg>